%TF.GenerationSoftware,KiCad,Pcbnew,7.0.11+dfsg-1build4*%
%TF.CreationDate,2026-09-27T03:20:39+03:00*%
%TF.ProjectId,rl_fc_f405,726c5f66-635f-4663-9430-352e6b696361,rev?*%
%TF.SameCoordinates,Original*%
%TF.FileFunction,Copper,L1,Top*%
%TF.FilePolarity,Positive*%
%FSLAX46Y46*%
G04 Gerber Fmt 4.6, Leading zero omitted, Abs format (unit mm)*
G04 Created by KiCad (PCBNEW 7.0.11+dfsg-1build4) date 2026-09-27 03:20:39*
%MOMM*%
%LPD*%
G01*
G04 APERTURE LIST*
G04 Aperture macros list*
%AMRoundRect*
0 Rectangle with rounded corners*
0 $1 Rounding radius*
0 $2 $3 $4 $5 $6 $7 $8 $9 X,Y pos of 4 corners*
0 Add a 4 corners polygon primitive as box body*
4,1,4,$2,$3,$4,$5,$6,$7,$8,$9,$2,$3,0*
0 Add four circle primitives for the rounded corners*
1,1,$1+$1,$2,$3*
1,1,$1+$1,$4,$5*
1,1,$1+$1,$6,$7*
1,1,$1+$1,$8,$9*
0 Add four rect primitives between the rounded corners*
20,1,$1+$1,$2,$3,$4,$5,0*
20,1,$1+$1,$4,$5,$6,$7,0*
20,1,$1+$1,$6,$7,$8,$9,0*
20,1,$1+$1,$8,$9,$2,$3,0*%
G04 Aperture macros list end*
%TA.AperFunction,SMDPad,CuDef*%
%ADD10RoundRect,0.135000X0.185000X-0.135000X0.185000X0.135000X-0.185000X0.135000X-0.185000X-0.135000X0*%
%TD*%
%TA.AperFunction,SMDPad,CuDef*%
%ADD11RoundRect,0.140000X-0.140000X-0.170000X0.140000X-0.170000X0.140000X0.170000X-0.140000X0.170000X0*%
%TD*%
%TA.AperFunction,SMDPad,CuDef*%
%ADD12R,1.400000X1.200000*%
%TD*%
%TA.AperFunction,SMDPad,CuDef*%
%ADD13RoundRect,0.140000X0.170000X-0.140000X0.170000X0.140000X-0.170000X0.140000X-0.170000X-0.140000X0*%
%TD*%
%TA.AperFunction,ComponentPad*%
%ADD14R,1.000000X1.000000*%
%TD*%
%TA.AperFunction,ComponentPad*%
%ADD15O,1.000000X1.000000*%
%TD*%
%TA.AperFunction,ComponentPad*%
%ADD16RoundRect,0.249999X-1.300001X-1.300001X1.300001X-1.300001X1.300001X1.300001X-1.300001X1.300001X0*%
%TD*%
%TA.AperFunction,ComponentPad*%
%ADD17C,3.100000*%
%TD*%
%TA.AperFunction,SMDPad,CuDef*%
%ADD18RoundRect,0.218750X0.256250X-0.218750X0.256250X0.218750X-0.256250X0.218750X-0.256250X-0.218750X0*%
%TD*%
%TA.AperFunction,SMDPad,CuDef*%
%ADD19RoundRect,0.225000X0.250000X-0.225000X0.250000X0.225000X-0.250000X0.225000X-0.250000X-0.225000X0*%
%TD*%
%TA.AperFunction,SMDPad,CuDef*%
%ADD20RoundRect,0.250000X0.650000X-0.325000X0.650000X0.325000X-0.650000X0.325000X-0.650000X-0.325000X0*%
%TD*%
%TA.AperFunction,SMDPad,CuDef*%
%ADD21RoundRect,0.150000X0.625000X-0.150000X0.625000X0.150000X-0.625000X0.150000X-0.625000X-0.150000X0*%
%TD*%
%TA.AperFunction,SMDPad,CuDef*%
%ADD22RoundRect,0.250000X0.650000X-0.350000X0.650000X0.350000X-0.650000X0.350000X-0.650000X-0.350000X0*%
%TD*%
%TA.AperFunction,SMDPad,CuDef*%
%ADD23RoundRect,0.218750X-0.218750X-0.256250X0.218750X-0.256250X0.218750X0.256250X-0.218750X0.256250X0*%
%TD*%
%TA.AperFunction,SMDPad,CuDef*%
%ADD24RoundRect,0.150000X-0.512500X-0.150000X0.512500X-0.150000X0.512500X0.150000X-0.512500X0.150000X0*%
%TD*%
%TA.AperFunction,SMDPad,CuDef*%
%ADD25RoundRect,0.150000X-0.150000X-0.625000X0.150000X-0.625000X0.150000X0.625000X-0.150000X0.625000X0*%
%TD*%
%TA.AperFunction,SMDPad,CuDef*%
%ADD26RoundRect,0.250000X-0.350000X-0.650000X0.350000X-0.650000X0.350000X0.650000X-0.350000X0.650000X0*%
%TD*%
%TA.AperFunction,SMDPad,CuDef*%
%ADD27RoundRect,0.150000X0.150000X0.425000X-0.150000X0.425000X-0.150000X-0.425000X0.150000X-0.425000X0*%
%TD*%
%TA.AperFunction,SMDPad,CuDef*%
%ADD28RoundRect,0.075000X0.075000X0.500000X-0.075000X0.500000X-0.075000X-0.500000X0.075000X-0.500000X0*%
%TD*%
%TA.AperFunction,ComponentPad*%
%ADD29O,1.000000X2.100000*%
%TD*%
%TA.AperFunction,ComponentPad*%
%ADD30O,1.000000X1.800000*%
%TD*%
%TA.AperFunction,SMDPad,CuDef*%
%ADD31RoundRect,0.075000X-0.700000X-0.075000X0.700000X-0.075000X0.700000X0.075000X-0.700000X0.075000X0*%
%TD*%
%TA.AperFunction,SMDPad,CuDef*%
%ADD32RoundRect,0.075000X-0.075000X-0.700000X0.075000X-0.700000X0.075000X0.700000X-0.075000X0.700000X0*%
%TD*%
%TA.AperFunction,SMDPad,CuDef*%
%ADD33R,0.350000X0.500000*%
%TD*%
%TA.AperFunction,SMDPad,CuDef*%
%ADD34RoundRect,0.150000X-0.625000X0.150000X-0.625000X-0.150000X0.625000X-0.150000X0.625000X0.150000X0*%
%TD*%
%TA.AperFunction,SMDPad,CuDef*%
%ADD35RoundRect,0.250000X-0.650000X0.350000X-0.650000X-0.350000X0.650000X-0.350000X0.650000X0.350000X0*%
%TD*%
%TA.AperFunction,SMDPad,CuDef*%
%ADD36RoundRect,0.250000X-0.250000X-0.475000X0.250000X-0.475000X0.250000X0.475000X-0.250000X0.475000X0*%
%TD*%
%TA.AperFunction,SMDPad,CuDef*%
%ADD37RoundRect,0.225000X-0.225000X-0.250000X0.225000X-0.250000X0.225000X0.250000X-0.225000X0.250000X0*%
%TD*%
%TA.AperFunction,SMDPad,CuDef*%
%ADD38RoundRect,0.250000X0.650000X-1.000000X0.650000X1.000000X-0.650000X1.000000X-0.650000X-1.000000X0*%
%TD*%
%TA.AperFunction,SMDPad,CuDef*%
%ADD39R,0.600000X1.550000*%
%TD*%
%TA.AperFunction,ComponentPad*%
%ADD40C,0.600000*%
%TD*%
%TA.AperFunction,SMDPad,CuDef*%
%ADD41R,3.100000X2.600000*%
%TD*%
%TA.AperFunction,SMDPad,CuDef*%
%ADD42R,4.500000X2.950000*%
%TD*%
%TA.AperFunction,SMDPad,CuDef*%
%ADD43R,2.950000X3.500000*%
%TD*%
%TA.AperFunction,SMDPad,CuDef*%
%ADD44RoundRect,0.135000X-0.135000X-0.185000X0.135000X-0.185000X0.135000X0.185000X-0.135000X0.185000X0*%
%TD*%
%TA.AperFunction,ViaPad*%
%ADD45C,0.800000*%
%TD*%
%TA.AperFunction,ViaPad*%
%ADD46C,0.600000*%
%TD*%
%TA.AperFunction,ViaPad*%
%ADD47C,0.500000*%
%TD*%
%TA.AperFunction,Conductor*%
%ADD48C,1.000000*%
%TD*%
%TA.AperFunction,Conductor*%
%ADD49C,0.601000*%
%TD*%
%TA.AperFunction,Conductor*%
%ADD50C,0.300000*%
%TD*%
%TA.AperFunction,Conductor*%
%ADD51C,0.250000*%
%TD*%
%TA.AperFunction,Conductor*%
%ADD52C,0.150000*%
%TD*%
%TA.AperFunction,Conductor*%
%ADD53C,0.400000*%
%TD*%
%TA.AperFunction,Conductor*%
%ADD54C,0.300400*%
%TD*%
%TA.AperFunction,Conductor*%
%ADD55C,0.200000*%
%TD*%
G04 APERTURE END LIST*
D10*
%TO.P,R11,1*%
%TO.N,/Connectors/USB_CC1*%
X121800000Y-108960000D03*
%TO.P,R11,2*%
%TO.N,GND*%
X121800000Y-107940000D03*
%TD*%
D11*
%TO.P,C11,1*%
%TO.N,+3V3*%
X126970000Y-109150000D03*
%TO.P,C11,2*%
%TO.N,GND*%
X127930000Y-109150000D03*
%TD*%
%TO.P,C20,1*%
%TO.N,/MCU/OSC_OUT*%
X111720000Y-110600000D03*
%TO.P,C20,2*%
%TO.N,GND*%
X112680000Y-110600000D03*
%TD*%
D10*
%TO.P,R3,1*%
%TO.N,VBAT*%
X105900000Y-128960000D03*
%TO.P,R3,2*%
%TO.N,VBAT_SENSE*%
X105900000Y-127940000D03*
%TD*%
D12*
%TO.P,Y1,1*%
%TO.N,/MCU/OSC_IN*%
X109400000Y-113850000D03*
%TO.P,Y1,2*%
%TO.N,GND*%
X111600000Y-113850000D03*
%TO.P,Y1,3*%
%TO.N,/MCU/OSC_OUT*%
X111600000Y-112150000D03*
%TO.P,Y1,4*%
%TO.N,GND*%
X109400000Y-112150000D03*
%TD*%
D13*
%TO.P,C15,1*%
%TO.N,/MCU/VCAP1*%
X123600000Y-124830000D03*
%TO.P,C15,2*%
%TO.N,GND*%
X123600000Y-123870000D03*
%TD*%
D14*
%TO.P,J6,1*%
%TO.N,+3V3*%
X134000000Y-121000000D03*
D15*
%TO.P,J6,2*%
%TO.N,SWDIO*%
X134000000Y-122270000D03*
%TO.P,J6,3*%
%TO.N,SWCLK*%
X134000000Y-123540000D03*
%TO.P,J6,4*%
%TO.N,GND*%
X134000000Y-124810000D03*
%TD*%
D16*
%TO.P,J1,1*%
%TO.N,VBAT*%
X108500000Y-133000000D03*
D17*
%TO.P,J1,2*%
%TO.N,GND*%
X114500000Y-133000000D03*
%TD*%
D18*
%TO.P,FB1,1*%
%TO.N,+3V3*%
X127450000Y-125637500D03*
%TO.P,FB1,2*%
%TO.N,/MCU/+3V3A*%
X127450000Y-124062500D03*
%TD*%
D19*
%TO.P,C14,1*%
%TO.N,+3V3*%
X113200000Y-108025000D03*
%TO.P,C14,2*%
%TO.N,GND*%
X113200000Y-106475000D03*
%TD*%
D10*
%TO.P,R9,1*%
%TO.N,+3V3*%
X127150000Y-102110000D03*
%TO.P,R9,2*%
%TO.N,I2C1_SDA*%
X127150000Y-101090000D03*
%TD*%
D20*
%TO.P,C1,1*%
%TO.N,VBAT*%
X102350000Y-118575000D03*
%TO.P,C1,2*%
%TO.N,GND*%
X102350000Y-115625000D03*
%TD*%
D10*
%TO.P,R1,1*%
%TO.N,+5V*%
X104700000Y-125110000D03*
%TO.P,R1,2*%
%TO.N,/Power/BUCK_FB*%
X104700000Y-124090000D03*
%TD*%
%TO.P,R12,1*%
%TO.N,/Connectors/USB_CC2*%
X117100000Y-109060000D03*
%TO.P,R12,2*%
%TO.N,GND*%
X117100000Y-108040000D03*
%TD*%
D13*
%TO.P,C3,1*%
%TO.N,/Power/BUCK_BOOT*%
X103000000Y-123730000D03*
%TO.P,C3,2*%
%TO.N,/Power/BUCK_SW*%
X103000000Y-122770000D03*
%TD*%
D21*
%TO.P,J5,1*%
%TO.N,+5V*%
X130500000Y-113000000D03*
%TO.P,J5,2*%
%TO.N,GND*%
X130500000Y-112000000D03*
%TO.P,J5,3*%
%TO.N,UART3_TX*%
X130500000Y-111000000D03*
%TO.P,J5,4*%
%TO.N,UART3_RX*%
X130500000Y-110000000D03*
D22*
%TO.P,J5,MP*%
%TO.N,N/C*%
X134375000Y-114300000D03*
X134375000Y-108700000D03*
%TD*%
D11*
%TO.P,C6,1*%
%TO.N,+5V*%
X107420000Y-106400000D03*
%TO.P,C6,2*%
%TO.N,GND*%
X108380000Y-106400000D03*
%TD*%
%TO.P,C16,1*%
%TO.N,/MCU/VCAP2*%
X127970000Y-116100000D03*
%TO.P,C16,2*%
%TO.N,GND*%
X128930000Y-116100000D03*
%TD*%
D10*
%TO.P,R6,1*%
%TO.N,/MCU/LED_STATUS*%
X120550000Y-109160000D03*
%TO.P,R6,2*%
%TO.N,/MCU/LED_STATUS_K*%
X120550000Y-108140000D03*
%TD*%
D13*
%TO.P,C12,1*%
%TO.N,+3V3*%
X117100000Y-124780000D03*
%TO.P,C12,2*%
%TO.N,GND*%
X117100000Y-123820000D03*
%TD*%
D10*
%TO.P,R7,1*%
%TO.N,+3V3*%
X126000000Y-124860000D03*
%TO.P,R7,2*%
%TO.N,/MCU/LED_PWR*%
X126000000Y-123840000D03*
%TD*%
D23*
%TO.P,D3,1*%
%TO.N,GND*%
X123262500Y-108650000D03*
%TO.P,D3,2*%
%TO.N,/MCU/LED_STATUS_K*%
X124837500Y-108650000D03*
%TD*%
D10*
%TO.P,R2,1*%
%TO.N,/Power/BUCK_FB*%
X105900000Y-124910000D03*
%TO.P,R2,2*%
%TO.N,GND*%
X105900000Y-123890000D03*
%TD*%
D13*
%TO.P,C10,1*%
%TO.N,+3V3*%
X124900000Y-124880000D03*
%TO.P,C10,2*%
%TO.N,GND*%
X124900000Y-123920000D03*
%TD*%
D24*
%TO.P,U2,1*%
%TO.N,+5V*%
X108862500Y-103050000D03*
%TO.P,U2,2*%
%TO.N,GND*%
X108862500Y-104000000D03*
%TO.P,U2,3*%
%TO.N,+5V*%
X108862500Y-104950000D03*
%TO.P,U2,4*%
%TO.N,unconnected-(U2-NC-Pad4)*%
X111137500Y-104950000D03*
%TO.P,U2,5*%
%TO.N,+3V3*%
X111137500Y-103050000D03*
%TD*%
D25*
%TO.P,J3,1*%
%TO.N,VBAT*%
X120000000Y-130500000D03*
%TO.P,J3,2*%
%TO.N,GND*%
X121000000Y-130500000D03*
%TO.P,J3,3*%
%TO.N,ESC_CURR*%
X122000000Y-130500000D03*
%TO.P,J3,4*%
%TO.N,ESC_TLM*%
X123000000Y-130500000D03*
%TO.P,J3,5*%
%TO.N,MOTOR1*%
X124000000Y-130500000D03*
%TO.P,J3,6*%
%TO.N,MOTOR2*%
X125000000Y-130500000D03*
%TO.P,J3,7*%
%TO.N,MOTOR3*%
X126000000Y-130500000D03*
%TO.P,J3,8*%
%TO.N,MOTOR4*%
X127000000Y-130500000D03*
D26*
%TO.P,J3,MP*%
%TO.N,N/C*%
X118700000Y-134375000D03*
X128300000Y-134375000D03*
%TD*%
D27*
%TO.P,J2,A1*%
%TO.N,GND*%
X122700000Y-106180000D03*
%TO.P,J2,A4*%
%TO.N,/Connectors/VBUS*%
X121900000Y-106180000D03*
D28*
%TO.P,J2,A5*%
%TO.N,/Connectors/USB_CC1*%
X120750000Y-106180000D03*
%TO.P,J2,A6*%
%TO.N,/Connectors/USB_CONN_DP*%
X119750000Y-106180000D03*
%TO.P,J2,A7*%
%TO.N,/Connectors/USB_CONN_DM*%
X119250000Y-106180000D03*
%TO.P,J2,A8*%
%TO.N,unconnected-(J2-SBU1-PadA8)*%
X118250000Y-106180000D03*
D27*
%TO.P,J2,A9*%
%TO.N,/Connectors/VBUS*%
X117100000Y-106180000D03*
%TO.P,J2,A12*%
%TO.N,GND*%
X116300000Y-106180000D03*
%TO.P,J2,B1*%
X116300000Y-106180000D03*
%TO.P,J2,B4*%
%TO.N,/Connectors/VBUS*%
X117100000Y-106180000D03*
D28*
%TO.P,J2,B5*%
%TO.N,/Connectors/USB_CC2*%
X117750000Y-106180000D03*
%TO.P,J2,B6*%
%TO.N,/Connectors/USB_CONN_DP*%
X118750000Y-106180000D03*
%TO.P,J2,B7*%
%TO.N,/Connectors/USB_CONN_DM*%
X120250000Y-106180000D03*
%TO.P,J2,B8*%
%TO.N,unconnected-(J2-SBU2-PadB8)*%
X121250000Y-106180000D03*
D27*
%TO.P,J2,B9*%
%TO.N,/Connectors/VBUS*%
X121900000Y-106180000D03*
%TO.P,J2,B12*%
%TO.N,GND*%
X122700000Y-106180000D03*
D29*
%TO.P,J2,S1*%
X123820000Y-105605000D03*
D30*
X123820000Y-101425000D03*
D29*
X115180000Y-105605000D03*
D30*
X115180000Y-101425000D03*
%TD*%
D31*
%TO.P,U3,1*%
%TO.N,+3V3*%
X114825000Y-112750000D03*
%TO.P,U3,2*%
%TO.N,unconnected-(U3-PC13-Pad2)*%
X114825000Y-113250000D03*
%TO.P,U3,3*%
%TO.N,unconnected-(U3-PC14-Pad3)*%
X114825000Y-113750000D03*
%TO.P,U3,4*%
%TO.N,unconnected-(U3-PC15-Pad4)*%
X114825000Y-114250000D03*
%TO.P,U3,5*%
%TO.N,/MCU/OSC_IN*%
X114825000Y-114750000D03*
%TO.P,U3,6*%
%TO.N,/MCU/OSC_OUT*%
X114825000Y-115250000D03*
%TO.P,U3,7*%
%TO.N,/MCU/NRST*%
X114825000Y-115750000D03*
%TO.P,U3,8*%
%TO.N,unconnected-(U3-PC0-Pad8)*%
X114825000Y-116250000D03*
%TO.P,U3,9*%
%TO.N,ESC_CURR*%
X114825000Y-116750000D03*
%TO.P,U3,10*%
%TO.N,VBAT_SENSE*%
X114825000Y-117250000D03*
%TO.P,U3,11*%
%TO.N,unconnected-(U3-PC3-Pad11)*%
X114825000Y-117750000D03*
%TO.P,U3,12*%
%TO.N,GND*%
X114825000Y-118250000D03*
%TO.P,U3,13*%
%TO.N,/MCU/+3V3A*%
X114825000Y-118750000D03*
%TO.P,U3,14*%
%TO.N,unconnected-(U3-PA0-Pad14)*%
X114825000Y-119250000D03*
%TO.P,U3,15*%
%TO.N,unconnected-(U3-PA1-Pad15)*%
X114825000Y-119750000D03*
%TO.P,U3,16*%
%TO.N,MOTOR4*%
X114825000Y-120250000D03*
D32*
%TO.P,U3,17*%
%TO.N,MOTOR3*%
X116750000Y-122175000D03*
%TO.P,U3,18*%
%TO.N,GND*%
X117250000Y-122175000D03*
%TO.P,U3,19*%
%TO.N,+3V3*%
X117750000Y-122175000D03*
%TO.P,U3,20*%
%TO.N,IMU_CS*%
X118250000Y-122175000D03*
%TO.P,U3,21*%
%TO.N,SPI1_SCK*%
X118750000Y-122175000D03*
%TO.P,U3,22*%
%TO.N,SPI1_MISO*%
X119250000Y-122175000D03*
%TO.P,U3,23*%
%TO.N,SPI1_MOSI*%
X119750000Y-122175000D03*
%TO.P,U3,24*%
%TO.N,IMU_INT*%
X120250000Y-122175000D03*
%TO.P,U3,25*%
%TO.N,unconnected-(U3-PC5-Pad25)*%
X120750000Y-122175000D03*
%TO.P,U3,26*%
%TO.N,MOTOR1*%
X121250000Y-122175000D03*
%TO.P,U3,27*%
%TO.N,MOTOR2*%
X121750000Y-122175000D03*
%TO.P,U3,28*%
%TO.N,unconnected-(U3-PB2-Pad28)*%
X122250000Y-122175000D03*
%TO.P,U3,29*%
%TO.N,UART3_TX*%
X122750000Y-122175000D03*
%TO.P,U3,30*%
%TO.N,UART3_RX*%
X123250000Y-122175000D03*
%TO.P,U3,31*%
%TO.N,/MCU/VCAP1*%
X123750000Y-122175000D03*
%TO.P,U3,32*%
%TO.N,+3V3*%
X124250000Y-122175000D03*
D31*
%TO.P,U3,33*%
%TO.N,unconnected-(U3-PB12-Pad33)*%
X126175000Y-120250000D03*
%TO.P,U3,34*%
%TO.N,unconnected-(U3-PB13-Pad34)*%
X126175000Y-119750000D03*
%TO.P,U3,35*%
%TO.N,unconnected-(U3-PB14-Pad35)*%
X126175000Y-119250000D03*
%TO.P,U3,36*%
%TO.N,unconnected-(U3-PB15-Pad36)*%
X126175000Y-118750000D03*
%TO.P,U3,37*%
%TO.N,unconnected-(U3-PC6-Pad37)*%
X126175000Y-118250000D03*
%TO.P,U3,38*%
%TO.N,ESC_TLM*%
X126175000Y-117750000D03*
%TO.P,U3,39*%
%TO.N,unconnected-(U3-PC8-Pad39)*%
X126175000Y-117250000D03*
%TO.P,U3,40*%
%TO.N,unconnected-(U3-PC9-Pad40)*%
X126175000Y-116750000D03*
%TO.P,U3,41*%
%TO.N,unconnected-(U3-PA8-Pad41)*%
X126175000Y-116250000D03*
%TO.P,U3,42*%
%TO.N,UART1_TX*%
X126175000Y-115750000D03*
%TO.P,U3,43*%
%TO.N,UART1_RX*%
X126175000Y-115250000D03*
%TO.P,U3,44*%
%TO.N,USB_DM*%
X126175000Y-114750000D03*
%TO.P,U3,45*%
%TO.N,USB_DP*%
X126175000Y-114250000D03*
%TO.P,U3,46*%
%TO.N,SWDIO*%
X126175000Y-113750000D03*
%TO.P,U3,47*%
%TO.N,/MCU/VCAP2*%
X126175000Y-113250000D03*
%TO.P,U3,48*%
%TO.N,+3V3*%
X126175000Y-112750000D03*
D32*
%TO.P,U3,49*%
%TO.N,SWCLK*%
X124250000Y-110825000D03*
%TO.P,U3,50*%
%TO.N,unconnected-(U3-PA15-Pad50)*%
X123750000Y-110825000D03*
%TO.P,U3,51*%
%TO.N,SPI3_SCK*%
X123250000Y-110825000D03*
%TO.P,U3,52*%
%TO.N,SPI3_MISO*%
X122750000Y-110825000D03*
%TO.P,U3,53*%
%TO.N,SPI3_MOSI*%
X122250000Y-110825000D03*
%TO.P,U3,54*%
%TO.N,unconnected-(U3-PD2-Pad54)*%
X121750000Y-110825000D03*
%TO.P,U3,55*%
%TO.N,FLASH_CS*%
X121250000Y-110825000D03*
%TO.P,U3,56*%
%TO.N,unconnected-(U3-PB4-Pad56)*%
X120750000Y-110825000D03*
%TO.P,U3,57*%
%TO.N,/MCU/LED_STATUS*%
X120250000Y-110825000D03*
%TO.P,U3,58*%
%TO.N,unconnected-(U3-PB6-Pad58)*%
X119750000Y-110825000D03*
%TO.P,U3,59*%
%TO.N,unconnected-(U3-PB7-Pad59)*%
X119250000Y-110825000D03*
%TO.P,U3,60*%
%TO.N,/MCU/BOOT0*%
X118750000Y-110825000D03*
%TO.P,U3,61*%
%TO.N,I2C1_SCL*%
X118250000Y-110825000D03*
%TO.P,U3,62*%
%TO.N,I2C1_SDA*%
X117750000Y-110825000D03*
%TO.P,U3,63*%
%TO.N,GND*%
X117250000Y-110825000D03*
%TO.P,U3,64*%
%TO.N,+3V3*%
X116750000Y-110825000D03*
%TD*%
D33*
%TO.P,U5,1*%
%TO.N,GND*%
X126525000Y-103200000D03*
%TO.P,U5,2*%
%TO.N,+3V3*%
X127175000Y-103200000D03*
%TO.P,U5,3*%
%TO.N,I2C1_SDA*%
X127825000Y-103200000D03*
%TO.P,U5,4*%
%TO.N,I2C1_SCL*%
X128475000Y-103200000D03*
%TO.P,U5,5*%
%TO.N,GND*%
X128475000Y-104800000D03*
%TO.P,U5,6*%
%TO.N,+3V3*%
X127825000Y-104800000D03*
%TO.P,U5,7*%
%TO.N,GND*%
X127175000Y-104800000D03*
%TO.P,U5,8*%
%TO.N,+3V3*%
X126525000Y-104800000D03*
%TD*%
D34*
%TO.P,J4,1*%
%TO.N,+5V*%
X105500000Y-109000000D03*
%TO.P,J4,2*%
%TO.N,GND*%
X105500000Y-110000000D03*
%TO.P,J4,3*%
%TO.N,UART1_TX*%
X105500000Y-111000000D03*
%TO.P,J4,4*%
%TO.N,UART1_RX*%
X105500000Y-112000000D03*
D35*
%TO.P,J4,MP*%
%TO.N,N/C*%
X101625000Y-107700000D03*
X101625000Y-113300000D03*
%TD*%
D36*
%TO.P,C5,1*%
%TO.N,+5V*%
X107750000Y-108000000D03*
%TO.P,C5,2*%
%TO.N,GND*%
X109650000Y-108000000D03*
%TD*%
D37*
%TO.P,C7,1*%
%TO.N,+3V3*%
X111625000Y-101350000D03*
%TO.P,C7,2*%
%TO.N,GND*%
X113175000Y-101350000D03*
%TD*%
D38*
%TO.P,D1,1*%
%TO.N,/Power/BUCK_SW*%
X112000000Y-121500000D03*
%TO.P,D1,2*%
%TO.N,GND*%
X112000000Y-117500000D03*
%TD*%
D39*
%TO.P,U1,1*%
%TO.N,/Power/BUCK_BOOT*%
X104595000Y-122200000D03*
%TO.P,U1,2*%
%TO.N,unconnected-(U1-NC-Pad2)*%
X105865000Y-122200000D03*
%TO.P,U1,3*%
%TO.N,unconnected-(U1-NC-Pad3)*%
X107135000Y-122200000D03*
%TO.P,U1,4*%
%TO.N,/Power/BUCK_FB*%
X108405000Y-122200000D03*
%TO.P,U1,5*%
%TO.N,unconnected-(U1-EN-Pad5)*%
X108405000Y-116800000D03*
%TO.P,U1,6*%
%TO.N,GND*%
X107135000Y-116800000D03*
%TO.P,U1,7*%
%TO.N,VBAT*%
X105865000Y-116800000D03*
%TO.P,U1,8*%
%TO.N,/Power/BUCK_SW*%
X104595000Y-116800000D03*
D40*
%TO.P,U1,9*%
%TO.N,GND*%
X104700000Y-120100000D03*
X105900000Y-120100000D03*
X107200000Y-120100000D03*
X108300000Y-120100000D03*
D41*
X106500000Y-119500000D03*
D42*
X106500000Y-119500000D03*
D40*
X104700000Y-118900000D03*
X105900000Y-118900000D03*
X107200000Y-118900000D03*
X108300000Y-118900000D03*
%TD*%
D43*
%TO.P,L1,1*%
%TO.N,/Power/BUCK_SW*%
X108275000Y-127000000D03*
%TO.P,L1,2*%
%TO.N,+5V*%
X113725000Y-127000000D03*
%TD*%
D44*
%TO.P,R8,1*%
%TO.N,+3V3*%
X128190000Y-102050000D03*
%TO.P,R8,2*%
%TO.N,I2C1_SCL*%
X129210000Y-102050000D03*
%TD*%
D23*
%TO.P,D4,1*%
%TO.N,GND*%
X124112500Y-126300000D03*
%TO.P,D4,2*%
%TO.N,/MCU/LED_PWR*%
X125687500Y-126300000D03*
%TD*%
D11*
%TO.P,C13,1*%
%TO.N,+3V3*%
X112120000Y-109350000D03*
%TO.P,C13,2*%
%TO.N,GND*%
X113080000Y-109350000D03*
%TD*%
%TO.P,C19,1*%
%TO.N,/MCU/OSC_IN*%
X111820000Y-115350000D03*
%TO.P,C19,2*%
%TO.N,GND*%
X112780000Y-115350000D03*
%TD*%
D45*
%TO.N,VBAT*%
X104247000Y-114924000D03*
D46*
%TO.N,GND*%
X112812000Y-104409000D03*
X121554000Y-125775000D03*
X109850000Y-106371000D03*
X118401000Y-109151000D03*
X117100000Y-107325000D03*
X119109000Y-119623000D03*
X117955000Y-124044000D03*
X113017000Y-114472000D03*
X102208000Y-114616000D03*
X121800000Y-107214000D03*
X134750000Y-129138000D03*
X131757000Y-111906000D03*
X125702000Y-103570000D03*
X113517000Y-118410000D03*
D47*
X126150000Y-104000000D03*
D46*
X106498000Y-123327000D03*
X112600000Y-102100000D03*
X128672000Y-114806000D03*
X121716000Y-128289000D03*
X113392000Y-110115000D03*
X127977000Y-110029000D03*
X115910000Y-107263000D03*
X123262000Y-107413000D03*
X103705000Y-109476000D03*
X114150000Y-101350000D03*
X124959000Y-123028000D03*
X107210000Y-115338000D03*
X106434000Y-104300000D03*
X125706000Y-127288000D03*
X111376000Y-104000000D03*
X132874000Y-116644000D03*
D47*
X129250000Y-104000000D03*
D46*
X119479000Y-104141000D03*
X109646000Y-109882000D03*
%TO.N,+5V*%
X104354000Y-126286000D03*
X112632000Y-129640000D03*
X128736000Y-112711000D03*
X109646000Y-101167000D03*
%TO.N,+3V3*%
X126100000Y-105950000D03*
X117854000Y-120564000D03*
X111882000Y-108298000D03*
X112371000Y-103003000D03*
X125950000Y-104750000D03*
X120398000Y-128668000D03*
X131766000Y-111125000D03*
X116276000Y-109502000D03*
X126939000Y-126882000D03*
X125135000Y-122004000D03*
X115116000Y-111643000D03*
X131261000Y-128353000D03*
X117100000Y-126002000D03*
X125162000Y-110600000D03*
X126050000Y-105300000D03*
X126356000Y-111820000D03*
X116103000Y-113020000D03*
X126402000Y-110286000D03*
X121195000Y-120396000D03*
X119909000Y-125129000D03*
X129271000Y-126033000D03*
%TO.N,VBAT_SENSE*%
X116716000Y-114858000D03*
X106135000Y-126893000D03*
%TO.N,/MCU/+3V3A*%
X127160000Y-123158000D03*
X114325000Y-121584000D03*
%TO.N,/MCU/NRST*%
X116086000Y-116606000D03*
%TO.N,/MCU/BOOT0*%
X119547000Y-113433000D03*
%TO.N,ESC_CURR*%
X115267000Y-129640000D03*
X113377000Y-116113000D03*
%TO.N,MOTOR3*%
X126401000Y-128726000D03*
X115087000Y-122499000D03*
%TO.N,IMU_CS*%
X118508000Y-125334000D03*
D47*
%TO.N,SPI1_SCK*%
X116100000Y-118500000D03*
X120600000Y-118850000D03*
%TO.N,SPI1_MISO*%
X117900000Y-118200000D03*
D46*
X119500000Y-125800000D03*
X116150000Y-123633000D03*
D47*
%TO.N,SPI1_MOSI*%
X120600000Y-118100000D03*
X120600000Y-117050000D03*
X116050000Y-117800000D03*
%TO.N,IMU_INT*%
X120050000Y-121000000D03*
D46*
%TO.N,UART3_TX*%
X124354000Y-112781000D03*
X122805000Y-120490000D03*
%TO.N,UART3_RX*%
X123844000Y-120572000D03*
X131053000Y-120784000D03*
%TO.N,UART1_TX*%
X124180000Y-116957000D03*
X106217000Y-112921000D03*
%TO.N,UART1_RX*%
X107320000Y-111895000D03*
X124677000Y-115968000D03*
%TO.N,USB_DM*%
X123385000Y-113580000D03*
%TO.N,USB_DP*%
X125571000Y-111703000D03*
%TO.N,SPI3_SCK*%
X125973000Y-123000000D03*
X123100000Y-112493000D03*
%TO.N,SPI3_MISO*%
X123343000Y-117547000D03*
%TO.N,SPI3_MOSI*%
X123722000Y-118752000D03*
%TO.N,FLASH_CS*%
X122400000Y-114482000D03*
%TO.N,I2C1_SCL*%
X124646000Y-107662000D03*
X118991000Y-108621000D03*
%TO.N,/Connectors/VBUS*%
X121650000Y-104750000D03*
X116500000Y-104300000D03*
%TO.N,/Connectors/USB_CONN_DP*%
X118407000Y-107190000D03*
%TO.N,/Connectors/USB_CONN_DM*%
X117154000Y-103753000D03*
%TD*%
D48*
%TO.N,VBAT*%
X105900000Y-130400000D02*
X108500000Y-133000000D01*
X110940000Y-130560000D02*
X108500000Y-133000000D01*
X101987000Y-125538000D02*
X105410000Y-128960000D01*
X111920000Y-124536000D02*
X110940000Y-125516000D01*
X102350000Y-118575000D02*
X101987000Y-118938000D01*
D49*
X119997000Y-130500000D02*
X120000000Y-130500000D01*
D48*
X105900000Y-128960000D02*
X105900000Y-130400000D01*
X104646000Y-115323000D02*
X104247000Y-114924000D01*
X115549000Y-124536000D02*
X111920000Y-124536000D01*
X119997000Y-130500000D02*
X116050000Y-126552000D01*
X105865000Y-115323000D02*
X104646000Y-115323000D01*
X105865000Y-116800000D02*
X105865000Y-115323000D01*
X110940000Y-125516000D02*
X110940000Y-130560000D01*
X116050000Y-125038000D02*
X115549000Y-124536000D01*
X101987000Y-118938000D02*
X101987000Y-125538000D01*
X105410000Y-128960000D02*
X105900000Y-128960000D01*
X116050000Y-126552000D02*
X116050000Y-125038000D01*
D50*
%TO.N,GND*%
X123262500Y-108496500D02*
X123262500Y-108650000D01*
X117543000Y-124044000D02*
X117250000Y-123751000D01*
X124359000Y-126547000D02*
X124112000Y-126300000D01*
X128930000Y-115063000D02*
X128930000Y-116100000D01*
X109400000Y-110128000D02*
X109646000Y-109882000D01*
X122700000Y-106180000D02*
X123262000Y-106742000D01*
X123262000Y-108341000D02*
X123262000Y-108496000D01*
D51*
X126600000Y-104100000D02*
X126650000Y-104150000D01*
D50*
X108638000Y-104225000D02*
X108862000Y-104000000D01*
X121716000Y-128289000D02*
X121000000Y-129006000D01*
X108409000Y-106371000D02*
X108380000Y-106400000D01*
X112582000Y-113850000D02*
X111600000Y-113850000D01*
X123262000Y-107413000D02*
X123262000Y-108032000D01*
X113017000Y-114285000D02*
X112582000Y-113850000D01*
D51*
X126650000Y-104150000D02*
X126850000Y-104150000D01*
D50*
X108637000Y-104225000D02*
X108712000Y-104150000D01*
X108637000Y-104225000D02*
X108638000Y-104225000D01*
D51*
X126700000Y-103950000D02*
X126700000Y-104000000D01*
X126150000Y-104000000D02*
X126250000Y-104100000D01*
D50*
X116300000Y-106872000D02*
X116300000Y-106180000D01*
X125100000Y-127288000D02*
X124359000Y-126547000D01*
D51*
X127050000Y-104400000D02*
X127100000Y-104450000D01*
X127000000Y-104250000D02*
X127050000Y-104300000D01*
D50*
X102350000Y-114758000D02*
X102208000Y-114616000D01*
D51*
X126850000Y-104150000D02*
X126950000Y-104250000D01*
D50*
X113165000Y-110115000D02*
X112680000Y-110600000D01*
X117955000Y-124044000D02*
X117543000Y-124044000D01*
X125706000Y-127288000D02*
X125100000Y-127288000D01*
X102350000Y-115625000D02*
X102350000Y-114758000D01*
X127977000Y-109197000D02*
X127930000Y-109150000D01*
X121800000Y-107940000D02*
X121800000Y-107214000D01*
X117100000Y-108040000D02*
X117100000Y-107325000D01*
X113517000Y-118410000D02*
X113676000Y-118250000D01*
X104228000Y-110000000D02*
X105500000Y-110000000D01*
D51*
X126800000Y-104050000D02*
X127050000Y-104300000D01*
D50*
X117250000Y-123751000D02*
X117250000Y-122175000D01*
X124900000Y-123870000D02*
X124900000Y-123920000D01*
D51*
X128650000Y-104600000D02*
X129250000Y-104000000D01*
D50*
X109650000Y-109878000D02*
X109650000Y-108000000D01*
X124959000Y-123811000D02*
X124900000Y-123870000D01*
X117181000Y-123820000D02*
X117250000Y-123751000D01*
X112780000Y-115350000D02*
X113017000Y-115113000D01*
D51*
X127100000Y-104450000D02*
X127100000Y-104600000D01*
D50*
X123262000Y-108032000D02*
X123262000Y-108341000D01*
X112000000Y-116130000D02*
X112000000Y-117500000D01*
X124112500Y-126300500D02*
X124112500Y-126300000D01*
X113165000Y-109435000D02*
X113080000Y-109350000D01*
X107135000Y-115413000D02*
X107135000Y-116800000D01*
X118401000Y-109151000D02*
X118140000Y-109151000D01*
D51*
X126550000Y-103450000D02*
X126550000Y-103750000D01*
X127050000Y-104300000D02*
X127050000Y-104400000D01*
D50*
X123262000Y-108032000D02*
X123262000Y-108341000D01*
X131663000Y-112000000D02*
X130500000Y-112000000D01*
X112812000Y-104409000D02*
X113200000Y-104797000D01*
X109400000Y-112150000D02*
X109400000Y-110128000D01*
X113676000Y-118250000D02*
X114825000Y-118250000D01*
X109646000Y-109882000D02*
X109650000Y-109878000D01*
D51*
X126550000Y-103750000D02*
X126600000Y-103800000D01*
D50*
X124359000Y-126547000D02*
X124112500Y-126300500D01*
X105900000Y-120100000D02*
X106500000Y-119500000D01*
X112780000Y-115350000D02*
X112000000Y-116130000D01*
D51*
X113175000Y-101350000D02*
X114150000Y-101350000D01*
D50*
X123262000Y-108496000D02*
X123262500Y-108496500D01*
D51*
X126950000Y-104250000D02*
X127000000Y-104250000D01*
D50*
X106463000Y-123327000D02*
X105900000Y-123890000D01*
D51*
X127100000Y-104450000D02*
X127100000Y-104600000D01*
D50*
X106498000Y-123327000D02*
X106463000Y-123327000D01*
D51*
X126750000Y-104050000D02*
X126800000Y-104050000D01*
D50*
X115910000Y-107263000D02*
X116300000Y-106872000D01*
X123262000Y-108496000D02*
X123262000Y-108650000D01*
X106434000Y-104300000D02*
X108562000Y-104300000D01*
X127977000Y-110029000D02*
X127977000Y-109197000D01*
D51*
X127050000Y-104400000D02*
X127100000Y-104450000D01*
D50*
X117100000Y-123820000D02*
X117181000Y-123820000D01*
X117250000Y-110042000D02*
X117250000Y-110825000D01*
D51*
X127050000Y-104300000D02*
X127050000Y-104400000D01*
X126700000Y-104000000D02*
X126750000Y-104050000D01*
D50*
X131757000Y-111906000D02*
X131663000Y-112000000D01*
X124959000Y-123028000D02*
X124959000Y-123811000D01*
X113017000Y-115113000D02*
X113017000Y-114472000D01*
X107210000Y-115338000D02*
X107135000Y-115413000D01*
X108562000Y-104300000D02*
X108637000Y-104225000D01*
D51*
X126250000Y-104100000D02*
X126600000Y-104100000D01*
D50*
X103705000Y-109476000D02*
X104228000Y-110000000D01*
D51*
X126600000Y-103850000D02*
X126700000Y-103950000D01*
D50*
X123262000Y-106742000D02*
X123262000Y-107413000D01*
X113165000Y-110115000D02*
X113165000Y-109435000D01*
X124900000Y-123870000D02*
X123600000Y-123870000D01*
X113017000Y-114472000D02*
X113017000Y-114285000D01*
X121000000Y-129006000D02*
X121000000Y-130500000D01*
X113200000Y-104797000D02*
X113200000Y-106475000D01*
D51*
X126350000Y-103450000D02*
X125950000Y-103450000D01*
D50*
X109850000Y-106371000D02*
X108409000Y-106371000D01*
X113392000Y-110115000D02*
X113165000Y-110115000D01*
D51*
X126600000Y-103800000D02*
X126600000Y-103850000D01*
D50*
X128672000Y-114806000D02*
X128930000Y-115063000D01*
X118140000Y-109151000D02*
X117250000Y-110042000D01*
D52*
%TO.N,/Power/BUCK_BOOT*%
X104595000Y-122200000D02*
X104595000Y-123182000D01*
X103548000Y-123182000D02*
X103000000Y-123730000D01*
X104595000Y-123182000D02*
X103548000Y-123182000D01*
%TO.N,/Power/BUCK_SW*%
X108809000Y-121200000D02*
X104037000Y-121200000D01*
X108275000Y-127000000D02*
X109957000Y-127000000D01*
X104088000Y-117782000D02*
X104037000Y-117833000D01*
X104037000Y-121200000D02*
X103000000Y-122237000D01*
X104595000Y-116800000D02*
X104595000Y-117782000D01*
X111152000Y-122348000D02*
X109957000Y-122348000D01*
X109957000Y-127000000D02*
X109957000Y-122348000D01*
X109957000Y-122348000D02*
X108809000Y-121200000D01*
X103000000Y-122237000D02*
X103000000Y-122770000D01*
X104037000Y-117833000D02*
X104037000Y-121200000D01*
X112000000Y-121500000D02*
X111152000Y-122348000D01*
X104595000Y-117782000D02*
X104088000Y-117782000D01*
D53*
%TO.N,+5V*%
X104700000Y-125940000D02*
X104354000Y-126286000D01*
X109900000Y-101421000D02*
X109900000Y-104421000D01*
X107420000Y-106400000D02*
X107125000Y-106695000D01*
X108754000Y-104950000D02*
X107420000Y-106284000D01*
X109646000Y-101167000D02*
X108862000Y-101951000D01*
X109900000Y-104421000D02*
X109371000Y-104950000D01*
X107125000Y-107375000D02*
X107750000Y-108000000D01*
X113170000Y-129102000D02*
X113725000Y-129102000D01*
X104700000Y-125110000D02*
X104700000Y-125940000D01*
X112632000Y-129640000D02*
X113170000Y-129102000D01*
X105500000Y-109000000D02*
X107125000Y-107375000D01*
X109646000Y-101167000D02*
X109900000Y-101421000D01*
X113725000Y-129102000D02*
X113725000Y-127000000D01*
X128736000Y-112711000D02*
X130211000Y-112711000D01*
X108862500Y-104950000D02*
X108754000Y-104950000D01*
X108862500Y-103050000D02*
X108862000Y-103050000D01*
X107125000Y-106695000D02*
X107125000Y-107375000D01*
X109371000Y-104950000D02*
X108862500Y-104950000D01*
X130211000Y-112711000D02*
X130500000Y-113000000D01*
X107420000Y-106284000D02*
X107420000Y-106400000D01*
X108862000Y-101951000D02*
X108862000Y-103050000D01*
%TO.N,+3V3*%
X111625000Y-102562000D02*
X111138000Y-103050000D01*
D51*
X126700000Y-105200000D02*
X126850000Y-105350000D01*
D53*
X124920000Y-124860000D02*
X124900000Y-124880000D01*
D51*
X127400000Y-105400000D02*
X126950000Y-105400000D01*
X127600000Y-104350000D02*
X127650000Y-104400000D01*
X127700000Y-104500000D02*
X127700000Y-104550000D01*
X127650000Y-104400000D02*
X127650000Y-104450000D01*
X127650000Y-104450000D02*
X127700000Y-104500000D01*
X127050000Y-102350000D02*
X127050000Y-103000000D01*
D53*
X127119000Y-125969000D02*
X126010000Y-124860000D01*
D51*
X127700000Y-104650000D02*
X127700000Y-105100000D01*
D53*
X115116000Y-109941000D02*
X115116000Y-111643000D01*
D51*
X126950000Y-105400000D02*
X127400000Y-105400000D01*
X127550000Y-104150000D02*
X127550000Y-104200000D01*
D53*
X111930000Y-102562000D02*
X112371000Y-103003000D01*
X117854000Y-120564000D02*
X117854000Y-120986000D01*
X112120000Y-108537000D02*
X112120000Y-109350000D01*
D51*
X127700000Y-105100000D02*
X127700000Y-105050000D01*
X127450000Y-101950000D02*
X127950000Y-101950000D01*
X126700000Y-105150000D02*
X126650000Y-105100000D01*
X127650000Y-105200000D02*
X127500000Y-105350000D01*
X127750000Y-104600000D02*
X127700000Y-104650000D01*
D54*
X126175000Y-112748000D02*
X126175000Y-112750000D01*
D53*
X117854000Y-120986000D02*
X117750000Y-121090000D01*
D51*
X127450000Y-105350000D02*
X127500000Y-105350000D01*
D54*
X124269000Y-122194000D02*
X124250000Y-122175000D01*
D51*
X126850000Y-105350000D02*
X126700000Y-105200000D01*
X127650000Y-105150000D02*
X127700000Y-105100000D01*
X126650000Y-105100000D02*
X126700000Y-105150000D01*
D54*
X116602000Y-110677000D02*
X116750000Y-110825000D01*
D51*
X126100000Y-105300000D02*
X126050000Y-105300000D01*
D53*
X117100000Y-126002000D02*
X117100000Y-124780000D01*
X124945000Y-122194000D02*
X124269000Y-122194000D01*
D51*
X126650000Y-105050000D02*
X126650000Y-105100000D01*
D53*
X126010000Y-124860000D02*
X126000000Y-124860000D01*
D51*
X127600000Y-104250000D02*
X127600000Y-104350000D01*
D53*
X126000000Y-124860000D02*
X124920000Y-124860000D01*
D51*
X126950000Y-105400000D02*
X126900000Y-105350000D01*
X126900000Y-105350000D02*
X126850000Y-105350000D01*
X127500000Y-105350000D02*
X127650000Y-105200000D01*
X127300000Y-103450000D02*
X127300000Y-103900000D01*
X126700000Y-105150000D02*
X126700000Y-105200000D01*
D53*
X126402000Y-110286000D02*
X126402000Y-109718000D01*
D54*
X114826000Y-112749000D02*
X114825000Y-112750000D01*
D51*
X127550000Y-104200000D02*
X127600000Y-104250000D01*
D53*
X127450000Y-125638000D02*
X127450000Y-125637500D01*
X116103000Y-112942000D02*
X115910000Y-112749000D01*
X111625000Y-102562000D02*
X111930000Y-102562000D01*
X126402000Y-109718000D02*
X126970000Y-109150000D01*
X127119000Y-125969000D02*
X127450000Y-125638000D01*
D51*
X127650000Y-105200000D02*
X127650000Y-105150000D01*
D53*
X116103000Y-113020000D02*
X116103000Y-112942000D01*
X111625000Y-101350000D02*
X111625000Y-102562000D01*
D51*
X127700000Y-104550000D02*
X127750000Y-104600000D01*
D53*
X125135000Y-122004000D02*
X124945000Y-122194000D01*
D51*
X127450000Y-105350000D02*
X127400000Y-105400000D01*
X127300000Y-103900000D02*
X127550000Y-104150000D01*
D53*
X116276000Y-109502000D02*
X116602000Y-109828000D01*
D51*
X127700000Y-105100000D02*
X127650000Y-105150000D01*
X127650000Y-105150000D02*
X127650000Y-105200000D01*
X126850000Y-105350000D02*
X126900000Y-105350000D01*
X126600000Y-105400000D02*
X125950000Y-104750000D01*
D54*
X115910000Y-112749000D02*
X114826000Y-112749000D01*
D53*
X126356000Y-112567000D02*
X126356000Y-111820000D01*
X126939000Y-126882000D02*
X127119000Y-126702000D01*
D51*
X126250000Y-105700000D02*
X126350000Y-105600000D01*
D53*
X116602000Y-109828000D02*
X116602000Y-110677000D01*
D51*
X127400000Y-105400000D02*
X127450000Y-105350000D01*
X126700000Y-105200000D02*
X126700000Y-105150000D01*
D53*
X111882000Y-108298000D02*
X112120000Y-108537000D01*
D54*
X117750000Y-121090000D02*
X117750000Y-122175000D01*
D53*
X113200000Y-108025000D02*
X115116000Y-109941000D01*
X127119000Y-126702000D02*
X127119000Y-125969000D01*
D51*
X127500000Y-105350000D02*
X127450000Y-105350000D01*
X126650000Y-105100000D02*
X126650000Y-105050000D01*
X126900000Y-105350000D02*
X126950000Y-105400000D01*
D53*
X126175000Y-112748000D02*
X126356000Y-112567000D01*
D55*
%TO.N,VBAT_SENSE*%
X116239000Y-117250000D02*
X116716000Y-116774000D01*
X114825000Y-117250000D02*
X116239000Y-117250000D01*
X105900000Y-127128000D02*
X105900000Y-127940000D01*
X116716000Y-116774000D02*
X116716000Y-114858000D01*
X106135000Y-126893000D02*
X105900000Y-127128000D01*
D52*
%TO.N,/Power/BUCK_FB*%
X108405000Y-123182000D02*
X107628000Y-123182000D01*
X107628000Y-123182000D02*
X105900000Y-124910000D01*
X108405000Y-122200000D02*
X108405000Y-123182000D01*
X105520000Y-124910000D02*
X105900000Y-124910000D01*
X104700000Y-124090000D02*
X105520000Y-124910000D01*
%TO.N,/MCU/VCAP1*%
X123750000Y-122921000D02*
X123514000Y-123157000D01*
X123045000Y-124275000D02*
X123600000Y-124830000D01*
X123045000Y-123518000D02*
X123045000Y-124275000D01*
X123406000Y-123157000D02*
X123045000Y-123518000D01*
X123514000Y-123157000D02*
X123406000Y-123157000D01*
X123750000Y-122175000D02*
X123750000Y-122921000D01*
%TO.N,/MCU/VCAP2*%
X127970000Y-114313000D02*
X126907000Y-113250000D01*
X127970000Y-116100000D02*
X127970000Y-114313000D01*
X126907000Y-113250000D02*
X126175000Y-113250000D01*
D55*
%TO.N,/MCU/+3V3A*%
X127160000Y-123773000D02*
X127160000Y-123158000D01*
X114825000Y-118750000D02*
X114074000Y-118750000D01*
X113798000Y-119026000D02*
X113798000Y-121057000D01*
X127450000Y-124062000D02*
X127160000Y-123773000D01*
X114074000Y-118750000D02*
X113798000Y-119026000D01*
X113798000Y-121057000D02*
X114325000Y-121584000D01*
X127450000Y-124062500D02*
X127450000Y-124062000D01*
D52*
%TO.N,/MCU/OSC_IN*%
X110632000Y-114657000D02*
X111127000Y-114657000D01*
X111127000Y-114657000D02*
X111820000Y-115350000D01*
X110632000Y-113175000D02*
X110632000Y-114657000D01*
X114105000Y-114750000D02*
X112378000Y-113024000D01*
X110784000Y-113024000D02*
X110632000Y-113175000D01*
X114825000Y-114750000D02*
X114105000Y-114750000D01*
X112378000Y-113024000D02*
X110784000Y-113024000D01*
X109400000Y-114657000D02*
X110632000Y-114657000D01*
X109400000Y-113850000D02*
X109400000Y-114657000D01*
%TO.N,/MCU/OSC_OUT*%
X111600000Y-112150000D02*
X111600000Y-111343000D01*
X113842000Y-112321000D02*
X116190000Y-112321000D01*
X111600000Y-111343000D02*
X111660000Y-111283000D01*
X115507000Y-115250000D02*
X114825000Y-115250000D01*
X116636000Y-114121000D02*
X115507000Y-115250000D01*
X111720000Y-110600000D02*
X111720000Y-111283000D01*
X116636000Y-112768000D02*
X116636000Y-114121000D01*
X112803000Y-111283000D02*
X113842000Y-112321000D01*
X116190000Y-112321000D02*
X116636000Y-112768000D01*
X111720000Y-111283000D02*
X112803000Y-111283000D01*
X111660000Y-111283000D02*
X111720000Y-111283000D01*
%TO.N,/MCU/NRST*%
X115579000Y-115750000D02*
X114825000Y-115750000D01*
X116086000Y-116606000D02*
X116086000Y-116257000D01*
X116086000Y-116257000D02*
X115579000Y-115750000D01*
%TO.N,/MCU/LED_STATUS_K*%
X124627000Y-108861000D02*
X124837500Y-108650500D01*
X124837500Y-108650500D02*
X124837500Y-108650000D01*
X121176000Y-109172000D02*
X121498000Y-109494000D01*
X124416000Y-109072000D02*
X124627000Y-108861000D01*
X120550000Y-108140000D02*
X121176000Y-108766000D01*
X121176000Y-108766000D02*
X121176000Y-109172000D01*
X121498000Y-109494000D02*
X123994000Y-109494000D01*
X124416000Y-109072000D02*
X124627000Y-108861000D01*
X123994000Y-109494000D02*
X124416000Y-109072000D01*
%TO.N,/MCU/LED_PWR*%
X127714000Y-124778000D02*
X126938000Y-124778000D01*
X125688000Y-126383000D02*
X126714000Y-127409000D01*
X125688000Y-126362000D02*
X125688000Y-126331000D01*
X125688000Y-126362000D02*
X125688000Y-126383000D01*
X126938000Y-124778000D02*
X126000000Y-123840000D01*
X128163000Y-126487000D02*
X128163000Y-125228000D01*
X125688000Y-126331000D02*
X125688000Y-126300000D01*
X126714000Y-127409000D02*
X127241000Y-127409000D01*
X125688000Y-126342000D02*
X125688000Y-126362000D01*
X128163000Y-125228000D02*
X127714000Y-124778000D01*
X125688000Y-126331000D02*
X125687500Y-126330500D01*
X125687500Y-126330500D02*
X125687500Y-126300000D01*
X127241000Y-127409000D02*
X128163000Y-126487000D01*
%TO.N,/MCU/BOOT0*%
X118750000Y-112636000D02*
X118750000Y-110825000D01*
X119547000Y-113433000D02*
X118750000Y-112636000D01*
%TO.N,/MCU/LED_STATUS*%
X120250000Y-109460000D02*
X120250000Y-110825000D01*
X120550000Y-109160000D02*
X120250000Y-109460000D01*
D55*
%TO.N,ESC_CURR*%
X122000000Y-130500000D02*
X122000000Y-130915000D01*
X113377000Y-116113000D02*
X114013000Y-116750000D01*
X117228000Y-131601000D02*
X115267000Y-129640000D01*
X121313000Y-131601000D02*
X117228000Y-131601000D01*
X114013000Y-116750000D02*
X114825000Y-116750000D01*
X122000000Y-130915000D02*
X121313000Y-131601000D01*
D52*
%TO.N,MOTOR4*%
X117372000Y-117998000D02*
X117372000Y-118423000D01*
X117372000Y-118423000D02*
X115545000Y-120250000D01*
X117807000Y-117564000D02*
X117372000Y-117998000D01*
X128445000Y-129055000D02*
X128445000Y-123689000D01*
X127000000Y-130500000D02*
X128445000Y-129055000D01*
X127208000Y-122452000D02*
X126690000Y-122452000D01*
X126690000Y-122452000D02*
X121802000Y-117564000D01*
X128445000Y-123689000D02*
X127208000Y-122452000D01*
X121802000Y-117564000D02*
X117807000Y-117564000D01*
X115545000Y-120250000D02*
X114825000Y-120250000D01*
%TO.N,MOTOR3*%
X126401000Y-128726000D02*
X126000000Y-129127000D01*
X115411000Y-122175000D02*
X115087000Y-122499000D01*
X126000000Y-129127000D02*
X126000000Y-130500000D01*
X116750000Y-122175000D02*
X115411000Y-122175000D01*
%TO.N,IMU_CS*%
X118250000Y-123097000D02*
X118250000Y-122175000D01*
X118508000Y-123355000D02*
X118250000Y-123097000D01*
X118508000Y-125334000D02*
X118508000Y-123355000D01*
%TO.N,SPI1_SCK*%
X118750000Y-122660500D02*
X118650000Y-122560500D01*
X118750000Y-122660500D02*
X118750000Y-122175000D01*
X120300000Y-118850000D02*
X120600000Y-118850000D01*
X118650000Y-122560500D02*
X118650000Y-121450000D01*
X119700000Y-118550000D02*
X119850000Y-118400000D01*
X118600000Y-121350000D02*
X118600000Y-121300000D01*
X118650000Y-121400000D02*
X118600000Y-121350000D01*
X119400000Y-118550000D02*
X119700000Y-118550000D01*
X118450000Y-121050000D02*
X118450000Y-119500000D01*
X118650000Y-121450000D02*
X118650000Y-121400000D01*
X118450000Y-119500000D02*
X119400000Y-118550000D01*
X119850000Y-118400000D02*
X120300000Y-118850000D01*
X118600000Y-121300000D02*
X118400000Y-121100000D01*
%TO.N,SPI1_MISO*%
X114575000Y-122741000D02*
X115467000Y-123633000D01*
X114575000Y-122281000D02*
X114575000Y-122741000D01*
X117900000Y-118200000D02*
X117850000Y-118200000D01*
X115467000Y-123633000D02*
X116150000Y-123633000D01*
X117700000Y-118350000D02*
X117700000Y-118600000D01*
X114850000Y-121850000D02*
X114600000Y-122100000D01*
X119300000Y-123350000D02*
X119300000Y-122950000D01*
X114600000Y-122100000D02*
X114600000Y-122250000D01*
X119350000Y-125650000D02*
X119350000Y-123400000D01*
X119500000Y-125800000D02*
X119350000Y-125650000D01*
X114850000Y-121800000D02*
X114850000Y-121850000D01*
X117850000Y-118200000D02*
X117700000Y-118350000D01*
X119300000Y-122225000D02*
X119300000Y-122950000D01*
X114900000Y-121400000D02*
X114900000Y-121750000D01*
X119250000Y-122175000D02*
X119300000Y-122225000D01*
X114900000Y-121750000D02*
X114850000Y-121800000D01*
X119350000Y-123400000D02*
X119300000Y-123350000D01*
X117700000Y-118600000D02*
X114900000Y-121400000D01*
%TO.N,SPI1_MOSI*%
X121150000Y-118850000D02*
X121100000Y-118800000D01*
X121050000Y-119150000D02*
X121050000Y-119100000D01*
X121100000Y-118800000D02*
X121100000Y-118650000D01*
X117650000Y-117250000D02*
X117100000Y-117800000D01*
X121050000Y-118550000D02*
X120600000Y-118100000D01*
X121100000Y-118900000D02*
X121150000Y-118850000D01*
X121100000Y-119050000D02*
X121100000Y-118900000D01*
X119500000Y-120700000D02*
X121050000Y-119150000D01*
X119650000Y-122075000D02*
X119650000Y-121450000D01*
X121050000Y-119100000D02*
X121100000Y-119050000D01*
X120450000Y-117200000D02*
X117800000Y-117200000D01*
X119650000Y-121350000D02*
X119500000Y-121200000D01*
X120600000Y-117050000D02*
X120450000Y-117200000D01*
X121050000Y-118600000D02*
X121050000Y-118550000D01*
X117100000Y-117800000D02*
X116050000Y-117800000D01*
X117800000Y-117200000D02*
X117750000Y-117250000D01*
X121100000Y-118650000D02*
X121050000Y-118600000D01*
X117750000Y-117250000D02*
X117650000Y-117250000D01*
X119500000Y-121200000D02*
X119500000Y-120700000D01*
X119750000Y-122175000D02*
X119650000Y-122075000D01*
X119650000Y-121400000D02*
X119650000Y-121350000D01*
%TO.N,IMU_INT*%
X120137000Y-121713000D02*
X120137000Y-122062000D01*
X120137000Y-122062000D02*
X120250000Y-122175000D01*
X120100000Y-121350000D02*
X120150000Y-121400000D01*
X120150000Y-121700000D02*
X120137000Y-121713000D01*
X120150000Y-121700000D02*
X120150000Y-122000000D01*
X120150000Y-121400000D02*
X120150000Y-121700000D01*
X120050000Y-121000000D02*
X120050000Y-121300000D01*
%TO.N,MOTOR1*%
X124000000Y-130500000D02*
X124000000Y-129816000D01*
X121047000Y-126864000D02*
X121047000Y-125565000D01*
X121047000Y-125565000D02*
X121250000Y-125362000D01*
X121250000Y-125362000D02*
X121250000Y-122175000D01*
X124000000Y-129816000D02*
X121047000Y-126864000D01*
%TO.N,MOTOR2*%
X125000000Y-129207000D02*
X123084000Y-127291000D01*
X123084000Y-125292000D02*
X121750000Y-123958000D01*
X125000000Y-130500000D02*
X125000000Y-129207000D01*
X121750000Y-123958000D02*
X121750000Y-122175000D01*
X123084000Y-127291000D02*
X123084000Y-125292000D01*
%TO.N,UART3_TX*%
X125750000Y-110807000D02*
X124354000Y-112203000D01*
X128206000Y-108609000D02*
X126635000Y-108609000D01*
X130500000Y-111000000D02*
X130212000Y-111000000D01*
X128792000Y-109580000D02*
X128792000Y-109195000D01*
X122750000Y-120545000D02*
X122750000Y-122175000D01*
X126635000Y-108609000D02*
X125750000Y-109495000D01*
X122805000Y-120490000D02*
X122750000Y-120545000D01*
X124354000Y-112203000D02*
X124354000Y-112781000D01*
X130212000Y-111000000D02*
X128792000Y-109580000D01*
X125750000Y-109495000D02*
X125750000Y-110807000D01*
X128792000Y-109195000D02*
X128206000Y-108609000D01*
%TO.N,UART3_RX*%
X132314000Y-110886000D02*
X131428000Y-110000000D01*
X131428000Y-110000000D02*
X130500000Y-110000000D01*
X123250000Y-121166000D02*
X123844000Y-120572000D01*
X132314000Y-113603000D02*
X132314000Y-110886000D01*
X123250000Y-122175000D02*
X123250000Y-121166000D01*
X131053000Y-120784000D02*
X131053000Y-114863000D01*
X131053000Y-114863000D02*
X132314000Y-113603000D01*
%TO.N,ESC_TLM*%
X127332000Y-131526000D02*
X128727000Y-130131000D01*
X126979000Y-121823000D02*
X126504000Y-121823000D01*
X123738000Y-131526000D02*
X127332000Y-131526000D01*
X125476000Y-117750000D02*
X126175000Y-117750000D01*
X123000000Y-130789000D02*
X123738000Y-131526000D01*
X123000000Y-130500000D02*
X123000000Y-130789000D01*
X126504000Y-121823000D02*
X125165000Y-120485000D01*
X125165000Y-120485000D02*
X125165000Y-118061000D01*
X128727000Y-130131000D02*
X128727000Y-123572000D01*
X125165000Y-118061000D02*
X125476000Y-117750000D01*
X128727000Y-123572000D02*
X126979000Y-121823000D01*
%TO.N,UART1_TX*%
X105153000Y-111000000D02*
X104510000Y-111643000D01*
X125184000Y-116178000D02*
X125184000Y-116066000D01*
X124405000Y-116957000D02*
X125184000Y-116178000D01*
X105056000Y-112921000D02*
X106217000Y-112921000D01*
X125184000Y-116066000D02*
X125500000Y-115750000D01*
X104510000Y-111643000D02*
X104510000Y-112375000D01*
X104510000Y-112375000D02*
X105056000Y-112921000D01*
X105500000Y-111000000D02*
X105153000Y-111000000D01*
X125500000Y-115750000D02*
X126175000Y-115750000D01*
X124180000Y-116957000D02*
X124405000Y-116957000D01*
%TO.N,UART1_RX*%
X107320000Y-111895000D02*
X105605000Y-111895000D01*
X126175000Y-115250000D02*
X125395000Y-115250000D01*
X125395000Y-115250000D02*
X124677000Y-115968000D01*
X105605000Y-111895000D02*
X105500000Y-112000000D01*
D55*
%TO.N,USB_DM*%
X124555000Y-114750000D02*
X123385000Y-113580000D01*
X126175000Y-114750000D02*
X124555000Y-114750000D01*
%TO.N,USB_DP*%
X125146000Y-112128000D02*
X125571000Y-111703000D01*
X125421000Y-114250000D02*
X125146000Y-113975000D01*
X126175000Y-114250000D02*
X125421000Y-114250000D01*
X125146000Y-113975000D02*
X125146000Y-112128000D01*
D52*
%TO.N,SWDIO*%
X134739000Y-123009000D02*
X134739000Y-125083000D01*
X134739000Y-125083000D02*
X134254000Y-125568000D01*
X127212000Y-119063000D02*
X127212000Y-114113000D01*
X134000000Y-122270000D02*
X134739000Y-123009000D01*
X127212000Y-114113000D02*
X126849000Y-113750000D01*
X126849000Y-113750000D02*
X126175000Y-113750000D01*
X134254000Y-125568000D02*
X133717000Y-125568000D01*
X133717000Y-125568000D02*
X127212000Y-119063000D01*
%TO.N,SWCLK*%
X124250000Y-110532000D02*
X124250000Y-110825000D01*
X134000000Y-123540000D02*
X132314000Y-121854000D01*
X126509000Y-108273000D02*
X124250000Y-110532000D01*
X132596000Y-110704000D02*
X130165000Y-108273000D01*
X132314000Y-114002000D02*
X132596000Y-113720000D01*
X132314000Y-121854000D02*
X132314000Y-114002000D01*
X130165000Y-108273000D02*
X126509000Y-108273000D01*
X132596000Y-113720000D02*
X132596000Y-110704000D01*
%TO.N,SPI3_SCK*%
X123250000Y-110825000D02*
X123250000Y-112343000D01*
X123250000Y-112343000D02*
X123100000Y-112493000D01*
%TO.N,SPI3_MISO*%
X122750000Y-112030000D02*
X122750000Y-110825000D01*
X122593000Y-112187000D02*
X122750000Y-112030000D01*
X123343000Y-117547000D02*
X123343000Y-114310000D01*
X123343000Y-114310000D02*
X122593000Y-113559000D01*
X122593000Y-113559000D02*
X122593000Y-112187000D01*
%TO.N,SPI3_MOSI*%
X122926000Y-115017000D02*
X122926000Y-114291000D01*
X122804000Y-117836000D02*
X122804000Y-115138000D01*
X122804000Y-115138000D02*
X122926000Y-115017000D01*
X123720000Y-118752000D02*
X122804000Y-117836000D01*
X122926000Y-114291000D02*
X122250000Y-113615000D01*
X123722000Y-118752000D02*
X123720000Y-118752000D01*
X122250000Y-113615000D02*
X122250000Y-110825000D01*
%TO.N,FLASH_CS*%
X121250000Y-113332000D02*
X122400000Y-114482000D01*
X121250000Y-110825000D02*
X121250000Y-113332000D01*
%TO.N,I2C1_SCL*%
X129800000Y-103950000D02*
X129800000Y-103800000D01*
X129210000Y-102691000D02*
X129210000Y-102050000D01*
X118991000Y-109306000D02*
X118250000Y-110047000D01*
X118250000Y-110047000D02*
X118250000Y-110825000D01*
X129750000Y-104250000D02*
X129800000Y-104200000D01*
X129050000Y-102700000D02*
X129150000Y-102700000D01*
X128650000Y-103000000D02*
X128700000Y-103000000D01*
X129850000Y-104000000D02*
X129800000Y-103950000D01*
X128750000Y-102950000D02*
X128800000Y-102950000D01*
X128650000Y-105300000D02*
X128750000Y-105300000D01*
X128750000Y-105300000D02*
X128900000Y-105150000D01*
X129750000Y-103750000D02*
X129750000Y-103700000D01*
X118991000Y-108621000D02*
X118991000Y-109306000D01*
X128950000Y-105100000D02*
X129750000Y-104300000D01*
X129750000Y-104300000D02*
X129750000Y-104250000D01*
X129800000Y-103800000D02*
X129750000Y-103750000D01*
X126353000Y-107662000D02*
X124646000Y-107662000D01*
X128800000Y-102950000D02*
X129050000Y-102700000D01*
X129750000Y-103700000D02*
X129500000Y-103450000D01*
X129500000Y-103450000D02*
X129300000Y-103450000D01*
X129800000Y-104050000D02*
X129850000Y-104000000D01*
X129250000Y-103400000D02*
X128650000Y-103400000D01*
X126350000Y-107600000D02*
X128650000Y-105300000D01*
X129300000Y-103450000D02*
X129250000Y-103400000D01*
X129800000Y-104200000D02*
X129800000Y-104050000D01*
%TO.N,I2C1_SDA*%
X128050000Y-102850000D02*
X128200000Y-102700000D01*
X115749000Y-109284000D02*
X115749000Y-111034000D01*
X127150000Y-101090000D02*
X128062000Y-101090000D01*
X124994000Y-103246000D02*
X116944000Y-103246000D01*
X128000000Y-103000000D02*
X128050000Y-102950000D01*
X115630000Y-103580000D02*
X114457000Y-104754000D01*
X128200000Y-102700000D02*
X128350000Y-102700000D01*
X127150000Y-101090000D02*
X124994000Y-103246000D01*
X116944000Y-103246000D02*
X116610000Y-103580000D01*
X114457000Y-107992000D02*
X115749000Y-109284000D01*
X117750000Y-111521000D02*
X117750000Y-110825000D01*
X116557000Y-111842000D02*
X117429000Y-111842000D01*
X114457000Y-104754000D02*
X114457000Y-107992000D01*
X128062000Y-101090000D02*
X128713000Y-101740000D01*
X128350000Y-102700000D02*
X128400000Y-102650000D01*
X128550000Y-102600000D02*
X128700000Y-102450000D01*
X128713000Y-101740000D02*
X128713000Y-102365000D01*
X115749000Y-111034000D02*
X116557000Y-111842000D01*
X116610000Y-103580000D02*
X115630000Y-103580000D01*
X128450000Y-102650000D02*
X128500000Y-102600000D01*
X128500000Y-102600000D02*
X128550000Y-102600000D01*
X128700000Y-102450000D02*
X128700000Y-102400000D01*
X128050000Y-102950000D02*
X128050000Y-102850000D01*
X117429000Y-111842000D02*
X117750000Y-111521000D01*
D51*
%TO.N,/Connectors/VBUS*%
X117250000Y-105650000D02*
X117250000Y-104800000D01*
X121750000Y-105600000D02*
X121750000Y-105650000D01*
X116650000Y-104450000D02*
X116500000Y-104300000D01*
X121700000Y-105550000D02*
X121750000Y-105600000D01*
X116800000Y-104450000D02*
X116650000Y-104450000D01*
X116950000Y-104550000D02*
X116900000Y-104500000D01*
X121700000Y-105500000D02*
X121700000Y-105550000D01*
X117000000Y-104550000D02*
X116950000Y-104550000D01*
X117250000Y-104800000D02*
X117000000Y-104550000D01*
X116900000Y-104500000D02*
X116850000Y-104500000D01*
X121650000Y-104750000D02*
X121650000Y-105450000D01*
X121650000Y-105450000D02*
X121700000Y-105500000D01*
X116850000Y-104500000D02*
X116800000Y-104450000D01*
D52*
%TO.N,/Connectors/USB_CC1*%
X120750000Y-107255000D02*
X120750000Y-106180000D01*
X121800000Y-108960000D02*
X121077000Y-108237000D01*
X121077000Y-108237000D02*
X121077000Y-107583000D01*
X121077000Y-107583000D02*
X120750000Y-107255000D01*
D55*
%TO.N,/Connectors/USB_CONN_DP*%
X119750000Y-106761000D02*
X119750000Y-106180000D01*
X118793000Y-106804000D02*
X119000000Y-107011000D01*
X118750000Y-106180000D02*
X118750000Y-106761000D01*
X119000000Y-107011000D02*
X119500000Y-107011000D01*
X118750000Y-106761000D02*
X118793000Y-106804000D01*
X119500000Y-107011000D02*
X119750000Y-106761000D01*
X118793000Y-106804000D02*
X118407000Y-107190000D01*
%TO.N,/Connectors/USB_CONN_DM*%
X119250000Y-105365000D02*
X119975000Y-105365000D01*
X118766000Y-105365000D02*
X119250000Y-105365000D01*
X119975000Y-105365000D02*
X120250000Y-105641000D01*
X117154000Y-103753000D02*
X118766000Y-105365000D01*
X119250000Y-106180000D02*
X119250000Y-105365000D01*
X120250000Y-105641000D02*
X120250000Y-106180000D01*
D52*
%TO.N,/Connectors/USB_CC2*%
X117750000Y-108410000D02*
X117100000Y-109060000D01*
X117750000Y-106180000D02*
X117750000Y-108410000D01*
%TD*%
M02*
