%TF.GenerationSoftware,KiCad,Pcbnew,7.0.11+dfsg-1build4*%
%TF.CreationDate,2026-10-02T11:02:54+03:00*%
%TF.ProjectId,rl_fc_f405,726c5f66-635f-4663-9430-352e6b696361,rev?*%
%TF.SameCoordinates,Original*%
%TF.FileFunction,Copper,L2,Inr*%
%TF.FilePolarity,Positive*%
%FSLAX46Y46*%
G04 Gerber Fmt 4.6, Leading zero omitted, Abs format (unit mm)*
G04 Created by KiCad (PCBNEW 7.0.11+dfsg-1build4) date 2026-10-02 11:02:54*
%MOMM*%
%LPD*%
G01*
G04 APERTURE LIST*
G04 Aperture macros list*
%AMRoundRect*
0 Rectangle with rounded corners*
0 $1 Rounding radius*
0 $2 $3 $4 $5 $6 $7 $8 $9 X,Y pos of 4 corners*
0 Add a 4 corners polygon primitive as box body*
4,1,4,$2,$3,$4,$5,$6,$7,$8,$9,$2,$3,0*
0 Add four circle primitives for the rounded corners*
1,1,$1+$1,$2,$3*
1,1,$1+$1,$4,$5*
1,1,$1+$1,$6,$7*
1,1,$1+$1,$8,$9*
0 Add four rect primitives between the rounded corners*
20,1,$1+$1,$2,$3,$4,$5,0*
20,1,$1+$1,$4,$5,$6,$7,0*
20,1,$1+$1,$6,$7,$8,$9,0*
20,1,$1+$1,$8,$9,$2,$3,0*%
G04 Aperture macros list end*
%TA.AperFunction,ComponentPad*%
%ADD10R,1.000000X1.000000*%
%TD*%
%TA.AperFunction,ComponentPad*%
%ADD11O,1.000000X1.000000*%
%TD*%
%TA.AperFunction,ComponentPad*%
%ADD12RoundRect,0.249999X-1.300001X-1.300001X1.300001X-1.300001X1.300001X1.300001X-1.300001X1.300001X0*%
%TD*%
%TA.AperFunction,ComponentPad*%
%ADD13C,3.100000*%
%TD*%
%TA.AperFunction,ComponentPad*%
%ADD14O,1.000000X2.100000*%
%TD*%
%TA.AperFunction,ComponentPad*%
%ADD15O,1.000000X1.800000*%
%TD*%
%TA.AperFunction,ComponentPad*%
%ADD16C,0.600000*%
%TD*%
%TA.AperFunction,ViaPad*%
%ADD17C,0.800000*%
%TD*%
%TA.AperFunction,ViaPad*%
%ADD18C,0.600000*%
%TD*%
%TA.AperFunction,ViaPad*%
%ADD19C,0.500000*%
%TD*%
%TA.AperFunction,Conductor*%
%ADD20C,0.250000*%
%TD*%
%TA.AperFunction,Conductor*%
%ADD21C,0.300000*%
%TD*%
%TA.AperFunction,Conductor*%
%ADD22C,0.200000*%
%TD*%
%TA.AperFunction,Conductor*%
%ADD23C,0.150000*%
%TD*%
G04 APERTURE END LIST*
D10*
%TO.N,+3V3*%
%TO.C,J6*%
X134000000Y-121000000D03*
D11*
%TO.N,SWDIO*%
X134000000Y-122270000D03*
%TO.N,SWCLK*%
X134000000Y-123540000D03*
%TO.N,GND*%
X134000000Y-124810000D03*
%TD*%
D12*
%TO.N,VBAT*%
%TO.C,J1*%
X108500000Y-133000000D03*
D13*
%TO.N,GND*%
X114500000Y-133000000D03*
%TD*%
D14*
%TO.N,GND*%
%TO.C,J2*%
X123820000Y-105605000D03*
D15*
X123820000Y-101425000D03*
D14*
X115180000Y-105605000D03*
D15*
X115180000Y-101425000D03*
%TD*%
D16*
%TO.N,GND*%
%TO.C,U1*%
X108300000Y-118900000D03*
X107100000Y-118900000D03*
X105800000Y-118900000D03*
X104700000Y-118900000D03*
X108300000Y-120100000D03*
X107100000Y-120100000D03*
X105800000Y-120100000D03*
X104700000Y-120100000D03*
%TD*%
D17*
%TO.N,VBAT*%
X106600000Y-126400000D03*
X117550000Y-130700000D03*
D18*
%TO.N,GND*%
X112812000Y-104409000D03*
X121554000Y-125775000D03*
X109850000Y-106371000D03*
X103600000Y-125950000D03*
X118401000Y-109151000D03*
X117100000Y-107325000D03*
X119109000Y-119623000D03*
X117955000Y-124044000D03*
X113017000Y-114472000D03*
X102208000Y-114616000D03*
X121800000Y-107214000D03*
X134750000Y-129138000D03*
X103400000Y-122600000D03*
X131757000Y-111906000D03*
X125702000Y-103570000D03*
X113517000Y-118410000D03*
X104900000Y-125950000D03*
D19*
X126150000Y-104000000D03*
D18*
X112600000Y-102100000D03*
X128672000Y-114806000D03*
X121716000Y-128289000D03*
X113392000Y-110115000D03*
X127977000Y-110029000D03*
X115910000Y-107263000D03*
X123262000Y-107413000D03*
X103705000Y-109476000D03*
X114150000Y-101350000D03*
X124959000Y-123028000D03*
X106434000Y-104300000D03*
X125706000Y-127288000D03*
X111376000Y-104000000D03*
X132874000Y-116644000D03*
D19*
X129250000Y-104000000D03*
D18*
X119479000Y-104141000D03*
X109646000Y-109882000D03*
D17*
%TO.N,+5V*%
X130150000Y-116550000D03*
X132350000Y-125150000D03*
X130700000Y-121600000D03*
D18*
X102500000Y-116800000D03*
X112632000Y-129640000D03*
X128736000Y-112711000D03*
X109646000Y-101167000D03*
X104350000Y-109000000D03*
D17*
X129400000Y-128050000D03*
X132350000Y-123250000D03*
D18*
%TO.N,+3V3*%
X126100000Y-105950000D03*
X117854000Y-120564000D03*
X111882000Y-108298000D03*
X112371000Y-103003000D03*
X125950000Y-104750000D03*
X120398000Y-128668000D03*
X131766000Y-111125000D03*
X116276000Y-109502000D03*
X126939000Y-126882000D03*
X125135000Y-122004000D03*
X115116000Y-111643000D03*
X131261000Y-128353000D03*
X117100000Y-126002000D03*
X125162000Y-110600000D03*
X126050000Y-105300000D03*
X126356000Y-111820000D03*
X116103000Y-113020000D03*
X126402000Y-110286000D03*
X121195000Y-120396000D03*
X119909000Y-125129000D03*
X129271000Y-126033000D03*
%TO.N,VBAT_SENSE*%
X116716000Y-114858000D03*
X104900000Y-127300000D03*
%TO.N,/MCU/+3V3A*%
X127160000Y-123158000D03*
X114325000Y-121584000D03*
%TO.N,/MCU/NRST*%
X116086000Y-116606000D03*
%TO.N,/MCU/BOOT0*%
X119547000Y-113433000D03*
%TO.N,ESC_CURR*%
X115267000Y-129640000D03*
X113377000Y-116113000D03*
%TO.N,MOTOR3*%
X126401000Y-128726000D03*
X115087000Y-122499000D03*
%TO.N,IMU_CS*%
X118508000Y-125334000D03*
D19*
%TO.N,SPI1_SCK*%
X116100000Y-118500000D03*
X120600000Y-118850000D03*
%TO.N,SPI1_MISO*%
X117900000Y-118200000D03*
D18*
X119500000Y-125800000D03*
X116150000Y-123633000D03*
D19*
%TO.N,SPI1_MOSI*%
X120600000Y-118100000D03*
X120600000Y-117050000D03*
X116050000Y-117800000D03*
%TO.N,IMU_INT*%
X120050000Y-121000000D03*
D18*
%TO.N,UART3_TX*%
X124354000Y-112781000D03*
X122805000Y-120490000D03*
%TO.N,UART3_RX*%
X123844000Y-120572000D03*
X131053000Y-120784000D03*
%TO.N,UART1_TX*%
X124180000Y-116957000D03*
X106217000Y-112921000D03*
%TO.N,UART1_RX*%
X107320000Y-111895000D03*
X124677000Y-115968000D03*
%TO.N,USB_DM*%
X123385000Y-113580000D03*
%TO.N,USB_DP*%
X125571000Y-111703000D03*
%TO.N,SPI3_SCK*%
X125973000Y-123000000D03*
X123100000Y-112493000D03*
%TO.N,SPI3_MISO*%
X123343000Y-117547000D03*
%TO.N,SPI3_MOSI*%
X123722000Y-118752000D03*
%TO.N,FLASH_CS*%
X122400000Y-114482000D03*
%TO.N,I2C1_SCL*%
X124646000Y-107662000D03*
X118991000Y-108621000D03*
%TO.N,/Connectors/VBUS*%
X121650000Y-104750000D03*
X116500000Y-104300000D03*
%TO.N,/Connectors/USB_CONN_DP*%
X118407000Y-107190000D03*
%TO.N,/Connectors/USB_CONN_DM*%
X117154000Y-103753000D03*
%TD*%
D20*
%TO.N,GND*%
X112600000Y-102050000D02*
X112600000Y-102100000D01*
X129250000Y-104000000D02*
X126150000Y-104000000D01*
D21*
X111820000Y-102630000D02*
X113340000Y-101111000D01*
D22*
%TO.N,/MCU/+3V3A*%
X126739000Y-123580000D02*
X124731000Y-123580000D01*
X122735000Y-121584000D02*
X114325000Y-121584000D01*
X127160000Y-123158000D02*
X126739000Y-123580000D01*
X124731000Y-123580000D02*
X122735000Y-121584000D01*
D23*
%TO.N,MOTOR3*%
X115087000Y-122499000D02*
X120175000Y-122499000D01*
X120175000Y-122499000D02*
X126401000Y-128726000D01*
%TO.N,SPI1_SCK*%
X120600000Y-118850000D02*
X116400000Y-118850000D01*
X116100000Y-118550000D02*
X116100000Y-118500000D01*
X116400000Y-118850000D02*
X116100000Y-118550000D01*
%TO.N,UART3_RX*%
X123844000Y-120572000D02*
X124056000Y-120784000D01*
X124056000Y-120784000D02*
X131053000Y-120784000D01*
%TO.N,UART1_TX*%
X124180000Y-116957000D02*
X123322000Y-116099000D01*
X115876000Y-116099000D02*
X115249000Y-116726000D01*
X115249000Y-116726000D02*
X110022000Y-116726000D01*
X123322000Y-116099000D02*
X115876000Y-116099000D01*
X110022000Y-116726000D02*
X106217000Y-112921000D01*
%TO.N,UART1_RX*%
X124677000Y-115968000D02*
X122664000Y-113955000D01*
X122664000Y-113955000D02*
X109380000Y-113955000D01*
X109380000Y-113955000D02*
X107320000Y-111895000D01*
%TO.N,I2C1_SCL*%
X123687000Y-108621000D02*
X118991000Y-108621000D01*
X124646000Y-107662000D02*
X123687000Y-108621000D01*
%TD*%
%TA.AperFunction,Conductor*%
%TO.N,GND*%
G36*
X109379495Y-100518907D02*
G01*
X109415459Y-100568407D01*
X109415459Y-100629593D01*
X109379495Y-100679093D01*
X109370803Y-100684737D01*
X109368377Y-100686137D01*
X109253381Y-100774377D01*
X109253377Y-100774381D01*
X109165139Y-100889374D01*
X109165137Y-100889378D01*
X109109670Y-101023290D01*
X109109669Y-101023291D01*
X109090750Y-101166999D01*
X109090750Y-101167000D01*
X109109669Y-101310708D01*
X109109670Y-101310709D01*
X109165139Y-101444625D01*
X109253379Y-101559621D01*
X109368375Y-101647861D01*
X109502291Y-101703330D01*
X109646000Y-101722250D01*
X109789709Y-101703330D01*
X109923625Y-101647861D01*
X110038621Y-101559621D01*
X110126861Y-101444625D01*
X110182330Y-101310709D01*
X110201250Y-101167000D01*
X110182330Y-101023291D01*
X110126861Y-100889375D01*
X110038621Y-100774379D01*
X109923625Y-100686139D01*
X109923624Y-100686138D01*
X109923622Y-100686137D01*
X109921197Y-100684737D01*
X109919854Y-100683245D01*
X109918477Y-100682189D01*
X109918672Y-100681933D01*
X109880255Y-100639268D01*
X109873859Y-100578418D01*
X109904451Y-100525429D01*
X109960347Y-100500542D01*
X109970696Y-100500000D01*
X133987808Y-100500000D01*
X134025694Y-100507536D01*
X134166134Y-100565708D01*
X134176136Y-100570525D01*
X134250728Y-100611750D01*
X134382788Y-100684737D01*
X134431354Y-100711578D01*
X134440755Y-100717485D01*
X134678575Y-100886228D01*
X134687254Y-100893149D01*
X134717388Y-100920078D01*
X134904697Y-101087467D01*
X134912532Y-101095302D01*
X135006053Y-101199952D01*
X135106850Y-101312745D01*
X135113771Y-101321424D01*
X135282514Y-101559244D01*
X135288421Y-101568645D01*
X135429474Y-101823863D01*
X135434291Y-101833865D01*
X135450210Y-101872296D01*
X135492464Y-101974306D01*
X135500000Y-102012190D01*
X135500000Y-133987808D01*
X135492464Y-134025694D01*
X135434291Y-134166134D01*
X135429474Y-134176136D01*
X135288421Y-134431354D01*
X135282514Y-134440755D01*
X135113771Y-134678575D01*
X135106850Y-134687254D01*
X134912540Y-134904689D01*
X134904689Y-134912540D01*
X134687254Y-135106850D01*
X134678575Y-135113771D01*
X134440755Y-135282514D01*
X134431354Y-135288421D01*
X134176136Y-135429474D01*
X134166134Y-135434291D01*
X134025694Y-135492464D01*
X133987808Y-135500000D01*
X102012192Y-135500000D01*
X101974306Y-135492464D01*
X101833865Y-135434291D01*
X101823863Y-135429474D01*
X101568645Y-135288421D01*
X101559244Y-135282514D01*
X101321424Y-135113771D01*
X101312745Y-135106850D01*
X101177290Y-134985801D01*
X101095302Y-134912532D01*
X101087467Y-134904697D01*
X100943678Y-134743797D01*
X100893149Y-134687254D01*
X100886228Y-134678575D01*
X100717485Y-134440755D01*
X100711578Y-134431354D01*
X100570525Y-134176136D01*
X100565708Y-134166134D01*
X100507536Y-134025694D01*
X100500000Y-133987808D01*
X100500000Y-133381185D01*
X100999500Y-133381185D01*
X101038603Y-133640609D01*
X101038605Y-133640619D01*
X101115937Y-133891325D01*
X101229768Y-134127696D01*
X101229772Y-134127704D01*
X101377567Y-134344479D01*
X101377570Y-134344482D01*
X101377572Y-134344485D01*
X101556017Y-134536803D01*
X101556029Y-134536814D01*
X101733951Y-134678701D01*
X101761143Y-134700386D01*
X101761147Y-134700388D01*
X101761148Y-134700389D01*
X101988344Y-134831561D01*
X101988348Y-134831563D01*
X101988357Y-134831568D01*
X102082072Y-134868348D01*
X102232580Y-134927419D01*
X102232583Y-134927419D01*
X102232584Y-134927420D01*
X102488370Y-134985802D01*
X102553748Y-134990701D01*
X102684498Y-135000500D01*
X102684506Y-135000500D01*
X102815502Y-135000500D01*
X102936193Y-134991455D01*
X103011630Y-134985802D01*
X103267416Y-134927420D01*
X103511643Y-134831568D01*
X103738857Y-134700386D01*
X103943981Y-134536805D01*
X104119286Y-134347871D01*
X106699500Y-134347871D01*
X106705908Y-134407478D01*
X106705910Y-134407489D01*
X106756202Y-134542329D01*
X106811209Y-134615810D01*
X106842453Y-134657547D01*
X106899670Y-134700379D01*
X106957670Y-134743797D01*
X107092510Y-134794089D01*
X107092511Y-134794089D01*
X107092516Y-134794091D01*
X107152126Y-134800500D01*
X107152129Y-134800500D01*
X109847871Y-134800500D01*
X109847874Y-134800500D01*
X109907484Y-134794091D01*
X109954303Y-134776628D01*
X110042329Y-134743797D01*
X110042329Y-134743796D01*
X110042331Y-134743796D01*
X110157547Y-134657547D01*
X110243796Y-134542331D01*
X110294091Y-134407484D01*
X110300500Y-134347874D01*
X110300500Y-133000003D01*
X112445210Y-133000003D01*
X112464347Y-133279790D01*
X112464349Y-133279799D01*
X112521405Y-133554371D01*
X112615321Y-133818626D01*
X112744348Y-134067636D01*
X112882744Y-134263700D01*
X113600975Y-133545468D01*
X113622732Y-133586172D01*
X113753945Y-133746055D01*
X113913828Y-133877268D01*
X113954528Y-133899023D01*
X113237742Y-134615810D01*
X113315044Y-134678702D01*
X113554667Y-134824420D01*
X113811888Y-134936145D01*
X114081937Y-135011810D01*
X114081944Y-135011811D01*
X114359778Y-135049999D01*
X114359782Y-135050000D01*
X114640218Y-135050000D01*
X114640221Y-135049999D01*
X114918055Y-135011811D01*
X114918062Y-135011810D01*
X115188111Y-134936145D01*
X115445332Y-134824420D01*
X115684956Y-134678701D01*
X115684964Y-134678696D01*
X115762257Y-134615811D01*
X115045469Y-133899023D01*
X115086172Y-133877268D01*
X115246055Y-133746055D01*
X115377268Y-133586172D01*
X115399023Y-133545469D01*
X116117254Y-134263700D01*
X116255648Y-134067640D01*
X116255649Y-134067640D01*
X116384678Y-133818626D01*
X116478594Y-133554371D01*
X116514582Y-133381185D01*
X131499500Y-133381185D01*
X131538603Y-133640609D01*
X131538605Y-133640619D01*
X131615937Y-133891325D01*
X131729768Y-134127696D01*
X131729772Y-134127704D01*
X131877567Y-134344479D01*
X131877570Y-134344482D01*
X131877572Y-134344485D01*
X132056017Y-134536803D01*
X132056029Y-134536814D01*
X132233951Y-134678701D01*
X132261143Y-134700386D01*
X132261147Y-134700388D01*
X132261148Y-134700389D01*
X132488344Y-134831561D01*
X132488348Y-134831563D01*
X132488357Y-134831568D01*
X132582072Y-134868348D01*
X132732580Y-134927419D01*
X132732583Y-134927419D01*
X132732584Y-134927420D01*
X132988370Y-134985802D01*
X133053748Y-134990701D01*
X133184498Y-135000500D01*
X133184506Y-135000500D01*
X133315502Y-135000500D01*
X133436193Y-134991455D01*
X133511630Y-134985802D01*
X133767416Y-134927420D01*
X134011643Y-134831568D01*
X134238857Y-134700386D01*
X134443981Y-134536805D01*
X134622433Y-134344479D01*
X134770228Y-134127704D01*
X134884063Y-133891323D01*
X134961396Y-133640615D01*
X135000500Y-133381182D01*
X135000500Y-133118818D01*
X134961396Y-132859385D01*
X134884063Y-132608677D01*
X134770228Y-132372296D01*
X134622433Y-132155521D01*
X134592009Y-132122732D01*
X134443982Y-131963196D01*
X134443970Y-131963185D01*
X134238865Y-131799620D01*
X134238851Y-131799610D01*
X134011655Y-131668438D01*
X134011646Y-131668433D01*
X134011643Y-131668432D01*
X134011639Y-131668430D01*
X134011636Y-131668429D01*
X133767419Y-131572580D01*
X133511631Y-131514198D01*
X133511625Y-131514197D01*
X133315502Y-131499500D01*
X133315494Y-131499500D01*
X133184506Y-131499500D01*
X133184498Y-131499500D01*
X132988374Y-131514197D01*
X132988368Y-131514198D01*
X132732580Y-131572580D01*
X132488363Y-131668429D01*
X132488344Y-131668438D01*
X132261148Y-131799610D01*
X132261134Y-131799620D01*
X132056029Y-131963185D01*
X132056017Y-131963196D01*
X131877572Y-132155514D01*
X131877567Y-132155520D01*
X131877567Y-132155521D01*
X131729772Y-132372296D01*
X131729770Y-132372299D01*
X131729768Y-132372303D01*
X131615937Y-132608674D01*
X131538605Y-132859380D01*
X131538603Y-132859390D01*
X131499500Y-133118814D01*
X131499500Y-133381185D01*
X116514582Y-133381185D01*
X116535650Y-133279799D01*
X116535652Y-133279790D01*
X116554790Y-133000003D01*
X116554790Y-132999996D01*
X116535652Y-132720209D01*
X116535650Y-132720200D01*
X116478594Y-132445628D01*
X116384678Y-132181373D01*
X116255651Y-131932363D01*
X116117254Y-131736298D01*
X115399023Y-132454528D01*
X115377268Y-132413828D01*
X115246055Y-132253945D01*
X115086172Y-132122732D01*
X115045468Y-132100975D01*
X115762257Y-131384187D01*
X115762258Y-131384187D01*
X115684962Y-131321302D01*
X115684956Y-131321298D01*
X115445332Y-131175579D01*
X115188111Y-131063854D01*
X114918062Y-130988189D01*
X114918055Y-130988188D01*
X114640221Y-130950000D01*
X114359778Y-130950000D01*
X114081944Y-130988188D01*
X114081937Y-130988189D01*
X113811888Y-131063854D01*
X113554667Y-131175579D01*
X113554656Y-131175585D01*
X113315049Y-131321294D01*
X113315033Y-131321305D01*
X113237741Y-131384187D01*
X113954530Y-132100976D01*
X113913828Y-132122732D01*
X113753945Y-132253945D01*
X113622732Y-132413828D01*
X113600976Y-132454530D01*
X112882744Y-131736298D01*
X112744348Y-131932363D01*
X112615321Y-132181373D01*
X112521405Y-132445628D01*
X112464349Y-132720200D01*
X112464347Y-132720209D01*
X112445210Y-132999996D01*
X112445210Y-133000003D01*
X110300500Y-133000003D01*
X110300500Y-131652126D01*
X110294091Y-131592516D01*
X110294089Y-131592510D01*
X110243797Y-131457670D01*
X110188788Y-131384187D01*
X110157547Y-131342453D01*
X110117796Y-131312696D01*
X110042329Y-131256202D01*
X109907489Y-131205910D01*
X109907484Y-131205909D01*
X109907482Y-131205908D01*
X109907478Y-131205908D01*
X109876250Y-131202550D01*
X109847874Y-131199500D01*
X107152126Y-131199500D01*
X107127635Y-131202133D01*
X107092521Y-131205908D01*
X107092510Y-131205910D01*
X106957670Y-131256202D01*
X106842455Y-131342451D01*
X106842451Y-131342455D01*
X106756202Y-131457670D01*
X106705910Y-131592510D01*
X106705908Y-131592521D01*
X106699500Y-131652128D01*
X106699500Y-134347871D01*
X104119286Y-134347871D01*
X104122433Y-134344479D01*
X104270228Y-134127704D01*
X104384063Y-133891323D01*
X104461396Y-133640615D01*
X104500500Y-133381182D01*
X104500500Y-133118818D01*
X104461396Y-132859385D01*
X104384063Y-132608677D01*
X104270228Y-132372296D01*
X104122433Y-132155521D01*
X104092009Y-132122732D01*
X103943982Y-131963196D01*
X103943970Y-131963185D01*
X103738865Y-131799620D01*
X103738851Y-131799610D01*
X103511655Y-131668438D01*
X103511646Y-131668433D01*
X103511643Y-131668432D01*
X103511639Y-131668430D01*
X103511636Y-131668429D01*
X103267419Y-131572580D01*
X103011631Y-131514198D01*
X103011625Y-131514197D01*
X102815502Y-131499500D01*
X102815494Y-131499500D01*
X102684506Y-131499500D01*
X102684498Y-131499500D01*
X102488374Y-131514197D01*
X102488368Y-131514198D01*
X102232580Y-131572580D01*
X101988363Y-131668429D01*
X101988344Y-131668438D01*
X101761148Y-131799610D01*
X101761134Y-131799620D01*
X101556029Y-131963185D01*
X101556017Y-131963196D01*
X101377572Y-132155514D01*
X101377567Y-132155520D01*
X101377567Y-132155521D01*
X101229772Y-132372296D01*
X101229770Y-132372299D01*
X101229768Y-132372303D01*
X101115937Y-132608674D01*
X101038605Y-132859380D01*
X101038603Y-132859390D01*
X100999500Y-133118814D01*
X100999500Y-133381185D01*
X100500000Y-133381185D01*
X100500000Y-130700001D01*
X116894722Y-130700001D01*
X116913762Y-130856816D01*
X116913763Y-130856817D01*
X116969780Y-131004523D01*
X117059515Y-131134528D01*
X117059516Y-131134529D01*
X117059517Y-131134530D01*
X117177760Y-131239283D01*
X117317635Y-131312696D01*
X117471015Y-131350500D01*
X117471018Y-131350500D01*
X117628982Y-131350500D01*
X117628985Y-131350500D01*
X117782365Y-131312696D01*
X117922240Y-131239283D01*
X118040483Y-131134530D01*
X118130220Y-131004523D01*
X118186237Y-130856818D01*
X118205278Y-130700000D01*
X118186237Y-130543182D01*
X118130220Y-130395477D01*
X118040483Y-130265470D01*
X117922240Y-130160717D01*
X117846300Y-130120860D01*
X117782364Y-130087303D01*
X117628987Y-130049500D01*
X117628985Y-130049500D01*
X117471015Y-130049500D01*
X117471012Y-130049500D01*
X117317635Y-130087303D01*
X117177758Y-130160718D01*
X117059515Y-130265471D01*
X116969780Y-130395476D01*
X116913763Y-130543182D01*
X116913762Y-130543183D01*
X116894722Y-130699998D01*
X116894722Y-130700001D01*
X100500000Y-130700001D01*
X100500000Y-129640000D01*
X112076750Y-129640000D01*
X112095669Y-129783708D01*
X112095670Y-129783709D01*
X112151139Y-129917625D01*
X112239379Y-130032621D01*
X112354375Y-130120861D01*
X112488291Y-130176330D01*
X112632000Y-130195250D01*
X112775709Y-130176330D01*
X112909625Y-130120861D01*
X113024621Y-130032621D01*
X113112861Y-129917625D01*
X113168330Y-129783709D01*
X113187250Y-129640000D01*
X114711750Y-129640000D01*
X114730669Y-129783708D01*
X114730670Y-129783709D01*
X114786139Y-129917625D01*
X114874379Y-130032621D01*
X114989375Y-130120861D01*
X115123291Y-130176330D01*
X115267000Y-130195250D01*
X115410709Y-130176330D01*
X115544625Y-130120861D01*
X115659621Y-130032621D01*
X115747861Y-129917625D01*
X115803330Y-129783709D01*
X115822250Y-129640000D01*
X115803330Y-129496291D01*
X115747861Y-129362375D01*
X115659621Y-129247379D01*
X115544625Y-129159139D01*
X115544621Y-129159137D01*
X115410709Y-129103670D01*
X115410708Y-129103669D01*
X115267000Y-129084750D01*
X115123291Y-129103669D01*
X115123290Y-129103670D01*
X114989378Y-129159137D01*
X114989374Y-129159139D01*
X114874381Y-129247377D01*
X114874377Y-129247381D01*
X114786139Y-129362374D01*
X114786137Y-129362378D01*
X114730670Y-129496290D01*
X114730669Y-129496291D01*
X114711750Y-129639999D01*
X114711750Y-129640000D01*
X113187250Y-129640000D01*
X113168330Y-129496291D01*
X113112861Y-129362375D01*
X113024621Y-129247379D01*
X112909625Y-129159139D01*
X112909621Y-129159137D01*
X112775709Y-129103670D01*
X112775708Y-129103669D01*
X112632000Y-129084750D01*
X112488291Y-129103669D01*
X112488290Y-129103670D01*
X112354378Y-129159137D01*
X112354374Y-129159139D01*
X112239381Y-129247377D01*
X112239377Y-129247381D01*
X112151139Y-129362374D01*
X112151137Y-129362378D01*
X112095670Y-129496290D01*
X112095669Y-129496291D01*
X112076750Y-129639999D01*
X112076750Y-129640000D01*
X100500000Y-129640000D01*
X100500000Y-128668000D01*
X119842750Y-128668000D01*
X119861669Y-128811708D01*
X119861670Y-128811709D01*
X119885693Y-128869708D01*
X119917139Y-128945625D01*
X120005379Y-129060621D01*
X120120375Y-129148861D01*
X120254291Y-129204330D01*
X120398000Y-129223250D01*
X120541709Y-129204330D01*
X120675625Y-129148861D01*
X120790621Y-129060621D01*
X120878861Y-128945625D01*
X120934330Y-128811709D01*
X120953250Y-128668000D01*
X120952469Y-128662071D01*
X120934330Y-128524291D01*
X120878861Y-128390375D01*
X120790621Y-128275379D01*
X120675625Y-128187139D01*
X120675621Y-128187137D01*
X120541709Y-128131670D01*
X120541708Y-128131669D01*
X120398000Y-128112750D01*
X120254291Y-128131669D01*
X120254290Y-128131670D01*
X120120378Y-128187137D01*
X120120374Y-128187139D01*
X120005381Y-128275377D01*
X120005377Y-128275381D01*
X119917139Y-128390374D01*
X119917137Y-128390378D01*
X119861670Y-128524290D01*
X119861669Y-128524291D01*
X119842750Y-128667999D01*
X119842750Y-128668000D01*
X100500000Y-128668000D01*
X100500000Y-127300000D01*
X104344750Y-127300000D01*
X104363669Y-127443708D01*
X104363670Y-127443709D01*
X104391425Y-127510718D01*
X104419139Y-127577625D01*
X104507379Y-127692621D01*
X104622375Y-127780861D01*
X104756291Y-127836330D01*
X104900000Y-127855250D01*
X105043709Y-127836330D01*
X105177625Y-127780861D01*
X105292621Y-127692621D01*
X105380861Y-127577625D01*
X105436330Y-127443709D01*
X105455250Y-127300000D01*
X105436330Y-127156291D01*
X105380861Y-127022375D01*
X105292621Y-126907379D01*
X105177625Y-126819139D01*
X105177621Y-126819137D01*
X105043709Y-126763670D01*
X105043708Y-126763669D01*
X104900000Y-126744750D01*
X104756291Y-126763669D01*
X104756290Y-126763670D01*
X104622378Y-126819137D01*
X104622374Y-126819139D01*
X104507381Y-126907377D01*
X104507377Y-126907381D01*
X104419139Y-127022374D01*
X104419137Y-127022378D01*
X104363670Y-127156290D01*
X104363669Y-127156291D01*
X104344750Y-127299999D01*
X104344750Y-127300000D01*
X100500000Y-127300000D01*
X100500000Y-126400001D01*
X105944722Y-126400001D01*
X105963762Y-126556816D01*
X105963763Y-126556818D01*
X105975684Y-126588250D01*
X106019780Y-126704523D01*
X106109515Y-126834528D01*
X106109516Y-126834529D01*
X106109517Y-126834530D01*
X106227760Y-126939283D01*
X106367635Y-127012696D01*
X106521015Y-127050500D01*
X106521018Y-127050500D01*
X106678982Y-127050500D01*
X106678985Y-127050500D01*
X106832365Y-127012696D01*
X106972240Y-126939283D01*
X107090483Y-126834530D01*
X107180220Y-126704523D01*
X107236237Y-126556818D01*
X107255278Y-126400000D01*
X107249844Y-126355250D01*
X107236237Y-126243183D01*
X107236237Y-126243182D01*
X107180220Y-126095477D01*
X107115698Y-126002000D01*
X116544750Y-126002000D01*
X116563669Y-126145708D01*
X116563670Y-126145709D01*
X116619139Y-126279625D01*
X116707379Y-126394621D01*
X116822375Y-126482861D01*
X116956291Y-126538330D01*
X117100000Y-126557250D01*
X117243709Y-126538330D01*
X117377625Y-126482861D01*
X117492621Y-126394621D01*
X117580861Y-126279625D01*
X117636330Y-126145709D01*
X117655250Y-126002000D01*
X117636330Y-125858291D01*
X117580861Y-125724375D01*
X117492621Y-125609379D01*
X117377625Y-125521139D01*
X117377621Y-125521137D01*
X117243709Y-125465670D01*
X117243708Y-125465669D01*
X117100000Y-125446750D01*
X116956291Y-125465669D01*
X116956290Y-125465670D01*
X116822378Y-125521137D01*
X116822374Y-125521139D01*
X116707381Y-125609377D01*
X116707377Y-125609381D01*
X116619139Y-125724374D01*
X116619137Y-125724378D01*
X116563670Y-125858290D01*
X116563669Y-125858291D01*
X116544750Y-126001999D01*
X116544750Y-126002000D01*
X107115698Y-126002000D01*
X107090483Y-125965470D01*
X106972240Y-125860717D01*
X106884864Y-125814858D01*
X106832364Y-125787303D01*
X106678987Y-125749500D01*
X106678985Y-125749500D01*
X106521015Y-125749500D01*
X106521012Y-125749500D01*
X106367635Y-125787303D01*
X106227758Y-125860718D01*
X106109515Y-125965471D01*
X106019780Y-126095476D01*
X105963763Y-126243182D01*
X105963762Y-126243183D01*
X105944722Y-126399998D01*
X105944722Y-126400001D01*
X100500000Y-126400001D01*
X100500000Y-125334000D01*
X117952750Y-125334000D01*
X117971669Y-125477708D01*
X117971670Y-125477709D01*
X118026209Y-125609381D01*
X118027139Y-125611625D01*
X118115379Y-125726621D01*
X118230375Y-125814861D01*
X118364291Y-125870330D01*
X118508000Y-125889250D01*
X118651709Y-125870330D01*
X118785625Y-125814861D01*
X118795884Y-125806988D01*
X118853557Y-125786561D01*
X118912224Y-125803935D01*
X118949474Y-125852474D01*
X118954308Y-125872604D01*
X118963670Y-125943708D01*
X118963670Y-125943709D01*
X119000654Y-126032999D01*
X119019139Y-126077625D01*
X119107379Y-126192621D01*
X119222375Y-126280861D01*
X119356291Y-126336330D01*
X119500000Y-126355250D01*
X119643709Y-126336330D01*
X119777625Y-126280861D01*
X119892621Y-126192621D01*
X119980861Y-126077625D01*
X120036330Y-125943709D01*
X120055250Y-125800000D01*
X120048220Y-125746609D01*
X120059369Y-125686452D01*
X120103751Y-125644334D01*
X120108440Y-125642245D01*
X120186625Y-125609861D01*
X120301621Y-125521621D01*
X120389861Y-125406625D01*
X120445330Y-125272709D01*
X120464250Y-125129000D01*
X120445330Y-124985291D01*
X120389861Y-124851375D01*
X120301621Y-124736379D01*
X120186625Y-124648139D01*
X120186621Y-124648137D01*
X120052709Y-124592670D01*
X120052708Y-124592669D01*
X119909000Y-124573750D01*
X119765291Y-124592669D01*
X119765290Y-124592670D01*
X119631378Y-124648137D01*
X119631374Y-124648139D01*
X119516381Y-124736377D01*
X119516377Y-124736381D01*
X119428139Y-124851374D01*
X119428137Y-124851378D01*
X119372670Y-124985290D01*
X119372669Y-124985291D01*
X119353750Y-125128999D01*
X119353750Y-125129002D01*
X119360778Y-125182389D01*
X119349627Y-125242550D01*
X119305245Y-125284666D01*
X119300511Y-125286774D01*
X119222375Y-125319138D01*
X119222370Y-125319141D01*
X119212110Y-125327015D01*
X119154434Y-125347438D01*
X119095769Y-125330060D01*
X119058522Y-125281518D01*
X119053691Y-125261394D01*
X119044330Y-125190291D01*
X118988861Y-125056375D01*
X118900621Y-124941379D01*
X118785625Y-124853139D01*
X118785621Y-124853137D01*
X118651709Y-124797670D01*
X118651708Y-124797669D01*
X118508000Y-124778750D01*
X118364291Y-124797669D01*
X118364290Y-124797670D01*
X118230378Y-124853137D01*
X118230374Y-124853139D01*
X118115381Y-124941377D01*
X118115377Y-124941381D01*
X118027139Y-125056374D01*
X118027137Y-125056378D01*
X117971670Y-125190290D01*
X117971669Y-125190291D01*
X117952750Y-125333999D01*
X117952750Y-125334000D01*
X100500000Y-125334000D01*
X100500000Y-123633000D01*
X115594750Y-123633000D01*
X115613669Y-123776708D01*
X115613670Y-123776709D01*
X115664944Y-123900499D01*
X115669139Y-123910625D01*
X115757379Y-124025621D01*
X115872375Y-124113861D01*
X116006291Y-124169330D01*
X116150000Y-124188250D01*
X116293709Y-124169330D01*
X116427625Y-124113861D01*
X116542621Y-124025621D01*
X116630861Y-123910625D01*
X116686330Y-123776709D01*
X116705250Y-123633000D01*
X116686330Y-123489291D01*
X116630861Y-123355375D01*
X116542621Y-123240379D01*
X116427625Y-123152139D01*
X116427621Y-123152137D01*
X116293709Y-123096670D01*
X116293708Y-123096669D01*
X116150000Y-123077750D01*
X116006291Y-123096669D01*
X116006290Y-123096670D01*
X115872378Y-123152137D01*
X115872374Y-123152139D01*
X115757381Y-123240377D01*
X115757377Y-123240381D01*
X115669139Y-123355374D01*
X115669137Y-123355378D01*
X115613670Y-123489290D01*
X115613669Y-123489291D01*
X115594750Y-123632999D01*
X115594750Y-123633000D01*
X100500000Y-123633000D01*
X100500000Y-121584000D01*
X113769750Y-121584000D01*
X113788669Y-121727708D01*
X113788670Y-121727709D01*
X113844139Y-121861625D01*
X113932379Y-121976621D01*
X114047375Y-122064861D01*
X114181291Y-122120330D01*
X114325000Y-122139250D01*
X114468709Y-122120330D01*
X114468710Y-122120329D01*
X114474974Y-122118651D01*
X114475673Y-122121261D01*
X114525281Y-122117344D01*
X114577459Y-122149299D01*
X114600889Y-122205821D01*
X114593661Y-122251499D01*
X114550669Y-122355293D01*
X114531750Y-122498999D01*
X114531750Y-122499000D01*
X114550669Y-122642708D01*
X114550670Y-122642709D01*
X114601481Y-122765381D01*
X114606139Y-122776625D01*
X114694379Y-122891621D01*
X114809375Y-122979861D01*
X114943291Y-123035330D01*
X115087000Y-123054250D01*
X115230709Y-123035330D01*
X115364625Y-122979861D01*
X115479621Y-122891621D01*
X115501404Y-122863233D01*
X115551828Y-122828577D01*
X115579946Y-122824500D01*
X119999146Y-122824500D01*
X120057337Y-122843407D01*
X120069155Y-122853502D01*
X122190320Y-124975007D01*
X125804016Y-128589283D01*
X125822283Y-128607552D01*
X125850056Y-128662071D01*
X125850427Y-128690471D01*
X125845750Y-128725998D01*
X125845750Y-128726000D01*
X125864669Y-128869708D01*
X125864670Y-128869709D01*
X125920139Y-129003625D01*
X126008379Y-129118621D01*
X126123375Y-129206861D01*
X126257291Y-129262330D01*
X126401000Y-129281250D01*
X126544709Y-129262330D01*
X126678625Y-129206861D01*
X126793621Y-129118621D01*
X126881861Y-129003625D01*
X126937330Y-128869709D01*
X126956250Y-128726000D01*
X126951572Y-128690471D01*
X126937330Y-128582291D01*
X126881861Y-128448375D01*
X126793621Y-128333379D01*
X126678625Y-128245139D01*
X126678621Y-128245137D01*
X126544709Y-128189670D01*
X126544708Y-128189669D01*
X126401000Y-128170750D01*
X126400996Y-128170750D01*
X126365570Y-128175413D01*
X126305409Y-128164262D01*
X126282641Y-128147258D01*
X126185400Y-128050001D01*
X128744722Y-128050001D01*
X128763762Y-128206816D01*
X128763763Y-128206818D01*
X128811760Y-128333377D01*
X128819780Y-128354523D01*
X128909515Y-128484528D01*
X128909516Y-128484529D01*
X128909517Y-128484530D01*
X129027760Y-128589283D01*
X129167635Y-128662696D01*
X129321015Y-128700500D01*
X129321018Y-128700500D01*
X129478982Y-128700500D01*
X129478985Y-128700500D01*
X129632365Y-128662696D01*
X129772240Y-128589283D01*
X129890483Y-128484530D01*
X129980220Y-128354523D01*
X129980798Y-128353000D01*
X130705750Y-128353000D01*
X130724669Y-128496708D01*
X130724670Y-128496709D01*
X130760118Y-128582291D01*
X130780139Y-128630625D01*
X130868379Y-128745621D01*
X130983375Y-128833861D01*
X131117291Y-128889330D01*
X131261000Y-128908250D01*
X131404709Y-128889330D01*
X131538625Y-128833861D01*
X131653621Y-128745621D01*
X131741861Y-128630625D01*
X131797330Y-128496709D01*
X131816250Y-128353000D01*
X131797330Y-128209291D01*
X131741861Y-128075375D01*
X131653621Y-127960379D01*
X131538625Y-127872139D01*
X131538621Y-127872137D01*
X131404709Y-127816670D01*
X131404708Y-127816669D01*
X131261000Y-127797750D01*
X131117291Y-127816669D01*
X131117290Y-127816670D01*
X130983378Y-127872137D01*
X130983374Y-127872139D01*
X130868381Y-127960377D01*
X130868377Y-127960381D01*
X130780139Y-128075374D01*
X130780137Y-128075378D01*
X130724670Y-128209290D01*
X130724669Y-128209291D01*
X130705750Y-128352999D01*
X130705750Y-128353000D01*
X129980798Y-128353000D01*
X130036237Y-128206818D01*
X130055278Y-128050000D01*
X130036237Y-127893182D01*
X129980220Y-127745477D01*
X129890483Y-127615470D01*
X129772240Y-127510717D01*
X129644567Y-127443708D01*
X129632364Y-127437303D01*
X129478987Y-127399500D01*
X129478985Y-127399500D01*
X129321015Y-127399500D01*
X129321012Y-127399500D01*
X129167635Y-127437303D01*
X129027758Y-127510718D01*
X128909515Y-127615471D01*
X128819780Y-127745476D01*
X128763763Y-127893182D01*
X128763762Y-127893183D01*
X128744722Y-128049998D01*
X128744722Y-128050001D01*
X126185400Y-128050001D01*
X125017586Y-126882000D01*
X126383750Y-126882000D01*
X126402669Y-127025708D01*
X126402670Y-127025709D01*
X126456757Y-127156290D01*
X126458139Y-127159625D01*
X126546379Y-127274621D01*
X126661375Y-127362861D01*
X126795291Y-127418330D01*
X126939000Y-127437250D01*
X127082709Y-127418330D01*
X127216625Y-127362861D01*
X127331621Y-127274621D01*
X127419861Y-127159625D01*
X127475330Y-127025709D01*
X127494250Y-126882000D01*
X127475330Y-126738291D01*
X127419861Y-126604375D01*
X127331621Y-126489379D01*
X127216625Y-126401139D01*
X127216621Y-126401137D01*
X127082709Y-126345670D01*
X127082708Y-126345669D01*
X126939000Y-126326750D01*
X126795291Y-126345669D01*
X126795290Y-126345670D01*
X126661378Y-126401137D01*
X126661374Y-126401139D01*
X126546381Y-126489377D01*
X126546377Y-126489381D01*
X126458139Y-126604374D01*
X126458137Y-126604378D01*
X126402670Y-126738290D01*
X126402669Y-126738291D01*
X126383750Y-126881999D01*
X126383750Y-126882000D01*
X125017586Y-126882000D01*
X124168722Y-126033000D01*
X128715750Y-126033000D01*
X128734669Y-126176708D01*
X128734670Y-126176709D01*
X128777810Y-126280861D01*
X128790139Y-126310625D01*
X128878379Y-126425621D01*
X128993375Y-126513861D01*
X129127291Y-126569330D01*
X129271000Y-126588250D01*
X129414709Y-126569330D01*
X129548625Y-126513861D01*
X129663621Y-126425621D01*
X129751861Y-126310625D01*
X129807330Y-126176709D01*
X129826250Y-126033000D01*
X129817359Y-125965471D01*
X129807330Y-125889291D01*
X129751861Y-125755375D01*
X129663621Y-125640379D01*
X129548625Y-125552139D01*
X129548621Y-125552137D01*
X129414709Y-125496670D01*
X129414708Y-125496669D01*
X129271000Y-125477750D01*
X129127291Y-125496669D01*
X129127290Y-125496670D01*
X128993378Y-125552137D01*
X128993374Y-125552139D01*
X128878381Y-125640377D01*
X128878377Y-125640381D01*
X128790139Y-125755374D01*
X128790137Y-125755378D01*
X128734670Y-125889290D01*
X128734669Y-125889291D01*
X128715750Y-126032999D01*
X128715750Y-126033000D01*
X124168722Y-126033000D01*
X123285865Y-125150001D01*
X131694722Y-125150001D01*
X131713762Y-125306816D01*
X131713763Y-125306818D01*
X131737064Y-125368258D01*
X131769780Y-125454523D01*
X131859515Y-125584528D01*
X131859516Y-125584529D01*
X131859517Y-125584530D01*
X131977760Y-125689283D01*
X132117635Y-125762696D01*
X132271015Y-125800500D01*
X132271018Y-125800500D01*
X132428982Y-125800500D01*
X132428985Y-125800500D01*
X132582365Y-125762696D01*
X132722240Y-125689283D01*
X132840483Y-125584530D01*
X132930220Y-125454523D01*
X132969375Y-125351278D01*
X133007688Y-125303576D01*
X133066724Y-125287502D01*
X133123933Y-125309198D01*
X133149252Y-125339719D01*
X133164505Y-125368256D01*
X133164506Y-125368258D01*
X133289468Y-125520523D01*
X133289476Y-125520531D01*
X133441741Y-125645493D01*
X133441747Y-125645497D01*
X133615459Y-125738347D01*
X133615464Y-125738349D01*
X133749999Y-125779160D01*
X133750000Y-125779160D01*
X134250000Y-125779160D01*
X134384535Y-125738349D01*
X134384540Y-125738347D01*
X134558252Y-125645497D01*
X134558258Y-125645493D01*
X134710523Y-125520531D01*
X134710531Y-125520523D01*
X134835493Y-125368258D01*
X134835497Y-125368252D01*
X134928347Y-125194540D01*
X134928348Y-125194538D01*
X134969161Y-125060000D01*
X134250001Y-125060000D01*
X134250000Y-125060001D01*
X134250000Y-125779160D01*
X133750000Y-125779160D01*
X133750000Y-125017672D01*
X133787871Y-125062805D01*
X133887129Y-125120112D01*
X133971564Y-125135000D01*
X134028436Y-125135000D01*
X134112871Y-125120112D01*
X134212129Y-125062805D01*
X134285801Y-124975007D01*
X134325000Y-124867306D01*
X134325000Y-124752694D01*
X134285801Y-124644993D01*
X134214483Y-124560000D01*
X134969161Y-124560000D01*
X134928348Y-124425461D01*
X134928347Y-124425459D01*
X134835497Y-124251747D01*
X134835493Y-124251741D01*
X134710525Y-124099469D01*
X134662028Y-124059668D01*
X134629041Y-124008136D01*
X134632643Y-123947057D01*
X134640998Y-123930486D01*
X134680456Y-123867690D01*
X134736313Y-123708059D01*
X134738964Y-123684530D01*
X134755249Y-123540004D01*
X134755249Y-123539995D01*
X134736314Y-123371946D01*
X134736311Y-123371934D01*
X134711738Y-123301708D01*
X134680456Y-123212310D01*
X134679801Y-123211268D01*
X134590479Y-123069113D01*
X134590478Y-123069112D01*
X134590477Y-123069110D01*
X134496368Y-122975001D01*
X134468593Y-122920487D01*
X134478164Y-122860055D01*
X134496367Y-122834999D01*
X134590477Y-122740890D01*
X134680456Y-122597690D01*
X134736313Y-122438059D01*
X134740982Y-122396621D01*
X134755249Y-122270004D01*
X134755249Y-122269995D01*
X134736314Y-122101946D01*
X134736311Y-122101934D01*
X134712724Y-122034528D01*
X134680456Y-121942310D01*
X134629755Y-121861621D01*
X134615895Y-121839562D01*
X134600945Y-121780232D01*
X134623724Y-121723445D01*
X134644722Y-121704574D01*
X134680601Y-121680601D01*
X134735966Y-121597740D01*
X134750500Y-121524674D01*
X134750500Y-120475326D01*
X134735966Y-120402260D01*
X134698672Y-120346445D01*
X134680602Y-120319400D01*
X134680599Y-120319397D01*
X134597742Y-120264035D01*
X134597740Y-120264034D01*
X134597737Y-120264033D01*
X134597736Y-120264033D01*
X134524684Y-120249501D01*
X134524674Y-120249500D01*
X133475326Y-120249500D01*
X133475325Y-120249500D01*
X133475315Y-120249501D01*
X133402263Y-120264033D01*
X133402257Y-120264035D01*
X133319400Y-120319397D01*
X133319397Y-120319400D01*
X133264035Y-120402257D01*
X133264033Y-120402263D01*
X133249501Y-120475315D01*
X133249500Y-120475327D01*
X133249500Y-121524672D01*
X133249501Y-121524684D01*
X133264033Y-121597736D01*
X133264035Y-121597742D01*
X133319397Y-121680599D01*
X133319402Y-121680604D01*
X133355278Y-121704575D01*
X133393158Y-121752624D01*
X133395561Y-121813762D01*
X133384104Y-121839562D01*
X133319544Y-121942308D01*
X133319544Y-121942309D01*
X133263688Y-122101934D01*
X133263685Y-122101946D01*
X133244751Y-122269995D01*
X133244751Y-122270004D01*
X133263685Y-122438053D01*
X133263688Y-122438065D01*
X133319544Y-122597690D01*
X133319544Y-122597691D01*
X133397889Y-122722375D01*
X133409523Y-122740890D01*
X133503631Y-122834998D01*
X133531407Y-122889513D01*
X133521836Y-122949945D01*
X133503632Y-122975000D01*
X133443304Y-123035329D01*
X133409520Y-123069113D01*
X133319544Y-123212308D01*
X133319544Y-123212309D01*
X133263688Y-123371934D01*
X133263685Y-123371946D01*
X133244751Y-123539995D01*
X133244751Y-123540004D01*
X133263685Y-123708053D01*
X133263688Y-123708065D01*
X133319544Y-123867690D01*
X133319544Y-123867691D01*
X133358991Y-123930470D01*
X133373941Y-123989801D01*
X133351162Y-124046588D01*
X133337972Y-124059668D01*
X133289467Y-124099476D01*
X133164506Y-124251741D01*
X133164502Y-124251747D01*
X133071652Y-124425459D01*
X133071650Y-124425464D01*
X133014468Y-124613965D01*
X133014467Y-124613971D01*
X133010294Y-124656347D01*
X132985774Y-124712404D01*
X132932987Y-124743343D01*
X132872097Y-124737345D01*
X132845951Y-124718327D01*
X132844965Y-124719441D01*
X132722241Y-124610718D01*
X132722240Y-124610717D01*
X132651806Y-124573750D01*
X132582364Y-124537303D01*
X132428987Y-124499500D01*
X132428985Y-124499500D01*
X132271015Y-124499500D01*
X132271012Y-124499500D01*
X132117635Y-124537303D01*
X131977758Y-124610718D01*
X131859515Y-124715471D01*
X131769780Y-124845476D01*
X131713763Y-124993182D01*
X131713762Y-124993183D01*
X131694722Y-125149998D01*
X131694722Y-125150001D01*
X123285865Y-125150001D01*
X120418281Y-122281957D01*
X120412452Y-122275596D01*
X120392232Y-122251499D01*
X120387455Y-122245806D01*
X120387454Y-122245805D01*
X120387453Y-122245804D01*
X120353806Y-122226378D01*
X120346515Y-122221733D01*
X120314707Y-122199456D01*
X120313224Y-122199059D01*
X120289373Y-122189178D01*
X120288046Y-122188412D01*
X120249798Y-122181668D01*
X120241359Y-122179797D01*
X120203833Y-122169739D01*
X120165106Y-122173124D01*
X120156486Y-122173500D01*
X115579946Y-122173500D01*
X115521755Y-122154593D01*
X115501404Y-122134767D01*
X115479625Y-122106384D01*
X115479624Y-122106383D01*
X115479621Y-122106379D01*
X115479616Y-122106375D01*
X115476745Y-122103504D01*
X115448968Y-122048987D01*
X115458539Y-121988555D01*
X115501804Y-121945290D01*
X115546749Y-121934500D01*
X122548810Y-121934500D01*
X122607001Y-121953407D01*
X122618814Y-121963496D01*
X124450199Y-123794881D01*
X124463074Y-123810737D01*
X124469563Y-123820669D01*
X124493690Y-123839448D01*
X124502877Y-123847560D01*
X124503687Y-123848370D01*
X124503690Y-123848372D01*
X124503693Y-123848375D01*
X124519769Y-123859852D01*
X124523050Y-123862299D01*
X124529978Y-123867691D01*
X124561874Y-123892517D01*
X124561875Y-123892517D01*
X124561876Y-123892518D01*
X124568318Y-123896005D01*
X124574930Y-123899238D01*
X124594794Y-123905151D01*
X124622100Y-123913280D01*
X124625951Y-123914514D01*
X124672512Y-123930500D01*
X124672515Y-123930500D01*
X124679732Y-123931705D01*
X124687039Y-123932615D01*
X124687046Y-123932617D01*
X124736176Y-123930585D01*
X124740267Y-123930500D01*
X126692651Y-123930500D01*
X126712852Y-123932582D01*
X126724736Y-123935060D01*
X126754811Y-123931274D01*
X126767173Y-123930500D01*
X126768039Y-123930500D01*
X126768040Y-123930500D01*
X126787781Y-123927205D01*
X126791719Y-123926629D01*
X126840791Y-123920454D01*
X126840792Y-123920453D01*
X126840797Y-123920453D01*
X126840801Y-123920450D01*
X126847649Y-123918403D01*
X126854376Y-123916094D01*
X126854379Y-123916092D01*
X126854381Y-123916092D01*
X126897936Y-123892520D01*
X126901332Y-123890769D01*
X126945827Y-123868953D01*
X126945830Y-123868950D01*
X126951614Y-123864809D01*
X126957253Y-123860420D01*
X126957258Y-123860418D01*
X126990761Y-123824022D01*
X126993477Y-123821187D01*
X127073459Y-123741015D01*
X127127940Y-123713174D01*
X127156469Y-123712785D01*
X127160000Y-123713250D01*
X127303709Y-123694330D01*
X127437625Y-123638861D01*
X127552621Y-123550621D01*
X127640861Y-123435625D01*
X127696330Y-123301709D01*
X127703138Y-123250001D01*
X131694722Y-123250001D01*
X131713762Y-123406816D01*
X131713763Y-123406818D01*
X131745041Y-123489291D01*
X131769780Y-123554523D01*
X131859515Y-123684528D01*
X131859516Y-123684529D01*
X131859517Y-123684530D01*
X131977760Y-123789283D01*
X132117635Y-123862696D01*
X132271015Y-123900500D01*
X132271018Y-123900500D01*
X132428982Y-123900500D01*
X132428985Y-123900500D01*
X132582365Y-123862696D01*
X132722240Y-123789283D01*
X132840483Y-123684530D01*
X132930220Y-123554523D01*
X132986237Y-123406818D01*
X133005278Y-123250000D01*
X133000701Y-123212308D01*
X132989199Y-123117577D01*
X132986237Y-123093182D01*
X132930220Y-122945477D01*
X132868659Y-122856290D01*
X132840484Y-122815471D01*
X132796636Y-122776625D01*
X132722240Y-122710717D01*
X132652302Y-122674010D01*
X132582364Y-122637303D01*
X132428987Y-122599500D01*
X132428985Y-122599500D01*
X132271015Y-122599500D01*
X132271012Y-122599500D01*
X132117635Y-122637303D01*
X131977758Y-122710718D01*
X131859515Y-122815471D01*
X131769780Y-122945476D01*
X131713763Y-123093182D01*
X131713762Y-123093183D01*
X131694722Y-123249998D01*
X131694722Y-123250001D01*
X127703138Y-123250001D01*
X127715250Y-123158000D01*
X127707175Y-123096669D01*
X127696330Y-123014291D01*
X127640861Y-122880375D01*
X127552621Y-122765379D01*
X127437625Y-122677139D01*
X127437621Y-122677137D01*
X127303709Y-122621670D01*
X127303708Y-122621669D01*
X127160000Y-122602750D01*
X127016291Y-122621669D01*
X127016290Y-122621670D01*
X126882378Y-122677137D01*
X126882374Y-122677139D01*
X126767381Y-122765377D01*
X126767377Y-122765381D01*
X126679724Y-122879612D01*
X126629299Y-122914267D01*
X126568134Y-122912665D01*
X126519593Y-122875418D01*
X126509718Y-122857229D01*
X126509330Y-122856292D01*
X126509330Y-122856291D01*
X126453861Y-122722375D01*
X126365621Y-122607379D01*
X126250625Y-122519139D01*
X126250621Y-122519137D01*
X126116709Y-122463670D01*
X126116708Y-122463669D01*
X125973000Y-122444750D01*
X125829291Y-122463669D01*
X125829290Y-122463670D01*
X125695378Y-122519137D01*
X125695374Y-122519139D01*
X125580381Y-122607377D01*
X125580377Y-122607381D01*
X125492139Y-122722374D01*
X125492137Y-122722378D01*
X125436670Y-122856290D01*
X125436669Y-122856291D01*
X125420401Y-122979861D01*
X125417750Y-123000000D01*
X125424892Y-123054250D01*
X125433230Y-123117577D01*
X125422080Y-123177738D01*
X125377698Y-123219856D01*
X125335077Y-123229500D01*
X124917190Y-123229500D01*
X124858999Y-123210593D01*
X124847186Y-123200504D01*
X123650682Y-122004000D01*
X124579750Y-122004000D01*
X124598669Y-122147708D01*
X124598670Y-122147709D01*
X124651641Y-122275596D01*
X124654139Y-122281625D01*
X124742379Y-122396621D01*
X124857375Y-122484861D01*
X124991291Y-122540330D01*
X125135000Y-122559250D01*
X125278709Y-122540330D01*
X125412625Y-122484861D01*
X125527621Y-122396621D01*
X125615861Y-122281625D01*
X125671330Y-122147709D01*
X125690250Y-122004000D01*
X125686645Y-121976621D01*
X125671330Y-121860291D01*
X125615861Y-121726375D01*
X125527621Y-121611379D01*
X125412625Y-121523139D01*
X125412621Y-121523137D01*
X125278709Y-121467670D01*
X125278708Y-121467669D01*
X125135000Y-121448750D01*
X124991291Y-121467669D01*
X124991290Y-121467670D01*
X124857378Y-121523137D01*
X124857374Y-121523139D01*
X124742381Y-121611377D01*
X124742377Y-121611381D01*
X124654139Y-121726374D01*
X124654137Y-121726378D01*
X124598670Y-121860290D01*
X124598669Y-121860291D01*
X124579750Y-122003999D01*
X124579750Y-122004000D01*
X123650682Y-122004000D01*
X123015801Y-121369119D01*
X123002925Y-121353262D01*
X122996437Y-121343331D01*
X122972308Y-121324551D01*
X122963119Y-121316437D01*
X122962307Y-121315625D01*
X122946225Y-121304143D01*
X122942961Y-121301710D01*
X122904126Y-121271483D01*
X122904124Y-121271482D01*
X122897677Y-121267993D01*
X122891070Y-121264763D01*
X122891066Y-121264760D01*
X122843909Y-121250720D01*
X122840016Y-121249472D01*
X122798803Y-121235324D01*
X122775329Y-121217669D01*
X122771692Y-121221503D01*
X122724454Y-121233500D01*
X120636327Y-121233500D01*
X120578136Y-121214593D01*
X120542172Y-121165093D01*
X120538335Y-121120411D01*
X120555647Y-121000002D01*
X120555647Y-120999997D01*
X120535165Y-120857543D01*
X120527894Y-120841621D01*
X120475377Y-120726627D01*
X120381128Y-120617857D01*
X120381127Y-120617856D01*
X120381126Y-120617855D01*
X120260057Y-120540049D01*
X120260054Y-120540047D01*
X120260053Y-120540047D01*
X120258902Y-120539709D01*
X120121964Y-120499500D01*
X120121961Y-120499500D01*
X119978039Y-120499500D01*
X119978035Y-120499500D01*
X119839949Y-120540046D01*
X119839942Y-120540049D01*
X119718873Y-120617855D01*
X119624622Y-120726628D01*
X119564834Y-120857543D01*
X119544353Y-120999997D01*
X119544353Y-121000002D01*
X119561665Y-121120411D01*
X119551232Y-121180700D01*
X119507354Y-121223342D01*
X119463673Y-121233500D01*
X118173916Y-121233500D01*
X118115725Y-121214593D01*
X118079761Y-121165093D01*
X118079761Y-121103907D01*
X118115725Y-121054407D01*
X118126244Y-121048516D01*
X118126007Y-121048104D01*
X118131618Y-121044863D01*
X118131625Y-121044861D01*
X118246621Y-120956621D01*
X118334861Y-120841625D01*
X118390330Y-120707709D01*
X118409250Y-120564000D01*
X118406096Y-120540047D01*
X118390330Y-120420291D01*
X118380268Y-120396000D01*
X120639750Y-120396000D01*
X120658669Y-120539708D01*
X120658670Y-120539709D01*
X120691038Y-120617855D01*
X120714139Y-120673625D01*
X120802379Y-120788621D01*
X120917375Y-120876861D01*
X121051291Y-120932330D01*
X121195000Y-120951250D01*
X121338709Y-120932330D01*
X121472625Y-120876861D01*
X121587621Y-120788621D01*
X121675861Y-120673625D01*
X121731330Y-120539709D01*
X121737874Y-120490000D01*
X122249750Y-120490000D01*
X122268669Y-120633708D01*
X122268670Y-120633709D01*
X122285203Y-120673625D01*
X122324139Y-120767625D01*
X122412379Y-120882621D01*
X122527375Y-120970861D01*
X122661291Y-121026330D01*
X122737376Y-121036347D01*
X122784868Y-121058999D01*
X122801914Y-121047041D01*
X122818022Y-121043535D01*
X122948709Y-121026330D01*
X123082625Y-120970861D01*
X123197621Y-120882621D01*
X123214497Y-120860626D01*
X123264920Y-120825971D01*
X123326084Y-120827572D01*
X123371579Y-120860625D01*
X123451379Y-120964621D01*
X123566375Y-121052861D01*
X123700291Y-121108330D01*
X123844000Y-121127250D01*
X123982316Y-121109040D01*
X124020859Y-121111566D01*
X124022847Y-121112098D01*
X124027193Y-121113263D01*
X124027193Y-121113262D01*
X124027194Y-121113263D01*
X124065897Y-121109877D01*
X124074525Y-121109500D01*
X130059522Y-121109500D01*
X130117713Y-121128407D01*
X130153677Y-121177907D01*
X130153677Y-121239093D01*
X130140999Y-121264735D01*
X130136342Y-121271483D01*
X130119780Y-121295476D01*
X130063763Y-121443182D01*
X130063762Y-121443183D01*
X130044722Y-121599998D01*
X130044722Y-121600001D01*
X130063762Y-121756816D01*
X130063763Y-121756818D01*
X130103511Y-121861625D01*
X130119780Y-121904523D01*
X130209515Y-122034528D01*
X130209516Y-122034529D01*
X130209517Y-122034530D01*
X130327760Y-122139283D01*
X130467635Y-122212696D01*
X130621015Y-122250500D01*
X130621018Y-122250500D01*
X130778982Y-122250500D01*
X130778985Y-122250500D01*
X130932365Y-122212696D01*
X131072240Y-122139283D01*
X131190483Y-122034530D01*
X131280220Y-121904523D01*
X131336237Y-121756818D01*
X131355278Y-121600000D01*
X131345945Y-121523139D01*
X131336237Y-121443183D01*
X131336237Y-121443182D01*
X131308691Y-121370551D01*
X131305736Y-121309439D01*
X131339267Y-121258259D01*
X131340930Y-121256953D01*
X131445621Y-121176621D01*
X131533861Y-121061625D01*
X131589330Y-120927709D01*
X131608250Y-120784000D01*
X131589330Y-120640291D01*
X131533861Y-120506375D01*
X131445621Y-120391379D01*
X131330625Y-120303139D01*
X131330621Y-120303137D01*
X131196709Y-120247670D01*
X131196708Y-120247669D01*
X131053000Y-120228750D01*
X130909291Y-120247669D01*
X130909290Y-120247670D01*
X130775378Y-120303137D01*
X130775374Y-120303139D01*
X130660381Y-120391377D01*
X130660374Y-120391384D01*
X130638596Y-120419767D01*
X130588172Y-120454423D01*
X130560054Y-120458500D01*
X124458992Y-120458500D01*
X124400801Y-120439593D01*
X124367529Y-120397386D01*
X124328490Y-120303137D01*
X124324862Y-120294377D01*
X124324860Y-120294374D01*
X124236621Y-120179379D01*
X124121625Y-120091139D01*
X124121621Y-120091137D01*
X123987709Y-120035670D01*
X123987708Y-120035669D01*
X123844000Y-120016750D01*
X123700291Y-120035669D01*
X123700290Y-120035670D01*
X123566378Y-120091137D01*
X123566374Y-120091139D01*
X123451381Y-120179377D01*
X123451376Y-120179382D01*
X123434501Y-120201374D01*
X123384075Y-120236029D01*
X123322911Y-120234426D01*
X123277418Y-120201372D01*
X123197625Y-120097384D01*
X123197624Y-120097383D01*
X123197621Y-120097379D01*
X123082625Y-120009139D01*
X123082621Y-120009137D01*
X122948709Y-119953670D01*
X122948708Y-119953669D01*
X122805000Y-119934750D01*
X122661291Y-119953669D01*
X122661290Y-119953670D01*
X122527378Y-120009137D01*
X122527374Y-120009139D01*
X122412381Y-120097377D01*
X122412377Y-120097381D01*
X122324139Y-120212374D01*
X122324137Y-120212378D01*
X122268670Y-120346290D01*
X122268669Y-120346291D01*
X122249750Y-120489999D01*
X122249750Y-120490000D01*
X121737874Y-120490000D01*
X121750250Y-120396000D01*
X121743705Y-120346290D01*
X121731330Y-120252291D01*
X121675861Y-120118375D01*
X121587621Y-120003379D01*
X121472625Y-119915139D01*
X121472621Y-119915137D01*
X121338709Y-119859670D01*
X121338708Y-119859669D01*
X121195000Y-119840750D01*
X121051291Y-119859669D01*
X121051290Y-119859670D01*
X120917378Y-119915137D01*
X120917374Y-119915139D01*
X120802381Y-120003377D01*
X120802377Y-120003381D01*
X120714139Y-120118374D01*
X120714137Y-120118378D01*
X120658670Y-120252290D01*
X120658669Y-120252291D01*
X120639750Y-120395999D01*
X120639750Y-120396000D01*
X118380268Y-120396000D01*
X118334861Y-120286375D01*
X118246621Y-120171379D01*
X118131625Y-120083139D01*
X118131621Y-120083137D01*
X117997709Y-120027670D01*
X117997708Y-120027669D01*
X117854000Y-120008750D01*
X117710291Y-120027669D01*
X117710290Y-120027670D01*
X117576378Y-120083137D01*
X117576374Y-120083139D01*
X117461381Y-120171377D01*
X117461377Y-120171381D01*
X117373139Y-120286374D01*
X117373137Y-120286378D01*
X117317670Y-120420290D01*
X117317669Y-120420291D01*
X117298750Y-120563999D01*
X117298750Y-120564000D01*
X117317669Y-120707708D01*
X117317670Y-120707709D01*
X117366390Y-120825333D01*
X117373139Y-120841625D01*
X117461379Y-120956621D01*
X117576375Y-121044861D01*
X117576377Y-121044862D01*
X117581993Y-121048104D01*
X117580641Y-121050444D01*
X117618490Y-121082764D01*
X117632780Y-121142258D01*
X117609371Y-121198788D01*
X117557205Y-121230762D01*
X117534084Y-121233500D01*
X114798764Y-121233500D01*
X114740573Y-121214593D01*
X114720223Y-121194769D01*
X114717623Y-121191381D01*
X114717621Y-121191380D01*
X114717621Y-121191379D01*
X114602625Y-121103139D01*
X114602621Y-121103137D01*
X114468709Y-121047670D01*
X114468708Y-121047669D01*
X114325000Y-121028750D01*
X114181291Y-121047669D01*
X114181290Y-121047670D01*
X114047378Y-121103137D01*
X114047374Y-121103139D01*
X113932381Y-121191377D01*
X113932377Y-121191381D01*
X113844139Y-121306374D01*
X113844137Y-121306378D01*
X113788670Y-121440290D01*
X113788669Y-121440291D01*
X113769750Y-121583999D01*
X113769750Y-121584000D01*
X100500000Y-121584000D01*
X100500000Y-120816661D01*
X104336892Y-120816661D01*
X104350692Y-120825333D01*
X104350703Y-120825338D01*
X104520849Y-120884875D01*
X104520862Y-120884878D01*
X104699996Y-120905062D01*
X104700004Y-120905062D01*
X104879137Y-120884878D01*
X104879144Y-120884876D01*
X105049301Y-120825336D01*
X105063104Y-120816661D01*
X105436892Y-120816661D01*
X105450692Y-120825333D01*
X105450703Y-120825338D01*
X105620849Y-120884875D01*
X105620862Y-120884878D01*
X105799996Y-120905062D01*
X105800004Y-120905062D01*
X105979137Y-120884878D01*
X105979144Y-120884876D01*
X106149301Y-120825336D01*
X106163104Y-120816661D01*
X106736892Y-120816661D01*
X106750692Y-120825333D01*
X106750703Y-120825338D01*
X106920849Y-120884875D01*
X106920862Y-120884878D01*
X107099996Y-120905062D01*
X107100004Y-120905062D01*
X107279137Y-120884878D01*
X107279144Y-120884876D01*
X107449301Y-120825336D01*
X107463105Y-120816661D01*
X107936892Y-120816661D01*
X107950692Y-120825333D01*
X107950703Y-120825338D01*
X108120849Y-120884875D01*
X108120862Y-120884878D01*
X108299996Y-120905062D01*
X108300004Y-120905062D01*
X108479137Y-120884878D01*
X108479144Y-120884876D01*
X108649301Y-120825336D01*
X108663107Y-120816660D01*
X108300000Y-120453553D01*
X107936892Y-120816661D01*
X107463105Y-120816661D01*
X107463107Y-120816660D01*
X107100000Y-120453553D01*
X106736892Y-120816661D01*
X106163104Y-120816661D01*
X106163106Y-120816660D01*
X105800000Y-120453553D01*
X105436892Y-120816661D01*
X105063104Y-120816661D01*
X105063106Y-120816660D01*
X104700000Y-120453553D01*
X104336892Y-120816661D01*
X100500000Y-120816661D01*
X100500000Y-120100004D01*
X103894938Y-120100004D01*
X103915121Y-120279137D01*
X103915124Y-120279150D01*
X103974662Y-120449298D01*
X103974667Y-120449308D01*
X103983337Y-120463106D01*
X103983338Y-120463106D01*
X104346445Y-120100000D01*
X104544709Y-120100000D01*
X104565514Y-120177645D01*
X104622355Y-120234486D01*
X104680254Y-120250000D01*
X104719746Y-120250000D01*
X104777645Y-120234486D01*
X104834486Y-120177646D01*
X104855291Y-120100000D01*
X105053553Y-120100000D01*
X105249999Y-120296445D01*
X105446445Y-120100000D01*
X105644709Y-120100000D01*
X105665514Y-120177645D01*
X105722355Y-120234486D01*
X105780254Y-120250000D01*
X105819746Y-120250000D01*
X105877645Y-120234486D01*
X105934486Y-120177646D01*
X105955291Y-120100000D01*
X105934486Y-120022355D01*
X105877645Y-119965514D01*
X105819746Y-119950000D01*
X105780254Y-119950000D01*
X105722355Y-119965514D01*
X105665514Y-120022354D01*
X105644709Y-120100000D01*
X105446445Y-120100000D01*
X105446446Y-120099999D01*
X105250000Y-119903553D01*
X105053553Y-120100000D01*
X104855291Y-120100000D01*
X104834486Y-120022355D01*
X104777645Y-119965514D01*
X104719746Y-119950000D01*
X104680254Y-119950000D01*
X104622355Y-119965514D01*
X104565514Y-120022354D01*
X104544709Y-120100000D01*
X104346445Y-120100000D01*
X103983337Y-119736892D01*
X103974663Y-119750698D01*
X103915124Y-119920850D01*
X103915121Y-119920862D01*
X103894938Y-120099995D01*
X103894938Y-120100004D01*
X100500000Y-120100004D01*
X100500000Y-119500000D01*
X104453553Y-119500000D01*
X104699999Y-119746445D01*
X104946445Y-119500000D01*
X105553553Y-119500000D01*
X105799999Y-119746447D01*
X106449999Y-120396445D01*
X106746445Y-120100000D01*
X106944709Y-120100000D01*
X106965514Y-120177645D01*
X107022355Y-120234486D01*
X107080254Y-120250000D01*
X107119746Y-120250000D01*
X107177645Y-120234486D01*
X107234486Y-120177646D01*
X107255291Y-120100000D01*
X107234486Y-120022355D01*
X107177645Y-119965514D01*
X107119746Y-119950000D01*
X107080254Y-119950000D01*
X107022355Y-119965514D01*
X106965514Y-120022354D01*
X106944709Y-120100000D01*
X106746445Y-120100000D01*
X107029996Y-119816450D01*
X107084513Y-119788673D01*
X107144945Y-119798244D01*
X107170004Y-119816450D01*
X107700000Y-120346445D01*
X107946446Y-120100000D01*
X108144709Y-120100000D01*
X108165514Y-120177645D01*
X108222355Y-120234486D01*
X108280254Y-120250000D01*
X108319746Y-120250000D01*
X108377645Y-120234486D01*
X108434486Y-120177646D01*
X108455291Y-120100000D01*
X108653553Y-120100000D01*
X109016660Y-120463106D01*
X109025336Y-120449301D01*
X109084876Y-120279144D01*
X109084878Y-120279137D01*
X109105062Y-120100004D01*
X109105062Y-120099995D01*
X109084878Y-119920862D01*
X109084875Y-119920849D01*
X109025338Y-119750703D01*
X109025333Y-119750692D01*
X109016661Y-119736892D01*
X108653553Y-120100000D01*
X108455291Y-120100000D01*
X108434486Y-120022355D01*
X108377645Y-119965514D01*
X108319746Y-119950000D01*
X108280254Y-119950000D01*
X108222355Y-119965514D01*
X108165514Y-120022354D01*
X108144709Y-120100000D01*
X107946446Y-120100000D01*
X108300001Y-119746447D01*
X108546446Y-119500000D01*
X108546446Y-119499999D01*
X108300000Y-119253552D01*
X108300000Y-119253553D01*
X107946446Y-118900000D01*
X108144709Y-118900000D01*
X108165514Y-118977645D01*
X108222355Y-119034486D01*
X108280254Y-119050000D01*
X108319746Y-119050000D01*
X108377645Y-119034486D01*
X108434486Y-118977646D01*
X108455291Y-118900000D01*
X108653553Y-118900000D01*
X109016660Y-119263106D01*
X109025336Y-119249301D01*
X109084876Y-119079144D01*
X109084878Y-119079137D01*
X109105062Y-118900004D01*
X109105062Y-118899995D01*
X109084878Y-118720862D01*
X109084875Y-118720849D01*
X109025338Y-118550703D01*
X109025333Y-118550692D01*
X109016661Y-118536892D01*
X108653553Y-118900000D01*
X108455291Y-118900000D01*
X108434486Y-118822355D01*
X108377645Y-118765514D01*
X108319746Y-118750000D01*
X108280254Y-118750000D01*
X108222355Y-118765514D01*
X108165514Y-118822354D01*
X108144709Y-118900000D01*
X107946446Y-118900000D01*
X107699999Y-118653553D01*
X107170004Y-119183549D01*
X107115487Y-119211326D01*
X107055055Y-119201755D01*
X107029996Y-119183549D01*
X106746447Y-118900000D01*
X106944709Y-118900000D01*
X106965514Y-118977645D01*
X107022355Y-119034486D01*
X107080254Y-119050000D01*
X107119746Y-119050000D01*
X107177645Y-119034486D01*
X107234486Y-118977646D01*
X107255291Y-118900000D01*
X107234486Y-118822355D01*
X107177645Y-118765514D01*
X107119746Y-118750000D01*
X107080254Y-118750000D01*
X107022355Y-118765514D01*
X106965514Y-118822354D01*
X106944709Y-118900000D01*
X106746447Y-118900000D01*
X106450000Y-118603553D01*
X105800000Y-119253553D01*
X105799999Y-119253552D01*
X105553553Y-119499999D01*
X105553553Y-119500000D01*
X104946445Y-119500000D01*
X104946446Y-119499999D01*
X104700000Y-119253553D01*
X104453553Y-119500000D01*
X100500000Y-119500000D01*
X100500000Y-118900004D01*
X103894938Y-118900004D01*
X103915121Y-119079137D01*
X103915124Y-119079150D01*
X103974662Y-119249298D01*
X103974667Y-119249308D01*
X103983337Y-119263106D01*
X103983338Y-119263106D01*
X104346445Y-118900000D01*
X104544709Y-118900000D01*
X104565514Y-118977645D01*
X104622355Y-119034486D01*
X104680254Y-119050000D01*
X104719746Y-119050000D01*
X104777645Y-119034486D01*
X104834486Y-118977646D01*
X104855291Y-118900000D01*
X105053553Y-118900000D01*
X105249999Y-119096445D01*
X105446444Y-118900000D01*
X105644709Y-118900000D01*
X105665514Y-118977645D01*
X105722355Y-119034486D01*
X105780254Y-119050000D01*
X105819746Y-119050000D01*
X105877645Y-119034486D01*
X105934486Y-118977646D01*
X105955291Y-118900000D01*
X105934486Y-118822355D01*
X105877645Y-118765514D01*
X105819746Y-118750000D01*
X105780254Y-118750000D01*
X105722355Y-118765514D01*
X105665514Y-118822354D01*
X105644709Y-118900000D01*
X105446444Y-118900000D01*
X105446445Y-118899999D01*
X105250000Y-118703553D01*
X105053553Y-118900000D01*
X104855291Y-118900000D01*
X104834486Y-118822355D01*
X104777645Y-118765514D01*
X104719746Y-118750000D01*
X104680254Y-118750000D01*
X104622355Y-118765514D01*
X104565514Y-118822354D01*
X104544709Y-118900000D01*
X104346445Y-118900000D01*
X103983337Y-118536892D01*
X103974663Y-118550698D01*
X103915124Y-118720850D01*
X103915121Y-118720862D01*
X103894938Y-118899995D01*
X103894938Y-118900004D01*
X100500000Y-118900004D01*
X100500000Y-118183337D01*
X104336892Y-118183337D01*
X104700000Y-118546445D01*
X105063106Y-118183338D01*
X105063106Y-118183337D01*
X105436892Y-118183337D01*
X105800000Y-118546445D01*
X106163106Y-118183338D01*
X106163106Y-118183337D01*
X106736892Y-118183337D01*
X107100000Y-118546445D01*
X107463106Y-118183338D01*
X107463106Y-118183337D01*
X107936892Y-118183337D01*
X108300000Y-118546445D01*
X108663106Y-118183338D01*
X108663106Y-118183337D01*
X108649308Y-118174667D01*
X108649298Y-118174662D01*
X108479150Y-118115124D01*
X108479137Y-118115121D01*
X108300004Y-118094938D01*
X108299996Y-118094938D01*
X108120862Y-118115121D01*
X108120850Y-118115124D01*
X107950698Y-118174663D01*
X107936892Y-118183337D01*
X107463106Y-118183337D01*
X107449308Y-118174667D01*
X107449298Y-118174662D01*
X107279150Y-118115124D01*
X107279137Y-118115121D01*
X107100004Y-118094938D01*
X107099996Y-118094938D01*
X106920862Y-118115121D01*
X106920850Y-118115124D01*
X106750698Y-118174663D01*
X106736892Y-118183337D01*
X106163106Y-118183337D01*
X106149308Y-118174667D01*
X106149298Y-118174662D01*
X105979150Y-118115124D01*
X105979137Y-118115121D01*
X105800004Y-118094938D01*
X105799996Y-118094938D01*
X105620862Y-118115121D01*
X105620850Y-118115124D01*
X105450698Y-118174663D01*
X105436892Y-118183337D01*
X105063106Y-118183337D01*
X105049308Y-118174667D01*
X105049298Y-118174662D01*
X104879150Y-118115124D01*
X104879137Y-118115121D01*
X104700004Y-118094938D01*
X104699996Y-118094938D01*
X104520862Y-118115121D01*
X104520850Y-118115124D01*
X104350698Y-118174663D01*
X104336892Y-118183337D01*
X100500000Y-118183337D01*
X100500000Y-116800000D01*
X101944750Y-116800000D01*
X101963669Y-116943708D01*
X101963670Y-116943709D01*
X102014380Y-117066137D01*
X102019139Y-117077625D01*
X102107379Y-117192621D01*
X102222375Y-117280861D01*
X102356291Y-117336330D01*
X102500000Y-117355250D01*
X102643709Y-117336330D01*
X102777625Y-117280861D01*
X102892621Y-117192621D01*
X102980861Y-117077625D01*
X103036330Y-116943709D01*
X103055250Y-116800000D01*
X103036330Y-116656291D01*
X102980861Y-116522375D01*
X102892621Y-116407379D01*
X102777625Y-116319139D01*
X102777621Y-116319137D01*
X102643709Y-116263670D01*
X102643708Y-116263669D01*
X102500000Y-116244750D01*
X102356291Y-116263669D01*
X102356290Y-116263670D01*
X102222378Y-116319137D01*
X102222374Y-116319139D01*
X102107381Y-116407377D01*
X102107377Y-116407381D01*
X102019139Y-116522374D01*
X102019137Y-116522378D01*
X101963670Y-116656290D01*
X101963669Y-116656291D01*
X101944750Y-116799999D01*
X101944750Y-116800000D01*
X100500000Y-116800000D01*
X100500000Y-112921000D01*
X105661750Y-112921000D01*
X105680669Y-113064708D01*
X105680670Y-113064709D01*
X105733337Y-113191862D01*
X105736139Y-113198625D01*
X105824379Y-113313621D01*
X105939375Y-113401861D01*
X106073291Y-113457330D01*
X106217000Y-113476250D01*
X106252475Y-113471579D01*
X106312635Y-113482728D01*
X106335402Y-113499728D01*
X109778730Y-116943056D01*
X109784564Y-116949423D01*
X109809545Y-116979194D01*
X109843209Y-116998630D01*
X109850482Y-117003264D01*
X109861058Y-117010669D01*
X109882316Y-117025554D01*
X109883767Y-117025942D01*
X109907659Y-117035840D01*
X109908954Y-117036588D01*
X109947220Y-117043335D01*
X109955647Y-117045203D01*
X109993193Y-117055264D01*
X110031909Y-117051877D01*
X110040537Y-117051500D01*
X115230466Y-117051500D01*
X115239094Y-117051876D01*
X115277807Y-117055264D01*
X115315354Y-117045202D01*
X115323784Y-117043334D01*
X115362045Y-117036588D01*
X115363345Y-117035838D01*
X115387236Y-117025942D01*
X115387464Y-117025880D01*
X115388684Y-117025554D01*
X115420533Y-117003251D01*
X115427779Y-116998635D01*
X115461455Y-116979194D01*
X115486443Y-116949413D01*
X115492254Y-116943070D01*
X115502115Y-116933209D01*
X115556630Y-116905434D01*
X115617062Y-116915005D01*
X115650657Y-116942946D01*
X115693379Y-116998621D01*
X115808375Y-117086861D01*
X115841808Y-117100709D01*
X115919894Y-117133053D01*
X115966420Y-117172789D01*
X115980704Y-117232284D01*
X115957290Y-117288812D01*
X115909901Y-117319506D01*
X115852606Y-117336330D01*
X115839947Y-117340047D01*
X115839942Y-117340049D01*
X115718873Y-117417855D01*
X115624622Y-117526628D01*
X115564834Y-117657543D01*
X115544353Y-117799997D01*
X115544353Y-117800002D01*
X115564834Y-117942456D01*
X115624623Y-118073373D01*
X115661534Y-118115971D01*
X115685352Y-118172330D01*
X115676768Y-118221928D01*
X115614834Y-118357541D01*
X115614834Y-118357543D01*
X115594353Y-118499997D01*
X115594353Y-118500002D01*
X115614834Y-118642456D01*
X115663949Y-118750000D01*
X115674623Y-118773373D01*
X115717065Y-118822354D01*
X115768873Y-118882144D01*
X115796658Y-118900000D01*
X115889947Y-118959953D01*
X115950205Y-118977646D01*
X116028035Y-119000499D01*
X116028036Y-119000499D01*
X116028039Y-119000500D01*
X116049166Y-119000500D01*
X116107357Y-119019407D01*
X116119170Y-119029496D01*
X116156730Y-119067056D01*
X116162564Y-119073423D01*
X116187545Y-119103194D01*
X116221209Y-119122630D01*
X116228482Y-119127264D01*
X116249173Y-119141752D01*
X116260316Y-119149554D01*
X116261767Y-119149942D01*
X116285659Y-119159840D01*
X116286954Y-119160588D01*
X116325220Y-119167335D01*
X116333652Y-119169204D01*
X116371193Y-119179264D01*
X116409905Y-119175876D01*
X116418534Y-119175500D01*
X120174579Y-119175500D01*
X120232770Y-119194407D01*
X120249400Y-119209670D01*
X120268872Y-119232143D01*
X120389947Y-119309953D01*
X120496403Y-119341211D01*
X120528035Y-119350499D01*
X120528036Y-119350499D01*
X120528039Y-119350500D01*
X120528041Y-119350500D01*
X120671959Y-119350500D01*
X120671961Y-119350500D01*
X120810053Y-119309953D01*
X120931128Y-119232143D01*
X121025377Y-119123373D01*
X121085165Y-118992457D01*
X121099075Y-118895708D01*
X121105647Y-118850002D01*
X121105647Y-118849997D01*
X121085165Y-118707543D01*
X121055440Y-118642456D01*
X121025377Y-118576627D01*
X120993491Y-118539829D01*
X120969675Y-118483472D01*
X120983533Y-118423877D01*
X120993487Y-118410175D01*
X121025377Y-118373373D01*
X121085165Y-118242457D01*
X121101669Y-118127669D01*
X121105647Y-118100002D01*
X121105647Y-118099997D01*
X121085165Y-117957543D01*
X121025377Y-117826628D01*
X121025377Y-117826627D01*
X120931128Y-117717857D01*
X120931127Y-117717856D01*
X120931126Y-117717855D01*
X120838430Y-117658284D01*
X120799699Y-117610918D01*
X120796205Y-117549833D01*
X120829284Y-117498360D01*
X120838430Y-117491716D01*
X120839143Y-117491258D01*
X120931128Y-117432143D01*
X121025377Y-117323373D01*
X121085165Y-117192457D01*
X121098356Y-117100709D01*
X121105647Y-117050002D01*
X121105647Y-117049997D01*
X121085165Y-116907543D01*
X121042121Y-116813291D01*
X121025377Y-116776627D01*
X120931128Y-116667857D01*
X120931127Y-116667856D01*
X120931126Y-116667855D01*
X120836097Y-116606784D01*
X120797365Y-116559418D01*
X120793872Y-116498332D01*
X120826952Y-116446860D01*
X120883968Y-116424661D01*
X120889620Y-116424500D01*
X123146166Y-116424500D01*
X123204357Y-116443407D01*
X123216170Y-116453496D01*
X123601271Y-116838597D01*
X123629048Y-116893114D01*
X123629420Y-116921522D01*
X123627751Y-116934200D01*
X123601411Y-116989426D01*
X123547640Y-117018621D01*
X123491714Y-117012743D01*
X123486709Y-117010670D01*
X123486706Y-117010669D01*
X123486708Y-117010669D01*
X123343000Y-116991750D01*
X123199291Y-117010669D01*
X123199290Y-117010670D01*
X123065378Y-117066137D01*
X123065374Y-117066139D01*
X122950381Y-117154377D01*
X122950377Y-117154381D01*
X122862139Y-117269374D01*
X122862137Y-117269378D01*
X122806670Y-117403290D01*
X122806669Y-117403291D01*
X122787750Y-117546999D01*
X122787750Y-117547000D01*
X122806669Y-117690708D01*
X122806670Y-117690709D01*
X122859335Y-117817857D01*
X122862139Y-117824625D01*
X122950379Y-117939621D01*
X123065375Y-118027861D01*
X123199291Y-118083330D01*
X123343000Y-118102250D01*
X123364742Y-118099387D01*
X123424901Y-118110536D01*
X123467019Y-118154917D01*
X123475007Y-118215579D01*
X123445813Y-118269350D01*
X123437932Y-118276081D01*
X123329385Y-118359373D01*
X123329377Y-118359381D01*
X123241139Y-118474374D01*
X123241137Y-118474378D01*
X123185670Y-118608290D01*
X123185669Y-118608291D01*
X123166750Y-118751999D01*
X123166750Y-118752000D01*
X123185669Y-118895708D01*
X123185670Y-118895709D01*
X123241085Y-119029496D01*
X123241139Y-119029625D01*
X123329379Y-119144621D01*
X123444375Y-119232861D01*
X123578291Y-119288330D01*
X123722000Y-119307250D01*
X123865709Y-119288330D01*
X123999625Y-119232861D01*
X124114621Y-119144621D01*
X124202861Y-119029625D01*
X124258330Y-118895709D01*
X124277250Y-118752000D01*
X124258330Y-118608291D01*
X124202861Y-118474375D01*
X124114621Y-118359379D01*
X123999625Y-118271139D01*
X123999621Y-118271137D01*
X123865709Y-118215670D01*
X123865708Y-118215669D01*
X123722000Y-118196750D01*
X123721998Y-118196750D01*
X123700256Y-118199612D01*
X123640095Y-118188461D01*
X123597978Y-118144078D01*
X123589993Y-118083416D01*
X123619189Y-118029646D01*
X123627068Y-118022917D01*
X123735621Y-117939621D01*
X123823861Y-117824625D01*
X123879330Y-117690709D01*
X123895248Y-117569796D01*
X123921589Y-117514573D01*
X123975360Y-117485378D01*
X124031287Y-117491257D01*
X124036291Y-117493330D01*
X124180000Y-117512250D01*
X124323709Y-117493330D01*
X124457625Y-117437861D01*
X124572621Y-117349621D01*
X124660861Y-117234625D01*
X124716330Y-117100709D01*
X124735250Y-116957000D01*
X124734252Y-116949423D01*
X124716330Y-116813291D01*
X124660861Y-116679375D01*
X124657921Y-116675544D01*
X124637496Y-116617869D01*
X124654872Y-116559203D01*
X124666863Y-116550001D01*
X129494722Y-116550001D01*
X129513762Y-116706816D01*
X129513763Y-116706818D01*
X129554143Y-116813291D01*
X129569780Y-116854523D01*
X129659515Y-116984528D01*
X129659516Y-116984529D01*
X129659517Y-116984530D01*
X129777760Y-117089283D01*
X129917635Y-117162696D01*
X130071015Y-117200500D01*
X130071018Y-117200500D01*
X130228982Y-117200500D01*
X130228985Y-117200500D01*
X130382365Y-117162696D01*
X130522240Y-117089283D01*
X130640483Y-116984530D01*
X130730220Y-116854523D01*
X130786237Y-116706818D01*
X130803532Y-116564379D01*
X130805278Y-116550001D01*
X130805278Y-116549998D01*
X130787961Y-116407379D01*
X130786237Y-116393182D01*
X130730220Y-116245477D01*
X130640483Y-116115470D01*
X130522240Y-116010717D01*
X130443310Y-115969291D01*
X130382364Y-115937303D01*
X130228987Y-115899500D01*
X130228985Y-115899500D01*
X130071015Y-115899500D01*
X130071012Y-115899500D01*
X129917635Y-115937303D01*
X129777758Y-116010718D01*
X129659515Y-116115471D01*
X129569780Y-116245476D01*
X129513763Y-116393182D01*
X129513762Y-116393183D01*
X129494722Y-116549998D01*
X129494722Y-116550001D01*
X124666863Y-116550001D01*
X124703412Y-116521954D01*
X124723532Y-116517123D01*
X124820709Y-116504330D01*
X124954625Y-116448861D01*
X125069621Y-116360621D01*
X125157861Y-116245625D01*
X125213330Y-116111709D01*
X125232250Y-115968000D01*
X125213330Y-115824291D01*
X125157861Y-115690375D01*
X125069621Y-115575379D01*
X124954625Y-115487139D01*
X124954621Y-115487137D01*
X124820709Y-115431670D01*
X124820708Y-115431669D01*
X124677000Y-115412750D01*
X124676998Y-115412750D01*
X124641522Y-115417420D01*
X124581361Y-115406269D01*
X124558597Y-115389271D01*
X123455885Y-114286559D01*
X123428108Y-114232042D01*
X123437679Y-114171610D01*
X123480944Y-114128345D01*
X123512967Y-114118402D01*
X123528709Y-114116330D01*
X123662625Y-114060861D01*
X123777621Y-113972621D01*
X123865861Y-113857625D01*
X123921330Y-113723709D01*
X123940250Y-113580000D01*
X123935997Y-113547699D01*
X123921330Y-113436291D01*
X123884566Y-113347535D01*
X123879767Y-113286539D01*
X123911736Y-113234370D01*
X123968264Y-113210956D01*
X124027759Y-113225240D01*
X124036293Y-113231105D01*
X124076375Y-113261861D01*
X124210291Y-113317330D01*
X124354000Y-113336250D01*
X124497709Y-113317330D01*
X124631625Y-113261861D01*
X124746621Y-113173621D01*
X124834861Y-113058625D01*
X124890330Y-112924709D01*
X124909250Y-112781000D01*
X124909249Y-112780996D01*
X124900034Y-112711000D01*
X128180750Y-112711000D01*
X128199669Y-112854708D01*
X128199670Y-112854709D01*
X128249023Y-112973861D01*
X128255139Y-112988625D01*
X128343379Y-113103621D01*
X128458375Y-113191861D01*
X128592291Y-113247330D01*
X128736000Y-113266250D01*
X128879709Y-113247330D01*
X129013625Y-113191861D01*
X129128621Y-113103621D01*
X129216861Y-112988625D01*
X129272330Y-112854709D01*
X129291250Y-112711000D01*
X129272330Y-112567291D01*
X129216861Y-112433375D01*
X129128621Y-112318379D01*
X129013625Y-112230139D01*
X129013621Y-112230137D01*
X128879709Y-112174670D01*
X128879708Y-112174669D01*
X128736000Y-112155750D01*
X128592291Y-112174669D01*
X128592290Y-112174670D01*
X128458378Y-112230137D01*
X128458374Y-112230139D01*
X128343381Y-112318377D01*
X128343377Y-112318381D01*
X128255139Y-112433374D01*
X128255137Y-112433378D01*
X128199670Y-112567290D01*
X128199669Y-112567291D01*
X128180750Y-112710999D01*
X128180750Y-112711000D01*
X124900034Y-112711000D01*
X124890330Y-112637291D01*
X124834861Y-112503375D01*
X124746621Y-112388379D01*
X124631625Y-112300139D01*
X124631621Y-112300137D01*
X124497709Y-112244670D01*
X124497708Y-112244669D01*
X124354000Y-112225750D01*
X124210291Y-112244669D01*
X124210290Y-112244670D01*
X124076378Y-112300137D01*
X124076374Y-112300139D01*
X123961381Y-112388377D01*
X123961377Y-112388381D01*
X123873139Y-112503374D01*
X123873137Y-112503378D01*
X123839497Y-112584595D01*
X123799761Y-112631121D01*
X123749161Y-112643269D01*
X123770260Y-112652008D01*
X123802230Y-112704176D01*
X123804119Y-112740209D01*
X123798750Y-112780996D01*
X123798750Y-112781000D01*
X123817181Y-112921000D01*
X123817670Y-112924709D01*
X123854433Y-113013463D01*
X123859232Y-113074460D01*
X123827262Y-113126629D01*
X123770734Y-113150043D01*
X123711240Y-113135759D01*
X123702700Y-113129890D01*
X123662625Y-113099139D01*
X123662621Y-113099137D01*
X123528319Y-113043508D01*
X123481793Y-113003772D01*
X123467509Y-112944277D01*
X123489431Y-112891351D01*
X123488671Y-112890768D01*
X123490849Y-112887929D01*
X123490924Y-112887749D01*
X123491297Y-112887345D01*
X123492618Y-112885623D01*
X123492621Y-112885621D01*
X123580861Y-112770625D01*
X123614504Y-112689400D01*
X123654237Y-112642879D01*
X123704835Y-112630729D01*
X123683738Y-112621991D01*
X123651769Y-112569822D01*
X123649880Y-112533787D01*
X123655250Y-112492999D01*
X123636330Y-112349291D01*
X123580861Y-112215375D01*
X123492621Y-112100379D01*
X123377625Y-112012139D01*
X123377621Y-112012137D01*
X123243709Y-111956670D01*
X123243708Y-111956669D01*
X123100000Y-111937750D01*
X122956291Y-111956669D01*
X122956290Y-111956670D01*
X122822378Y-112012137D01*
X122822374Y-112012139D01*
X122707381Y-112100377D01*
X122707377Y-112100381D01*
X122619139Y-112215374D01*
X122619137Y-112215378D01*
X122563670Y-112349290D01*
X122563669Y-112349291D01*
X122544750Y-112492999D01*
X122544750Y-112493000D01*
X122563669Y-112636708D01*
X122563670Y-112636709D01*
X122607437Y-112742375D01*
X122619139Y-112770625D01*
X122707379Y-112885621D01*
X122822375Y-112973861D01*
X122858019Y-112988625D01*
X122956680Y-113029491D01*
X123003206Y-113069227D01*
X123017490Y-113128722D01*
X122995567Y-113181648D01*
X122996329Y-113182232D01*
X122994149Y-113185072D01*
X122994076Y-113185250D01*
X122993705Y-113185650D01*
X122904139Y-113302374D01*
X122904137Y-113302378D01*
X122848670Y-113436290D01*
X122848670Y-113436291D01*
X122834002Y-113547699D01*
X122807660Y-113602924D01*
X122753889Y-113632118D01*
X122710231Y-113630404D01*
X122698066Y-113627145D01*
X122692807Y-113625736D01*
X122692806Y-113625736D01*
X122654095Y-113629123D01*
X122645466Y-113629500D01*
X120189268Y-113629500D01*
X120131077Y-113610593D01*
X120095113Y-113561093D01*
X120091115Y-113517578D01*
X120102250Y-113433000D01*
X120102250Y-113432999D01*
X120083330Y-113289291D01*
X120027861Y-113155375D01*
X119939621Y-113040379D01*
X119824625Y-112952139D01*
X119824621Y-112952137D01*
X119690709Y-112896670D01*
X119690708Y-112896669D01*
X119547000Y-112877750D01*
X119403291Y-112896669D01*
X119403290Y-112896670D01*
X119269378Y-112952137D01*
X119269374Y-112952139D01*
X119154381Y-113040377D01*
X119154377Y-113040381D01*
X119066139Y-113155374D01*
X119066137Y-113155378D01*
X119010670Y-113289290D01*
X119010669Y-113289291D01*
X118991750Y-113432999D01*
X118991750Y-113433000D01*
X119002885Y-113517578D01*
X118991735Y-113577739D01*
X118947353Y-113619856D01*
X118904732Y-113629500D01*
X116504624Y-113629500D01*
X116446433Y-113610593D01*
X116410469Y-113561093D01*
X116410469Y-113499907D01*
X116444356Y-113451958D01*
X116495621Y-113412621D01*
X116583861Y-113297625D01*
X116639330Y-113163709D01*
X116658250Y-113020000D01*
X116652175Y-112973860D01*
X116639330Y-112876291D01*
X116583861Y-112742375D01*
X116495621Y-112627379D01*
X116380625Y-112539139D01*
X116380621Y-112539137D01*
X116246709Y-112483670D01*
X116246708Y-112483669D01*
X116103000Y-112464750D01*
X115959291Y-112483669D01*
X115959290Y-112483670D01*
X115825378Y-112539137D01*
X115825374Y-112539139D01*
X115710381Y-112627377D01*
X115710377Y-112627381D01*
X115622139Y-112742374D01*
X115622137Y-112742378D01*
X115566670Y-112876290D01*
X115566669Y-112876291D01*
X115547750Y-113019999D01*
X115547750Y-113020000D01*
X115566669Y-113163708D01*
X115566670Y-113163709D01*
X115618686Y-113289290D01*
X115622139Y-113297625D01*
X115710379Y-113412621D01*
X115761644Y-113451958D01*
X115796299Y-113502383D01*
X115794697Y-113563547D01*
X115757450Y-113612089D01*
X115701376Y-113629500D01*
X109555834Y-113629500D01*
X109497643Y-113610593D01*
X109485830Y-113600504D01*
X107898728Y-112013402D01*
X107870951Y-111958885D01*
X107870579Y-111930474D01*
X107871876Y-111920625D01*
X107875250Y-111895000D01*
X107856330Y-111751291D01*
X107811475Y-111643000D01*
X114560750Y-111643000D01*
X114579669Y-111786708D01*
X114579670Y-111786709D01*
X114624524Y-111894999D01*
X114635139Y-111920625D01*
X114723379Y-112035621D01*
X114838375Y-112123861D01*
X114972291Y-112179330D01*
X115116000Y-112198250D01*
X115259709Y-112179330D01*
X115393625Y-112123861D01*
X115508621Y-112035621D01*
X115596861Y-111920625D01*
X115652330Y-111786709D01*
X115671250Y-111643000D01*
X115666360Y-111605861D01*
X115652330Y-111499291D01*
X115596861Y-111365375D01*
X115508621Y-111250379D01*
X115393625Y-111162139D01*
X115393621Y-111162137D01*
X115259709Y-111106670D01*
X115259708Y-111106669D01*
X115116000Y-111087750D01*
X114972291Y-111106669D01*
X114972290Y-111106670D01*
X114838378Y-111162137D01*
X114838374Y-111162139D01*
X114723381Y-111250377D01*
X114723377Y-111250381D01*
X114635139Y-111365374D01*
X114635137Y-111365378D01*
X114579670Y-111499290D01*
X114579669Y-111499291D01*
X114560750Y-111642999D01*
X114560750Y-111643000D01*
X107811475Y-111643000D01*
X107800861Y-111617375D01*
X107712621Y-111502379D01*
X107597625Y-111414139D01*
X107597621Y-111414137D01*
X107463709Y-111358670D01*
X107463708Y-111358669D01*
X107320000Y-111339750D01*
X107176291Y-111358669D01*
X107176290Y-111358670D01*
X107042378Y-111414137D01*
X107042374Y-111414139D01*
X106927381Y-111502377D01*
X106927377Y-111502381D01*
X106839139Y-111617374D01*
X106839137Y-111617378D01*
X106783670Y-111751290D01*
X106783669Y-111751291D01*
X106764750Y-111894999D01*
X106764750Y-111895000D01*
X106783669Y-112038708D01*
X106783670Y-112038709D01*
X106818940Y-112123861D01*
X106839139Y-112172625D01*
X106927379Y-112287621D01*
X107042375Y-112375861D01*
X107176291Y-112431330D01*
X107320000Y-112450250D01*
X107355475Y-112445579D01*
X107415635Y-112456728D01*
X107438402Y-112473728D01*
X109136730Y-114172056D01*
X109142564Y-114178423D01*
X109167545Y-114208194D01*
X109201209Y-114227630D01*
X109208482Y-114232264D01*
X109229173Y-114246752D01*
X109240316Y-114254554D01*
X109241767Y-114254942D01*
X109265659Y-114264840D01*
X109266954Y-114265588D01*
X109305220Y-114272335D01*
X109313652Y-114274204D01*
X109351193Y-114284264D01*
X109389905Y-114280876D01*
X109398534Y-114280500D01*
X116272673Y-114280500D01*
X116330864Y-114299407D01*
X116366828Y-114348907D01*
X116366828Y-114410093D01*
X116332942Y-114458041D01*
X116323382Y-114465376D01*
X116323377Y-114465381D01*
X116235139Y-114580374D01*
X116235137Y-114580378D01*
X116179670Y-114714290D01*
X116179669Y-114714291D01*
X116160750Y-114857999D01*
X116160750Y-114858000D01*
X116179669Y-115001708D01*
X116179670Y-115001709D01*
X116186554Y-115018330D01*
X116235139Y-115135625D01*
X116323379Y-115250621D01*
X116438375Y-115338861D01*
X116572291Y-115394330D01*
X116716000Y-115413250D01*
X116859709Y-115394330D01*
X116993625Y-115338861D01*
X117108621Y-115250621D01*
X117196861Y-115135625D01*
X117252330Y-115001709D01*
X117271250Y-114858000D01*
X117252330Y-114714291D01*
X117196861Y-114580375D01*
X117108621Y-114465379D01*
X117099058Y-114458041D01*
X117064403Y-114407616D01*
X117066006Y-114346452D01*
X117103254Y-114297911D01*
X117159327Y-114280500D01*
X121758390Y-114280500D01*
X121816581Y-114299407D01*
X121852545Y-114348907D01*
X121856543Y-114392422D01*
X121844750Y-114481999D01*
X121844750Y-114482000D01*
X121863669Y-114625708D01*
X121863670Y-114625709D01*
X121881813Y-114669512D01*
X121919139Y-114759625D01*
X122007379Y-114874621D01*
X122122375Y-114962861D01*
X122256291Y-115018330D01*
X122400000Y-115037250D01*
X122543709Y-115018330D01*
X122677625Y-114962861D01*
X122792621Y-114874621D01*
X122867471Y-114777074D01*
X122917892Y-114742421D01*
X122979056Y-114744022D01*
X123016014Y-114767340D01*
X124098271Y-115849597D01*
X124126048Y-115904114D01*
X124126420Y-115932522D01*
X124121750Y-115967997D01*
X124121750Y-115968000D01*
X124140669Y-116111708D01*
X124140670Y-116111709D01*
X124194605Y-116241922D01*
X124199405Y-116302919D01*
X124167436Y-116355088D01*
X124110908Y-116378502D01*
X124051413Y-116364218D01*
X124033137Y-116349811D01*
X123565268Y-115881942D01*
X123559434Y-115875574D01*
X123534456Y-115845806D01*
X123500795Y-115826372D01*
X123493512Y-115821732D01*
X123461685Y-115799446D01*
X123461679Y-115799443D01*
X123460224Y-115799054D01*
X123436348Y-115789164D01*
X123435045Y-115788411D01*
X123396779Y-115781664D01*
X123388350Y-115779795D01*
X123363448Y-115773123D01*
X123350807Y-115769736D01*
X123350806Y-115769736D01*
X123350805Y-115769736D01*
X123312095Y-115773123D01*
X123303466Y-115773500D01*
X115894534Y-115773500D01*
X115885905Y-115773123D01*
X115847194Y-115769736D01*
X115847187Y-115769736D01*
X115809649Y-115779794D01*
X115801223Y-115781662D01*
X115762960Y-115788410D01*
X115762948Y-115788414D01*
X115761640Y-115789170D01*
X115737786Y-115799051D01*
X115736324Y-115799442D01*
X115736317Y-115799445D01*
X115736316Y-115799446D01*
X115704475Y-115821740D01*
X115697205Y-115826371D01*
X115663545Y-115845805D01*
X115638569Y-115875570D01*
X115632736Y-115881935D01*
X115143170Y-116371503D01*
X115088653Y-116399281D01*
X115073166Y-116400500D01*
X114001933Y-116400500D01*
X113943742Y-116381593D01*
X113907778Y-116332093D01*
X113907778Y-116270907D01*
X113910470Y-116263613D01*
X113913330Y-116256709D01*
X113932250Y-116113000D01*
X113913330Y-115969291D01*
X113857861Y-115835375D01*
X113769621Y-115720379D01*
X113654625Y-115632139D01*
X113654621Y-115632137D01*
X113520709Y-115576670D01*
X113520708Y-115576669D01*
X113377000Y-115557750D01*
X113233291Y-115576669D01*
X113233290Y-115576670D01*
X113099378Y-115632137D01*
X113099374Y-115632139D01*
X112984381Y-115720377D01*
X112984377Y-115720381D01*
X112896139Y-115835374D01*
X112896137Y-115835378D01*
X112840670Y-115969290D01*
X112840669Y-115969291D01*
X112821750Y-116112999D01*
X112821750Y-116113000D01*
X112840669Y-116256708D01*
X112840670Y-116256709D01*
X112843530Y-116263613D01*
X112848332Y-116324610D01*
X112816364Y-116376779D01*
X112759836Y-116400195D01*
X112752067Y-116400500D01*
X110197834Y-116400500D01*
X110139643Y-116381593D01*
X110127830Y-116371504D01*
X106795728Y-113039402D01*
X106767951Y-112984885D01*
X106767579Y-112956474D01*
X106769185Y-112944277D01*
X106772250Y-112921000D01*
X106753330Y-112777291D01*
X106697861Y-112643375D01*
X106609621Y-112528379D01*
X106494625Y-112440139D01*
X106494621Y-112440137D01*
X106360709Y-112384670D01*
X106360708Y-112384669D01*
X106217000Y-112365750D01*
X106073291Y-112384669D01*
X106073290Y-112384670D01*
X105939378Y-112440137D01*
X105939374Y-112440139D01*
X105824381Y-112528377D01*
X105824377Y-112528381D01*
X105736139Y-112643374D01*
X105736137Y-112643378D01*
X105680670Y-112777290D01*
X105680669Y-112777291D01*
X105661750Y-112920999D01*
X105661750Y-112921000D01*
X100500000Y-112921000D01*
X100500000Y-110600000D01*
X124606750Y-110600000D01*
X124625669Y-110743708D01*
X124625670Y-110743709D01*
X124681139Y-110877625D01*
X124769379Y-110992621D01*
X124884375Y-111080861D01*
X125018291Y-111136330D01*
X125114983Y-111149060D01*
X125170208Y-111175401D01*
X125199403Y-111229172D01*
X125191417Y-111289834D01*
X125180603Y-111307481D01*
X125178379Y-111310378D01*
X125178379Y-111310379D01*
X125176852Y-111312369D01*
X125090139Y-111425374D01*
X125090137Y-111425378D01*
X125034670Y-111559290D01*
X125034669Y-111559291D01*
X125015750Y-111702999D01*
X125015750Y-111703000D01*
X125034669Y-111846708D01*
X125034670Y-111846709D01*
X125080216Y-111956670D01*
X125090139Y-111980625D01*
X125178379Y-112095621D01*
X125293375Y-112183861D01*
X125427291Y-112239330D01*
X125571000Y-112258250D01*
X125714709Y-112239330D01*
X125848625Y-112183861D01*
X125848625Y-112183860D01*
X125848774Y-112183799D01*
X125909771Y-112178998D01*
X125958167Y-112208657D01*
X125958792Y-112208033D01*
X125961391Y-112210632D01*
X125961939Y-112210968D01*
X125962842Y-112212083D01*
X125963375Y-112212616D01*
X125963379Y-112212621D01*
X126078375Y-112300861D01*
X126212291Y-112356330D01*
X126356000Y-112375250D01*
X126499709Y-112356330D01*
X126633625Y-112300861D01*
X126748621Y-112212621D01*
X126836861Y-112097625D01*
X126892330Y-111963709D01*
X126911250Y-111820000D01*
X126892330Y-111676291D01*
X126836861Y-111542375D01*
X126748621Y-111427379D01*
X126633625Y-111339139D01*
X126633621Y-111339137D01*
X126499709Y-111283670D01*
X126499708Y-111283669D01*
X126356000Y-111264750D01*
X126212291Y-111283669D01*
X126212290Y-111283670D01*
X126078226Y-111339200D01*
X126017229Y-111344000D01*
X125968837Y-111314345D01*
X125968213Y-111314970D01*
X125965611Y-111312369D01*
X125965060Y-111312031D01*
X125964151Y-111310909D01*
X125963625Y-111310382D01*
X125848625Y-111222139D01*
X125848621Y-111222137D01*
X125787944Y-111197004D01*
X125714709Y-111166670D01*
X125700384Y-111164784D01*
X125618015Y-111153939D01*
X125562790Y-111127597D01*
X125561380Y-111125000D01*
X131210750Y-111125000D01*
X131229669Y-111268708D01*
X131229670Y-111268709D01*
X131277383Y-111383902D01*
X131285139Y-111402625D01*
X131373379Y-111517621D01*
X131488375Y-111605861D01*
X131622291Y-111661330D01*
X131766000Y-111680250D01*
X131909709Y-111661330D01*
X132043625Y-111605861D01*
X132158621Y-111517621D01*
X132246861Y-111402625D01*
X132302330Y-111268709D01*
X132321250Y-111125000D01*
X132302330Y-110981291D01*
X132246861Y-110847375D01*
X132158621Y-110732379D01*
X132043625Y-110644139D01*
X132043621Y-110644137D01*
X131909709Y-110588670D01*
X131909708Y-110588669D01*
X131766000Y-110569750D01*
X131622291Y-110588669D01*
X131622290Y-110588670D01*
X131488378Y-110644137D01*
X131488374Y-110644139D01*
X131373381Y-110732377D01*
X131373377Y-110732381D01*
X131285139Y-110847374D01*
X131285137Y-110847378D01*
X131229670Y-110981290D01*
X131229669Y-110981291D01*
X131210750Y-111124999D01*
X131210750Y-111125000D01*
X125561380Y-111125000D01*
X125533596Y-111073826D01*
X125541583Y-111013164D01*
X125552397Y-110995518D01*
X125554618Y-110992622D01*
X125554621Y-110992621D01*
X125642861Y-110877625D01*
X125698330Y-110743709D01*
X125717250Y-110600000D01*
X125713385Y-110570644D01*
X125724535Y-110510485D01*
X125768916Y-110468368D01*
X125829578Y-110460381D01*
X125883349Y-110489575D01*
X125903002Y-110519838D01*
X125921139Y-110563625D01*
X126009379Y-110678621D01*
X126124375Y-110766861D01*
X126258291Y-110822330D01*
X126402000Y-110841250D01*
X126545709Y-110822330D01*
X126679625Y-110766861D01*
X126794621Y-110678621D01*
X126882861Y-110563625D01*
X126938330Y-110429709D01*
X126957250Y-110286000D01*
X126938330Y-110142291D01*
X126882861Y-110008375D01*
X126794621Y-109893379D01*
X126679625Y-109805139D01*
X126679621Y-109805137D01*
X126545709Y-109749670D01*
X126545708Y-109749669D01*
X126402000Y-109730750D01*
X126258291Y-109749669D01*
X126258290Y-109749670D01*
X126124378Y-109805137D01*
X126124374Y-109805139D01*
X126009381Y-109893377D01*
X126009377Y-109893381D01*
X125921139Y-110008374D01*
X125921137Y-110008378D01*
X125865670Y-110142290D01*
X125865669Y-110142291D01*
X125846750Y-110285999D01*
X125846750Y-110286002D01*
X125850614Y-110315355D01*
X125839463Y-110375516D01*
X125795080Y-110417632D01*
X125734418Y-110425618D01*
X125680648Y-110396422D01*
X125660998Y-110366164D01*
X125642861Y-110322375D01*
X125554621Y-110207379D01*
X125439625Y-110119139D01*
X125439621Y-110119137D01*
X125305709Y-110063670D01*
X125305708Y-110063669D01*
X125162000Y-110044750D01*
X125018291Y-110063669D01*
X125018290Y-110063670D01*
X124884378Y-110119137D01*
X124884374Y-110119139D01*
X124769381Y-110207377D01*
X124769377Y-110207381D01*
X124681139Y-110322374D01*
X124681137Y-110322378D01*
X124625670Y-110456290D01*
X124625669Y-110456291D01*
X124606750Y-110599999D01*
X124606750Y-110600000D01*
X100500000Y-110600000D01*
X100500000Y-109000000D01*
X103794750Y-109000000D01*
X103813669Y-109143708D01*
X103813670Y-109143709D01*
X103847083Y-109224378D01*
X103869139Y-109277625D01*
X103957379Y-109392621D01*
X104072375Y-109480861D01*
X104206291Y-109536330D01*
X104350000Y-109555250D01*
X104493709Y-109536330D01*
X104576590Y-109502000D01*
X115720750Y-109502000D01*
X115739669Y-109645708D01*
X115739670Y-109645709D01*
X115774894Y-109730750D01*
X115795139Y-109779625D01*
X115883379Y-109894621D01*
X115998375Y-109982861D01*
X116132291Y-110038330D01*
X116276000Y-110057250D01*
X116419709Y-110038330D01*
X116553625Y-109982861D01*
X116668621Y-109894621D01*
X116756861Y-109779625D01*
X116812330Y-109645709D01*
X116831250Y-109502000D01*
X116812330Y-109358291D01*
X116756861Y-109224375D01*
X116668621Y-109109379D01*
X116553625Y-109021139D01*
X116553621Y-109021137D01*
X116419709Y-108965670D01*
X116419708Y-108965669D01*
X116276000Y-108946750D01*
X116132291Y-108965669D01*
X116132290Y-108965670D01*
X115998378Y-109021137D01*
X115998374Y-109021139D01*
X115883381Y-109109377D01*
X115883377Y-109109381D01*
X115795139Y-109224374D01*
X115795137Y-109224378D01*
X115739670Y-109358290D01*
X115739669Y-109358291D01*
X115720750Y-109501999D01*
X115720750Y-109502000D01*
X104576590Y-109502000D01*
X104627625Y-109480861D01*
X104742621Y-109392621D01*
X104830861Y-109277625D01*
X104886330Y-109143709D01*
X104905250Y-109000000D01*
X104898206Y-108946500D01*
X104886330Y-108856291D01*
X104830861Y-108722375D01*
X104742621Y-108607379D01*
X104627625Y-108519139D01*
X104627621Y-108519137D01*
X104493709Y-108463670D01*
X104493708Y-108463669D01*
X104350000Y-108444750D01*
X104206291Y-108463669D01*
X104206290Y-108463670D01*
X104072378Y-108519137D01*
X104072374Y-108519139D01*
X103957381Y-108607377D01*
X103957377Y-108607381D01*
X103869139Y-108722374D01*
X103869137Y-108722378D01*
X103813670Y-108856290D01*
X103813669Y-108856291D01*
X103794750Y-108999999D01*
X103794750Y-109000000D01*
X100500000Y-109000000D01*
X100500000Y-108298000D01*
X111326750Y-108298000D01*
X111345669Y-108441708D01*
X111345670Y-108441709D01*
X111401139Y-108575625D01*
X111489379Y-108690621D01*
X111604375Y-108778861D01*
X111738291Y-108834330D01*
X111882000Y-108853250D01*
X112025709Y-108834330D01*
X112159625Y-108778861D01*
X112274621Y-108690621D01*
X112328043Y-108621000D01*
X118435750Y-108621000D01*
X118454669Y-108764708D01*
X118454670Y-108764709D01*
X118509991Y-108898269D01*
X118510139Y-108898625D01*
X118598379Y-109013621D01*
X118713375Y-109101861D01*
X118847291Y-109157330D01*
X118991000Y-109176250D01*
X119134709Y-109157330D01*
X119268625Y-109101861D01*
X119383621Y-109013621D01*
X119405404Y-108985233D01*
X119455828Y-108950577D01*
X119483946Y-108946500D01*
X123668466Y-108946500D01*
X123677094Y-108946876D01*
X123715807Y-108950264D01*
X123753354Y-108940202D01*
X123761784Y-108938334D01*
X123800045Y-108931588D01*
X123801345Y-108930838D01*
X123825236Y-108920942D01*
X123825464Y-108920880D01*
X123826684Y-108920554D01*
X123858533Y-108898251D01*
X123865779Y-108893635D01*
X123899455Y-108874194D01*
X123924443Y-108844413D01*
X123930254Y-108838070D01*
X124527598Y-108240726D01*
X124582113Y-108212951D01*
X124610523Y-108212579D01*
X124646000Y-108217250D01*
X124789709Y-108198330D01*
X124923625Y-108142861D01*
X125038621Y-108054621D01*
X125126861Y-107939625D01*
X125182330Y-107805709D01*
X125201250Y-107662000D01*
X125190799Y-107582622D01*
X125182330Y-107518291D01*
X125126861Y-107384375D01*
X125038621Y-107269379D01*
X124923625Y-107181139D01*
X124923621Y-107181137D01*
X124789709Y-107125670D01*
X124789708Y-107125669D01*
X124646000Y-107106750D01*
X124502291Y-107125669D01*
X124502290Y-107125670D01*
X124368378Y-107181137D01*
X124368374Y-107181139D01*
X124253381Y-107269377D01*
X124253377Y-107269381D01*
X124165139Y-107384374D01*
X124165137Y-107384378D01*
X124109670Y-107518290D01*
X124109669Y-107518291D01*
X124090750Y-107661999D01*
X124090750Y-107662001D01*
X124095420Y-107697476D01*
X124084270Y-107757636D01*
X124067271Y-107780400D01*
X123581170Y-108266503D01*
X123526653Y-108294281D01*
X123511166Y-108295500D01*
X119483946Y-108295500D01*
X119425755Y-108276593D01*
X119405404Y-108256767D01*
X119383625Y-108228384D01*
X119383624Y-108228383D01*
X119383621Y-108228379D01*
X119268625Y-108140139D01*
X119268621Y-108140137D01*
X119134709Y-108084670D01*
X119134708Y-108084669D01*
X118991000Y-108065750D01*
X118847291Y-108084669D01*
X118847290Y-108084670D01*
X118713378Y-108140137D01*
X118713374Y-108140139D01*
X118598381Y-108228377D01*
X118598377Y-108228381D01*
X118510139Y-108343374D01*
X118510137Y-108343378D01*
X118454670Y-108477290D01*
X118454669Y-108477291D01*
X118435750Y-108620999D01*
X118435750Y-108621000D01*
X112328043Y-108621000D01*
X112362861Y-108575625D01*
X112418330Y-108441709D01*
X112437250Y-108298000D01*
X112436760Y-108294281D01*
X112418330Y-108154291D01*
X112362861Y-108020375D01*
X112274621Y-107905379D01*
X112159625Y-107817139D01*
X112159621Y-107817137D01*
X112025709Y-107761670D01*
X112025708Y-107761669D01*
X111882000Y-107742750D01*
X111738291Y-107761669D01*
X111738290Y-107761670D01*
X111604378Y-107817137D01*
X111604374Y-107817139D01*
X111489381Y-107905377D01*
X111489377Y-107905381D01*
X111401139Y-108020374D01*
X111401137Y-108020378D01*
X111345670Y-108154290D01*
X111345669Y-108154291D01*
X111326750Y-108297999D01*
X111326750Y-108298000D01*
X100500000Y-108298000D01*
X100500000Y-107190000D01*
X117851750Y-107190000D01*
X117870669Y-107333708D01*
X117870670Y-107333709D01*
X117926139Y-107467625D01*
X118014379Y-107582621D01*
X118129375Y-107670861D01*
X118263291Y-107726330D01*
X118407000Y-107745250D01*
X118550709Y-107726330D01*
X118684625Y-107670861D01*
X118799621Y-107582621D01*
X118887861Y-107467625D01*
X118943330Y-107333709D01*
X118962250Y-107190000D01*
X118961083Y-107181139D01*
X118943330Y-107046291D01*
X118887861Y-106912375D01*
X118799621Y-106797379D01*
X118684625Y-106709139D01*
X118684621Y-106709137D01*
X118550709Y-106653670D01*
X118550708Y-106653669D01*
X118407000Y-106634750D01*
X118263291Y-106653669D01*
X118263290Y-106653670D01*
X118129378Y-106709137D01*
X118129374Y-106709139D01*
X118014381Y-106797377D01*
X118014377Y-106797381D01*
X117926139Y-106912374D01*
X117926137Y-106912378D01*
X117870670Y-107046290D01*
X117870669Y-107046291D01*
X117851750Y-107189999D01*
X117851750Y-107190000D01*
X100500000Y-107190000D01*
X100500000Y-102881185D01*
X100999500Y-102881185D01*
X101038603Y-103140609D01*
X101038605Y-103140619D01*
X101115937Y-103391325D01*
X101220904Y-103609290D01*
X101229772Y-103627704D01*
X101377567Y-103844479D01*
X101377570Y-103844482D01*
X101377572Y-103844485D01*
X101556017Y-104036803D01*
X101556029Y-104036814D01*
X101761134Y-104200379D01*
X101761143Y-104200386D01*
X101761147Y-104200388D01*
X101761148Y-104200389D01*
X101988344Y-104331561D01*
X101988348Y-104331563D01*
X101988357Y-104331568D01*
X102082072Y-104368348D01*
X102232580Y-104427419D01*
X102232583Y-104427419D01*
X102232584Y-104427420D01*
X102488370Y-104485802D01*
X102553748Y-104490701D01*
X102684498Y-104500500D01*
X102684506Y-104500500D01*
X102815502Y-104500500D01*
X102936193Y-104491455D01*
X103011630Y-104485802D01*
X103267416Y-104427420D01*
X103511643Y-104331568D01*
X103566320Y-104300000D01*
X115944750Y-104300000D01*
X115963669Y-104443708D01*
X115963670Y-104443709D01*
X116019139Y-104577625D01*
X116107379Y-104692621D01*
X116107383Y-104692624D01*
X116107384Y-104692625D01*
X116170683Y-104741196D01*
X116205339Y-104791620D01*
X116203738Y-104852785D01*
X116193701Y-104873260D01*
X116173023Y-104905436D01*
X116173022Y-104905438D01*
X116173022Y-104905439D01*
X116166656Y-104927119D01*
X116134500Y-105036631D01*
X116134500Y-105173368D01*
X116167669Y-105286330D01*
X116173022Y-105304561D01*
X116246945Y-105419589D01*
X116350282Y-105509130D01*
X116350283Y-105509130D01*
X116350284Y-105509131D01*
X116474654Y-105565930D01*
X116474657Y-105565930D01*
X116474658Y-105565931D01*
X116474659Y-105565931D01*
X116474663Y-105565932D01*
X116575984Y-105580500D01*
X116575989Y-105580500D01*
X116644016Y-105580500D01*
X116745336Y-105565932D01*
X116745337Y-105565931D01*
X116745342Y-105565931D01*
X116745343Y-105565930D01*
X116745345Y-105565930D01*
X116807530Y-105537530D01*
X116869718Y-105509130D01*
X116973055Y-105419589D01*
X117046978Y-105304561D01*
X117085500Y-105173367D01*
X117085500Y-105036633D01*
X117046978Y-104905439D01*
X116973055Y-104790411D01*
X116950167Y-104770578D01*
X116937758Y-104750000D01*
X121094750Y-104750000D01*
X121113669Y-104893708D01*
X121113670Y-104893709D01*
X121166965Y-105022378D01*
X121169139Y-105027625D01*
X121257379Y-105142621D01*
X121372375Y-105230861D01*
X121506291Y-105286330D01*
X121650000Y-105305250D01*
X121793709Y-105286330D01*
X121833839Y-105269707D01*
X121894833Y-105264907D01*
X121947002Y-105296876D01*
X121955006Y-105307649D01*
X122026943Y-105419587D01*
X122026944Y-105419588D01*
X122026945Y-105419589D01*
X122130282Y-105509130D01*
X122130283Y-105509130D01*
X122130284Y-105509131D01*
X122254654Y-105565930D01*
X122254657Y-105565930D01*
X122254658Y-105565931D01*
X122254659Y-105565931D01*
X122254663Y-105565932D01*
X122355984Y-105580500D01*
X122355989Y-105580500D01*
X122424016Y-105580500D01*
X122525336Y-105565932D01*
X122525337Y-105565931D01*
X122525342Y-105565931D01*
X122525343Y-105565930D01*
X122525345Y-105565930D01*
X122587530Y-105537530D01*
X122649718Y-105509130D01*
X122753055Y-105419589D01*
X122826978Y-105304561D01*
X122865500Y-105173367D01*
X122865500Y-105036633D01*
X122826978Y-104905439D01*
X122753055Y-104790411D01*
X122706418Y-104750000D01*
X125394750Y-104750000D01*
X125413669Y-104893708D01*
X125413670Y-104893709D01*
X125466965Y-105022378D01*
X125469139Y-105027625D01*
X125469141Y-105027628D01*
X125469142Y-105027629D01*
X125497976Y-105065207D01*
X125518400Y-105122883D01*
X125515063Y-105151087D01*
X125513670Y-105156284D01*
X125494750Y-105299999D01*
X125494750Y-105300000D01*
X125513669Y-105443708D01*
X125513670Y-105443709D01*
X125569137Y-105577621D01*
X125569142Y-105577630D01*
X125592302Y-105607812D01*
X125612727Y-105665488D01*
X125605226Y-105705964D01*
X125563669Y-105806293D01*
X125544750Y-105949999D01*
X125544750Y-105950000D01*
X125563669Y-106093708D01*
X125563670Y-106093709D01*
X125619139Y-106227625D01*
X125707379Y-106342621D01*
X125822375Y-106430861D01*
X125956291Y-106486330D01*
X126100000Y-106505250D01*
X126243709Y-106486330D01*
X126377625Y-106430861D01*
X126492621Y-106342621D01*
X126580861Y-106227625D01*
X126636330Y-106093709D01*
X126655250Y-105950000D01*
X126636330Y-105806291D01*
X126580861Y-105672375D01*
X126580858Y-105672371D01*
X126580857Y-105672369D01*
X126557697Y-105642187D01*
X126537272Y-105584512D01*
X126544773Y-105544037D01*
X126586330Y-105443709D01*
X126605250Y-105300000D01*
X126586330Y-105156291D01*
X126530861Y-105022375D01*
X126530858Y-105022371D01*
X126530857Y-105022369D01*
X126502024Y-104984794D01*
X126481599Y-104927119D01*
X126484938Y-104898903D01*
X126486327Y-104893714D01*
X126486330Y-104893709D01*
X126505250Y-104750000D01*
X126486330Y-104606291D01*
X126430861Y-104472375D01*
X126342621Y-104357379D01*
X126227625Y-104269139D01*
X126227621Y-104269137D01*
X126093709Y-104213670D01*
X126093708Y-104213669D01*
X125950000Y-104194750D01*
X125806291Y-104213669D01*
X125806290Y-104213670D01*
X125672378Y-104269137D01*
X125672374Y-104269139D01*
X125557381Y-104357377D01*
X125557377Y-104357381D01*
X125469139Y-104472374D01*
X125469137Y-104472378D01*
X125413670Y-104606290D01*
X125413669Y-104606291D01*
X125394750Y-104749999D01*
X125394750Y-104750000D01*
X122706418Y-104750000D01*
X122649718Y-104700870D01*
X122649716Y-104700869D01*
X122649715Y-104700868D01*
X122525345Y-104644069D01*
X122525336Y-104644067D01*
X122424016Y-104629500D01*
X122424011Y-104629500D01*
X122355989Y-104629500D01*
X122355984Y-104629500D01*
X122281061Y-104640272D01*
X122220772Y-104629839D01*
X122178129Y-104585961D01*
X122175508Y-104580165D01*
X122174454Y-104577621D01*
X122130861Y-104472375D01*
X122042621Y-104357379D01*
X121927625Y-104269139D01*
X121927621Y-104269137D01*
X121793709Y-104213670D01*
X121793708Y-104213669D01*
X121650000Y-104194750D01*
X121506291Y-104213669D01*
X121506290Y-104213670D01*
X121372378Y-104269137D01*
X121372374Y-104269139D01*
X121257381Y-104357377D01*
X121257377Y-104357381D01*
X121169139Y-104472374D01*
X121169137Y-104472378D01*
X121113670Y-104606290D01*
X121113669Y-104606291D01*
X121094750Y-104749999D01*
X121094750Y-104750000D01*
X116937758Y-104750000D01*
X116918572Y-104718184D01*
X116923807Y-104657223D01*
X116936458Y-104635492D01*
X116958865Y-104606290D01*
X116980861Y-104577625D01*
X117036330Y-104443709D01*
X117042942Y-104393481D01*
X117069283Y-104338258D01*
X117123053Y-104309063D01*
X117147511Y-104308423D01*
X117147511Y-104308250D01*
X117154000Y-104308250D01*
X117297709Y-104289330D01*
X117431625Y-104233861D01*
X117546621Y-104145621D01*
X117634861Y-104030625D01*
X117690330Y-103896709D01*
X117709250Y-103753000D01*
X117690330Y-103609291D01*
X117634861Y-103475375D01*
X117546621Y-103360379D01*
X117431625Y-103272139D01*
X117431621Y-103272137D01*
X117297709Y-103216670D01*
X117297708Y-103216669D01*
X117154000Y-103197750D01*
X117010291Y-103216669D01*
X117010290Y-103216670D01*
X116876378Y-103272137D01*
X116876374Y-103272139D01*
X116761381Y-103360377D01*
X116761377Y-103360381D01*
X116673139Y-103475374D01*
X116673137Y-103475378D01*
X116617670Y-103609290D01*
X116611057Y-103659518D01*
X116584715Y-103714742D01*
X116530944Y-103743936D01*
X116506488Y-103744577D01*
X116506488Y-103744750D01*
X116500000Y-103744750D01*
X116356291Y-103763669D01*
X116356290Y-103763670D01*
X116222378Y-103819137D01*
X116222374Y-103819139D01*
X116107381Y-103907377D01*
X116107377Y-103907381D01*
X116019139Y-104022374D01*
X116019137Y-104022378D01*
X115963670Y-104156290D01*
X115963669Y-104156291D01*
X115944750Y-104299999D01*
X115944750Y-104300000D01*
X103566320Y-104300000D01*
X103738857Y-104200386D01*
X103943981Y-104036805D01*
X104122433Y-103844479D01*
X104270228Y-103627704D01*
X104384063Y-103391323D01*
X104461396Y-103140615D01*
X104482139Y-103003000D01*
X111815750Y-103003000D01*
X111834669Y-103146708D01*
X111834670Y-103146709D01*
X111855811Y-103197750D01*
X111890139Y-103280625D01*
X111978379Y-103395621D01*
X112093375Y-103483861D01*
X112227291Y-103539330D01*
X112371000Y-103558250D01*
X112514709Y-103539330D01*
X112648625Y-103483861D01*
X112763621Y-103395621D01*
X112851861Y-103280625D01*
X112907330Y-103146709D01*
X112926250Y-103003000D01*
X112910212Y-102881185D01*
X131499500Y-102881185D01*
X131538603Y-103140609D01*
X131538605Y-103140619D01*
X131615937Y-103391325D01*
X131720904Y-103609290D01*
X131729772Y-103627704D01*
X131877567Y-103844479D01*
X131877570Y-103844482D01*
X131877572Y-103844485D01*
X132056017Y-104036803D01*
X132056029Y-104036814D01*
X132261134Y-104200379D01*
X132261143Y-104200386D01*
X132261147Y-104200388D01*
X132261148Y-104200389D01*
X132488344Y-104331561D01*
X132488348Y-104331563D01*
X132488357Y-104331568D01*
X132582072Y-104368348D01*
X132732580Y-104427419D01*
X132732583Y-104427419D01*
X132732584Y-104427420D01*
X132988370Y-104485802D01*
X133053748Y-104490701D01*
X133184498Y-104500500D01*
X133184506Y-104500500D01*
X133315502Y-104500500D01*
X133436193Y-104491455D01*
X133511630Y-104485802D01*
X133767416Y-104427420D01*
X134011643Y-104331568D01*
X134238857Y-104200386D01*
X134443981Y-104036805D01*
X134622433Y-103844479D01*
X134770228Y-103627704D01*
X134884063Y-103391323D01*
X134961396Y-103140615D01*
X135000500Y-102881182D01*
X135000500Y-102618818D01*
X134961396Y-102359385D01*
X134884063Y-102108677D01*
X134883935Y-102108412D01*
X134770231Y-101872303D01*
X134770228Y-101872296D01*
X134622433Y-101655521D01*
X134533448Y-101559618D01*
X134443982Y-101463196D01*
X134443970Y-101463185D01*
X134238865Y-101299620D01*
X134238851Y-101299610D01*
X134011655Y-101168438D01*
X134011646Y-101168433D01*
X134011643Y-101168432D01*
X134011639Y-101168430D01*
X134011636Y-101168429D01*
X133767419Y-101072580D01*
X133511631Y-101014198D01*
X133511625Y-101014197D01*
X133315502Y-100999500D01*
X133315494Y-100999500D01*
X133184506Y-100999500D01*
X133184498Y-100999500D01*
X132988374Y-101014197D01*
X132988368Y-101014198D01*
X132732580Y-101072580D01*
X132488363Y-101168429D01*
X132488344Y-101168438D01*
X132261148Y-101299610D01*
X132261134Y-101299620D01*
X132056029Y-101463185D01*
X132056017Y-101463196D01*
X131877572Y-101655514D01*
X131877567Y-101655520D01*
X131877567Y-101655521D01*
X131729772Y-101872296D01*
X131729770Y-101872299D01*
X131729768Y-101872303D01*
X131615937Y-102108674D01*
X131538605Y-102359380D01*
X131538603Y-102359390D01*
X131499500Y-102618814D01*
X131499500Y-102881185D01*
X112910212Y-102881185D01*
X112907330Y-102859291D01*
X112851861Y-102725375D01*
X112763621Y-102610379D01*
X112648625Y-102522139D01*
X112648621Y-102522137D01*
X112514709Y-102466670D01*
X112514708Y-102466669D01*
X112371000Y-102447750D01*
X112227291Y-102466669D01*
X112227290Y-102466670D01*
X112093378Y-102522137D01*
X112093374Y-102522139D01*
X111978381Y-102610377D01*
X111978377Y-102610381D01*
X111890139Y-102725374D01*
X111890137Y-102725378D01*
X111834670Y-102859290D01*
X111834669Y-102859291D01*
X111815750Y-103002999D01*
X111815750Y-103003000D01*
X104482139Y-103003000D01*
X104500500Y-102881182D01*
X104500500Y-102618818D01*
X104461396Y-102359385D01*
X104384063Y-102108677D01*
X104383935Y-102108412D01*
X104270231Y-101872303D01*
X104270228Y-101872296D01*
X104122433Y-101655521D01*
X104033448Y-101559618D01*
X103943982Y-101463196D01*
X103943970Y-101463185D01*
X103738865Y-101299620D01*
X103738851Y-101299610D01*
X103511655Y-101168438D01*
X103511646Y-101168433D01*
X103511643Y-101168432D01*
X103511639Y-101168430D01*
X103511636Y-101168429D01*
X103267419Y-101072580D01*
X103011631Y-101014198D01*
X103011625Y-101014197D01*
X102815502Y-100999500D01*
X102815494Y-100999500D01*
X102684506Y-100999500D01*
X102684498Y-100999500D01*
X102488374Y-101014197D01*
X102488368Y-101014198D01*
X102232580Y-101072580D01*
X101988363Y-101168429D01*
X101988344Y-101168438D01*
X101761148Y-101299610D01*
X101761134Y-101299620D01*
X101556029Y-101463185D01*
X101556017Y-101463196D01*
X101377572Y-101655514D01*
X101377567Y-101655520D01*
X101377567Y-101655521D01*
X101229772Y-101872296D01*
X101229770Y-101872299D01*
X101229768Y-101872303D01*
X101115937Y-102108674D01*
X101038605Y-102359380D01*
X101038603Y-102359390D01*
X100999500Y-102618814D01*
X100999500Y-102881185D01*
X100500000Y-102881185D01*
X100500000Y-102012190D01*
X100507535Y-101974306D01*
X100565711Y-101833858D01*
X100570525Y-101823863D01*
X100575101Y-101815584D01*
X100711583Y-101568636D01*
X100717479Y-101559253D01*
X100886230Y-101321421D01*
X100893149Y-101312745D01*
X101087475Y-101095293D01*
X101095293Y-101087475D01*
X101312748Y-100893146D01*
X101321424Y-100886228D01*
X101559253Y-100717479D01*
X101568636Y-100711583D01*
X101823869Y-100570522D01*
X101833866Y-100565708D01*
X101974307Y-100507536D01*
X102012192Y-100500000D01*
X109321304Y-100500000D01*
X109379495Y-100518907D01*
G37*
%TD.AperFunction*%
%TD*%
M02*
