%TF.GenerationSoftware,KiCad,Pcbnew,7.0.11+dfsg-1build4*%
%TF.CreationDate,2026-09-27T03:20:39+03:00*%
%TF.ProjectId,rl_fc_f405,726c5f66-635f-4663-9430-352e6b696361,rev?*%
%TF.SameCoordinates,Original*%
%TF.FileFunction,Copper,L3,Inr*%
%TF.FilePolarity,Positive*%
%FSLAX46Y46*%
G04 Gerber Fmt 4.6, Leading zero omitted, Abs format (unit mm)*
G04 Created by KiCad (PCBNEW 7.0.11+dfsg-1build4) date 2026-09-27 03:20:39*
%MOMM*%
%LPD*%
G01*
G04 APERTURE LIST*
G04 Aperture macros list*
%AMRoundRect*
0 Rectangle with rounded corners*
0 $1 Rounding radius*
0 $2 $3 $4 $5 $6 $7 $8 $9 X,Y pos of 4 corners*
0 Add a 4 corners polygon primitive as box body*
4,1,4,$2,$3,$4,$5,$6,$7,$8,$9,$2,$3,0*
0 Add four circle primitives for the rounded corners*
1,1,$1+$1,$2,$3*
1,1,$1+$1,$4,$5*
1,1,$1+$1,$6,$7*
1,1,$1+$1,$8,$9*
0 Add four rect primitives between the rounded corners*
20,1,$1+$1,$2,$3,$4,$5,0*
20,1,$1+$1,$4,$5,$6,$7,0*
20,1,$1+$1,$6,$7,$8,$9,0*
20,1,$1+$1,$8,$9,$2,$3,0*%
G04 Aperture macros list end*
%TA.AperFunction,ComponentPad*%
%ADD10R,1.000000X1.000000*%
%TD*%
%TA.AperFunction,ComponentPad*%
%ADD11O,1.000000X1.000000*%
%TD*%
%TA.AperFunction,ComponentPad*%
%ADD12RoundRect,0.249999X-1.300001X-1.300001X1.300001X-1.300001X1.300001X1.300001X-1.300001X1.300001X0*%
%TD*%
%TA.AperFunction,ComponentPad*%
%ADD13C,3.100000*%
%TD*%
%TA.AperFunction,ComponentPad*%
%ADD14O,1.000000X2.100000*%
%TD*%
%TA.AperFunction,ComponentPad*%
%ADD15O,1.000000X1.800000*%
%TD*%
%TA.AperFunction,ComponentPad*%
%ADD16C,0.600000*%
%TD*%
%TA.AperFunction,ViaPad*%
%ADD17C,0.800000*%
%TD*%
%TA.AperFunction,ViaPad*%
%ADD18C,0.600000*%
%TD*%
%TA.AperFunction,ViaPad*%
%ADD19C,0.500000*%
%TD*%
%TA.AperFunction,Conductor*%
%ADD20C,0.400000*%
%TD*%
%TA.AperFunction,Conductor*%
%ADD21C,0.200000*%
%TD*%
%TA.AperFunction,Conductor*%
%ADD22C,0.150000*%
%TD*%
G04 APERTURE END LIST*
D10*
%TO.N,+3V3*%
%TO.C,J6*%
X134000000Y-121000000D03*
D11*
%TO.N,SWDIO*%
X134000000Y-122270000D03*
%TO.N,SWCLK*%
X134000000Y-123540000D03*
%TO.N,GND*%
X134000000Y-124810000D03*
%TD*%
D12*
%TO.N,VBAT*%
%TO.C,J1*%
X108500000Y-133000000D03*
D13*
%TO.N,GND*%
X114500000Y-133000000D03*
%TD*%
D14*
%TO.N,GND*%
%TO.C,J2*%
X123820000Y-105605000D03*
D15*
X123820000Y-101425000D03*
D14*
X115180000Y-105605000D03*
D15*
X115180000Y-101425000D03*
%TD*%
D16*
%TO.N,GND*%
%TO.C,U1*%
X104700000Y-120100000D03*
X105900000Y-120100000D03*
X107200000Y-120100000D03*
X108300000Y-120100000D03*
X104700000Y-118900000D03*
X105900000Y-118900000D03*
X107200000Y-118900000D03*
X108300000Y-118900000D03*
%TD*%
D17*
%TO.N,VBAT*%
X104247000Y-114924000D03*
D18*
%TO.N,GND*%
X112812000Y-104409000D03*
X121554000Y-125775000D03*
X109850000Y-106371000D03*
X118401000Y-109151000D03*
X117100000Y-107325000D03*
X119109000Y-119623000D03*
X117955000Y-124044000D03*
X113017000Y-114472000D03*
X102208000Y-114616000D03*
X121800000Y-107214000D03*
X134750000Y-129138000D03*
X131757000Y-111906000D03*
X125702000Y-103570000D03*
X113517000Y-118410000D03*
D19*
X126150000Y-104000000D03*
D18*
X106498000Y-123327000D03*
X112600000Y-102100000D03*
X128672000Y-114806000D03*
X121716000Y-128289000D03*
X113392000Y-110115000D03*
X127977000Y-110029000D03*
X115910000Y-107263000D03*
X123262000Y-107413000D03*
X103705000Y-109476000D03*
X114150000Y-101350000D03*
X124959000Y-123028000D03*
X107210000Y-115338000D03*
X106434000Y-104300000D03*
X125706000Y-127288000D03*
X111376000Y-104000000D03*
X132874000Y-116644000D03*
D19*
X129250000Y-104000000D03*
D18*
X119479000Y-104141000D03*
X109646000Y-109882000D03*
%TO.N,+5V*%
X104354000Y-126286000D03*
X112632000Y-129640000D03*
X128736000Y-112711000D03*
X109646000Y-101167000D03*
%TO.N,+3V3*%
X126100000Y-105950000D03*
X117854000Y-120564000D03*
X111882000Y-108298000D03*
X112371000Y-103003000D03*
X125950000Y-104750000D03*
X120398000Y-128668000D03*
X131766000Y-111125000D03*
X116276000Y-109502000D03*
X126939000Y-126882000D03*
X125135000Y-122004000D03*
X115116000Y-111643000D03*
X131261000Y-128353000D03*
X117100000Y-126002000D03*
X125162000Y-110600000D03*
X126050000Y-105300000D03*
X126356000Y-111820000D03*
X116103000Y-113020000D03*
X126402000Y-110286000D03*
X121195000Y-120396000D03*
X119909000Y-125129000D03*
X129271000Y-126033000D03*
%TO.N,VBAT_SENSE*%
X116716000Y-114858000D03*
X106135000Y-126893000D03*
%TO.N,/MCU/+3V3A*%
X127160000Y-123158000D03*
X114325000Y-121584000D03*
%TO.N,/MCU/NRST*%
X116086000Y-116606000D03*
%TO.N,/MCU/BOOT0*%
X119547000Y-113433000D03*
%TO.N,ESC_CURR*%
X115267000Y-129640000D03*
X113377000Y-116113000D03*
%TO.N,MOTOR3*%
X126401000Y-128726000D03*
X115087000Y-122499000D03*
%TO.N,IMU_CS*%
X118508000Y-125334000D03*
D19*
%TO.N,SPI1_SCK*%
X116100000Y-118500000D03*
X120600000Y-118850000D03*
%TO.N,SPI1_MISO*%
X117900000Y-118200000D03*
D18*
X119500000Y-125800000D03*
X116150000Y-123633000D03*
D19*
%TO.N,SPI1_MOSI*%
X120600000Y-118100000D03*
X120600000Y-117050000D03*
X116050000Y-117800000D03*
%TO.N,IMU_INT*%
X120050000Y-121000000D03*
D18*
%TO.N,UART3_TX*%
X124354000Y-112781000D03*
X122805000Y-120490000D03*
%TO.N,UART3_RX*%
X123844000Y-120572000D03*
X131053000Y-120784000D03*
%TO.N,UART1_TX*%
X124180000Y-116957000D03*
X106217000Y-112921000D03*
%TO.N,UART1_RX*%
X107320000Y-111895000D03*
X124677000Y-115968000D03*
%TO.N,USB_DM*%
X123385000Y-113580000D03*
%TO.N,USB_DP*%
X125571000Y-111703000D03*
%TO.N,SPI3_SCK*%
X125973000Y-123000000D03*
X123100000Y-112493000D03*
%TO.N,SPI3_MISO*%
X123343000Y-117547000D03*
%TO.N,SPI3_MOSI*%
X123722000Y-118752000D03*
%TO.N,FLASH_CS*%
X122400000Y-114482000D03*
%TO.N,I2C1_SCL*%
X124646000Y-107662000D03*
X118991000Y-108621000D03*
%TO.N,/Connectors/VBUS*%
X121650000Y-104750000D03*
X116500000Y-104300000D03*
%TO.N,/Connectors/USB_CONN_DP*%
X118407000Y-107190000D03*
%TO.N,/Connectors/USB_CONN_DM*%
X117154000Y-103753000D03*
%TD*%
D20*
%TO.N,+5V*%
X112632000Y-129640000D02*
X110631000Y-127639000D01*
X110631000Y-127639000D02*
X110631000Y-102152000D01*
X110631000Y-102152000D02*
X109646000Y-101167000D01*
D21*
%TO.N,VBAT_SENSE*%
X112776000Y-115871000D02*
X112776000Y-128858000D01*
X116716000Y-114858000D02*
X113789000Y-114858000D01*
X109444000Y-130203000D02*
X106135000Y-126893000D01*
X113188000Y-129271000D02*
X113188000Y-129920000D01*
X113188000Y-129920000D02*
X112906000Y-130203000D01*
X112776000Y-128858000D02*
X113188000Y-129271000D01*
X113789000Y-114858000D02*
X112776000Y-115871000D01*
X112906000Y-130203000D02*
X109444000Y-130203000D01*
%TO.N,ESC_CURR*%
X114098000Y-118641000D02*
X114098000Y-116835000D01*
X115267000Y-129640000D02*
X113772000Y-128145000D01*
X113772000Y-118968000D02*
X114098000Y-118641000D01*
X113772000Y-128145000D02*
X113772000Y-118968000D01*
X114098000Y-116835000D02*
X113377000Y-116113000D01*
D22*
%TO.N,UART3_TX*%
X123709000Y-116426000D02*
X124418000Y-116426000D01*
X125763000Y-123506000D02*
X126183000Y-123506000D01*
X126183000Y-123506000D02*
X126480000Y-123210000D01*
X126480000Y-123210000D02*
X126480000Y-114907000D01*
X125691000Y-117699000D02*
X125691000Y-122565000D01*
X125466000Y-122790000D02*
X125466000Y-123210000D01*
X125691000Y-122565000D02*
X125466000Y-122790000D01*
X126480000Y-114907000D02*
X124354000Y-112781000D01*
X125466000Y-123210000D02*
X125763000Y-123506000D01*
X122805000Y-120490000D02*
X122805000Y-117330000D01*
X124418000Y-116426000D02*
X125691000Y-117699000D01*
X122805000Y-117330000D02*
X123709000Y-116426000D01*
%TO.N,SPI3_SCK*%
X125973000Y-115367000D02*
X125973000Y-123000000D01*
X123100000Y-112493000D02*
X125973000Y-115367000D01*
%TD*%
%TA.AperFunction,Conductor*%
%TO.N,+3V3*%
G36*
X109379495Y-100518907D02*
G01*
X109415459Y-100568407D01*
X109415459Y-100629593D01*
X109379495Y-100679093D01*
X109370803Y-100684737D01*
X109368377Y-100686137D01*
X109253381Y-100774377D01*
X109253377Y-100774381D01*
X109165139Y-100889374D01*
X109165137Y-100889378D01*
X109109670Y-101023290D01*
X109109669Y-101023291D01*
X109090750Y-101166999D01*
X109090750Y-101167000D01*
X109109669Y-101310708D01*
X109109670Y-101310709D01*
X109165139Y-101444625D01*
X109253379Y-101559621D01*
X109368375Y-101647861D01*
X109502291Y-101703330D01*
X109518412Y-101705452D01*
X109573638Y-101731791D01*
X109575497Y-101733601D01*
X110151504Y-102309608D01*
X110179281Y-102364125D01*
X110180500Y-102379612D01*
X110180500Y-105763877D01*
X110161593Y-105822068D01*
X110112093Y-105858032D01*
X110050907Y-105858032D01*
X110043616Y-105855342D01*
X109993709Y-105834670D01*
X109993706Y-105834669D01*
X109993708Y-105834669D01*
X109850000Y-105815750D01*
X109706291Y-105834669D01*
X109706290Y-105834670D01*
X109572378Y-105890137D01*
X109572374Y-105890139D01*
X109457381Y-105978377D01*
X109457377Y-105978381D01*
X109369139Y-106093374D01*
X109369137Y-106093378D01*
X109313670Y-106227290D01*
X109313669Y-106227291D01*
X109294750Y-106370999D01*
X109294750Y-106371000D01*
X109313669Y-106514708D01*
X109313670Y-106514709D01*
X109365854Y-106640696D01*
X109369139Y-106648625D01*
X109457379Y-106763621D01*
X109572375Y-106851861D01*
X109706291Y-106907330D01*
X109850000Y-106926250D01*
X109993709Y-106907330D01*
X110043616Y-106886657D01*
X110104611Y-106881857D01*
X110156780Y-106913827D01*
X110180195Y-106970354D01*
X110180500Y-106978122D01*
X110180500Y-109397494D01*
X110161593Y-109455685D01*
X110112093Y-109491649D01*
X110050907Y-109491649D01*
X110021232Y-109476036D01*
X109923625Y-109401139D01*
X109923621Y-109401137D01*
X109789709Y-109345670D01*
X109789708Y-109345669D01*
X109646000Y-109326750D01*
X109502291Y-109345669D01*
X109502290Y-109345670D01*
X109368378Y-109401137D01*
X109368374Y-109401139D01*
X109253381Y-109489377D01*
X109253377Y-109489381D01*
X109165139Y-109604374D01*
X109165137Y-109604378D01*
X109109670Y-109738290D01*
X109109669Y-109738291D01*
X109090750Y-109881999D01*
X109090750Y-109882000D01*
X109109669Y-110025708D01*
X109109670Y-110025709D01*
X109146654Y-110114999D01*
X109165139Y-110159625D01*
X109253379Y-110274621D01*
X109368375Y-110362861D01*
X109502291Y-110418330D01*
X109646000Y-110437250D01*
X109789709Y-110418330D01*
X109923625Y-110362861D01*
X110021232Y-110287963D01*
X110078908Y-110267539D01*
X110137574Y-110284916D01*
X110174821Y-110333457D01*
X110180500Y-110366505D01*
X110180500Y-127608136D01*
X110179878Y-127619219D01*
X110175730Y-127656033D01*
X110175730Y-127656038D01*
X110186444Y-127712664D01*
X110187064Y-127716312D01*
X110195652Y-127773287D01*
X110197840Y-127780381D01*
X110197417Y-127780511D01*
X110198109Y-127782613D01*
X110198526Y-127782468D01*
X110200975Y-127789468D01*
X110227906Y-127840424D01*
X110229574Y-127843728D01*
X110254574Y-127895641D01*
X110258753Y-127901770D01*
X110258389Y-127902017D01*
X110259677Y-127903831D01*
X110260030Y-127903571D01*
X110264434Y-127909538D01*
X110305200Y-127950305D01*
X110307769Y-127952972D01*
X110346944Y-127995194D01*
X110352743Y-127999818D01*
X110352467Y-128000163D01*
X110363600Y-128008704D01*
X112038392Y-129683496D01*
X112066169Y-129738013D01*
X112056598Y-129798445D01*
X112013333Y-129841710D01*
X111968388Y-129852500D01*
X109630229Y-129852500D01*
X109572038Y-129833593D01*
X109560215Y-129823493D01*
X108418685Y-128681618D01*
X106717818Y-126980237D01*
X106690050Y-126925718D01*
X106689681Y-126897321D01*
X106690250Y-126893000D01*
X106671330Y-126749291D01*
X106615861Y-126615375D01*
X106527621Y-126500379D01*
X106412625Y-126412139D01*
X106412621Y-126412137D01*
X106278709Y-126356670D01*
X106278708Y-126356669D01*
X106135000Y-126337750D01*
X105991291Y-126356669D01*
X105991290Y-126356670D01*
X105857378Y-126412137D01*
X105857374Y-126412139D01*
X105742381Y-126500377D01*
X105742377Y-126500381D01*
X105654139Y-126615374D01*
X105654137Y-126615378D01*
X105598670Y-126749290D01*
X105598669Y-126749291D01*
X105579750Y-126892999D01*
X105579750Y-126893000D01*
X105598669Y-127036708D01*
X105598670Y-127036709D01*
X105654139Y-127170625D01*
X105742379Y-127285621D01*
X105857375Y-127373861D01*
X105991291Y-127429330D01*
X106135000Y-127448250D01*
X106135002Y-127448250D01*
X106139140Y-127447705D01*
X106199302Y-127458852D01*
X106222081Y-127475864D01*
X109163187Y-130417859D01*
X109176051Y-130433703D01*
X109182561Y-130443667D01*
X109182562Y-130443668D01*
X109182563Y-130443669D01*
X109186744Y-130446923D01*
X109206663Y-130462426D01*
X109215874Y-130470561D01*
X109216653Y-130471341D01*
X109232755Y-130482841D01*
X109236013Y-130485270D01*
X109259084Y-130503227D01*
X109274875Y-130515518D01*
X109281313Y-130519001D01*
X109287883Y-130522214D01*
X109287886Y-130522216D01*
X109335082Y-130536274D01*
X109338934Y-130537509D01*
X109385512Y-130553500D01*
X109385513Y-130553500D01*
X109392716Y-130554702D01*
X109399991Y-130555610D01*
X109399993Y-130555611D01*
X109399994Y-130555610D01*
X109399995Y-130555611D01*
X109449186Y-130553584D01*
X109453262Y-130553500D01*
X112859784Y-130553500D01*
X112879928Y-130555571D01*
X112880121Y-130555611D01*
X112891943Y-130558068D01*
X112918593Y-130554697D01*
X112921884Y-130554282D01*
X112934303Y-130553500D01*
X112935044Y-130553500D01*
X112954925Y-130550182D01*
X112958781Y-130549616D01*
X113007995Y-130543393D01*
X113007996Y-130543392D01*
X113007998Y-130543392D01*
X113014740Y-130541371D01*
X113021375Y-130539092D01*
X113021381Y-130539092D01*
X113065024Y-130515472D01*
X113068448Y-130513705D01*
X113112995Y-130491832D01*
X113112998Y-130491829D01*
X113118711Y-130487735D01*
X113124254Y-130483420D01*
X113124253Y-130483420D01*
X113124258Y-130483418D01*
X113157878Y-130446895D01*
X113160536Y-130444120D01*
X113403092Y-130200704D01*
X113419071Y-130187706D01*
X113428669Y-130181437D01*
X113447695Y-130156990D01*
X113455694Y-130147917D01*
X113456777Y-130146831D01*
X113468009Y-130131037D01*
X113470535Y-130127645D01*
X113475815Y-130120862D01*
X113500517Y-130089126D01*
X113500518Y-130089120D01*
X113504165Y-130082384D01*
X113507514Y-130075503D01*
X113520197Y-130032622D01*
X113521362Y-130028682D01*
X113522636Y-130024692D01*
X113538500Y-129978488D01*
X113538500Y-129978484D01*
X113538501Y-129978482D01*
X113539757Y-129970958D01*
X113540694Y-129963329D01*
X113538592Y-129914588D01*
X113538500Y-129910322D01*
X113538500Y-129317893D01*
X113540632Y-129297459D01*
X113543025Y-129286116D01*
X113539246Y-129255497D01*
X113538500Y-129243370D01*
X113538500Y-129241963D01*
X113538500Y-129241960D01*
X113535289Y-129222724D01*
X113534693Y-129218619D01*
X113528696Y-129170020D01*
X113528695Y-129170018D01*
X113528695Y-129170015D01*
X113526552Y-129162787D01*
X113524093Y-129155626D01*
X113524092Y-129155619D01*
X113500799Y-129112578D01*
X113498903Y-129108889D01*
X113477449Y-129064867D01*
X113477447Y-129064865D01*
X113473077Y-129058729D01*
X113468416Y-129052739D01*
X113444617Y-129030831D01*
X113432429Y-129019611D01*
X113429420Y-129016721D01*
X113209629Y-128796397D01*
X113155412Y-128742048D01*
X113127700Y-128687497D01*
X113126500Y-128672129D01*
X113126500Y-118992270D01*
X113145407Y-118934079D01*
X113194907Y-118898115D01*
X113256093Y-118898115D01*
X113263382Y-118900805D01*
X113360385Y-118940984D01*
X113406911Y-118980720D01*
X113421500Y-119032448D01*
X113421500Y-128098381D01*
X113419393Y-128118696D01*
X113416957Y-128130313D01*
X113420740Y-128160662D01*
X113421500Y-128172907D01*
X113421500Y-128174042D01*
X113424751Y-128193528D01*
X113425337Y-128197547D01*
X113431270Y-128245137D01*
X113431427Y-128246393D01*
X113433527Y-128253448D01*
X113435907Y-128260380D01*
X113459322Y-128303646D01*
X113461195Y-128307285D01*
X113482801Y-128351482D01*
X113487078Y-128357472D01*
X113491581Y-128363258D01*
X113527764Y-128396567D01*
X113530717Y-128399399D01*
X114684158Y-129552840D01*
X114711935Y-129607357D01*
X114712307Y-129635763D01*
X114711750Y-129639994D01*
X114711750Y-129640000D01*
X114730669Y-129783708D01*
X114730670Y-129783709D01*
X114783997Y-129912455D01*
X114786139Y-129917625D01*
X114874379Y-130032621D01*
X114989375Y-130120861D01*
X115123291Y-130176330D01*
X115267000Y-130195250D01*
X115410709Y-130176330D01*
X115544625Y-130120861D01*
X115659621Y-130032621D01*
X115747861Y-129917625D01*
X115803330Y-129783709D01*
X115822250Y-129640000D01*
X115803330Y-129496291D01*
X115747861Y-129362375D01*
X115659621Y-129247379D01*
X115544625Y-129159139D01*
X115544621Y-129159137D01*
X115410709Y-129103670D01*
X115410708Y-129103669D01*
X115267000Y-129084750D01*
X115266995Y-129084750D01*
X115262763Y-129085307D01*
X115202603Y-129074155D01*
X115179840Y-129057158D01*
X114411682Y-128289000D01*
X121160750Y-128289000D01*
X121179669Y-128432708D01*
X121179670Y-128432709D01*
X121235139Y-128566625D01*
X121323379Y-128681621D01*
X121438375Y-128769861D01*
X121572291Y-128825330D01*
X121716000Y-128844250D01*
X121859709Y-128825330D01*
X121993625Y-128769861D01*
X122050785Y-128726000D01*
X125845750Y-128726000D01*
X125864669Y-128869708D01*
X125864670Y-128869709D01*
X125916272Y-128994291D01*
X125920139Y-129003625D01*
X126008379Y-129118621D01*
X126123375Y-129206861D01*
X126257291Y-129262330D01*
X126401000Y-129281250D01*
X126544709Y-129262330D01*
X126678625Y-129206861D01*
X126768366Y-129138000D01*
X134194750Y-129138000D01*
X134213669Y-129281708D01*
X134213670Y-129281709D01*
X134247083Y-129362378D01*
X134269139Y-129415625D01*
X134357379Y-129530621D01*
X134472375Y-129618861D01*
X134606291Y-129674330D01*
X134750000Y-129693250D01*
X134893709Y-129674330D01*
X135027625Y-129618861D01*
X135142621Y-129530621D01*
X135230861Y-129415625D01*
X135286330Y-129281709D01*
X135302847Y-129156251D01*
X135310777Y-129139625D01*
X135302847Y-129119747D01*
X135286330Y-128994291D01*
X135230861Y-128860375D01*
X135142621Y-128745379D01*
X135027625Y-128657139D01*
X135027621Y-128657137D01*
X134893709Y-128601670D01*
X134893708Y-128601669D01*
X134750000Y-128582750D01*
X134606291Y-128601669D01*
X134606290Y-128601670D01*
X134472378Y-128657137D01*
X134472374Y-128657139D01*
X134357381Y-128745377D01*
X134357377Y-128745381D01*
X134269139Y-128860374D01*
X134269137Y-128860378D01*
X134213670Y-128994290D01*
X134213669Y-128994291D01*
X134194750Y-129137999D01*
X134194750Y-129138000D01*
X126768366Y-129138000D01*
X126793621Y-129118621D01*
X126881861Y-129003625D01*
X126937330Y-128869709D01*
X126956250Y-128726000D01*
X126950407Y-128681622D01*
X126937330Y-128582291D01*
X126881861Y-128448375D01*
X126793621Y-128333379D01*
X126678625Y-128245139D01*
X126678621Y-128245137D01*
X126544709Y-128189670D01*
X126544708Y-128189669D01*
X126401000Y-128170750D01*
X126257291Y-128189669D01*
X126257290Y-128189670D01*
X126123378Y-128245137D01*
X126123374Y-128245139D01*
X126008381Y-128333377D01*
X126008377Y-128333381D01*
X125920139Y-128448374D01*
X125920137Y-128448378D01*
X125864670Y-128582290D01*
X125864669Y-128582291D01*
X125845750Y-128725999D01*
X125845750Y-128726000D01*
X122050785Y-128726000D01*
X122108621Y-128681621D01*
X122196861Y-128566625D01*
X122252330Y-128432709D01*
X122271250Y-128289000D01*
X122266569Y-128253448D01*
X122252330Y-128145291D01*
X122196861Y-128011375D01*
X122108621Y-127896379D01*
X121993625Y-127808139D01*
X121993621Y-127808137D01*
X121859709Y-127752670D01*
X121859708Y-127752669D01*
X121716000Y-127733750D01*
X121572291Y-127752669D01*
X121572290Y-127752670D01*
X121438378Y-127808137D01*
X121438374Y-127808139D01*
X121323381Y-127896377D01*
X121323377Y-127896381D01*
X121235139Y-128011374D01*
X121235137Y-128011378D01*
X121179670Y-128145290D01*
X121179669Y-128145291D01*
X121160750Y-128288999D01*
X121160750Y-128289000D01*
X114411682Y-128289000D01*
X114151496Y-128028814D01*
X114123719Y-127974297D01*
X114122500Y-127958810D01*
X114122500Y-127288000D01*
X125150750Y-127288000D01*
X125169669Y-127431708D01*
X125169670Y-127431709D01*
X125225139Y-127565625D01*
X125313379Y-127680621D01*
X125428375Y-127768861D01*
X125562291Y-127824330D01*
X125706000Y-127843250D01*
X125849709Y-127824330D01*
X125983625Y-127768861D01*
X126098621Y-127680621D01*
X126186861Y-127565625D01*
X126242330Y-127431709D01*
X126261250Y-127288000D01*
X126260936Y-127285618D01*
X126242330Y-127144291D01*
X126186861Y-127010375D01*
X126098621Y-126895379D01*
X125983625Y-126807139D01*
X125983621Y-126807137D01*
X125849709Y-126751670D01*
X125849708Y-126751669D01*
X125706000Y-126732750D01*
X125562291Y-126751669D01*
X125562290Y-126751670D01*
X125428378Y-126807137D01*
X125428374Y-126807139D01*
X125313381Y-126895377D01*
X125313377Y-126895381D01*
X125225139Y-127010374D01*
X125225137Y-127010378D01*
X125169670Y-127144290D01*
X125169669Y-127144291D01*
X125150750Y-127287999D01*
X125150750Y-127288000D01*
X114122500Y-127288000D01*
X114122500Y-125334000D01*
X117952750Y-125334000D01*
X117971669Y-125477708D01*
X117971670Y-125477709D01*
X118007929Y-125565249D01*
X118027139Y-125611625D01*
X118115379Y-125726621D01*
X118230375Y-125814861D01*
X118364291Y-125870330D01*
X118508000Y-125889250D01*
X118651709Y-125870330D01*
X118785625Y-125814861D01*
X118795884Y-125806988D01*
X118853557Y-125786561D01*
X118912224Y-125803935D01*
X118949474Y-125852474D01*
X118954308Y-125872604D01*
X118962142Y-125932108D01*
X118963670Y-125943709D01*
X119019139Y-126077625D01*
X119107379Y-126192621D01*
X119222375Y-126280861D01*
X119356291Y-126336330D01*
X119500000Y-126355250D01*
X119643709Y-126336330D01*
X119777625Y-126280861D01*
X119892621Y-126192621D01*
X119980861Y-126077625D01*
X120036330Y-125943709D01*
X120055250Y-125800000D01*
X120051958Y-125775000D01*
X120998750Y-125775000D01*
X121017669Y-125918708D01*
X121017670Y-125918709D01*
X121054811Y-126008378D01*
X121073139Y-126052625D01*
X121161379Y-126167621D01*
X121276375Y-126255861D01*
X121410291Y-126311330D01*
X121554000Y-126330250D01*
X121697709Y-126311330D01*
X121831625Y-126255861D01*
X121946621Y-126167621D01*
X122034861Y-126052625D01*
X122090330Y-125918709D01*
X122109250Y-125775000D01*
X122090330Y-125631291D01*
X122034861Y-125497375D01*
X121946621Y-125382379D01*
X121831625Y-125294139D01*
X121831621Y-125294137D01*
X121697709Y-125238670D01*
X121697708Y-125238669D01*
X121554000Y-125219750D01*
X121410291Y-125238669D01*
X121410290Y-125238670D01*
X121276378Y-125294137D01*
X121276374Y-125294139D01*
X121161381Y-125382377D01*
X121161377Y-125382381D01*
X121073139Y-125497374D01*
X121073137Y-125497378D01*
X121017670Y-125631290D01*
X121017669Y-125631291D01*
X120998750Y-125774999D01*
X120998750Y-125775000D01*
X120051958Y-125775000D01*
X120051958Y-125774999D01*
X120036330Y-125656291D01*
X119980861Y-125522375D01*
X119892621Y-125407379D01*
X119777625Y-125319139D01*
X119777621Y-125319137D01*
X119643709Y-125263670D01*
X119643708Y-125263669D01*
X119500000Y-125244750D01*
X119356291Y-125263669D01*
X119356290Y-125263670D01*
X119222378Y-125319137D01*
X119222370Y-125319141D01*
X119212110Y-125327015D01*
X119154434Y-125347438D01*
X119095769Y-125330060D01*
X119058522Y-125281518D01*
X119053691Y-125261394D01*
X119044330Y-125190291D01*
X118988861Y-125056375D01*
X118900621Y-124941379D01*
X118785625Y-124853139D01*
X118785621Y-124853137D01*
X118651709Y-124797670D01*
X118651708Y-124797669D01*
X118508000Y-124778750D01*
X118364291Y-124797669D01*
X118364290Y-124797670D01*
X118230378Y-124853137D01*
X118230374Y-124853139D01*
X118115381Y-124941377D01*
X118115377Y-124941381D01*
X118027139Y-125056374D01*
X118027137Y-125056378D01*
X117971670Y-125190290D01*
X117971669Y-125190291D01*
X117952750Y-125333999D01*
X117952750Y-125334000D01*
X114122500Y-125334000D01*
X114122500Y-123633000D01*
X115594750Y-123633000D01*
X115613669Y-123776708D01*
X115613670Y-123776709D01*
X115664858Y-123900291D01*
X115669139Y-123910625D01*
X115757379Y-124025621D01*
X115872375Y-124113861D01*
X116006291Y-124169330D01*
X116150000Y-124188250D01*
X116293709Y-124169330D01*
X116427625Y-124113861D01*
X116518669Y-124044000D01*
X117399750Y-124044000D01*
X117418669Y-124187708D01*
X117418670Y-124187709D01*
X117474139Y-124321625D01*
X117562379Y-124436621D01*
X117677375Y-124524861D01*
X117811291Y-124580330D01*
X117955000Y-124599250D01*
X118098709Y-124580330D01*
X118232625Y-124524861D01*
X118347621Y-124436621D01*
X118435861Y-124321625D01*
X118491330Y-124187709D01*
X118510250Y-124044000D01*
X118507830Y-124025622D01*
X118491330Y-123900291D01*
X118435861Y-123766375D01*
X118347621Y-123651379D01*
X118232625Y-123563139D01*
X118232621Y-123563137D01*
X118098709Y-123507670D01*
X118098708Y-123507669D01*
X117955000Y-123488750D01*
X117811291Y-123507669D01*
X117811290Y-123507670D01*
X117677378Y-123563137D01*
X117677374Y-123563139D01*
X117562381Y-123651377D01*
X117562377Y-123651381D01*
X117474139Y-123766374D01*
X117474137Y-123766378D01*
X117418670Y-123900290D01*
X117418669Y-123900291D01*
X117399750Y-124043999D01*
X117399750Y-124044000D01*
X116518669Y-124044000D01*
X116542621Y-124025621D01*
X116630861Y-123910625D01*
X116686330Y-123776709D01*
X116705250Y-123633000D01*
X116696052Y-123563139D01*
X116686330Y-123489291D01*
X116630861Y-123355375D01*
X116542621Y-123240379D01*
X116427625Y-123152139D01*
X116427621Y-123152137D01*
X116293709Y-123096670D01*
X116293708Y-123096669D01*
X116150000Y-123077750D01*
X116006291Y-123096669D01*
X116006290Y-123096670D01*
X115872378Y-123152137D01*
X115872374Y-123152139D01*
X115757381Y-123240377D01*
X115757377Y-123240381D01*
X115669139Y-123355374D01*
X115669137Y-123355378D01*
X115613670Y-123489290D01*
X115613669Y-123489291D01*
X115594750Y-123632999D01*
X115594750Y-123633000D01*
X114122500Y-123633000D01*
X114122500Y-122225478D01*
X114141407Y-122167287D01*
X114190907Y-122131323D01*
X114234422Y-122127325D01*
X114324999Y-122139250D01*
X114324999Y-122139249D01*
X114325000Y-122139250D01*
X114468709Y-122120330D01*
X114468710Y-122120329D01*
X114474974Y-122118651D01*
X114475673Y-122121261D01*
X114525281Y-122117344D01*
X114577459Y-122149299D01*
X114600889Y-122205821D01*
X114593661Y-122251499D01*
X114550669Y-122355293D01*
X114531750Y-122498999D01*
X114531750Y-122499000D01*
X114550669Y-122642708D01*
X114550670Y-122642709D01*
X114604119Y-122771750D01*
X114606139Y-122776625D01*
X114694379Y-122891621D01*
X114809375Y-122979861D01*
X114943291Y-123035330D01*
X115087000Y-123054250D01*
X115230709Y-123035330D01*
X115364625Y-122979861D01*
X115479621Y-122891621D01*
X115567861Y-122776625D01*
X115623330Y-122642709D01*
X115642250Y-122499000D01*
X115623330Y-122355291D01*
X115567861Y-122221375D01*
X115479621Y-122106379D01*
X115364625Y-122018139D01*
X115364621Y-122018137D01*
X115230709Y-121962670D01*
X115230708Y-121962669D01*
X115087000Y-121943750D01*
X114943291Y-121962669D01*
X114937026Y-121964349D01*
X114936330Y-121961751D01*
X114886645Y-121965637D01*
X114834491Y-121933643D01*
X114811104Y-121877103D01*
X114818339Y-121831499D01*
X114861330Y-121727709D01*
X114880250Y-121584000D01*
X114861330Y-121440291D01*
X114805861Y-121306375D01*
X114717621Y-121191379D01*
X114602625Y-121103139D01*
X114602621Y-121103137D01*
X114468709Y-121047670D01*
X114468708Y-121047669D01*
X114325000Y-121028750D01*
X114234422Y-121040675D01*
X114174262Y-121029525D01*
X114146245Y-121000002D01*
X119544353Y-121000002D01*
X119564834Y-121142456D01*
X119587176Y-121191377D01*
X119624623Y-121273373D01*
X119718872Y-121382143D01*
X119718873Y-121382144D01*
X119809352Y-121440291D01*
X119839947Y-121459953D01*
X119946403Y-121491211D01*
X119978035Y-121500499D01*
X119978036Y-121500499D01*
X119978039Y-121500500D01*
X119978041Y-121500500D01*
X120121959Y-121500500D01*
X120121961Y-121500500D01*
X120260053Y-121459953D01*
X120381128Y-121382143D01*
X120475377Y-121273373D01*
X120535165Y-121142457D01*
X120551402Y-121029525D01*
X120555647Y-121000002D01*
X120555647Y-120999997D01*
X120535165Y-120857543D01*
X120524867Y-120834993D01*
X120475377Y-120726627D01*
X120381128Y-120617857D01*
X120381127Y-120617856D01*
X120381126Y-120617855D01*
X120260057Y-120540049D01*
X120260054Y-120540047D01*
X120260053Y-120540047D01*
X120260050Y-120540046D01*
X120121964Y-120499500D01*
X120121961Y-120499500D01*
X119978039Y-120499500D01*
X119978035Y-120499500D01*
X119839949Y-120540046D01*
X119839942Y-120540049D01*
X119718873Y-120617855D01*
X119624622Y-120726628D01*
X119564834Y-120857543D01*
X119544353Y-120999997D01*
X119544353Y-121000002D01*
X114146245Y-121000002D01*
X114132144Y-120985143D01*
X114122500Y-120942522D01*
X114122500Y-120490000D01*
X122249750Y-120490000D01*
X122268669Y-120633708D01*
X122268670Y-120633709D01*
X122316838Y-120750000D01*
X122324139Y-120767625D01*
X122412379Y-120882621D01*
X122527375Y-120970861D01*
X122661291Y-121026330D01*
X122805000Y-121045250D01*
X122948709Y-121026330D01*
X123082625Y-120970861D01*
X123197621Y-120882621D01*
X123214497Y-120860626D01*
X123264920Y-120825971D01*
X123326084Y-120827572D01*
X123371579Y-120860625D01*
X123451379Y-120964621D01*
X123566375Y-121052861D01*
X123700291Y-121108330D01*
X123844000Y-121127250D01*
X123987709Y-121108330D01*
X124121625Y-121052861D01*
X124236621Y-120964621D01*
X124324861Y-120849625D01*
X124380330Y-120715709D01*
X124399250Y-120572000D01*
X124395043Y-120540049D01*
X124380330Y-120428291D01*
X124324861Y-120294375D01*
X124236621Y-120179379D01*
X124121625Y-120091139D01*
X124121621Y-120091137D01*
X123987709Y-120035670D01*
X123987708Y-120035669D01*
X123844000Y-120016750D01*
X123700291Y-120035669D01*
X123700290Y-120035670D01*
X123566378Y-120091137D01*
X123566374Y-120091139D01*
X123451381Y-120179377D01*
X123451376Y-120179382D01*
X123434501Y-120201374D01*
X123384075Y-120236029D01*
X123322911Y-120234426D01*
X123277418Y-120201372D01*
X123197625Y-120097384D01*
X123197624Y-120097383D01*
X123197621Y-120097379D01*
X123169231Y-120075594D01*
X123134576Y-120025168D01*
X123130500Y-119997053D01*
X123130500Y-119177081D01*
X123149407Y-119118890D01*
X123198907Y-119082926D01*
X123260093Y-119082926D01*
X123308041Y-119116813D01*
X123329379Y-119144621D01*
X123444375Y-119232861D01*
X123578291Y-119288330D01*
X123722000Y-119307250D01*
X123865709Y-119288330D01*
X123999625Y-119232861D01*
X124114621Y-119144621D01*
X124202861Y-119029625D01*
X124258330Y-118895709D01*
X124277250Y-118752000D01*
X124258330Y-118608291D01*
X124202861Y-118474375D01*
X124114621Y-118359379D01*
X123999625Y-118271139D01*
X123999621Y-118271137D01*
X123865709Y-118215670D01*
X123865708Y-118215669D01*
X123722000Y-118196750D01*
X123721998Y-118196750D01*
X123700256Y-118199612D01*
X123640095Y-118188461D01*
X123597978Y-118144078D01*
X123589993Y-118083416D01*
X123619189Y-118029646D01*
X123627068Y-118022917D01*
X123636407Y-118015751D01*
X123735621Y-117939621D01*
X123823861Y-117824625D01*
X123879330Y-117690709D01*
X123895248Y-117569796D01*
X123921589Y-117514573D01*
X123975360Y-117485378D01*
X124031287Y-117491257D01*
X124036291Y-117493330D01*
X124180000Y-117512250D01*
X124323709Y-117493330D01*
X124457625Y-117437861D01*
X124572621Y-117349621D01*
X124637919Y-117264523D01*
X124688339Y-117229869D01*
X124749504Y-117231470D01*
X124786462Y-117254788D01*
X125336504Y-117804830D01*
X125364281Y-117859347D01*
X125365500Y-117874834D01*
X125365500Y-122389166D01*
X125346593Y-122447357D01*
X125336505Y-122459168D01*
X125291819Y-122503853D01*
X125237304Y-122531630D01*
X125183932Y-122525313D01*
X125102709Y-122491670D01*
X125102708Y-122491669D01*
X124959000Y-122472750D01*
X124815291Y-122491669D01*
X124815290Y-122491670D01*
X124681378Y-122547137D01*
X124681374Y-122547139D01*
X124566381Y-122635377D01*
X124566377Y-122635381D01*
X124478139Y-122750374D01*
X124478137Y-122750378D01*
X124422670Y-122884290D01*
X124422669Y-122884291D01*
X124403750Y-123027999D01*
X124403750Y-123028000D01*
X124422669Y-123171708D01*
X124422670Y-123171709D01*
X124476516Y-123301708D01*
X124478139Y-123305625D01*
X124566379Y-123420621D01*
X124681375Y-123508861D01*
X124815291Y-123564330D01*
X124959000Y-123583250D01*
X125102709Y-123564330D01*
X125223760Y-123514189D01*
X125284753Y-123509389D01*
X125331527Y-123535532D01*
X125519851Y-123723222D01*
X125525784Y-123729685D01*
X125550545Y-123759194D01*
X125550547Y-123759195D01*
X125584513Y-123778806D01*
X125591659Y-123783350D01*
X125623818Y-123805787D01*
X125623821Y-123805789D01*
X125624920Y-123806081D01*
X125648967Y-123816017D01*
X125649955Y-123816588D01*
X125649954Y-123816588D01*
X125688573Y-123823397D01*
X125696846Y-123825224D01*
X125734749Y-123835312D01*
X125773107Y-123831891D01*
X125781901Y-123831500D01*
X126164102Y-123831500D01*
X126172896Y-123831891D01*
X126176202Y-123832185D01*
X126211252Y-123835312D01*
X126249173Y-123825218D01*
X126257417Y-123823398D01*
X126279275Y-123819544D01*
X126296041Y-123816589D01*
X126296041Y-123816588D01*
X126296045Y-123816588D01*
X126297023Y-123816022D01*
X126321076Y-123806082D01*
X126322179Y-123805789D01*
X126354355Y-123783339D01*
X126361472Y-123778813D01*
X126395455Y-123759194D01*
X126420212Y-123729688D01*
X126426153Y-123723216D01*
X126614736Y-123535267D01*
X126669296Y-123507584D01*
X126729712Y-123517257D01*
X126763157Y-123545120D01*
X126767373Y-123550614D01*
X126767375Y-123550616D01*
X126767379Y-123550621D01*
X126882375Y-123638861D01*
X127016291Y-123694330D01*
X127160000Y-123713250D01*
X127303709Y-123694330D01*
X127437625Y-123638861D01*
X127552621Y-123550621D01*
X127640861Y-123435625D01*
X127696330Y-123301709D01*
X127715250Y-123158000D01*
X127707175Y-123096669D01*
X127696330Y-123014291D01*
X127640861Y-122880375D01*
X127552621Y-122765379D01*
X127437625Y-122677139D01*
X127437621Y-122677137D01*
X127303709Y-122621670D01*
X127303708Y-122621669D01*
X127160000Y-122602750D01*
X127016294Y-122621669D01*
X127016291Y-122621669D01*
X127016291Y-122621670D01*
X126942383Y-122652283D01*
X126881388Y-122657082D01*
X126829219Y-122625112D01*
X126805805Y-122568584D01*
X126805500Y-122560818D01*
X126805500Y-121547824D01*
X132999999Y-121547824D01*
X133006401Y-121607370D01*
X133006403Y-121607381D01*
X133056646Y-121742088D01*
X133056647Y-121742090D01*
X133142807Y-121857184D01*
X133142815Y-121857192D01*
X133248385Y-121936222D01*
X133283638Y-121986231D01*
X133282764Y-122047410D01*
X133282501Y-122048172D01*
X133263687Y-122101938D01*
X133263685Y-122101946D01*
X133244751Y-122269995D01*
X133244751Y-122270004D01*
X133263685Y-122438053D01*
X133263688Y-122438065D01*
X133319544Y-122597690D01*
X133319544Y-122597691D01*
X133369464Y-122677137D01*
X133409523Y-122740890D01*
X133503631Y-122834998D01*
X133531407Y-122889513D01*
X133521836Y-122949945D01*
X133503632Y-122975000D01*
X133450634Y-123027999D01*
X133409520Y-123069113D01*
X133319544Y-123212308D01*
X133319544Y-123212309D01*
X133263688Y-123371934D01*
X133263685Y-123371946D01*
X133244751Y-123539995D01*
X133244751Y-123540004D01*
X133263685Y-123708053D01*
X133263688Y-123708065D01*
X133319544Y-123867690D01*
X133319544Y-123867691D01*
X133409520Y-124010886D01*
X133409523Y-124010890D01*
X133503631Y-124104998D01*
X133531407Y-124159513D01*
X133521836Y-124219945D01*
X133503632Y-124245000D01*
X133427012Y-124321621D01*
X133409520Y-124339113D01*
X133319544Y-124482308D01*
X133319544Y-124482309D01*
X133263688Y-124641934D01*
X133263685Y-124641946D01*
X133244751Y-124809995D01*
X133244751Y-124810004D01*
X133263685Y-124978053D01*
X133263688Y-124978065D01*
X133319544Y-125137690D01*
X133319544Y-125137691D01*
X133409520Y-125280886D01*
X133409523Y-125280890D01*
X133529110Y-125400477D01*
X133529112Y-125400478D01*
X133529113Y-125400479D01*
X133652021Y-125477708D01*
X133672310Y-125490456D01*
X133709385Y-125503429D01*
X133831934Y-125546311D01*
X133831938Y-125546312D01*
X133831941Y-125546313D01*
X133831942Y-125546313D01*
X133831946Y-125546314D01*
X133999996Y-125565249D01*
X134000000Y-125565249D01*
X134000004Y-125565249D01*
X134168053Y-125546314D01*
X134168055Y-125546313D01*
X134168059Y-125546313D01*
X134327690Y-125490456D01*
X134470890Y-125400477D01*
X134590477Y-125280890D01*
X134680456Y-125137690D01*
X134736313Y-124978059D01*
X134740446Y-124941377D01*
X134755249Y-124810004D01*
X134755249Y-124809995D01*
X134736314Y-124641946D01*
X134736311Y-124641934D01*
X134713480Y-124576690D01*
X134680456Y-124482310D01*
X134590477Y-124339110D01*
X134496368Y-124245001D01*
X134468593Y-124190487D01*
X134478164Y-124130055D01*
X134496367Y-124104999D01*
X134590477Y-124010890D01*
X134680456Y-123867690D01*
X134736313Y-123708059D01*
X134737860Y-123694329D01*
X134755249Y-123540004D01*
X134755249Y-123539995D01*
X134736314Y-123371946D01*
X134736311Y-123371934D01*
X134690278Y-123240381D01*
X134680456Y-123212310D01*
X134662221Y-123183290D01*
X134590479Y-123069113D01*
X134590478Y-123069112D01*
X134590477Y-123069110D01*
X134496368Y-122975001D01*
X134468593Y-122920487D01*
X134478164Y-122860055D01*
X134496367Y-122834999D01*
X134590477Y-122740890D01*
X134680456Y-122597690D01*
X134736313Y-122438059D01*
X134736314Y-122438053D01*
X134755249Y-122270004D01*
X134755249Y-122269995D01*
X134736314Y-122101946D01*
X134736311Y-122101934D01*
X134717499Y-122048173D01*
X134716125Y-121987003D01*
X134750969Y-121936709D01*
X134751614Y-121936222D01*
X134857184Y-121857192D01*
X134857192Y-121857184D01*
X134943352Y-121742090D01*
X134943353Y-121742088D01*
X134993596Y-121607381D01*
X134993598Y-121607370D01*
X135000000Y-121547824D01*
X135000000Y-121250001D01*
X134999999Y-121250000D01*
X134214483Y-121250000D01*
X134285801Y-121165007D01*
X134325000Y-121057306D01*
X134325000Y-120942694D01*
X134285801Y-120834993D01*
X134214482Y-120749999D01*
X134250000Y-120749999D01*
X134250001Y-120750000D01*
X134999999Y-120750000D01*
X135000000Y-120749999D01*
X135000000Y-120452175D01*
X134993598Y-120392629D01*
X134993596Y-120392618D01*
X134943353Y-120257911D01*
X134943352Y-120257909D01*
X134857192Y-120142815D01*
X134857184Y-120142807D01*
X134742090Y-120056647D01*
X134742088Y-120056646D01*
X134607381Y-120006403D01*
X134607370Y-120006401D01*
X134547824Y-120000000D01*
X134250001Y-120000000D01*
X134250000Y-120000001D01*
X134250000Y-120749999D01*
X134214482Y-120749999D01*
X134212129Y-120747195D01*
X134112871Y-120689888D01*
X134028436Y-120675000D01*
X133971564Y-120675000D01*
X133887129Y-120689888D01*
X133787871Y-120747195D01*
X133714199Y-120834993D01*
X133675000Y-120942694D01*
X133675000Y-121057306D01*
X133714199Y-121165007D01*
X133785517Y-121250000D01*
X133000001Y-121250000D01*
X133000000Y-121250001D01*
X133000000Y-121547824D01*
X132999999Y-121547824D01*
X126805500Y-121547824D01*
X126805500Y-120784000D01*
X130497750Y-120784000D01*
X130516669Y-120927708D01*
X130516670Y-120927709D01*
X130566358Y-121047670D01*
X130572139Y-121061625D01*
X130660379Y-121176621D01*
X130775375Y-121264861D01*
X130909291Y-121320330D01*
X131053000Y-121339250D01*
X131196709Y-121320330D01*
X131330625Y-121264861D01*
X131445621Y-121176621D01*
X131533861Y-121061625D01*
X131589330Y-120927709D01*
X131608250Y-120784000D01*
X131603773Y-120749999D01*
X133000000Y-120749999D01*
X133000001Y-120750000D01*
X133749999Y-120750000D01*
X133750000Y-120749999D01*
X133750000Y-120000001D01*
X133749999Y-120000000D01*
X133452176Y-120000000D01*
X133392629Y-120006401D01*
X133392618Y-120006403D01*
X133257911Y-120056646D01*
X133257909Y-120056647D01*
X133142815Y-120142807D01*
X133142807Y-120142815D01*
X133056647Y-120257909D01*
X133056646Y-120257911D01*
X133006403Y-120392618D01*
X133006401Y-120392629D01*
X133000000Y-120452175D01*
X133000000Y-120749999D01*
X131603773Y-120749999D01*
X131603404Y-120747195D01*
X131589330Y-120640291D01*
X131533861Y-120506375D01*
X131445621Y-120391379D01*
X131330625Y-120303139D01*
X131330621Y-120303137D01*
X131196709Y-120247670D01*
X131196708Y-120247669D01*
X131053000Y-120228750D01*
X130909291Y-120247669D01*
X130909290Y-120247670D01*
X130775378Y-120303137D01*
X130775374Y-120303139D01*
X130660381Y-120391377D01*
X130660377Y-120391381D01*
X130572139Y-120506374D01*
X130572137Y-120506378D01*
X130516670Y-120640290D01*
X130516669Y-120640291D01*
X130497750Y-120783999D01*
X130497750Y-120784000D01*
X126805500Y-120784000D01*
X126805500Y-116644000D01*
X132318750Y-116644000D01*
X132337669Y-116787708D01*
X132337670Y-116787709D01*
X132363441Y-116849928D01*
X132393139Y-116921625D01*
X132481379Y-117036621D01*
X132596375Y-117124861D01*
X132730291Y-117180330D01*
X132874000Y-117199250D01*
X133017709Y-117180330D01*
X133151625Y-117124861D01*
X133266621Y-117036621D01*
X133354861Y-116921625D01*
X133410330Y-116787709D01*
X133429250Y-116644000D01*
X133426437Y-116622637D01*
X133410330Y-116500291D01*
X133354861Y-116366375D01*
X133266621Y-116251379D01*
X133151625Y-116163139D01*
X133151621Y-116163137D01*
X133017709Y-116107670D01*
X133017708Y-116107669D01*
X132874000Y-116088750D01*
X132730291Y-116107669D01*
X132730290Y-116107670D01*
X132596378Y-116163137D01*
X132596374Y-116163139D01*
X132481381Y-116251377D01*
X132481377Y-116251381D01*
X132393139Y-116366374D01*
X132393137Y-116366378D01*
X132337670Y-116500290D01*
X132337669Y-116500291D01*
X132318750Y-116643999D01*
X132318750Y-116644000D01*
X126805500Y-116644000D01*
X126805500Y-114925533D01*
X126805877Y-114916904D01*
X126809264Y-114878193D01*
X126799204Y-114840652D01*
X126797335Y-114832220D01*
X126792712Y-114806000D01*
X128116750Y-114806000D01*
X128135669Y-114949708D01*
X128135670Y-114949709D01*
X128181508Y-115060375D01*
X128191139Y-115083625D01*
X128279379Y-115198621D01*
X128394375Y-115286861D01*
X128528291Y-115342330D01*
X128672000Y-115361250D01*
X128815709Y-115342330D01*
X128949625Y-115286861D01*
X129064621Y-115198621D01*
X129152861Y-115083625D01*
X129208330Y-114949709D01*
X129227250Y-114806000D01*
X129222139Y-114767182D01*
X129208330Y-114662291D01*
X129152861Y-114528375D01*
X129064621Y-114413379D01*
X128949625Y-114325139D01*
X128949621Y-114325137D01*
X128815709Y-114269670D01*
X128815708Y-114269669D01*
X128672000Y-114250750D01*
X128528291Y-114269669D01*
X128528290Y-114269670D01*
X128394378Y-114325137D01*
X128394374Y-114325139D01*
X128279381Y-114413377D01*
X128279377Y-114413381D01*
X128191139Y-114528374D01*
X128191137Y-114528378D01*
X128135670Y-114662290D01*
X128135669Y-114662291D01*
X128116750Y-114805999D01*
X128116750Y-114806000D01*
X126792712Y-114806000D01*
X126790588Y-114793954D01*
X126789840Y-114792659D01*
X126779942Y-114768767D01*
X126779554Y-114767316D01*
X126757264Y-114735482D01*
X126752630Y-114728209D01*
X126733194Y-114694545D01*
X126703428Y-114669568D01*
X126697060Y-114663734D01*
X124932728Y-112899402D01*
X124904951Y-112844885D01*
X124904579Y-112816474D01*
X124909250Y-112781000D01*
X124900034Y-112711000D01*
X128180750Y-112711000D01*
X128199669Y-112854708D01*
X128199670Y-112854709D01*
X128249023Y-112973861D01*
X128255139Y-112988625D01*
X128343379Y-113103621D01*
X128458375Y-113191861D01*
X128592291Y-113247330D01*
X128736000Y-113266250D01*
X128879709Y-113247330D01*
X129013625Y-113191861D01*
X129128621Y-113103621D01*
X129216861Y-112988625D01*
X129272330Y-112854709D01*
X129291250Y-112711000D01*
X129272330Y-112567291D01*
X129216861Y-112433375D01*
X129128621Y-112318379D01*
X129013625Y-112230139D01*
X129013621Y-112230137D01*
X128879709Y-112174670D01*
X128879708Y-112174669D01*
X128736000Y-112155750D01*
X128592291Y-112174669D01*
X128592290Y-112174670D01*
X128458378Y-112230137D01*
X128458374Y-112230139D01*
X128343381Y-112318377D01*
X128343377Y-112318381D01*
X128255139Y-112433374D01*
X128255137Y-112433378D01*
X128199670Y-112567290D01*
X128199669Y-112567291D01*
X128180750Y-112710999D01*
X128180750Y-112711000D01*
X124900034Y-112711000D01*
X124890330Y-112637291D01*
X124834861Y-112503375D01*
X124746621Y-112388379D01*
X124631625Y-112300139D01*
X124631621Y-112300137D01*
X124497709Y-112244670D01*
X124497708Y-112244669D01*
X124354000Y-112225750D01*
X124210291Y-112244669D01*
X124210290Y-112244670D01*
X124076378Y-112300137D01*
X124076374Y-112300139D01*
X123961381Y-112388377D01*
X123961377Y-112388381D01*
X123873139Y-112503374D01*
X123873138Y-112503376D01*
X123841221Y-112580431D01*
X123801484Y-112626957D01*
X123741989Y-112641240D01*
X123685461Y-112617825D01*
X123679727Y-112612522D01*
X123678681Y-112611475D01*
X123650929Y-112556945D01*
X123650565Y-112528582D01*
X123650592Y-112528381D01*
X123655250Y-112493000D01*
X123647400Y-112433378D01*
X123636330Y-112349291D01*
X123580861Y-112215375D01*
X123492621Y-112100379D01*
X123377625Y-112012139D01*
X123377621Y-112012137D01*
X123243709Y-111956670D01*
X123243708Y-111956669D01*
X123100000Y-111937750D01*
X122956291Y-111956669D01*
X122956290Y-111956670D01*
X122822378Y-112012137D01*
X122822374Y-112012139D01*
X122707381Y-112100377D01*
X122707377Y-112100381D01*
X122619139Y-112215374D01*
X122619137Y-112215378D01*
X122563670Y-112349290D01*
X122563669Y-112349291D01*
X122544750Y-112492999D01*
X122544750Y-112493000D01*
X122563669Y-112636708D01*
X122563670Y-112636709D01*
X122619139Y-112770625D01*
X122707379Y-112885621D01*
X122822375Y-112973861D01*
X122858019Y-112988625D01*
X122956680Y-113029491D01*
X123003206Y-113069227D01*
X123017490Y-113128722D01*
X122995567Y-113181648D01*
X122996329Y-113182232D01*
X122994149Y-113185072D01*
X122994076Y-113185250D01*
X122993705Y-113185650D01*
X122904139Y-113302374D01*
X122904137Y-113302378D01*
X122848670Y-113436290D01*
X122848669Y-113436291D01*
X122829750Y-113579999D01*
X122829750Y-113580000D01*
X122848669Y-113723708D01*
X122848670Y-113723709D01*
X122890882Y-113825621D01*
X122904139Y-113857625D01*
X122992379Y-113972621D01*
X123107375Y-114060861D01*
X123241291Y-114116330D01*
X123385000Y-114135250D01*
X123528709Y-114116330D01*
X123662625Y-114060861D01*
X123777621Y-113972621D01*
X123857075Y-113869074D01*
X123907497Y-113834420D01*
X123968661Y-113836021D01*
X124005629Y-113859351D01*
X125618516Y-115472799D01*
X125646284Y-115527319D01*
X125647500Y-115542789D01*
X125647500Y-116956166D01*
X125628593Y-117014357D01*
X125579093Y-117050321D01*
X125517907Y-117050321D01*
X125478496Y-117026170D01*
X125004211Y-116551885D01*
X124976434Y-116497368D01*
X124986005Y-116436936D01*
X125013944Y-116403343D01*
X125069621Y-116360621D01*
X125157861Y-116245625D01*
X125213330Y-116111709D01*
X125232250Y-115968000D01*
X125220431Y-115878231D01*
X125213330Y-115824291D01*
X125157861Y-115690375D01*
X125069621Y-115575379D01*
X124954625Y-115487139D01*
X124954621Y-115487137D01*
X124820709Y-115431670D01*
X124820708Y-115431669D01*
X124677000Y-115412750D01*
X124533291Y-115431669D01*
X124533290Y-115431670D01*
X124399378Y-115487137D01*
X124399374Y-115487139D01*
X124284381Y-115575377D01*
X124284377Y-115575381D01*
X124196139Y-115690374D01*
X124196137Y-115690378D01*
X124140670Y-115824290D01*
X124140669Y-115824291D01*
X124121750Y-115967999D01*
X124121750Y-115968000D01*
X124124459Y-115988578D01*
X124113309Y-116048739D01*
X124068926Y-116090856D01*
X124026306Y-116100500D01*
X123727534Y-116100500D01*
X123718905Y-116100123D01*
X123680194Y-116096736D01*
X123680187Y-116096736D01*
X123642649Y-116106794D01*
X123634223Y-116108662D01*
X123595960Y-116115410D01*
X123595948Y-116115414D01*
X123594640Y-116116170D01*
X123570786Y-116126051D01*
X123569324Y-116126442D01*
X123569317Y-116126445D01*
X123569316Y-116126446D01*
X123537475Y-116148740D01*
X123530205Y-116153371D01*
X123496545Y-116172805D01*
X123471569Y-116202570D01*
X123465736Y-116208936D01*
X122587940Y-117086732D01*
X122581574Y-117092564D01*
X122551807Y-117117542D01*
X122551805Y-117117544D01*
X122532371Y-117151205D01*
X122527740Y-117158475D01*
X122505446Y-117190316D01*
X122505446Y-117190317D01*
X122505442Y-117190324D01*
X122505051Y-117191786D01*
X122495170Y-117215640D01*
X122494414Y-117216948D01*
X122494410Y-117216960D01*
X122487662Y-117255223D01*
X122485794Y-117263649D01*
X122475736Y-117301187D01*
X122475736Y-117301194D01*
X122479123Y-117339904D01*
X122479500Y-117348533D01*
X122479500Y-119997053D01*
X122460593Y-120055244D01*
X122440769Y-120075594D01*
X122412381Y-120097377D01*
X122412377Y-120097381D01*
X122324139Y-120212374D01*
X122324137Y-120212378D01*
X122268670Y-120346290D01*
X122268669Y-120346291D01*
X122249750Y-120489999D01*
X122249750Y-120490000D01*
X114122500Y-120490000D01*
X114122500Y-119623000D01*
X118553750Y-119623000D01*
X118572669Y-119766708D01*
X118572670Y-119766709D01*
X118595728Y-119822378D01*
X118628139Y-119900625D01*
X118716379Y-120015621D01*
X118831375Y-120103861D01*
X118965291Y-120159330D01*
X119109000Y-120178250D01*
X119252709Y-120159330D01*
X119386625Y-120103861D01*
X119501621Y-120015621D01*
X119589861Y-119900625D01*
X119645330Y-119766709D01*
X119664250Y-119623000D01*
X119663741Y-119619137D01*
X119645330Y-119479291D01*
X119589861Y-119345375D01*
X119501621Y-119230379D01*
X119386625Y-119142139D01*
X119386621Y-119142137D01*
X119252709Y-119086670D01*
X119252708Y-119086669D01*
X119109000Y-119067750D01*
X118965291Y-119086669D01*
X118965290Y-119086670D01*
X118831378Y-119142137D01*
X118831374Y-119142139D01*
X118716381Y-119230377D01*
X118716377Y-119230381D01*
X118628139Y-119345374D01*
X118628137Y-119345378D01*
X118572670Y-119479290D01*
X118572669Y-119479291D01*
X118553750Y-119622999D01*
X118553750Y-119623000D01*
X114122500Y-119623000D01*
X114122500Y-119153785D01*
X114141407Y-119095594D01*
X114151389Y-119083889D01*
X114161832Y-119073414D01*
X114313065Y-118921715D01*
X114329024Y-118908737D01*
X114338669Y-118902437D01*
X114357660Y-118878035D01*
X114365687Y-118868933D01*
X114366723Y-118867895D01*
X114377980Y-118852077D01*
X114380504Y-118848684D01*
X114410517Y-118810126D01*
X114410519Y-118810119D01*
X114414148Y-118803412D01*
X114417474Y-118796581D01*
X114417478Y-118796577D01*
X114425607Y-118769117D01*
X114431349Y-118749724D01*
X114432633Y-118745703D01*
X114448500Y-118699488D01*
X114448500Y-118699486D01*
X114449751Y-118691989D01*
X114450684Y-118684413D01*
X114448591Y-118635619D01*
X114448500Y-118631376D01*
X114448500Y-116881773D01*
X114450621Y-116861389D01*
X114453032Y-116849931D01*
X114449252Y-116819433D01*
X114448500Y-116807256D01*
X114448500Y-116805959D01*
X114447825Y-116801920D01*
X114445268Y-116786598D01*
X114444674Y-116782504D01*
X114440417Y-116748158D01*
X114438643Y-116733843D01*
X114438641Y-116733839D01*
X114436517Y-116726683D01*
X114434092Y-116719620D01*
X114434092Y-116719619D01*
X114410732Y-116676454D01*
X114408864Y-116672822D01*
X114387341Y-116628717D01*
X114383006Y-116622637D01*
X114378418Y-116616742D01*
X114366749Y-116606000D01*
X115530750Y-116606000D01*
X115549669Y-116749708D01*
X115549670Y-116749709D01*
X115595928Y-116861389D01*
X115605139Y-116883625D01*
X115693379Y-116998621D01*
X115808375Y-117086861D01*
X115900119Y-117124862D01*
X115919894Y-117133053D01*
X115966420Y-117172789D01*
X115980704Y-117232284D01*
X115957290Y-117288812D01*
X115909901Y-117319507D01*
X115839947Y-117340047D01*
X115839942Y-117340049D01*
X115718873Y-117417855D01*
X115624622Y-117526628D01*
X115564834Y-117657543D01*
X115544353Y-117799997D01*
X115544353Y-117800002D01*
X115564834Y-117942456D01*
X115624623Y-118073373D01*
X115661534Y-118115971D01*
X115685352Y-118172330D01*
X115676768Y-118221928D01*
X115614834Y-118357541D01*
X115614834Y-118357543D01*
X115594353Y-118499997D01*
X115594353Y-118500002D01*
X115614834Y-118642456D01*
X115644559Y-118707543D01*
X115674623Y-118773373D01*
X115761159Y-118873242D01*
X115768873Y-118882144D01*
X115868749Y-118946330D01*
X115889947Y-118959953D01*
X115960674Y-118980720D01*
X116028035Y-119000499D01*
X116028036Y-119000499D01*
X116028039Y-119000500D01*
X116028041Y-119000500D01*
X116171959Y-119000500D01*
X116171961Y-119000500D01*
X116310053Y-118959953D01*
X116431128Y-118882143D01*
X116458978Y-118850002D01*
X120094353Y-118850002D01*
X120114834Y-118992456D01*
X120172576Y-119118890D01*
X120174623Y-119123373D01*
X120267345Y-119230381D01*
X120268873Y-119232144D01*
X120362979Y-119292622D01*
X120389947Y-119309953D01*
X120496403Y-119341211D01*
X120528035Y-119350499D01*
X120528036Y-119350499D01*
X120528039Y-119350500D01*
X120528041Y-119350500D01*
X120671959Y-119350500D01*
X120671961Y-119350500D01*
X120810053Y-119309953D01*
X120931128Y-119232143D01*
X121025377Y-119123373D01*
X121085165Y-118992457D01*
X121095335Y-118921722D01*
X121105647Y-118850002D01*
X121105647Y-118849997D01*
X121085165Y-118707543D01*
X121046271Y-118622378D01*
X121025377Y-118576627D01*
X120993491Y-118539829D01*
X120969675Y-118483472D01*
X120983533Y-118423877D01*
X120993492Y-118410170D01*
X121025377Y-118373373D01*
X121085165Y-118242457D01*
X121101669Y-118127669D01*
X121105647Y-118100002D01*
X121105647Y-118099997D01*
X121085165Y-117957543D01*
X121067651Y-117919194D01*
X121025377Y-117826627D01*
X120931128Y-117717857D01*
X120931127Y-117717856D01*
X120931126Y-117717855D01*
X120838430Y-117658284D01*
X120799699Y-117610918D01*
X120796205Y-117549833D01*
X120829284Y-117498360D01*
X120838430Y-117491716D01*
X120839143Y-117491258D01*
X120931128Y-117432143D01*
X121025377Y-117323373D01*
X121085165Y-117192457D01*
X121100347Y-117086861D01*
X121105647Y-117050002D01*
X121105647Y-117049997D01*
X121085165Y-116907543D01*
X121064087Y-116861389D01*
X121025377Y-116776627D01*
X120931128Y-116667857D01*
X120931127Y-116667856D01*
X120931126Y-116667855D01*
X120810057Y-116590049D01*
X120810054Y-116590047D01*
X120810053Y-116590047D01*
X120810050Y-116590046D01*
X120671964Y-116549500D01*
X120671961Y-116549500D01*
X120528039Y-116549500D01*
X120528035Y-116549500D01*
X120389949Y-116590046D01*
X120389942Y-116590049D01*
X120268873Y-116667855D01*
X120174622Y-116776628D01*
X120114834Y-116907543D01*
X120094353Y-117049997D01*
X120094353Y-117050002D01*
X120114834Y-117192456D01*
X120164494Y-117301194D01*
X120174623Y-117323373D01*
X120256493Y-117417857D01*
X120268873Y-117432144D01*
X120361569Y-117491716D01*
X120400301Y-117539082D01*
X120403794Y-117600168D01*
X120370714Y-117651640D01*
X120361569Y-117658284D01*
X120268873Y-117717855D01*
X120174622Y-117826628D01*
X120114834Y-117957543D01*
X120094353Y-118099997D01*
X120094353Y-118100002D01*
X120114834Y-118242456D01*
X120168229Y-118359373D01*
X120174623Y-118373373D01*
X120182957Y-118382991D01*
X120206507Y-118410170D01*
X120230323Y-118466530D01*
X120216463Y-118526125D01*
X120206507Y-118539830D01*
X120174622Y-118576628D01*
X120114834Y-118707543D01*
X120094353Y-118849997D01*
X120094353Y-118850002D01*
X116458978Y-118850002D01*
X116525377Y-118773373D01*
X116585165Y-118642457D01*
X116599920Y-118539832D01*
X116605647Y-118500002D01*
X116605647Y-118499997D01*
X116585165Y-118357543D01*
X116532606Y-118242457D01*
X116525377Y-118226627D01*
X116502306Y-118200002D01*
X117394353Y-118200002D01*
X117414834Y-118342456D01*
X117471498Y-118466530D01*
X117474623Y-118473373D01*
X117564093Y-118576628D01*
X117568873Y-118582144D01*
X117663838Y-118643174D01*
X117689947Y-118659953D01*
X117789517Y-118689189D01*
X117828035Y-118700499D01*
X117828036Y-118700499D01*
X117828039Y-118700500D01*
X117828041Y-118700500D01*
X117971959Y-118700500D01*
X117971961Y-118700500D01*
X118110053Y-118659953D01*
X118231128Y-118582143D01*
X118325377Y-118473373D01*
X118385165Y-118342457D01*
X118405647Y-118200000D01*
X118405591Y-118199612D01*
X118385165Y-118057543D01*
X118372425Y-118029646D01*
X118325377Y-117926627D01*
X118231128Y-117817857D01*
X118231127Y-117817856D01*
X118231126Y-117817855D01*
X118110057Y-117740049D01*
X118110054Y-117740047D01*
X118110053Y-117740047D01*
X118110050Y-117740046D01*
X117971964Y-117699500D01*
X117971961Y-117699500D01*
X117828039Y-117699500D01*
X117828035Y-117699500D01*
X117689949Y-117740046D01*
X117689942Y-117740049D01*
X117568873Y-117817855D01*
X117474622Y-117926628D01*
X117414834Y-118057543D01*
X117394353Y-118199997D01*
X117394353Y-118200002D01*
X116502306Y-118200002D01*
X116501968Y-118199612D01*
X116488465Y-118184028D01*
X116464647Y-118127669D01*
X116473231Y-118078070D01*
X116475375Y-118073375D01*
X116475377Y-118073373D01*
X116535165Y-117942457D01*
X116551819Y-117826627D01*
X116555647Y-117800002D01*
X116555647Y-117799997D01*
X116535165Y-117657543D01*
X116508657Y-117599500D01*
X116475377Y-117526627D01*
X116381128Y-117417857D01*
X116381127Y-117417856D01*
X116381126Y-117417855D01*
X116260057Y-117340049D01*
X116260054Y-117340048D01*
X116260053Y-117340047D01*
X116231845Y-117331764D01*
X116181340Y-117297229D01*
X116160778Y-117239602D01*
X116178016Y-117180895D01*
X116223978Y-117145452D01*
X116223714Y-117144813D01*
X116226077Y-117143834D01*
X116226469Y-117143532D01*
X116227831Y-117143107D01*
X116229705Y-117142330D01*
X116229709Y-117142330D01*
X116363625Y-117086861D01*
X116478621Y-116998621D01*
X116566861Y-116883625D01*
X116622330Y-116749709D01*
X116641250Y-116606000D01*
X116634125Y-116551885D01*
X116622330Y-116462291D01*
X116566861Y-116328375D01*
X116478621Y-116213379D01*
X116363625Y-116125139D01*
X116363621Y-116125137D01*
X116229709Y-116069670D01*
X116229708Y-116069669D01*
X116086000Y-116050750D01*
X115942291Y-116069669D01*
X115942290Y-116069670D01*
X115808378Y-116125137D01*
X115808374Y-116125139D01*
X115693381Y-116213377D01*
X115693377Y-116213381D01*
X115605139Y-116328374D01*
X115605137Y-116328378D01*
X115549670Y-116462290D01*
X115549669Y-116462291D01*
X115530750Y-116605999D01*
X115530750Y-116606000D01*
X114366749Y-116606000D01*
X114342331Y-116583521D01*
X114339331Y-116580640D01*
X114162274Y-116403338D01*
X113959738Y-116200521D01*
X113931999Y-116145986D01*
X113931639Y-116117639D01*
X113931833Y-116116170D01*
X113932250Y-116113000D01*
X113931580Y-116107914D01*
X113913330Y-115969291D01*
X113857861Y-115835375D01*
X113769621Y-115720379D01*
X113662657Y-115638302D01*
X113628003Y-115587878D01*
X113629605Y-115526714D01*
X113652920Y-115489760D01*
X113905186Y-115237496D01*
X113959702Y-115209719D01*
X113975189Y-115208500D01*
X116242236Y-115208500D01*
X116300427Y-115227407D01*
X116320777Y-115247231D01*
X116323376Y-115250618D01*
X116323377Y-115250619D01*
X116323379Y-115250621D01*
X116438375Y-115338861D01*
X116572291Y-115394330D01*
X116716000Y-115413250D01*
X116859709Y-115394330D01*
X116993625Y-115338861D01*
X117108621Y-115250621D01*
X117196861Y-115135625D01*
X117252330Y-115001709D01*
X117271250Y-114858000D01*
X117271136Y-114857137D01*
X117252330Y-114714291D01*
X117196861Y-114580375D01*
X117121375Y-114482000D01*
X121844750Y-114482000D01*
X121863669Y-114625708D01*
X121863670Y-114625709D01*
X121907673Y-114731945D01*
X121919139Y-114759625D01*
X122007379Y-114874621D01*
X122122375Y-114962861D01*
X122256291Y-115018330D01*
X122400000Y-115037250D01*
X122543709Y-115018330D01*
X122677625Y-114962861D01*
X122792621Y-114874621D01*
X122880861Y-114759625D01*
X122936330Y-114625709D01*
X122955250Y-114482000D01*
X122954581Y-114476922D01*
X122936330Y-114338291D01*
X122880861Y-114204375D01*
X122792621Y-114089379D01*
X122677625Y-114001139D01*
X122677621Y-114001137D01*
X122543709Y-113945670D01*
X122543708Y-113945669D01*
X122400000Y-113926750D01*
X122256291Y-113945669D01*
X122256290Y-113945670D01*
X122122378Y-114001137D01*
X122122374Y-114001139D01*
X122007381Y-114089377D01*
X122007377Y-114089381D01*
X121919139Y-114204374D01*
X121919137Y-114204378D01*
X121863670Y-114338290D01*
X121863669Y-114338291D01*
X121844750Y-114481999D01*
X121844750Y-114482000D01*
X117121375Y-114482000D01*
X117108621Y-114465379D01*
X116993625Y-114377139D01*
X116993621Y-114377137D01*
X116859709Y-114321670D01*
X116859708Y-114321669D01*
X116716000Y-114302750D01*
X116572291Y-114321669D01*
X116572290Y-114321670D01*
X116438378Y-114377137D01*
X116438374Y-114377139D01*
X116323376Y-114465381D01*
X116320777Y-114468769D01*
X116270351Y-114503424D01*
X116242236Y-114507500D01*
X113835613Y-114507500D01*
X113815298Y-114505393D01*
X113803685Y-114502958D01*
X113773343Y-114506740D01*
X113761099Y-114507500D01*
X113759959Y-114507500D01*
X113740481Y-114510750D01*
X113736436Y-114511339D01*
X113679471Y-114518441D01*
X113679077Y-114515285D01*
X113632414Y-114514115D01*
X113583831Y-114476922D01*
X113567205Y-114433682D01*
X113553330Y-114328291D01*
X113497861Y-114194375D01*
X113409621Y-114079379D01*
X113294625Y-113991139D01*
X113294621Y-113991137D01*
X113160709Y-113935670D01*
X113160708Y-113935669D01*
X113017000Y-113916750D01*
X112873291Y-113935669D01*
X112873290Y-113935670D01*
X112739378Y-113991137D01*
X112739374Y-113991139D01*
X112624381Y-114079377D01*
X112624377Y-114079381D01*
X112536139Y-114194374D01*
X112536137Y-114194378D01*
X112480670Y-114328290D01*
X112480669Y-114328291D01*
X112461750Y-114471999D01*
X112461750Y-114472000D01*
X112480669Y-114615708D01*
X112480670Y-114615709D01*
X112527263Y-114728198D01*
X112536139Y-114749625D01*
X112624379Y-114864621D01*
X112739375Y-114952861D01*
X112873291Y-115008330D01*
X112912576Y-115013502D01*
X112967800Y-115039843D01*
X112996995Y-115093614D01*
X112989009Y-115154276D01*
X112969657Y-115181659D01*
X112561118Y-115590198D01*
X112545265Y-115603071D01*
X112535335Y-115609559D01*
X112535332Y-115609561D01*
X112516548Y-115633695D01*
X112508437Y-115642880D01*
X112507627Y-115643689D01*
X112507619Y-115643698D01*
X112496133Y-115659786D01*
X112493690Y-115663063D01*
X112463482Y-115701874D01*
X112459981Y-115708343D01*
X112456759Y-115714934D01*
X112442718Y-115762096D01*
X112441470Y-115765990D01*
X112425500Y-115812510D01*
X112424293Y-115819743D01*
X112423383Y-115827047D01*
X112425415Y-115876175D01*
X112425500Y-115880266D01*
X112425500Y-128557389D01*
X112406593Y-128615580D01*
X112357093Y-128651544D01*
X112295907Y-128651544D01*
X112256496Y-128627393D01*
X111110496Y-127481393D01*
X111082719Y-127426876D01*
X111081500Y-127411389D01*
X111081500Y-113433000D01*
X118991750Y-113433000D01*
X119010669Y-113576708D01*
X119010670Y-113576709D01*
X119066139Y-113710625D01*
X119154379Y-113825621D01*
X119269375Y-113913861D01*
X119403291Y-113969330D01*
X119547000Y-113988250D01*
X119690709Y-113969330D01*
X119824625Y-113913861D01*
X119939621Y-113825621D01*
X120027861Y-113710625D01*
X120083330Y-113576709D01*
X120102250Y-113433000D01*
X120083330Y-113289291D01*
X120027861Y-113155375D01*
X119939621Y-113040379D01*
X119824625Y-112952139D01*
X119824621Y-112952137D01*
X119690709Y-112896670D01*
X119690708Y-112896669D01*
X119547000Y-112877750D01*
X119403291Y-112896669D01*
X119403290Y-112896670D01*
X119269378Y-112952137D01*
X119269374Y-112952139D01*
X119154381Y-113040377D01*
X119154377Y-113040381D01*
X119066139Y-113155374D01*
X119066137Y-113155378D01*
X119010670Y-113289290D01*
X119010669Y-113289291D01*
X118991750Y-113432999D01*
X118991750Y-113433000D01*
X111081500Y-113433000D01*
X111081500Y-111703000D01*
X125015750Y-111703000D01*
X125034669Y-111846708D01*
X125034670Y-111846709D01*
X125080216Y-111956670D01*
X125090139Y-111980625D01*
X125178379Y-112095621D01*
X125293375Y-112183861D01*
X125427291Y-112239330D01*
X125571000Y-112258250D01*
X125714709Y-112239330D01*
X125848625Y-112183861D01*
X125963621Y-112095621D01*
X126051861Y-111980625D01*
X126082771Y-111906000D01*
X131201750Y-111906000D01*
X131220669Y-112049708D01*
X131220670Y-112049709D01*
X131272429Y-112174670D01*
X131276139Y-112183625D01*
X131364379Y-112298621D01*
X131479375Y-112386861D01*
X131613291Y-112442330D01*
X131757000Y-112461250D01*
X131900709Y-112442330D01*
X132034625Y-112386861D01*
X132149621Y-112298621D01*
X132237861Y-112183625D01*
X132293330Y-112049709D01*
X132312250Y-111906000D01*
X132293330Y-111762291D01*
X132237861Y-111628375D01*
X132149621Y-111513379D01*
X132034625Y-111425139D01*
X132034621Y-111425137D01*
X131900709Y-111369670D01*
X131900708Y-111369669D01*
X131757000Y-111350750D01*
X131613291Y-111369669D01*
X131613290Y-111369670D01*
X131479378Y-111425137D01*
X131479374Y-111425139D01*
X131364381Y-111513377D01*
X131364377Y-111513381D01*
X131276139Y-111628374D01*
X131276137Y-111628378D01*
X131220670Y-111762290D01*
X131220669Y-111762291D01*
X131201750Y-111905999D01*
X131201750Y-111906000D01*
X126082771Y-111906000D01*
X126107330Y-111846709D01*
X126126250Y-111703000D01*
X126107330Y-111559291D01*
X126051861Y-111425375D01*
X125963621Y-111310379D01*
X125848625Y-111222139D01*
X125848621Y-111222137D01*
X125714709Y-111166670D01*
X125714708Y-111166669D01*
X125571000Y-111147750D01*
X125427291Y-111166669D01*
X125427290Y-111166670D01*
X125293378Y-111222137D01*
X125293374Y-111222139D01*
X125178381Y-111310377D01*
X125178377Y-111310381D01*
X125090139Y-111425374D01*
X125090137Y-111425378D01*
X125034670Y-111559290D01*
X125034669Y-111559291D01*
X125015750Y-111702999D01*
X125015750Y-111703000D01*
X111081500Y-111703000D01*
X111081500Y-110115000D01*
X112836750Y-110115000D01*
X112855669Y-110258708D01*
X112855670Y-110258709D01*
X112898810Y-110362861D01*
X112911139Y-110392625D01*
X112999379Y-110507621D01*
X113114375Y-110595861D01*
X113248291Y-110651330D01*
X113392000Y-110670250D01*
X113535709Y-110651330D01*
X113669625Y-110595861D01*
X113784621Y-110507621D01*
X113872861Y-110392625D01*
X113928330Y-110258709D01*
X113947250Y-110115000D01*
X113935928Y-110029000D01*
X127421750Y-110029000D01*
X127440669Y-110172708D01*
X127440670Y-110172709D01*
X127482882Y-110274621D01*
X127496139Y-110306625D01*
X127584379Y-110421621D01*
X127699375Y-110509861D01*
X127833291Y-110565330D01*
X127977000Y-110584250D01*
X128120709Y-110565330D01*
X128254625Y-110509861D01*
X128369621Y-110421621D01*
X128457861Y-110306625D01*
X128513330Y-110172709D01*
X128532250Y-110029000D01*
X128513330Y-109885291D01*
X128457861Y-109751375D01*
X128369621Y-109636379D01*
X128254625Y-109548139D01*
X128254621Y-109548137D01*
X128120709Y-109492670D01*
X128120708Y-109492669D01*
X127977000Y-109473750D01*
X127833291Y-109492669D01*
X127833290Y-109492670D01*
X127699378Y-109548137D01*
X127699374Y-109548139D01*
X127584381Y-109636377D01*
X127584377Y-109636381D01*
X127496139Y-109751374D01*
X127496137Y-109751378D01*
X127440670Y-109885290D01*
X127440669Y-109885291D01*
X127421750Y-110028999D01*
X127421750Y-110029000D01*
X113935928Y-110029000D01*
X113928330Y-109971291D01*
X113872861Y-109837375D01*
X113784621Y-109722379D01*
X113669625Y-109634139D01*
X113669621Y-109634137D01*
X113535709Y-109578670D01*
X113535708Y-109578669D01*
X113392000Y-109559750D01*
X113248291Y-109578669D01*
X113248290Y-109578670D01*
X113114378Y-109634137D01*
X113114374Y-109634139D01*
X112999381Y-109722377D01*
X112999377Y-109722381D01*
X112911139Y-109837374D01*
X112911137Y-109837378D01*
X112855670Y-109971290D01*
X112855669Y-109971291D01*
X112836750Y-110114999D01*
X112836750Y-110115000D01*
X111081500Y-110115000D01*
X111081500Y-109151000D01*
X117845750Y-109151000D01*
X117864669Y-109294708D01*
X117864670Y-109294709D01*
X117920139Y-109428625D01*
X118008379Y-109543621D01*
X118123375Y-109631861D01*
X118257291Y-109687330D01*
X118401000Y-109706250D01*
X118544709Y-109687330D01*
X118678625Y-109631861D01*
X118793621Y-109543621D01*
X118881861Y-109428625D01*
X118937330Y-109294709D01*
X118942338Y-109256666D01*
X118968678Y-109201441D01*
X119022449Y-109172246D01*
X119027549Y-109171438D01*
X119134709Y-109157330D01*
X119268625Y-109101861D01*
X119383621Y-109013621D01*
X119471861Y-108898625D01*
X119527330Y-108764709D01*
X119546250Y-108621000D01*
X119543559Y-108600564D01*
X119527330Y-108477291D01*
X119471861Y-108343375D01*
X119383621Y-108228379D01*
X119268625Y-108140139D01*
X119268621Y-108140137D01*
X119134709Y-108084670D01*
X119134708Y-108084669D01*
X118991000Y-108065750D01*
X118847291Y-108084669D01*
X118847290Y-108084670D01*
X118713378Y-108140137D01*
X118713374Y-108140139D01*
X118598381Y-108228377D01*
X118598377Y-108228381D01*
X118510139Y-108343374D01*
X118510137Y-108343378D01*
X118454670Y-108477290D01*
X118449661Y-108515334D01*
X118423319Y-108570559D01*
X118369548Y-108599753D01*
X118364431Y-108600564D01*
X118257291Y-108614670D01*
X118257290Y-108614670D01*
X118123378Y-108670137D01*
X118123374Y-108670139D01*
X118008381Y-108758377D01*
X118008377Y-108758381D01*
X117920139Y-108873374D01*
X117920137Y-108873378D01*
X117864670Y-109007290D01*
X117864669Y-109007291D01*
X117845750Y-109150999D01*
X117845750Y-109151000D01*
X111081500Y-109151000D01*
X111081500Y-106198709D01*
X114429500Y-106198709D01*
X114444759Y-106329255D01*
X114444759Y-106329257D01*
X114444760Y-106329258D01*
X114504762Y-106494116D01*
X114601168Y-106640693D01*
X114601170Y-106640696D01*
X114728780Y-106761090D01*
X114728780Y-106761091D01*
X114728782Y-106761092D01*
X114880719Y-106848812D01*
X115021062Y-106890828D01*
X115048786Y-106899129D01*
X115048787Y-106899129D01*
X115048790Y-106899130D01*
X115114469Y-106902955D01*
X115223930Y-106909331D01*
X115223931Y-106909330D01*
X115223935Y-106909331D01*
X115301576Y-106895640D01*
X115362165Y-106904155D01*
X115406178Y-106946658D01*
X115416804Y-107006913D01*
X115410232Y-107031020D01*
X115373669Y-107119293D01*
X115354750Y-107262999D01*
X115354750Y-107263000D01*
X115373669Y-107406708D01*
X115373670Y-107406709D01*
X115419887Y-107518290D01*
X115429139Y-107540625D01*
X115517379Y-107655621D01*
X115632375Y-107743861D01*
X115766291Y-107799330D01*
X115910000Y-107818250D01*
X116053709Y-107799330D01*
X116187625Y-107743861D01*
X116302621Y-107655621D01*
X116390861Y-107540625D01*
X116400695Y-107516882D01*
X116440428Y-107470357D01*
X116499923Y-107456071D01*
X116556452Y-107479483D01*
X116583623Y-107516881D01*
X116610853Y-107582622D01*
X116619139Y-107602625D01*
X116707379Y-107717621D01*
X116822375Y-107805861D01*
X116956291Y-107861330D01*
X117100000Y-107880250D01*
X117243709Y-107861330D01*
X117377625Y-107805861D01*
X117492621Y-107717621D01*
X117580861Y-107602625D01*
X117636330Y-107468709D01*
X117655250Y-107325000D01*
X117647927Y-107269381D01*
X117637477Y-107190000D01*
X117851750Y-107190000D01*
X117870669Y-107333708D01*
X117870670Y-107333709D01*
X117903512Y-107412999D01*
X117926139Y-107467625D01*
X118014379Y-107582621D01*
X118129375Y-107670861D01*
X118263291Y-107726330D01*
X118407000Y-107745250D01*
X118550709Y-107726330D01*
X118684625Y-107670861D01*
X118799621Y-107582621D01*
X118887861Y-107467625D01*
X118943330Y-107333709D01*
X118959090Y-107214000D01*
X121244750Y-107214000D01*
X121263669Y-107357708D01*
X121263670Y-107357709D01*
X121314109Y-107479483D01*
X121319139Y-107491625D01*
X121407379Y-107606621D01*
X121522375Y-107694861D01*
X121656291Y-107750330D01*
X121800000Y-107769250D01*
X121943709Y-107750330D01*
X122077625Y-107694861D01*
X122192621Y-107606621D01*
X122280861Y-107491625D01*
X122313428Y-107413000D01*
X122706750Y-107413000D01*
X122725669Y-107556708D01*
X122725670Y-107556709D01*
X122772952Y-107670861D01*
X122781139Y-107690625D01*
X122869379Y-107805621D01*
X122984375Y-107893861D01*
X123118291Y-107949330D01*
X123262000Y-107968250D01*
X123405709Y-107949330D01*
X123539625Y-107893861D01*
X123654621Y-107805621D01*
X123742861Y-107690625D01*
X123754718Y-107662000D01*
X124090750Y-107662000D01*
X124109669Y-107805708D01*
X124109670Y-107805709D01*
X124146183Y-107893862D01*
X124165139Y-107939625D01*
X124253379Y-108054621D01*
X124368375Y-108142861D01*
X124502291Y-108198330D01*
X124646000Y-108217250D01*
X124789709Y-108198330D01*
X124923625Y-108142861D01*
X125038621Y-108054621D01*
X125126861Y-107939625D01*
X125182330Y-107805709D01*
X125201250Y-107662000D01*
X125193432Y-107602621D01*
X125182330Y-107518291D01*
X125126861Y-107384375D01*
X125038621Y-107269379D01*
X124923625Y-107181139D01*
X124923621Y-107181137D01*
X124789709Y-107125670D01*
X124789708Y-107125669D01*
X124646000Y-107106750D01*
X124502291Y-107125669D01*
X124502290Y-107125670D01*
X124368378Y-107181137D01*
X124368374Y-107181139D01*
X124253381Y-107269377D01*
X124253377Y-107269381D01*
X124165139Y-107384374D01*
X124165137Y-107384378D01*
X124109670Y-107518290D01*
X124109669Y-107518291D01*
X124090750Y-107661999D01*
X124090750Y-107662000D01*
X123754718Y-107662000D01*
X123798330Y-107556709D01*
X123817250Y-107413000D01*
X123798330Y-107269291D01*
X123742861Y-107135375D01*
X123687368Y-107063056D01*
X123666945Y-107005381D01*
X123684322Y-106946715D01*
X123732864Y-106909468D01*
X123771667Y-106903957D01*
X123794684Y-106905297D01*
X123863931Y-106909331D01*
X123863931Y-106909330D01*
X123863935Y-106909331D01*
X123992516Y-106886658D01*
X124036707Y-106878866D01*
X124036708Y-106878865D01*
X124036711Y-106878865D01*
X124197804Y-106809377D01*
X124338530Y-106704610D01*
X124451302Y-106570214D01*
X124530040Y-106413433D01*
X124530041Y-106413425D01*
X124530043Y-106413423D01*
X124570500Y-106242722D01*
X124570500Y-105011295D01*
X124570500Y-105011291D01*
X124555241Y-104880745D01*
X124495237Y-104715883D01*
X124398830Y-104569304D01*
X124271219Y-104448908D01*
X124155576Y-104382143D01*
X124119281Y-104361188D01*
X124077263Y-104348608D01*
X123951213Y-104310870D01*
X123951206Y-104310869D01*
X123776068Y-104300668D01*
X123603292Y-104331133D01*
X123442197Y-104400622D01*
X123442195Y-104400623D01*
X123301470Y-104505389D01*
X123301468Y-104505391D01*
X123188699Y-104639783D01*
X123155537Y-104705815D01*
X123109960Y-104796567D01*
X123109959Y-104796568D01*
X123109959Y-104796570D01*
X123109956Y-104796576D01*
X123069500Y-104967277D01*
X123069500Y-104967279D01*
X123069500Y-106198709D01*
X123084759Y-106329255D01*
X123084759Y-106329257D01*
X123084760Y-106329258D01*
X123144762Y-106494116D01*
X123194813Y-106570214D01*
X123241170Y-106640696D01*
X123294073Y-106690608D01*
X123323424Y-106744292D01*
X123315615Y-106804977D01*
X123273627Y-106849482D01*
X123239058Y-106860770D01*
X123118291Y-106876670D01*
X123118290Y-106876670D01*
X122984378Y-106932137D01*
X122984374Y-106932139D01*
X122869381Y-107020377D01*
X122869377Y-107020381D01*
X122781139Y-107135374D01*
X122781137Y-107135378D01*
X122725670Y-107269290D01*
X122725669Y-107269291D01*
X122706750Y-107412999D01*
X122706750Y-107413000D01*
X122313428Y-107413000D01*
X122336330Y-107357709D01*
X122355250Y-107214000D01*
X122350923Y-107181137D01*
X122336330Y-107070291D01*
X122280861Y-106936375D01*
X122192621Y-106821379D01*
X122077625Y-106733139D01*
X122077621Y-106733137D01*
X121943709Y-106677670D01*
X121943708Y-106677669D01*
X121800000Y-106658750D01*
X121656291Y-106677669D01*
X121656290Y-106677670D01*
X121522378Y-106733137D01*
X121522374Y-106733139D01*
X121407381Y-106821377D01*
X121407377Y-106821381D01*
X121319139Y-106936374D01*
X121319137Y-106936378D01*
X121263670Y-107070290D01*
X121263669Y-107070291D01*
X121244750Y-107213999D01*
X121244750Y-107214000D01*
X118959090Y-107214000D01*
X118962250Y-107190000D01*
X118961103Y-107181291D01*
X118943330Y-107046291D01*
X118887861Y-106912375D01*
X118799621Y-106797379D01*
X118684625Y-106709139D01*
X118684621Y-106709137D01*
X118550709Y-106653670D01*
X118550708Y-106653669D01*
X118407000Y-106634750D01*
X118263291Y-106653669D01*
X118263290Y-106653670D01*
X118129378Y-106709137D01*
X118129374Y-106709139D01*
X118014381Y-106797377D01*
X118014377Y-106797381D01*
X117926139Y-106912374D01*
X117926137Y-106912378D01*
X117870670Y-107046290D01*
X117870669Y-107046291D01*
X117851750Y-107189999D01*
X117851750Y-107190000D01*
X117637477Y-107190000D01*
X117636330Y-107181291D01*
X117580861Y-107047375D01*
X117492621Y-106932379D01*
X117377625Y-106844139D01*
X117377621Y-106844137D01*
X117243709Y-106788670D01*
X117243708Y-106788669D01*
X117100000Y-106769750D01*
X116956291Y-106788669D01*
X116956290Y-106788670D01*
X116822378Y-106844137D01*
X116822374Y-106844139D01*
X116707381Y-106932377D01*
X116707377Y-106932381D01*
X116619139Y-107047374D01*
X116619138Y-107047376D01*
X116609304Y-107071119D01*
X116569567Y-107117645D01*
X116510072Y-107131928D01*
X116453544Y-107108513D01*
X116426376Y-107071118D01*
X116426033Y-107070291D01*
X116390861Y-106985375D01*
X116302621Y-106870379D01*
X116187625Y-106782139D01*
X116187621Y-106782137D01*
X116053709Y-106726670D01*
X116053708Y-106726669D01*
X115910000Y-106707750D01*
X115903511Y-106707750D01*
X115903511Y-106704788D01*
X115855356Y-106695817D01*
X115813281Y-106651396D01*
X115805352Y-106590726D01*
X115814205Y-106564432D01*
X115890040Y-106413433D01*
X115890041Y-106413425D01*
X115890043Y-106413423D01*
X115930500Y-106242722D01*
X115930500Y-105011295D01*
X115930500Y-105011291D01*
X115915241Y-104880745D01*
X115855237Y-104715883D01*
X115758830Y-104569304D01*
X115631219Y-104448908D01*
X115515576Y-104382143D01*
X115479281Y-104361188D01*
X115437263Y-104348608D01*
X115311213Y-104310870D01*
X115311206Y-104310869D01*
X115136068Y-104300668D01*
X114963292Y-104331133D01*
X114802197Y-104400622D01*
X114802195Y-104400623D01*
X114661470Y-104505389D01*
X114661468Y-104505391D01*
X114548699Y-104639783D01*
X114515537Y-104705815D01*
X114469960Y-104796567D01*
X114469959Y-104796568D01*
X114469959Y-104796570D01*
X114469956Y-104796576D01*
X114429500Y-104967277D01*
X114429500Y-104967279D01*
X114429500Y-106198709D01*
X111081500Y-106198709D01*
X111081500Y-104622033D01*
X111100407Y-104563842D01*
X111149907Y-104527878D01*
X111211093Y-104527878D01*
X111218351Y-104530556D01*
X111232291Y-104536330D01*
X111376000Y-104555250D01*
X111519709Y-104536330D01*
X111653625Y-104480861D01*
X111747276Y-104409000D01*
X112256750Y-104409000D01*
X112275669Y-104552708D01*
X112275670Y-104552709D01*
X112327288Y-104677329D01*
X112331139Y-104686625D01*
X112419379Y-104801621D01*
X112534375Y-104889861D01*
X112668291Y-104945330D01*
X112812000Y-104964250D01*
X112955709Y-104945330D01*
X113089625Y-104889861D01*
X113204621Y-104801621D01*
X113292861Y-104686625D01*
X113348330Y-104552709D01*
X113367250Y-104409000D01*
X113357936Y-104338258D01*
X113352899Y-104300000D01*
X115944750Y-104300000D01*
X115963669Y-104443708D01*
X115963670Y-104443709D01*
X116008818Y-104552709D01*
X116019139Y-104577625D01*
X116107379Y-104692621D01*
X116107383Y-104692624D01*
X116107384Y-104692625D01*
X116170683Y-104741196D01*
X116205339Y-104791620D01*
X116203738Y-104852785D01*
X116193701Y-104873260D01*
X116173023Y-104905436D01*
X116173022Y-104905438D01*
X116173022Y-104905439D01*
X116166526Y-104927560D01*
X116134500Y-105036631D01*
X116134500Y-105173368D01*
X116167669Y-105286330D01*
X116173022Y-105304561D01*
X116246945Y-105419589D01*
X116350282Y-105509130D01*
X116350283Y-105509130D01*
X116350284Y-105509131D01*
X116474654Y-105565930D01*
X116474657Y-105565930D01*
X116474658Y-105565931D01*
X116474659Y-105565931D01*
X116474663Y-105565932D01*
X116575984Y-105580500D01*
X116575989Y-105580500D01*
X116644016Y-105580500D01*
X116745336Y-105565932D01*
X116745337Y-105565931D01*
X116745342Y-105565931D01*
X116745343Y-105565930D01*
X116745345Y-105565930D01*
X116807530Y-105537530D01*
X116869718Y-105509130D01*
X116973055Y-105419589D01*
X117046978Y-105304561D01*
X117085500Y-105173367D01*
X117085500Y-105036633D01*
X117046978Y-104905439D01*
X116973055Y-104790411D01*
X116950167Y-104770578D01*
X116937758Y-104750000D01*
X121094750Y-104750000D01*
X121113669Y-104893708D01*
X121113670Y-104893709D01*
X121142888Y-104964250D01*
X121169139Y-105027625D01*
X121257379Y-105142621D01*
X121372375Y-105230861D01*
X121506291Y-105286330D01*
X121650000Y-105305250D01*
X121793709Y-105286330D01*
X121833839Y-105269707D01*
X121894833Y-105264907D01*
X121947002Y-105296876D01*
X121955006Y-105307649D01*
X122026943Y-105419587D01*
X122026944Y-105419588D01*
X122026945Y-105419589D01*
X122130282Y-105509130D01*
X122130283Y-105509130D01*
X122130284Y-105509131D01*
X122254654Y-105565930D01*
X122254657Y-105565930D01*
X122254658Y-105565931D01*
X122254659Y-105565931D01*
X122254663Y-105565932D01*
X122355984Y-105580500D01*
X122355989Y-105580500D01*
X122424016Y-105580500D01*
X122525336Y-105565932D01*
X122525337Y-105565931D01*
X122525342Y-105565931D01*
X122525343Y-105565930D01*
X122525345Y-105565930D01*
X122587530Y-105537530D01*
X122649718Y-105509130D01*
X122753055Y-105419589D01*
X122826978Y-105304561D01*
X122865500Y-105173367D01*
X122865500Y-105036633D01*
X122826978Y-104905439D01*
X122753055Y-104790411D01*
X122649718Y-104700870D01*
X122649716Y-104700869D01*
X122649715Y-104700868D01*
X122525345Y-104644069D01*
X122525336Y-104644067D01*
X122424016Y-104629500D01*
X122424011Y-104629500D01*
X122355989Y-104629500D01*
X122355984Y-104629500D01*
X122281061Y-104640272D01*
X122220772Y-104629839D01*
X122178129Y-104585961D01*
X122175508Y-104580165D01*
X122174454Y-104577621D01*
X122136422Y-104485801D01*
X122130862Y-104472377D01*
X122130860Y-104472374D01*
X122112854Y-104448908D01*
X122042621Y-104357379D01*
X121927625Y-104269139D01*
X121927621Y-104269137D01*
X121793709Y-104213670D01*
X121793708Y-104213669D01*
X121650000Y-104194750D01*
X121506291Y-104213669D01*
X121506290Y-104213670D01*
X121372378Y-104269137D01*
X121372374Y-104269139D01*
X121257381Y-104357377D01*
X121257377Y-104357381D01*
X121169139Y-104472374D01*
X121169137Y-104472378D01*
X121113670Y-104606290D01*
X121113669Y-104606291D01*
X121094750Y-104749999D01*
X121094750Y-104750000D01*
X116937758Y-104750000D01*
X116918572Y-104718184D01*
X116923807Y-104657223D01*
X116936458Y-104635492D01*
X116958865Y-104606290D01*
X116980861Y-104577625D01*
X117036330Y-104443709D01*
X117042942Y-104393481D01*
X117069283Y-104338258D01*
X117123053Y-104309063D01*
X117147511Y-104308423D01*
X117147511Y-104308250D01*
X117154000Y-104308250D01*
X117297709Y-104289330D01*
X117431625Y-104233861D01*
X117546621Y-104145621D01*
X117550167Y-104141000D01*
X118923750Y-104141000D01*
X118942669Y-104284708D01*
X118942670Y-104284709D01*
X118987366Y-104392618D01*
X118998139Y-104418625D01*
X119086379Y-104533621D01*
X119201375Y-104621861D01*
X119335291Y-104677330D01*
X119479000Y-104696250D01*
X119622709Y-104677330D01*
X119756625Y-104621861D01*
X119871621Y-104533621D01*
X119959861Y-104418625D01*
X120015330Y-104284709D01*
X120034250Y-104141000D01*
X120015330Y-103997291D01*
X119959861Y-103863375D01*
X119871621Y-103748379D01*
X119756625Y-103660139D01*
X119756621Y-103660137D01*
X119622709Y-103604670D01*
X119622708Y-103604669D01*
X119479000Y-103585750D01*
X119335291Y-103604669D01*
X119335290Y-103604670D01*
X119201378Y-103660137D01*
X119201374Y-103660139D01*
X119086381Y-103748377D01*
X119086377Y-103748381D01*
X118998139Y-103863374D01*
X118998137Y-103863378D01*
X118942670Y-103997290D01*
X118942669Y-103997291D01*
X118923750Y-104140999D01*
X118923750Y-104141000D01*
X117550167Y-104141000D01*
X117634861Y-104030625D01*
X117690330Y-103896709D01*
X117709250Y-103753000D01*
X117705218Y-103722378D01*
X117690330Y-103609291D01*
X117674055Y-103570000D01*
X125146750Y-103570000D01*
X125165669Y-103713708D01*
X125165670Y-103713709D01*
X125180030Y-103748379D01*
X125221139Y-103847625D01*
X125309379Y-103962621D01*
X125424375Y-104050861D01*
X125558291Y-104106330D01*
X125599739Y-104111786D01*
X125654963Y-104138126D01*
X125676870Y-104168812D01*
X125720932Y-104265291D01*
X125724623Y-104273373D01*
X125797414Y-104357379D01*
X125818873Y-104382144D01*
X125922762Y-104448909D01*
X125939947Y-104459953D01*
X126027982Y-104485802D01*
X126078035Y-104500499D01*
X126078036Y-104500499D01*
X126078039Y-104500500D01*
X126078041Y-104500500D01*
X126221959Y-104500500D01*
X126221961Y-104500500D01*
X126360053Y-104459953D01*
X126481128Y-104382143D01*
X126575377Y-104273373D01*
X126635165Y-104142457D01*
X126648334Y-104050862D01*
X126655647Y-104000002D01*
X128744353Y-104000002D01*
X128764834Y-104142456D01*
X128820932Y-104265291D01*
X128824623Y-104273373D01*
X128897414Y-104357379D01*
X128918873Y-104382144D01*
X129022762Y-104448909D01*
X129039947Y-104459953D01*
X129127982Y-104485802D01*
X129178035Y-104500499D01*
X129178036Y-104500499D01*
X129178039Y-104500500D01*
X129178041Y-104500500D01*
X129321959Y-104500500D01*
X129321961Y-104500500D01*
X129460053Y-104459953D01*
X129581128Y-104382143D01*
X129675377Y-104273373D01*
X129735165Y-104142457D01*
X129748334Y-104050862D01*
X129755647Y-104000002D01*
X129755647Y-103999997D01*
X129735165Y-103857543D01*
X129730634Y-103847621D01*
X129675377Y-103726627D01*
X129581128Y-103617857D01*
X129581127Y-103617856D01*
X129581126Y-103617855D01*
X129460057Y-103540049D01*
X129460054Y-103540047D01*
X129460053Y-103540047D01*
X129460050Y-103540046D01*
X129321964Y-103499500D01*
X129321961Y-103499500D01*
X129178039Y-103499500D01*
X129178035Y-103499500D01*
X129039949Y-103540046D01*
X129039942Y-103540049D01*
X128918873Y-103617855D01*
X128824622Y-103726628D01*
X128764834Y-103857543D01*
X128744353Y-103999997D01*
X128744353Y-104000002D01*
X126655647Y-104000002D01*
X126655647Y-103999997D01*
X126635165Y-103857543D01*
X126630634Y-103847621D01*
X126575377Y-103726627D01*
X126481128Y-103617857D01*
X126481127Y-103617856D01*
X126481126Y-103617855D01*
X126360057Y-103540049D01*
X126360054Y-103540048D01*
X126360053Y-103540047D01*
X126310860Y-103525602D01*
X126260354Y-103491067D01*
X126240600Y-103443535D01*
X126238330Y-103426291D01*
X126182861Y-103292375D01*
X126094621Y-103177379D01*
X125979625Y-103089139D01*
X125979621Y-103089137D01*
X125845709Y-103033670D01*
X125845708Y-103033669D01*
X125702000Y-103014750D01*
X125558291Y-103033669D01*
X125558290Y-103033670D01*
X125424378Y-103089137D01*
X125424374Y-103089139D01*
X125309381Y-103177377D01*
X125309377Y-103177381D01*
X125221139Y-103292374D01*
X125221137Y-103292378D01*
X125165670Y-103426290D01*
X125165669Y-103426291D01*
X125146750Y-103569999D01*
X125146750Y-103570000D01*
X117674055Y-103570000D01*
X117634861Y-103475375D01*
X117546621Y-103360379D01*
X117431625Y-103272139D01*
X117431621Y-103272137D01*
X117297709Y-103216670D01*
X117297708Y-103216669D01*
X117154000Y-103197750D01*
X117010291Y-103216669D01*
X117010290Y-103216670D01*
X116876378Y-103272137D01*
X116876374Y-103272139D01*
X116761381Y-103360377D01*
X116761377Y-103360381D01*
X116673139Y-103475374D01*
X116673137Y-103475378D01*
X116617670Y-103609290D01*
X116611057Y-103659518D01*
X116584715Y-103714742D01*
X116530944Y-103743936D01*
X116506488Y-103744577D01*
X116506488Y-103744750D01*
X116500000Y-103744750D01*
X116356291Y-103763669D01*
X116356290Y-103763670D01*
X116222378Y-103819137D01*
X116222374Y-103819139D01*
X116107381Y-103907377D01*
X116107377Y-103907381D01*
X116019139Y-104022374D01*
X116019137Y-104022378D01*
X115963670Y-104156290D01*
X115963669Y-104156291D01*
X115944750Y-104299999D01*
X115944750Y-104300000D01*
X113352899Y-104300000D01*
X113348330Y-104265291D01*
X113292861Y-104131375D01*
X113204621Y-104016379D01*
X113089625Y-103928139D01*
X113089621Y-103928137D01*
X112955709Y-103872670D01*
X112955708Y-103872669D01*
X112812000Y-103853750D01*
X112668291Y-103872669D01*
X112668290Y-103872670D01*
X112534378Y-103928137D01*
X112534374Y-103928139D01*
X112419381Y-104016377D01*
X112419380Y-104016377D01*
X112419379Y-104016379D01*
X112403699Y-104036814D01*
X112331139Y-104131374D01*
X112331137Y-104131378D01*
X112275670Y-104265290D01*
X112275669Y-104265291D01*
X112256750Y-104408999D01*
X112256750Y-104409000D01*
X111747276Y-104409000D01*
X111768621Y-104392621D01*
X111856861Y-104277625D01*
X111912330Y-104143709D01*
X111931250Y-104000000D01*
X111926328Y-103962618D01*
X111912330Y-103856291D01*
X111856861Y-103722375D01*
X111768621Y-103607379D01*
X111653625Y-103519139D01*
X111653621Y-103519137D01*
X111519709Y-103463670D01*
X111519708Y-103463669D01*
X111376000Y-103444750D01*
X111232294Y-103463669D01*
X111232291Y-103463669D01*
X111232291Y-103463670D01*
X111218381Y-103469431D01*
X111157388Y-103474230D01*
X111105219Y-103442261D01*
X111081805Y-103385732D01*
X111081500Y-103377966D01*
X111081500Y-102881185D01*
X131499500Y-102881185D01*
X131538603Y-103140609D01*
X131538605Y-103140619D01*
X131615937Y-103391325D01*
X131701983Y-103570000D01*
X131729772Y-103627704D01*
X131877567Y-103844479D01*
X131877570Y-103844482D01*
X131877572Y-103844485D01*
X132056017Y-104036803D01*
X132056029Y-104036814D01*
X132261134Y-104200379D01*
X132261143Y-104200386D01*
X132261147Y-104200388D01*
X132261148Y-104200389D01*
X132488344Y-104331561D01*
X132488348Y-104331563D01*
X132488357Y-104331568D01*
X132563828Y-104361188D01*
X132732580Y-104427419D01*
X132732583Y-104427419D01*
X132732584Y-104427420D01*
X132988370Y-104485802D01*
X133053748Y-104490701D01*
X133184498Y-104500500D01*
X133184506Y-104500500D01*
X133315502Y-104500500D01*
X133436193Y-104491455D01*
X133511630Y-104485802D01*
X133767416Y-104427420D01*
X133789826Y-104418625D01*
X133814352Y-104408999D01*
X134011643Y-104331568D01*
X134238857Y-104200386D01*
X134426354Y-104050862D01*
X134443970Y-104036814D01*
X134443971Y-104036812D01*
X134443981Y-104036805D01*
X134622433Y-103844479D01*
X134770228Y-103627704D01*
X134884063Y-103391323D01*
X134961396Y-103140615D01*
X135000500Y-102881182D01*
X135000500Y-102618818D01*
X134961396Y-102359385D01*
X134884063Y-102108677D01*
X134883935Y-102108412D01*
X134807136Y-101948936D01*
X134770228Y-101872296D01*
X134622433Y-101655521D01*
X134596549Y-101627625D01*
X134443982Y-101463196D01*
X134443970Y-101463185D01*
X134238865Y-101299620D01*
X134238851Y-101299610D01*
X134011655Y-101168438D01*
X134011646Y-101168433D01*
X134011643Y-101168432D01*
X134011639Y-101168430D01*
X134011636Y-101168429D01*
X133767419Y-101072580D01*
X133511631Y-101014198D01*
X133511625Y-101014197D01*
X133315502Y-100999500D01*
X133315494Y-100999500D01*
X133184506Y-100999500D01*
X133184498Y-100999500D01*
X132988374Y-101014197D01*
X132988368Y-101014198D01*
X132732580Y-101072580D01*
X132488363Y-101168429D01*
X132488344Y-101168438D01*
X132261148Y-101299610D01*
X132261134Y-101299620D01*
X132056029Y-101463185D01*
X132056017Y-101463196D01*
X131877572Y-101655514D01*
X131877567Y-101655520D01*
X131877567Y-101655521D01*
X131729772Y-101872296D01*
X131729770Y-101872299D01*
X131729768Y-101872303D01*
X131615937Y-102108674D01*
X131538605Y-102359380D01*
X131538603Y-102359390D01*
X131499500Y-102618814D01*
X131499500Y-102881185D01*
X111081500Y-102881185D01*
X111081500Y-102182862D01*
X111082122Y-102171779D01*
X111082985Y-102164116D01*
X111086270Y-102134965D01*
X111079654Y-102100000D01*
X112044750Y-102100000D01*
X112063669Y-102243708D01*
X112063670Y-102243709D01*
X112111581Y-102359380D01*
X112119139Y-102377625D01*
X112207379Y-102492621D01*
X112322375Y-102580861D01*
X112456291Y-102636330D01*
X112600000Y-102655250D01*
X112743709Y-102636330D01*
X112877625Y-102580861D01*
X112992621Y-102492621D01*
X113080861Y-102377625D01*
X113136330Y-102243709D01*
X113155250Y-102100000D01*
X113136330Y-101956291D01*
X113080861Y-101822375D01*
X112992621Y-101707379D01*
X112877625Y-101619139D01*
X112877621Y-101619137D01*
X112743709Y-101563670D01*
X112743708Y-101563669D01*
X112600000Y-101544750D01*
X112456291Y-101563669D01*
X112456290Y-101563670D01*
X112322378Y-101619137D01*
X112322374Y-101619139D01*
X112207381Y-101707377D01*
X112207377Y-101707381D01*
X112119139Y-101822374D01*
X112119137Y-101822378D01*
X112063670Y-101956290D01*
X112063669Y-101956291D01*
X112044750Y-102099999D01*
X112044750Y-102100000D01*
X111079654Y-102100000D01*
X111076519Y-102083433D01*
X111075553Y-102078326D01*
X111074933Y-102074675D01*
X111066348Y-102017715D01*
X111066348Y-102017713D01*
X111066346Y-102017709D01*
X111064160Y-102010622D01*
X111064582Y-102010491D01*
X111063890Y-102008388D01*
X111063474Y-102008534D01*
X111061023Y-102001528D01*
X111034081Y-101950554D01*
X111032425Y-101947274D01*
X111007425Y-101895358D01*
X111007424Y-101895357D01*
X111007424Y-101895356D01*
X111003244Y-101889225D01*
X111003607Y-101888977D01*
X111002324Y-101887169D01*
X111001970Y-101887431D01*
X110997565Y-101881461D01*
X110956811Y-101840707D01*
X110954242Y-101838040D01*
X110915056Y-101795806D01*
X110909258Y-101791183D01*
X110909532Y-101790839D01*
X110898397Y-101782294D01*
X110212601Y-101096498D01*
X110184824Y-101041981D01*
X110184452Y-101039413D01*
X110182330Y-101023291D01*
X110126861Y-100889375D01*
X110038621Y-100774379D01*
X109923625Y-100686139D01*
X109923624Y-100686138D01*
X109923622Y-100686137D01*
X109921197Y-100684737D01*
X109919854Y-100683245D01*
X109918477Y-100682189D01*
X109918672Y-100681933D01*
X109880255Y-100639268D01*
X109873859Y-100578418D01*
X109904451Y-100525429D01*
X109960347Y-100500542D01*
X109970696Y-100500000D01*
X114443331Y-100500000D01*
X114501522Y-100518907D01*
X114537486Y-100568407D01*
X114537486Y-100629593D01*
X114531801Y-100643430D01*
X114469960Y-100766566D01*
X114467985Y-100771993D01*
X114465756Y-100771181D01*
X114439024Y-100815083D01*
X114382563Y-100838658D01*
X114336632Y-100831449D01*
X114293709Y-100813670D01*
X114293708Y-100813669D01*
X114150000Y-100794750D01*
X114006291Y-100813669D01*
X114006290Y-100813670D01*
X113872378Y-100869137D01*
X113872374Y-100869139D01*
X113757381Y-100957377D01*
X113757377Y-100957381D01*
X113669139Y-101072374D01*
X113669137Y-101072378D01*
X113613670Y-101206290D01*
X113613669Y-101206291D01*
X113594750Y-101349999D01*
X113594750Y-101350000D01*
X113613669Y-101493708D01*
X113613670Y-101493709D01*
X113642693Y-101563779D01*
X113669139Y-101627625D01*
X113757379Y-101742621D01*
X113872375Y-101830861D01*
X114006291Y-101886330D01*
X114150000Y-101905250D01*
X114293709Y-101886330D01*
X114304182Y-101881991D01*
X114365176Y-101877188D01*
X114417346Y-101909155D01*
X114440399Y-101961960D01*
X114444758Y-101999252D01*
X114444758Y-101999254D01*
X114504762Y-102164116D01*
X114601168Y-102310693D01*
X114601170Y-102310696D01*
X114728780Y-102431090D01*
X114728780Y-102431091D01*
X114728782Y-102431092D01*
X114880719Y-102518812D01*
X115021062Y-102560828D01*
X115048786Y-102569129D01*
X115048787Y-102569129D01*
X115048790Y-102569130D01*
X115123852Y-102573501D01*
X115223931Y-102579331D01*
X115223931Y-102579330D01*
X115223935Y-102579331D01*
X115345795Y-102557843D01*
X115396707Y-102548866D01*
X115396708Y-102548865D01*
X115396711Y-102548865D01*
X115557804Y-102479377D01*
X115698530Y-102374610D01*
X115811302Y-102240214D01*
X115890040Y-102083433D01*
X115890041Y-102083425D01*
X115890043Y-102083423D01*
X115930500Y-101912722D01*
X115930500Y-100981295D01*
X115927705Y-100957381D01*
X115915241Y-100850745D01*
X115855237Y-100685883D01*
X115855236Y-100685881D01*
X115833874Y-100653401D01*
X115817694Y-100594394D01*
X115839288Y-100537146D01*
X115890408Y-100503524D01*
X115916587Y-100500000D01*
X123083331Y-100500000D01*
X123141522Y-100518907D01*
X123177486Y-100568407D01*
X123177486Y-100629593D01*
X123171801Y-100643430D01*
X123109960Y-100766566D01*
X123109956Y-100766576D01*
X123069500Y-100937277D01*
X123069500Y-100937279D01*
X123069500Y-101868709D01*
X123084759Y-101999255D01*
X123084759Y-101999257D01*
X123084760Y-101999258D01*
X123144762Y-102164116D01*
X123241168Y-102310693D01*
X123241170Y-102310696D01*
X123368780Y-102431090D01*
X123368780Y-102431091D01*
X123368782Y-102431092D01*
X123520719Y-102518812D01*
X123661062Y-102560828D01*
X123688786Y-102569129D01*
X123688787Y-102569129D01*
X123688790Y-102569130D01*
X123763852Y-102573501D01*
X123863931Y-102579331D01*
X123863931Y-102579330D01*
X123863935Y-102579331D01*
X123985795Y-102557843D01*
X124036707Y-102548866D01*
X124036708Y-102548865D01*
X124036711Y-102548865D01*
X124197804Y-102479377D01*
X124338530Y-102374610D01*
X124451302Y-102240214D01*
X124530040Y-102083433D01*
X124530041Y-102083425D01*
X124530043Y-102083423D01*
X124570500Y-101912722D01*
X124570500Y-100981295D01*
X124567705Y-100957381D01*
X124555241Y-100850745D01*
X124495237Y-100685883D01*
X124495236Y-100685881D01*
X124473874Y-100653401D01*
X124457694Y-100594394D01*
X124479288Y-100537146D01*
X124530408Y-100503524D01*
X124556587Y-100500000D01*
X133987808Y-100500000D01*
X134025694Y-100507536D01*
X134166134Y-100565708D01*
X134176136Y-100570525D01*
X134219324Y-100594394D01*
X134382788Y-100684737D01*
X134431354Y-100711578D01*
X134440755Y-100717485D01*
X134678575Y-100886228D01*
X134687254Y-100893149D01*
X134717388Y-100920078D01*
X134904697Y-101087467D01*
X134912532Y-101095302D01*
X135006053Y-101199952D01*
X135106850Y-101312745D01*
X135113771Y-101321424D01*
X135282514Y-101559244D01*
X135288421Y-101568645D01*
X135429474Y-101823863D01*
X135434291Y-101833865D01*
X135459762Y-101895356D01*
X135492464Y-101974306D01*
X135500000Y-102012190D01*
X135500000Y-129106825D01*
X135491112Y-129134178D01*
X135500000Y-129169174D01*
X135500000Y-133987808D01*
X135492464Y-134025694D01*
X135434291Y-134166134D01*
X135429474Y-134176136D01*
X135288421Y-134431354D01*
X135282514Y-134440755D01*
X135113771Y-134678575D01*
X135106850Y-134687254D01*
X134912540Y-134904689D01*
X134904689Y-134912540D01*
X134687254Y-135106850D01*
X134678575Y-135113771D01*
X134440755Y-135282514D01*
X134431354Y-135288421D01*
X134176136Y-135429474D01*
X134166134Y-135434291D01*
X134025694Y-135492464D01*
X133987808Y-135500000D01*
X102012192Y-135500000D01*
X101974306Y-135492464D01*
X101833865Y-135434291D01*
X101823863Y-135429474D01*
X101568645Y-135288421D01*
X101559244Y-135282514D01*
X101321424Y-135113771D01*
X101312745Y-135106850D01*
X101177290Y-134985801D01*
X101095302Y-134912532D01*
X101087467Y-134904697D01*
X100943678Y-134743797D01*
X100893149Y-134687254D01*
X100886228Y-134678575D01*
X100717485Y-134440755D01*
X100711578Y-134431354D01*
X100700676Y-134411629D01*
X100570525Y-134176136D01*
X100565708Y-134166134D01*
X100507536Y-134025694D01*
X100500000Y-133987808D01*
X100500000Y-133381185D01*
X100999500Y-133381185D01*
X101038603Y-133640609D01*
X101038605Y-133640619D01*
X101115937Y-133891325D01*
X101229768Y-134127696D01*
X101229772Y-134127704D01*
X101377567Y-134344479D01*
X101377570Y-134344482D01*
X101377572Y-134344485D01*
X101556017Y-134536803D01*
X101556029Y-134536814D01*
X101733793Y-134678575D01*
X101761143Y-134700386D01*
X101761147Y-134700388D01*
X101761148Y-134700389D01*
X101988344Y-134831561D01*
X101988348Y-134831563D01*
X101988357Y-134831568D01*
X102082072Y-134868348D01*
X102232580Y-134927419D01*
X102232583Y-134927419D01*
X102232584Y-134927420D01*
X102488370Y-134985802D01*
X102553748Y-134990701D01*
X102684498Y-135000500D01*
X102684506Y-135000500D01*
X102815502Y-135000500D01*
X102936193Y-134991455D01*
X103011630Y-134985802D01*
X103267416Y-134927420D01*
X103511643Y-134831568D01*
X103738857Y-134700386D01*
X103888874Y-134580750D01*
X103943970Y-134536814D01*
X103943971Y-134536812D01*
X103943981Y-134536805D01*
X104119286Y-134347871D01*
X106699500Y-134347871D01*
X106705908Y-134407478D01*
X106705910Y-134407489D01*
X106756202Y-134542329D01*
X106772166Y-134563654D01*
X106842453Y-134657547D01*
X106899670Y-134700379D01*
X106957670Y-134743797D01*
X107092510Y-134794089D01*
X107092511Y-134794089D01*
X107092516Y-134794091D01*
X107152126Y-134800500D01*
X107152129Y-134800500D01*
X109847871Y-134800500D01*
X109847874Y-134800500D01*
X109907484Y-134794091D01*
X109954303Y-134776628D01*
X110042329Y-134743797D01*
X110042329Y-134743796D01*
X110042331Y-134743796D01*
X110157547Y-134657547D01*
X110243796Y-134542331D01*
X110294091Y-134407484D01*
X110300500Y-134347874D01*
X110300500Y-133000002D01*
X112694451Y-133000002D01*
X112714616Y-133269098D01*
X112714618Y-133269107D01*
X112774666Y-133532197D01*
X112873254Y-133783391D01*
X112873257Y-133783398D01*
X113008185Y-134017102D01*
X113008189Y-134017108D01*
X113008191Y-134017110D01*
X113176434Y-134228081D01*
X113176440Y-134228087D01*
X113374252Y-134411629D01*
X113374254Y-134411630D01*
X113374259Y-134411635D01*
X113597226Y-134563651D01*
X113840359Y-134680738D01*
X114098228Y-134760280D01*
X114365071Y-134800500D01*
X114365076Y-134800500D01*
X114634924Y-134800500D01*
X114634929Y-134800500D01*
X114901772Y-134760280D01*
X115159641Y-134680738D01*
X115402775Y-134563651D01*
X115625741Y-134411635D01*
X115823561Y-134228085D01*
X115823565Y-134228081D01*
X115984963Y-134025694D01*
X115991815Y-134017102D01*
X116126743Y-133783398D01*
X116225334Y-133532195D01*
X116259801Y-133381185D01*
X131499500Y-133381185D01*
X131538603Y-133640609D01*
X131538605Y-133640619D01*
X131615937Y-133891325D01*
X131729768Y-134127696D01*
X131729772Y-134127704D01*
X131877567Y-134344479D01*
X131877570Y-134344482D01*
X131877572Y-134344485D01*
X132056017Y-134536803D01*
X132056029Y-134536814D01*
X132233793Y-134678575D01*
X132261143Y-134700386D01*
X132261147Y-134700388D01*
X132261148Y-134700389D01*
X132488344Y-134831561D01*
X132488348Y-134831563D01*
X132488357Y-134831568D01*
X132582072Y-134868348D01*
X132732580Y-134927419D01*
X132732583Y-134927419D01*
X132732584Y-134927420D01*
X132988370Y-134985802D01*
X133053748Y-134990701D01*
X133184498Y-135000500D01*
X133184506Y-135000500D01*
X133315502Y-135000500D01*
X133436193Y-134991455D01*
X133511630Y-134985802D01*
X133767416Y-134927420D01*
X134011643Y-134831568D01*
X134238857Y-134700386D01*
X134388874Y-134580750D01*
X134443970Y-134536814D01*
X134443971Y-134536812D01*
X134443981Y-134536805D01*
X134622433Y-134344479D01*
X134770228Y-134127704D01*
X134884063Y-133891323D01*
X134961396Y-133640615D01*
X135000500Y-133381182D01*
X135000500Y-133118818D01*
X134961396Y-132859385D01*
X134884063Y-132608677D01*
X134770228Y-132372296D01*
X134622433Y-132155521D01*
X134443981Y-131963195D01*
X134443980Y-131963194D01*
X134443970Y-131963185D01*
X134238865Y-131799620D01*
X134238851Y-131799610D01*
X134011655Y-131668438D01*
X134011646Y-131668433D01*
X134011643Y-131668432D01*
X134011639Y-131668430D01*
X134011636Y-131668429D01*
X133767419Y-131572580D01*
X133511631Y-131514198D01*
X133511625Y-131514197D01*
X133315502Y-131499500D01*
X133315494Y-131499500D01*
X133184506Y-131499500D01*
X133184498Y-131499500D01*
X132988374Y-131514197D01*
X132988368Y-131514198D01*
X132732580Y-131572580D01*
X132488363Y-131668429D01*
X132488344Y-131668438D01*
X132261148Y-131799610D01*
X132261134Y-131799620D01*
X132056029Y-131963185D01*
X132056017Y-131963196D01*
X131877572Y-132155514D01*
X131877567Y-132155520D01*
X131877567Y-132155521D01*
X131729772Y-132372296D01*
X131729770Y-132372299D01*
X131729768Y-132372303D01*
X131615937Y-132608674D01*
X131538605Y-132859380D01*
X131538603Y-132859390D01*
X131499500Y-133118814D01*
X131499500Y-133381185D01*
X116259801Y-133381185D01*
X116285383Y-133269103D01*
X116305549Y-133000000D01*
X116285383Y-132730897D01*
X116225334Y-132467805D01*
X116126743Y-132216602D01*
X115991815Y-131982898D01*
X115976103Y-131963196D01*
X115823565Y-131771918D01*
X115823559Y-131771912D01*
X115625747Y-131588370D01*
X115625744Y-131588368D01*
X115625741Y-131588365D01*
X115402775Y-131436349D01*
X115402767Y-131436345D01*
X115159643Y-131319262D01*
X114901776Y-131239721D01*
X114901773Y-131239720D01*
X114901772Y-131239720D01*
X114901767Y-131239719D01*
X114901766Y-131239719D01*
X114634932Y-131199500D01*
X114634929Y-131199500D01*
X114365071Y-131199500D01*
X114365067Y-131199500D01*
X114098233Y-131239719D01*
X114098223Y-131239721D01*
X113840358Y-131319262D01*
X113597233Y-131436345D01*
X113597229Y-131436347D01*
X113597226Y-131436349D01*
X113374259Y-131588365D01*
X113374252Y-131588370D01*
X113176440Y-131771912D01*
X113176434Y-131771918D01*
X113008191Y-131982889D01*
X113008187Y-131982894D01*
X113008185Y-131982898D01*
X112942687Y-132096344D01*
X112873258Y-132216599D01*
X112873254Y-132216608D01*
X112774666Y-132467802D01*
X112714618Y-132730892D01*
X112714616Y-132730901D01*
X112694451Y-132999997D01*
X112694451Y-133000002D01*
X110300500Y-133000002D01*
X110300500Y-131652126D01*
X110294091Y-131592516D01*
X110292543Y-131588365D01*
X110243797Y-131457670D01*
X110157548Y-131342455D01*
X110157547Y-131342453D01*
X110119719Y-131314136D01*
X110042329Y-131256202D01*
X109907489Y-131205910D01*
X109907484Y-131205909D01*
X109907482Y-131205908D01*
X109907478Y-131205908D01*
X109876250Y-131202550D01*
X109847874Y-131199500D01*
X107152126Y-131199500D01*
X107127635Y-131202133D01*
X107092521Y-131205908D01*
X107092510Y-131205910D01*
X106957670Y-131256202D01*
X106842455Y-131342451D01*
X106842451Y-131342455D01*
X106756202Y-131457670D01*
X106705910Y-131592510D01*
X106705908Y-131592521D01*
X106699500Y-131652128D01*
X106699500Y-134347871D01*
X104119286Y-134347871D01*
X104122433Y-134344479D01*
X104270228Y-134127704D01*
X104384063Y-133891323D01*
X104461396Y-133640615D01*
X104500500Y-133381182D01*
X104500500Y-133118818D01*
X104461396Y-132859385D01*
X104384063Y-132608677D01*
X104270228Y-132372296D01*
X104122433Y-132155521D01*
X103943981Y-131963195D01*
X103943980Y-131963194D01*
X103943970Y-131963185D01*
X103738865Y-131799620D01*
X103738851Y-131799610D01*
X103511655Y-131668438D01*
X103511646Y-131668433D01*
X103511643Y-131668432D01*
X103511639Y-131668430D01*
X103511636Y-131668429D01*
X103267419Y-131572580D01*
X103011631Y-131514198D01*
X103011625Y-131514197D01*
X102815502Y-131499500D01*
X102815494Y-131499500D01*
X102684506Y-131499500D01*
X102684498Y-131499500D01*
X102488374Y-131514197D01*
X102488368Y-131514198D01*
X102232580Y-131572580D01*
X101988363Y-131668429D01*
X101988344Y-131668438D01*
X101761148Y-131799610D01*
X101761134Y-131799620D01*
X101556029Y-131963185D01*
X101556017Y-131963196D01*
X101377572Y-132155514D01*
X101377567Y-132155520D01*
X101377567Y-132155521D01*
X101229772Y-132372296D01*
X101229770Y-132372299D01*
X101229768Y-132372303D01*
X101115937Y-132608674D01*
X101038605Y-132859380D01*
X101038603Y-132859390D01*
X100999500Y-133118814D01*
X100999500Y-133381185D01*
X100500000Y-133381185D01*
X100500000Y-126286000D01*
X103798750Y-126286000D01*
X103817669Y-126429708D01*
X103817670Y-126429709D01*
X103873139Y-126563625D01*
X103961379Y-126678621D01*
X104076375Y-126766861D01*
X104210291Y-126822330D01*
X104354000Y-126841250D01*
X104497709Y-126822330D01*
X104631625Y-126766861D01*
X104746621Y-126678621D01*
X104834861Y-126563625D01*
X104890330Y-126429709D01*
X104909250Y-126286000D01*
X104908573Y-126280861D01*
X104890330Y-126142291D01*
X104834861Y-126008375D01*
X104746621Y-125893379D01*
X104631625Y-125805139D01*
X104631621Y-125805137D01*
X104497709Y-125749670D01*
X104497708Y-125749669D01*
X104354000Y-125730750D01*
X104210291Y-125749669D01*
X104210290Y-125749670D01*
X104076378Y-125805137D01*
X104076374Y-125805139D01*
X103961381Y-125893377D01*
X103961377Y-125893381D01*
X103873139Y-126008374D01*
X103873137Y-126008378D01*
X103817670Y-126142290D01*
X103817669Y-126142291D01*
X103798750Y-126285999D01*
X103798750Y-126286000D01*
X100500000Y-126286000D01*
X100500000Y-123327000D01*
X105942750Y-123327000D01*
X105961669Y-123470708D01*
X105961670Y-123470709D01*
X106000448Y-123564330D01*
X106017139Y-123604625D01*
X106105379Y-123719621D01*
X106220375Y-123807861D01*
X106354291Y-123863330D01*
X106498000Y-123882250D01*
X106641709Y-123863330D01*
X106775625Y-123807861D01*
X106890621Y-123719621D01*
X106978861Y-123604625D01*
X107034330Y-123470709D01*
X107053250Y-123327000D01*
X107038150Y-123212310D01*
X107034330Y-123183291D01*
X106978861Y-123049375D01*
X106890621Y-122934379D01*
X106775625Y-122846139D01*
X106775621Y-122846137D01*
X106641709Y-122790670D01*
X106641708Y-122790669D01*
X106498000Y-122771750D01*
X106354291Y-122790669D01*
X106354290Y-122790670D01*
X106220378Y-122846137D01*
X106220374Y-122846139D01*
X106105381Y-122934377D01*
X106105377Y-122934381D01*
X106017139Y-123049374D01*
X106017137Y-123049378D01*
X105961670Y-123183290D01*
X105961669Y-123183291D01*
X105942750Y-123326999D01*
X105942750Y-123327000D01*
X100500000Y-123327000D01*
X100500000Y-120100000D01*
X104144750Y-120100000D01*
X104163669Y-120243708D01*
X104163670Y-120243709D01*
X104219137Y-120377621D01*
X104219139Y-120377625D01*
X104307379Y-120492621D01*
X104422375Y-120580861D01*
X104556291Y-120636330D01*
X104700000Y-120655250D01*
X104843709Y-120636330D01*
X104977625Y-120580861D01*
X105092621Y-120492621D01*
X105180861Y-120377625D01*
X105208536Y-120310809D01*
X105248272Y-120264284D01*
X105307766Y-120250000D01*
X105364295Y-120273414D01*
X105391464Y-120310810D01*
X105419137Y-120377622D01*
X105419139Y-120377625D01*
X105507379Y-120492621D01*
X105622375Y-120580861D01*
X105756291Y-120636330D01*
X105900000Y-120655250D01*
X106043709Y-120636330D01*
X106177625Y-120580861D01*
X106292621Y-120492621D01*
X106380861Y-120377625D01*
X106436330Y-120243709D01*
X106451847Y-120125848D01*
X106461838Y-120104900D01*
X106458653Y-120095098D01*
X106638161Y-120095098D01*
X106648153Y-120125848D01*
X106663669Y-120243708D01*
X106663670Y-120243709D01*
X106719137Y-120377621D01*
X106719139Y-120377625D01*
X106807379Y-120492621D01*
X106922375Y-120580861D01*
X107056291Y-120636330D01*
X107200000Y-120655250D01*
X107343709Y-120636330D01*
X107477625Y-120580861D01*
X107592621Y-120492621D01*
X107671458Y-120389878D01*
X107721883Y-120355223D01*
X107783047Y-120356825D01*
X107828541Y-120389878D01*
X107830644Y-120392618D01*
X107905367Y-120490000D01*
X107907379Y-120492621D01*
X108022375Y-120580861D01*
X108156291Y-120636330D01*
X108300000Y-120655250D01*
X108443709Y-120636330D01*
X108577625Y-120580861D01*
X108692621Y-120492621D01*
X108780861Y-120377625D01*
X108836330Y-120243709D01*
X108855250Y-120100000D01*
X108854083Y-120091139D01*
X108836330Y-119956291D01*
X108780861Y-119822375D01*
X108692621Y-119707379D01*
X108577625Y-119619139D01*
X108577622Y-119619137D01*
X108528288Y-119598703D01*
X108510809Y-119591463D01*
X108464284Y-119551728D01*
X108450000Y-119492234D01*
X108473414Y-119435705D01*
X108510809Y-119408536D01*
X108577625Y-119380861D01*
X108692621Y-119292621D01*
X108780861Y-119177625D01*
X108836330Y-119043709D01*
X108855250Y-118900000D01*
X108852358Y-118878037D01*
X108836330Y-118756291D01*
X108780861Y-118622375D01*
X108692621Y-118507379D01*
X108577625Y-118419139D01*
X108577621Y-118419137D01*
X108443709Y-118363670D01*
X108443708Y-118363669D01*
X108300000Y-118344750D01*
X108156291Y-118363669D01*
X108156290Y-118363670D01*
X108022378Y-118419137D01*
X108022374Y-118419139D01*
X107907381Y-118507377D01*
X107907377Y-118507381D01*
X107828542Y-118610121D01*
X107778117Y-118644776D01*
X107716953Y-118643174D01*
X107671458Y-118610121D01*
X107670053Y-118608290D01*
X107592621Y-118507379D01*
X107477625Y-118419139D01*
X107477621Y-118419137D01*
X107343709Y-118363670D01*
X107343708Y-118363669D01*
X107200000Y-118344750D01*
X107056291Y-118363669D01*
X107056290Y-118363670D01*
X106922378Y-118419137D01*
X106922374Y-118419139D01*
X106807381Y-118507377D01*
X106807377Y-118507381D01*
X106719139Y-118622374D01*
X106719137Y-118622378D01*
X106663670Y-118756290D01*
X106663669Y-118756291D01*
X106648153Y-118874151D01*
X106638161Y-118895098D01*
X106648153Y-118925848D01*
X106663669Y-119043708D01*
X106663670Y-119043709D01*
X106719137Y-119177621D01*
X106719139Y-119177625D01*
X106807379Y-119292621D01*
X106922375Y-119380861D01*
X106964103Y-119398145D01*
X106989189Y-119408536D01*
X107035715Y-119448272D01*
X107049999Y-119507767D01*
X107026585Y-119564295D01*
X106989189Y-119591464D01*
X106922378Y-119619137D01*
X106922374Y-119619139D01*
X106807381Y-119707377D01*
X106807377Y-119707381D01*
X106719139Y-119822374D01*
X106719137Y-119822378D01*
X106663670Y-119956290D01*
X106663669Y-119956291D01*
X106648153Y-120074151D01*
X106638161Y-120095098D01*
X106458653Y-120095098D01*
X106451847Y-120074151D01*
X106436330Y-119956291D01*
X106380861Y-119822375D01*
X106292621Y-119707379D01*
X106177625Y-119619139D01*
X106177622Y-119619137D01*
X106128288Y-119598703D01*
X106110809Y-119591463D01*
X106064284Y-119551728D01*
X106050000Y-119492234D01*
X106073414Y-119435705D01*
X106110809Y-119408536D01*
X106177625Y-119380861D01*
X106292621Y-119292621D01*
X106380861Y-119177625D01*
X106436330Y-119043709D01*
X106451847Y-118925848D01*
X106461838Y-118904900D01*
X106451847Y-118874151D01*
X106436330Y-118756291D01*
X106380861Y-118622375D01*
X106292621Y-118507379D01*
X106177625Y-118419139D01*
X106177621Y-118419137D01*
X106043709Y-118363670D01*
X106043708Y-118363669D01*
X105900000Y-118344750D01*
X105756291Y-118363669D01*
X105756290Y-118363670D01*
X105622378Y-118419137D01*
X105622374Y-118419139D01*
X105507381Y-118507377D01*
X105507377Y-118507381D01*
X105419139Y-118622374D01*
X105419137Y-118622378D01*
X105391464Y-118689189D01*
X105351728Y-118735715D01*
X105292233Y-118749999D01*
X105235705Y-118726585D01*
X105208536Y-118689189D01*
X105180862Y-118622378D01*
X105180861Y-118622375D01*
X105092621Y-118507379D01*
X104977625Y-118419139D01*
X104977621Y-118419137D01*
X104843709Y-118363670D01*
X104843708Y-118363669D01*
X104700000Y-118344750D01*
X104556291Y-118363669D01*
X104556290Y-118363670D01*
X104422378Y-118419137D01*
X104422374Y-118419139D01*
X104307381Y-118507377D01*
X104307377Y-118507381D01*
X104219139Y-118622374D01*
X104219137Y-118622378D01*
X104163670Y-118756290D01*
X104163669Y-118756291D01*
X104144750Y-118899999D01*
X104144750Y-118900000D01*
X104163669Y-119043708D01*
X104163670Y-119043709D01*
X104219137Y-119177621D01*
X104219139Y-119177625D01*
X104307379Y-119292621D01*
X104422375Y-119380861D01*
X104464103Y-119398145D01*
X104489189Y-119408536D01*
X104535715Y-119448272D01*
X104549999Y-119507767D01*
X104526585Y-119564295D01*
X104489189Y-119591464D01*
X104422378Y-119619137D01*
X104422374Y-119619139D01*
X104307381Y-119707377D01*
X104307377Y-119707381D01*
X104219139Y-119822374D01*
X104219137Y-119822378D01*
X104163670Y-119956290D01*
X104163669Y-119956291D01*
X104144750Y-120099999D01*
X104144750Y-120100000D01*
X100500000Y-120100000D01*
X100500000Y-114616000D01*
X101652750Y-114616000D01*
X101671669Y-114759708D01*
X101671670Y-114759709D01*
X101720746Y-114878192D01*
X101727139Y-114893625D01*
X101815379Y-115008621D01*
X101930375Y-115096861D01*
X102064291Y-115152330D01*
X102208000Y-115171250D01*
X102351709Y-115152330D01*
X102485625Y-115096861D01*
X102600621Y-115008621D01*
X102665553Y-114924001D01*
X103591722Y-114924001D01*
X103610762Y-115080816D01*
X103610763Y-115080818D01*
X103637884Y-115152330D01*
X103666780Y-115228523D01*
X103756515Y-115358528D01*
X103756516Y-115358529D01*
X103756517Y-115358530D01*
X103874760Y-115463283D01*
X104014635Y-115536696D01*
X104168015Y-115574500D01*
X104168018Y-115574500D01*
X104325982Y-115574500D01*
X104325985Y-115574500D01*
X104479365Y-115536696D01*
X104619240Y-115463283D01*
X104737483Y-115358530D01*
X104751654Y-115338000D01*
X106654750Y-115338000D01*
X106673669Y-115481708D01*
X106673670Y-115481709D01*
X106712469Y-115575381D01*
X106729139Y-115615625D01*
X106817379Y-115730621D01*
X106932375Y-115818861D01*
X107066291Y-115874330D01*
X107210000Y-115893250D01*
X107353709Y-115874330D01*
X107487625Y-115818861D01*
X107602621Y-115730621D01*
X107690861Y-115615625D01*
X107746330Y-115481709D01*
X107765250Y-115338000D01*
X107758517Y-115286862D01*
X107746330Y-115194291D01*
X107690861Y-115060375D01*
X107602621Y-114945379D01*
X107487625Y-114857139D01*
X107487621Y-114857137D01*
X107353709Y-114801670D01*
X107353708Y-114801669D01*
X107210000Y-114782750D01*
X107066291Y-114801669D01*
X107066290Y-114801670D01*
X106932378Y-114857137D01*
X106932374Y-114857139D01*
X106817381Y-114945377D01*
X106817377Y-114945381D01*
X106729139Y-115060374D01*
X106729137Y-115060378D01*
X106673670Y-115194290D01*
X106673669Y-115194291D01*
X106654750Y-115337999D01*
X106654750Y-115338000D01*
X104751654Y-115338000D01*
X104827220Y-115228523D01*
X104883237Y-115080818D01*
X104902278Y-114924000D01*
X104901416Y-114916904D01*
X104883237Y-114767183D01*
X104883237Y-114767182D01*
X104827220Y-114619477D01*
X104764337Y-114528375D01*
X104737484Y-114489471D01*
X104718091Y-114472290D01*
X104619240Y-114384717D01*
X104511729Y-114328290D01*
X104479364Y-114311303D01*
X104325987Y-114273500D01*
X104325985Y-114273500D01*
X104168015Y-114273500D01*
X104168012Y-114273500D01*
X104014635Y-114311303D01*
X103874758Y-114384718D01*
X103756515Y-114489471D01*
X103666780Y-114619476D01*
X103610763Y-114767182D01*
X103610762Y-114767183D01*
X103591722Y-114923998D01*
X103591722Y-114924001D01*
X102665553Y-114924001D01*
X102688861Y-114893625D01*
X102744330Y-114759709D01*
X102763250Y-114616000D01*
X102744330Y-114472291D01*
X102688861Y-114338375D01*
X102600621Y-114223379D01*
X102485625Y-114135139D01*
X102485621Y-114135137D01*
X102351709Y-114079670D01*
X102351708Y-114079669D01*
X102208000Y-114060750D01*
X102064291Y-114079669D01*
X102064290Y-114079670D01*
X101930378Y-114135137D01*
X101930374Y-114135139D01*
X101815381Y-114223377D01*
X101815377Y-114223381D01*
X101727139Y-114338374D01*
X101727137Y-114338378D01*
X101671670Y-114472290D01*
X101671669Y-114472291D01*
X101652750Y-114615999D01*
X101652750Y-114616000D01*
X100500000Y-114616000D01*
X100500000Y-112921000D01*
X105661750Y-112921000D01*
X105680669Y-113064708D01*
X105680670Y-113064709D01*
X105733337Y-113191862D01*
X105736139Y-113198625D01*
X105824379Y-113313621D01*
X105939375Y-113401861D01*
X106073291Y-113457330D01*
X106217000Y-113476250D01*
X106360709Y-113457330D01*
X106494625Y-113401861D01*
X106609621Y-113313621D01*
X106697861Y-113198625D01*
X106753330Y-113064709D01*
X106772250Y-112921000D01*
X106763522Y-112854709D01*
X106753330Y-112777291D01*
X106697861Y-112643375D01*
X106609621Y-112528379D01*
X106494625Y-112440139D01*
X106494621Y-112440137D01*
X106360709Y-112384670D01*
X106360708Y-112384669D01*
X106217000Y-112365750D01*
X106073291Y-112384669D01*
X106073290Y-112384670D01*
X105939378Y-112440137D01*
X105939374Y-112440139D01*
X105824381Y-112528377D01*
X105824377Y-112528381D01*
X105736139Y-112643374D01*
X105736137Y-112643378D01*
X105680670Y-112777290D01*
X105680669Y-112777291D01*
X105661750Y-112920999D01*
X105661750Y-112921000D01*
X100500000Y-112921000D01*
X100500000Y-111895000D01*
X106764750Y-111895000D01*
X106783669Y-112038708D01*
X106783670Y-112038709D01*
X106839139Y-112172625D01*
X106927379Y-112287621D01*
X107042375Y-112375861D01*
X107176291Y-112431330D01*
X107320000Y-112450250D01*
X107463709Y-112431330D01*
X107597625Y-112375861D01*
X107712621Y-112287621D01*
X107800861Y-112172625D01*
X107856330Y-112038709D01*
X107875250Y-111895000D01*
X107856330Y-111751291D01*
X107800861Y-111617375D01*
X107712621Y-111502379D01*
X107597625Y-111414139D01*
X107597621Y-111414137D01*
X107463709Y-111358670D01*
X107463708Y-111358669D01*
X107320000Y-111339750D01*
X107176291Y-111358669D01*
X107176290Y-111358670D01*
X107042378Y-111414137D01*
X107042374Y-111414139D01*
X106927381Y-111502377D01*
X106927377Y-111502381D01*
X106839139Y-111617374D01*
X106839137Y-111617378D01*
X106783670Y-111751290D01*
X106783669Y-111751291D01*
X106764750Y-111894999D01*
X106764750Y-111895000D01*
X100500000Y-111895000D01*
X100500000Y-109476000D01*
X103149750Y-109476000D01*
X103168669Y-109619708D01*
X103168670Y-109619709D01*
X103223206Y-109751374D01*
X103224139Y-109753625D01*
X103312379Y-109868621D01*
X103427375Y-109956861D01*
X103561291Y-110012330D01*
X103705000Y-110031250D01*
X103848709Y-110012330D01*
X103982625Y-109956861D01*
X104097621Y-109868621D01*
X104185861Y-109753625D01*
X104241330Y-109619709D01*
X104260250Y-109476000D01*
X104257575Y-109455685D01*
X104241330Y-109332291D01*
X104185861Y-109198375D01*
X104097621Y-109083379D01*
X103982625Y-108995139D01*
X103982621Y-108995137D01*
X103848709Y-108939670D01*
X103848708Y-108939669D01*
X103705000Y-108920750D01*
X103561291Y-108939669D01*
X103561290Y-108939670D01*
X103427378Y-108995137D01*
X103427374Y-108995139D01*
X103312381Y-109083377D01*
X103312377Y-109083381D01*
X103224139Y-109198374D01*
X103224137Y-109198378D01*
X103168670Y-109332290D01*
X103168669Y-109332291D01*
X103149750Y-109475999D01*
X103149750Y-109476000D01*
X100500000Y-109476000D01*
X100500000Y-102881185D01*
X100999500Y-102881185D01*
X101038603Y-103140609D01*
X101038605Y-103140619D01*
X101115937Y-103391325D01*
X101201983Y-103570000D01*
X101229772Y-103627704D01*
X101377567Y-103844479D01*
X101377570Y-103844482D01*
X101377572Y-103844485D01*
X101556017Y-104036803D01*
X101556029Y-104036814D01*
X101761134Y-104200379D01*
X101761143Y-104200386D01*
X101761147Y-104200388D01*
X101761148Y-104200389D01*
X101988344Y-104331561D01*
X101988348Y-104331563D01*
X101988357Y-104331568D01*
X102063828Y-104361188D01*
X102232580Y-104427419D01*
X102232583Y-104427419D01*
X102232584Y-104427420D01*
X102488370Y-104485802D01*
X102553748Y-104490701D01*
X102684498Y-104500500D01*
X102684506Y-104500500D01*
X102815502Y-104500500D01*
X102936193Y-104491455D01*
X103011630Y-104485802D01*
X103267416Y-104427420D01*
X103289826Y-104418625D01*
X103314352Y-104408999D01*
X103511643Y-104331568D01*
X103566320Y-104300000D01*
X105878750Y-104300000D01*
X105897669Y-104443708D01*
X105897670Y-104443709D01*
X105942818Y-104552709D01*
X105953139Y-104577625D01*
X106041379Y-104692621D01*
X106156375Y-104780861D01*
X106290291Y-104836330D01*
X106434000Y-104855250D01*
X106577709Y-104836330D01*
X106711625Y-104780861D01*
X106826621Y-104692621D01*
X106914861Y-104577625D01*
X106970330Y-104443709D01*
X106989250Y-104300000D01*
X106988613Y-104295165D01*
X106970330Y-104156291D01*
X106914861Y-104022375D01*
X106826621Y-103907379D01*
X106711625Y-103819139D01*
X106711621Y-103819137D01*
X106577709Y-103763670D01*
X106577708Y-103763669D01*
X106434000Y-103744750D01*
X106290291Y-103763669D01*
X106290290Y-103763670D01*
X106156378Y-103819137D01*
X106156374Y-103819139D01*
X106041381Y-103907377D01*
X106041377Y-103907381D01*
X105953139Y-104022374D01*
X105953137Y-104022378D01*
X105897670Y-104156290D01*
X105897669Y-104156291D01*
X105878750Y-104299999D01*
X105878750Y-104300000D01*
X103566320Y-104300000D01*
X103738857Y-104200386D01*
X103926354Y-104050862D01*
X103943970Y-104036814D01*
X103943971Y-104036812D01*
X103943981Y-104036805D01*
X104122433Y-103844479D01*
X104270228Y-103627704D01*
X104384063Y-103391323D01*
X104461396Y-103140615D01*
X104500500Y-102881182D01*
X104500500Y-102618818D01*
X104461396Y-102359385D01*
X104384063Y-102108677D01*
X104383935Y-102108412D01*
X104307136Y-101948936D01*
X104270228Y-101872296D01*
X104122433Y-101655521D01*
X104096549Y-101627625D01*
X103943982Y-101463196D01*
X103943970Y-101463185D01*
X103738865Y-101299620D01*
X103738851Y-101299610D01*
X103511655Y-101168438D01*
X103511646Y-101168433D01*
X103511643Y-101168432D01*
X103511639Y-101168430D01*
X103511636Y-101168429D01*
X103267419Y-101072580D01*
X103011631Y-101014198D01*
X103011625Y-101014197D01*
X102815502Y-100999500D01*
X102815494Y-100999500D01*
X102684506Y-100999500D01*
X102684498Y-100999500D01*
X102488374Y-101014197D01*
X102488368Y-101014198D01*
X102232580Y-101072580D01*
X101988363Y-101168429D01*
X101988344Y-101168438D01*
X101761148Y-101299610D01*
X101761134Y-101299620D01*
X101556029Y-101463185D01*
X101556017Y-101463196D01*
X101377572Y-101655514D01*
X101377567Y-101655520D01*
X101377567Y-101655521D01*
X101229772Y-101872296D01*
X101229770Y-101872299D01*
X101229768Y-101872303D01*
X101115937Y-102108674D01*
X101038605Y-102359380D01*
X101038603Y-102359390D01*
X100999500Y-102618814D01*
X100999500Y-102881185D01*
X100500000Y-102881185D01*
X100500000Y-102012190D01*
X100507535Y-101974306D01*
X100565711Y-101833858D01*
X100570525Y-101823863D01*
X100571346Y-101822378D01*
X100711583Y-101568636D01*
X100717479Y-101559253D01*
X100886230Y-101321421D01*
X100893149Y-101312745D01*
X101087475Y-101095293D01*
X101095293Y-101087475D01*
X101312748Y-100893146D01*
X101321424Y-100886228D01*
X101559253Y-100717479D01*
X101568636Y-100711583D01*
X101823869Y-100570522D01*
X101833866Y-100565708D01*
X101974307Y-100507536D01*
X102012192Y-100500000D01*
X109321304Y-100500000D01*
X109379495Y-100518907D01*
G37*
%TD.AperFunction*%
%TD*%
M02*
