%TF.GenerationSoftware,KiCad,Pcbnew,7.0.11+dfsg-1build4*%
%TF.CreationDate,2026-10-02T11:02:54+03:00*%
%TF.ProjectId,rl_fc_f405,726c5f66-635f-4663-9430-352e6b696361,rev?*%
%TF.SameCoordinates,Original*%
%TF.FileFunction,Soldermask,Top*%
%TF.FilePolarity,Negative*%
%FSLAX46Y46*%
G04 Gerber Fmt 4.6, Leading zero omitted, Abs format (unit mm)*
G04 Created by KiCad (PCBNEW 7.0.11+dfsg-1build4) date 2026-10-02 11:02:54*
%MOMM*%
%LPD*%
G01*
G04 APERTURE LIST*
G04 Aperture macros list*
%AMRoundRect*
0 Rectangle with rounded corners*
0 $1 Rounding radius*
0 $2 $3 $4 $5 $6 $7 $8 $9 X,Y pos of 4 corners*
0 Add a 4 corners polygon primitive as box body*
4,1,4,$2,$3,$4,$5,$6,$7,$8,$9,$2,$3,0*
0 Add four circle primitives for the rounded corners*
1,1,$1+$1,$2,$3*
1,1,$1+$1,$4,$5*
1,1,$1+$1,$6,$7*
1,1,$1+$1,$8,$9*
0 Add four rect primitives between the rounded corners*
20,1,$1+$1,$2,$3,$4,$5,0*
20,1,$1+$1,$4,$5,$6,$7,0*
20,1,$1+$1,$6,$7,$8,$9,0*
20,1,$1+$1,$8,$9,$2,$3,0*%
G04 Aperture macros list end*
%ADD10RoundRect,0.135000X0.185000X-0.135000X0.185000X0.135000X-0.185000X0.135000X-0.185000X-0.135000X0*%
%ADD11RoundRect,0.140000X-0.140000X-0.170000X0.140000X-0.170000X0.140000X0.170000X-0.140000X0.170000X0*%
%ADD12R,1.400000X1.200000*%
%ADD13RoundRect,0.140000X0.170000X-0.140000X0.170000X0.140000X-0.170000X0.140000X-0.170000X-0.140000X0*%
%ADD14R,1.000000X1.000000*%
%ADD15O,1.000000X1.000000*%
%ADD16RoundRect,0.249999X-1.300001X-1.300001X1.300001X-1.300001X1.300001X1.300001X-1.300001X1.300001X0*%
%ADD17C,3.100000*%
%ADD18C,3.200000*%
%ADD19RoundRect,0.218750X0.256250X-0.218750X0.256250X0.218750X-0.256250X0.218750X-0.256250X-0.218750X0*%
%ADD20RoundRect,0.225000X0.250000X-0.225000X0.250000X0.225000X-0.250000X0.225000X-0.250000X-0.225000X0*%
%ADD21RoundRect,0.250000X0.325000X0.650000X-0.325000X0.650000X-0.325000X-0.650000X0.325000X-0.650000X0*%
%ADD22RoundRect,0.135000X-0.135000X-0.185000X0.135000X-0.185000X0.135000X0.185000X-0.135000X0.185000X0*%
%ADD23RoundRect,0.140000X-0.170000X0.140000X-0.170000X-0.140000X0.170000X-0.140000X0.170000X0.140000X0*%
%ADD24RoundRect,0.150000X0.625000X-0.150000X0.625000X0.150000X-0.625000X0.150000X-0.625000X-0.150000X0*%
%ADD25RoundRect,0.250000X0.650000X-0.350000X0.650000X0.350000X-0.650000X0.350000X-0.650000X-0.350000X0*%
%ADD26RoundRect,0.218750X-0.218750X-0.256250X0.218750X-0.256250X0.218750X0.256250X-0.218750X0.256250X0*%
%ADD27RoundRect,0.135000X0.135000X0.185000X-0.135000X0.185000X-0.135000X-0.185000X0.135000X-0.185000X0*%
%ADD28RoundRect,0.150000X-0.512500X-0.150000X0.512500X-0.150000X0.512500X0.150000X-0.512500X0.150000X0*%
%ADD29RoundRect,0.150000X-0.150000X-0.625000X0.150000X-0.625000X0.150000X0.625000X-0.150000X0.625000X0*%
%ADD30RoundRect,0.250000X-0.350000X-0.650000X0.350000X-0.650000X0.350000X0.650000X-0.350000X0.650000X0*%
%ADD31C,0.650000*%
%ADD32RoundRect,0.150000X0.150000X0.425000X-0.150000X0.425000X-0.150000X-0.425000X0.150000X-0.425000X0*%
%ADD33RoundRect,0.075000X0.075000X0.500000X-0.075000X0.500000X-0.075000X-0.500000X0.075000X-0.500000X0*%
%ADD34O,1.000000X2.100000*%
%ADD35O,1.000000X1.800000*%
%ADD36RoundRect,0.075000X-0.700000X-0.075000X0.700000X-0.075000X0.700000X0.075000X-0.700000X0.075000X0*%
%ADD37RoundRect,0.075000X-0.075000X-0.700000X0.075000X-0.700000X0.075000X0.700000X-0.075000X0.700000X0*%
%ADD38R,0.350000X0.500000*%
%ADD39RoundRect,0.150000X-0.625000X0.150000X-0.625000X-0.150000X0.625000X-0.150000X0.625000X0.150000X0*%
%ADD40RoundRect,0.250000X-0.650000X0.350000X-0.650000X-0.350000X0.650000X-0.350000X0.650000X0.350000X0*%
%ADD41RoundRect,0.225000X-0.225000X-0.250000X0.225000X-0.250000X0.225000X0.250000X-0.225000X0.250000X0*%
%ADD42RoundRect,0.250000X0.650000X-1.000000X0.650000X1.000000X-0.650000X1.000000X-0.650000X-1.000000X0*%
%ADD43R,0.600000X1.550000*%
%ADD44R,3.100000X2.600000*%
%ADD45R,2.950000X3.500000*%
G04 APERTURE END LIST*
D10*
%TO.C,R11*%
X121800000Y-108960000D03*
X121800000Y-107940000D03*
%TD*%
D11*
%TO.C,C11*%
X126970000Y-109150000D03*
X127930000Y-109150000D03*
%TD*%
%TO.C,C20*%
X111720000Y-110600000D03*
X112680000Y-110600000D03*
%TD*%
D10*
%TO.C,R3*%
X105900000Y-128960000D03*
X105900000Y-127940000D03*
%TD*%
D12*
%TO.C,Y1*%
X109400000Y-113850000D03*
X111600000Y-113850000D03*
X111600000Y-112150000D03*
X109400000Y-112150000D03*
%TD*%
D13*
%TO.C,C15*%
X123600000Y-124830000D03*
X123600000Y-123870000D03*
%TD*%
D14*
%TO.C,J6*%
X134000000Y-121000000D03*
D15*
X134000000Y-122270000D03*
X134000000Y-123540000D03*
X134000000Y-124810000D03*
%TD*%
D16*
%TO.C,J1*%
X108500000Y-133000000D03*
D17*
X114500000Y-133000000D03*
%TD*%
D18*
%TO.C,H4*%
X102750000Y-133250000D03*
%TD*%
D19*
%TO.C,FB1*%
X127450000Y-125637500D03*
X127450000Y-124062500D03*
%TD*%
D20*
%TO.C,C14*%
X113200000Y-108025000D03*
X113200000Y-106475000D03*
%TD*%
D10*
%TO.C,R9*%
X127150000Y-102110000D03*
X127150000Y-101090000D03*
%TD*%
D21*
%TO.C,C1*%
X106825000Y-124450000D03*
X103875000Y-124450000D03*
%TD*%
D22*
%TO.C,R1*%
X102090000Y-117400000D03*
X103110000Y-117400000D03*
%TD*%
D18*
%TO.C,H1*%
X102750000Y-102750000D03*
%TD*%
D10*
%TO.C,R12*%
X117100000Y-109060000D03*
X117100000Y-108040000D03*
%TD*%
D18*
%TO.C,H2*%
X133250000Y-102750000D03*
%TD*%
D23*
%TO.C,C3*%
X109750000Y-119020000D03*
X109750000Y-119980000D03*
%TD*%
D24*
%TO.C,J5*%
X130500000Y-113000000D03*
X130500000Y-112000000D03*
X130500000Y-111000000D03*
X130500000Y-110000000D03*
D25*
X134375000Y-114300000D03*
X134375000Y-108700000D03*
%TD*%
D11*
%TO.C,C6*%
X107420000Y-106400000D03*
X108380000Y-106400000D03*
%TD*%
%TO.C,C16*%
X127970000Y-116100000D03*
X128930000Y-116100000D03*
%TD*%
D18*
%TO.C,H3*%
X133250000Y-133250000D03*
%TD*%
D10*
%TO.C,R6*%
X120550000Y-109160000D03*
X120550000Y-108140000D03*
%TD*%
D13*
%TO.C,C12*%
X117100000Y-124780000D03*
X117100000Y-123820000D03*
%TD*%
D10*
%TO.C,R7*%
X126000000Y-124860000D03*
X126000000Y-123840000D03*
%TD*%
D26*
%TO.C,D3*%
X123262500Y-108650000D03*
X124837500Y-108650000D03*
%TD*%
D27*
%TO.C,R2*%
X103110000Y-116000000D03*
X102090000Y-116000000D03*
%TD*%
D13*
%TO.C,C10*%
X124900000Y-124880000D03*
X124900000Y-123920000D03*
%TD*%
D28*
%TO.C,U2*%
X108862500Y-103050000D03*
X108862500Y-104000000D03*
X108862500Y-104950000D03*
X111137500Y-104950000D03*
X111137500Y-103050000D03*
%TD*%
D29*
%TO.C,J3*%
X120000000Y-130500000D03*
X121000000Y-130500000D03*
X122000000Y-130500000D03*
X123000000Y-130500000D03*
X124000000Y-130500000D03*
X125000000Y-130500000D03*
X126000000Y-130500000D03*
X127000000Y-130500000D03*
D30*
X118700000Y-134375000D03*
X128300000Y-134375000D03*
%TD*%
D31*
%TO.C,J2*%
X122390000Y-105105000D03*
X116610000Y-105105000D03*
D32*
X122700000Y-106180000D03*
X121900000Y-106180000D03*
D33*
X120750000Y-106180000D03*
X119750000Y-106180000D03*
X119250000Y-106180000D03*
X118250000Y-106180000D03*
D32*
X117100000Y-106180000D03*
X116300000Y-106180000D03*
X116300000Y-106180000D03*
X117100000Y-106180000D03*
D33*
X117750000Y-106180000D03*
X118750000Y-106180000D03*
X120250000Y-106180000D03*
X121250000Y-106180000D03*
D32*
X121900000Y-106180000D03*
X122700000Y-106180000D03*
D34*
X123820000Y-105605000D03*
D35*
X123820000Y-101425000D03*
D34*
X115180000Y-105605000D03*
D35*
X115180000Y-101425000D03*
%TD*%
D36*
%TO.C,U3*%
X114825000Y-112750000D03*
X114825000Y-113250000D03*
X114825000Y-113750000D03*
X114825000Y-114250000D03*
X114825000Y-114750000D03*
X114825000Y-115250000D03*
X114825000Y-115750000D03*
X114825000Y-116250000D03*
X114825000Y-116750000D03*
X114825000Y-117250000D03*
X114825000Y-117750000D03*
X114825000Y-118250000D03*
X114825000Y-118750000D03*
X114825000Y-119250000D03*
X114825000Y-119750000D03*
X114825000Y-120250000D03*
D37*
X116750000Y-122175000D03*
X117250000Y-122175000D03*
X117750000Y-122175000D03*
X118250000Y-122175000D03*
X118750000Y-122175000D03*
X119250000Y-122175000D03*
X119750000Y-122175000D03*
X120250000Y-122175000D03*
X120750000Y-122175000D03*
X121250000Y-122175000D03*
X121750000Y-122175000D03*
X122250000Y-122175000D03*
X122750000Y-122175000D03*
X123250000Y-122175000D03*
X123750000Y-122175000D03*
X124250000Y-122175000D03*
D36*
X126175000Y-120250000D03*
X126175000Y-119750000D03*
X126175000Y-119250000D03*
X126175000Y-118750000D03*
X126175000Y-118250000D03*
X126175000Y-117750000D03*
X126175000Y-117250000D03*
X126175000Y-116750000D03*
X126175000Y-116250000D03*
X126175000Y-115750000D03*
X126175000Y-115250000D03*
X126175000Y-114750000D03*
X126175000Y-114250000D03*
X126175000Y-113750000D03*
X126175000Y-113250000D03*
X126175000Y-112750000D03*
D37*
X124250000Y-110825000D03*
X123750000Y-110825000D03*
X123250000Y-110825000D03*
X122750000Y-110825000D03*
X122250000Y-110825000D03*
X121750000Y-110825000D03*
X121250000Y-110825000D03*
X120750000Y-110825000D03*
X120250000Y-110825000D03*
X119750000Y-110825000D03*
X119250000Y-110825000D03*
X118750000Y-110825000D03*
X118250000Y-110825000D03*
X117750000Y-110825000D03*
X117250000Y-110825000D03*
X116750000Y-110825000D03*
%TD*%
D38*
%TO.C,U5*%
X126525000Y-103200000D03*
X127175000Y-103200000D03*
X127825000Y-103200000D03*
X128475000Y-103200000D03*
X128475000Y-104800000D03*
X127825000Y-104800000D03*
X127175000Y-104800000D03*
X126525000Y-104800000D03*
%TD*%
D39*
%TO.C,J4*%
X105500000Y-109000000D03*
X105500000Y-110000000D03*
X105500000Y-111000000D03*
X105500000Y-112000000D03*
D40*
X101625000Y-107700000D03*
X101625000Y-113300000D03*
%TD*%
D41*
%TO.C,C7*%
X111625000Y-101350000D03*
X113175000Y-101350000D03*
%TD*%
D42*
%TO.C,D1*%
X112000000Y-121500000D03*
X112000000Y-117500000D03*
%TD*%
D43*
%TO.C,U1*%
X108405000Y-116800000D03*
X107135000Y-116800000D03*
X105865000Y-116800000D03*
X104595000Y-116800000D03*
X104595000Y-122200000D03*
X105865000Y-122200000D03*
X107135000Y-122200000D03*
X108405000Y-122200000D03*
D44*
X106500000Y-119500000D03*
%TD*%
D45*
%TO.C,L1*%
X109425000Y-127000000D03*
X114875000Y-127000000D03*
%TD*%
D22*
%TO.C,R8*%
X128190000Y-102050000D03*
X129210000Y-102050000D03*
%TD*%
D26*
%TO.C,D4*%
X124112500Y-126300000D03*
X125687500Y-126300000D03*
%TD*%
D11*
%TO.C,C13*%
X112120000Y-109350000D03*
X113080000Y-109350000D03*
%TD*%
%TO.C,C19*%
X111820000Y-115350000D03*
X112780000Y-115350000D03*
%TD*%
M02*
