%TF.GenerationSoftware,KiCad,Pcbnew,7.0.11+dfsg-1build4*%
%TF.CreationDate,2026-09-27T03:20:39+03:00*%
%TF.ProjectId,rl_fc_f405,726c5f66-635f-4663-9430-352e6b696361,rev?*%
%TF.SameCoordinates,Original*%
%TF.FileFunction,Legend,Top*%
%TF.FilePolarity,Positive*%
%FSLAX46Y46*%
G04 Gerber Fmt 4.6, Leading zero omitted, Abs format (unit mm)*
G04 Created by KiCad (PCBNEW 7.0.11+dfsg-1build4) date 2026-09-27 03:20:39*
%MOMM*%
%LPD*%
G01*
G04 APERTURE LIST*
G04 Aperture macros list*
%AMRoundRect*
0 Rectangle with rounded corners*
0 $1 Rounding radius*
0 $2 $3 $4 $5 $6 $7 $8 $9 X,Y pos of 4 corners*
0 Add a 4 corners polygon primitive as box body*
4,1,4,$2,$3,$4,$5,$6,$7,$8,$9,$2,$3,0*
0 Add four circle primitives for the rounded corners*
1,1,$1+$1,$2,$3*
1,1,$1+$1,$4,$5*
1,1,$1+$1,$6,$7*
1,1,$1+$1,$8,$9*
0 Add four rect primitives between the rounded corners*
20,1,$1+$1,$2,$3,$4,$5,0*
20,1,$1+$1,$4,$5,$6,$7,0*
20,1,$1+$1,$6,$7,$8,$9,0*
20,1,$1+$1,$8,$9,$2,$3,0*%
G04 Aperture macros list end*
%ADD10C,0.150000*%
%ADD11C,0.120000*%
%ADD12C,0.100000*%
%ADD13RoundRect,0.135000X0.185000X-0.135000X0.185000X0.135000X-0.185000X0.135000X-0.185000X-0.135000X0*%
%ADD14RoundRect,0.140000X-0.140000X-0.170000X0.140000X-0.170000X0.140000X0.170000X-0.140000X0.170000X0*%
%ADD15R,1.400000X1.200000*%
%ADD16RoundRect,0.140000X0.170000X-0.140000X0.170000X0.140000X-0.170000X0.140000X-0.170000X-0.140000X0*%
%ADD17R,1.000000X1.000000*%
%ADD18O,1.000000X1.000000*%
%ADD19RoundRect,0.249999X-1.300001X-1.300001X1.300001X-1.300001X1.300001X1.300001X-1.300001X1.300001X0*%
%ADD20C,3.100000*%
%ADD21C,3.200000*%
%ADD22RoundRect,0.218750X0.256250X-0.218750X0.256250X0.218750X-0.256250X0.218750X-0.256250X-0.218750X0*%
%ADD23RoundRect,0.225000X0.250000X-0.225000X0.250000X0.225000X-0.250000X0.225000X-0.250000X-0.225000X0*%
%ADD24RoundRect,0.250000X0.650000X-0.325000X0.650000X0.325000X-0.650000X0.325000X-0.650000X-0.325000X0*%
%ADD25RoundRect,0.150000X0.625000X-0.150000X0.625000X0.150000X-0.625000X0.150000X-0.625000X-0.150000X0*%
%ADD26RoundRect,0.250000X0.650000X-0.350000X0.650000X0.350000X-0.650000X0.350000X-0.650000X-0.350000X0*%
%ADD27RoundRect,0.218750X-0.218750X-0.256250X0.218750X-0.256250X0.218750X0.256250X-0.218750X0.256250X0*%
%ADD28RoundRect,0.150000X-0.512500X-0.150000X0.512500X-0.150000X0.512500X0.150000X-0.512500X0.150000X0*%
%ADD29RoundRect,0.150000X-0.150000X-0.625000X0.150000X-0.625000X0.150000X0.625000X-0.150000X0.625000X0*%
%ADD30RoundRect,0.250000X-0.350000X-0.650000X0.350000X-0.650000X0.350000X0.650000X-0.350000X0.650000X0*%
%ADD31C,0.650000*%
%ADD32RoundRect,0.150000X0.150000X0.425000X-0.150000X0.425000X-0.150000X-0.425000X0.150000X-0.425000X0*%
%ADD33RoundRect,0.075000X0.075000X0.500000X-0.075000X0.500000X-0.075000X-0.500000X0.075000X-0.500000X0*%
%ADD34O,1.000000X2.100000*%
%ADD35O,1.000000X1.800000*%
%ADD36RoundRect,0.075000X-0.700000X-0.075000X0.700000X-0.075000X0.700000X0.075000X-0.700000X0.075000X0*%
%ADD37RoundRect,0.075000X-0.075000X-0.700000X0.075000X-0.700000X0.075000X0.700000X-0.075000X0.700000X0*%
%ADD38R,0.350000X0.500000*%
%ADD39RoundRect,0.150000X-0.625000X0.150000X-0.625000X-0.150000X0.625000X-0.150000X0.625000X0.150000X0*%
%ADD40RoundRect,0.250000X-0.650000X0.350000X-0.650000X-0.350000X0.650000X-0.350000X0.650000X0.350000X0*%
%ADD41RoundRect,0.250000X-0.250000X-0.475000X0.250000X-0.475000X0.250000X0.475000X-0.250000X0.475000X0*%
%ADD42RoundRect,0.225000X-0.225000X-0.250000X0.225000X-0.250000X0.225000X0.250000X-0.225000X0.250000X0*%
%ADD43RoundRect,0.250000X0.650000X-1.000000X0.650000X1.000000X-0.650000X1.000000X-0.650000X-1.000000X0*%
%ADD44R,0.600000X1.550000*%
%ADD45R,3.100000X2.600000*%
%ADD46R,2.950000X3.500000*%
%ADD47RoundRect,0.135000X-0.135000X-0.185000X0.135000X-0.185000X0.135000X0.185000X-0.135000X0.185000X0*%
G04 APERTURE END LIST*
D10*
X121084819Y-109092857D02*
X120608628Y-109426190D01*
X121084819Y-109664285D02*
X120084819Y-109664285D01*
X120084819Y-109664285D02*
X120084819Y-109283333D01*
X120084819Y-109283333D02*
X120132438Y-109188095D01*
X120132438Y-109188095D02*
X120180057Y-109140476D01*
X120180057Y-109140476D02*
X120275295Y-109092857D01*
X120275295Y-109092857D02*
X120418152Y-109092857D01*
X120418152Y-109092857D02*
X120513390Y-109140476D01*
X120513390Y-109140476D02*
X120561009Y-109188095D01*
X120561009Y-109188095D02*
X120608628Y-109283333D01*
X120608628Y-109283333D02*
X120608628Y-109664285D01*
X121084819Y-108140476D02*
X121084819Y-108711904D01*
X121084819Y-108426190D02*
X120084819Y-108426190D01*
X120084819Y-108426190D02*
X120227676Y-108521428D01*
X120227676Y-108521428D02*
X120322914Y-108616666D01*
X120322914Y-108616666D02*
X120370533Y-108711904D01*
X121084819Y-107188095D02*
X121084819Y-107759523D01*
X121084819Y-107473809D02*
X120084819Y-107473809D01*
X120084819Y-107473809D02*
X120227676Y-107569047D01*
X120227676Y-107569047D02*
X120322914Y-107664285D01*
X120322914Y-107664285D02*
X120370533Y-107759523D01*
X126807142Y-108349580D02*
X126759523Y-108397200D01*
X126759523Y-108397200D02*
X126616666Y-108444819D01*
X126616666Y-108444819D02*
X126521428Y-108444819D01*
X126521428Y-108444819D02*
X126378571Y-108397200D01*
X126378571Y-108397200D02*
X126283333Y-108301961D01*
X126283333Y-108301961D02*
X126235714Y-108206723D01*
X126235714Y-108206723D02*
X126188095Y-108016247D01*
X126188095Y-108016247D02*
X126188095Y-107873390D01*
X126188095Y-107873390D02*
X126235714Y-107682914D01*
X126235714Y-107682914D02*
X126283333Y-107587676D01*
X126283333Y-107587676D02*
X126378571Y-107492438D01*
X126378571Y-107492438D02*
X126521428Y-107444819D01*
X126521428Y-107444819D02*
X126616666Y-107444819D01*
X126616666Y-107444819D02*
X126759523Y-107492438D01*
X126759523Y-107492438D02*
X126807142Y-107540057D01*
X127759523Y-108444819D02*
X127188095Y-108444819D01*
X127473809Y-108444819D02*
X127473809Y-107444819D01*
X127473809Y-107444819D02*
X127378571Y-107587676D01*
X127378571Y-107587676D02*
X127283333Y-107682914D01*
X127283333Y-107682914D02*
X127188095Y-107730533D01*
X128711904Y-108444819D02*
X128140476Y-108444819D01*
X128426190Y-108444819D02*
X128426190Y-107444819D01*
X128426190Y-107444819D02*
X128330952Y-107587676D01*
X128330952Y-107587676D02*
X128235714Y-107682914D01*
X128235714Y-107682914D02*
X128140476Y-107730533D01*
X111557142Y-109799580D02*
X111509523Y-109847200D01*
X111509523Y-109847200D02*
X111366666Y-109894819D01*
X111366666Y-109894819D02*
X111271428Y-109894819D01*
X111271428Y-109894819D02*
X111128571Y-109847200D01*
X111128571Y-109847200D02*
X111033333Y-109751961D01*
X111033333Y-109751961D02*
X110985714Y-109656723D01*
X110985714Y-109656723D02*
X110938095Y-109466247D01*
X110938095Y-109466247D02*
X110938095Y-109323390D01*
X110938095Y-109323390D02*
X110985714Y-109132914D01*
X110985714Y-109132914D02*
X111033333Y-109037676D01*
X111033333Y-109037676D02*
X111128571Y-108942438D01*
X111128571Y-108942438D02*
X111271428Y-108894819D01*
X111271428Y-108894819D02*
X111366666Y-108894819D01*
X111366666Y-108894819D02*
X111509523Y-108942438D01*
X111509523Y-108942438D02*
X111557142Y-108990057D01*
X111938095Y-108990057D02*
X111985714Y-108942438D01*
X111985714Y-108942438D02*
X112080952Y-108894819D01*
X112080952Y-108894819D02*
X112319047Y-108894819D01*
X112319047Y-108894819D02*
X112414285Y-108942438D01*
X112414285Y-108942438D02*
X112461904Y-108990057D01*
X112461904Y-108990057D02*
X112509523Y-109085295D01*
X112509523Y-109085295D02*
X112509523Y-109180533D01*
X112509523Y-109180533D02*
X112461904Y-109323390D01*
X112461904Y-109323390D02*
X111890476Y-109894819D01*
X111890476Y-109894819D02*
X112509523Y-109894819D01*
X113128571Y-108894819D02*
X113223809Y-108894819D01*
X113223809Y-108894819D02*
X113319047Y-108942438D01*
X113319047Y-108942438D02*
X113366666Y-108990057D01*
X113366666Y-108990057D02*
X113414285Y-109085295D01*
X113414285Y-109085295D02*
X113461904Y-109275771D01*
X113461904Y-109275771D02*
X113461904Y-109513866D01*
X113461904Y-109513866D02*
X113414285Y-109704342D01*
X113414285Y-109704342D02*
X113366666Y-109799580D01*
X113366666Y-109799580D02*
X113319047Y-109847200D01*
X113319047Y-109847200D02*
X113223809Y-109894819D01*
X113223809Y-109894819D02*
X113128571Y-109894819D01*
X113128571Y-109894819D02*
X113033333Y-109847200D01*
X113033333Y-109847200D02*
X112985714Y-109799580D01*
X112985714Y-109799580D02*
X112938095Y-109704342D01*
X112938095Y-109704342D02*
X112890476Y-109513866D01*
X112890476Y-109513866D02*
X112890476Y-109275771D01*
X112890476Y-109275771D02*
X112938095Y-109085295D01*
X112938095Y-109085295D02*
X112985714Y-108990057D01*
X112985714Y-108990057D02*
X113033333Y-108942438D01*
X113033333Y-108942438D02*
X113128571Y-108894819D01*
X105184819Y-128616666D02*
X104708628Y-128949999D01*
X105184819Y-129188094D02*
X104184819Y-129188094D01*
X104184819Y-129188094D02*
X104184819Y-128807142D01*
X104184819Y-128807142D02*
X104232438Y-128711904D01*
X104232438Y-128711904D02*
X104280057Y-128664285D01*
X104280057Y-128664285D02*
X104375295Y-128616666D01*
X104375295Y-128616666D02*
X104518152Y-128616666D01*
X104518152Y-128616666D02*
X104613390Y-128664285D01*
X104613390Y-128664285D02*
X104661009Y-128711904D01*
X104661009Y-128711904D02*
X104708628Y-128807142D01*
X104708628Y-128807142D02*
X104708628Y-129188094D01*
X104184819Y-128283332D02*
X104184819Y-127664285D01*
X104184819Y-127664285D02*
X104565771Y-127997618D01*
X104565771Y-127997618D02*
X104565771Y-127854761D01*
X104565771Y-127854761D02*
X104613390Y-127759523D01*
X104613390Y-127759523D02*
X104661009Y-127711904D01*
X104661009Y-127711904D02*
X104756247Y-127664285D01*
X104756247Y-127664285D02*
X104994342Y-127664285D01*
X104994342Y-127664285D02*
X105089580Y-127711904D01*
X105089580Y-127711904D02*
X105137200Y-127759523D01*
X105137200Y-127759523D02*
X105184819Y-127854761D01*
X105184819Y-127854761D02*
X105184819Y-128140475D01*
X105184819Y-128140475D02*
X105137200Y-128235713D01*
X105137200Y-128235713D02*
X105089580Y-128283332D01*
X110023809Y-110528628D02*
X110023809Y-111004819D01*
X109690476Y-110004819D02*
X110023809Y-110528628D01*
X110023809Y-110528628D02*
X110357142Y-110004819D01*
X111214285Y-111004819D02*
X110642857Y-111004819D01*
X110928571Y-111004819D02*
X110928571Y-110004819D01*
X110928571Y-110004819D02*
X110833333Y-110147676D01*
X110833333Y-110147676D02*
X110738095Y-110242914D01*
X110738095Y-110242914D02*
X110642857Y-110290533D01*
X122799580Y-124992857D02*
X122847200Y-125040476D01*
X122847200Y-125040476D02*
X122894819Y-125183333D01*
X122894819Y-125183333D02*
X122894819Y-125278571D01*
X122894819Y-125278571D02*
X122847200Y-125421428D01*
X122847200Y-125421428D02*
X122751961Y-125516666D01*
X122751961Y-125516666D02*
X122656723Y-125564285D01*
X122656723Y-125564285D02*
X122466247Y-125611904D01*
X122466247Y-125611904D02*
X122323390Y-125611904D01*
X122323390Y-125611904D02*
X122132914Y-125564285D01*
X122132914Y-125564285D02*
X122037676Y-125516666D01*
X122037676Y-125516666D02*
X121942438Y-125421428D01*
X121942438Y-125421428D02*
X121894819Y-125278571D01*
X121894819Y-125278571D02*
X121894819Y-125183333D01*
X121894819Y-125183333D02*
X121942438Y-125040476D01*
X121942438Y-125040476D02*
X121990057Y-124992857D01*
X122894819Y-124040476D02*
X122894819Y-124611904D01*
X122894819Y-124326190D02*
X121894819Y-124326190D01*
X121894819Y-124326190D02*
X122037676Y-124421428D01*
X122037676Y-124421428D02*
X122132914Y-124516666D01*
X122132914Y-124516666D02*
X122180533Y-124611904D01*
X121894819Y-123135714D02*
X121894819Y-123611904D01*
X121894819Y-123611904D02*
X122371009Y-123659523D01*
X122371009Y-123659523D02*
X122323390Y-123611904D01*
X122323390Y-123611904D02*
X122275771Y-123516666D01*
X122275771Y-123516666D02*
X122275771Y-123278571D01*
X122275771Y-123278571D02*
X122323390Y-123183333D01*
X122323390Y-123183333D02*
X122371009Y-123135714D01*
X122371009Y-123135714D02*
X122466247Y-123088095D01*
X122466247Y-123088095D02*
X122704342Y-123088095D01*
X122704342Y-123088095D02*
X122799580Y-123135714D01*
X122799580Y-123135714D02*
X122847200Y-123183333D01*
X122847200Y-123183333D02*
X122894819Y-123278571D01*
X122894819Y-123278571D02*
X122894819Y-123516666D01*
X122894819Y-123516666D02*
X122847200Y-123611904D01*
X122847200Y-123611904D02*
X122799580Y-123659523D01*
X133666666Y-118759819D02*
X133666666Y-119474104D01*
X133666666Y-119474104D02*
X133619047Y-119616961D01*
X133619047Y-119616961D02*
X133523809Y-119712200D01*
X133523809Y-119712200D02*
X133380952Y-119759819D01*
X133380952Y-119759819D02*
X133285714Y-119759819D01*
X134571428Y-118759819D02*
X134380952Y-118759819D01*
X134380952Y-118759819D02*
X134285714Y-118807438D01*
X134285714Y-118807438D02*
X134238095Y-118855057D01*
X134238095Y-118855057D02*
X134142857Y-118997914D01*
X134142857Y-118997914D02*
X134095238Y-119188390D01*
X134095238Y-119188390D02*
X134095238Y-119569342D01*
X134095238Y-119569342D02*
X134142857Y-119664580D01*
X134142857Y-119664580D02*
X134190476Y-119712200D01*
X134190476Y-119712200D02*
X134285714Y-119759819D01*
X134285714Y-119759819D02*
X134476190Y-119759819D01*
X134476190Y-119759819D02*
X134571428Y-119712200D01*
X134571428Y-119712200D02*
X134619047Y-119664580D01*
X134619047Y-119664580D02*
X134666666Y-119569342D01*
X134666666Y-119569342D02*
X134666666Y-119331247D01*
X134666666Y-119331247D02*
X134619047Y-119236009D01*
X134619047Y-119236009D02*
X134571428Y-119188390D01*
X134571428Y-119188390D02*
X134476190Y-119140771D01*
X134476190Y-119140771D02*
X134285714Y-119140771D01*
X134285714Y-119140771D02*
X134190476Y-119188390D01*
X134190476Y-119188390D02*
X134142857Y-119236009D01*
X134142857Y-119236009D02*
X134095238Y-119331247D01*
X111166666Y-129704819D02*
X111166666Y-130419104D01*
X111166666Y-130419104D02*
X111119047Y-130561961D01*
X111119047Y-130561961D02*
X111023809Y-130657200D01*
X111023809Y-130657200D02*
X110880952Y-130704819D01*
X110880952Y-130704819D02*
X110785714Y-130704819D01*
X112166666Y-130704819D02*
X111595238Y-130704819D01*
X111880952Y-130704819D02*
X111880952Y-129704819D01*
X111880952Y-129704819D02*
X111785714Y-129847676D01*
X111785714Y-129847676D02*
X111690476Y-129942914D01*
X111690476Y-129942914D02*
X111595238Y-129990533D01*
X101988095Y-129504819D02*
X101988095Y-128504819D01*
X101988095Y-128981009D02*
X102559523Y-128981009D01*
X102559523Y-129504819D02*
X102559523Y-128504819D01*
X103464285Y-128838152D02*
X103464285Y-129504819D01*
X103226190Y-128457200D02*
X102988095Y-129171485D01*
X102988095Y-129171485D02*
X103607142Y-129171485D01*
X125951009Y-125683333D02*
X125951009Y-126016666D01*
X126474819Y-126016666D02*
X125474819Y-126016666D01*
X125474819Y-126016666D02*
X125474819Y-125540476D01*
X125951009Y-124826190D02*
X125998628Y-124683333D01*
X125998628Y-124683333D02*
X126046247Y-124635714D01*
X126046247Y-124635714D02*
X126141485Y-124588095D01*
X126141485Y-124588095D02*
X126284342Y-124588095D01*
X126284342Y-124588095D02*
X126379580Y-124635714D01*
X126379580Y-124635714D02*
X126427200Y-124683333D01*
X126427200Y-124683333D02*
X126474819Y-124778571D01*
X126474819Y-124778571D02*
X126474819Y-125159523D01*
X126474819Y-125159523D02*
X125474819Y-125159523D01*
X125474819Y-125159523D02*
X125474819Y-124826190D01*
X125474819Y-124826190D02*
X125522438Y-124730952D01*
X125522438Y-124730952D02*
X125570057Y-124683333D01*
X125570057Y-124683333D02*
X125665295Y-124635714D01*
X125665295Y-124635714D02*
X125760533Y-124635714D01*
X125760533Y-124635714D02*
X125855771Y-124683333D01*
X125855771Y-124683333D02*
X125903390Y-124730952D01*
X125903390Y-124730952D02*
X125951009Y-124826190D01*
X125951009Y-124826190D02*
X125951009Y-125159523D01*
X126474819Y-123635714D02*
X126474819Y-124207142D01*
X126474819Y-123921428D02*
X125474819Y-123921428D01*
X125474819Y-123921428D02*
X125617676Y-124016666D01*
X125617676Y-124016666D02*
X125712914Y-124111904D01*
X125712914Y-124111904D02*
X125760533Y-124207142D01*
X112129580Y-107892857D02*
X112177200Y-107940476D01*
X112177200Y-107940476D02*
X112224819Y-108083333D01*
X112224819Y-108083333D02*
X112224819Y-108178571D01*
X112224819Y-108178571D02*
X112177200Y-108321428D01*
X112177200Y-108321428D02*
X112081961Y-108416666D01*
X112081961Y-108416666D02*
X111986723Y-108464285D01*
X111986723Y-108464285D02*
X111796247Y-108511904D01*
X111796247Y-108511904D02*
X111653390Y-108511904D01*
X111653390Y-108511904D02*
X111462914Y-108464285D01*
X111462914Y-108464285D02*
X111367676Y-108416666D01*
X111367676Y-108416666D02*
X111272438Y-108321428D01*
X111272438Y-108321428D02*
X111224819Y-108178571D01*
X111224819Y-108178571D02*
X111224819Y-108083333D01*
X111224819Y-108083333D02*
X111272438Y-107940476D01*
X111272438Y-107940476D02*
X111320057Y-107892857D01*
X112224819Y-106940476D02*
X112224819Y-107511904D01*
X112224819Y-107226190D02*
X111224819Y-107226190D01*
X111224819Y-107226190D02*
X111367676Y-107321428D01*
X111367676Y-107321428D02*
X111462914Y-107416666D01*
X111462914Y-107416666D02*
X111510533Y-107511904D01*
X111558152Y-106083333D02*
X112224819Y-106083333D01*
X111177200Y-106321428D02*
X111891485Y-106559523D01*
X111891485Y-106559523D02*
X111891485Y-105940476D01*
X126434819Y-101766666D02*
X125958628Y-102099999D01*
X126434819Y-102338094D02*
X125434819Y-102338094D01*
X125434819Y-102338094D02*
X125434819Y-101957142D01*
X125434819Y-101957142D02*
X125482438Y-101861904D01*
X125482438Y-101861904D02*
X125530057Y-101814285D01*
X125530057Y-101814285D02*
X125625295Y-101766666D01*
X125625295Y-101766666D02*
X125768152Y-101766666D01*
X125768152Y-101766666D02*
X125863390Y-101814285D01*
X125863390Y-101814285D02*
X125911009Y-101861904D01*
X125911009Y-101861904D02*
X125958628Y-101957142D01*
X125958628Y-101957142D02*
X125958628Y-102338094D01*
X126434819Y-101290475D02*
X126434819Y-101099999D01*
X126434819Y-101099999D02*
X126387200Y-101004761D01*
X126387200Y-101004761D02*
X126339580Y-100957142D01*
X126339580Y-100957142D02*
X126196723Y-100861904D01*
X126196723Y-100861904D02*
X126006247Y-100814285D01*
X126006247Y-100814285D02*
X125625295Y-100814285D01*
X125625295Y-100814285D02*
X125530057Y-100861904D01*
X125530057Y-100861904D02*
X125482438Y-100909523D01*
X125482438Y-100909523D02*
X125434819Y-101004761D01*
X125434819Y-101004761D02*
X125434819Y-101195237D01*
X125434819Y-101195237D02*
X125482438Y-101290475D01*
X125482438Y-101290475D02*
X125530057Y-101338094D01*
X125530057Y-101338094D02*
X125625295Y-101385713D01*
X125625295Y-101385713D02*
X125863390Y-101385713D01*
X125863390Y-101385713D02*
X125958628Y-101338094D01*
X125958628Y-101338094D02*
X126006247Y-101290475D01*
X126006247Y-101290475D02*
X126053866Y-101195237D01*
X126053866Y-101195237D02*
X126053866Y-101004761D01*
X126053866Y-101004761D02*
X126006247Y-100909523D01*
X126006247Y-100909523D02*
X125958628Y-100861904D01*
X125958628Y-100861904D02*
X125863390Y-100814285D01*
X100859580Y-117266666D02*
X100907200Y-117314285D01*
X100907200Y-117314285D02*
X100954819Y-117457142D01*
X100954819Y-117457142D02*
X100954819Y-117552380D01*
X100954819Y-117552380D02*
X100907200Y-117695237D01*
X100907200Y-117695237D02*
X100811961Y-117790475D01*
X100811961Y-117790475D02*
X100716723Y-117838094D01*
X100716723Y-117838094D02*
X100526247Y-117885713D01*
X100526247Y-117885713D02*
X100383390Y-117885713D01*
X100383390Y-117885713D02*
X100192914Y-117838094D01*
X100192914Y-117838094D02*
X100097676Y-117790475D01*
X100097676Y-117790475D02*
X100002438Y-117695237D01*
X100002438Y-117695237D02*
X99954819Y-117552380D01*
X99954819Y-117552380D02*
X99954819Y-117457142D01*
X99954819Y-117457142D02*
X100002438Y-117314285D01*
X100002438Y-117314285D02*
X100050057Y-117266666D01*
X100954819Y-116314285D02*
X100954819Y-116885713D01*
X100954819Y-116599999D02*
X99954819Y-116599999D01*
X99954819Y-116599999D02*
X100097676Y-116695237D01*
X100097676Y-116695237D02*
X100192914Y-116790475D01*
X100192914Y-116790475D02*
X100240533Y-116885713D01*
X103984819Y-124766666D02*
X103508628Y-125099999D01*
X103984819Y-125338094D02*
X102984819Y-125338094D01*
X102984819Y-125338094D02*
X102984819Y-124957142D01*
X102984819Y-124957142D02*
X103032438Y-124861904D01*
X103032438Y-124861904D02*
X103080057Y-124814285D01*
X103080057Y-124814285D02*
X103175295Y-124766666D01*
X103175295Y-124766666D02*
X103318152Y-124766666D01*
X103318152Y-124766666D02*
X103413390Y-124814285D01*
X103413390Y-124814285D02*
X103461009Y-124861904D01*
X103461009Y-124861904D02*
X103508628Y-124957142D01*
X103508628Y-124957142D02*
X103508628Y-125338094D01*
X103984819Y-123814285D02*
X103984819Y-124385713D01*
X103984819Y-124099999D02*
X102984819Y-124099999D01*
X102984819Y-124099999D02*
X103127676Y-124195237D01*
X103127676Y-124195237D02*
X103222914Y-124290475D01*
X103222914Y-124290475D02*
X103270533Y-124385713D01*
X101988095Y-99004819D02*
X101988095Y-98004819D01*
X101988095Y-98481009D02*
X102559523Y-98481009D01*
X102559523Y-99004819D02*
X102559523Y-98004819D01*
X103559523Y-99004819D02*
X102988095Y-99004819D01*
X103273809Y-99004819D02*
X103273809Y-98004819D01*
X103273809Y-98004819D02*
X103178571Y-98147676D01*
X103178571Y-98147676D02*
X103083333Y-98242914D01*
X103083333Y-98242914D02*
X102988095Y-98290533D01*
X116384819Y-109192857D02*
X115908628Y-109526190D01*
X116384819Y-109764285D02*
X115384819Y-109764285D01*
X115384819Y-109764285D02*
X115384819Y-109383333D01*
X115384819Y-109383333D02*
X115432438Y-109288095D01*
X115432438Y-109288095D02*
X115480057Y-109240476D01*
X115480057Y-109240476D02*
X115575295Y-109192857D01*
X115575295Y-109192857D02*
X115718152Y-109192857D01*
X115718152Y-109192857D02*
X115813390Y-109240476D01*
X115813390Y-109240476D02*
X115861009Y-109288095D01*
X115861009Y-109288095D02*
X115908628Y-109383333D01*
X115908628Y-109383333D02*
X115908628Y-109764285D01*
X116384819Y-108240476D02*
X116384819Y-108811904D01*
X116384819Y-108526190D02*
X115384819Y-108526190D01*
X115384819Y-108526190D02*
X115527676Y-108621428D01*
X115527676Y-108621428D02*
X115622914Y-108716666D01*
X115622914Y-108716666D02*
X115670533Y-108811904D01*
X115480057Y-107859523D02*
X115432438Y-107811904D01*
X115432438Y-107811904D02*
X115384819Y-107716666D01*
X115384819Y-107716666D02*
X115384819Y-107478571D01*
X115384819Y-107478571D02*
X115432438Y-107383333D01*
X115432438Y-107383333D02*
X115480057Y-107335714D01*
X115480057Y-107335714D02*
X115575295Y-107288095D01*
X115575295Y-107288095D02*
X115670533Y-107288095D01*
X115670533Y-107288095D02*
X115813390Y-107335714D01*
X115813390Y-107335714D02*
X116384819Y-107907142D01*
X116384819Y-107907142D02*
X116384819Y-107288095D01*
X132488095Y-99004819D02*
X132488095Y-98004819D01*
X132488095Y-98481009D02*
X133059523Y-98481009D01*
X133059523Y-99004819D02*
X133059523Y-98004819D01*
X133488095Y-98100057D02*
X133535714Y-98052438D01*
X133535714Y-98052438D02*
X133630952Y-98004819D01*
X133630952Y-98004819D02*
X133869047Y-98004819D01*
X133869047Y-98004819D02*
X133964285Y-98052438D01*
X133964285Y-98052438D02*
X134011904Y-98100057D01*
X134011904Y-98100057D02*
X134059523Y-98195295D01*
X134059523Y-98195295D02*
X134059523Y-98290533D01*
X134059523Y-98290533D02*
X134011904Y-98433390D01*
X134011904Y-98433390D02*
X133440476Y-99004819D01*
X133440476Y-99004819D02*
X134059523Y-99004819D01*
X102199580Y-123416666D02*
X102247200Y-123464285D01*
X102247200Y-123464285D02*
X102294819Y-123607142D01*
X102294819Y-123607142D02*
X102294819Y-123702380D01*
X102294819Y-123702380D02*
X102247200Y-123845237D01*
X102247200Y-123845237D02*
X102151961Y-123940475D01*
X102151961Y-123940475D02*
X102056723Y-123988094D01*
X102056723Y-123988094D02*
X101866247Y-124035713D01*
X101866247Y-124035713D02*
X101723390Y-124035713D01*
X101723390Y-124035713D02*
X101532914Y-123988094D01*
X101532914Y-123988094D02*
X101437676Y-123940475D01*
X101437676Y-123940475D02*
X101342438Y-123845237D01*
X101342438Y-123845237D02*
X101294819Y-123702380D01*
X101294819Y-123702380D02*
X101294819Y-123607142D01*
X101294819Y-123607142D02*
X101342438Y-123464285D01*
X101342438Y-123464285D02*
X101390057Y-123416666D01*
X101294819Y-123083332D02*
X101294819Y-122464285D01*
X101294819Y-122464285D02*
X101675771Y-122797618D01*
X101675771Y-122797618D02*
X101675771Y-122654761D01*
X101675771Y-122654761D02*
X101723390Y-122559523D01*
X101723390Y-122559523D02*
X101771009Y-122511904D01*
X101771009Y-122511904D02*
X101866247Y-122464285D01*
X101866247Y-122464285D02*
X102104342Y-122464285D01*
X102104342Y-122464285D02*
X102199580Y-122511904D01*
X102199580Y-122511904D02*
X102247200Y-122559523D01*
X102247200Y-122559523D02*
X102294819Y-122654761D01*
X102294819Y-122654761D02*
X102294819Y-122940475D01*
X102294819Y-122940475D02*
X102247200Y-123035713D01*
X102247200Y-123035713D02*
X102199580Y-123083332D01*
X127974819Y-111833333D02*
X128689104Y-111833333D01*
X128689104Y-111833333D02*
X128831961Y-111880952D01*
X128831961Y-111880952D02*
X128927200Y-111976190D01*
X128927200Y-111976190D02*
X128974819Y-112119047D01*
X128974819Y-112119047D02*
X128974819Y-112214285D01*
X127974819Y-110880952D02*
X127974819Y-111357142D01*
X127974819Y-111357142D02*
X128451009Y-111404761D01*
X128451009Y-111404761D02*
X128403390Y-111357142D01*
X128403390Y-111357142D02*
X128355771Y-111261904D01*
X128355771Y-111261904D02*
X128355771Y-111023809D01*
X128355771Y-111023809D02*
X128403390Y-110928571D01*
X128403390Y-110928571D02*
X128451009Y-110880952D01*
X128451009Y-110880952D02*
X128546247Y-110833333D01*
X128546247Y-110833333D02*
X128784342Y-110833333D01*
X128784342Y-110833333D02*
X128879580Y-110880952D01*
X128879580Y-110880952D02*
X128927200Y-110928571D01*
X128927200Y-110928571D02*
X128974819Y-111023809D01*
X128974819Y-111023809D02*
X128974819Y-111261904D01*
X128974819Y-111261904D02*
X128927200Y-111357142D01*
X128927200Y-111357142D02*
X128879580Y-111404761D01*
X107733333Y-105599580D02*
X107685714Y-105647200D01*
X107685714Y-105647200D02*
X107542857Y-105694819D01*
X107542857Y-105694819D02*
X107447619Y-105694819D01*
X107447619Y-105694819D02*
X107304762Y-105647200D01*
X107304762Y-105647200D02*
X107209524Y-105551961D01*
X107209524Y-105551961D02*
X107161905Y-105456723D01*
X107161905Y-105456723D02*
X107114286Y-105266247D01*
X107114286Y-105266247D02*
X107114286Y-105123390D01*
X107114286Y-105123390D02*
X107161905Y-104932914D01*
X107161905Y-104932914D02*
X107209524Y-104837676D01*
X107209524Y-104837676D02*
X107304762Y-104742438D01*
X107304762Y-104742438D02*
X107447619Y-104694819D01*
X107447619Y-104694819D02*
X107542857Y-104694819D01*
X107542857Y-104694819D02*
X107685714Y-104742438D01*
X107685714Y-104742438D02*
X107733333Y-104790057D01*
X108590476Y-104694819D02*
X108400000Y-104694819D01*
X108400000Y-104694819D02*
X108304762Y-104742438D01*
X108304762Y-104742438D02*
X108257143Y-104790057D01*
X108257143Y-104790057D02*
X108161905Y-104932914D01*
X108161905Y-104932914D02*
X108114286Y-105123390D01*
X108114286Y-105123390D02*
X108114286Y-105504342D01*
X108114286Y-105504342D02*
X108161905Y-105599580D01*
X108161905Y-105599580D02*
X108209524Y-105647200D01*
X108209524Y-105647200D02*
X108304762Y-105694819D01*
X108304762Y-105694819D02*
X108495238Y-105694819D01*
X108495238Y-105694819D02*
X108590476Y-105647200D01*
X108590476Y-105647200D02*
X108638095Y-105599580D01*
X108638095Y-105599580D02*
X108685714Y-105504342D01*
X108685714Y-105504342D02*
X108685714Y-105266247D01*
X108685714Y-105266247D02*
X108638095Y-105171009D01*
X108638095Y-105171009D02*
X108590476Y-105123390D01*
X108590476Y-105123390D02*
X108495238Y-105075771D01*
X108495238Y-105075771D02*
X108304762Y-105075771D01*
X108304762Y-105075771D02*
X108209524Y-105123390D01*
X108209524Y-105123390D02*
X108161905Y-105171009D01*
X108161905Y-105171009D02*
X108114286Y-105266247D01*
X127807142Y-115299580D02*
X127759523Y-115347200D01*
X127759523Y-115347200D02*
X127616666Y-115394819D01*
X127616666Y-115394819D02*
X127521428Y-115394819D01*
X127521428Y-115394819D02*
X127378571Y-115347200D01*
X127378571Y-115347200D02*
X127283333Y-115251961D01*
X127283333Y-115251961D02*
X127235714Y-115156723D01*
X127235714Y-115156723D02*
X127188095Y-114966247D01*
X127188095Y-114966247D02*
X127188095Y-114823390D01*
X127188095Y-114823390D02*
X127235714Y-114632914D01*
X127235714Y-114632914D02*
X127283333Y-114537676D01*
X127283333Y-114537676D02*
X127378571Y-114442438D01*
X127378571Y-114442438D02*
X127521428Y-114394819D01*
X127521428Y-114394819D02*
X127616666Y-114394819D01*
X127616666Y-114394819D02*
X127759523Y-114442438D01*
X127759523Y-114442438D02*
X127807142Y-114490057D01*
X128759523Y-115394819D02*
X128188095Y-115394819D01*
X128473809Y-115394819D02*
X128473809Y-114394819D01*
X128473809Y-114394819D02*
X128378571Y-114537676D01*
X128378571Y-114537676D02*
X128283333Y-114632914D01*
X128283333Y-114632914D02*
X128188095Y-114680533D01*
X129616666Y-114394819D02*
X129426190Y-114394819D01*
X129426190Y-114394819D02*
X129330952Y-114442438D01*
X129330952Y-114442438D02*
X129283333Y-114490057D01*
X129283333Y-114490057D02*
X129188095Y-114632914D01*
X129188095Y-114632914D02*
X129140476Y-114823390D01*
X129140476Y-114823390D02*
X129140476Y-115204342D01*
X129140476Y-115204342D02*
X129188095Y-115299580D01*
X129188095Y-115299580D02*
X129235714Y-115347200D01*
X129235714Y-115347200D02*
X129330952Y-115394819D01*
X129330952Y-115394819D02*
X129521428Y-115394819D01*
X129521428Y-115394819D02*
X129616666Y-115347200D01*
X129616666Y-115347200D02*
X129664285Y-115299580D01*
X129664285Y-115299580D02*
X129711904Y-115204342D01*
X129711904Y-115204342D02*
X129711904Y-114966247D01*
X129711904Y-114966247D02*
X129664285Y-114871009D01*
X129664285Y-114871009D02*
X129616666Y-114823390D01*
X129616666Y-114823390D02*
X129521428Y-114775771D01*
X129521428Y-114775771D02*
X129330952Y-114775771D01*
X129330952Y-114775771D02*
X129235714Y-114823390D01*
X129235714Y-114823390D02*
X129188095Y-114871009D01*
X129188095Y-114871009D02*
X129140476Y-114966247D01*
X132488095Y-129504819D02*
X132488095Y-128504819D01*
X132488095Y-128981009D02*
X133059523Y-128981009D01*
X133059523Y-129504819D02*
X133059523Y-128504819D01*
X133440476Y-128504819D02*
X134059523Y-128504819D01*
X134059523Y-128504819D02*
X133726190Y-128885771D01*
X133726190Y-128885771D02*
X133869047Y-128885771D01*
X133869047Y-128885771D02*
X133964285Y-128933390D01*
X133964285Y-128933390D02*
X134011904Y-128981009D01*
X134011904Y-128981009D02*
X134059523Y-129076247D01*
X134059523Y-129076247D02*
X134059523Y-129314342D01*
X134059523Y-129314342D02*
X134011904Y-129409580D01*
X134011904Y-129409580D02*
X133964285Y-129457200D01*
X133964285Y-129457200D02*
X133869047Y-129504819D01*
X133869047Y-129504819D02*
X133583333Y-129504819D01*
X133583333Y-129504819D02*
X133488095Y-129457200D01*
X133488095Y-129457200D02*
X133440476Y-129409580D01*
X119834819Y-108816666D02*
X119358628Y-109149999D01*
X119834819Y-109388094D02*
X118834819Y-109388094D01*
X118834819Y-109388094D02*
X118834819Y-109007142D01*
X118834819Y-109007142D02*
X118882438Y-108911904D01*
X118882438Y-108911904D02*
X118930057Y-108864285D01*
X118930057Y-108864285D02*
X119025295Y-108816666D01*
X119025295Y-108816666D02*
X119168152Y-108816666D01*
X119168152Y-108816666D02*
X119263390Y-108864285D01*
X119263390Y-108864285D02*
X119311009Y-108911904D01*
X119311009Y-108911904D02*
X119358628Y-109007142D01*
X119358628Y-109007142D02*
X119358628Y-109388094D01*
X118834819Y-107959523D02*
X118834819Y-108149999D01*
X118834819Y-108149999D02*
X118882438Y-108245237D01*
X118882438Y-108245237D02*
X118930057Y-108292856D01*
X118930057Y-108292856D02*
X119072914Y-108388094D01*
X119072914Y-108388094D02*
X119263390Y-108435713D01*
X119263390Y-108435713D02*
X119644342Y-108435713D01*
X119644342Y-108435713D02*
X119739580Y-108388094D01*
X119739580Y-108388094D02*
X119787200Y-108340475D01*
X119787200Y-108340475D02*
X119834819Y-108245237D01*
X119834819Y-108245237D02*
X119834819Y-108054761D01*
X119834819Y-108054761D02*
X119787200Y-107959523D01*
X119787200Y-107959523D02*
X119739580Y-107911904D01*
X119739580Y-107911904D02*
X119644342Y-107864285D01*
X119644342Y-107864285D02*
X119406247Y-107864285D01*
X119406247Y-107864285D02*
X119311009Y-107911904D01*
X119311009Y-107911904D02*
X119263390Y-107959523D01*
X119263390Y-107959523D02*
X119215771Y-108054761D01*
X119215771Y-108054761D02*
X119215771Y-108245237D01*
X119215771Y-108245237D02*
X119263390Y-108340475D01*
X119263390Y-108340475D02*
X119311009Y-108388094D01*
X119311009Y-108388094D02*
X119406247Y-108435713D01*
X116299580Y-124942857D02*
X116347200Y-124990476D01*
X116347200Y-124990476D02*
X116394819Y-125133333D01*
X116394819Y-125133333D02*
X116394819Y-125228571D01*
X116394819Y-125228571D02*
X116347200Y-125371428D01*
X116347200Y-125371428D02*
X116251961Y-125466666D01*
X116251961Y-125466666D02*
X116156723Y-125514285D01*
X116156723Y-125514285D02*
X115966247Y-125561904D01*
X115966247Y-125561904D02*
X115823390Y-125561904D01*
X115823390Y-125561904D02*
X115632914Y-125514285D01*
X115632914Y-125514285D02*
X115537676Y-125466666D01*
X115537676Y-125466666D02*
X115442438Y-125371428D01*
X115442438Y-125371428D02*
X115394819Y-125228571D01*
X115394819Y-125228571D02*
X115394819Y-125133333D01*
X115394819Y-125133333D02*
X115442438Y-124990476D01*
X115442438Y-124990476D02*
X115490057Y-124942857D01*
X116394819Y-123990476D02*
X116394819Y-124561904D01*
X116394819Y-124276190D02*
X115394819Y-124276190D01*
X115394819Y-124276190D02*
X115537676Y-124371428D01*
X115537676Y-124371428D02*
X115632914Y-124466666D01*
X115632914Y-124466666D02*
X115680533Y-124561904D01*
X115490057Y-123609523D02*
X115442438Y-123561904D01*
X115442438Y-123561904D02*
X115394819Y-123466666D01*
X115394819Y-123466666D02*
X115394819Y-123228571D01*
X115394819Y-123228571D02*
X115442438Y-123133333D01*
X115442438Y-123133333D02*
X115490057Y-123085714D01*
X115490057Y-123085714D02*
X115585295Y-123038095D01*
X115585295Y-123038095D02*
X115680533Y-123038095D01*
X115680533Y-123038095D02*
X115823390Y-123085714D01*
X115823390Y-123085714D02*
X116394819Y-123657142D01*
X116394819Y-123657142D02*
X116394819Y-123038095D01*
X125284819Y-124516666D02*
X124808628Y-124849999D01*
X125284819Y-125088094D02*
X124284819Y-125088094D01*
X124284819Y-125088094D02*
X124284819Y-124707142D01*
X124284819Y-124707142D02*
X124332438Y-124611904D01*
X124332438Y-124611904D02*
X124380057Y-124564285D01*
X124380057Y-124564285D02*
X124475295Y-124516666D01*
X124475295Y-124516666D02*
X124618152Y-124516666D01*
X124618152Y-124516666D02*
X124713390Y-124564285D01*
X124713390Y-124564285D02*
X124761009Y-124611904D01*
X124761009Y-124611904D02*
X124808628Y-124707142D01*
X124808628Y-124707142D02*
X124808628Y-125088094D01*
X124284819Y-124183332D02*
X124284819Y-123516666D01*
X124284819Y-123516666D02*
X125284819Y-123945237D01*
X123311905Y-107674819D02*
X123311905Y-106674819D01*
X123311905Y-106674819D02*
X123550000Y-106674819D01*
X123550000Y-106674819D02*
X123692857Y-106722438D01*
X123692857Y-106722438D02*
X123788095Y-106817676D01*
X123788095Y-106817676D02*
X123835714Y-106912914D01*
X123835714Y-106912914D02*
X123883333Y-107103390D01*
X123883333Y-107103390D02*
X123883333Y-107246247D01*
X123883333Y-107246247D02*
X123835714Y-107436723D01*
X123835714Y-107436723D02*
X123788095Y-107531961D01*
X123788095Y-107531961D02*
X123692857Y-107627200D01*
X123692857Y-107627200D02*
X123550000Y-107674819D01*
X123550000Y-107674819D02*
X123311905Y-107674819D01*
X124216667Y-106674819D02*
X124835714Y-106674819D01*
X124835714Y-106674819D02*
X124502381Y-107055771D01*
X124502381Y-107055771D02*
X124645238Y-107055771D01*
X124645238Y-107055771D02*
X124740476Y-107103390D01*
X124740476Y-107103390D02*
X124788095Y-107151009D01*
X124788095Y-107151009D02*
X124835714Y-107246247D01*
X124835714Y-107246247D02*
X124835714Y-107484342D01*
X124835714Y-107484342D02*
X124788095Y-107579580D01*
X124788095Y-107579580D02*
X124740476Y-107627200D01*
X124740476Y-107627200D02*
X124645238Y-107674819D01*
X124645238Y-107674819D02*
X124359524Y-107674819D01*
X124359524Y-107674819D02*
X124264286Y-107627200D01*
X124264286Y-107627200D02*
X124216667Y-107579580D01*
X105184819Y-124566666D02*
X104708628Y-124899999D01*
X105184819Y-125138094D02*
X104184819Y-125138094D01*
X104184819Y-125138094D02*
X104184819Y-124757142D01*
X104184819Y-124757142D02*
X104232438Y-124661904D01*
X104232438Y-124661904D02*
X104280057Y-124614285D01*
X104280057Y-124614285D02*
X104375295Y-124566666D01*
X104375295Y-124566666D02*
X104518152Y-124566666D01*
X104518152Y-124566666D02*
X104613390Y-124614285D01*
X104613390Y-124614285D02*
X104661009Y-124661904D01*
X104661009Y-124661904D02*
X104708628Y-124757142D01*
X104708628Y-124757142D02*
X104708628Y-125138094D01*
X104280057Y-124185713D02*
X104232438Y-124138094D01*
X104232438Y-124138094D02*
X104184819Y-124042856D01*
X104184819Y-124042856D02*
X104184819Y-123804761D01*
X104184819Y-123804761D02*
X104232438Y-123709523D01*
X104232438Y-123709523D02*
X104280057Y-123661904D01*
X104280057Y-123661904D02*
X104375295Y-123614285D01*
X104375295Y-123614285D02*
X104470533Y-123614285D01*
X104470533Y-123614285D02*
X104613390Y-123661904D01*
X104613390Y-123661904D02*
X105184819Y-124233332D01*
X105184819Y-124233332D02*
X105184819Y-123614285D01*
X124099580Y-125042857D02*
X124147200Y-125090476D01*
X124147200Y-125090476D02*
X124194819Y-125233333D01*
X124194819Y-125233333D02*
X124194819Y-125328571D01*
X124194819Y-125328571D02*
X124147200Y-125471428D01*
X124147200Y-125471428D02*
X124051961Y-125566666D01*
X124051961Y-125566666D02*
X123956723Y-125614285D01*
X123956723Y-125614285D02*
X123766247Y-125661904D01*
X123766247Y-125661904D02*
X123623390Y-125661904D01*
X123623390Y-125661904D02*
X123432914Y-125614285D01*
X123432914Y-125614285D02*
X123337676Y-125566666D01*
X123337676Y-125566666D02*
X123242438Y-125471428D01*
X123242438Y-125471428D02*
X123194819Y-125328571D01*
X123194819Y-125328571D02*
X123194819Y-125233333D01*
X123194819Y-125233333D02*
X123242438Y-125090476D01*
X123242438Y-125090476D02*
X123290057Y-125042857D01*
X124194819Y-124090476D02*
X124194819Y-124661904D01*
X124194819Y-124376190D02*
X123194819Y-124376190D01*
X123194819Y-124376190D02*
X123337676Y-124471428D01*
X123337676Y-124471428D02*
X123432914Y-124566666D01*
X123432914Y-124566666D02*
X123480533Y-124661904D01*
X123194819Y-123471428D02*
X123194819Y-123376190D01*
X123194819Y-123376190D02*
X123242438Y-123280952D01*
X123242438Y-123280952D02*
X123290057Y-123233333D01*
X123290057Y-123233333D02*
X123385295Y-123185714D01*
X123385295Y-123185714D02*
X123575771Y-123138095D01*
X123575771Y-123138095D02*
X123813866Y-123138095D01*
X123813866Y-123138095D02*
X124004342Y-123185714D01*
X124004342Y-123185714D02*
X124099580Y-123233333D01*
X124099580Y-123233333D02*
X124147200Y-123280952D01*
X124147200Y-123280952D02*
X124194819Y-123376190D01*
X124194819Y-123376190D02*
X124194819Y-123471428D01*
X124194819Y-123471428D02*
X124147200Y-123566666D01*
X124147200Y-123566666D02*
X124099580Y-123614285D01*
X124099580Y-123614285D02*
X124004342Y-123661904D01*
X124004342Y-123661904D02*
X123813866Y-123709523D01*
X123813866Y-123709523D02*
X123575771Y-123709523D01*
X123575771Y-123709523D02*
X123385295Y-123661904D01*
X123385295Y-123661904D02*
X123290057Y-123614285D01*
X123290057Y-123614285D02*
X123242438Y-123566666D01*
X123242438Y-123566666D02*
X123194819Y-123471428D01*
X109238095Y-101054819D02*
X109238095Y-101864342D01*
X109238095Y-101864342D02*
X109285714Y-101959580D01*
X109285714Y-101959580D02*
X109333333Y-102007200D01*
X109333333Y-102007200D02*
X109428571Y-102054819D01*
X109428571Y-102054819D02*
X109619047Y-102054819D01*
X109619047Y-102054819D02*
X109714285Y-102007200D01*
X109714285Y-102007200D02*
X109761904Y-101959580D01*
X109761904Y-101959580D02*
X109809523Y-101864342D01*
X109809523Y-101864342D02*
X109809523Y-101054819D01*
X110238095Y-101150057D02*
X110285714Y-101102438D01*
X110285714Y-101102438D02*
X110380952Y-101054819D01*
X110380952Y-101054819D02*
X110619047Y-101054819D01*
X110619047Y-101054819D02*
X110714285Y-101102438D01*
X110714285Y-101102438D02*
X110761904Y-101150057D01*
X110761904Y-101150057D02*
X110809523Y-101245295D01*
X110809523Y-101245295D02*
X110809523Y-101340533D01*
X110809523Y-101340533D02*
X110761904Y-101483390D01*
X110761904Y-101483390D02*
X110190476Y-102054819D01*
X110190476Y-102054819D02*
X110809523Y-102054819D01*
X123166666Y-127974819D02*
X123166666Y-128689104D01*
X123166666Y-128689104D02*
X123119047Y-128831961D01*
X123119047Y-128831961D02*
X123023809Y-128927200D01*
X123023809Y-128927200D02*
X122880952Y-128974819D01*
X122880952Y-128974819D02*
X122785714Y-128974819D01*
X123547619Y-127974819D02*
X124166666Y-127974819D01*
X124166666Y-127974819D02*
X123833333Y-128355771D01*
X123833333Y-128355771D02*
X123976190Y-128355771D01*
X123976190Y-128355771D02*
X124071428Y-128403390D01*
X124071428Y-128403390D02*
X124119047Y-128451009D01*
X124119047Y-128451009D02*
X124166666Y-128546247D01*
X124166666Y-128546247D02*
X124166666Y-128784342D01*
X124166666Y-128784342D02*
X124119047Y-128879580D01*
X124119047Y-128879580D02*
X124071428Y-128927200D01*
X124071428Y-128927200D02*
X123976190Y-128974819D01*
X123976190Y-128974819D02*
X123690476Y-128974819D01*
X123690476Y-128974819D02*
X123595238Y-128927200D01*
X123595238Y-128927200D02*
X123547619Y-128879580D01*
X119833333Y-108545180D02*
X119833333Y-107830895D01*
X119833333Y-107830895D02*
X119880952Y-107688038D01*
X119880952Y-107688038D02*
X119976190Y-107592800D01*
X119976190Y-107592800D02*
X120119047Y-107545180D01*
X120119047Y-107545180D02*
X120214285Y-107545180D01*
X119404761Y-108449942D02*
X119357142Y-108497561D01*
X119357142Y-108497561D02*
X119261904Y-108545180D01*
X119261904Y-108545180D02*
X119023809Y-108545180D01*
X119023809Y-108545180D02*
X118928571Y-108497561D01*
X118928571Y-108497561D02*
X118880952Y-108449942D01*
X118880952Y-108449942D02*
X118833333Y-108354704D01*
X118833333Y-108354704D02*
X118833333Y-108259466D01*
X118833333Y-108259466D02*
X118880952Y-108116609D01*
X118880952Y-108116609D02*
X119452380Y-107545180D01*
X119452380Y-107545180D02*
X118833333Y-107545180D01*
X119738095Y-108554819D02*
X119738095Y-109364342D01*
X119738095Y-109364342D02*
X119785714Y-109459580D01*
X119785714Y-109459580D02*
X119833333Y-109507200D01*
X119833333Y-109507200D02*
X119928571Y-109554819D01*
X119928571Y-109554819D02*
X120119047Y-109554819D01*
X120119047Y-109554819D02*
X120214285Y-109507200D01*
X120214285Y-109507200D02*
X120261904Y-109459580D01*
X120261904Y-109459580D02*
X120309523Y-109364342D01*
X120309523Y-109364342D02*
X120309523Y-108554819D01*
X120690476Y-108554819D02*
X121309523Y-108554819D01*
X121309523Y-108554819D02*
X120976190Y-108935771D01*
X120976190Y-108935771D02*
X121119047Y-108935771D01*
X121119047Y-108935771D02*
X121214285Y-108983390D01*
X121214285Y-108983390D02*
X121261904Y-109031009D01*
X121261904Y-109031009D02*
X121309523Y-109126247D01*
X121309523Y-109126247D02*
X121309523Y-109364342D01*
X121309523Y-109364342D02*
X121261904Y-109459580D01*
X121261904Y-109459580D02*
X121214285Y-109507200D01*
X121214285Y-109507200D02*
X121119047Y-109554819D01*
X121119047Y-109554819D02*
X120833333Y-109554819D01*
X120833333Y-109554819D02*
X120738095Y-109507200D01*
X120738095Y-109507200D02*
X120690476Y-109459580D01*
X126738095Y-100354819D02*
X126738095Y-101164342D01*
X126738095Y-101164342D02*
X126785714Y-101259580D01*
X126785714Y-101259580D02*
X126833333Y-101307200D01*
X126833333Y-101307200D02*
X126928571Y-101354819D01*
X126928571Y-101354819D02*
X127119047Y-101354819D01*
X127119047Y-101354819D02*
X127214285Y-101307200D01*
X127214285Y-101307200D02*
X127261904Y-101259580D01*
X127261904Y-101259580D02*
X127309523Y-101164342D01*
X127309523Y-101164342D02*
X127309523Y-100354819D01*
X128261904Y-100354819D02*
X127785714Y-100354819D01*
X127785714Y-100354819D02*
X127738095Y-100831009D01*
X127738095Y-100831009D02*
X127785714Y-100783390D01*
X127785714Y-100783390D02*
X127880952Y-100735771D01*
X127880952Y-100735771D02*
X128119047Y-100735771D01*
X128119047Y-100735771D02*
X128214285Y-100783390D01*
X128214285Y-100783390D02*
X128261904Y-100831009D01*
X128261904Y-100831009D02*
X128309523Y-100926247D01*
X128309523Y-100926247D02*
X128309523Y-101164342D01*
X128309523Y-101164342D02*
X128261904Y-101259580D01*
X128261904Y-101259580D02*
X128214285Y-101307200D01*
X128214285Y-101307200D02*
X128119047Y-101354819D01*
X128119047Y-101354819D02*
X127880952Y-101354819D01*
X127880952Y-101354819D02*
X127785714Y-101307200D01*
X127785714Y-101307200D02*
X127738095Y-101259580D01*
X106934819Y-110833333D02*
X107649104Y-110833333D01*
X107649104Y-110833333D02*
X107791961Y-110880952D01*
X107791961Y-110880952D02*
X107887200Y-110976190D01*
X107887200Y-110976190D02*
X107934819Y-111119047D01*
X107934819Y-111119047D02*
X107934819Y-111214285D01*
X107268152Y-109928571D02*
X107934819Y-109928571D01*
X106887200Y-110166666D02*
X107601485Y-110404761D01*
X107601485Y-110404761D02*
X107601485Y-109785714D01*
X108533333Y-106679580D02*
X108485714Y-106727200D01*
X108485714Y-106727200D02*
X108342857Y-106774819D01*
X108342857Y-106774819D02*
X108247619Y-106774819D01*
X108247619Y-106774819D02*
X108104762Y-106727200D01*
X108104762Y-106727200D02*
X108009524Y-106631961D01*
X108009524Y-106631961D02*
X107961905Y-106536723D01*
X107961905Y-106536723D02*
X107914286Y-106346247D01*
X107914286Y-106346247D02*
X107914286Y-106203390D01*
X107914286Y-106203390D02*
X107961905Y-106012914D01*
X107961905Y-106012914D02*
X108009524Y-105917676D01*
X108009524Y-105917676D02*
X108104762Y-105822438D01*
X108104762Y-105822438D02*
X108247619Y-105774819D01*
X108247619Y-105774819D02*
X108342857Y-105774819D01*
X108342857Y-105774819D02*
X108485714Y-105822438D01*
X108485714Y-105822438D02*
X108533333Y-105870057D01*
X109438095Y-105774819D02*
X108961905Y-105774819D01*
X108961905Y-105774819D02*
X108914286Y-106251009D01*
X108914286Y-106251009D02*
X108961905Y-106203390D01*
X108961905Y-106203390D02*
X109057143Y-106155771D01*
X109057143Y-106155771D02*
X109295238Y-106155771D01*
X109295238Y-106155771D02*
X109390476Y-106203390D01*
X109390476Y-106203390D02*
X109438095Y-106251009D01*
X109438095Y-106251009D02*
X109485714Y-106346247D01*
X109485714Y-106346247D02*
X109485714Y-106584342D01*
X109485714Y-106584342D02*
X109438095Y-106679580D01*
X109438095Y-106679580D02*
X109390476Y-106727200D01*
X109390476Y-106727200D02*
X109295238Y-106774819D01*
X109295238Y-106774819D02*
X109057143Y-106774819D01*
X109057143Y-106774819D02*
X108961905Y-106727200D01*
X108961905Y-106727200D02*
X108914286Y-106679580D01*
X112233333Y-100279580D02*
X112185714Y-100327200D01*
X112185714Y-100327200D02*
X112042857Y-100374819D01*
X112042857Y-100374819D02*
X111947619Y-100374819D01*
X111947619Y-100374819D02*
X111804762Y-100327200D01*
X111804762Y-100327200D02*
X111709524Y-100231961D01*
X111709524Y-100231961D02*
X111661905Y-100136723D01*
X111661905Y-100136723D02*
X111614286Y-99946247D01*
X111614286Y-99946247D02*
X111614286Y-99803390D01*
X111614286Y-99803390D02*
X111661905Y-99612914D01*
X111661905Y-99612914D02*
X111709524Y-99517676D01*
X111709524Y-99517676D02*
X111804762Y-99422438D01*
X111804762Y-99422438D02*
X111947619Y-99374819D01*
X111947619Y-99374819D02*
X112042857Y-99374819D01*
X112042857Y-99374819D02*
X112185714Y-99422438D01*
X112185714Y-99422438D02*
X112233333Y-99470057D01*
X112566667Y-99374819D02*
X113233333Y-99374819D01*
X113233333Y-99374819D02*
X112804762Y-100374819D01*
X109954819Y-120238094D02*
X108954819Y-120238094D01*
X108954819Y-120238094D02*
X108954819Y-119999999D01*
X108954819Y-119999999D02*
X109002438Y-119857142D01*
X109002438Y-119857142D02*
X109097676Y-119761904D01*
X109097676Y-119761904D02*
X109192914Y-119714285D01*
X109192914Y-119714285D02*
X109383390Y-119666666D01*
X109383390Y-119666666D02*
X109526247Y-119666666D01*
X109526247Y-119666666D02*
X109716723Y-119714285D01*
X109716723Y-119714285D02*
X109811961Y-119761904D01*
X109811961Y-119761904D02*
X109907200Y-119857142D01*
X109907200Y-119857142D02*
X109954819Y-119999999D01*
X109954819Y-119999999D02*
X109954819Y-120238094D01*
X109954819Y-118714285D02*
X109954819Y-119285713D01*
X109954819Y-118999999D02*
X108954819Y-118999999D01*
X108954819Y-118999999D02*
X109097676Y-119095237D01*
X109097676Y-119095237D02*
X109192914Y-119190475D01*
X109192914Y-119190475D02*
X109240533Y-119285713D01*
X102454819Y-120261904D02*
X103264342Y-120261904D01*
X103264342Y-120261904D02*
X103359580Y-120214285D01*
X103359580Y-120214285D02*
X103407200Y-120166666D01*
X103407200Y-120166666D02*
X103454819Y-120071428D01*
X103454819Y-120071428D02*
X103454819Y-119880952D01*
X103454819Y-119880952D02*
X103407200Y-119785714D01*
X103407200Y-119785714D02*
X103359580Y-119738095D01*
X103359580Y-119738095D02*
X103264342Y-119690476D01*
X103264342Y-119690476D02*
X102454819Y-119690476D01*
X103454819Y-118690476D02*
X103454819Y-119261904D01*
X103454819Y-118976190D02*
X102454819Y-118976190D01*
X102454819Y-118976190D02*
X102597676Y-119071428D01*
X102597676Y-119071428D02*
X102692914Y-119166666D01*
X102692914Y-119166666D02*
X102740533Y-119261904D01*
X110833333Y-123254819D02*
X110357143Y-123254819D01*
X110357143Y-123254819D02*
X110357143Y-122254819D01*
X111690476Y-123254819D02*
X111119048Y-123254819D01*
X111404762Y-123254819D02*
X111404762Y-122254819D01*
X111404762Y-122254819D02*
X111309524Y-122397676D01*
X111309524Y-122397676D02*
X111214286Y-122492914D01*
X111214286Y-122492914D02*
X111119048Y-122540533D01*
X128533333Y-101334819D02*
X128200000Y-100858628D01*
X127961905Y-101334819D02*
X127961905Y-100334819D01*
X127961905Y-100334819D02*
X128342857Y-100334819D01*
X128342857Y-100334819D02*
X128438095Y-100382438D01*
X128438095Y-100382438D02*
X128485714Y-100430057D01*
X128485714Y-100430057D02*
X128533333Y-100525295D01*
X128533333Y-100525295D02*
X128533333Y-100668152D01*
X128533333Y-100668152D02*
X128485714Y-100763390D01*
X128485714Y-100763390D02*
X128438095Y-100811009D01*
X128438095Y-100811009D02*
X128342857Y-100858628D01*
X128342857Y-100858628D02*
X127961905Y-100858628D01*
X129104762Y-100763390D02*
X129009524Y-100715771D01*
X129009524Y-100715771D02*
X128961905Y-100668152D01*
X128961905Y-100668152D02*
X128914286Y-100572914D01*
X128914286Y-100572914D02*
X128914286Y-100525295D01*
X128914286Y-100525295D02*
X128961905Y-100430057D01*
X128961905Y-100430057D02*
X129009524Y-100382438D01*
X129009524Y-100382438D02*
X129104762Y-100334819D01*
X129104762Y-100334819D02*
X129295238Y-100334819D01*
X129295238Y-100334819D02*
X129390476Y-100382438D01*
X129390476Y-100382438D02*
X129438095Y-100430057D01*
X129438095Y-100430057D02*
X129485714Y-100525295D01*
X129485714Y-100525295D02*
X129485714Y-100572914D01*
X129485714Y-100572914D02*
X129438095Y-100668152D01*
X129438095Y-100668152D02*
X129390476Y-100715771D01*
X129390476Y-100715771D02*
X129295238Y-100763390D01*
X129295238Y-100763390D02*
X129104762Y-100763390D01*
X129104762Y-100763390D02*
X129009524Y-100811009D01*
X129009524Y-100811009D02*
X128961905Y-100858628D01*
X128961905Y-100858628D02*
X128914286Y-100953866D01*
X128914286Y-100953866D02*
X128914286Y-101144342D01*
X128914286Y-101144342D02*
X128961905Y-101239580D01*
X128961905Y-101239580D02*
X129009524Y-101287200D01*
X129009524Y-101287200D02*
X129104762Y-101334819D01*
X129104762Y-101334819D02*
X129295238Y-101334819D01*
X129295238Y-101334819D02*
X129390476Y-101287200D01*
X129390476Y-101287200D02*
X129438095Y-101239580D01*
X129438095Y-101239580D02*
X129485714Y-101144342D01*
X129485714Y-101144342D02*
X129485714Y-100953866D01*
X129485714Y-100953866D02*
X129438095Y-100858628D01*
X129438095Y-100858628D02*
X129390476Y-100811009D01*
X129390476Y-100811009D02*
X129295238Y-100763390D01*
X124161905Y-125324819D02*
X124161905Y-124324819D01*
X124161905Y-124324819D02*
X124400000Y-124324819D01*
X124400000Y-124324819D02*
X124542857Y-124372438D01*
X124542857Y-124372438D02*
X124638095Y-124467676D01*
X124638095Y-124467676D02*
X124685714Y-124562914D01*
X124685714Y-124562914D02*
X124733333Y-124753390D01*
X124733333Y-124753390D02*
X124733333Y-124896247D01*
X124733333Y-124896247D02*
X124685714Y-125086723D01*
X124685714Y-125086723D02*
X124638095Y-125181961D01*
X124638095Y-125181961D02*
X124542857Y-125277200D01*
X124542857Y-125277200D02*
X124400000Y-125324819D01*
X124400000Y-125324819D02*
X124161905Y-125324819D01*
X125590476Y-124658152D02*
X125590476Y-125324819D01*
X125352381Y-124277200D02*
X125114286Y-124991485D01*
X125114286Y-124991485D02*
X125733333Y-124991485D01*
X111957142Y-108549580D02*
X111909523Y-108597200D01*
X111909523Y-108597200D02*
X111766666Y-108644819D01*
X111766666Y-108644819D02*
X111671428Y-108644819D01*
X111671428Y-108644819D02*
X111528571Y-108597200D01*
X111528571Y-108597200D02*
X111433333Y-108501961D01*
X111433333Y-108501961D02*
X111385714Y-108406723D01*
X111385714Y-108406723D02*
X111338095Y-108216247D01*
X111338095Y-108216247D02*
X111338095Y-108073390D01*
X111338095Y-108073390D02*
X111385714Y-107882914D01*
X111385714Y-107882914D02*
X111433333Y-107787676D01*
X111433333Y-107787676D02*
X111528571Y-107692438D01*
X111528571Y-107692438D02*
X111671428Y-107644819D01*
X111671428Y-107644819D02*
X111766666Y-107644819D01*
X111766666Y-107644819D02*
X111909523Y-107692438D01*
X111909523Y-107692438D02*
X111957142Y-107740057D01*
X112909523Y-108644819D02*
X112338095Y-108644819D01*
X112623809Y-108644819D02*
X112623809Y-107644819D01*
X112623809Y-107644819D02*
X112528571Y-107787676D01*
X112528571Y-107787676D02*
X112433333Y-107882914D01*
X112433333Y-107882914D02*
X112338095Y-107930533D01*
X113242857Y-107644819D02*
X113861904Y-107644819D01*
X113861904Y-107644819D02*
X113528571Y-108025771D01*
X113528571Y-108025771D02*
X113671428Y-108025771D01*
X113671428Y-108025771D02*
X113766666Y-108073390D01*
X113766666Y-108073390D02*
X113814285Y-108121009D01*
X113814285Y-108121009D02*
X113861904Y-108216247D01*
X113861904Y-108216247D02*
X113861904Y-108454342D01*
X113861904Y-108454342D02*
X113814285Y-108549580D01*
X113814285Y-108549580D02*
X113766666Y-108597200D01*
X113766666Y-108597200D02*
X113671428Y-108644819D01*
X113671428Y-108644819D02*
X113385714Y-108644819D01*
X113385714Y-108644819D02*
X113290476Y-108597200D01*
X113290476Y-108597200D02*
X113242857Y-108549580D01*
X111657142Y-114549580D02*
X111609523Y-114597200D01*
X111609523Y-114597200D02*
X111466666Y-114644819D01*
X111466666Y-114644819D02*
X111371428Y-114644819D01*
X111371428Y-114644819D02*
X111228571Y-114597200D01*
X111228571Y-114597200D02*
X111133333Y-114501961D01*
X111133333Y-114501961D02*
X111085714Y-114406723D01*
X111085714Y-114406723D02*
X111038095Y-114216247D01*
X111038095Y-114216247D02*
X111038095Y-114073390D01*
X111038095Y-114073390D02*
X111085714Y-113882914D01*
X111085714Y-113882914D02*
X111133333Y-113787676D01*
X111133333Y-113787676D02*
X111228571Y-113692438D01*
X111228571Y-113692438D02*
X111371428Y-113644819D01*
X111371428Y-113644819D02*
X111466666Y-113644819D01*
X111466666Y-113644819D02*
X111609523Y-113692438D01*
X111609523Y-113692438D02*
X111657142Y-113740057D01*
X112609523Y-114644819D02*
X112038095Y-114644819D01*
X112323809Y-114644819D02*
X112323809Y-113644819D01*
X112323809Y-113644819D02*
X112228571Y-113787676D01*
X112228571Y-113787676D02*
X112133333Y-113882914D01*
X112133333Y-113882914D02*
X112038095Y-113930533D01*
X113085714Y-114644819D02*
X113276190Y-114644819D01*
X113276190Y-114644819D02*
X113371428Y-114597200D01*
X113371428Y-114597200D02*
X113419047Y-114549580D01*
X113419047Y-114549580D02*
X113514285Y-114406723D01*
X113514285Y-114406723D02*
X113561904Y-114216247D01*
X113561904Y-114216247D02*
X113561904Y-113835295D01*
X113561904Y-113835295D02*
X113514285Y-113740057D01*
X113514285Y-113740057D02*
X113466666Y-113692438D01*
X113466666Y-113692438D02*
X113371428Y-113644819D01*
X113371428Y-113644819D02*
X113180952Y-113644819D01*
X113180952Y-113644819D02*
X113085714Y-113692438D01*
X113085714Y-113692438D02*
X113038095Y-113740057D01*
X113038095Y-113740057D02*
X112990476Y-113835295D01*
X112990476Y-113835295D02*
X112990476Y-114073390D01*
X112990476Y-114073390D02*
X113038095Y-114168628D01*
X113038095Y-114168628D02*
X113085714Y-114216247D01*
X113085714Y-114216247D02*
X113180952Y-114263866D01*
X113180952Y-114263866D02*
X113371428Y-114263866D01*
X113371428Y-114263866D02*
X113466666Y-114216247D01*
X113466666Y-114216247D02*
X113514285Y-114168628D01*
X113514285Y-114168628D02*
X113561904Y-114073390D01*
D11*
%TO.C,R11*%
X121420000Y-108603641D02*
X121420000Y-108296359D01*
X122180000Y-108603641D02*
X122180000Y-108296359D01*
%TO.C,C11*%
X127342164Y-108790000D02*
X127557836Y-108790000D01*
X127342164Y-109510000D02*
X127557836Y-109510000D01*
%TO.C,C20*%
X112092164Y-110240000D02*
X112307836Y-110240000D01*
X112092164Y-110960000D02*
X112307836Y-110960000D01*
%TO.C,R3*%
X105520000Y-128603641D02*
X105520000Y-128296359D01*
X106280000Y-128603641D02*
X106280000Y-128296359D01*
%TO.C,Y1*%
X108500000Y-111350000D02*
X108500000Y-114650000D01*
X108500000Y-114650000D02*
X112500000Y-114650000D01*
%TO.C,C15*%
X123240000Y-124457836D02*
X123240000Y-124242164D01*
X123960000Y-124457836D02*
X123960000Y-124242164D01*
%TO.C,J6*%
X132890000Y-120240000D02*
X134000000Y-120240000D01*
X132890000Y-121000000D02*
X132890000Y-120240000D01*
X132890000Y-121760000D02*
X132890000Y-125505000D01*
X132890000Y-121760000D02*
X133436529Y-121760000D01*
X132890000Y-125505000D02*
X133692470Y-125505000D01*
X134307530Y-125505000D02*
X135110000Y-125505000D01*
X134563471Y-121760000D02*
X135110000Y-121760000D01*
X135110000Y-121760000D02*
X135110000Y-125505000D01*
%TO.C,FB1*%
X126940000Y-125012779D02*
X126940000Y-124687221D01*
X127960000Y-125012779D02*
X127960000Y-124687221D01*
%TO.C,C14*%
X112690000Y-107390580D02*
X112690000Y-107109420D01*
X113710000Y-107390580D02*
X113710000Y-107109420D01*
%TO.C,R9*%
X126770000Y-101753641D02*
X126770000Y-101446359D01*
X127530000Y-101753641D02*
X127530000Y-101446359D01*
%TO.C,C1*%
X101440000Y-117811252D02*
X101440000Y-116388748D01*
X103260000Y-117811252D02*
X103260000Y-116388748D01*
%TO.C,R1*%
X104320000Y-124753641D02*
X104320000Y-124446359D01*
X105080000Y-124753641D02*
X105080000Y-124446359D01*
%TO.C,R12*%
X116720000Y-108703641D02*
X116720000Y-108396359D01*
X117480000Y-108703641D02*
X117480000Y-108396359D01*
%TO.C,C3*%
X102640000Y-123357836D02*
X102640000Y-123142164D01*
X103360000Y-123357836D02*
X103360000Y-123142164D01*
%TO.C,J5*%
X130715000Y-114610000D02*
X130715000Y-113560000D01*
X133215000Y-114610000D02*
X130715000Y-114610000D01*
X130715000Y-113560000D02*
X129725000Y-113560000D01*
X135185000Y-113440000D02*
X135185000Y-109560000D01*
X130715000Y-108390000D02*
X130715000Y-109440000D01*
X133215000Y-108390000D02*
X130715000Y-108390000D01*
%TO.C,C6*%
X107792164Y-106040000D02*
X108007836Y-106040000D01*
X107792164Y-106760000D02*
X108007836Y-106760000D01*
%TO.C,C16*%
X128342164Y-115740000D02*
X128557836Y-115740000D01*
X128342164Y-116460000D02*
X128557836Y-116460000D01*
%TO.C,R6*%
X120170000Y-108803641D02*
X120170000Y-108496359D01*
X120930000Y-108803641D02*
X120930000Y-108496359D01*
%TO.C,C12*%
X116740000Y-124407836D02*
X116740000Y-124192164D01*
X117460000Y-124407836D02*
X117460000Y-124192164D01*
%TO.C,R7*%
X125620000Y-124503641D02*
X125620000Y-124196359D01*
X126380000Y-124503641D02*
X126380000Y-124196359D01*
%TO.C,D3*%
X122565000Y-107915000D02*
X122565000Y-109385000D01*
X122565000Y-109385000D02*
X124850000Y-109385000D01*
X124850000Y-107915000D02*
X122565000Y-107915000D01*
%TO.C,R2*%
X105520000Y-124553641D02*
X105520000Y-124246359D01*
X106280000Y-124553641D02*
X106280000Y-124246359D01*
%TO.C,C10*%
X124540000Y-124507836D02*
X124540000Y-124292164D01*
X125260000Y-124507836D02*
X125260000Y-124292164D01*
%TO.C,U2*%
X110000000Y-102440000D02*
X109200000Y-102440000D01*
X110000000Y-102440000D02*
X110800000Y-102440000D01*
X110000000Y-105560000D02*
X109200000Y-105560000D01*
X110000000Y-105560000D02*
X110800000Y-105560000D01*
X108700000Y-102490000D02*
X108460000Y-102160000D01*
X108940000Y-102160000D01*
X108700000Y-102490000D01*
G36*
X108700000Y-102490000D02*
G01*
X108460000Y-102160000D01*
X108940000Y-102160000D01*
X108700000Y-102490000D01*
G37*
%TO.C,J3*%
X118390000Y-130715000D02*
X119440000Y-130715000D01*
X118390000Y-133215000D02*
X118390000Y-130715000D01*
X119440000Y-130715000D02*
X119440000Y-129725000D01*
X119560000Y-135185000D02*
X127440000Y-135185000D01*
X128610000Y-130715000D02*
X127560000Y-130715000D01*
X128610000Y-133215000D02*
X128610000Y-130715000D01*
%TO.C,J2*%
X124170000Y-102600000D02*
X124170000Y-104300000D01*
X114830000Y-102600000D02*
X114830000Y-104300000D01*
%TO.C,U3*%
X115390000Y-111390000D02*
X115390000Y-112340000D01*
X115390000Y-121610000D02*
X115390000Y-120660000D01*
X116340000Y-111390000D02*
X115390000Y-111390000D01*
X116340000Y-121610000D02*
X115390000Y-121610000D01*
X124660000Y-111390000D02*
X125610000Y-111390000D01*
X124660000Y-121610000D02*
X125610000Y-121610000D01*
X125610000Y-111390000D02*
X125610000Y-112340000D01*
X125610000Y-121610000D02*
X125610000Y-120660000D01*
X114775000Y-112340000D02*
X114435000Y-111870000D01*
X115115000Y-111870000D01*
X114775000Y-112340000D01*
G36*
X114775000Y-112340000D02*
G01*
X114435000Y-111870000D01*
X115115000Y-111870000D01*
X114775000Y-112340000D01*
G37*
D12*
%TO.C,U5*%
X126150000Y-103540000D02*
X126150000Y-103100000D01*
X126150000Y-105100000D02*
X126150000Y-104460000D01*
X126150000Y-105100000D02*
X126300000Y-105100000D01*
X128575000Y-105075000D02*
X128725000Y-105075000D01*
X128700000Y-102900000D02*
X128850000Y-102900000D01*
X128850000Y-103540000D02*
X128850000Y-102900000D01*
X128850000Y-105100000D02*
X128850000Y-104460000D01*
X126150000Y-102900000D02*
X125790000Y-102900000D01*
X126150000Y-102540000D01*
X126150000Y-102900000D01*
G36*
X126150000Y-102900000D02*
G01*
X125790000Y-102900000D01*
X126150000Y-102540000D01*
X126150000Y-102900000D01*
G37*
D11*
%TO.C,J4*%
X105285000Y-107390000D02*
X105285000Y-108440000D01*
X102785000Y-107390000D02*
X105285000Y-107390000D01*
X105285000Y-108440000D02*
X106275000Y-108440000D01*
X100815000Y-108560000D02*
X100815000Y-112440000D01*
X105285000Y-113610000D02*
X105285000Y-112560000D01*
X102785000Y-113610000D02*
X105285000Y-113610000D01*
%TO.C,C5*%
X108438748Y-107265000D02*
X108961252Y-107265000D01*
X108438748Y-108735000D02*
X108961252Y-108735000D01*
%TO.C,C7*%
X112259420Y-100840000D02*
X112540580Y-100840000D01*
X112259420Y-101860000D02*
X112540580Y-101860000D01*
%TO.C,D1*%
X110350000Y-123010000D02*
X113650000Y-123010000D01*
X110350000Y-123010000D02*
X110350000Y-117500000D01*
X113650000Y-123010000D02*
X113650000Y-117500000D01*
D10*
%TO.C,U1*%
X103925000Y-121575000D02*
X103925000Y-117425000D01*
X109075000Y-121575000D02*
X109075000Y-117425000D01*
D11*
X104000000Y-122000000D02*
X103670000Y-122240000D01*
X103670000Y-121760000D01*
X104000000Y-122000000D01*
G36*
X104000000Y-122000000D02*
G01*
X103670000Y-122240000D01*
X103670000Y-121760000D01*
X104000000Y-122000000D01*
G37*
%TO.C,L1*%
X107540000Y-125050000D02*
X107540000Y-124200000D01*
X107540000Y-129750000D02*
X107540000Y-128950000D01*
X108150000Y-123590000D02*
X113850000Y-123590000D01*
X113850000Y-130410000D02*
X108200000Y-130410000D01*
X114460000Y-124200000D02*
X114460000Y-125050000D01*
X114460000Y-128950000D02*
X114460000Y-129800000D01*
X108150000Y-123590000D02*
G75*
G03*
X107540000Y-124200000I0J-610000D01*
G01*
X107540000Y-129750000D02*
G75*
G03*
X108200000Y-130410000I660002J2D01*
G01*
X114460000Y-124200000D02*
G75*
G03*
X113850000Y-123590000I-610000J0D01*
G01*
X113850000Y-130410000D02*
G75*
G03*
X114460000Y-129800000I0J610000D01*
G01*
%TO.C,R8*%
X128546359Y-101670000D02*
X128853641Y-101670000D01*
X128546359Y-102430000D02*
X128853641Y-102430000D01*
%TO.C,D4*%
X123415000Y-125565000D02*
X123415000Y-127035000D01*
X123415000Y-127035000D02*
X125700000Y-127035000D01*
X125700000Y-125565000D02*
X123415000Y-125565000D01*
%TO.C,C13*%
X112492164Y-108990000D02*
X112707836Y-108990000D01*
X112492164Y-109710000D02*
X112707836Y-109710000D01*
%TO.C,C19*%
X112192164Y-114990000D02*
X112407836Y-114990000D01*
X112192164Y-115710000D02*
X112407836Y-115710000D01*
%TD*%
%LPC*%
D13*
%TO.C,R11*%
X121800000Y-108960000D03*
X121800000Y-107940000D03*
%TD*%
D14*
%TO.C,C11*%
X126970000Y-109150000D03*
X127930000Y-109150000D03*
%TD*%
%TO.C,C20*%
X111720000Y-110600000D03*
X112680000Y-110600000D03*
%TD*%
D13*
%TO.C,R3*%
X105900000Y-128960000D03*
X105900000Y-127940000D03*
%TD*%
D15*
%TO.C,Y1*%
X109400000Y-113850000D03*
X111600000Y-113850000D03*
X111600000Y-112150000D03*
X109400000Y-112150000D03*
%TD*%
D16*
%TO.C,C15*%
X123600000Y-124830000D03*
X123600000Y-123870000D03*
%TD*%
D17*
%TO.C,J6*%
X134000000Y-121000000D03*
D18*
X134000000Y-122270000D03*
X134000000Y-123540000D03*
X134000000Y-124810000D03*
%TD*%
D19*
%TO.C,J1*%
X108500000Y-133000000D03*
D20*
X114500000Y-133000000D03*
%TD*%
D21*
%TO.C,H4*%
X102750000Y-133250000D03*
%TD*%
D22*
%TO.C,FB1*%
X127450000Y-125637500D03*
X127450000Y-124062500D03*
%TD*%
D23*
%TO.C,C14*%
X113200000Y-108025000D03*
X113200000Y-106475000D03*
%TD*%
D13*
%TO.C,R9*%
X127150000Y-102110000D03*
X127150000Y-101090000D03*
%TD*%
D24*
%TO.C,C1*%
X102350000Y-118575000D03*
X102350000Y-115625000D03*
%TD*%
D13*
%TO.C,R1*%
X104700000Y-125110000D03*
X104700000Y-124090000D03*
%TD*%
D21*
%TO.C,H1*%
X102750000Y-102750000D03*
%TD*%
D13*
%TO.C,R12*%
X117100000Y-109060000D03*
X117100000Y-108040000D03*
%TD*%
D21*
%TO.C,H2*%
X133250000Y-102750000D03*
%TD*%
D16*
%TO.C,C3*%
X103000000Y-123730000D03*
X103000000Y-122770000D03*
%TD*%
D25*
%TO.C,J5*%
X130500000Y-113000000D03*
X130500000Y-112000000D03*
X130500000Y-111000000D03*
X130500000Y-110000000D03*
D26*
X134375000Y-114300000D03*
X134375000Y-108700000D03*
%TD*%
D14*
%TO.C,C6*%
X107420000Y-106400000D03*
X108380000Y-106400000D03*
%TD*%
%TO.C,C16*%
X127970000Y-116100000D03*
X128930000Y-116100000D03*
%TD*%
D21*
%TO.C,H3*%
X133250000Y-133250000D03*
%TD*%
D13*
%TO.C,R6*%
X120550000Y-109160000D03*
X120550000Y-108140000D03*
%TD*%
D16*
%TO.C,C12*%
X117100000Y-124780000D03*
X117100000Y-123820000D03*
%TD*%
D13*
%TO.C,R7*%
X126000000Y-124860000D03*
X126000000Y-123840000D03*
%TD*%
D27*
%TO.C,D3*%
X123262500Y-108650000D03*
X124837500Y-108650000D03*
%TD*%
D13*
%TO.C,R2*%
X105900000Y-124910000D03*
X105900000Y-123890000D03*
%TD*%
D16*
%TO.C,C10*%
X124900000Y-124880000D03*
X124900000Y-123920000D03*
%TD*%
D28*
%TO.C,U2*%
X108862500Y-103050000D03*
X108862500Y-104000000D03*
X108862500Y-104950000D03*
X111137500Y-104950000D03*
X111137500Y-103050000D03*
%TD*%
D29*
%TO.C,J3*%
X120000000Y-130500000D03*
X121000000Y-130500000D03*
X122000000Y-130500000D03*
X123000000Y-130500000D03*
X124000000Y-130500000D03*
X125000000Y-130500000D03*
X126000000Y-130500000D03*
X127000000Y-130500000D03*
D30*
X118700000Y-134375000D03*
X128300000Y-134375000D03*
%TD*%
D31*
%TO.C,J2*%
X122390000Y-105105000D03*
X116610000Y-105105000D03*
D32*
X122700000Y-106180000D03*
X121900000Y-106180000D03*
D33*
X120750000Y-106180000D03*
X119750000Y-106180000D03*
X119250000Y-106180000D03*
X118250000Y-106180000D03*
D32*
X117100000Y-106180000D03*
X116300000Y-106180000D03*
X116300000Y-106180000D03*
X117100000Y-106180000D03*
D33*
X117750000Y-106180000D03*
X118750000Y-106180000D03*
X120250000Y-106180000D03*
X121250000Y-106180000D03*
D32*
X121900000Y-106180000D03*
X122700000Y-106180000D03*
D34*
X123820000Y-105605000D03*
D35*
X123820000Y-101425000D03*
D34*
X115180000Y-105605000D03*
D35*
X115180000Y-101425000D03*
%TD*%
D36*
%TO.C,U3*%
X114825000Y-112750000D03*
X114825000Y-113250000D03*
X114825000Y-113750000D03*
X114825000Y-114250000D03*
X114825000Y-114750000D03*
X114825000Y-115250000D03*
X114825000Y-115750000D03*
X114825000Y-116250000D03*
X114825000Y-116750000D03*
X114825000Y-117250000D03*
X114825000Y-117750000D03*
X114825000Y-118250000D03*
X114825000Y-118750000D03*
X114825000Y-119250000D03*
X114825000Y-119750000D03*
X114825000Y-120250000D03*
D37*
X116750000Y-122175000D03*
X117250000Y-122175000D03*
X117750000Y-122175000D03*
X118250000Y-122175000D03*
X118750000Y-122175000D03*
X119250000Y-122175000D03*
X119750000Y-122175000D03*
X120250000Y-122175000D03*
X120750000Y-122175000D03*
X121250000Y-122175000D03*
X121750000Y-122175000D03*
X122250000Y-122175000D03*
X122750000Y-122175000D03*
X123250000Y-122175000D03*
X123750000Y-122175000D03*
X124250000Y-122175000D03*
D36*
X126175000Y-120250000D03*
X126175000Y-119750000D03*
X126175000Y-119250000D03*
X126175000Y-118750000D03*
X126175000Y-118250000D03*
X126175000Y-117750000D03*
X126175000Y-117250000D03*
X126175000Y-116750000D03*
X126175000Y-116250000D03*
X126175000Y-115750000D03*
X126175000Y-115250000D03*
X126175000Y-114750000D03*
X126175000Y-114250000D03*
X126175000Y-113750000D03*
X126175000Y-113250000D03*
X126175000Y-112750000D03*
D37*
X124250000Y-110825000D03*
X123750000Y-110825000D03*
X123250000Y-110825000D03*
X122750000Y-110825000D03*
X122250000Y-110825000D03*
X121750000Y-110825000D03*
X121250000Y-110825000D03*
X120750000Y-110825000D03*
X120250000Y-110825000D03*
X119750000Y-110825000D03*
X119250000Y-110825000D03*
X118750000Y-110825000D03*
X118250000Y-110825000D03*
X117750000Y-110825000D03*
X117250000Y-110825000D03*
X116750000Y-110825000D03*
%TD*%
D38*
%TO.C,U5*%
X126525000Y-103200000D03*
X127175000Y-103200000D03*
X127825000Y-103200000D03*
X128475000Y-103200000D03*
X128475000Y-104800000D03*
X127825000Y-104800000D03*
X127175000Y-104800000D03*
X126525000Y-104800000D03*
%TD*%
D39*
%TO.C,J4*%
X105500000Y-109000000D03*
X105500000Y-110000000D03*
X105500000Y-111000000D03*
X105500000Y-112000000D03*
D40*
X101625000Y-107700000D03*
X101625000Y-113300000D03*
%TD*%
D41*
%TO.C,C5*%
X107750000Y-108000000D03*
X109650000Y-108000000D03*
%TD*%
D42*
%TO.C,C7*%
X111625000Y-101350000D03*
X113175000Y-101350000D03*
%TD*%
D43*
%TO.C,D1*%
X112000000Y-121500000D03*
X112000000Y-117500000D03*
%TD*%
D44*
%TO.C,U1*%
X104595000Y-122200000D03*
X105865000Y-122200000D03*
X107135000Y-122200000D03*
X108405000Y-122200000D03*
X108405000Y-116800000D03*
X107135000Y-116800000D03*
X105865000Y-116800000D03*
X104595000Y-116800000D03*
D45*
X106500000Y-119500000D03*
%TD*%
D46*
%TO.C,L1*%
X108275000Y-127000000D03*
X113725000Y-127000000D03*
%TD*%
D47*
%TO.C,R8*%
X128190000Y-102050000D03*
X129210000Y-102050000D03*
%TD*%
D27*
%TO.C,D4*%
X124112500Y-126300000D03*
X125687500Y-126300000D03*
%TD*%
D14*
%TO.C,C13*%
X112120000Y-109350000D03*
X113080000Y-109350000D03*
%TD*%
%TO.C,C19*%
X111820000Y-115350000D03*
X112780000Y-115350000D03*
%TD*%
%LPD*%
M02*
