%TF.GenerationSoftware,KiCad,Pcbnew,7.0.11+dfsg-1build4*%
%TF.CreationDate,2026-09-27T03:20:39+03:00*%
%TF.ProjectId,rl_fc_f405,726c5f66-635f-4663-9430-352e6b696361,rev?*%
%TF.SameCoordinates,Original*%
%TF.FileFunction,Copper,L4,Bot*%
%TF.FilePolarity,Positive*%
%FSLAX46Y46*%
G04 Gerber Fmt 4.6, Leading zero omitted, Abs format (unit mm)*
G04 Created by KiCad (PCBNEW 7.0.11+dfsg-1build4) date 2026-09-27 03:20:39*
%MOMM*%
%LPD*%
G01*
G04 APERTURE LIST*
G04 Aperture macros list*
%AMRoundRect*
0 Rectangle with rounded corners*
0 $1 Rounding radius*
0 $2 $3 $4 $5 $6 $7 $8 $9 X,Y pos of 4 corners*
0 Add a 4 corners polygon primitive as box body*
4,1,4,$2,$3,$4,$5,$6,$7,$8,$9,$2,$3,0*
0 Add four circle primitives for the rounded corners*
1,1,$1+$1,$2,$3*
1,1,$1+$1,$4,$5*
1,1,$1+$1,$6,$7*
1,1,$1+$1,$8,$9*
0 Add four rect primitives between the rounded corners*
20,1,$1+$1,$2,$3,$4,$5,0*
20,1,$1+$1,$4,$5,$6,$7,0*
20,1,$1+$1,$6,$7,$8,$9,0*
20,1,$1+$1,$8,$9,$2,$3,0*%
G04 Aperture macros list end*
%TA.AperFunction,ComponentPad*%
%ADD10R,1.000000X1.000000*%
%TD*%
%TA.AperFunction,ComponentPad*%
%ADD11O,1.000000X1.000000*%
%TD*%
%TA.AperFunction,ComponentPad*%
%ADD12RoundRect,0.249999X-1.300001X-1.300001X1.300001X-1.300001X1.300001X1.300001X-1.300001X1.300001X0*%
%TD*%
%TA.AperFunction,ComponentPad*%
%ADD13C,3.100000*%
%TD*%
%TA.AperFunction,ComponentPad*%
%ADD14O,1.000000X2.100000*%
%TD*%
%TA.AperFunction,ComponentPad*%
%ADD15O,1.000000X1.800000*%
%TD*%
%TA.AperFunction,ComponentPad*%
%ADD16C,0.600000*%
%TD*%
%TA.AperFunction,SMDPad,CuDef*%
%ADD17R,4.500000X2.950000*%
%TD*%
%TA.AperFunction,SMDPad,CuDef*%
%ADD18RoundRect,0.140000X-0.140000X-0.170000X0.140000X-0.170000X0.140000X0.170000X-0.140000X0.170000X0*%
%TD*%
%TA.AperFunction,SMDPad,CuDef*%
%ADD19R,1.700000X1.000000*%
%TD*%
%TA.AperFunction,SMDPad,CuDef*%
%ADD20RoundRect,0.135000X-0.135000X-0.185000X0.135000X-0.185000X0.135000X0.185000X-0.135000X0.185000X0*%
%TD*%
%TA.AperFunction,SMDPad,CuDef*%
%ADD21RoundRect,0.250000X0.650000X-1.000000X0.650000X1.000000X-0.650000X1.000000X-0.650000X-1.000000X0*%
%TD*%
%TA.AperFunction,SMDPad,CuDef*%
%ADD22RoundRect,0.250000X-0.250000X-0.475000X0.250000X-0.475000X0.250000X0.475000X-0.250000X0.475000X0*%
%TD*%
%TA.AperFunction,SMDPad,CuDef*%
%ADD23RoundRect,0.140000X0.170000X-0.140000X0.170000X0.140000X-0.170000X0.140000X-0.170000X-0.140000X0*%
%TD*%
%TA.AperFunction,SMDPad,CuDef*%
%ADD24RoundRect,0.218750X-0.218750X-0.256250X0.218750X-0.256250X0.218750X0.256250X-0.218750X0.256250X0*%
%TD*%
%TA.AperFunction,SMDPad,CuDef*%
%ADD25RoundRect,0.150000X-0.512500X-0.150000X0.512500X-0.150000X0.512500X0.150000X-0.512500X0.150000X0*%
%TD*%
%TA.AperFunction,SMDPad,CuDef*%
%ADD26RoundRect,0.250000X0.650000X-0.325000X0.650000X0.325000X-0.650000X0.325000X-0.650000X-0.325000X0*%
%TD*%
%TA.AperFunction,SMDPad,CuDef*%
%ADD27RoundRect,0.150000X-0.650000X-0.150000X0.650000X-0.150000X0.650000X0.150000X-0.650000X0.150000X0*%
%TD*%
%TA.AperFunction,SMDPad,CuDef*%
%ADD28RoundRect,0.087500X-0.187500X-0.087500X0.187500X-0.087500X0.187500X0.087500X-0.187500X0.087500X0*%
%TD*%
%TA.AperFunction,SMDPad,CuDef*%
%ADD29RoundRect,0.087500X-0.087500X-0.187500X0.087500X-0.187500X0.087500X0.187500X-0.087500X0.187500X0*%
%TD*%
%TA.AperFunction,ViaPad*%
%ADD30C,0.800000*%
%TD*%
%TA.AperFunction,ViaPad*%
%ADD31C,0.600000*%
%TD*%
%TA.AperFunction,ViaPad*%
%ADD32C,0.500000*%
%TD*%
%TA.AperFunction,Conductor*%
%ADD33C,1.000000*%
%TD*%
%TA.AperFunction,Conductor*%
%ADD34C,0.300000*%
%TD*%
%TA.AperFunction,Conductor*%
%ADD35C,0.400000*%
%TD*%
%TA.AperFunction,Conductor*%
%ADD36C,0.200000*%
%TD*%
%TA.AperFunction,Conductor*%
%ADD37C,0.150000*%
%TD*%
%TA.AperFunction,Conductor*%
%ADD38C,0.250000*%
%TD*%
G04 APERTURE END LIST*
D10*
%TO.P,J6,1*%
%TO.N,+3V3*%
X134000000Y-121000000D03*
D11*
%TO.P,J6,2*%
%TO.N,SWDIO*%
X134000000Y-122270000D03*
%TO.P,J6,3*%
%TO.N,SWCLK*%
X134000000Y-123540000D03*
%TO.P,J6,4*%
%TO.N,GND*%
X134000000Y-124810000D03*
%TD*%
D12*
%TO.P,J1,1*%
%TO.N,VBAT*%
X108500000Y-133000000D03*
D13*
%TO.P,J1,2*%
%TO.N,GND*%
X114500000Y-133000000D03*
%TD*%
D14*
%TO.P,J2,S1*%
%TO.N,GND*%
X123820000Y-105605000D03*
D15*
X123820000Y-101425000D03*
D14*
X115180000Y-105605000D03*
D15*
X115180000Y-101425000D03*
%TD*%
D16*
%TO.P,U1,9*%
%TO.N,GND*%
X104700000Y-120100000D03*
X105900000Y-120100000D03*
X107200000Y-120100000D03*
X108300000Y-120100000D03*
D17*
X106500000Y-119500000D03*
D16*
X104700000Y-118900000D03*
X105900000Y-118900000D03*
X107200000Y-118900000D03*
X108300000Y-118900000D03*
%TD*%
D18*
%TO.P,C23,1*%
%TO.N,/Sensors/+3V3_IMU*%
X114920000Y-120400000D03*
%TO.P,C23,2*%
%TO.N,GND*%
X115880000Y-120400000D03*
%TD*%
%TO.P,C21,1*%
%TO.N,/MCU/NRST*%
X114320000Y-115750000D03*
%TO.P,C21,2*%
%TO.N,GND*%
X115280000Y-115750000D03*
%TD*%
%TO.P,C26,1*%
%TO.N,+3V3*%
X132270000Y-128650000D03*
%TO.P,C26,2*%
%TO.N,GND*%
X133230000Y-128650000D03*
%TD*%
D19*
%TO.P,SW1,1*%
%TO.N,/MCU/BOOT0*%
X123850000Y-114900000D03*
X130150000Y-114900000D03*
%TO.P,SW1,2*%
%TO.N,+3V3*%
X123850000Y-111100000D03*
X130150000Y-111100000D03*
%TD*%
D20*
%TO.P,R5,1*%
%TO.N,/MCU/BOOT0*%
X131140000Y-116650000D03*
%TO.P,R5,2*%
%TO.N,GND*%
X132160000Y-116650000D03*
%TD*%
D21*
%TO.P,D2,1*%
%TO.N,VBAT*%
X108500000Y-128500000D03*
%TO.P,D2,2*%
%TO.N,GND*%
X108500000Y-124500000D03*
%TD*%
D18*
%TO.P,C27,1*%
%TO.N,+3V3*%
X120720000Y-124800000D03*
%TO.P,C27,2*%
%TO.N,GND*%
X121680000Y-124800000D03*
%TD*%
D20*
%TO.P,R10,1*%
%TO.N,+3V3*%
X121540000Y-129100000D03*
%TO.P,R10,2*%
%TO.N,FLASH_CS*%
X122560000Y-129100000D03*
%TD*%
%TO.P,R4,1*%
%TO.N,VBAT_SENSE*%
X112290000Y-117250000D03*
%TO.P,R4,2*%
%TO.N,GND*%
X113310000Y-117250000D03*
%TD*%
D22*
%TO.P,C4,1*%
%TO.N,+5V*%
X107900000Y-103050000D03*
%TO.P,C4,2*%
%TO.N,GND*%
X109800000Y-103050000D03*
%TD*%
D23*
%TO.P,C24,1*%
%TO.N,/Sensors/IMU_REGOUT*%
X119050000Y-121330000D03*
%TO.P,C24,2*%
%TO.N,GND*%
X119050000Y-120370000D03*
%TD*%
D18*
%TO.P,C17,1*%
%TO.N,/MCU/+3V3A*%
X112820000Y-120000000D03*
%TO.P,C17,2*%
%TO.N,GND*%
X113780000Y-120000000D03*
%TD*%
D24*
%TO.P,FB2,1*%
%TO.N,+3V3*%
X119512500Y-123450000D03*
%TO.P,FB2,2*%
%TO.N,/Sensors/+3V3_IMU*%
X121087500Y-123450000D03*
%TD*%
D23*
%TO.P,C22,1*%
%TO.N,/Sensors/+3V3_IMU*%
X116950000Y-121330000D03*
%TO.P,C22,2*%
%TO.N,GND*%
X116950000Y-120370000D03*
%TD*%
D18*
%TO.P,C8,1*%
%TO.N,VBAT_SENSE*%
X114320000Y-117250000D03*
%TO.P,C8,2*%
%TO.N,GND*%
X115280000Y-117250000D03*
%TD*%
D25*
%TO.P,U7,1*%
%TO.N,/Connectors/USB_CONN_DP*%
X118362500Y-105450000D03*
%TO.P,U7,2*%
%TO.N,GND*%
X118362500Y-104500000D03*
%TO.P,U7,3*%
%TO.N,/Connectors/USB_CONN_DM*%
X118362500Y-103550000D03*
%TO.P,U7,4*%
%TO.N,USB_DM*%
X120637500Y-103550000D03*
%TO.P,U7,5*%
%TO.N,/Connectors/VBUS*%
X120637500Y-104500000D03*
%TO.P,U7,6*%
%TO.N,USB_DP*%
X120637500Y-105450000D03*
%TD*%
D21*
%TO.P,D5,1*%
%TO.N,+5V*%
X127500000Y-107000000D03*
%TO.P,D5,2*%
%TO.N,/Connectors/VBUS*%
X127500000Y-103000000D03*
%TD*%
D26*
%TO.P,C2,1*%
%TO.N,VBAT*%
X105850000Y-117025000D03*
%TO.P,C2,2*%
%TO.N,GND*%
X105850000Y-114075000D03*
%TD*%
D18*
%TO.P,C18,1*%
%TO.N,/MCU/+3V3A*%
X114320000Y-118750000D03*
%TO.P,C18,2*%
%TO.N,GND*%
X115280000Y-118750000D03*
%TD*%
D27*
%TO.P,U6,1*%
%TO.N,FLASH_CS*%
X123400000Y-127405000D03*
%TO.P,U6,2*%
%TO.N,SPI3_MISO*%
X123400000Y-126135000D03*
%TO.P,U6,3*%
%TO.N,+3V3*%
X123400000Y-124865000D03*
%TO.P,U6,4*%
%TO.N,GND*%
X123400000Y-123595000D03*
%TO.P,U6,5*%
%TO.N,SPI3_MOSI*%
X130600000Y-123595000D03*
%TO.P,U6,6*%
%TO.N,SPI3_SCK*%
X130600000Y-124865000D03*
%TO.P,U6,7*%
%TO.N,+3V3*%
X130600000Y-126135000D03*
%TO.P,U6,8*%
X130600000Y-127405000D03*
%TD*%
D28*
%TO.P,U4,1*%
%TO.N,/Sensors/+3V3_IMU*%
X116775000Y-119000000D03*
%TO.P,U4,2*%
%TO.N,SPI1_SCK*%
X116775000Y-118500000D03*
%TO.P,U4,3*%
%TO.N,SPI1_MOSI*%
X116775000Y-118000000D03*
%TO.P,U4,4*%
%TO.N,SPI1_MISO*%
X116775000Y-117500000D03*
%TO.P,U4,5*%
%TO.N,IMU_CS*%
X116775000Y-117000000D03*
D29*
%TO.P,U4,6*%
%TO.N,IMU_INT*%
X117500000Y-116775000D03*
%TO.P,U4,7*%
%TO.N,unconnected-(U4-RESV-Pad7)*%
X118000000Y-116775000D03*
%TO.P,U4,8*%
%TO.N,GND*%
X118500000Y-116775000D03*
D28*
%TO.P,U4,9*%
X119225000Y-117000000D03*
%TO.P,U4,10*%
X119225000Y-117500000D03*
%TO.P,U4,11*%
X119225000Y-118000000D03*
%TO.P,U4,12*%
X119225000Y-118500000D03*
%TO.P,U4,13*%
X119225000Y-119000000D03*
D29*
%TO.P,U4,14*%
%TO.N,/Sensors/IMU_REGOUT*%
X118500000Y-119225000D03*
%TO.P,U4,15*%
%TO.N,GND*%
X118000000Y-119225000D03*
%TO.P,U4,16*%
%TO.N,/Sensors/+3V3_IMU*%
X117500000Y-119225000D03*
%TD*%
D23*
%TO.P,C25,1*%
%TO.N,/Sensors/+3V3_IMU*%
X115850000Y-122480000D03*
%TO.P,C25,2*%
%TO.N,GND*%
X115850000Y-121520000D03*
%TD*%
D30*
%TO.N,VBAT*%
X104247000Y-114924000D03*
D31*
%TO.N,GND*%
X112812000Y-104409000D03*
X121554000Y-125775000D03*
X109850000Y-106371000D03*
X118401000Y-109151000D03*
X117100000Y-107325000D03*
X119109000Y-119623000D03*
X117955000Y-124044000D03*
X113017000Y-114472000D03*
X102208000Y-114616000D03*
X121800000Y-107214000D03*
X134750000Y-129138000D03*
X131757000Y-111906000D03*
X125702000Y-103570000D03*
X113517000Y-118410000D03*
D32*
X126150000Y-104000000D03*
D31*
X106498000Y-123327000D03*
X112600000Y-102100000D03*
X128672000Y-114806000D03*
X121716000Y-128289000D03*
X113392000Y-110115000D03*
X127977000Y-110029000D03*
X115910000Y-107263000D03*
X123262000Y-107413000D03*
X103705000Y-109476000D03*
X114150000Y-101350000D03*
X124959000Y-123028000D03*
X107210000Y-115338000D03*
X106434000Y-104300000D03*
X125706000Y-127288000D03*
X111376000Y-104000000D03*
X132874000Y-116644000D03*
D32*
X129250000Y-104000000D03*
D31*
X119479000Y-104141000D03*
X109646000Y-109882000D03*
%TO.N,+5V*%
X104354000Y-126286000D03*
X112632000Y-129640000D03*
X128736000Y-112711000D03*
X109646000Y-101167000D03*
%TO.N,+3V3*%
X126100000Y-105950000D03*
X117854000Y-120564000D03*
X111882000Y-108298000D03*
X112371000Y-103003000D03*
X125950000Y-104750000D03*
X120398000Y-128668000D03*
X131766000Y-111125000D03*
X116276000Y-109502000D03*
X126939000Y-126882000D03*
X125135000Y-122004000D03*
X115116000Y-111643000D03*
X131261000Y-128353000D03*
X117100000Y-126002000D03*
X125162000Y-110600000D03*
X126050000Y-105300000D03*
X126356000Y-111820000D03*
X116103000Y-113020000D03*
X126402000Y-110286000D03*
X121195000Y-120396000D03*
X119909000Y-125129000D03*
X129271000Y-126033000D03*
%TO.N,VBAT_SENSE*%
X116716000Y-114858000D03*
X106135000Y-126893000D03*
%TO.N,/MCU/+3V3A*%
X127160000Y-123158000D03*
X114325000Y-121584000D03*
%TO.N,/MCU/NRST*%
X116086000Y-116606000D03*
%TO.N,/MCU/BOOT0*%
X119547000Y-113433000D03*
%TO.N,ESC_CURR*%
X115267000Y-129640000D03*
X113377000Y-116113000D03*
%TO.N,MOTOR3*%
X126401000Y-128726000D03*
X115087000Y-122499000D03*
%TO.N,IMU_CS*%
X118508000Y-125334000D03*
D32*
%TO.N,SPI1_SCK*%
X116100000Y-118500000D03*
X120600000Y-118850000D03*
%TO.N,SPI1_MISO*%
X117900000Y-118200000D03*
D31*
X119500000Y-125800000D03*
X116150000Y-123633000D03*
D32*
%TO.N,SPI1_MOSI*%
X120600000Y-118100000D03*
X120600000Y-117050000D03*
X116050000Y-117800000D03*
%TO.N,IMU_INT*%
X120050000Y-121000000D03*
D31*
%TO.N,UART3_TX*%
X124354000Y-112781000D03*
X122805000Y-120490000D03*
%TO.N,UART3_RX*%
X123844000Y-120572000D03*
X131053000Y-120784000D03*
%TO.N,UART1_TX*%
X124180000Y-116957000D03*
X106217000Y-112921000D03*
%TO.N,UART1_RX*%
X107320000Y-111895000D03*
X124677000Y-115968000D03*
%TO.N,USB_DM*%
X123385000Y-113580000D03*
%TO.N,USB_DP*%
X125571000Y-111703000D03*
%TO.N,SPI3_SCK*%
X125973000Y-123000000D03*
X123100000Y-112493000D03*
%TO.N,SPI3_MISO*%
X123343000Y-117547000D03*
%TO.N,SPI3_MOSI*%
X123722000Y-118752000D03*
%TO.N,FLASH_CS*%
X122400000Y-114482000D03*
%TO.N,I2C1_SCL*%
X124646000Y-107662000D03*
X118991000Y-108621000D03*
%TO.N,/Connectors/VBUS*%
X121650000Y-104750000D03*
X116500000Y-104300000D03*
%TO.N,/Connectors/USB_CONN_DP*%
X118407000Y-107190000D03*
%TO.N,/Connectors/USB_CONN_DM*%
X117154000Y-103753000D03*
%TD*%
D33*
%TO.N,VBAT*%
X104247000Y-115422000D02*
X105850000Y-117025000D01*
X110129000Y-118405000D02*
X110129000Y-126871000D01*
X105850000Y-117025000D02*
X108749000Y-117025000D01*
X110129000Y-126871000D02*
X108500000Y-128500000D01*
X108500000Y-128500000D02*
X108500000Y-133000000D01*
X104247000Y-114924000D02*
X104247000Y-115422000D01*
X108749000Y-117025000D02*
X110129000Y-118405000D01*
D34*
%TO.N,GND*%
X119225000Y-118604000D02*
X119225000Y-118000000D01*
X119000000Y-116775000D02*
X118500000Y-116775000D01*
X107210000Y-115338000D02*
X107113000Y-115338000D01*
X115280000Y-118603000D02*
X115280000Y-118750000D01*
X114604000Y-117926000D02*
X115280000Y-117250000D01*
X115280000Y-117250000D02*
X115280000Y-115750000D01*
X119479000Y-104141000D02*
X118722000Y-104141000D01*
X118000000Y-119225000D02*
X118000000Y-119565000D01*
X132166000Y-116644000D02*
X132160000Y-116650000D01*
X119050000Y-119682000D02*
X119050000Y-120370000D01*
X115850000Y-120430000D02*
X115850000Y-121520000D01*
X118722000Y-104141000D02*
X118362000Y-104500000D01*
X115280000Y-118750000D02*
X114030000Y-120000000D01*
X124959000Y-123028000D02*
X123967000Y-123028000D01*
X115910000Y-120370000D02*
X115880000Y-120400000D01*
X118000000Y-119225000D02*
X118000000Y-118910000D01*
X118306000Y-118604000D02*
X119225000Y-118604000D01*
X119225000Y-117000000D02*
X119000000Y-116775000D01*
X119225000Y-119000000D02*
X119225000Y-118604000D01*
X119225000Y-119000000D02*
X119225000Y-119507000D01*
X107327000Y-123327000D02*
X108500000Y-124500000D01*
X116950000Y-120370000D02*
X115910000Y-120370000D01*
X113517000Y-117926000D02*
X113517000Y-118410000D01*
X119225000Y-117000000D02*
X119225000Y-117500000D01*
X119225000Y-118604000D02*
X119225000Y-118500000D01*
X134750000Y-129138000D02*
X133718000Y-129138000D01*
X118000000Y-118910000D02*
X118306000Y-118604000D01*
X119225000Y-119507000D02*
X119109000Y-119623000D01*
X117195000Y-120370000D02*
X116950000Y-120370000D01*
X105900000Y-118900000D02*
X106500000Y-119500000D01*
X121554000Y-124926000D02*
X121554000Y-125775000D01*
X115880000Y-120400000D02*
X115850000Y-120430000D01*
X119109000Y-119623000D02*
X119050000Y-119682000D01*
X106498000Y-123327000D02*
X107327000Y-123327000D01*
X119225000Y-118000000D02*
X119225000Y-117500000D01*
X111376000Y-104000000D02*
X110750000Y-104000000D01*
X107113000Y-115338000D02*
X105850000Y-114075000D01*
X113517000Y-117926000D02*
X114604000Y-117926000D01*
X110750000Y-104000000D02*
X109800000Y-103050000D01*
X121680000Y-124800000D02*
X121554000Y-124926000D01*
X114604000Y-117926000D02*
X115280000Y-118603000D01*
X114030000Y-120000000D02*
X113780000Y-120000000D01*
X132874000Y-116644000D02*
X132166000Y-116644000D01*
X123967000Y-123028000D02*
X123400000Y-123595000D01*
X118000000Y-119565000D02*
X117195000Y-120370000D01*
X133718000Y-129138000D02*
X133230000Y-128650000D01*
X113517000Y-117926000D02*
X113310000Y-117720000D01*
X113310000Y-117720000D02*
X113310000Y-117250000D01*
D35*
%TO.N,+5V*%
X127500000Y-107000000D02*
X127277000Y-107223000D01*
X127277000Y-107223000D02*
X127277000Y-111252000D01*
X109646000Y-101167000D02*
X109646000Y-101304000D01*
X109646000Y-101304000D02*
X107900000Y-103050000D01*
X127277000Y-111252000D02*
X128736000Y-112711000D01*
%TO.N,+3V3*%
X121195000Y-121768000D02*
X119512000Y-123450000D01*
X125052000Y-111100000D02*
X123850000Y-111100000D01*
X131766000Y-111125000D02*
X131377000Y-111125000D01*
X129271000Y-126033000D02*
X130498000Y-126033000D01*
X131377000Y-111125000D02*
X131352000Y-111100000D01*
X131261000Y-128353000D02*
X131973000Y-128353000D01*
X120398000Y-128668000D02*
X121108000Y-128668000D01*
X125162000Y-110600000D02*
X125052000Y-110711000D01*
X131973000Y-128353000D02*
X132270000Y-128650000D01*
X126939000Y-126882000D02*
X124921000Y-124865000D01*
X121195000Y-120396000D02*
X121195000Y-121768000D01*
X131352000Y-111100000D02*
X130150000Y-111100000D01*
X119909000Y-125129000D02*
X120391000Y-125129000D01*
X131261000Y-128353000D02*
X130600000Y-127693000D01*
X130600000Y-127693000D02*
X130600000Y-127405000D01*
X121108000Y-128668000D02*
X121540000Y-129100000D01*
X125052000Y-110711000D02*
X125052000Y-111100000D01*
X124921000Y-124865000D02*
X123400000Y-124865000D01*
X130498000Y-126033000D02*
X130600000Y-126135000D01*
X120391000Y-125129000D02*
X120720000Y-124800000D01*
D36*
%TO.N,VBAT_SENSE*%
X114320000Y-117250000D02*
X113736000Y-116666000D01*
X112290000Y-117250000D02*
X112290000Y-116378000D01*
X112874000Y-116666000D02*
X112290000Y-117250000D01*
X113736000Y-116666000D02*
X112874000Y-116666000D01*
X112290000Y-116378000D02*
X113810000Y-114858000D01*
X113810000Y-114858000D02*
X116716000Y-114858000D01*
%TO.N,/MCU/+3V3A*%
X114070000Y-118750000D02*
X114320000Y-118750000D01*
X112820000Y-120000000D02*
X112820000Y-120080000D01*
X112820000Y-120080000D02*
X114325000Y-121584000D01*
X112820000Y-120000000D02*
X114070000Y-118750000D01*
D37*
%TO.N,/MCU/NRST*%
X114320000Y-115750000D02*
X114847000Y-115223000D01*
X114847000Y-115223000D02*
X115615000Y-115223000D01*
X115615000Y-115223000D02*
X116086000Y-115695000D01*
X116086000Y-115695000D02*
X116086000Y-116606000D01*
%TO.N,/MCU/BOOT0*%
X131140000Y-116650000D02*
X131140000Y-115877000D01*
X125884000Y-115877000D02*
X124907000Y-114900000D01*
X130150000Y-114900000D02*
X131207000Y-114900000D01*
X121103000Y-114989000D02*
X122704000Y-114989000D01*
X131140000Y-115877000D02*
X125884000Y-115877000D01*
X119547000Y-113433000D02*
X121103000Y-114989000D01*
X124907000Y-114900000D02*
X123850000Y-114900000D01*
X131207000Y-115810000D02*
X131140000Y-115877000D01*
X131207000Y-114900000D02*
X131207000Y-115810000D01*
X122793000Y-114900000D02*
X123850000Y-114900000D01*
X122704000Y-114989000D02*
X122793000Y-114900000D01*
%TO.N,IMU_CS*%
X117050000Y-116500000D02*
X117100000Y-116450000D01*
X113872400Y-114332600D02*
X111778000Y-116428000D01*
X117250000Y-114650000D02*
X117200000Y-114600000D01*
X117078000Y-125334000D02*
X118508000Y-125334000D01*
X117200000Y-115100000D02*
X117250000Y-115050000D01*
X117150000Y-115250000D02*
X117200000Y-115200000D01*
X117150000Y-116350000D02*
X117150000Y-115250000D01*
X117250000Y-115050000D02*
X117250000Y-114650000D01*
X111778000Y-120034000D02*
X117078000Y-125334000D01*
X111778000Y-116428000D02*
X111778000Y-120034000D01*
X117050000Y-116800000D02*
X117050000Y-116500000D01*
X117200000Y-114550000D02*
X116950000Y-114300000D01*
X117200000Y-115200000D02*
X117200000Y-115150000D01*
X117100000Y-116450000D02*
X117100000Y-116400000D01*
X116950000Y-114300000D02*
X114000000Y-114300000D01*
X113967400Y-114332600D02*
X114000000Y-114300000D01*
X113948000Y-114257000D02*
X113872400Y-114332600D01*
X117200000Y-114600000D02*
X117200000Y-114550000D01*
X117100000Y-116400000D02*
X117150000Y-116350000D01*
X113872400Y-114332600D02*
X113967400Y-114332600D01*
X117000000Y-116850000D02*
X117050000Y-116800000D01*
%TO.N,SPI1_SCK*%
X116200000Y-118550000D02*
X116500000Y-118550000D01*
X116100000Y-118550000D02*
X116150000Y-118600000D01*
X116150000Y-118600000D02*
X116200000Y-118550000D01*
X116100000Y-118500000D02*
X116100000Y-118550000D01*
%TO.N,SPI1_MISO*%
X119200000Y-125300000D02*
X119200000Y-125500000D01*
X116150000Y-123633000D02*
X116283000Y-123633000D01*
X116400000Y-123750000D02*
X116900000Y-123750000D01*
X116283000Y-123633000D02*
X116400000Y-123750000D01*
X117700000Y-118150000D02*
X117850000Y-118150000D01*
X119200000Y-125500000D02*
X119500000Y-125800000D01*
X117900000Y-124600000D02*
X118500000Y-124600000D01*
X118500000Y-124600000D02*
X119200000Y-125300000D01*
X117650000Y-124500000D02*
X117700000Y-124500000D01*
X117850000Y-118150000D02*
X117900000Y-118200000D01*
X117750000Y-124550000D02*
X117850000Y-124550000D01*
X117700000Y-124500000D02*
X117750000Y-124550000D01*
X116900000Y-123750000D02*
X117650000Y-124500000D01*
X117150000Y-117600000D02*
X117700000Y-118150000D01*
X117100000Y-117600000D02*
X117150000Y-117600000D01*
X117850000Y-124550000D02*
X117900000Y-124600000D01*
X117050000Y-117550000D02*
X117100000Y-117600000D01*
%TO.N,SPI1_MOSI*%
X116100000Y-117950000D02*
X116500000Y-117950000D01*
X116050000Y-117800000D02*
X116050000Y-117900000D01*
X120600000Y-118100000D02*
X120600000Y-117050000D01*
X116050000Y-117900000D02*
X116100000Y-117950000D01*
%TO.N,IMU_INT*%
X119600000Y-116600000D02*
X120050000Y-117050000D01*
X117600000Y-116400000D02*
X117700000Y-116300000D01*
X117700000Y-116300000D02*
X117750000Y-116300000D01*
X118800000Y-116300000D02*
X118850000Y-116350000D01*
X119350000Y-116550000D02*
X119500000Y-116550000D01*
X117600000Y-116450000D02*
X117600000Y-116400000D01*
X118700000Y-116250000D02*
X118750000Y-116300000D01*
X119500000Y-116550000D02*
X119550000Y-116600000D01*
X120050000Y-117050000D02*
X120050000Y-121000000D01*
X117550000Y-116500000D02*
X117600000Y-116450000D01*
X119200000Y-116400000D02*
X119350000Y-116550000D01*
X117800000Y-116250000D02*
X118700000Y-116250000D01*
X118850000Y-116350000D02*
X119100000Y-116350000D01*
X118750000Y-116300000D02*
X118800000Y-116300000D01*
X117550000Y-116550000D02*
X117550000Y-116500000D01*
X119150000Y-116400000D02*
X119200000Y-116400000D01*
X117750000Y-116300000D02*
X117800000Y-116250000D01*
X119550000Y-116600000D02*
X119600000Y-116600000D01*
X119100000Y-116350000D02*
X119150000Y-116400000D01*
D36*
%TO.N,USB_DM*%
X120078000Y-102990000D02*
X116144000Y-102990000D01*
X121459000Y-113580000D02*
X123385000Y-113580000D01*
X120637800Y-103549700D02*
X120078000Y-102990000D01*
X120638000Y-103550000D02*
X120637800Y-103549700D01*
X116144000Y-102990000D02*
X114404000Y-104730000D01*
X120637500Y-103550000D02*
X120637800Y-103549700D01*
X114404000Y-104730000D02*
X114404000Y-106526000D01*
X114404000Y-106526000D02*
X121459000Y-113580000D01*
%TO.N,USB_DP*%
X125761000Y-109528000D02*
X124114000Y-107882000D01*
X123312000Y-106682000D02*
X121870000Y-106682000D01*
X120637500Y-105450000D02*
X120638000Y-105450000D01*
X124114000Y-107882000D02*
X124114000Y-107485000D01*
X124114000Y-107485000D02*
X123312000Y-106682000D01*
X121870000Y-106682000D02*
X121244000Y-106056000D01*
X121244000Y-106056000D02*
X121243000Y-106056000D01*
X125761000Y-111513000D02*
X125761000Y-109528000D01*
X121243000Y-106056000D02*
X120638000Y-105450000D01*
X120638000Y-105450000D02*
X121244000Y-106056000D01*
X125571000Y-111703000D02*
X125761000Y-111513000D01*
D37*
%TO.N,SPI3_SCK*%
X127839000Y-124865000D02*
X130600000Y-124865000D01*
X125973000Y-123000000D02*
X127839000Y-124865000D01*
%TO.N,SPI3_MISO*%
X122298000Y-118592000D02*
X122298000Y-125108000D01*
X123343000Y-117547000D02*
X122298000Y-118592000D01*
X123325000Y-126135000D02*
X123400000Y-126135000D01*
X122298000Y-125108000D02*
X123325000Y-126135000D01*
%TO.N,SPI3_MOSI*%
X130600000Y-123595000D02*
X125757000Y-118752000D01*
X125757000Y-118752000D02*
X123722000Y-118752000D01*
%TO.N,FLASH_CS*%
X122408000Y-114475000D02*
X122400000Y-114482000D01*
X126778000Y-127832000D02*
X128627000Y-125983000D01*
X131328000Y-125452000D02*
X131650000Y-125130000D01*
X128627000Y-125983000D02*
X128627000Y-125898000D01*
X123400000Y-127832000D02*
X123400000Y-128260000D01*
X123400000Y-128260000D02*
X122560000Y-129100000D01*
X123400000Y-127405000D02*
X123400000Y-127832000D01*
X131650000Y-125130000D02*
X131650000Y-114746000D01*
X123400000Y-127832000D02*
X126778000Y-127832000D01*
X129073000Y-125452000D02*
X131328000Y-125452000D01*
X131044000Y-114139000D02*
X122968000Y-114139000D01*
X122632000Y-114475000D02*
X122408000Y-114475000D01*
X122968000Y-114139000D02*
X122632000Y-114475000D01*
X128627000Y-125898000D02*
X129073000Y-125452000D01*
X131650000Y-114746000D02*
X131044000Y-114139000D01*
D36*
%TO.N,/Sensors/+3V3_IMU*%
X115850000Y-122394000D02*
X114920000Y-121464000D01*
X120320000Y-124218000D02*
X119139000Y-124218000D01*
X121087500Y-123450000D02*
X121087600Y-123450000D01*
X114920000Y-121464000D02*
X114920000Y-120400000D01*
X116586000Y-122394000D02*
X116950000Y-122029000D01*
X115850000Y-122480000D02*
X115850000Y-122394000D01*
X121087800Y-123450200D02*
X120320000Y-124218000D01*
X116950000Y-122029000D02*
X116950000Y-121330000D01*
X116775000Y-119000000D02*
X117275000Y-119000000D01*
X121088000Y-123450000D02*
X121087800Y-123450200D01*
X116320000Y-119000000D02*
X116775000Y-119000000D01*
X117275000Y-119000000D02*
X117500000Y-119225000D01*
X114920000Y-120400000D02*
X116320000Y-119000000D01*
X119139000Y-124218000D02*
X116950000Y-122029000D01*
X115850000Y-122394000D02*
X116586000Y-122394000D01*
X121087600Y-123450000D02*
X121087800Y-123450200D01*
D37*
%TO.N,/Sensors/IMU_REGOUT*%
X118500000Y-119225000D02*
X118500000Y-120780000D01*
X118500000Y-120780000D02*
X119050000Y-121330000D01*
D35*
%TO.N,/Connectors/VBUS*%
X123327000Y-102838000D02*
X121664000Y-104500000D01*
X127500000Y-103000000D02*
X127338000Y-102838000D01*
D38*
X117450000Y-105850000D02*
X117450000Y-105900000D01*
D35*
X121664000Y-104500000D02*
X120848000Y-104500000D01*
D38*
X117350000Y-104900000D02*
X117350000Y-105700000D01*
X118650000Y-107750000D02*
X118700000Y-107750000D01*
X117400000Y-105800000D02*
X117450000Y-105850000D01*
X118350000Y-107800000D02*
X118400000Y-107850000D01*
X118800000Y-107700000D02*
X119650000Y-106850000D01*
X118200000Y-107800000D02*
X118350000Y-107800000D01*
D35*
X120637500Y-104500000D02*
X120848000Y-104500000D01*
D38*
X118700000Y-107750000D02*
X118750000Y-107700000D01*
D35*
X127338000Y-102838000D02*
X123327000Y-102838000D01*
D38*
X116650000Y-104450000D02*
X116900000Y-104450000D01*
X118450000Y-107800000D02*
X118600000Y-107800000D01*
X118750000Y-107700000D02*
X118800000Y-107700000D01*
X117750000Y-107200000D02*
X117800000Y-107250000D01*
X119650000Y-105150000D02*
X119700000Y-105100000D01*
X116500000Y-104300000D02*
X116650000Y-104450000D01*
X120200000Y-104550000D02*
X120450000Y-104550000D01*
X119700000Y-105050000D02*
X120200000Y-104550000D01*
X118150000Y-107750000D02*
X118200000Y-107800000D01*
X118100000Y-107750000D02*
X118150000Y-107750000D01*
X117800000Y-107400000D02*
X117850000Y-107450000D01*
X117850000Y-107450000D02*
X117850000Y-107500000D01*
X118400000Y-107850000D02*
X118450000Y-107800000D01*
X117750000Y-106200000D02*
X117750000Y-107200000D01*
X119700000Y-105100000D02*
X119700000Y-105050000D01*
X117450000Y-105900000D02*
X117750000Y-106200000D01*
X121650000Y-104700000D02*
X121650000Y-104750000D01*
X118600000Y-107800000D02*
X118650000Y-107750000D01*
X119650000Y-106850000D02*
X119650000Y-105150000D01*
X117850000Y-107500000D02*
X118100000Y-107750000D01*
X117400000Y-105750000D02*
X117400000Y-105800000D01*
X116900000Y-104450000D02*
X117350000Y-104900000D01*
X117350000Y-105700000D02*
X117400000Y-105750000D01*
X117800000Y-107250000D02*
X117800000Y-107400000D01*
D36*
%TO.N,/Connectors/USB_CONN_DP*%
X118362500Y-105450000D02*
X118362300Y-105450200D01*
X118407000Y-105494000D02*
X118407000Y-107190000D01*
X118362000Y-105450000D02*
X118362300Y-105450200D01*
X118362300Y-105450200D02*
X118407000Y-105494000D01*
%TO.N,/Connectors/USB_CONN_DM*%
X117357000Y-103550000D02*
X117154000Y-103753000D01*
X118362500Y-103550000D02*
X118362000Y-103550000D01*
X118362000Y-103550000D02*
X117357000Y-103550000D01*
%TD*%
%TA.AperFunction,Conductor*%
%TO.N,GND*%
G36*
X125292852Y-115680591D02*
G01*
X125314175Y-115696791D01*
X125663115Y-116045731D01*
X125675426Y-116060733D01*
X125683985Y-116073543D01*
X125685376Y-116075624D01*
X125685379Y-116075626D01*
X125685380Y-116075627D01*
X125704329Y-116088288D01*
X125704334Y-116088292D01*
X125776505Y-116136516D01*
X125787823Y-116138767D01*
X125884000Y-116157897D01*
X125901571Y-116154401D01*
X125920884Y-116152500D01*
X130625139Y-116152500D01*
X130683330Y-116171407D01*
X130719294Y-116220907D01*
X130719294Y-116282093D01*
X130714863Y-116293339D01*
X130675932Y-116376824D01*
X130675932Y-116376825D01*
X130672700Y-116401376D01*
X130669500Y-116425684D01*
X130669500Y-116874316D01*
X130671671Y-116890809D01*
X130675932Y-116923174D01*
X130675932Y-116923175D01*
X130725933Y-117030401D01*
X130725934Y-117030402D01*
X130725935Y-117030404D01*
X130809596Y-117114065D01*
X130809597Y-117114065D01*
X130809598Y-117114066D01*
X130916824Y-117164067D01*
X130916825Y-117164067D01*
X130916827Y-117164068D01*
X130965684Y-117170500D01*
X130965685Y-117170500D01*
X131275500Y-117170500D01*
X131333691Y-117189407D01*
X131369655Y-117238907D01*
X131374500Y-117269500D01*
X131374500Y-120224522D01*
X131355593Y-120282713D01*
X131306093Y-120318677D01*
X131247609Y-120319512D01*
X131124964Y-120283500D01*
X131124961Y-120283500D01*
X130981039Y-120283500D01*
X130981035Y-120283500D01*
X130842949Y-120324046D01*
X130842942Y-120324049D01*
X130721873Y-120401855D01*
X130627622Y-120510628D01*
X130567834Y-120641543D01*
X130547353Y-120783997D01*
X130547353Y-120784002D01*
X130567834Y-120926456D01*
X130616014Y-121031953D01*
X130627623Y-121057373D01*
X130721872Y-121166143D01*
X130721873Y-121166144D01*
X130790882Y-121210493D01*
X130842947Y-121243953D01*
X130949403Y-121275211D01*
X130981035Y-121284499D01*
X130981036Y-121284499D01*
X130981039Y-121284500D01*
X130981041Y-121284500D01*
X131124959Y-121284500D01*
X131124961Y-121284500D01*
X131247611Y-121248487D01*
X131308769Y-121250234D01*
X131357222Y-121287597D01*
X131374500Y-121343477D01*
X131374500Y-122995500D01*
X131355593Y-123053691D01*
X131306093Y-123089655D01*
X131275500Y-123094500D01*
X130530124Y-123094500D01*
X130471933Y-123075593D01*
X130460120Y-123065504D01*
X125977885Y-118583269D01*
X125965573Y-118568266D01*
X125955624Y-118553376D01*
X125945987Y-118546937D01*
X125936670Y-118540711D01*
X125936666Y-118540708D01*
X125894449Y-118512500D01*
X125894448Y-118512499D01*
X125864497Y-118492486D01*
X125864496Y-118492485D01*
X125864495Y-118492485D01*
X125784133Y-118476500D01*
X125779362Y-118475551D01*
X125779330Y-118475543D01*
X125757002Y-118471103D01*
X125757001Y-118471103D01*
X125757000Y-118471103D01*
X125739430Y-118474598D01*
X125720116Y-118476500D01*
X124190746Y-118476500D01*
X124132555Y-118457593D01*
X124115928Y-118442333D01*
X124053128Y-118369857D01*
X124053127Y-118369856D01*
X124053126Y-118369855D01*
X123932057Y-118292049D01*
X123932054Y-118292047D01*
X123932053Y-118292047D01*
X123932050Y-118292046D01*
X123793964Y-118251500D01*
X123793961Y-118251500D01*
X123650039Y-118251500D01*
X123650035Y-118251500D01*
X123511949Y-118292046D01*
X123511942Y-118292049D01*
X123390873Y-118369855D01*
X123296622Y-118478628D01*
X123236834Y-118609543D01*
X123216353Y-118751997D01*
X123216353Y-118752002D01*
X123236834Y-118894456D01*
X123275091Y-118978225D01*
X123296623Y-119025373D01*
X123377158Y-119118316D01*
X123390873Y-119134144D01*
X123511942Y-119211950D01*
X123511947Y-119211953D01*
X123605598Y-119239451D01*
X123650035Y-119252499D01*
X123650036Y-119252499D01*
X123650039Y-119252500D01*
X123650041Y-119252500D01*
X123793959Y-119252500D01*
X123793961Y-119252500D01*
X123932053Y-119211953D01*
X124053128Y-119134143D01*
X124115927Y-119061668D01*
X124168322Y-119030073D01*
X124190746Y-119027500D01*
X125601876Y-119027500D01*
X125660067Y-119046407D01*
X125671880Y-119056496D01*
X129687348Y-123071964D01*
X129715125Y-123126481D01*
X129705554Y-123186913D01*
X129687350Y-123211968D01*
X129669330Y-123229989D01*
X129660801Y-123238518D01*
X129609427Y-123343604D01*
X129609427Y-123343607D01*
X129599500Y-123411740D01*
X129599500Y-123778260D01*
X129604377Y-123811731D01*
X129609427Y-123846395D01*
X129621041Y-123870151D01*
X129660802Y-123951483D01*
X129743517Y-124034198D01*
X129785038Y-124054496D01*
X129848604Y-124085572D01*
X129848605Y-124085572D01*
X129848607Y-124085573D01*
X129916740Y-124095500D01*
X129916743Y-124095500D01*
X131275500Y-124095500D01*
X131333691Y-124114407D01*
X131369655Y-124163907D01*
X131374500Y-124194500D01*
X131374500Y-124265500D01*
X131355593Y-124323691D01*
X131306093Y-124359655D01*
X131275500Y-124364500D01*
X129916740Y-124364500D01*
X129882673Y-124369463D01*
X129848604Y-124374427D01*
X129743518Y-124425801D01*
X129660801Y-124508518D01*
X129648354Y-124533980D01*
X129605811Y-124577954D01*
X129559413Y-124589500D01*
X127994064Y-124589500D01*
X127935873Y-124570593D01*
X127924079Y-124560522D01*
X127920750Y-124557195D01*
X127428874Y-124065582D01*
X127187399Y-123824236D01*
X127159607Y-123769727D01*
X127169162Y-123709293D01*
X127212415Y-123666016D01*
X127229493Y-123659224D01*
X127231959Y-123658500D01*
X127231961Y-123658500D01*
X127370053Y-123617953D01*
X127491128Y-123540143D01*
X127585377Y-123431373D01*
X127645165Y-123300457D01*
X127661490Y-123186913D01*
X127665647Y-123158002D01*
X127665647Y-123157997D01*
X127645165Y-123015543D01*
X127636696Y-122996998D01*
X127585377Y-122884627D01*
X127491128Y-122775857D01*
X127491127Y-122775856D01*
X127491126Y-122775855D01*
X127370057Y-122698049D01*
X127370054Y-122698047D01*
X127370053Y-122698047D01*
X127365912Y-122696831D01*
X127231964Y-122657500D01*
X127231961Y-122657500D01*
X127088039Y-122657500D01*
X127088035Y-122657500D01*
X126949949Y-122698046D01*
X126949942Y-122698049D01*
X126828873Y-122775855D01*
X126734622Y-122884628D01*
X126674833Y-123015544D01*
X126672839Y-123022338D01*
X126669963Y-123021493D01*
X126648637Y-123064859D01*
X126594520Y-123093408D01*
X126533958Y-123084695D01*
X126490084Y-123042048D01*
X126481348Y-123006765D01*
X126479655Y-123007009D01*
X126458165Y-122857543D01*
X126454876Y-122850341D01*
X126398377Y-122726627D01*
X126304128Y-122617857D01*
X126304127Y-122617856D01*
X126304126Y-122617855D01*
X126183057Y-122540049D01*
X126183054Y-122540047D01*
X126183053Y-122540047D01*
X126183050Y-122540046D01*
X126044964Y-122499500D01*
X126044961Y-122499500D01*
X125901039Y-122499500D01*
X125901035Y-122499500D01*
X125762949Y-122540046D01*
X125762942Y-122540049D01*
X125641873Y-122617855D01*
X125547622Y-122726628D01*
X125487834Y-122857543D01*
X125467353Y-122999997D01*
X125467353Y-123000000D01*
X125487834Y-123142456D01*
X125531705Y-123238518D01*
X125547623Y-123273373D01*
X125641872Y-123382143D01*
X125641873Y-123382144D01*
X125762942Y-123459950D01*
X125762947Y-123459953D01*
X125866931Y-123490485D01*
X125901035Y-123500499D01*
X125901036Y-123500499D01*
X125901039Y-123500500D01*
X125901041Y-123500500D01*
X126043056Y-123500500D01*
X126101247Y-123519407D01*
X126113041Y-123529478D01*
X127618123Y-125033754D01*
X127630451Y-125048770D01*
X127640376Y-125063624D01*
X127640379Y-125063626D01*
X127640380Y-125063627D01*
X127659332Y-125076290D01*
X127659487Y-125076406D01*
X127686864Y-125094686D01*
X127686884Y-125094711D01*
X127686889Y-125094704D01*
X127722726Y-125118649D01*
X127731505Y-125124515D01*
X127731510Y-125124516D01*
X127731572Y-125124542D01*
X127731575Y-125124544D01*
X127783711Y-125134899D01*
X127783710Y-125134905D01*
X127783737Y-125134904D01*
X127811867Y-125140500D01*
X127811871Y-125140500D01*
X127816520Y-125141425D01*
X127816700Y-125141451D01*
X127839075Y-125145896D01*
X127856592Y-125142407D01*
X127875930Y-125140500D01*
X128755875Y-125140500D01*
X128814066Y-125159407D01*
X128850030Y-125208907D01*
X128850030Y-125270093D01*
X128825878Y-125309504D01*
X128458266Y-125677115D01*
X128443269Y-125689423D01*
X128428380Y-125699372D01*
X128428374Y-125699378D01*
X128413005Y-125722377D01*
X128413006Y-125722378D01*
X128409584Y-125727500D01*
X128409581Y-125727504D01*
X128367485Y-125790504D01*
X128367484Y-125790507D01*
X128357850Y-125838937D01*
X128330757Y-125889625D01*
X127542757Y-126677625D01*
X127488240Y-126705402D01*
X127427808Y-126695831D01*
X127384543Y-126652566D01*
X127382700Y-126648748D01*
X127372116Y-126625573D01*
X127364377Y-126608627D01*
X127270128Y-126499857D01*
X127270127Y-126499856D01*
X127270126Y-126499855D01*
X127149057Y-126422049D01*
X127149054Y-126422048D01*
X127149053Y-126422047D01*
X127026447Y-126386047D01*
X126984353Y-126361078D01*
X125204028Y-124581636D01*
X125204016Y-124581614D01*
X125204012Y-124581619D01*
X125159343Y-124536951D01*
X125159342Y-124536950D01*
X125137793Y-124525970D01*
X125124569Y-124517868D01*
X125105002Y-124503659D01*
X125104997Y-124503657D01*
X125082116Y-124496228D01*
X125067745Y-124490278D01*
X125046306Y-124479355D01*
X125046301Y-124479353D01*
X125022415Y-124475570D01*
X125007337Y-124471952D01*
X124984336Y-124464485D01*
X124984330Y-124464484D01*
X124922947Y-124464500D01*
X124336188Y-124464500D01*
X124277997Y-124445593D01*
X124266190Y-124435509D01*
X124256483Y-124425802D01*
X124253566Y-124424376D01*
X124151395Y-124374427D01*
X124124139Y-124370456D01*
X124083260Y-124364500D01*
X122716740Y-124364500D01*
X122686772Y-124368866D01*
X122626463Y-124358545D01*
X122583739Y-124314747D01*
X122573500Y-124270900D01*
X122573500Y-124237945D01*
X122592407Y-124179754D01*
X122641907Y-124143790D01*
X122687989Y-124140164D01*
X122718518Y-124144999D01*
X123249998Y-124144999D01*
X123250000Y-124144998D01*
X123550000Y-124144998D01*
X123550001Y-124144999D01*
X124081483Y-124144999D01*
X124081485Y-124144998D01*
X124175141Y-124130166D01*
X124175151Y-124130163D01*
X124288043Y-124072641D01*
X124377641Y-123983043D01*
X124435163Y-123870151D01*
X124435164Y-123870147D01*
X124450000Y-123776484D01*
X124450000Y-123745001D01*
X124449999Y-123745000D01*
X123550001Y-123745000D01*
X123550000Y-123745001D01*
X123550000Y-124144998D01*
X123250000Y-124144998D01*
X123250000Y-123444999D01*
X123550000Y-123444999D01*
X123550001Y-123445000D01*
X124449998Y-123445000D01*
X124449999Y-123444999D01*
X124449999Y-123413516D01*
X124449998Y-123413514D01*
X124435166Y-123319858D01*
X124435163Y-123319848D01*
X124377641Y-123206956D01*
X124288043Y-123117358D01*
X124175151Y-123059836D01*
X124175147Y-123059835D01*
X124081484Y-123045000D01*
X123550001Y-123045000D01*
X123550000Y-123045001D01*
X123550000Y-123444999D01*
X123250000Y-123444999D01*
X123250000Y-123045001D01*
X123249999Y-123045000D01*
X122718516Y-123045000D01*
X122718514Y-123045001D01*
X122687985Y-123049836D01*
X122627553Y-123040264D01*
X122584290Y-122996998D01*
X122573500Y-122952055D01*
X122573500Y-122004002D01*
X124629353Y-122004002D01*
X124649834Y-122146456D01*
X124685991Y-122225627D01*
X124709623Y-122277373D01*
X124778224Y-122356543D01*
X124803873Y-122386144D01*
X124885917Y-122438870D01*
X124924947Y-122463953D01*
X125031403Y-122495211D01*
X125063035Y-122504499D01*
X125063036Y-122504499D01*
X125063039Y-122504500D01*
X125063041Y-122504500D01*
X125206959Y-122504500D01*
X125206961Y-122504500D01*
X125345053Y-122463953D01*
X125466128Y-122386143D01*
X125560377Y-122277373D01*
X125620165Y-122146457D01*
X125627957Y-122092260D01*
X125640647Y-122004002D01*
X125640647Y-122003997D01*
X125620165Y-121861543D01*
X125618261Y-121857373D01*
X125560377Y-121730627D01*
X125466128Y-121621857D01*
X125466127Y-121621856D01*
X125466126Y-121621855D01*
X125345057Y-121544049D01*
X125345054Y-121544047D01*
X125345053Y-121544047D01*
X125345050Y-121544046D01*
X125206964Y-121503500D01*
X125206961Y-121503500D01*
X125063039Y-121503500D01*
X125063035Y-121503500D01*
X124924949Y-121544046D01*
X124924942Y-121544049D01*
X124803873Y-121621855D01*
X124709622Y-121730628D01*
X124649834Y-121861543D01*
X124629353Y-122003997D01*
X124629353Y-122004002D01*
X122573500Y-122004002D01*
X122573500Y-121075903D01*
X122592407Y-121017712D01*
X122641907Y-120981748D01*
X122700391Y-120980914D01*
X122733039Y-120990500D01*
X122733041Y-120990500D01*
X122876959Y-120990500D01*
X122876961Y-120990500D01*
X123015053Y-120949953D01*
X123136128Y-120872143D01*
X123228249Y-120765827D01*
X123280644Y-120734233D01*
X123341605Y-120739469D01*
X123387846Y-120779536D01*
X123393121Y-120789533D01*
X123405457Y-120816544D01*
X123418623Y-120845373D01*
X123512872Y-120954143D01*
X123512873Y-120954144D01*
X123633942Y-121031950D01*
X123633947Y-121031953D01*
X123710828Y-121054527D01*
X123772035Y-121072499D01*
X123772036Y-121072499D01*
X123772039Y-121072500D01*
X123772041Y-121072500D01*
X123915959Y-121072500D01*
X123915961Y-121072500D01*
X124054053Y-121031953D01*
X124175128Y-120954143D01*
X124269377Y-120845373D01*
X124329165Y-120714457D01*
X124344198Y-120609900D01*
X124349647Y-120572002D01*
X124349647Y-120571997D01*
X124329165Y-120429543D01*
X124295328Y-120355451D01*
X124269377Y-120298627D01*
X124175128Y-120189857D01*
X124175127Y-120189856D01*
X124175126Y-120189855D01*
X124054057Y-120112049D01*
X124054054Y-120112047D01*
X124054053Y-120112047D01*
X124050702Y-120111063D01*
X123915964Y-120071500D01*
X123915961Y-120071500D01*
X123772039Y-120071500D01*
X123772035Y-120071500D01*
X123633949Y-120112046D01*
X123633942Y-120112049D01*
X123512872Y-120189856D01*
X123512870Y-120189858D01*
X123420750Y-120296170D01*
X123368354Y-120327766D01*
X123307393Y-120322530D01*
X123261152Y-120282462D01*
X123255878Y-120272465D01*
X123230378Y-120216629D01*
X123230377Y-120216628D01*
X123230377Y-120216627D01*
X123136128Y-120107857D01*
X123136127Y-120107856D01*
X123136126Y-120107855D01*
X123015057Y-120030049D01*
X123015054Y-120030047D01*
X123015053Y-120030047D01*
X123015050Y-120030046D01*
X122876964Y-119989500D01*
X122876961Y-119989500D01*
X122733039Y-119989500D01*
X122733035Y-119989500D01*
X122700391Y-119999086D01*
X122639231Y-119997338D01*
X122590778Y-119959975D01*
X122573500Y-119904096D01*
X122573500Y-118747123D01*
X122592407Y-118688932D01*
X122602490Y-118677125D01*
X123203119Y-118076495D01*
X123257636Y-118048719D01*
X123273123Y-118047500D01*
X123414959Y-118047500D01*
X123414961Y-118047500D01*
X123553053Y-118006953D01*
X123674128Y-117929143D01*
X123768377Y-117820373D01*
X123828165Y-117689457D01*
X123841114Y-117599393D01*
X123848647Y-117547002D01*
X123848647Y-117547001D01*
X123848647Y-117547000D01*
X123845701Y-117526512D01*
X123856133Y-117466225D01*
X123900010Y-117423582D01*
X123960572Y-117414873D01*
X123971569Y-117417429D01*
X124108039Y-117457500D01*
X124108041Y-117457500D01*
X124251959Y-117457500D01*
X124251961Y-117457500D01*
X124390053Y-117416953D01*
X124511128Y-117339143D01*
X124605377Y-117230373D01*
X124665165Y-117099457D01*
X124680829Y-116990513D01*
X124685647Y-116957002D01*
X124685647Y-116956997D01*
X124665165Y-116814543D01*
X124633875Y-116746028D01*
X124605377Y-116683627D01*
X124560928Y-116632330D01*
X124537112Y-116575971D01*
X124550971Y-116516376D01*
X124597212Y-116476308D01*
X124635749Y-116468500D01*
X124748959Y-116468500D01*
X124748961Y-116468500D01*
X124887053Y-116427953D01*
X125008128Y-116350143D01*
X125102377Y-116241373D01*
X125162165Y-116110457D01*
X125170659Y-116051377D01*
X125182647Y-115968002D01*
X125182647Y-115967997D01*
X125162165Y-115825543D01*
X125154118Y-115807922D01*
X125147143Y-115747135D01*
X125177229Y-115693858D01*
X125232885Y-115668440D01*
X125292852Y-115680591D01*
G37*
%TD.AperFunction*%
%TA.AperFunction,Conductor*%
G36*
X129058691Y-114433407D02*
G01*
X129094655Y-114482907D01*
X129099500Y-114513500D01*
X129099500Y-115419748D01*
X129111133Y-115478231D01*
X129111133Y-115478232D01*
X129112119Y-115483185D01*
X129104928Y-115543947D01*
X129063395Y-115588877D01*
X129015021Y-115601500D01*
X126039124Y-115601500D01*
X125980933Y-115582593D01*
X125969120Y-115572504D01*
X125127885Y-114731269D01*
X125115573Y-114716266D01*
X125105625Y-114701378D01*
X125105624Y-114701376D01*
X125092171Y-114692387D01*
X125086670Y-114688711D01*
X125086666Y-114688708D01*
X125047743Y-114662701D01*
X125047742Y-114662700D01*
X125014497Y-114640486D01*
X125014492Y-114640484D01*
X124980183Y-114633659D01*
X124926800Y-114603761D01*
X124901186Y-114548195D01*
X124900500Y-114536562D01*
X124900500Y-114513500D01*
X124919407Y-114455309D01*
X124968907Y-114419345D01*
X124999500Y-114414500D01*
X129000500Y-114414500D01*
X129058691Y-114433407D01*
G37*
%TD.AperFunction*%
%TA.AperFunction,Conductor*%
G36*
X116733914Y-103309407D02*
G01*
X116769878Y-103358907D01*
X116769878Y-103420093D01*
X116750543Y-103454328D01*
X116731373Y-103476453D01*
X116728622Y-103479628D01*
X116668834Y-103610543D01*
X116653875Y-103714589D01*
X116626879Y-103769497D01*
X116572765Y-103798050D01*
X116555883Y-103799500D01*
X116428035Y-103799500D01*
X116289949Y-103840046D01*
X116289942Y-103840049D01*
X116168873Y-103917855D01*
X116074622Y-104026628D01*
X116014834Y-104157543D01*
X115994353Y-104299997D01*
X115994353Y-104300002D01*
X116014834Y-104442456D01*
X116058155Y-104537314D01*
X116074623Y-104573373D01*
X116168872Y-104682143D01*
X116190083Y-104695774D01*
X116228814Y-104743138D01*
X116232308Y-104804224D01*
X116219845Y-104832580D01*
X116173022Y-104905439D01*
X116134500Y-105036631D01*
X116134500Y-105173368D01*
X116161917Y-105266740D01*
X116173022Y-105304561D01*
X116246945Y-105419589D01*
X116350282Y-105509130D01*
X116350283Y-105509130D01*
X116350284Y-105509131D01*
X116474654Y-105565930D01*
X116474657Y-105565930D01*
X116474658Y-105565931D01*
X116474659Y-105565931D01*
X116474663Y-105565932D01*
X116575984Y-105580500D01*
X116575989Y-105580500D01*
X116644016Y-105580500D01*
X116745336Y-105565932D01*
X116745337Y-105565931D01*
X116745342Y-105565931D01*
X116745343Y-105565930D01*
X116745345Y-105565930D01*
X116826532Y-105528852D01*
X116869718Y-105509130D01*
X116869724Y-105509124D01*
X116871973Y-105507680D01*
X116874143Y-105507109D01*
X116876159Y-105506189D01*
X116876318Y-105506537D01*
X116931147Y-105492123D01*
X116988165Y-105514319D01*
X117021246Y-105565790D01*
X117024500Y-105590962D01*
X117024500Y-105681465D01*
X117024123Y-105690094D01*
X117020736Y-105728805D01*
X117020736Y-105728806D01*
X117030795Y-105766350D01*
X117032664Y-105774779D01*
X117039411Y-105813045D01*
X117040164Y-105814348D01*
X117050054Y-105838224D01*
X117050443Y-105839679D01*
X117050446Y-105839684D01*
X117072289Y-105870880D01*
X117072649Y-105871393D01*
X117089049Y-105910987D01*
X117089411Y-105913044D01*
X117089412Y-105913045D01*
X117090164Y-105914348D01*
X117100054Y-105938224D01*
X117100443Y-105939679D01*
X117100446Y-105939684D01*
X117122649Y-105971393D01*
X117139049Y-106010987D01*
X117139411Y-106013044D01*
X117139412Y-106013045D01*
X117140164Y-106014348D01*
X117150054Y-106038224D01*
X117150443Y-106039679D01*
X117150446Y-106039685D01*
X117172732Y-106071512D01*
X117177371Y-106078793D01*
X117196806Y-106112455D01*
X117217088Y-106129474D01*
X117226569Y-106137429D01*
X117232938Y-106143264D01*
X117395504Y-106305830D01*
X117423281Y-106360347D01*
X117424500Y-106375834D01*
X117424500Y-107181465D01*
X117424123Y-107190094D01*
X117420736Y-107228807D01*
X117425030Y-107244834D01*
X117430795Y-107266350D01*
X117432664Y-107274779D01*
X117439411Y-107313045D01*
X117440164Y-107314348D01*
X117450054Y-107338224D01*
X117450444Y-107339679D01*
X117450446Y-107339685D01*
X117454744Y-107345822D01*
X117472635Y-107404333D01*
X117472273Y-107411237D01*
X117470736Y-107428805D01*
X117470736Y-107428806D01*
X117480795Y-107466350D01*
X117482664Y-107474779D01*
X117489411Y-107513045D01*
X117490164Y-107514348D01*
X117500054Y-107538224D01*
X117500443Y-107539679D01*
X117500446Y-107539684D01*
X117522649Y-107571393D01*
X117539049Y-107610987D01*
X117539411Y-107613044D01*
X117539412Y-107613045D01*
X117540164Y-107614348D01*
X117550054Y-107638224D01*
X117550443Y-107639679D01*
X117550447Y-107639687D01*
X117572732Y-107671514D01*
X117577370Y-107678794D01*
X117596804Y-107712454D01*
X117626567Y-107737428D01*
X117632935Y-107743262D01*
X117856740Y-107967067D01*
X117862564Y-107973423D01*
X117887545Y-108003194D01*
X117921209Y-108022629D01*
X117928480Y-108027261D01*
X117960316Y-108049553D01*
X117961770Y-108049942D01*
X117985647Y-108059833D01*
X117986955Y-108060588D01*
X117989009Y-108060950D01*
X118028605Y-108077349D01*
X118060316Y-108099554D01*
X118061767Y-108099942D01*
X118085659Y-108109840D01*
X118086954Y-108110588D01*
X118125220Y-108117335D01*
X118133647Y-108119203D01*
X118171193Y-108129264D01*
X118188762Y-108127726D01*
X118248376Y-108141488D01*
X118254178Y-108145256D01*
X118260314Y-108149553D01*
X118260316Y-108149554D01*
X118279886Y-108154797D01*
X118296087Y-108160693D01*
X118314454Y-108169259D01*
X118334632Y-108171024D01*
X118351626Y-108174020D01*
X118371193Y-108179264D01*
X118391373Y-108177498D01*
X118408628Y-108177498D01*
X118428807Y-108179264D01*
X118448373Y-108174020D01*
X118465360Y-108171025D01*
X118485545Y-108169260D01*
X118485545Y-108169259D01*
X118494178Y-108168505D01*
X118494461Y-108171752D01*
X118540319Y-108174148D01*
X118587875Y-108212645D01*
X118603721Y-108271743D01*
X118581804Y-108328868D01*
X118579676Y-108331408D01*
X118565623Y-108347626D01*
X118505834Y-108478543D01*
X118485353Y-108620997D01*
X118485353Y-108621002D01*
X118505834Y-108763456D01*
X118565622Y-108894371D01*
X118565623Y-108894373D01*
X118658448Y-109001500D01*
X118659873Y-109003144D01*
X118720406Y-109042046D01*
X118780947Y-109080953D01*
X118887403Y-109112211D01*
X118919035Y-109121499D01*
X118919036Y-109121499D01*
X118919039Y-109121500D01*
X118919041Y-109121500D01*
X119062959Y-109121500D01*
X119062961Y-109121500D01*
X119201053Y-109080953D01*
X119322128Y-109003143D01*
X119416377Y-108894373D01*
X119476165Y-108763457D01*
X119482992Y-108715971D01*
X119496647Y-108621002D01*
X119496647Y-108620997D01*
X119476165Y-108478543D01*
X119463358Y-108450500D01*
X119416377Y-108347627D01*
X119322128Y-108238857D01*
X119322127Y-108238856D01*
X119322126Y-108238855D01*
X119201057Y-108161049D01*
X119201054Y-108161047D01*
X119201053Y-108161047D01*
X119201050Y-108161046D01*
X119056167Y-108118505D01*
X119057025Y-108115580D01*
X119013794Y-108094294D01*
X118985272Y-108040163D01*
X118994015Y-107979605D01*
X119006992Y-107959704D01*
X119012453Y-107953194D01*
X119012455Y-107953194D01*
X119037442Y-107923414D01*
X119043254Y-107917070D01*
X119867066Y-107093258D01*
X119873425Y-107087433D01*
X119903194Y-107062455D01*
X119922635Y-107028779D01*
X119927251Y-107021533D01*
X119949554Y-106989684D01*
X119949942Y-106988236D01*
X119959838Y-106964345D01*
X119960586Y-106963048D01*
X119960585Y-106963048D01*
X119960588Y-106963045D01*
X119967338Y-106924755D01*
X119969196Y-106916374D01*
X119979264Y-106878806D01*
X119975877Y-106840090D01*
X119975500Y-106831462D01*
X119975500Y-106048033D01*
X119994407Y-105989842D01*
X120043907Y-105953878D01*
X120088776Y-105950068D01*
X120091740Y-105950500D01*
X120671999Y-105950500D01*
X120730190Y-105969407D01*
X120742060Y-105979554D01*
X120984415Y-106222309D01*
X120992557Y-106233630D01*
X120993514Y-106232908D01*
X120999040Y-106240226D01*
X120999041Y-106240227D01*
X120999042Y-106240228D01*
X121033624Y-106271753D01*
X121036975Y-106274956D01*
X121050012Y-106288015D01*
X121050021Y-106288021D01*
X121052644Y-106290203D01*
X121059346Y-106296317D01*
X121611436Y-106848407D01*
X121619537Y-106859647D01*
X121620516Y-106858909D01*
X121626044Y-106866230D01*
X121660724Y-106897845D01*
X121664032Y-106901003D01*
X121677203Y-106914174D01*
X121677295Y-106914237D01*
X121688042Y-106922750D01*
X121709062Y-106941913D01*
X121709064Y-106941914D01*
X121709067Y-106941916D01*
X121718233Y-106945467D01*
X121738412Y-106956103D01*
X121746520Y-106961657D01*
X121774215Y-106968171D01*
X121787296Y-106972222D01*
X121813827Y-106982500D01*
X121823652Y-106982500D01*
X121846316Y-106985129D01*
X121855881Y-106987379D01*
X121880958Y-106983880D01*
X121884054Y-106983449D01*
X121897731Y-106982500D01*
X123146377Y-106982500D01*
X123204568Y-107001407D01*
X123216423Y-107011539D01*
X123784547Y-107580371D01*
X123812291Y-107634904D01*
X123813500Y-107650330D01*
X123813500Y-107816896D01*
X123811275Y-107830603D01*
X123812479Y-107830771D01*
X123811214Y-107839857D01*
X123813393Y-107886685D01*
X123813500Y-107891286D01*
X123813500Y-107909847D01*
X123813535Y-107910033D01*
X123815110Y-107923602D01*
X123816435Y-107952079D01*
X123816435Y-107952081D01*
X123816436Y-107952082D01*
X123819804Y-107959704D01*
X123820384Y-107961015D01*
X123827145Y-107982835D01*
X123828939Y-107992434D01*
X123843943Y-108016667D01*
X123850321Y-108028761D01*
X123861847Y-108054842D01*
X123861848Y-108054843D01*
X123868751Y-108061742D01*
X123882938Y-108079647D01*
X123888080Y-108087951D01*
X123888081Y-108087952D01*
X123903445Y-108099554D01*
X123910826Y-108105128D01*
X123921147Y-108114106D01*
X125431482Y-109623524D01*
X125459276Y-109678031D01*
X125460500Y-109693548D01*
X125460500Y-110033769D01*
X125441593Y-110091960D01*
X125392093Y-110127924D01*
X125333609Y-110128759D01*
X125233964Y-110099500D01*
X125233961Y-110099500D01*
X125090039Y-110099500D01*
X125090035Y-110099500D01*
X124951949Y-110140046D01*
X124951942Y-110140049D01*
X124830873Y-110217855D01*
X124736622Y-110326628D01*
X124729774Y-110341625D01*
X124688403Y-110386703D01*
X124639720Y-110399500D01*
X122980252Y-110399500D01*
X122980251Y-110399500D01*
X122980241Y-110399501D01*
X122921772Y-110411132D01*
X122921766Y-110411134D01*
X122855451Y-110455445D01*
X122855445Y-110455451D01*
X122811134Y-110521766D01*
X122811132Y-110521772D01*
X122799501Y-110580241D01*
X122799500Y-110580253D01*
X122799500Y-111619746D01*
X122799501Y-111619758D01*
X122811132Y-111678227D01*
X122811134Y-111678233D01*
X122855445Y-111744548D01*
X122855448Y-111744552D01*
X122921769Y-111788867D01*
X122966231Y-111797711D01*
X122980241Y-111800498D01*
X122980246Y-111800498D01*
X122980252Y-111800500D01*
X122980253Y-111800500D01*
X122993370Y-111800500D01*
X123051561Y-111819407D01*
X123087525Y-111868907D01*
X123087525Y-111930093D01*
X123051561Y-111979593D01*
X123021261Y-111994490D01*
X122889949Y-112033046D01*
X122889942Y-112033049D01*
X122768873Y-112110855D01*
X122674622Y-112219628D01*
X122614834Y-112350543D01*
X122594353Y-112492997D01*
X122594353Y-112493002D01*
X122614834Y-112635456D01*
X122665605Y-112746627D01*
X122674623Y-112766373D01*
X122750081Y-112853457D01*
X122768873Y-112875144D01*
X122844050Y-112923457D01*
X122889947Y-112952953D01*
X122996403Y-112984211D01*
X123028035Y-112993499D01*
X123028036Y-112993499D01*
X123028039Y-112993500D01*
X123028041Y-112993500D01*
X123034695Y-112993500D01*
X123092886Y-113012407D01*
X123128850Y-113061907D01*
X123128850Y-113123093D01*
X123092886Y-113172593D01*
X123088218Y-113175784D01*
X123053876Y-113197854D01*
X123053875Y-113197855D01*
X123053872Y-113197857D01*
X123016530Y-113240953D01*
X123012736Y-113245331D01*
X122960340Y-113276927D01*
X122937917Y-113279500D01*
X121624463Y-113279500D01*
X121566272Y-113260593D01*
X121554464Y-113250509D01*
X114733501Y-106430512D01*
X114705720Y-106375997D01*
X114704500Y-106360503D01*
X114704500Y-104895479D01*
X114723407Y-104837288D01*
X114733496Y-104825475D01*
X116239476Y-103319496D01*
X116293993Y-103291719D01*
X116309480Y-103290500D01*
X116675723Y-103290500D01*
X116733914Y-103309407D01*
G37*
%TD.AperFunction*%
%TA.AperFunction,Conductor*%
G36*
X119733691Y-103309407D02*
G01*
X119769655Y-103358907D01*
X119774500Y-103389500D01*
X119774500Y-103733260D01*
X119775174Y-103737883D01*
X119784427Y-103801395D01*
X119816328Y-103866648D01*
X119835802Y-103906483D01*
X119884317Y-103954998D01*
X119912093Y-104009513D01*
X119902522Y-104069945D01*
X119884318Y-104095000D01*
X119844176Y-104135143D01*
X119835801Y-104143518D01*
X119784427Y-104248604D01*
X119783714Y-104253500D01*
X119776940Y-104299997D01*
X119774500Y-104316743D01*
X119774500Y-104474166D01*
X119755593Y-104532357D01*
X119745503Y-104544170D01*
X119482946Y-104806726D01*
X119476581Y-104812558D01*
X119446807Y-104837542D01*
X119446805Y-104837544D01*
X119443064Y-104844025D01*
X119397593Y-104884964D01*
X119336743Y-104891357D01*
X119283756Y-104860762D01*
X119258872Y-104804865D01*
X119259549Y-104779033D01*
X119275000Y-104681482D01*
X119275000Y-104650001D01*
X119274999Y-104650000D01*
X118311500Y-104650000D01*
X118253309Y-104631093D01*
X118217345Y-104581593D01*
X118212500Y-104551000D01*
X118212500Y-104449000D01*
X118231407Y-104390809D01*
X118280907Y-104354845D01*
X118311500Y-104350000D01*
X119274998Y-104350000D01*
X119274999Y-104349999D01*
X119274999Y-104318516D01*
X119274998Y-104318514D01*
X119260166Y-104224858D01*
X119260163Y-104224848D01*
X119202641Y-104111956D01*
X119150686Y-104060001D01*
X119122909Y-104005484D01*
X119132480Y-103945052D01*
X119150685Y-103919995D01*
X119164198Y-103906483D01*
X119215573Y-103801393D01*
X119225500Y-103733260D01*
X119225500Y-103389500D01*
X119244407Y-103331309D01*
X119293907Y-103295345D01*
X119324500Y-103290500D01*
X119675500Y-103290500D01*
X119733691Y-103309407D01*
G37*
%TD.AperFunction*%
%TA.AperFunction,Conductor*%
G36*
X116995209Y-122506093D02*
G01*
X117020390Y-122524361D01*
X118662608Y-124166579D01*
X118690385Y-124221096D01*
X118680814Y-124281528D01*
X118637549Y-124324793D01*
X118577117Y-124334364D01*
X118573290Y-124333681D01*
X118522363Y-124323551D01*
X118522339Y-124323545D01*
X118500002Y-124319103D01*
X118500001Y-124319103D01*
X118500000Y-124319103D01*
X118482430Y-124322598D01*
X118463116Y-124324500D01*
X118038433Y-124324500D01*
X117983433Y-124307816D01*
X117973796Y-124301377D01*
X117957496Y-124290485D01*
X117872362Y-124273551D01*
X117872361Y-124273550D01*
X117869775Y-124273036D01*
X117834090Y-124258255D01*
X117807494Y-124240484D01*
X117802752Y-124239541D01*
X117752064Y-124212448D01*
X117120885Y-123581269D01*
X117108573Y-123566266D01*
X117098625Y-123551378D01*
X117098624Y-123551376D01*
X117075623Y-123536007D01*
X117075622Y-123536006D01*
X117040995Y-123512869D01*
X117024245Y-123501677D01*
X117007497Y-123490486D01*
X117007496Y-123490485D01*
X117007495Y-123490485D01*
X116927133Y-123474500D01*
X116922362Y-123473551D01*
X116922330Y-123473543D01*
X116900002Y-123469103D01*
X116900001Y-123469103D01*
X116900000Y-123469103D01*
X116882430Y-123472598D01*
X116863116Y-123474500D01*
X116691461Y-123474500D01*
X116633270Y-123455593D01*
X116601408Y-123416627D01*
X116575377Y-123359627D01*
X116481128Y-123250857D01*
X116481127Y-123250856D01*
X116481126Y-123250855D01*
X116360057Y-123173049D01*
X116360054Y-123173047D01*
X116360053Y-123173047D01*
X116360050Y-123173046D01*
X116221964Y-123132500D01*
X116221961Y-123132500D01*
X116173193Y-123132500D01*
X116115002Y-123113593D01*
X116079038Y-123064093D01*
X116079038Y-123002907D01*
X116115002Y-122953407D01*
X116131353Y-122943776D01*
X116214507Y-122905000D01*
X116218316Y-122903224D01*
X116303224Y-122818316D01*
X116334306Y-122751659D01*
X116376034Y-122706913D01*
X116424030Y-122694500D01*
X116521113Y-122694500D01*
X116534929Y-122696741D01*
X116535090Y-122695576D01*
X116544175Y-122696829D01*
X116544180Y-122696831D01*
X116590795Y-122694611D01*
X116595502Y-122694500D01*
X116613840Y-122694500D01*
X116613844Y-122694500D01*
X116614212Y-122694431D01*
X116627707Y-122692854D01*
X116656400Y-122691489D01*
X116665131Y-122687619D01*
X116687053Y-122680814D01*
X116696433Y-122679061D01*
X116720860Y-122663935D01*
X116732833Y-122657614D01*
X116759111Y-122645969D01*
X116765849Y-122639211D01*
X116783834Y-122624944D01*
X116791952Y-122619919D01*
X116809261Y-122596996D01*
X116818155Y-122586761D01*
X116880289Y-122524456D01*
X116934764Y-122496605D01*
X116995209Y-122506093D01*
G37*
%TD.AperFunction*%
%TA.AperFunction,Conductor*%
G36*
X118083691Y-119093907D02*
G01*
X118119655Y-119143407D01*
X118124500Y-119174000D01*
X118124500Y-119455500D01*
X118124501Y-119455505D01*
X118127292Y-119479580D01*
X118136090Y-119499503D01*
X118141564Y-119511901D01*
X118150000Y-119551889D01*
X118150000Y-119746976D01*
X118167145Y-119762013D01*
X118172735Y-119763049D01*
X118214854Y-119807429D01*
X118224500Y-119850054D01*
X118224500Y-120025855D01*
X118205593Y-120084046D01*
X118156093Y-120120010D01*
X118094907Y-120120010D01*
X118071977Y-120109139D01*
X118064057Y-120104049D01*
X118064054Y-120104047D01*
X118064053Y-120104047D01*
X118064050Y-120104046D01*
X117925964Y-120063500D01*
X117925961Y-120063500D01*
X117782039Y-120063500D01*
X117782035Y-120063500D01*
X117643949Y-120104046D01*
X117643947Y-120104047D01*
X117622688Y-120117709D01*
X117563513Y-120133262D01*
X117506497Y-120111063D01*
X117480957Y-120079369D01*
X117439451Y-119997911D01*
X117439450Y-119997909D01*
X117352090Y-119910549D01*
X117352091Y-119910549D01*
X117303855Y-119885972D01*
X117260591Y-119842708D01*
X117259699Y-119837081D01*
X117241567Y-119847625D01*
X117205199Y-119848633D01*
X117150694Y-119840000D01*
X117100001Y-119840000D01*
X117100000Y-119840001D01*
X117100000Y-120421000D01*
X117081093Y-120479191D01*
X117031593Y-120515155D01*
X117001000Y-120520000D01*
X116453001Y-120520000D01*
X116451997Y-120521004D01*
X116397480Y-120548781D01*
X116381993Y-120550000D01*
X116030001Y-120550000D01*
X116030000Y-120550001D01*
X116030000Y-120931993D01*
X116011093Y-120990184D01*
X116001004Y-121001997D01*
X116000000Y-121003001D01*
X116000000Y-121571000D01*
X115981093Y-121629191D01*
X115931593Y-121665155D01*
X115901000Y-121670000D01*
X115799000Y-121670000D01*
X115740809Y-121651093D01*
X115704845Y-121601593D01*
X115700000Y-121571000D01*
X115700000Y-121018007D01*
X115718907Y-120959816D01*
X115728996Y-120948003D01*
X115730000Y-120946999D01*
X115730000Y-120349000D01*
X115748907Y-120290809D01*
X115798407Y-120254845D01*
X115829000Y-120250000D01*
X116346999Y-120250000D01*
X116348003Y-120248996D01*
X116402520Y-120221219D01*
X116418007Y-120220000D01*
X116799999Y-120220000D01*
X116800000Y-120219999D01*
X116800000Y-119839999D01*
X116749307Y-119840000D01*
X116749305Y-119840001D01*
X116657984Y-119854463D01*
X116657977Y-119854465D01*
X116547911Y-119910548D01*
X116547909Y-119910549D01*
X116470004Y-119988455D01*
X116415487Y-120016232D01*
X116355055Y-120006661D01*
X116329996Y-119988455D01*
X116252090Y-119910549D01*
X116252088Y-119910548D01*
X116142022Y-119854466D01*
X116142021Y-119854465D01*
X116116798Y-119850470D01*
X116062282Y-119822691D01*
X116034505Y-119768174D01*
X116044078Y-119707742D01*
X116062281Y-119682688D01*
X116369691Y-119375279D01*
X116424207Y-119347502D01*
X116479680Y-119354718D01*
X116520420Y-119372707D01*
X116544495Y-119375500D01*
X117005504Y-119375499D01*
X117015426Y-119374348D01*
X117075406Y-119386426D01*
X117116833Y-119431453D01*
X117125171Y-119461283D01*
X117127293Y-119479581D01*
X117140967Y-119510548D01*
X117170785Y-119578079D01*
X117246921Y-119654215D01*
X117260675Y-119660288D01*
X117306270Y-119701088D01*
X117308733Y-119712506D01*
X117333315Y-119699982D01*
X117360212Y-119699423D01*
X117369495Y-119700500D01*
X117630504Y-119700499D01*
X117654580Y-119697707D01*
X117654581Y-119697706D01*
X117661765Y-119695752D01*
X117662507Y-119698482D01*
X117710778Y-119693552D01*
X117731750Y-119700604D01*
X117823801Y-119743528D01*
X117823799Y-119743528D01*
X117849999Y-119746977D01*
X117850000Y-119746977D01*
X117850000Y-119551888D01*
X117858435Y-119511902D01*
X117872707Y-119479580D01*
X117875500Y-119455505D01*
X117875499Y-119173998D01*
X117894406Y-119115810D01*
X117943906Y-119079846D01*
X117974499Y-119075000D01*
X118025500Y-119075000D01*
X118083691Y-119093907D01*
G37*
%TD.AperFunction*%
%TA.AperFunction,Conductor*%
G36*
X118609191Y-116643907D02*
G01*
X118645155Y-116693407D01*
X118650000Y-116724000D01*
X118650000Y-117296977D01*
X118673368Y-117317471D01*
X118682524Y-117326626D01*
X118703023Y-117350000D01*
X119074999Y-117350000D01*
X119075000Y-117349999D01*
X119075000Y-116949000D01*
X119093907Y-116890809D01*
X119143407Y-116854845D01*
X119174000Y-116850000D01*
X119276000Y-116850000D01*
X119334191Y-116868907D01*
X119370155Y-116918407D01*
X119375000Y-116949000D01*
X119375000Y-119424998D01*
X119375001Y-119424999D01*
X119452041Y-119424999D01*
X119452051Y-119424998D01*
X119501196Y-119418529D01*
X119501201Y-119418528D01*
X119609067Y-119368228D01*
X119616163Y-119363260D01*
X119617764Y-119365547D01*
X119660013Y-119344022D01*
X119720445Y-119353593D01*
X119763710Y-119396858D01*
X119774500Y-119441803D01*
X119774500Y-120046854D01*
X119755593Y-120105045D01*
X119706093Y-120141009D01*
X119644907Y-120141009D01*
X119595407Y-120105045D01*
X119587291Y-120091800D01*
X119539450Y-119997909D01*
X119452090Y-119910549D01*
X119452088Y-119910548D01*
X119342022Y-119854466D01*
X119342021Y-119854465D01*
X119250693Y-119840000D01*
X119200001Y-119840000D01*
X119200000Y-119840001D01*
X119200000Y-120421000D01*
X119181093Y-120479191D01*
X119131593Y-120515155D01*
X119101000Y-120520000D01*
X118999000Y-120520000D01*
X118940809Y-120501093D01*
X118904845Y-120451593D01*
X118900000Y-120421000D01*
X118900000Y-119839999D01*
X118874501Y-119840000D01*
X118816310Y-119821094D01*
X118780346Y-119771594D01*
X118775500Y-119741000D01*
X118775500Y-119672801D01*
X118794407Y-119614610D01*
X118804490Y-119602803D01*
X118829215Y-119578079D01*
X118872408Y-119480256D01*
X118913206Y-119434665D01*
X118973014Y-119421759D01*
X118975893Y-119422095D01*
X118997956Y-119424999D01*
X119074999Y-119424998D01*
X119075000Y-119424998D01*
X119075000Y-118650001D01*
X119074999Y-118650000D01*
X118703024Y-118650000D01*
X118698031Y-118655691D01*
X118690235Y-118697744D01*
X118645850Y-118739859D01*
X118603235Y-118749500D01*
X118369499Y-118749500D01*
X118369496Y-118749501D01*
X118345416Y-118752293D01*
X118338232Y-118754248D01*
X118337491Y-118751526D01*
X118289171Y-118756436D01*
X118268249Y-118749395D01*
X118205103Y-118719949D01*
X118160355Y-118678221D01*
X118148681Y-118618159D01*
X118174539Y-118562707D01*
X118193420Y-118546941D01*
X118198049Y-118543967D01*
X118282882Y-118446063D01*
X118326753Y-118349999D01*
X118703021Y-118349999D01*
X118703022Y-118350000D01*
X119074999Y-118350000D01*
X119075000Y-118349999D01*
X119075000Y-118150001D01*
X119074999Y-118150000D01*
X118703024Y-118150000D01*
X118706472Y-118176202D01*
X118721374Y-118208160D01*
X118728831Y-118268889D01*
X118721375Y-118291838D01*
X118706470Y-118323801D01*
X118703021Y-118349999D01*
X118326753Y-118349999D01*
X118336697Y-118328226D01*
X118345228Y-118268889D01*
X118355133Y-118200002D01*
X118355133Y-118199997D01*
X118336697Y-118071774D01*
X118331071Y-118059455D01*
X118282882Y-117953937D01*
X118198049Y-117856033D01*
X118198048Y-117856032D01*
X118198047Y-117856031D01*
X118188661Y-117849999D01*
X118703021Y-117849999D01*
X118703022Y-117850000D01*
X119074999Y-117850000D01*
X119075000Y-117849999D01*
X119075000Y-117650001D01*
X119074999Y-117650000D01*
X118703024Y-117650000D01*
X118706472Y-117676202D01*
X118721374Y-117708160D01*
X118728831Y-117768889D01*
X118721375Y-117791838D01*
X118706470Y-117823801D01*
X118703021Y-117849999D01*
X118188661Y-117849999D01*
X118089073Y-117785998D01*
X118089070Y-117785996D01*
X118089069Y-117785996D01*
X118077718Y-117782663D01*
X117964774Y-117749500D01*
X117964772Y-117749500D01*
X117835228Y-117749500D01*
X117835226Y-117749500D01*
X117778637Y-117766115D01*
X117717476Y-117764366D01*
X117680744Y-117741128D01*
X117370885Y-117431269D01*
X117358574Y-117416267D01*
X117350712Y-117404501D01*
X117334103Y-117345613D01*
X117355280Y-117288210D01*
X117406153Y-117254216D01*
X117433021Y-117250499D01*
X117630504Y-117250499D01*
X117654580Y-117247707D01*
X117710012Y-117223230D01*
X117770879Y-117217022D01*
X117789986Y-117223230D01*
X117845420Y-117247707D01*
X117869495Y-117250500D01*
X118130504Y-117250499D01*
X118154580Y-117247707D01*
X118154581Y-117247706D01*
X118161765Y-117245752D01*
X118162507Y-117248482D01*
X118210778Y-117243552D01*
X118231750Y-117250604D01*
X118323801Y-117293528D01*
X118323799Y-117293528D01*
X118349999Y-117296977D01*
X118350000Y-117296977D01*
X118350000Y-117101888D01*
X118358435Y-117061902D01*
X118372707Y-117029580D01*
X118375500Y-117005505D01*
X118375499Y-116723998D01*
X118394406Y-116665810D01*
X118443906Y-116629846D01*
X118474499Y-116625000D01*
X118551000Y-116625000D01*
X118609191Y-116643907D01*
G37*
%TD.AperFunction*%
%TA.AperFunction,Conductor*%
G36*
X115389191Y-115618907D02*
G01*
X115425155Y-115668407D01*
X115430000Y-115699000D01*
X115430000Y-116309998D01*
X115430001Y-116309999D01*
X115450692Y-116309999D01*
X115505977Y-116301243D01*
X115566409Y-116310815D01*
X115609674Y-116354079D01*
X115619245Y-116414511D01*
X115611518Y-116440149D01*
X115600834Y-116463543D01*
X115579949Y-116608806D01*
X115552953Y-116663714D01*
X115498839Y-116692267D01*
X115466473Y-116692499D01*
X115450692Y-116690000D01*
X115430001Y-116690000D01*
X115430000Y-116690001D01*
X115430000Y-117099999D01*
X115430001Y-117100000D01*
X115810237Y-117100000D01*
X115864266Y-117072469D01*
X115907643Y-117075259D01*
X116014039Y-117106500D01*
X116014041Y-117106500D01*
X116157959Y-117106500D01*
X116157961Y-117106500D01*
X116183571Y-117098980D01*
X116244731Y-117100726D01*
X116293185Y-117138087D01*
X116302029Y-117153982D01*
X116326768Y-117210013D01*
X116332975Y-117270883D01*
X116326767Y-117289989D01*
X116314269Y-117318294D01*
X116273469Y-117363889D01*
X116213660Y-117376794D01*
X116195814Y-117373295D01*
X116114775Y-117349500D01*
X116114772Y-117349500D01*
X115985228Y-117349500D01*
X115985225Y-117349500D01*
X115860929Y-117385996D01*
X115854488Y-117388938D01*
X115853690Y-117387191D01*
X115810071Y-117400000D01*
X115430001Y-117400000D01*
X115430000Y-117400001D01*
X115430000Y-117809998D01*
X115430001Y-117809999D01*
X115450691Y-117809999D01*
X115493873Y-117803159D01*
X115554305Y-117812730D01*
X115597570Y-117855994D01*
X115607353Y-117886850D01*
X115613302Y-117928225D01*
X115667118Y-118046063D01*
X115679653Y-118060530D01*
X115703470Y-118116890D01*
X115689611Y-118176485D01*
X115643369Y-118216552D01*
X115582408Y-118221787D01*
X115559887Y-118213569D01*
X115542019Y-118204465D01*
X115542021Y-118204465D01*
X115450693Y-118190000D01*
X115430001Y-118190000D01*
X115430000Y-118190001D01*
X115430000Y-119309998D01*
X115437511Y-119317509D01*
X115465288Y-119372026D01*
X115455717Y-119432458D01*
X115437510Y-119457517D01*
X115034522Y-119860504D01*
X114980006Y-119888281D01*
X114964519Y-119889500D01*
X114740104Y-119889500D01*
X114740092Y-119889501D01*
X114690513Y-119896027D01*
X114690511Y-119896027D01*
X114581686Y-119946774D01*
X114496774Y-120031686D01*
X114459504Y-120111613D01*
X114417776Y-120156361D01*
X114357715Y-120168035D01*
X114319039Y-120150000D01*
X113729000Y-120150000D01*
X113670809Y-120131093D01*
X113634845Y-120081593D01*
X113630000Y-120051000D01*
X113630000Y-119949000D01*
X113648907Y-119890809D01*
X113698407Y-119854845D01*
X113729000Y-119850000D01*
X114309998Y-119850000D01*
X114309999Y-119849999D01*
X114309999Y-119799306D01*
X114295536Y-119707984D01*
X114295534Y-119707977D01*
X114239451Y-119597911D01*
X114239450Y-119597909D01*
X114152090Y-119510549D01*
X114152088Y-119510548D01*
X114042022Y-119454466D01*
X114042021Y-119454465D01*
X114016798Y-119450470D01*
X113962282Y-119422691D01*
X113934505Y-119368174D01*
X113944078Y-119307742D01*
X113962277Y-119282692D01*
X113973631Y-119271338D01*
X114028144Y-119243564D01*
X114085471Y-119251621D01*
X114090511Y-119253971D01*
X114090513Y-119253972D01*
X114140099Y-119260500D01*
X114499900Y-119260499D01*
X114549487Y-119253972D01*
X114549488Y-119253972D01*
X114617356Y-119222324D01*
X114658316Y-119203224D01*
X114694997Y-119166542D01*
X114749512Y-119138767D01*
X114809944Y-119148338D01*
X114835003Y-119166544D01*
X114907909Y-119239450D01*
X114907911Y-119239451D01*
X115017977Y-119295533D01*
X115017979Y-119295534D01*
X115109305Y-119309999D01*
X115130000Y-119309998D01*
X115130000Y-118189999D01*
X115109307Y-118190000D01*
X115109303Y-118190001D01*
X115017984Y-118204463D01*
X115017977Y-118204465D01*
X114907911Y-118260548D01*
X114907909Y-118260549D01*
X114835003Y-118333456D01*
X114780486Y-118361233D01*
X114720054Y-118351662D01*
X114694998Y-118333458D01*
X114658316Y-118296776D01*
X114658314Y-118296775D01*
X114658313Y-118296774D01*
X114549489Y-118246029D01*
X114549488Y-118246028D01*
X114532958Y-118243852D01*
X114499901Y-118239500D01*
X114499899Y-118239500D01*
X114140104Y-118239500D01*
X114140092Y-118239501D01*
X114090513Y-118246027D01*
X114090511Y-118246027D01*
X113981686Y-118296774D01*
X113896774Y-118381686D01*
X113846029Y-118490510D01*
X113846028Y-118490510D01*
X113841547Y-118524549D01*
X113815205Y-118579773D01*
X113813398Y-118581629D01*
X112934523Y-119460504D01*
X112880006Y-119488281D01*
X112864519Y-119489500D01*
X112640104Y-119489500D01*
X112640092Y-119489501D01*
X112590513Y-119496027D01*
X112590511Y-119496027D01*
X112481686Y-119546774D01*
X112396774Y-119631686D01*
X112346029Y-119740510D01*
X112346028Y-119740511D01*
X112339500Y-119790100D01*
X112339500Y-119966876D01*
X112320593Y-120025067D01*
X112271093Y-120061031D01*
X112209907Y-120061031D01*
X112170496Y-120036880D01*
X112082496Y-119948880D01*
X112054719Y-119894363D01*
X112053500Y-119878876D01*
X112053500Y-117869500D01*
X112072407Y-117811309D01*
X112121907Y-117775345D01*
X112152500Y-117770500D01*
X112464314Y-117770500D01*
X112464316Y-117770500D01*
X112513173Y-117764068D01*
X112620404Y-117714065D01*
X112698652Y-117635816D01*
X112753166Y-117608040D01*
X112813599Y-117617611D01*
X112851722Y-117655734D01*
X112852568Y-117655131D01*
X112856185Y-117660197D01*
X112856863Y-117660875D01*
X112857314Y-117661779D01*
X112857333Y-117661805D01*
X112948192Y-117752664D01*
X113063625Y-117809096D01*
X113138462Y-117819999D01*
X113160000Y-117819998D01*
X113160000Y-117199000D01*
X113178907Y-117140809D01*
X113228407Y-117104845D01*
X113259000Y-117100000D01*
X113361000Y-117100000D01*
X113419191Y-117118907D01*
X113455155Y-117168407D01*
X113460000Y-117199000D01*
X113460000Y-117819998D01*
X113460001Y-117819999D01*
X113481535Y-117819999D01*
X113481538Y-117819998D01*
X113556375Y-117809096D01*
X113671807Y-117752664D01*
X113762666Y-117661805D01*
X113767432Y-117655131D01*
X113769932Y-117656916D01*
X113802600Y-117623129D01*
X113862862Y-117612542D01*
X113917839Y-117639398D01*
X113918967Y-117640507D01*
X113981684Y-117703224D01*
X114090513Y-117753972D01*
X114140099Y-117760500D01*
X114499900Y-117760499D01*
X114549487Y-117753972D01*
X114549488Y-117753972D01*
X114635067Y-117714065D01*
X114658316Y-117703224D01*
X114694997Y-117666542D01*
X114749512Y-117638767D01*
X114809944Y-117648338D01*
X114835003Y-117666544D01*
X114907909Y-117739450D01*
X114907911Y-117739451D01*
X115017977Y-117795533D01*
X115017979Y-117795534D01*
X115109305Y-117809999D01*
X115130000Y-117809998D01*
X115130000Y-116689999D01*
X115109307Y-116690000D01*
X115109303Y-116690001D01*
X115017984Y-116704463D01*
X115017977Y-116704465D01*
X114907911Y-116760548D01*
X114907909Y-116760549D01*
X114835003Y-116833456D01*
X114780486Y-116861233D01*
X114720054Y-116851662D01*
X114694998Y-116833458D01*
X114658316Y-116796776D01*
X114658314Y-116796775D01*
X114658313Y-116796774D01*
X114549489Y-116746029D01*
X114549488Y-116746028D01*
X114524694Y-116742764D01*
X114499901Y-116739500D01*
X114499900Y-116739500D01*
X114275479Y-116739500D01*
X114217288Y-116720593D01*
X114205475Y-116710504D01*
X113994565Y-116499594D01*
X113986479Y-116488344D01*
X113985487Y-116489094D01*
X113979958Y-116481772D01*
X113945272Y-116450151D01*
X113941968Y-116446996D01*
X113928800Y-116433828D01*
X113928796Y-116433825D01*
X113928693Y-116433755D01*
X113917962Y-116425255D01*
X113896933Y-116406084D01*
X113896932Y-116406083D01*
X113890382Y-116402028D01*
X113850863Y-116355317D01*
X113846346Y-116294299D01*
X113852448Y-116276733D01*
X113853468Y-116274500D01*
X113861361Y-116257216D01*
X113902732Y-116212140D01*
X113962698Y-116199988D01*
X113993253Y-116208619D01*
X114090510Y-116253971D01*
X114090511Y-116253971D01*
X114090513Y-116253972D01*
X114140099Y-116260500D01*
X114499900Y-116260499D01*
X114549487Y-116253972D01*
X114549488Y-116253972D01*
X114608137Y-116226622D01*
X114658316Y-116203224D01*
X114694997Y-116166542D01*
X114749512Y-116138767D01*
X114809944Y-116148338D01*
X114835003Y-116166544D01*
X114907909Y-116239450D01*
X114907911Y-116239451D01*
X115017977Y-116295533D01*
X115017979Y-116295534D01*
X115109305Y-116309999D01*
X115130000Y-116309998D01*
X115130000Y-115699000D01*
X115148907Y-115640809D01*
X115198407Y-115604845D01*
X115229000Y-115600000D01*
X115331000Y-115600000D01*
X115389191Y-115618907D01*
G37*
%TD.AperFunction*%
%TA.AperFunction,Conductor*%
G36*
X109510716Y-100518907D02*
G01*
X109546680Y-100568407D01*
X109546680Y-100629593D01*
X109510716Y-100679093D01*
X109480416Y-100693990D01*
X109435949Y-100707046D01*
X109435942Y-100707049D01*
X109314873Y-100784855D01*
X109220622Y-100893628D01*
X109160834Y-101024543D01*
X109140353Y-101166996D01*
X109140353Y-101166997D01*
X109140353Y-101167000D01*
X109140559Y-101168432D01*
X109142886Y-101184616D01*
X109132451Y-101244905D01*
X109114897Y-101268708D01*
X108287313Y-102096292D01*
X108232796Y-102124069D01*
X108208072Y-102124856D01*
X108204273Y-102124500D01*
X108204266Y-102124500D01*
X107595734Y-102124500D01*
X107595725Y-102124500D01*
X107565305Y-102127353D01*
X107565296Y-102127355D01*
X107437116Y-102172207D01*
X107327855Y-102252845D01*
X107327845Y-102252855D01*
X107247207Y-102362116D01*
X107202355Y-102490296D01*
X107202353Y-102490305D01*
X107199500Y-102520725D01*
X107199500Y-103579274D01*
X107202353Y-103609694D01*
X107202355Y-103609703D01*
X107247207Y-103737883D01*
X107327845Y-103847144D01*
X107327847Y-103847146D01*
X107327850Y-103847150D01*
X107327853Y-103847152D01*
X107327855Y-103847154D01*
X107437116Y-103927792D01*
X107437117Y-103927792D01*
X107437118Y-103927793D01*
X107565301Y-103972646D01*
X107595725Y-103975499D01*
X107595727Y-103975500D01*
X107595734Y-103975500D01*
X108204273Y-103975500D01*
X108204273Y-103975499D01*
X108234699Y-103972646D01*
X108362882Y-103927793D01*
X108472150Y-103847150D01*
X108552793Y-103737882D01*
X108597646Y-103609699D01*
X108600499Y-103579273D01*
X108600500Y-103579273D01*
X108600500Y-103572824D01*
X109049999Y-103572824D01*
X109056401Y-103632370D01*
X109056403Y-103632381D01*
X109106646Y-103767088D01*
X109106647Y-103767090D01*
X109192807Y-103882184D01*
X109192815Y-103882192D01*
X109307909Y-103968352D01*
X109307911Y-103968353D01*
X109442618Y-104018596D01*
X109442629Y-104018598D01*
X109502176Y-104025000D01*
X109649999Y-104025000D01*
X109650000Y-104024999D01*
X109950000Y-104024999D01*
X109950001Y-104025000D01*
X110097824Y-104025000D01*
X110157370Y-104018598D01*
X110157381Y-104018596D01*
X110292088Y-103968353D01*
X110292090Y-103968352D01*
X110407184Y-103882192D01*
X110407192Y-103882184D01*
X110493352Y-103767090D01*
X110493353Y-103767088D01*
X110543596Y-103632381D01*
X110543598Y-103632370D01*
X110550000Y-103572824D01*
X110550000Y-103200001D01*
X110549999Y-103200000D01*
X109950001Y-103200000D01*
X109950000Y-103200001D01*
X109950000Y-104024999D01*
X109650000Y-104024999D01*
X109650000Y-103200001D01*
X109649999Y-103200000D01*
X109050001Y-103200000D01*
X109050000Y-103200001D01*
X109050000Y-103572824D01*
X109049999Y-103572824D01*
X108600500Y-103572824D01*
X108600500Y-103003002D01*
X111865353Y-103003002D01*
X111885834Y-103145456D01*
X111928327Y-103238500D01*
X111945623Y-103276373D01*
X112027493Y-103370857D01*
X112039873Y-103385144D01*
X112049488Y-103391323D01*
X112160947Y-103462953D01*
X112267403Y-103494211D01*
X112299035Y-103503499D01*
X112299036Y-103503499D01*
X112299039Y-103503500D01*
X112299041Y-103503500D01*
X112442959Y-103503500D01*
X112442961Y-103503500D01*
X112581053Y-103462953D01*
X112702128Y-103385143D01*
X112796377Y-103276373D01*
X112856165Y-103145457D01*
X112868534Y-103059427D01*
X112876647Y-103003002D01*
X112876647Y-103002997D01*
X112856165Y-102860543D01*
X112834496Y-102813096D01*
X112796377Y-102729627D01*
X112702128Y-102620857D01*
X112702127Y-102620856D01*
X112702126Y-102620855D01*
X112581057Y-102543049D01*
X112581054Y-102543047D01*
X112581053Y-102543047D01*
X112581050Y-102543046D01*
X112442964Y-102502500D01*
X112442961Y-102502500D01*
X112299039Y-102502500D01*
X112299035Y-102502500D01*
X112160949Y-102543046D01*
X112160942Y-102543049D01*
X112039873Y-102620855D01*
X111945622Y-102729628D01*
X111885834Y-102860543D01*
X111865353Y-103002997D01*
X111865353Y-103003002D01*
X108600500Y-103003002D01*
X108600500Y-102956899D01*
X108619407Y-102898708D01*
X108629484Y-102886908D01*
X108880999Y-102635393D01*
X108935513Y-102607618D01*
X108995945Y-102617189D01*
X109039210Y-102660454D01*
X109050000Y-102705399D01*
X109050000Y-102899999D01*
X109050001Y-102900000D01*
X109649999Y-102900000D01*
X109650000Y-102899999D01*
X109950000Y-102899999D01*
X109950001Y-102900000D01*
X110549999Y-102900000D01*
X110550000Y-102899999D01*
X110550000Y-102527175D01*
X110543598Y-102467629D01*
X110543596Y-102467618D01*
X110493353Y-102332911D01*
X110493352Y-102332909D01*
X110407192Y-102217815D01*
X110407184Y-102217807D01*
X110292090Y-102131647D01*
X110292088Y-102131646D01*
X110157381Y-102081403D01*
X110157370Y-102081401D01*
X110097824Y-102075000D01*
X109950001Y-102075000D01*
X109950000Y-102075001D01*
X109950000Y-102899999D01*
X109650000Y-102899999D01*
X109650000Y-102075001D01*
X109635367Y-102060368D01*
X109622208Y-102056093D01*
X109586244Y-102006593D01*
X109586244Y-101945407D01*
X109610393Y-101905999D01*
X109941964Y-101574427D01*
X109958437Y-101561153D01*
X109977128Y-101549143D01*
X110071377Y-101440373D01*
X110131165Y-101309457D01*
X110149114Y-101184616D01*
X110151647Y-101167002D01*
X110151647Y-101166997D01*
X110131165Y-101024543D01*
X110071377Y-100893628D01*
X110071377Y-100893627D01*
X109977128Y-100784857D01*
X109977127Y-100784856D01*
X109977126Y-100784855D01*
X109856057Y-100707049D01*
X109856054Y-100707047D01*
X109856053Y-100707047D01*
X109811583Y-100693989D01*
X109761077Y-100659454D01*
X109740515Y-100601827D01*
X109757753Y-100543120D01*
X109806206Y-100505758D01*
X109839475Y-100500000D01*
X133987808Y-100500000D01*
X134025694Y-100507536D01*
X134166134Y-100565708D01*
X134176136Y-100570525D01*
X134431354Y-100711578D01*
X134440755Y-100717485D01*
X134678575Y-100886228D01*
X134687254Y-100893149D01*
X134717388Y-100920078D01*
X134904697Y-101087467D01*
X134912532Y-101095302D01*
X134992348Y-101184616D01*
X135106850Y-101312745D01*
X135113771Y-101321424D01*
X135282514Y-101559244D01*
X135288421Y-101568645D01*
X135429474Y-101823863D01*
X135434291Y-101833865D01*
X135450210Y-101872296D01*
X135492464Y-101974306D01*
X135500000Y-102012190D01*
X135500000Y-133987808D01*
X135492464Y-134025694D01*
X135434291Y-134166134D01*
X135429474Y-134176136D01*
X135288421Y-134431354D01*
X135282514Y-134440755D01*
X135113771Y-134678575D01*
X135106850Y-134687254D01*
X134912540Y-134904689D01*
X134904689Y-134912540D01*
X134687254Y-135106850D01*
X134678575Y-135113771D01*
X134440755Y-135282514D01*
X134431354Y-135288421D01*
X134176136Y-135429474D01*
X134166134Y-135434291D01*
X134025694Y-135492464D01*
X133987808Y-135500000D01*
X102012192Y-135500000D01*
X101974306Y-135492464D01*
X101833865Y-135434291D01*
X101823863Y-135429474D01*
X101568645Y-135288421D01*
X101559244Y-135282514D01*
X101321424Y-135113771D01*
X101312745Y-135106850D01*
X101177290Y-134985801D01*
X101095302Y-134912532D01*
X101087467Y-134904697D01*
X100957970Y-134759789D01*
X100893149Y-134687254D01*
X100886228Y-134678575D01*
X100717485Y-134440755D01*
X100711578Y-134431354D01*
X100700461Y-134411240D01*
X100570525Y-134176136D01*
X100565708Y-134166134D01*
X100507536Y-134025694D01*
X100500000Y-133987808D01*
X100500000Y-133381185D01*
X100999500Y-133381185D01*
X101038603Y-133640609D01*
X101038605Y-133640619D01*
X101115937Y-133891325D01*
X101229768Y-134127696D01*
X101229772Y-134127704D01*
X101377567Y-134344479D01*
X101377570Y-134344482D01*
X101377572Y-134344485D01*
X101556017Y-134536803D01*
X101556029Y-134536814D01*
X101733793Y-134678575D01*
X101761143Y-134700386D01*
X101761147Y-134700388D01*
X101761148Y-134700389D01*
X101988344Y-134831561D01*
X101988348Y-134831563D01*
X101988357Y-134831568D01*
X102082072Y-134868348D01*
X102232580Y-134927419D01*
X102232583Y-134927419D01*
X102232584Y-134927420D01*
X102488370Y-134985802D01*
X102553748Y-134990701D01*
X102684498Y-135000500D01*
X102684506Y-135000500D01*
X102815502Y-135000500D01*
X102936193Y-134991455D01*
X103011630Y-134985802D01*
X103267416Y-134927420D01*
X103511643Y-134831568D01*
X103738857Y-134700386D01*
X103943981Y-134536805D01*
X104122433Y-134344479D01*
X104270228Y-134127704D01*
X104384063Y-133891323D01*
X104461396Y-133640615D01*
X104500500Y-133381182D01*
X104500500Y-133118818D01*
X104461396Y-132859385D01*
X104384063Y-132608677D01*
X104270228Y-132372296D01*
X104122433Y-132155521D01*
X104092009Y-132122732D01*
X103943982Y-131963196D01*
X103943970Y-131963185D01*
X103738865Y-131799620D01*
X103738851Y-131799610D01*
X103511655Y-131668438D01*
X103511646Y-131668433D01*
X103511643Y-131668432D01*
X103511639Y-131668430D01*
X103511636Y-131668429D01*
X103267419Y-131572580D01*
X103011631Y-131514198D01*
X103011625Y-131514197D01*
X102815502Y-131499500D01*
X102815494Y-131499500D01*
X102684506Y-131499500D01*
X102684498Y-131499500D01*
X102488374Y-131514197D01*
X102488368Y-131514198D01*
X102232580Y-131572580D01*
X101988363Y-131668429D01*
X101988344Y-131668438D01*
X101761148Y-131799610D01*
X101761134Y-131799620D01*
X101556029Y-131963185D01*
X101556017Y-131963196D01*
X101377572Y-132155514D01*
X101377567Y-132155520D01*
X101377567Y-132155521D01*
X101229772Y-132372296D01*
X101229770Y-132372299D01*
X101229768Y-132372303D01*
X101115937Y-132608674D01*
X101038605Y-132859380D01*
X101038603Y-132859390D01*
X100999500Y-133118814D01*
X100999500Y-133381185D01*
X100500000Y-133381185D01*
X100500000Y-126893002D01*
X105629353Y-126893002D01*
X105649834Y-127035456D01*
X105703793Y-127153607D01*
X105709623Y-127166373D01*
X105803872Y-127275143D01*
X105803873Y-127275144D01*
X105924942Y-127352950D01*
X105924947Y-127352953D01*
X106021772Y-127381383D01*
X106063035Y-127393499D01*
X106063036Y-127393499D01*
X106063039Y-127393500D01*
X106063041Y-127393500D01*
X106206959Y-127393500D01*
X106206961Y-127393500D01*
X106345053Y-127352953D01*
X106466128Y-127275143D01*
X106560377Y-127166373D01*
X106620165Y-127035457D01*
X106635361Y-126929765D01*
X106640647Y-126893002D01*
X106640647Y-126892997D01*
X106620165Y-126750543D01*
X106615141Y-126739543D01*
X106560377Y-126619627D01*
X106466128Y-126510857D01*
X106466127Y-126510856D01*
X106466126Y-126510855D01*
X106345057Y-126433049D01*
X106345054Y-126433047D01*
X106345053Y-126433047D01*
X106329421Y-126428457D01*
X106206964Y-126392500D01*
X106206961Y-126392500D01*
X106063039Y-126392500D01*
X106063035Y-126392500D01*
X105924949Y-126433046D01*
X105924942Y-126433049D01*
X105803873Y-126510855D01*
X105709622Y-126619628D01*
X105649834Y-126750543D01*
X105629353Y-126892997D01*
X105629353Y-126893002D01*
X100500000Y-126893002D01*
X100500000Y-126286002D01*
X103848353Y-126286002D01*
X103868834Y-126428456D01*
X103916807Y-126533500D01*
X103928623Y-126559373D01*
X104009375Y-126652566D01*
X104022873Y-126668144D01*
X104143942Y-126745950D01*
X104143947Y-126745953D01*
X104250403Y-126777211D01*
X104282035Y-126786499D01*
X104282036Y-126786499D01*
X104282039Y-126786500D01*
X104282041Y-126786500D01*
X104425959Y-126786500D01*
X104425961Y-126786500D01*
X104564053Y-126745953D01*
X104685128Y-126668143D01*
X104779377Y-126559373D01*
X104839165Y-126428457D01*
X104855009Y-126318260D01*
X104859647Y-126286002D01*
X104859647Y-126285997D01*
X104839165Y-126143543D01*
X104779377Y-126012628D01*
X104779377Y-126012627D01*
X104685128Y-125903857D01*
X104685127Y-125903856D01*
X104685126Y-125903855D01*
X104564057Y-125826049D01*
X104564054Y-125826047D01*
X104564053Y-125826047D01*
X104564050Y-125826046D01*
X104425964Y-125785500D01*
X104425961Y-125785500D01*
X104282039Y-125785500D01*
X104282035Y-125785500D01*
X104143949Y-125826046D01*
X104143942Y-125826049D01*
X104022873Y-125903855D01*
X103928622Y-126012628D01*
X103868834Y-126143543D01*
X103848353Y-126285997D01*
X103848353Y-126286002D01*
X100500000Y-126286002D01*
X100500000Y-125547824D01*
X107349999Y-125547824D01*
X107356401Y-125607370D01*
X107356403Y-125607381D01*
X107406646Y-125742088D01*
X107406647Y-125742090D01*
X107492807Y-125857184D01*
X107492815Y-125857192D01*
X107607909Y-125943352D01*
X107607911Y-125943353D01*
X107742618Y-125993596D01*
X107742629Y-125993598D01*
X107802176Y-126000000D01*
X108349999Y-126000000D01*
X108350000Y-125999999D01*
X108350000Y-124650001D01*
X108349999Y-124650000D01*
X107350001Y-124650000D01*
X107350000Y-124650001D01*
X107350000Y-125547824D01*
X107349999Y-125547824D01*
X100500000Y-125547824D01*
X100500000Y-124349999D01*
X107350000Y-124349999D01*
X107350001Y-124350000D01*
X108349999Y-124350000D01*
X108350000Y-124349999D01*
X108350000Y-123000001D01*
X108349999Y-123000000D01*
X107802176Y-123000000D01*
X107742629Y-123006401D01*
X107742618Y-123006403D01*
X107607911Y-123056646D01*
X107607909Y-123056647D01*
X107492815Y-123142807D01*
X107492807Y-123142815D01*
X107406647Y-123257909D01*
X107406646Y-123257911D01*
X107356403Y-123392618D01*
X107356401Y-123392629D01*
X107350000Y-123452175D01*
X107350000Y-124349999D01*
X100500000Y-124349999D01*
X100500000Y-120999624D01*
X104000000Y-120999624D01*
X104014506Y-121072546D01*
X104014507Y-121072548D01*
X104069758Y-121155237D01*
X104069762Y-121155241D01*
X104152451Y-121210492D01*
X104152453Y-121210493D01*
X104225375Y-121224999D01*
X104225377Y-121225000D01*
X106349999Y-121225000D01*
X106350000Y-121224999D01*
X106650000Y-121224999D01*
X106650001Y-121225000D01*
X108774623Y-121225000D01*
X108774624Y-121224999D01*
X108847546Y-121210493D01*
X108847548Y-121210492D01*
X108930237Y-121155241D01*
X108930241Y-121155237D01*
X108985492Y-121072548D01*
X108985493Y-121072546D01*
X108999999Y-120999624D01*
X109000000Y-120999622D01*
X109000000Y-119650001D01*
X108999999Y-119650000D01*
X106650001Y-119650000D01*
X106650000Y-119650001D01*
X106650000Y-121224999D01*
X106350000Y-121224999D01*
X106350000Y-119650001D01*
X106349999Y-119650000D01*
X104000001Y-119650000D01*
X104000000Y-119650001D01*
X104000000Y-120999624D01*
X100500000Y-120999624D01*
X100500000Y-115464604D01*
X103542641Y-115464604D01*
X103553622Y-115524529D01*
X103554521Y-115530437D01*
X103561618Y-115588877D01*
X103561860Y-115590872D01*
X103565890Y-115601500D01*
X103566255Y-115602461D01*
X103571067Y-115619723D01*
X103573303Y-115631926D01*
X103573305Y-115631932D01*
X103595204Y-115680591D01*
X103598302Y-115687473D01*
X103600581Y-115692974D01*
X103615414Y-115732084D01*
X103622183Y-115749933D01*
X103622183Y-115749934D01*
X103629229Y-115760141D01*
X103638029Y-115775743D01*
X103643120Y-115787055D01*
X103680676Y-115834992D01*
X103684218Y-115839806D01*
X103718814Y-115889925D01*
X103718818Y-115889930D01*
X103764389Y-115930302D01*
X103768744Y-115934401D01*
X104720504Y-116886161D01*
X104748281Y-116940678D01*
X104749500Y-116956165D01*
X104749500Y-117404274D01*
X104752353Y-117434694D01*
X104752355Y-117434703D01*
X104797207Y-117562883D01*
X104837304Y-117617212D01*
X104856646Y-117675259D01*
X104838175Y-117733590D01*
X104788945Y-117769923D01*
X104757649Y-117775000D01*
X104225375Y-117775000D01*
X104152453Y-117789506D01*
X104152451Y-117789507D01*
X104069762Y-117844758D01*
X104069758Y-117844762D01*
X104014507Y-117927451D01*
X104014506Y-117927453D01*
X104000000Y-118000375D01*
X104000000Y-119349999D01*
X104000001Y-119350000D01*
X108999999Y-119350000D01*
X109000000Y-119349999D01*
X109000000Y-118505665D01*
X109018907Y-118447474D01*
X109068407Y-118411510D01*
X109129593Y-118411510D01*
X109169004Y-118435661D01*
X109399504Y-118666161D01*
X109427281Y-118720678D01*
X109428500Y-118736165D01*
X109428500Y-122927640D01*
X109409593Y-122985831D01*
X109360093Y-123021795D01*
X109298907Y-123021795D01*
X109294905Y-123020399D01*
X109257377Y-123006403D01*
X109257370Y-123006401D01*
X109197824Y-123000000D01*
X108650001Y-123000000D01*
X108650000Y-123000001D01*
X108650000Y-125999999D01*
X108650001Y-126000000D01*
X109197824Y-126000000D01*
X109257370Y-125993598D01*
X109257380Y-125993596D01*
X109294904Y-125979601D01*
X109356033Y-125976981D01*
X109407027Y-126010792D01*
X109428409Y-126068120D01*
X109428500Y-126072359D01*
X109428500Y-126539835D01*
X109409593Y-126598026D01*
X109399504Y-126609839D01*
X108988839Y-127020504D01*
X108934322Y-127048281D01*
X108918835Y-127049500D01*
X107795725Y-127049500D01*
X107765305Y-127052353D01*
X107765296Y-127052355D01*
X107637116Y-127097207D01*
X107527855Y-127177845D01*
X107527845Y-127177855D01*
X107447207Y-127287116D01*
X107402355Y-127415296D01*
X107402353Y-127415305D01*
X107399500Y-127445725D01*
X107399500Y-129554274D01*
X107402353Y-129584694D01*
X107402355Y-129584703D01*
X107447207Y-129712883D01*
X107527845Y-129822144D01*
X107527847Y-129822146D01*
X107527850Y-129822150D01*
X107527853Y-129822152D01*
X107527855Y-129822154D01*
X107637116Y-129902792D01*
X107637117Y-129902792D01*
X107637118Y-129902793D01*
X107667354Y-129913373D01*
X107733198Y-129936413D01*
X107781878Y-129973478D01*
X107799500Y-130029857D01*
X107799500Y-131150500D01*
X107780593Y-131208691D01*
X107731093Y-131244655D01*
X107700500Y-131249500D01*
X107145732Y-131249500D01*
X107115303Y-131252353D01*
X106987113Y-131297208D01*
X106877854Y-131377845D01*
X106877845Y-131377854D01*
X106797207Y-131487115D01*
X106752355Y-131615295D01*
X106752353Y-131615304D01*
X106749500Y-131645724D01*
X106749500Y-134354267D01*
X106752353Y-134384696D01*
X106752353Y-134384698D01*
X106752354Y-134384700D01*
X106792243Y-134498697D01*
X106797208Y-134512886D01*
X106877845Y-134622145D01*
X106877854Y-134622154D01*
X106987115Y-134702792D01*
X106987116Y-134702792D01*
X106987117Y-134702793D01*
X107115300Y-134747646D01*
X107145733Y-134750500D01*
X109854266Y-134750499D01*
X109854267Y-134750499D01*
X109860352Y-134749928D01*
X109884700Y-134747646D01*
X110012883Y-134702793D01*
X110012886Y-134702791D01*
X110122145Y-134622154D01*
X110122146Y-134622152D01*
X110122150Y-134622150D01*
X110202793Y-134512883D01*
X110247646Y-134384700D01*
X110250500Y-134354267D01*
X110250500Y-133000002D01*
X112694953Y-133000002D01*
X112715113Y-133269022D01*
X112715115Y-133269032D01*
X112775146Y-133532049D01*
X112873706Y-133783174D01*
X112873715Y-133783193D01*
X113008600Y-134016820D01*
X113125038Y-134162827D01*
X113658324Y-133629540D01*
X113753945Y-133746055D01*
X113870456Y-133841674D01*
X113336351Y-134375780D01*
X113374569Y-134411240D01*
X113597484Y-134563220D01*
X113840541Y-134680270D01*
X114098334Y-134759789D01*
X114098344Y-134759791D01*
X114365105Y-134799999D01*
X114365114Y-134800000D01*
X114634886Y-134800000D01*
X114634894Y-134799999D01*
X114901655Y-134759791D01*
X114901665Y-134759789D01*
X115159458Y-134680270D01*
X115402516Y-134563220D01*
X115625434Y-134411237D01*
X115663647Y-134375780D01*
X115129542Y-133841675D01*
X115246055Y-133746055D01*
X115341675Y-133629542D01*
X115874960Y-134162827D01*
X115991399Y-134016820D01*
X116126284Y-133783193D01*
X116126293Y-133783174D01*
X116224853Y-133532049D01*
X116259286Y-133381185D01*
X131499500Y-133381185D01*
X131538603Y-133640609D01*
X131538605Y-133640619D01*
X131615937Y-133891325D01*
X131729768Y-134127696D01*
X131729772Y-134127704D01*
X131877567Y-134344479D01*
X131877570Y-134344482D01*
X131877572Y-134344485D01*
X132056017Y-134536803D01*
X132056029Y-134536814D01*
X132233793Y-134678575D01*
X132261143Y-134700386D01*
X132261147Y-134700388D01*
X132261148Y-134700389D01*
X132488344Y-134831561D01*
X132488348Y-134831563D01*
X132488357Y-134831568D01*
X132582072Y-134868348D01*
X132732580Y-134927419D01*
X132732583Y-134927419D01*
X132732584Y-134927420D01*
X132988370Y-134985802D01*
X133053748Y-134990701D01*
X133184498Y-135000500D01*
X133184506Y-135000500D01*
X133315502Y-135000500D01*
X133436193Y-134991455D01*
X133511630Y-134985802D01*
X133767416Y-134927420D01*
X134011643Y-134831568D01*
X134238857Y-134700386D01*
X134443981Y-134536805D01*
X134622433Y-134344479D01*
X134770228Y-134127704D01*
X134884063Y-133891323D01*
X134961396Y-133640615D01*
X135000500Y-133381182D01*
X135000500Y-133118818D01*
X134961396Y-132859385D01*
X134884063Y-132608677D01*
X134770228Y-132372296D01*
X134622433Y-132155521D01*
X134592009Y-132122732D01*
X134443982Y-131963196D01*
X134443970Y-131963185D01*
X134238865Y-131799620D01*
X134238851Y-131799610D01*
X134011655Y-131668438D01*
X134011646Y-131668433D01*
X134011643Y-131668432D01*
X134011639Y-131668430D01*
X134011636Y-131668429D01*
X133767419Y-131572580D01*
X133511631Y-131514198D01*
X133511625Y-131514197D01*
X133315502Y-131499500D01*
X133315494Y-131499500D01*
X133184506Y-131499500D01*
X133184498Y-131499500D01*
X132988374Y-131514197D01*
X132988368Y-131514198D01*
X132732580Y-131572580D01*
X132488363Y-131668429D01*
X132488344Y-131668438D01*
X132261148Y-131799610D01*
X132261134Y-131799620D01*
X132056029Y-131963185D01*
X132056017Y-131963196D01*
X131877572Y-132155514D01*
X131877567Y-132155520D01*
X131877567Y-132155521D01*
X131729772Y-132372296D01*
X131729770Y-132372299D01*
X131729768Y-132372303D01*
X131615937Y-132608674D01*
X131538605Y-132859380D01*
X131538603Y-132859390D01*
X131499500Y-133118814D01*
X131499500Y-133381185D01*
X116259286Y-133381185D01*
X116284884Y-133269032D01*
X116284886Y-133269022D01*
X116305047Y-133000002D01*
X116305047Y-132999997D01*
X116284886Y-132730977D01*
X116284884Y-132730967D01*
X116224853Y-132467950D01*
X116126293Y-132216825D01*
X116126284Y-132216806D01*
X115991399Y-131983179D01*
X115874960Y-131837171D01*
X115341674Y-132370456D01*
X115246055Y-132253945D01*
X115129540Y-132158324D01*
X115663647Y-131624218D01*
X115625430Y-131588759D01*
X115402516Y-131436779D01*
X115159458Y-131319729D01*
X114901665Y-131240210D01*
X114901655Y-131240208D01*
X114634894Y-131200000D01*
X114365105Y-131200000D01*
X114098344Y-131240208D01*
X114098334Y-131240210D01*
X113840541Y-131319729D01*
X113597484Y-131436779D01*
X113374569Y-131588759D01*
X113336351Y-131624218D01*
X113870457Y-132158324D01*
X113753945Y-132253945D01*
X113658324Y-132370457D01*
X113125038Y-131837171D01*
X113008606Y-131983172D01*
X113008596Y-131983187D01*
X112873715Y-132216806D01*
X112873706Y-132216825D01*
X112775146Y-132467950D01*
X112715115Y-132730967D01*
X112715113Y-132730977D01*
X112694953Y-132999997D01*
X112694953Y-133000002D01*
X110250500Y-133000002D01*
X110250499Y-131645734D01*
X110247646Y-131615300D01*
X110202793Y-131487117D01*
X110202791Y-131487115D01*
X110202791Y-131487113D01*
X110122154Y-131377854D01*
X110122145Y-131377845D01*
X110012884Y-131297207D01*
X109884704Y-131252355D01*
X109884695Y-131252353D01*
X109854275Y-131249500D01*
X109854267Y-131249500D01*
X109299500Y-131249500D01*
X109241309Y-131230593D01*
X109205345Y-131181093D01*
X109200500Y-131150500D01*
X109200500Y-130029857D01*
X109219407Y-129971666D01*
X109266802Y-129936413D01*
X109295911Y-129926226D01*
X109362882Y-129902793D01*
X109472150Y-129822150D01*
X109552793Y-129712882D01*
X109578295Y-129640002D01*
X112126353Y-129640002D01*
X112146834Y-129782456D01*
X112164962Y-129822150D01*
X112206623Y-129913373D01*
X112257134Y-129971666D01*
X112300873Y-130022144D01*
X112312875Y-130029857D01*
X112421947Y-130099953D01*
X112528403Y-130131211D01*
X112560035Y-130140499D01*
X112560036Y-130140499D01*
X112560039Y-130140500D01*
X112560041Y-130140500D01*
X112703959Y-130140500D01*
X112703961Y-130140500D01*
X112842053Y-130099953D01*
X112963128Y-130022143D01*
X113057377Y-129913373D01*
X113117165Y-129782457D01*
X113137647Y-129640002D01*
X114761353Y-129640002D01*
X114781834Y-129782456D01*
X114799962Y-129822150D01*
X114841623Y-129913373D01*
X114892134Y-129971666D01*
X114935873Y-130022144D01*
X114947875Y-130029857D01*
X115056947Y-130099953D01*
X115163403Y-130131211D01*
X115195035Y-130140499D01*
X115195036Y-130140499D01*
X115195039Y-130140500D01*
X115195041Y-130140500D01*
X115338959Y-130140500D01*
X115338961Y-130140500D01*
X115477053Y-130099953D01*
X115598128Y-130022143D01*
X115692377Y-129913373D01*
X115752165Y-129782457D01*
X115772647Y-129640000D01*
X115769843Y-129620500D01*
X115752165Y-129497543D01*
X115744336Y-129480401D01*
X115692377Y-129366627D01*
X115598128Y-129257857D01*
X115598127Y-129257856D01*
X115598126Y-129257855D01*
X115477057Y-129180049D01*
X115477054Y-129180047D01*
X115477053Y-129180047D01*
X115477050Y-129180046D01*
X115338964Y-129139500D01*
X115338961Y-129139500D01*
X115195039Y-129139500D01*
X115195035Y-129139500D01*
X115056949Y-129180046D01*
X115056942Y-129180049D01*
X114935873Y-129257855D01*
X114841622Y-129366628D01*
X114781834Y-129497543D01*
X114761353Y-129639997D01*
X114761353Y-129640002D01*
X113137647Y-129640002D01*
X113137647Y-129640000D01*
X113134843Y-129620500D01*
X113117165Y-129497543D01*
X113109336Y-129480401D01*
X113057377Y-129366627D01*
X112963128Y-129257857D01*
X112963127Y-129257856D01*
X112963126Y-129257855D01*
X112842057Y-129180049D01*
X112842054Y-129180047D01*
X112842053Y-129180047D01*
X112842050Y-129180046D01*
X112703964Y-129139500D01*
X112703961Y-129139500D01*
X112560039Y-129139500D01*
X112560035Y-129139500D01*
X112421949Y-129180046D01*
X112421942Y-129180049D01*
X112300873Y-129257855D01*
X112206622Y-129366628D01*
X112146834Y-129497543D01*
X112126353Y-129639997D01*
X112126353Y-129640002D01*
X109578295Y-129640002D01*
X109597646Y-129584699D01*
X109600499Y-129554273D01*
X109600500Y-129554273D01*
X109600500Y-128431164D01*
X109619407Y-128372973D01*
X109629490Y-128361166D01*
X110607277Y-127383378D01*
X110611598Y-127379312D01*
X110657183Y-127338929D01*
X110691778Y-127288807D01*
X110695321Y-127283995D01*
X110732876Y-127236060D01*
X110732876Y-127236058D01*
X110732878Y-127236057D01*
X110737966Y-127224749D01*
X110746773Y-127209136D01*
X110753815Y-127198934D01*
X110753814Y-127198934D01*
X110753818Y-127198930D01*
X110775428Y-127141944D01*
X110777684Y-127136499D01*
X110802695Y-127080931D01*
X110804931Y-127068723D01*
X110809745Y-127051459D01*
X110810488Y-127049500D01*
X110814140Y-127039872D01*
X110821478Y-126979427D01*
X110822378Y-126973518D01*
X110823793Y-126965801D01*
X110833358Y-126913606D01*
X110832112Y-126893002D01*
X110829681Y-126852822D01*
X110829500Y-126846844D01*
X110829500Y-120034002D01*
X111497103Y-120034002D01*
X111501543Y-120056330D01*
X111501551Y-120056362D01*
X111502500Y-120061132D01*
X111502500Y-120061133D01*
X111518485Y-120141495D01*
X111518486Y-120141496D01*
X111518486Y-120141498D01*
X111571755Y-120221219D01*
X111579376Y-120232624D01*
X111594267Y-120242574D01*
X111609269Y-120254885D01*
X116807024Y-125452640D01*
X116834801Y-125507157D01*
X116825230Y-125567589D01*
X116790547Y-125605926D01*
X116768873Y-125619856D01*
X116768872Y-125619856D01*
X116768872Y-125619857D01*
X116740852Y-125652194D01*
X116674622Y-125728628D01*
X116614834Y-125859543D01*
X116594353Y-126001997D01*
X116594353Y-126002002D01*
X116614834Y-126144456D01*
X116632046Y-126182144D01*
X116674623Y-126275373D01*
X116711785Y-126318260D01*
X116768873Y-126384144D01*
X116844968Y-126433047D01*
X116889947Y-126461953D01*
X116985566Y-126490029D01*
X117028035Y-126502499D01*
X117028036Y-126502499D01*
X117028039Y-126502500D01*
X117028041Y-126502500D01*
X117171959Y-126502500D01*
X117171961Y-126502500D01*
X117310053Y-126461953D01*
X117431128Y-126384143D01*
X117525377Y-126275373D01*
X117585165Y-126144457D01*
X117595531Y-126072359D01*
X117605647Y-126002002D01*
X117605647Y-126001997D01*
X117585165Y-125859543D01*
X117585165Y-125859541D01*
X117534968Y-125749626D01*
X117527993Y-125688840D01*
X117558079Y-125635563D01*
X117613735Y-125610145D01*
X117625021Y-125609500D01*
X118039254Y-125609500D01*
X118097445Y-125628407D01*
X118114071Y-125643666D01*
X118162345Y-125699378D01*
X118176873Y-125716144D01*
X118292585Y-125790507D01*
X118297947Y-125793953D01*
X118404403Y-125825211D01*
X118436035Y-125834499D01*
X118436036Y-125834499D01*
X118436039Y-125834500D01*
X118436041Y-125834500D01*
X118579959Y-125834500D01*
X118579961Y-125834500D01*
X118718053Y-125793953D01*
X118839128Y-125716143D01*
X118839130Y-125716140D01*
X118841829Y-125714406D01*
X118901004Y-125698851D01*
X118958021Y-125721050D01*
X118991100Y-125772522D01*
X118994353Y-125797690D01*
X118994353Y-125800002D01*
X119014834Y-125942456D01*
X119046043Y-126010792D01*
X119074623Y-126073373D01*
X119136217Y-126144457D01*
X119168873Y-126182144D01*
X119199404Y-126201765D01*
X119289947Y-126259953D01*
X119364066Y-126281716D01*
X119428035Y-126300499D01*
X119428036Y-126300499D01*
X119428039Y-126300500D01*
X119428041Y-126300500D01*
X119571959Y-126300500D01*
X119571961Y-126300500D01*
X119710053Y-126259953D01*
X119831128Y-126182143D01*
X119925377Y-126073373D01*
X119985165Y-125942457D01*
X120005647Y-125800000D01*
X120004777Y-125793952D01*
X119997321Y-125742090D01*
X119993334Y-125714361D01*
X120003767Y-125654073D01*
X120047645Y-125611431D01*
X120063431Y-125605284D01*
X120119053Y-125588953D01*
X120187110Y-125545215D01*
X120240632Y-125529500D01*
X120454432Y-125529500D01*
X120454433Y-125529500D01*
X120477382Y-125522043D01*
X120492465Y-125518421D01*
X120516304Y-125514646D01*
X120537802Y-125503690D01*
X120552151Y-125497748D01*
X120575090Y-125490296D01*
X120594612Y-125476111D01*
X120607849Y-125468000D01*
X120629342Y-125457050D01*
X120646263Y-125440127D01*
X120646268Y-125440124D01*
X120651907Y-125434485D01*
X120651909Y-125434484D01*
X120746896Y-125339495D01*
X120801413Y-125311718D01*
X120816900Y-125310499D01*
X120899897Y-125310499D01*
X120899900Y-125310499D01*
X120949487Y-125303972D01*
X120949488Y-125303972D01*
X121031990Y-125265500D01*
X121058316Y-125253224D01*
X121094997Y-125216542D01*
X121149512Y-125188767D01*
X121209944Y-125198338D01*
X121235003Y-125216544D01*
X121307909Y-125289450D01*
X121307911Y-125289451D01*
X121417977Y-125345533D01*
X121417979Y-125345534D01*
X121509305Y-125359999D01*
X121530000Y-125359998D01*
X121530000Y-124239999D01*
X121508951Y-124218952D01*
X121481171Y-124164436D01*
X121490741Y-124104004D01*
X121534002Y-124060739D01*
X121555751Y-124049658D01*
X121649658Y-123955751D01*
X121709951Y-123837420D01*
X121725500Y-123739246D01*
X121725500Y-123160754D01*
X121725064Y-123158002D01*
X121718368Y-123115723D01*
X121709951Y-123062580D01*
X121649658Y-122944249D01*
X121555751Y-122850342D01*
X121551631Y-122848243D01*
X121437423Y-122790050D01*
X121437420Y-122790049D01*
X121412876Y-122786161D01*
X121339249Y-122774500D01*
X121339246Y-122774500D01*
X120993569Y-122774500D01*
X120935378Y-122755593D01*
X120899414Y-122706093D01*
X120899414Y-122644907D01*
X120923586Y-122605476D01*
X121029625Y-122499500D01*
X121427485Y-122101875D01*
X121427682Y-122101710D01*
X121454799Y-122074593D01*
X121476855Y-122052536D01*
X121500406Y-122029000D01*
X121500407Y-122028997D01*
X121503216Y-122026191D01*
X121503396Y-122025994D01*
X121523050Y-122006342D01*
X121533971Y-121984906D01*
X121542096Y-121971653D01*
X121556241Y-121952197D01*
X121563726Y-121929179D01*
X121569654Y-121914874D01*
X121580646Y-121893304D01*
X121584408Y-121869545D01*
X121588045Y-121854408D01*
X121595480Y-121831552D01*
X121595487Y-121803771D01*
X121595500Y-121803502D01*
X121595500Y-121764781D01*
X121595503Y-121753223D01*
X121595518Y-121704686D01*
X121595516Y-121704682D01*
X121595519Y-121697123D01*
X121595500Y-121696867D01*
X121595500Y-120735008D01*
X121614407Y-120676817D01*
X121619684Y-120670173D01*
X121619807Y-120670029D01*
X121620377Y-120669373D01*
X121680165Y-120538457D01*
X121696942Y-120421769D01*
X121700647Y-120396002D01*
X121700647Y-120395997D01*
X121680165Y-120253543D01*
X121671462Y-120234486D01*
X121620377Y-120122627D01*
X121526128Y-120013857D01*
X121526127Y-120013856D01*
X121526126Y-120013855D01*
X121405057Y-119936049D01*
X121405054Y-119936047D01*
X121405053Y-119936047D01*
X121405050Y-119936046D01*
X121266964Y-119895500D01*
X121266961Y-119895500D01*
X121123039Y-119895500D01*
X121123035Y-119895500D01*
X120984949Y-119936046D01*
X120984942Y-119936049D01*
X120863873Y-120013855D01*
X120769622Y-120122628D01*
X120709834Y-120253543D01*
X120689353Y-120395997D01*
X120689353Y-120396002D01*
X120709834Y-120538456D01*
X120769623Y-120669373D01*
X120770316Y-120670173D01*
X120770660Y-120670989D01*
X120773453Y-120675334D01*
X120772701Y-120675816D01*
X120794136Y-120726531D01*
X120794500Y-120735008D01*
X120794500Y-121561012D01*
X120775593Y-121619203D01*
X120765483Y-121631036D01*
X119650334Y-122745524D01*
X119595809Y-122773286D01*
X119580351Y-122774500D01*
X119260751Y-122774500D01*
X119162580Y-122790049D01*
X119162576Y-122790050D01*
X119044250Y-122850341D01*
X118950341Y-122944250D01*
X118890050Y-123062576D01*
X118890049Y-123062580D01*
X118874500Y-123160751D01*
X118874500Y-123289520D01*
X118855593Y-123347711D01*
X118806093Y-123383675D01*
X118744907Y-123383675D01*
X118705496Y-123359524D01*
X117279496Y-121933524D01*
X117251719Y-121879007D01*
X117250500Y-121863520D01*
X117250500Y-121847917D01*
X117269407Y-121789726D01*
X117307659Y-121758193D01*
X117318316Y-121753224D01*
X117403224Y-121668316D01*
X117453972Y-121559487D01*
X117460500Y-121509901D01*
X117460499Y-121150100D01*
X117457070Y-121124047D01*
X117453258Y-121095084D01*
X117464410Y-121034924D01*
X117508793Y-120992808D01*
X117569455Y-120984823D01*
X117604932Y-120998880D01*
X117643947Y-121023953D01*
X117744535Y-121053488D01*
X117782035Y-121064499D01*
X117782036Y-121064499D01*
X117782039Y-121064500D01*
X117782041Y-121064500D01*
X117925959Y-121064500D01*
X117925961Y-121064500D01*
X118064053Y-121023953D01*
X118169461Y-120956211D01*
X118228635Y-120940657D01*
X118285651Y-120962856D01*
X118294077Y-120972135D01*
X118294483Y-120971730D01*
X118301373Y-120978620D01*
X118301376Y-120978624D01*
X118310654Y-120984823D01*
X118316266Y-120988573D01*
X118331269Y-121000885D01*
X118510504Y-121180120D01*
X118538281Y-121234637D01*
X118539500Y-121250124D01*
X118539500Y-121509895D01*
X118539501Y-121509907D01*
X118546027Y-121559486D01*
X118546027Y-121559488D01*
X118596774Y-121668313D01*
X118596775Y-121668314D01*
X118596776Y-121668316D01*
X118681684Y-121753224D01*
X118790513Y-121803972D01*
X118840099Y-121810500D01*
X119259900Y-121810499D01*
X119309487Y-121803972D01*
X119309488Y-121803972D01*
X119398166Y-121762620D01*
X119418316Y-121753224D01*
X119503224Y-121668316D01*
X119553972Y-121559487D01*
X119560500Y-121509901D01*
X119560499Y-121388447D01*
X119579406Y-121330259D01*
X119628906Y-121294295D01*
X119690091Y-121294294D01*
X119734318Y-121323618D01*
X119751949Y-121343966D01*
X119751951Y-121343967D01*
X119860931Y-121414004D01*
X119985228Y-121450500D01*
X119985230Y-121450500D01*
X120114770Y-121450500D01*
X120114772Y-121450500D01*
X120239069Y-121414004D01*
X120348049Y-121343967D01*
X120432882Y-121246063D01*
X120486697Y-121128226D01*
X120496427Y-121060550D01*
X120505133Y-121000002D01*
X120505133Y-120999997D01*
X120486697Y-120871774D01*
X120461474Y-120816544D01*
X120432882Y-120753937D01*
X120391741Y-120706457D01*
X120349680Y-120657914D01*
X120325863Y-120601555D01*
X120325500Y-120593084D01*
X120325500Y-119371167D01*
X120344407Y-119312976D01*
X120393907Y-119277012D01*
X120452389Y-119276177D01*
X120535228Y-119300500D01*
X120535230Y-119300500D01*
X120664770Y-119300500D01*
X120664772Y-119300500D01*
X120789069Y-119264004D01*
X120898049Y-119193967D01*
X120982882Y-119096063D01*
X121036697Y-118978226D01*
X121055133Y-118850000D01*
X121051158Y-118822355D01*
X121036697Y-118721774D01*
X121016807Y-118678221D01*
X120982882Y-118603937D01*
X120927333Y-118539829D01*
X120903517Y-118483471D01*
X120917376Y-118423876D01*
X120927330Y-118410173D01*
X120982882Y-118346063D01*
X121036697Y-118228226D01*
X121049841Y-118136805D01*
X121055133Y-118100002D01*
X121055133Y-118099997D01*
X121036697Y-117971774D01*
X121016809Y-117928226D01*
X120982882Y-117853937D01*
X120974083Y-117843783D01*
X120899680Y-117757914D01*
X120875863Y-117701555D01*
X120875500Y-117693084D01*
X120875500Y-117456915D01*
X120894407Y-117398724D01*
X120899673Y-117392092D01*
X120982882Y-117296063D01*
X121036697Y-117178226D01*
X121049806Y-117087049D01*
X121055133Y-117050002D01*
X121055133Y-117049997D01*
X121036697Y-116921774D01*
X121033675Y-116915157D01*
X120982882Y-116803937D01*
X120898049Y-116706033D01*
X120898048Y-116706032D01*
X120898047Y-116706031D01*
X120789073Y-116635998D01*
X120789070Y-116635996D01*
X120789069Y-116635996D01*
X120776587Y-116632331D01*
X120664774Y-116599500D01*
X120664772Y-116599500D01*
X120535228Y-116599500D01*
X120535225Y-116599500D01*
X120410933Y-116635995D01*
X120410926Y-116635998D01*
X120301951Y-116706032D01*
X120275811Y-116736200D01*
X120223415Y-116767795D01*
X120162454Y-116762559D01*
X120130988Y-116741372D01*
X119820885Y-116431269D01*
X119808573Y-116416266D01*
X119802535Y-116407229D01*
X119798624Y-116401376D01*
X119797862Y-116400867D01*
X119779670Y-116388711D01*
X119779666Y-116388708D01*
X119742509Y-116363881D01*
X119742508Y-116363880D01*
X119707496Y-116340485D01*
X119707492Y-116340484D01*
X119690968Y-116337197D01*
X119655283Y-116322416D01*
X119629966Y-116305500D01*
X119629965Y-116305499D01*
X119611766Y-116293339D01*
X119607495Y-116290485D01*
X119527133Y-116274500D01*
X119522362Y-116273551D01*
X119522330Y-116273543D01*
X119500002Y-116269103D01*
X119499727Y-116269103D01*
X119499292Y-116268961D01*
X119490439Y-116267201D01*
X119490647Y-116266152D01*
X119441536Y-116250196D01*
X119429723Y-116240107D01*
X119420885Y-116231269D01*
X119408573Y-116216266D01*
X119405433Y-116211566D01*
X119398624Y-116201376D01*
X119375623Y-116186007D01*
X119375622Y-116186006D01*
X119349400Y-116168485D01*
X119307495Y-116140485D01*
X119307494Y-116140484D01*
X119307493Y-116140484D01*
X119290968Y-116137197D01*
X119255284Y-116122416D01*
X119223796Y-116101377D01*
X119207496Y-116090485D01*
X119122362Y-116073551D01*
X119122330Y-116073543D01*
X119100002Y-116069103D01*
X119100001Y-116069103D01*
X119100000Y-116069103D01*
X119082430Y-116072598D01*
X119063116Y-116074500D01*
X118988433Y-116074500D01*
X118933433Y-116057816D01*
X118923796Y-116051377D01*
X118907495Y-116040485D01*
X118907492Y-116040484D01*
X118890968Y-116037197D01*
X118855283Y-116022416D01*
X118835933Y-116009487D01*
X118835932Y-116009486D01*
X118807497Y-115990486D01*
X118807496Y-115990485D01*
X118807495Y-115990485D01*
X118727133Y-115974500D01*
X118722362Y-115973551D01*
X118722330Y-115973543D01*
X118700002Y-115969103D01*
X118700001Y-115969103D01*
X118700000Y-115969103D01*
X118682430Y-115972598D01*
X118663116Y-115974500D01*
X117836884Y-115974500D01*
X117817571Y-115972598D01*
X117800000Y-115969103D01*
X117799997Y-115969103D01*
X117777656Y-115973546D01*
X117777638Y-115973551D01*
X117772867Y-115974500D01*
X117692505Y-115990485D01*
X117692503Y-115990485D01*
X117692503Y-115990486D01*
X117664068Y-116009486D01*
X117664065Y-116009488D01*
X117644712Y-116022418D01*
X117609031Y-116037197D01*
X117592506Y-116040484D01*
X117592502Y-116040486D01*
X117579502Y-116049173D01*
X117520614Y-116065782D01*
X117463210Y-116044605D01*
X117429217Y-115993731D01*
X117425500Y-115966858D01*
X117425500Y-115388432D01*
X117442191Y-115333421D01*
X117443878Y-115330897D01*
X117459515Y-115307495D01*
X117475500Y-115227133D01*
X117475500Y-115227132D01*
X117476963Y-115219773D01*
X117491744Y-115184090D01*
X117508843Y-115158500D01*
X117509515Y-115157495D01*
X117525500Y-115077133D01*
X117525500Y-115077132D01*
X117530897Y-115050000D01*
X117527402Y-115032427D01*
X117525500Y-115013115D01*
X117525500Y-114686883D01*
X117527402Y-114667569D01*
X117530897Y-114650000D01*
X117519147Y-114590929D01*
X117509515Y-114542505D01*
X117477583Y-114494717D01*
X117462801Y-114459030D01*
X117459515Y-114442505D01*
X117452911Y-114432622D01*
X117413994Y-114374378D01*
X117411296Y-114370340D01*
X117411287Y-114370328D01*
X117398625Y-114351378D01*
X117398624Y-114351376D01*
X117383733Y-114341426D01*
X117368731Y-114329115D01*
X117170885Y-114131269D01*
X117158573Y-114116266D01*
X117148625Y-114101378D01*
X117148624Y-114101376D01*
X117148620Y-114101373D01*
X117148619Y-114101372D01*
X117129756Y-114088768D01*
X117129666Y-114088708D01*
X117099466Y-114068529D01*
X117086092Y-114059593D01*
X117057495Y-114040485D01*
X117057494Y-114040484D01*
X117057495Y-114040484D01*
X116972363Y-114023551D01*
X116972339Y-114023545D01*
X116950002Y-114019103D01*
X116950001Y-114019103D01*
X116950000Y-114019103D01*
X116935200Y-114022047D01*
X116932430Y-114022598D01*
X116913116Y-114024500D01*
X114125958Y-114024500D01*
X114070956Y-114007815D01*
X114055495Y-113997484D01*
X114055492Y-113997483D01*
X113948000Y-113976103D01*
X113840506Y-113997483D01*
X113772379Y-114043005D01*
X113703670Y-114111713D01*
X113688674Y-114124020D01*
X113673779Y-114133973D01*
X113673772Y-114133980D01*
X113663794Y-114148912D01*
X113651503Y-114163891D01*
X111609248Y-116207122D01*
X111594232Y-116219449D01*
X111579378Y-116229374D01*
X111579373Y-116229379D01*
X111566432Y-116248745D01*
X111566336Y-116248876D01*
X111548446Y-116275665D01*
X111548434Y-116275683D01*
X111518478Y-116320514D01*
X111518460Y-116320557D01*
X111507773Y-116374355D01*
X111507770Y-116374372D01*
X111507769Y-116374378D01*
X111507282Y-116376825D01*
X111501572Y-116405531D01*
X111501547Y-116405694D01*
X111497577Y-116425684D01*
X111497103Y-116428068D01*
X111500593Y-116445590D01*
X111502500Y-116464928D01*
X111502500Y-119997115D01*
X111500598Y-120016427D01*
X111497103Y-120033999D01*
X111497103Y-120034002D01*
X110829500Y-120034002D01*
X110829500Y-118429154D01*
X110829681Y-118423175D01*
X110833358Y-118362394D01*
X110830247Y-118345420D01*
X110822375Y-118302465D01*
X110821478Y-118296567D01*
X110820929Y-118292049D01*
X110814140Y-118236128D01*
X110809741Y-118224529D01*
X110804931Y-118207274D01*
X110802695Y-118195069D01*
X110777690Y-118139512D01*
X110775415Y-118134018D01*
X110753818Y-118077070D01*
X110746768Y-118066856D01*
X110737965Y-118051247D01*
X110736827Y-118048719D01*
X110732878Y-118039944D01*
X110732876Y-118039942D01*
X110732876Y-118039940D01*
X110695324Y-117992009D01*
X110691780Y-117987193D01*
X110681137Y-117971774D01*
X110657183Y-117937071D01*
X110657179Y-117937067D01*
X110657176Y-117937064D01*
X110611609Y-117896695D01*
X110607254Y-117892597D01*
X109261401Y-116546744D01*
X109257302Y-116542389D01*
X109216930Y-116496818D01*
X109216925Y-116496814D01*
X109166806Y-116462218D01*
X109161992Y-116458676D01*
X109114055Y-116421120D01*
X109102743Y-116416029D01*
X109087141Y-116407229D01*
X109076933Y-116400183D01*
X109068909Y-116397140D01*
X109019974Y-116378581D01*
X109014481Y-116376305D01*
X108985422Y-116363227D01*
X108958933Y-116351305D01*
X108958926Y-116351303D01*
X108946723Y-116349067D01*
X108929461Y-116344255D01*
X108917875Y-116339861D01*
X108917873Y-116339860D01*
X108857437Y-116332521D01*
X108851529Y-116331622D01*
X108791602Y-116320641D01*
X108733549Y-116324154D01*
X108730822Y-116324319D01*
X108724845Y-116324500D01*
X106782440Y-116324500D01*
X106724249Y-116305593D01*
X106723652Y-116305155D01*
X106712883Y-116297207D01*
X106584703Y-116252355D01*
X106584694Y-116252353D01*
X106554274Y-116249500D01*
X106554266Y-116249500D01*
X106106165Y-116249500D01*
X106047974Y-116230593D01*
X106036161Y-116220504D01*
X104976496Y-115160839D01*
X104948719Y-115106322D01*
X104947500Y-115090835D01*
X104947500Y-114982056D01*
X104966407Y-114923865D01*
X105015907Y-114887901D01*
X105077093Y-114887901D01*
X105081098Y-114889298D01*
X105092625Y-114893597D01*
X105092629Y-114893598D01*
X105152176Y-114900000D01*
X105699999Y-114900000D01*
X105700000Y-114899999D01*
X106000000Y-114899999D01*
X106000001Y-114900000D01*
X106547824Y-114900000D01*
X106607370Y-114893598D01*
X106607381Y-114893596D01*
X106742088Y-114843353D01*
X106742090Y-114843352D01*
X106857184Y-114757192D01*
X106857192Y-114757184D01*
X106943352Y-114642090D01*
X106943353Y-114642088D01*
X106993596Y-114507381D01*
X106993598Y-114507370D01*
X107000000Y-114447824D01*
X107000000Y-114225001D01*
X106999999Y-114225000D01*
X106000001Y-114225000D01*
X106000000Y-114225001D01*
X106000000Y-114899999D01*
X105700000Y-114899999D01*
X105700000Y-114225001D01*
X105699999Y-114225000D01*
X104700001Y-114225000D01*
X104691273Y-114233727D01*
X104681093Y-114265060D01*
X104631593Y-114301024D01*
X104570407Y-114301024D01*
X104554992Y-114294529D01*
X104498844Y-114265060D01*
X104497225Y-114264210D01*
X104497224Y-114264209D01*
X104497223Y-114264209D01*
X104332058Y-114223500D01*
X104332056Y-114223500D01*
X104161944Y-114223500D01*
X104161941Y-114223500D01*
X103996776Y-114264209D01*
X103846146Y-114343267D01*
X103718818Y-114456069D01*
X103718816Y-114456072D01*
X103622182Y-114596070D01*
X103561860Y-114755128D01*
X103546500Y-114881618D01*
X103546500Y-115397844D01*
X103546319Y-115403823D01*
X103542641Y-115464604D01*
X100500000Y-115464604D01*
X100500000Y-113924999D01*
X104700000Y-113924999D01*
X104700001Y-113925000D01*
X106999999Y-113925000D01*
X107000000Y-113924999D01*
X107000000Y-113702175D01*
X106993598Y-113642629D01*
X106993596Y-113642618D01*
X106943353Y-113507911D01*
X106943352Y-113507909D01*
X106857192Y-113392815D01*
X106857184Y-113392807D01*
X106742090Y-113306647D01*
X106742088Y-113306646D01*
X106712708Y-113295688D01*
X106664793Y-113257638D01*
X106648395Y-113198691D01*
X106657251Y-113161803D01*
X106702165Y-113063457D01*
X106708413Y-113020002D01*
X115597353Y-113020002D01*
X115617834Y-113162456D01*
X115677622Y-113293371D01*
X115677623Y-113293373D01*
X115763789Y-113392815D01*
X115771873Y-113402144D01*
X115892942Y-113479950D01*
X115892947Y-113479953D01*
X115999403Y-113511211D01*
X116031035Y-113520499D01*
X116031036Y-113520499D01*
X116031039Y-113520500D01*
X116031041Y-113520500D01*
X116174959Y-113520500D01*
X116174961Y-113520500D01*
X116313053Y-113479953D01*
X116434128Y-113402143D01*
X116528377Y-113293373D01*
X116588165Y-113162457D01*
X116603705Y-113054371D01*
X116608647Y-113020002D01*
X116608647Y-113019997D01*
X116588165Y-112877543D01*
X116558764Y-112813164D01*
X116528377Y-112746627D01*
X116434128Y-112637857D01*
X116434127Y-112637856D01*
X116434126Y-112637855D01*
X116313057Y-112560049D01*
X116313054Y-112560047D01*
X116313053Y-112560047D01*
X116313050Y-112560046D01*
X116174964Y-112519500D01*
X116174961Y-112519500D01*
X116031039Y-112519500D01*
X116031035Y-112519500D01*
X115892949Y-112560046D01*
X115892942Y-112560049D01*
X115771873Y-112637855D01*
X115677622Y-112746628D01*
X115617834Y-112877543D01*
X115597353Y-113019997D01*
X115597353Y-113020002D01*
X106708413Y-113020002D01*
X106712223Y-112993499D01*
X106722647Y-112921002D01*
X106722647Y-112920997D01*
X106702165Y-112778543D01*
X106687589Y-112746627D01*
X106642377Y-112647627D01*
X106548128Y-112538857D01*
X106548127Y-112538856D01*
X106548126Y-112538855D01*
X106427057Y-112461049D01*
X106427054Y-112461047D01*
X106427053Y-112461047D01*
X106427050Y-112461046D01*
X106288964Y-112420500D01*
X106288961Y-112420500D01*
X106145039Y-112420500D01*
X106145035Y-112420500D01*
X106006949Y-112461046D01*
X106006942Y-112461049D01*
X105885873Y-112538855D01*
X105791622Y-112647628D01*
X105731834Y-112778543D01*
X105711353Y-112920997D01*
X105711353Y-112921002D01*
X105731833Y-113063454D01*
X105753033Y-113109874D01*
X105760007Y-113170660D01*
X105729920Y-113223937D01*
X105674264Y-113249355D01*
X105662979Y-113250000D01*
X105152176Y-113250000D01*
X105092629Y-113256401D01*
X105092618Y-113256403D01*
X104957911Y-113306646D01*
X104957909Y-113306647D01*
X104842815Y-113392807D01*
X104842807Y-113392815D01*
X104756647Y-113507909D01*
X104756646Y-113507911D01*
X104706403Y-113642618D01*
X104706401Y-113642629D01*
X104700000Y-113702175D01*
X104700000Y-113924999D01*
X100500000Y-113924999D01*
X100500000Y-111895002D01*
X106814353Y-111895002D01*
X106834834Y-112037456D01*
X106876799Y-112129345D01*
X106894623Y-112168373D01*
X106966260Y-112251047D01*
X106988873Y-112277144D01*
X107103085Y-112350543D01*
X107109947Y-112354953D01*
X107216403Y-112386211D01*
X107248035Y-112395499D01*
X107248036Y-112395499D01*
X107248039Y-112395500D01*
X107248041Y-112395500D01*
X107391959Y-112395500D01*
X107391961Y-112395500D01*
X107530053Y-112354953D01*
X107651128Y-112277143D01*
X107745377Y-112168373D01*
X107805165Y-112037457D01*
X107811992Y-111989971D01*
X107825647Y-111895002D01*
X107825647Y-111894997D01*
X107805165Y-111752543D01*
X107755139Y-111643002D01*
X114610353Y-111643002D01*
X114630834Y-111785456D01*
X114646609Y-111819997D01*
X114690623Y-111916373D01*
X114784872Y-112025143D01*
X114784873Y-112025144D01*
X114891037Y-112093371D01*
X114905947Y-112102953D01*
X114973207Y-112122702D01*
X115044035Y-112143499D01*
X115044036Y-112143499D01*
X115044039Y-112143500D01*
X115044041Y-112143500D01*
X115187959Y-112143500D01*
X115187961Y-112143500D01*
X115326053Y-112102953D01*
X115447128Y-112025143D01*
X115541377Y-111916373D01*
X115601165Y-111785457D01*
X115610434Y-111720991D01*
X115621647Y-111643002D01*
X115621647Y-111642997D01*
X115601165Y-111500543D01*
X115571730Y-111436090D01*
X115541377Y-111369627D01*
X115447128Y-111260857D01*
X115447127Y-111260856D01*
X115447126Y-111260855D01*
X115326057Y-111183049D01*
X115326054Y-111183047D01*
X115326053Y-111183047D01*
X115326050Y-111183046D01*
X115187964Y-111142500D01*
X115187961Y-111142500D01*
X115044039Y-111142500D01*
X115044035Y-111142500D01*
X114905949Y-111183046D01*
X114905942Y-111183049D01*
X114784873Y-111260855D01*
X114690622Y-111369628D01*
X114630834Y-111500543D01*
X114610353Y-111642997D01*
X114610353Y-111643002D01*
X107755139Y-111643002D01*
X107745377Y-111621627D01*
X107651128Y-111512857D01*
X107651127Y-111512856D01*
X107651126Y-111512855D01*
X107530057Y-111435049D01*
X107530054Y-111435047D01*
X107530053Y-111435047D01*
X107530050Y-111435046D01*
X107391964Y-111394500D01*
X107391961Y-111394500D01*
X107248039Y-111394500D01*
X107248035Y-111394500D01*
X107109949Y-111435046D01*
X107109942Y-111435049D01*
X106988873Y-111512855D01*
X106894622Y-111621628D01*
X106834834Y-111752543D01*
X106814353Y-111894997D01*
X106814353Y-111895002D01*
X100500000Y-111895002D01*
X100500000Y-108298002D01*
X111376353Y-108298002D01*
X111396834Y-108440456D01*
X111436155Y-108526555D01*
X111456623Y-108571373D01*
X111550872Y-108680143D01*
X111550873Y-108680144D01*
X111671942Y-108757950D01*
X111671947Y-108757953D01*
X111778403Y-108789211D01*
X111810035Y-108798499D01*
X111810036Y-108798499D01*
X111810039Y-108798500D01*
X111810041Y-108798500D01*
X111953959Y-108798500D01*
X111953961Y-108798500D01*
X112092053Y-108757953D01*
X112213128Y-108680143D01*
X112307377Y-108571373D01*
X112367165Y-108440457D01*
X112387647Y-108298000D01*
X112379147Y-108238883D01*
X112367165Y-108155543D01*
X112348914Y-108115580D01*
X112307377Y-108024627D01*
X112213128Y-107915857D01*
X112213127Y-107915856D01*
X112213126Y-107915855D01*
X112092057Y-107838049D01*
X112092054Y-107838047D01*
X112092053Y-107838047D01*
X112074960Y-107833028D01*
X111953964Y-107797500D01*
X111953961Y-107797500D01*
X111810039Y-107797500D01*
X111810035Y-107797500D01*
X111671949Y-107838046D01*
X111671942Y-107838049D01*
X111550873Y-107915855D01*
X111456622Y-108024628D01*
X111396834Y-108155543D01*
X111376353Y-108297997D01*
X111376353Y-108298002D01*
X100500000Y-108298002D01*
X100500000Y-104715881D01*
X114098621Y-104715881D01*
X114102423Y-104743138D01*
X114102551Y-104744053D01*
X114103500Y-104757730D01*
X114103500Y-106460849D01*
X114101279Y-106474532D01*
X114102491Y-106474701D01*
X114101224Y-106483787D01*
X114103394Y-106530655D01*
X114103500Y-106535233D01*
X114103500Y-106553847D01*
X114103527Y-106553990D01*
X114105103Y-106567582D01*
X114106419Y-106596012D01*
X114110385Y-106604993D01*
X114117134Y-106626783D01*
X114118938Y-106636430D01*
X114118938Y-106636431D01*
X114118938Y-106636432D01*
X114118939Y-106636433D01*
X114133922Y-106660632D01*
X114140305Y-106672741D01*
X114151806Y-106698783D01*
X114151807Y-106698784D01*
X114158744Y-106705720D01*
X114172917Y-106723612D01*
X114178081Y-106731952D01*
X114178082Y-106731953D01*
X114178084Y-106731955D01*
X114200785Y-106749098D01*
X114211120Y-106758089D01*
X116002786Y-108549500D01*
X116285817Y-108832491D01*
X116313598Y-108887006D01*
X116304031Y-108947439D01*
X116260769Y-108990706D01*
X116215818Y-109001500D01*
X116204035Y-109001500D01*
X116065949Y-109042046D01*
X116065942Y-109042049D01*
X115944873Y-109119855D01*
X115850622Y-109228628D01*
X115790834Y-109359543D01*
X115770353Y-109501997D01*
X115770353Y-109502002D01*
X115790834Y-109644456D01*
X115813254Y-109693548D01*
X115850623Y-109775373D01*
X115944872Y-109884143D01*
X115944873Y-109884144D01*
X115992376Y-109914672D01*
X116065947Y-109961953D01*
X116172403Y-109993211D01*
X116204035Y-110002499D01*
X116204036Y-110002499D01*
X116204039Y-110002500D01*
X116204041Y-110002500D01*
X116347959Y-110002500D01*
X116347961Y-110002500D01*
X116486053Y-109961953D01*
X116607128Y-109884143D01*
X116701377Y-109775373D01*
X116761165Y-109644457D01*
X116775344Y-109545836D01*
X116802339Y-109490929D01*
X116856453Y-109462375D01*
X116917016Y-109471082D01*
X116943335Y-109489916D01*
X116953417Y-109499997D01*
X121200436Y-113746413D01*
X121208518Y-113757658D01*
X121209514Y-113756907D01*
X121215044Y-113764231D01*
X121249749Y-113795870D01*
X121253047Y-113799018D01*
X121266220Y-113812188D01*
X121266306Y-113812247D01*
X121277053Y-113820759D01*
X121298067Y-113839916D01*
X121307246Y-113843472D01*
X121327419Y-113854104D01*
X121335539Y-113859666D01*
X121363219Y-113866173D01*
X121376308Y-113870226D01*
X121402827Y-113880500D01*
X121412666Y-113880500D01*
X121435323Y-113883127D01*
X121444903Y-113885380D01*
X121473062Y-113881449D01*
X121486746Y-113880500D01*
X122073035Y-113880500D01*
X122131226Y-113899407D01*
X122167190Y-113948907D01*
X122167190Y-114010093D01*
X122131226Y-114059593D01*
X122126561Y-114062782D01*
X122090425Y-114086006D01*
X122068872Y-114099857D01*
X121974622Y-114208628D01*
X121914834Y-114339543D01*
X121894353Y-114481997D01*
X121894353Y-114482003D01*
X121911377Y-114600411D01*
X121900944Y-114660700D01*
X121857066Y-114703343D01*
X121813385Y-114713500D01*
X121258124Y-114713500D01*
X121199933Y-114694593D01*
X121188120Y-114684504D01*
X120073102Y-113569486D01*
X120045325Y-113514969D01*
X120045114Y-113485392D01*
X120052647Y-113433001D01*
X120052647Y-113432997D01*
X120032165Y-113290543D01*
X120017138Y-113257638D01*
X119972377Y-113159627D01*
X119878128Y-113050857D01*
X119878127Y-113050856D01*
X119878126Y-113050855D01*
X119757057Y-112973049D01*
X119757054Y-112973047D01*
X119757053Y-112973047D01*
X119757050Y-112973046D01*
X119618964Y-112932500D01*
X119618961Y-112932500D01*
X119475039Y-112932500D01*
X119475035Y-112932500D01*
X119336949Y-112973046D01*
X119336942Y-112973049D01*
X119215873Y-113050855D01*
X119121622Y-113159628D01*
X119061834Y-113290543D01*
X119041353Y-113432997D01*
X119041353Y-113433002D01*
X119061834Y-113575456D01*
X119119706Y-113702175D01*
X119121623Y-113706373D01*
X119213363Y-113812247D01*
X119215873Y-113815144D01*
X119325163Y-113885380D01*
X119336947Y-113892953D01*
X119443403Y-113924211D01*
X119475035Y-113933499D01*
X119475036Y-113933499D01*
X119475039Y-113933500D01*
X119475041Y-113933500D01*
X119616876Y-113933500D01*
X119675067Y-113952407D01*
X119686880Y-113962496D01*
X120882115Y-115157731D01*
X120894426Y-115172733D01*
X120904376Y-115187624D01*
X120927376Y-115202992D01*
X120927378Y-115202994D01*
X120995505Y-115248515D01*
X121103000Y-115269897D01*
X121120570Y-115266401D01*
X121139884Y-115264500D01*
X122667116Y-115264500D01*
X122686429Y-115266401D01*
X122704000Y-115269897D01*
X122704000Y-115269896D01*
X122713563Y-115271799D01*
X122713125Y-115273999D01*
X122758691Y-115288804D01*
X122794655Y-115338304D01*
X122799500Y-115368897D01*
X122799500Y-115419746D01*
X122799501Y-115419758D01*
X122811132Y-115478227D01*
X122811134Y-115478233D01*
X122855445Y-115544548D01*
X122855448Y-115544552D01*
X122921769Y-115588867D01*
X122966231Y-115597711D01*
X122980241Y-115600498D01*
X122980246Y-115600498D01*
X122980252Y-115600500D01*
X124140562Y-115600500D01*
X124198753Y-115619407D01*
X124234717Y-115668907D01*
X124234717Y-115730093D01*
X124230615Y-115740627D01*
X124191834Y-115825543D01*
X124171353Y-115967997D01*
X124171353Y-115968002D01*
X124191834Y-116110456D01*
X124250170Y-116238192D01*
X124251623Y-116241373D01*
X124294179Y-116290486D01*
X124296071Y-116292669D01*
X124319888Y-116349029D01*
X124306029Y-116408624D01*
X124259788Y-116448692D01*
X124221251Y-116456500D01*
X124108035Y-116456500D01*
X123969949Y-116497046D01*
X123969942Y-116497049D01*
X123848873Y-116574855D01*
X123754622Y-116683628D01*
X123694834Y-116814543D01*
X123674353Y-116956997D01*
X123674353Y-116957003D01*
X123677298Y-116977487D01*
X123666865Y-117037777D01*
X123622986Y-117080419D01*
X123562424Y-117089126D01*
X123551415Y-117086566D01*
X123414964Y-117046500D01*
X123414961Y-117046500D01*
X123271039Y-117046500D01*
X123271035Y-117046500D01*
X123132949Y-117087046D01*
X123132942Y-117087049D01*
X123011873Y-117164855D01*
X122917622Y-117273628D01*
X122857834Y-117404543D01*
X122837353Y-117546997D01*
X122837353Y-117547003D01*
X122844885Y-117599393D01*
X122834451Y-117659682D01*
X122816897Y-117683485D01*
X122129267Y-118371115D01*
X122114269Y-118383423D01*
X122099379Y-118393373D01*
X122099377Y-118393375D01*
X122038485Y-118484504D01*
X122036897Y-118492486D01*
X122026657Y-118543967D01*
X122017103Y-118592000D01*
X122019477Y-118603937D01*
X122020598Y-118609569D01*
X122022500Y-118628883D01*
X122022500Y-124151297D01*
X122003593Y-124209488D01*
X121954093Y-124245452D01*
X121908014Y-124249078D01*
X121850695Y-124240000D01*
X121830001Y-124240000D01*
X121830000Y-124240001D01*
X121830000Y-125359998D01*
X121830001Y-125359999D01*
X121850693Y-125359999D01*
X121942015Y-125345536D01*
X121942019Y-125345535D01*
X122012634Y-125309554D01*
X122073066Y-125299982D01*
X122112585Y-125315450D01*
X122114270Y-125316576D01*
X122129269Y-125328885D01*
X122450707Y-125650323D01*
X122478484Y-125704840D01*
X122468913Y-125765272D01*
X122461283Y-125777842D01*
X122460803Y-125778513D01*
X122409427Y-125883604D01*
X122404463Y-125917673D01*
X122399500Y-125951740D01*
X122399500Y-126318260D01*
X122405739Y-126361078D01*
X122409427Y-126386395D01*
X122447502Y-126464277D01*
X122460802Y-126491483D01*
X122543517Y-126574198D01*
X122557110Y-126580843D01*
X122648604Y-126625572D01*
X122648605Y-126625572D01*
X122648607Y-126625573D01*
X122716740Y-126635500D01*
X122716743Y-126635500D01*
X124083257Y-126635500D01*
X124083260Y-126635500D01*
X124151393Y-126625573D01*
X124256483Y-126574198D01*
X124339198Y-126491483D01*
X124390573Y-126386393D01*
X124400500Y-126318260D01*
X124400500Y-125951740D01*
X124390573Y-125883607D01*
X124383134Y-125868391D01*
X124346744Y-125793953D01*
X124339198Y-125778517D01*
X124256483Y-125695802D01*
X124256481Y-125695801D01*
X124151395Y-125644427D01*
X124124139Y-125640456D01*
X124083260Y-125634500D01*
X124083257Y-125634500D01*
X123255124Y-125634500D01*
X123196933Y-125615593D01*
X123185120Y-125605504D01*
X123114120Y-125534504D01*
X123086343Y-125479987D01*
X123095914Y-125419555D01*
X123139179Y-125376290D01*
X123184124Y-125365500D01*
X124083257Y-125365500D01*
X124083260Y-125365500D01*
X124151393Y-125355573D01*
X124256483Y-125304198D01*
X124266186Y-125294494D01*
X124320701Y-125266719D01*
X124336188Y-125265500D01*
X124714172Y-125265500D01*
X124772363Y-125284407D01*
X124784158Y-125294479D01*
X126420255Y-126929765D01*
X126448046Y-126984275D01*
X126448261Y-126985694D01*
X126453835Y-127024458D01*
X126453836Y-127024460D01*
X126506235Y-127139196D01*
X126513623Y-127155373D01*
X126573742Y-127224754D01*
X126607873Y-127264144D01*
X126716598Y-127334017D01*
X126755329Y-127381383D01*
X126758823Y-127442468D01*
X126733079Y-127487304D01*
X126692881Y-127527503D01*
X126638365Y-127555281D01*
X126622877Y-127556500D01*
X124499500Y-127556500D01*
X124441309Y-127537593D01*
X124405345Y-127488093D01*
X124400500Y-127457500D01*
X124400500Y-127221743D01*
X124400500Y-127221740D01*
X124390573Y-127153607D01*
X124382190Y-127136460D01*
X124363001Y-127097207D01*
X124339198Y-127048517D01*
X124256483Y-126965802D01*
X124256481Y-126965801D01*
X124151395Y-126914427D01*
X124124139Y-126910456D01*
X124083260Y-126904500D01*
X122716740Y-126904500D01*
X122682673Y-126909463D01*
X122648604Y-126914427D01*
X122543518Y-126965801D01*
X122460801Y-127048518D01*
X122409427Y-127153604D01*
X122405895Y-127177850D01*
X122399500Y-127221740D01*
X122399500Y-127588260D01*
X122406118Y-127633682D01*
X122409427Y-127656395D01*
X122460801Y-127761481D01*
X122460802Y-127761483D01*
X122543517Y-127844198D01*
X122597285Y-127870483D01*
X122648604Y-127895572D01*
X122648605Y-127895572D01*
X122648607Y-127895573D01*
X122716740Y-127905500D01*
X123025500Y-127905500D01*
X123083691Y-127924407D01*
X123119655Y-127973907D01*
X123124500Y-128004500D01*
X123124500Y-128104876D01*
X123105593Y-128163067D01*
X123095504Y-128174880D01*
X122719880Y-128550504D01*
X122665363Y-128578281D01*
X122649876Y-128579500D01*
X122385684Y-128579500D01*
X122369398Y-128581644D01*
X122336825Y-128585932D01*
X122336824Y-128585932D01*
X122229598Y-128635933D01*
X122145933Y-128719598D01*
X122139724Y-128732915D01*
X122097995Y-128777663D01*
X122037934Y-128789337D01*
X121982482Y-128763478D01*
X121960276Y-128732915D01*
X121954066Y-128719598D01*
X121954065Y-128719597D01*
X121954065Y-128719596D01*
X121870404Y-128635935D01*
X121870402Y-128635934D01*
X121870401Y-128635933D01*
X121763175Y-128585932D01*
X121730601Y-128581644D01*
X121714316Y-128579500D01*
X121714315Y-128579500D01*
X121626901Y-128579500D01*
X121568710Y-128560593D01*
X121556898Y-128550504D01*
X121366425Y-128360032D01*
X121366424Y-128360032D01*
X121366423Y-128360031D01*
X121366423Y-128360030D01*
X121346342Y-128339950D01*
X121324850Y-128328999D01*
X121311608Y-128320884D01*
X121305581Y-128316505D01*
X121292090Y-128306704D01*
X121292088Y-128306703D01*
X121269142Y-128299247D01*
X121254788Y-128293301D01*
X121233306Y-128282354D01*
X121209474Y-128278579D01*
X121194374Y-128274953D01*
X121171437Y-128267500D01*
X121171433Y-128267500D01*
X121139519Y-128267500D01*
X120729632Y-128267500D01*
X120676110Y-128251784D01*
X120608053Y-128208047D01*
X120608050Y-128208046D01*
X120469964Y-128167500D01*
X120469961Y-128167500D01*
X120326039Y-128167500D01*
X120326035Y-128167500D01*
X120187949Y-128208046D01*
X120187942Y-128208049D01*
X120066873Y-128285855D01*
X119972622Y-128394628D01*
X119912834Y-128525543D01*
X119892353Y-128667997D01*
X119892353Y-128668002D01*
X119912834Y-128810456D01*
X119958061Y-128909487D01*
X119972623Y-128941373D01*
X120039294Y-129018316D01*
X120066873Y-129050144D01*
X120187942Y-129127950D01*
X120187947Y-129127953D01*
X120276561Y-129153972D01*
X120326035Y-129168499D01*
X120326036Y-129168499D01*
X120326039Y-129168500D01*
X120326041Y-129168500D01*
X120469959Y-129168500D01*
X120469961Y-129168500D01*
X120608053Y-129127953D01*
X120676110Y-129084215D01*
X120729632Y-129068500D01*
X120901100Y-129068500D01*
X120959291Y-129087407D01*
X120971103Y-129097496D01*
X121040503Y-129166895D01*
X121068281Y-129221411D01*
X121069500Y-129236899D01*
X121069500Y-129324314D01*
X121075932Y-129373174D01*
X121075932Y-129373175D01*
X121125933Y-129480401D01*
X121125934Y-129480402D01*
X121125935Y-129480404D01*
X121209596Y-129564065D01*
X121209597Y-129564065D01*
X121209598Y-129564066D01*
X121316824Y-129614067D01*
X121316825Y-129614067D01*
X121316827Y-129614068D01*
X121365684Y-129620500D01*
X121365685Y-129620500D01*
X121714314Y-129620500D01*
X121714316Y-129620500D01*
X121763173Y-129614068D01*
X121870404Y-129564065D01*
X121954065Y-129480404D01*
X121960275Y-129467085D01*
X122002003Y-129422337D01*
X122062064Y-129410662D01*
X122117517Y-129436519D01*
X122139724Y-129467084D01*
X122145935Y-129480404D01*
X122229596Y-129564065D01*
X122229597Y-129564065D01*
X122229598Y-129564066D01*
X122336824Y-129614067D01*
X122336825Y-129614067D01*
X122336827Y-129614068D01*
X122385684Y-129620500D01*
X122385685Y-129620500D01*
X122734314Y-129620500D01*
X122734316Y-129620500D01*
X122783173Y-129614068D01*
X122890404Y-129564065D01*
X122974065Y-129480404D01*
X123024068Y-129373173D01*
X123030500Y-129324316D01*
X123030500Y-129060123D01*
X123049407Y-129001932D01*
X123059490Y-128990125D01*
X123568733Y-128480881D01*
X123583729Y-128468575D01*
X123598624Y-128458624D01*
X123626816Y-128416433D01*
X123659515Y-128367495D01*
X123664994Y-128339950D01*
X123675500Y-128287133D01*
X123675500Y-128287131D01*
X123676446Y-128282375D01*
X123676448Y-128282359D01*
X123680896Y-128260000D01*
X123677402Y-128242432D01*
X123675500Y-128223120D01*
X123675500Y-128206500D01*
X123694407Y-128148309D01*
X123743907Y-128112345D01*
X123774500Y-128107500D01*
X126100488Y-128107500D01*
X126158679Y-128126407D01*
X126194643Y-128175907D01*
X126194643Y-128237093D01*
X126158679Y-128286593D01*
X126154011Y-128289784D01*
X126069873Y-128343855D01*
X125975622Y-128452628D01*
X125915834Y-128583543D01*
X125895353Y-128725997D01*
X125895353Y-128726002D01*
X125915834Y-128868456D01*
X125934573Y-128909487D01*
X125975623Y-128999373D01*
X126065610Y-129103224D01*
X126069873Y-129108144D01*
X126181757Y-129180047D01*
X126190947Y-129185953D01*
X126297403Y-129217211D01*
X126329035Y-129226499D01*
X126329036Y-129226499D01*
X126329039Y-129226500D01*
X126329041Y-129226500D01*
X126472959Y-129226500D01*
X126472961Y-129226500D01*
X126611053Y-129185953D01*
X126732128Y-129108143D01*
X126826377Y-128999373D01*
X126886165Y-128868457D01*
X126902693Y-128753500D01*
X126906647Y-128726002D01*
X126906647Y-128725997D01*
X126886165Y-128583543D01*
X126859677Y-128525543D01*
X126826377Y-128452627D01*
X126732128Y-128343857D01*
X126732127Y-128343856D01*
X126732126Y-128343855D01*
X126647989Y-128289784D01*
X126609258Y-128242418D01*
X126605764Y-128181333D01*
X126638844Y-128129860D01*
X126695860Y-128107661D01*
X126701512Y-128107500D01*
X126741116Y-128107500D01*
X126760429Y-128109401D01*
X126778000Y-128112897D01*
X126805132Y-128107500D01*
X126805133Y-128107500D01*
X126885495Y-128091515D01*
X126951344Y-128047516D01*
X126951345Y-128047517D01*
X126951350Y-128047511D01*
X126953622Y-128045994D01*
X126953623Y-128045992D01*
X126956671Y-128043955D01*
X126964340Y-128038832D01*
X126964348Y-128038826D01*
X126976624Y-128030624D01*
X126986574Y-128015730D01*
X126998881Y-128000733D01*
X127411354Y-127588260D01*
X129599500Y-127588260D01*
X129606118Y-127633682D01*
X129609427Y-127656395D01*
X129660801Y-127761481D01*
X129660802Y-127761483D01*
X129743517Y-127844198D01*
X129797285Y-127870483D01*
X129848604Y-127895572D01*
X129848605Y-127895572D01*
X129848607Y-127895573D01*
X129916740Y-127905500D01*
X130205101Y-127905500D01*
X130263292Y-127924407D01*
X130275107Y-127934499D01*
X130291794Y-127951187D01*
X130292260Y-127951690D01*
X130317198Y-127976591D01*
X130317250Y-127976643D01*
X130366852Y-128026244D01*
X130367364Y-128026680D01*
X130731748Y-128390513D01*
X130742261Y-128401010D01*
X130770079Y-128455506D01*
X130770302Y-128456978D01*
X130775834Y-128495456D01*
X130816063Y-128583543D01*
X130835623Y-128626373D01*
X130929872Y-128735143D01*
X130929873Y-128735144D01*
X131047063Y-128810457D01*
X131050947Y-128812953D01*
X131157403Y-128844211D01*
X131189035Y-128853499D01*
X131189036Y-128853499D01*
X131189039Y-128853500D01*
X131189041Y-128853500D01*
X131332959Y-128853500D01*
X131332961Y-128853500D01*
X131471053Y-128812953D01*
X131539110Y-128769215D01*
X131592632Y-128753500D01*
X131690501Y-128753500D01*
X131748692Y-128772407D01*
X131784656Y-128821907D01*
X131789501Y-128852500D01*
X131789501Y-128859907D01*
X131796027Y-128909486D01*
X131796027Y-128909488D01*
X131846774Y-129018313D01*
X131846775Y-129018314D01*
X131846776Y-129018316D01*
X131931684Y-129103224D01*
X132040513Y-129153972D01*
X132090099Y-129160500D01*
X132449900Y-129160499D01*
X132499487Y-129153972D01*
X132499488Y-129153972D01*
X132558137Y-129126622D01*
X132608316Y-129103224D01*
X132644997Y-129066542D01*
X132699512Y-129038767D01*
X132759944Y-129048338D01*
X132785003Y-129066544D01*
X132857909Y-129139450D01*
X132857911Y-129139451D01*
X132967977Y-129195533D01*
X132967979Y-129195534D01*
X133059305Y-129209999D01*
X133080000Y-129209998D01*
X133380000Y-129209998D01*
X133380001Y-129209999D01*
X133400693Y-129209999D01*
X133492015Y-129195536D01*
X133492022Y-129195534D01*
X133602088Y-129139451D01*
X133602090Y-129139450D01*
X133689450Y-129052090D01*
X133689451Y-129052088D01*
X133745533Y-128942022D01*
X133745534Y-128942021D01*
X133760000Y-128850692D01*
X133760000Y-128800001D01*
X133759999Y-128800000D01*
X133380001Y-128800000D01*
X133380000Y-128800001D01*
X133380000Y-129209998D01*
X133080000Y-129209998D01*
X133080000Y-128499999D01*
X133380000Y-128499999D01*
X133380001Y-128500000D01*
X133759998Y-128500000D01*
X133759999Y-128499999D01*
X133759999Y-128449306D01*
X133745536Y-128357984D01*
X133745534Y-128357977D01*
X133689451Y-128247911D01*
X133689450Y-128247909D01*
X133602090Y-128160549D01*
X133602088Y-128160548D01*
X133492022Y-128104466D01*
X133492021Y-128104465D01*
X133400693Y-128090000D01*
X133380001Y-128090000D01*
X133380000Y-128090001D01*
X133380000Y-128499999D01*
X133080000Y-128499999D01*
X133080000Y-128089999D01*
X133059307Y-128090000D01*
X133059303Y-128090001D01*
X132967984Y-128104463D01*
X132967977Y-128104465D01*
X132857911Y-128160548D01*
X132857909Y-128160549D01*
X132785003Y-128233456D01*
X132730486Y-128261233D01*
X132670054Y-128251662D01*
X132644998Y-128233458D01*
X132608316Y-128196776D01*
X132608314Y-128196775D01*
X132608313Y-128196774D01*
X132499489Y-128146029D01*
X132499488Y-128146028D01*
X132474694Y-128142764D01*
X132449901Y-128139500D01*
X132449900Y-128139500D01*
X132366901Y-128139500D01*
X132308710Y-128120593D01*
X132296898Y-128110504D01*
X132231425Y-128045032D01*
X132231424Y-128045032D01*
X132231423Y-128045031D01*
X132231423Y-128045030D01*
X132211343Y-128024951D01*
X132211342Y-128024950D01*
X132189847Y-128013997D01*
X132176608Y-128005884D01*
X132169511Y-128000728D01*
X132157090Y-127991704D01*
X132157088Y-127991703D01*
X132134142Y-127984247D01*
X132119788Y-127978301D01*
X132098306Y-127967354D01*
X132074474Y-127963579D01*
X132059374Y-127959953D01*
X132036437Y-127952500D01*
X132036433Y-127952500D01*
X132004519Y-127952500D01*
X131592632Y-127952500D01*
X131539088Y-127936770D01*
X131538123Y-127936150D01*
X131535773Y-127934639D01*
X131497054Y-127887263D01*
X131493577Y-127826176D01*
X131519314Y-127781366D01*
X131539198Y-127761483D01*
X131590573Y-127656393D01*
X131600500Y-127588260D01*
X131600500Y-127221740D01*
X131590573Y-127153607D01*
X131582190Y-127136460D01*
X131563001Y-127097207D01*
X131539198Y-127048517D01*
X131456483Y-126965802D01*
X131456481Y-126965801D01*
X131351395Y-126914427D01*
X131324139Y-126910456D01*
X131283260Y-126904500D01*
X129916740Y-126904500D01*
X129882673Y-126909463D01*
X129848604Y-126914427D01*
X129743518Y-126965801D01*
X129660801Y-127048518D01*
X129609427Y-127153604D01*
X129605895Y-127177850D01*
X129599500Y-127221740D01*
X129599500Y-127588260D01*
X127411354Y-127588260D01*
X128699694Y-126299920D01*
X128754209Y-126272145D01*
X128814641Y-126281716D01*
X128844515Y-126305095D01*
X128939870Y-126415142D01*
X128939872Y-126415143D01*
X129058659Y-126491483D01*
X129060947Y-126492953D01*
X129167403Y-126524211D01*
X129199035Y-126533499D01*
X129199036Y-126533499D01*
X129199039Y-126533500D01*
X129199041Y-126533500D01*
X129342959Y-126533500D01*
X129342961Y-126533500D01*
X129481053Y-126492953D01*
X129525675Y-126464276D01*
X129584847Y-126448722D01*
X129641863Y-126470920D01*
X129659763Y-126490029D01*
X129660797Y-126491477D01*
X129660801Y-126491481D01*
X129660802Y-126491483D01*
X129743517Y-126574198D01*
X129757110Y-126580843D01*
X129848604Y-126625572D01*
X129848605Y-126625572D01*
X129848607Y-126625573D01*
X129916740Y-126635500D01*
X129916743Y-126635500D01*
X131283257Y-126635500D01*
X131283260Y-126635500D01*
X131351393Y-126625573D01*
X131456483Y-126574198D01*
X131539198Y-126491483D01*
X131590573Y-126386393D01*
X131600500Y-126318260D01*
X131600500Y-125951740D01*
X131590573Y-125883607D01*
X131583134Y-125868391D01*
X131546744Y-125793953D01*
X131539198Y-125778517D01*
X131537881Y-125777200D01*
X131536945Y-125775362D01*
X131534431Y-125771841D01*
X131534958Y-125771464D01*
X131510106Y-125722686D01*
X131519677Y-125662254D01*
X131525574Y-125652194D01*
X131526622Y-125650625D01*
X131526624Y-125650624D01*
X131536581Y-125635722D01*
X131548884Y-125620731D01*
X131818730Y-125350884D01*
X131833726Y-125338577D01*
X131848624Y-125328624D01*
X131868085Y-125299500D01*
X131898283Y-125254304D01*
X131909515Y-125237495D01*
X131925500Y-125157133D01*
X131925500Y-125157132D01*
X131930897Y-125130000D01*
X131927402Y-125112427D01*
X131925500Y-125093115D01*
X131925500Y-124960000D01*
X133262156Y-124960000D01*
X133264177Y-124977949D01*
X133264178Y-124977953D01*
X133319997Y-125137472D01*
X133319998Y-125137476D01*
X133409911Y-125280570D01*
X133529429Y-125400088D01*
X133672523Y-125490001D01*
X133672527Y-125490002D01*
X133832046Y-125545821D01*
X133832050Y-125545822D01*
X133850000Y-125547844D01*
X133850000Y-125098675D01*
X133887129Y-125120112D01*
X133971564Y-125135000D01*
X134028436Y-125135000D01*
X134112871Y-125120112D01*
X134150000Y-125098675D01*
X134150000Y-125547843D01*
X134167949Y-125545822D01*
X134167953Y-125545821D01*
X134327472Y-125490002D01*
X134327476Y-125490001D01*
X134470570Y-125400088D01*
X134590088Y-125280570D01*
X134680001Y-125137476D01*
X134680002Y-125137472D01*
X134735821Y-124977953D01*
X134735822Y-124977949D01*
X134737844Y-124960000D01*
X134291263Y-124960000D01*
X134325000Y-124867306D01*
X134325000Y-124752694D01*
X134291263Y-124660000D01*
X134737844Y-124660000D01*
X134735822Y-124642050D01*
X134735821Y-124642046D01*
X134680002Y-124482527D01*
X134680001Y-124482523D01*
X134590088Y-124339429D01*
X134470573Y-124219914D01*
X134467028Y-124217087D01*
X134433321Y-124166023D01*
X134436066Y-124104899D01*
X134463103Y-124065584D01*
X134528183Y-124007929D01*
X134624818Y-123867930D01*
X134685140Y-123708872D01*
X134705645Y-123540000D01*
X134704367Y-123529478D01*
X134700849Y-123500499D01*
X134685140Y-123371128D01*
X134624818Y-123212070D01*
X134528183Y-123072071D01*
X134520770Y-123065504D01*
X134454059Y-123006403D01*
X134423242Y-122979102D01*
X134392224Y-122926363D01*
X134398129Y-122865463D01*
X134423243Y-122830897D01*
X134437444Y-122818316D01*
X134528183Y-122737929D01*
X134624818Y-122597930D01*
X134685140Y-122438872D01*
X134705645Y-122270000D01*
X134685140Y-122101128D01*
X134624818Y-121942070D01*
X134547597Y-121830196D01*
X134530102Y-121771570D01*
X134550409Y-121713853D01*
X134574071Y-121691646D01*
X134578229Y-121688867D01*
X134578231Y-121688867D01*
X134644552Y-121644552D01*
X134688867Y-121578231D01*
X134700500Y-121519748D01*
X134700500Y-120480252D01*
X134688867Y-120421769D01*
X134644552Y-120355448D01*
X134639136Y-120351829D01*
X134578233Y-120311134D01*
X134578231Y-120311133D01*
X134578228Y-120311132D01*
X134578227Y-120311132D01*
X134519758Y-120299501D01*
X134519748Y-120299500D01*
X133480252Y-120299500D01*
X133480251Y-120299500D01*
X133480241Y-120299501D01*
X133421772Y-120311132D01*
X133421766Y-120311134D01*
X133355451Y-120355445D01*
X133355445Y-120355451D01*
X133311134Y-120421766D01*
X133311132Y-120421772D01*
X133299501Y-120480241D01*
X133299500Y-120480253D01*
X133299500Y-121519746D01*
X133299501Y-121519758D01*
X133311132Y-121578227D01*
X133311134Y-121578233D01*
X133355445Y-121644548D01*
X133355448Y-121644552D01*
X133355451Y-121644554D01*
X133425928Y-121691646D01*
X133463807Y-121739696D01*
X133466209Y-121800834D01*
X133452401Y-121830199D01*
X133375182Y-121942070D01*
X133314860Y-122101128D01*
X133294355Y-122270000D01*
X133314860Y-122438872D01*
X133375182Y-122597930D01*
X133471817Y-122737929D01*
X133471820Y-122737931D01*
X133471823Y-122737935D01*
X133576756Y-122830898D01*
X133607775Y-122883638D01*
X133601869Y-122944537D01*
X133576756Y-122979102D01*
X133471823Y-123072064D01*
X133471816Y-123072072D01*
X133402118Y-123173047D01*
X133375182Y-123212070D01*
X133314860Y-123371128D01*
X133309212Y-123417642D01*
X133294355Y-123539998D01*
X133294355Y-123540001D01*
X133297544Y-123566266D01*
X133314860Y-123708872D01*
X133375182Y-123867930D01*
X133471817Y-124007929D01*
X133471820Y-124007931D01*
X133471823Y-124007935D01*
X133536895Y-124065584D01*
X133567914Y-124118324D01*
X133562008Y-124179223D01*
X133532970Y-124217089D01*
X133529425Y-124219915D01*
X133409911Y-124339429D01*
X133319998Y-124482523D01*
X133319997Y-124482527D01*
X133264178Y-124642046D01*
X133264177Y-124642050D01*
X133262156Y-124660000D01*
X133708737Y-124660000D01*
X133675000Y-124752694D01*
X133675000Y-124867306D01*
X133708737Y-124960000D01*
X133262156Y-124960000D01*
X131925500Y-124960000D01*
X131925500Y-117318998D01*
X131944407Y-117260807D01*
X131993907Y-117224843D01*
X132007273Y-117222725D01*
X132010000Y-117219999D01*
X132010000Y-117219998D01*
X132310000Y-117219998D01*
X132310001Y-117219999D01*
X132331535Y-117219999D01*
X132331538Y-117219998D01*
X132406375Y-117209096D01*
X132521807Y-117152664D01*
X132612664Y-117061807D01*
X132669096Y-116946374D01*
X132680000Y-116871537D01*
X132680000Y-116800001D01*
X132679999Y-116800000D01*
X132310001Y-116800000D01*
X132310000Y-116800001D01*
X132310000Y-117219998D01*
X132010000Y-117219998D01*
X132010000Y-116499999D01*
X132310000Y-116499999D01*
X132310001Y-116500000D01*
X132679998Y-116500000D01*
X132679999Y-116499999D01*
X132679999Y-116428464D01*
X132679998Y-116428461D01*
X132669096Y-116353624D01*
X132612664Y-116238192D01*
X132521807Y-116147335D01*
X132406374Y-116090903D01*
X132331538Y-116080000D01*
X132310001Y-116080000D01*
X132310000Y-116080001D01*
X132310000Y-116499999D01*
X132010000Y-116499999D01*
X132010000Y-116080000D01*
X132003018Y-116073019D01*
X131966312Y-116061094D01*
X131930347Y-116011595D01*
X131925500Y-115980999D01*
X131925500Y-114783040D01*
X131927418Y-114763645D01*
X131930897Y-114746232D01*
X131927483Y-114728995D01*
X131926458Y-114723817D01*
X131926380Y-114723296D01*
X131925500Y-114718871D01*
X131925500Y-114718867D01*
X131920249Y-114692473D01*
X131909604Y-114638720D01*
X131909600Y-114638715D01*
X131909514Y-114638503D01*
X131879226Y-114593175D01*
X131879180Y-114593106D01*
X131861626Y-114566788D01*
X131861301Y-114566349D01*
X131848625Y-114547378D01*
X131848624Y-114547376D01*
X131848620Y-114547373D01*
X131848619Y-114547372D01*
X131833857Y-114537508D01*
X131818799Y-114525140D01*
X131502807Y-114208627D01*
X131264912Y-113970340D01*
X131252667Y-113955407D01*
X131242624Y-113940376D01*
X131197267Y-113910069D01*
X131197215Y-113910003D01*
X131197201Y-113910025D01*
X131151708Y-113879573D01*
X131151707Y-113879572D01*
X131151699Y-113879567D01*
X131151506Y-113879487D01*
X131140007Y-113877199D01*
X131098294Y-113868901D01*
X131098222Y-113868862D01*
X131098218Y-113868886D01*
X131044232Y-113858103D01*
X131026504Y-113861614D01*
X131007271Y-113863500D01*
X123959800Y-113863500D01*
X123901609Y-113844593D01*
X123865645Y-113795093D01*
X123865645Y-113733907D01*
X123869747Y-113723372D01*
X123870166Y-113722454D01*
X123890647Y-113580002D01*
X123890647Y-113579997D01*
X123870165Y-113437543D01*
X123849738Y-113392815D01*
X123810377Y-113306627D01*
X123716128Y-113197857D01*
X123716127Y-113197856D01*
X123716126Y-113197855D01*
X123595057Y-113120049D01*
X123595054Y-113120047D01*
X123595053Y-113120047D01*
X123595050Y-113120046D01*
X123456964Y-113079500D01*
X123456961Y-113079500D01*
X123450305Y-113079500D01*
X123392114Y-113060593D01*
X123356150Y-113011093D01*
X123356150Y-112949907D01*
X123392114Y-112900407D01*
X123396782Y-112897216D01*
X123411599Y-112887693D01*
X123431128Y-112875143D01*
X123512701Y-112781002D01*
X123848353Y-112781002D01*
X123868834Y-112923456D01*
X123912924Y-113019997D01*
X123928623Y-113054373D01*
X124019826Y-113159628D01*
X124022873Y-113163144D01*
X124143942Y-113240950D01*
X124143947Y-113240953D01*
X124250403Y-113272211D01*
X124282035Y-113281499D01*
X124282036Y-113281499D01*
X124282039Y-113281500D01*
X124282041Y-113281500D01*
X124425959Y-113281500D01*
X124425961Y-113281500D01*
X124564053Y-113240953D01*
X124685128Y-113163143D01*
X124779377Y-113054373D01*
X124839165Y-112923457D01*
X124859647Y-112781000D01*
X124856433Y-112758647D01*
X124839165Y-112638543D01*
X124837755Y-112635456D01*
X124779377Y-112507627D01*
X124685128Y-112398857D01*
X124685127Y-112398856D01*
X124685126Y-112398855D01*
X124564057Y-112321049D01*
X124564054Y-112321047D01*
X124564053Y-112321047D01*
X124564050Y-112321046D01*
X124425964Y-112280500D01*
X124425961Y-112280500D01*
X124282039Y-112280500D01*
X124282035Y-112280500D01*
X124143949Y-112321046D01*
X124143942Y-112321049D01*
X124022873Y-112398855D01*
X123928622Y-112507628D01*
X123868834Y-112638543D01*
X123848353Y-112780997D01*
X123848353Y-112781002D01*
X123512701Y-112781002D01*
X123525377Y-112766373D01*
X123585165Y-112635457D01*
X123605647Y-112493000D01*
X123601053Y-112461049D01*
X123585165Y-112350543D01*
X123525377Y-112219628D01*
X123525377Y-112219627D01*
X123431128Y-112110857D01*
X123431127Y-112110856D01*
X123431126Y-112110855D01*
X123310057Y-112033049D01*
X123310054Y-112033047D01*
X123310053Y-112033047D01*
X123283138Y-112025144D01*
X123178739Y-111994490D01*
X123128232Y-111959954D01*
X123107670Y-111902327D01*
X123124908Y-111843620D01*
X123173361Y-111806257D01*
X123206630Y-111800500D01*
X124719747Y-111800500D01*
X124719748Y-111800500D01*
X124778231Y-111788867D01*
X124844552Y-111744552D01*
X124887633Y-111680077D01*
X124935681Y-111642199D01*
X124996820Y-111639797D01*
X125047693Y-111673790D01*
X125067939Y-111720991D01*
X125085834Y-111845456D01*
X125139267Y-111962456D01*
X125145623Y-111976373D01*
X125223673Y-112066448D01*
X125239873Y-112085144D01*
X125330676Y-112143499D01*
X125360947Y-112162953D01*
X125467403Y-112194211D01*
X125499035Y-112203499D01*
X125499036Y-112203499D01*
X125499039Y-112203500D01*
X125499041Y-112203500D01*
X125642959Y-112203500D01*
X125642961Y-112203500D01*
X125781053Y-112162953D01*
X125843686Y-112122701D01*
X125902858Y-112107147D01*
X125959875Y-112129345D01*
X125972020Y-112141148D01*
X126024872Y-112202143D01*
X126024873Y-112202144D01*
X126141576Y-112277144D01*
X126145947Y-112279953D01*
X126252403Y-112311211D01*
X126284035Y-112320499D01*
X126284036Y-112320499D01*
X126284039Y-112320500D01*
X126284041Y-112320500D01*
X126427959Y-112320500D01*
X126427961Y-112320500D01*
X126566053Y-112279953D01*
X126687128Y-112202143D01*
X126781377Y-112093373D01*
X126841165Y-111962457D01*
X126849810Y-111902327D01*
X126861647Y-111820002D01*
X126861647Y-111819997D01*
X126844825Y-111703000D01*
X126841165Y-111677543D01*
X126821160Y-111633740D01*
X126814186Y-111572955D01*
X126844272Y-111519677D01*
X126899928Y-111494259D01*
X126959894Y-111506410D01*
X126981213Y-111522606D01*
X127599762Y-112141155D01*
X128217254Y-112758647D01*
X128245031Y-112813164D01*
X128245242Y-112814562D01*
X128250834Y-112853456D01*
X128305451Y-112973049D01*
X128310623Y-112984373D01*
X128404872Y-113093143D01*
X128404873Y-113093144D01*
X128451475Y-113123093D01*
X128525947Y-113170953D01*
X128617568Y-113197855D01*
X128664035Y-113211499D01*
X128664036Y-113211499D01*
X128664039Y-113211500D01*
X128664041Y-113211500D01*
X128807959Y-113211500D01*
X128807961Y-113211500D01*
X128946053Y-113170953D01*
X129067128Y-113093143D01*
X129161377Y-112984373D01*
X129221165Y-112853457D01*
X129233686Y-112766371D01*
X129241647Y-112711002D01*
X129241647Y-112710997D01*
X129221165Y-112568543D01*
X129217285Y-112560047D01*
X129161377Y-112437627D01*
X129067128Y-112328857D01*
X129067127Y-112328856D01*
X129067126Y-112328855D01*
X128946057Y-112251049D01*
X128946054Y-112251048D01*
X128946053Y-112251047D01*
X128892354Y-112235280D01*
X128823615Y-112215096D01*
X128781503Y-112190110D01*
X128211139Y-111619746D01*
X129099500Y-111619746D01*
X129099501Y-111619758D01*
X129111132Y-111678227D01*
X129111134Y-111678233D01*
X129155445Y-111744548D01*
X129155448Y-111744552D01*
X129221769Y-111788867D01*
X129266231Y-111797711D01*
X129280241Y-111800498D01*
X129280246Y-111800498D01*
X129280252Y-111800500D01*
X129280253Y-111800500D01*
X131019747Y-111800500D01*
X131019748Y-111800500D01*
X131078231Y-111788867D01*
X131144552Y-111744552D01*
X131188867Y-111678231D01*
X131200500Y-111619748D01*
X131200500Y-111619737D01*
X131200976Y-111614912D01*
X131203220Y-111615132D01*
X131219407Y-111565314D01*
X131268907Y-111529350D01*
X131305775Y-111526449D01*
X131305775Y-111525499D01*
X131313567Y-111525499D01*
X131341379Y-111525499D01*
X131341403Y-111525500D01*
X131345481Y-111525500D01*
X131434368Y-111525500D01*
X131487889Y-111541215D01*
X131555947Y-111584953D01*
X131657979Y-111614912D01*
X131694035Y-111625499D01*
X131694036Y-111625499D01*
X131694039Y-111625500D01*
X131694041Y-111625500D01*
X131837959Y-111625500D01*
X131837961Y-111625500D01*
X131976053Y-111584953D01*
X132097128Y-111507143D01*
X132191377Y-111398373D01*
X132251165Y-111267457D01*
X132271647Y-111125000D01*
X132251165Y-110982543D01*
X132191377Y-110851627D01*
X132097128Y-110742857D01*
X132097127Y-110742856D01*
X132097126Y-110742855D01*
X131976057Y-110665049D01*
X131976054Y-110665047D01*
X131976053Y-110665047D01*
X131976050Y-110665046D01*
X131837964Y-110624500D01*
X131837961Y-110624500D01*
X131694039Y-110624500D01*
X131694035Y-110624500D01*
X131555946Y-110665047D01*
X131512632Y-110692882D01*
X131453457Y-110708434D01*
X131428522Y-110703752D01*
X131415435Y-110699500D01*
X131415433Y-110699500D01*
X131383519Y-110699500D01*
X131299500Y-110699500D01*
X131241309Y-110680593D01*
X131205345Y-110631093D01*
X131200500Y-110600500D01*
X131200500Y-110580253D01*
X131200498Y-110580241D01*
X131196347Y-110559373D01*
X131188867Y-110521769D01*
X131144552Y-110455448D01*
X131139106Y-110451809D01*
X131078233Y-110411134D01*
X131078231Y-110411133D01*
X131078228Y-110411132D01*
X131078227Y-110411132D01*
X131019758Y-110399501D01*
X131019748Y-110399500D01*
X129280252Y-110399500D01*
X129280251Y-110399500D01*
X129280241Y-110399501D01*
X129221772Y-110411132D01*
X129221766Y-110411134D01*
X129155451Y-110455445D01*
X129155445Y-110455451D01*
X129111134Y-110521766D01*
X129111132Y-110521772D01*
X129099501Y-110580241D01*
X129099500Y-110580253D01*
X129099500Y-111619746D01*
X128211139Y-111619746D01*
X127706496Y-111115103D01*
X127678719Y-111060586D01*
X127677500Y-111045099D01*
X127677500Y-108549500D01*
X127696407Y-108491309D01*
X127745907Y-108455345D01*
X127776500Y-108450500D01*
X128204273Y-108450500D01*
X128204273Y-108450499D01*
X128234699Y-108447646D01*
X128362882Y-108402793D01*
X128472150Y-108322150D01*
X128552793Y-108212882D01*
X128597646Y-108084699D01*
X128600499Y-108054273D01*
X128600500Y-108054273D01*
X128600500Y-105945727D01*
X128600499Y-105945725D01*
X128600016Y-105940572D01*
X128597646Y-105915301D01*
X128552793Y-105787118D01*
X128543686Y-105774779D01*
X128472154Y-105677855D01*
X128472152Y-105677853D01*
X128472150Y-105677850D01*
X128472146Y-105677847D01*
X128472144Y-105677845D01*
X128362883Y-105597207D01*
X128234703Y-105552355D01*
X128234694Y-105552353D01*
X128204274Y-105549500D01*
X128204266Y-105549500D01*
X126795734Y-105549500D01*
X126795725Y-105549500D01*
X126765305Y-105552353D01*
X126765301Y-105552354D01*
X126650902Y-105592383D01*
X126589732Y-105593755D01*
X126539438Y-105558911D01*
X126519230Y-105501158D01*
X126528153Y-105457810D01*
X126535165Y-105442457D01*
X126548530Y-105349500D01*
X126555647Y-105300002D01*
X126555647Y-105299997D01*
X126535165Y-105157543D01*
X126518564Y-105121193D01*
X126475377Y-105026627D01*
X126461244Y-105010316D01*
X126450582Y-104998011D01*
X126426765Y-104941652D01*
X126434059Y-104899510D01*
X126433171Y-104899250D01*
X126435165Y-104892456D01*
X126440627Y-104854471D01*
X126443060Y-104837544D01*
X126455647Y-104750002D01*
X126455647Y-104749997D01*
X126435165Y-104607543D01*
X126403092Y-104537314D01*
X126375377Y-104476627D01*
X126281128Y-104367857D01*
X126281127Y-104367856D01*
X126281126Y-104367855D01*
X126160057Y-104290049D01*
X126160054Y-104290047D01*
X126160053Y-104290047D01*
X126160050Y-104290046D01*
X126021964Y-104249500D01*
X126021961Y-104249500D01*
X125878039Y-104249500D01*
X125878035Y-104249500D01*
X125739949Y-104290046D01*
X125739942Y-104290049D01*
X125618873Y-104367855D01*
X125524622Y-104476628D01*
X125464834Y-104607543D01*
X125444353Y-104749997D01*
X125444353Y-104750002D01*
X125464834Y-104892456D01*
X125524623Y-105023373D01*
X125549417Y-105051988D01*
X125573234Y-105108347D01*
X125565944Y-105150491D01*
X125566829Y-105150751D01*
X125564834Y-105157544D01*
X125544353Y-105299997D01*
X125544353Y-105300002D01*
X125564834Y-105442456D01*
X125613720Y-105549500D01*
X125624623Y-105573373D01*
X125646581Y-105598715D01*
X125670399Y-105655073D01*
X125661815Y-105704672D01*
X125614834Y-105807543D01*
X125594353Y-105949997D01*
X125594353Y-105950002D01*
X125614834Y-106092456D01*
X125638038Y-106143264D01*
X125674623Y-106223373D01*
X125732531Y-106290203D01*
X125768873Y-106332144D01*
X125878225Y-106402420D01*
X125889947Y-106409953D01*
X125996403Y-106441211D01*
X126028035Y-106450499D01*
X126028036Y-106450499D01*
X126028039Y-106450500D01*
X126028041Y-106450500D01*
X126171959Y-106450500D01*
X126171961Y-106450500D01*
X126272610Y-106420947D01*
X126333769Y-106422694D01*
X126382222Y-106460057D01*
X126399500Y-106515937D01*
X126399500Y-108054274D01*
X126402353Y-108084694D01*
X126402355Y-108084703D01*
X126447207Y-108212883D01*
X126527845Y-108322144D01*
X126527847Y-108322146D01*
X126527850Y-108322150D01*
X126527853Y-108322152D01*
X126527855Y-108322154D01*
X126637116Y-108402792D01*
X126637117Y-108402792D01*
X126637118Y-108402793D01*
X126765296Y-108447644D01*
X126765297Y-108447645D01*
X126765298Y-108447645D01*
X126765301Y-108447646D01*
X126786745Y-108449657D01*
X126842914Y-108473914D01*
X126874099Y-108526555D01*
X126876500Y-108548224D01*
X126876500Y-109814691D01*
X126857593Y-109872882D01*
X126808093Y-109908846D01*
X126746907Y-109908846D01*
X126723977Y-109897975D01*
X126612057Y-109826049D01*
X126612054Y-109826047D01*
X126612053Y-109826047D01*
X126612050Y-109826046D01*
X126473964Y-109785500D01*
X126473961Y-109785500D01*
X126330039Y-109785500D01*
X126330035Y-109785500D01*
X126188391Y-109827091D01*
X126127231Y-109825343D01*
X126078778Y-109787981D01*
X126061500Y-109732101D01*
X126061500Y-109593105D01*
X126063742Y-109579402D01*
X126062521Y-109579233D01*
X126063784Y-109570149D01*
X126063786Y-109570144D01*
X126061607Y-109523313D01*
X126061500Y-109518712D01*
X126061500Y-109500160D01*
X126061500Y-109500156D01*
X126061469Y-109499993D01*
X126059888Y-109486388D01*
X126058564Y-109457919D01*
X126058564Y-109457918D01*
X126054615Y-109448983D01*
X126047853Y-109427156D01*
X126046061Y-109417567D01*
X126031059Y-109393339D01*
X126024677Y-109381235D01*
X126013154Y-109355158D01*
X126013152Y-109355156D01*
X126013152Y-109355155D01*
X126006243Y-109348250D01*
X125992056Y-109330344D01*
X125986920Y-109322049D01*
X125986919Y-109322048D01*
X125964172Y-109304870D01*
X125953852Y-109295892D01*
X125659281Y-109001500D01*
X124896199Y-108238882D01*
X124868406Y-108184375D01*
X124877959Y-108123940D01*
X124912655Y-108085576D01*
X124977128Y-108044143D01*
X125071377Y-107935373D01*
X125131165Y-107804457D01*
X125144393Y-107712454D01*
X125151647Y-107662002D01*
X125151647Y-107661997D01*
X125131165Y-107519543D01*
X125106872Y-107466350D01*
X125071377Y-107388627D01*
X124977128Y-107279857D01*
X124977127Y-107279856D01*
X124977126Y-107279855D01*
X124856057Y-107202049D01*
X124856054Y-107202047D01*
X124856053Y-107202047D01*
X124856050Y-107202046D01*
X124717964Y-107161500D01*
X124717961Y-107161500D01*
X124574039Y-107161500D01*
X124574035Y-107161500D01*
X124435948Y-107202046D01*
X124393567Y-107229282D01*
X124334391Y-107244834D01*
X124277376Y-107222634D01*
X124269999Y-107215956D01*
X123570580Y-106515666D01*
X123562451Y-106504363D01*
X123561486Y-106505093D01*
X123555958Y-106497772D01*
X123521361Y-106466232D01*
X123518012Y-106463032D01*
X123504946Y-106449950D01*
X123504945Y-106449949D01*
X123504942Y-106449946D01*
X123504938Y-106449943D01*
X123504932Y-106449938D01*
X123504736Y-106449804D01*
X123494046Y-106441331D01*
X123472932Y-106422083D01*
X123472930Y-106422082D01*
X123463879Y-106418575D01*
X123443652Y-106407905D01*
X123435655Y-106402420D01*
X123407844Y-106395860D01*
X123394817Y-106391821D01*
X123368173Y-106381500D01*
X123358473Y-106381500D01*
X123335748Y-106378856D01*
X123326309Y-106376630D01*
X123326307Y-106376630D01*
X123298014Y-106380559D01*
X123284397Y-106381500D01*
X122035479Y-106381500D01*
X121977288Y-106362593D01*
X121965475Y-106352504D01*
X121502565Y-105889594D01*
X121494479Y-105878344D01*
X121493487Y-105879094D01*
X121487957Y-105871770D01*
X121486980Y-105870880D01*
X121486048Y-105869243D01*
X121482429Y-105864450D01*
X121483052Y-105863979D01*
X121456716Y-105817703D01*
X121463488Y-105756894D01*
X121464716Y-105754284D01*
X121490573Y-105701393D01*
X121500500Y-105633260D01*
X121500500Y-105349500D01*
X121519407Y-105291309D01*
X121568907Y-105255345D01*
X121599500Y-105250500D01*
X121721959Y-105250500D01*
X121721961Y-105250500D01*
X121825079Y-105220222D01*
X121886239Y-105221969D01*
X121934692Y-105259332D01*
X121947959Y-105287320D01*
X121953022Y-105304561D01*
X122026945Y-105419589D01*
X122130282Y-105509130D01*
X122130283Y-105509130D01*
X122130284Y-105509131D01*
X122254654Y-105565930D01*
X122254657Y-105565930D01*
X122254658Y-105565931D01*
X122254659Y-105565931D01*
X122254663Y-105565932D01*
X122355984Y-105580500D01*
X122355989Y-105580500D01*
X122424016Y-105580500D01*
X122525336Y-105565932D01*
X122525337Y-105565931D01*
X122525342Y-105565931D01*
X122525343Y-105565930D01*
X122525345Y-105565930D01*
X122587530Y-105537530D01*
X122649718Y-105509130D01*
X122753055Y-105419589D01*
X122826978Y-105304561D01*
X122865500Y-105173367D01*
X122865500Y-105036633D01*
X122826978Y-104905439D01*
X122753055Y-104790411D01*
X122649718Y-104700870D01*
X122649716Y-104700869D01*
X122649715Y-104700868D01*
X122525345Y-104644069D01*
X122525336Y-104644067D01*
X122424016Y-104629500D01*
X122424011Y-104629500D01*
X122355989Y-104629500D01*
X122352699Y-104629973D01*
X122292410Y-104619538D01*
X122249768Y-104575659D01*
X122241061Y-104515097D01*
X122268628Y-104461956D01*
X123098715Y-103632370D01*
X123463830Y-103267475D01*
X123518354Y-103239714D01*
X123533812Y-103238500D01*
X126300500Y-103238500D01*
X126358691Y-103257407D01*
X126394655Y-103306907D01*
X126399500Y-103337500D01*
X126399500Y-104054274D01*
X126402353Y-104084694D01*
X126402355Y-104084703D01*
X126447207Y-104212883D01*
X126527845Y-104322144D01*
X126527847Y-104322146D01*
X126527850Y-104322150D01*
X126527853Y-104322152D01*
X126527855Y-104322154D01*
X126637116Y-104402792D01*
X126637117Y-104402792D01*
X126637118Y-104402793D01*
X126765301Y-104447646D01*
X126795725Y-104450499D01*
X126795727Y-104450500D01*
X126795734Y-104450500D01*
X128204273Y-104450500D01*
X128204273Y-104450499D01*
X128234699Y-104447646D01*
X128362882Y-104402793D01*
X128472150Y-104322150D01*
X128552793Y-104212882D01*
X128597646Y-104084699D01*
X128600499Y-104054273D01*
X128600500Y-104054273D01*
X128600500Y-102881185D01*
X131499500Y-102881185D01*
X131538603Y-103140609D01*
X131538605Y-103140619D01*
X131615937Y-103391325D01*
X131729768Y-103627696D01*
X131729772Y-103627704D01*
X131877567Y-103844479D01*
X131877570Y-103844482D01*
X131877572Y-103844485D01*
X132056017Y-104036803D01*
X132056029Y-104036814D01*
X132261134Y-104200379D01*
X132261143Y-104200386D01*
X132261147Y-104200388D01*
X132261148Y-104200389D01*
X132488344Y-104331561D01*
X132488348Y-104331563D01*
X132488357Y-104331568D01*
X132535321Y-104350000D01*
X132732580Y-104427419D01*
X132732583Y-104427419D01*
X132732584Y-104427420D01*
X132988370Y-104485802D01*
X133053748Y-104490701D01*
X133184498Y-104500500D01*
X133184506Y-104500500D01*
X133315502Y-104500500D01*
X133436193Y-104491455D01*
X133511630Y-104485802D01*
X133767416Y-104427420D01*
X134011643Y-104331568D01*
X134238857Y-104200386D01*
X134443981Y-104036805D01*
X134622433Y-103844479D01*
X134770228Y-103627704D01*
X134884063Y-103391323D01*
X134961396Y-103140615D01*
X135000500Y-102881182D01*
X135000500Y-102618818D01*
X134961396Y-102359385D01*
X134884063Y-102108677D01*
X134883935Y-102108412D01*
X134805590Y-101945727D01*
X134770228Y-101872296D01*
X134622433Y-101655521D01*
X134540212Y-101566908D01*
X134443982Y-101463196D01*
X134443970Y-101463185D01*
X134238865Y-101299620D01*
X134238851Y-101299610D01*
X134011655Y-101168438D01*
X134011646Y-101168433D01*
X134011643Y-101168432D01*
X134011639Y-101168430D01*
X134011636Y-101168429D01*
X133767419Y-101072580D01*
X133511631Y-101014198D01*
X133511625Y-101014197D01*
X133315502Y-100999500D01*
X133315494Y-100999500D01*
X133184506Y-100999500D01*
X133184498Y-100999500D01*
X132988374Y-101014197D01*
X132988368Y-101014198D01*
X132732580Y-101072580D01*
X132488363Y-101168429D01*
X132488344Y-101168438D01*
X132261148Y-101299610D01*
X132261134Y-101299620D01*
X132056029Y-101463185D01*
X132056017Y-101463196D01*
X131877572Y-101655514D01*
X131877567Y-101655520D01*
X131877567Y-101655521D01*
X131729772Y-101872296D01*
X131729770Y-101872299D01*
X131729768Y-101872303D01*
X131615937Y-102108674D01*
X131538605Y-102359380D01*
X131538603Y-102359390D01*
X131499500Y-102618814D01*
X131499500Y-102881185D01*
X128600500Y-102881185D01*
X128600500Y-101945727D01*
X128600499Y-101945725D01*
X128597646Y-101915305D01*
X128597646Y-101915301D01*
X128552793Y-101787118D01*
X128472150Y-101677850D01*
X128472146Y-101677847D01*
X128472144Y-101677845D01*
X128362883Y-101597207D01*
X128234703Y-101552355D01*
X128234694Y-101552353D01*
X128204274Y-101549500D01*
X128204266Y-101549500D01*
X126795734Y-101549500D01*
X126795725Y-101549500D01*
X126765305Y-101552353D01*
X126765296Y-101552355D01*
X126637116Y-101597207D01*
X126527855Y-101677845D01*
X126527845Y-101677855D01*
X126447207Y-101787116D01*
X126402355Y-101915296D01*
X126402353Y-101915305D01*
X126399500Y-101945725D01*
X126399500Y-102338500D01*
X126380593Y-102396691D01*
X126331093Y-102432655D01*
X126300500Y-102437500D01*
X123325494Y-102437500D01*
X123263687Y-102437481D01*
X123240667Y-102444952D01*
X123225598Y-102448568D01*
X123201696Y-102452354D01*
X123201690Y-102452356D01*
X123180262Y-102463273D01*
X123165892Y-102469223D01*
X123143022Y-102476647D01*
X123143015Y-102476650D01*
X123123434Y-102490867D01*
X123110222Y-102498961D01*
X123088657Y-102509949D01*
X123088657Y-102509950D01*
X123044586Y-102554020D01*
X123044567Y-102554040D01*
X121617595Y-103980154D01*
X121563070Y-104007915D01*
X121502640Y-103998325D01*
X121459389Y-103955048D01*
X121449836Y-103894613D01*
X121458672Y-103866648D01*
X121479048Y-103824968D01*
X121490573Y-103801393D01*
X121500500Y-103733260D01*
X121500500Y-103366740D01*
X121490573Y-103298607D01*
X121488978Y-103295345D01*
X121449766Y-103215134D01*
X121439198Y-103193517D01*
X121356483Y-103110802D01*
X121356481Y-103110801D01*
X121251395Y-103059427D01*
X121224139Y-103055456D01*
X121183260Y-103049500D01*
X121183257Y-103049500D01*
X120603521Y-103049500D01*
X120545330Y-103030593D01*
X120533524Y-103020510D01*
X120336568Y-102823590D01*
X120328485Y-102812343D01*
X120327488Y-102813096D01*
X120321957Y-102805771D01*
X120287244Y-102774125D01*
X120283946Y-102770976D01*
X120270775Y-102757808D01*
X120270773Y-102757806D01*
X120270699Y-102757756D01*
X120259946Y-102749240D01*
X120255012Y-102744742D01*
X120238933Y-102730084D01*
X120238931Y-102730083D01*
X120229751Y-102726527D01*
X120209571Y-102715890D01*
X120201455Y-102710331D01*
X120173782Y-102703824D01*
X120160685Y-102699769D01*
X120134174Y-102689500D01*
X120134173Y-102689500D01*
X120124329Y-102689500D01*
X120101671Y-102686872D01*
X120092092Y-102684620D01*
X120092088Y-102684619D01*
X120063943Y-102688549D01*
X120050256Y-102689500D01*
X116209168Y-102689500D01*
X116195489Y-102687267D01*
X116195319Y-102688493D01*
X116186235Y-102687225D01*
X116139346Y-102689394D01*
X116134773Y-102689500D01*
X116116156Y-102689500D01*
X116116151Y-102689500D01*
X116116149Y-102689501D01*
X116116016Y-102689526D01*
X116102430Y-102691100D01*
X116074009Y-102692415D01*
X116074008Y-102692415D01*
X116065014Y-102696386D01*
X116043228Y-102703132D01*
X116033572Y-102704937D01*
X116033565Y-102704939D01*
X116009381Y-102719913D01*
X115997259Y-102726302D01*
X115971238Y-102737792D01*
X115971231Y-102737796D01*
X115964286Y-102744742D01*
X115946406Y-102758905D01*
X115938048Y-102764080D01*
X115920907Y-102786778D01*
X115911909Y-102797118D01*
X114237590Y-104471437D01*
X114226361Y-104479550D01*
X114227090Y-104480515D01*
X114219771Y-104486041D01*
X114188141Y-104520737D01*
X114184989Y-104524038D01*
X114171830Y-104537198D01*
X114171818Y-104537212D01*
X114171749Y-104537314D01*
X114163255Y-104548035D01*
X114144083Y-104569066D01*
X114144083Y-104569067D01*
X114140529Y-104578240D01*
X114129896Y-104598412D01*
X114124346Y-104606515D01*
X114124341Y-104606524D01*
X114117830Y-104634206D01*
X114113777Y-104647296D01*
X114103501Y-104673823D01*
X114103500Y-104673829D01*
X114103500Y-104683651D01*
X114100870Y-104706318D01*
X114098621Y-104715881D01*
X100500000Y-104715881D01*
X100500000Y-102881185D01*
X100999500Y-102881185D01*
X101038603Y-103140609D01*
X101038605Y-103140619D01*
X101115937Y-103391325D01*
X101229768Y-103627696D01*
X101229772Y-103627704D01*
X101377567Y-103844479D01*
X101377570Y-103844482D01*
X101377572Y-103844485D01*
X101556017Y-104036803D01*
X101556029Y-104036814D01*
X101761134Y-104200379D01*
X101761143Y-104200386D01*
X101761147Y-104200388D01*
X101761148Y-104200389D01*
X101988344Y-104331561D01*
X101988348Y-104331563D01*
X101988357Y-104331568D01*
X102035321Y-104350000D01*
X102232580Y-104427419D01*
X102232583Y-104427419D01*
X102232584Y-104427420D01*
X102488370Y-104485802D01*
X102553748Y-104490701D01*
X102684498Y-104500500D01*
X102684506Y-104500500D01*
X102815502Y-104500500D01*
X102936193Y-104491455D01*
X103011630Y-104485802D01*
X103267416Y-104427420D01*
X103511643Y-104331568D01*
X103738857Y-104200386D01*
X103943981Y-104036805D01*
X104122433Y-103844479D01*
X104270228Y-103627704D01*
X104384063Y-103391323D01*
X104461396Y-103140615D01*
X104500500Y-102881182D01*
X104500500Y-102618818D01*
X104461396Y-102359385D01*
X104384063Y-102108677D01*
X104383935Y-102108412D01*
X104305590Y-101945727D01*
X104270228Y-101872296D01*
X104122433Y-101655521D01*
X104040212Y-101566908D01*
X103943982Y-101463196D01*
X103943970Y-101463185D01*
X103738865Y-101299620D01*
X103738851Y-101299610D01*
X103511655Y-101168438D01*
X103511646Y-101168433D01*
X103511643Y-101168432D01*
X103511639Y-101168430D01*
X103511636Y-101168429D01*
X103267419Y-101072580D01*
X103011631Y-101014198D01*
X103011625Y-101014197D01*
X102815502Y-100999500D01*
X102815494Y-100999500D01*
X102684506Y-100999500D01*
X102684498Y-100999500D01*
X102488374Y-101014197D01*
X102488368Y-101014198D01*
X102232580Y-101072580D01*
X101988363Y-101168429D01*
X101988344Y-101168438D01*
X101761148Y-101299610D01*
X101761134Y-101299620D01*
X101556029Y-101463185D01*
X101556017Y-101463196D01*
X101377572Y-101655514D01*
X101377567Y-101655520D01*
X101377567Y-101655521D01*
X101229772Y-101872296D01*
X101229770Y-101872299D01*
X101229768Y-101872303D01*
X101115937Y-102108674D01*
X101038605Y-102359380D01*
X101038603Y-102359390D01*
X100999500Y-102618814D01*
X100999500Y-102881185D01*
X100500000Y-102881185D01*
X100500000Y-102012190D01*
X100507535Y-101974306D01*
X100565711Y-101833858D01*
X100570525Y-101823863D01*
X100575101Y-101815584D01*
X100711583Y-101568636D01*
X100717479Y-101559253D01*
X100886230Y-101321421D01*
X100893149Y-101312745D01*
X101087475Y-101095293D01*
X101095293Y-101087475D01*
X101312748Y-100893146D01*
X101321424Y-100886228D01*
X101559253Y-100717479D01*
X101568636Y-100711583D01*
X101823869Y-100570522D01*
X101833866Y-100565708D01*
X101974307Y-100507536D01*
X102012192Y-100500000D01*
X109452525Y-100500000D01*
X109510716Y-100518907D01*
G37*
%TD.AperFunction*%
%TD*%
M02*
