M48
; DRILL file {KiCad 7.0.11+dfsg-1build4} date Fri Oct  2 11:02:54 2026
; FORMAT={-:-/ absolute / metric / decimal}
; #@! TF.CreationDate,2026-10-02T11:02:54+03:00
; #@! TF.GenerationSoftware,Kicad,Pcbnew,7.0.11+dfsg-1build4
; #@! TF.FileFunction,MixedPlating,1,4
FMAT,2
METRIC
; #@! TA.AperFunction,Plated,PTH,ViaDrill
T1C0.300
; #@! TA.AperFunction,Plated,PTH,ComponentDrill
T2C0.300
; #@! TA.AperFunction,Plated,PTH,ViaDrill
T3C0.400
; #@! TA.AperFunction,Plated,PTH,ComponentDrill
T4C0.600
; #@! TA.AperFunction,Plated,PTH,ComponentDrill
T5C0.650
; #@! TA.AperFunction,Plated,PTH,ComponentDrill
T6C2.100
; #@! TA.AperFunction,NonPlated,NPTH,ComponentDrill
T7C0.650
; #@! TA.AperFunction,NonPlated,NPTH,ComponentDrill
T8C3.200
%
G90
G05
T1
X102.208Y-114.616
X102.5Y-116.8
X103.4Y-122.6
X103.6Y-125.95
X103.705Y-109.476
X104.35Y-109.0
X104.9Y-125.95
X104.9Y-127.3
X106.217Y-112.921
X106.434Y-104.3
X107.32Y-111.895
X109.646Y-101.167
X109.646Y-109.882
X109.85Y-106.371
X111.376Y-104.0
X111.882Y-108.298
X112.371Y-103.003
X112.6Y-102.1
X112.632Y-129.64
X112.812Y-104.409
X113.017Y-114.472
X113.377Y-116.113
X113.392Y-110.115
X113.517Y-118.41
X114.15Y-101.35
X114.325Y-121.584
X115.087Y-122.499
X115.116Y-111.643
X115.267Y-129.64
X115.91Y-107.263
X116.05Y-117.8
X116.086Y-116.606
X116.1Y-118.5
X116.103Y-113.02
X116.15Y-123.633
X116.276Y-109.502
X116.5Y-104.3
X116.716Y-114.858
X117.1Y-107.325
X117.1Y-126.002
X117.154Y-103.753
X117.854Y-120.564
X117.9Y-118.2
X117.955Y-124.044
X118.401Y-109.151
X118.407Y-107.19
X118.508Y-125.334
X118.991Y-108.621
X119.109Y-119.623
X119.479Y-104.141
X119.5Y-125.8
X119.547Y-113.433
X119.909Y-125.129
X120.05Y-121.0
X120.398Y-128.668
X120.6Y-117.05
X120.6Y-118.1
X120.6Y-118.85
X121.195Y-120.396
X121.554Y-125.775
X121.65Y-104.75
X121.716Y-128.289
X121.8Y-107.214
X122.4Y-114.482
X122.805Y-120.49
X123.1Y-112.493
X123.262Y-107.413
X123.343Y-117.547
X123.385Y-113.58
X123.722Y-118.752
X123.844Y-120.572
X124.18Y-116.957
X124.354Y-112.781
X124.646Y-107.662
X124.677Y-115.968
X124.959Y-123.028
X125.135Y-122.004
X125.162Y-110.6
X125.571Y-111.703
X125.702Y-103.57
X125.706Y-127.288
X125.95Y-104.75
X125.973Y-123.0
X126.05Y-105.3
X126.1Y-105.95
X126.15Y-104.0
X126.356Y-111.82
X126.401Y-128.726
X126.402Y-110.286
X126.939Y-126.882
X127.16Y-123.158
X127.977Y-110.029
X128.672Y-114.806
X128.736Y-112.711
X129.25Y-104.0
X129.271Y-126.033
X131.053Y-120.784
X131.261Y-128.353
X131.757Y-111.906
X131.766Y-111.125
X132.874Y-116.644
X134.75Y-129.138
T2
X104.7Y-118.9
X104.7Y-120.1
X105.8Y-118.9
X105.8Y-120.1
X107.1Y-118.9
X107.1Y-120.1
X108.3Y-118.9
X108.3Y-120.1
T3
X106.6Y-126.4
X117.55Y-130.7
X129.4Y-128.05
X130.15Y-116.55
X130.7Y-121.6
X132.35Y-123.25
X132.35Y-125.15
T5
X134.0Y-121.0
X134.0Y-122.27
X134.0Y-123.54
X134.0Y-124.81
T6
X108.5Y-133.0
X114.5Y-133.0
T7
X116.61Y-105.105
X122.39Y-105.105
T8
X102.75Y-102.75
X102.75Y-133.25
X133.25Y-102.75
X133.25Y-133.25
T4
X115.18Y-101.825G85X115.18Y-101.025
G05
X115.18Y-106.155G85X115.18Y-105.055
G05
X123.82Y-101.825G85X123.82Y-101.025
G05
X123.82Y-106.155G85X123.82Y-105.055
G05
M30
