ISO-10303-21;
HEADER;
FILE_DESCRIPTION(('Open CASCADE Model'),'2;1');
FILE_NAME('fin_left','2026-09-28T16:40:33',('Author'),('Open CASCADE'),
  'Open CASCADE STEP processor 8.0','build123d','Unknown');
FILE_SCHEMA(('AUTOMOTIVE_DESIGN { 1 0 10303 214 1 1 1 1 }'));
ENDSEC;
DATA;
#1 = APPLICATION_PROTOCOL_DEFINITION('international standard',
  'automotive_design',2000,#2);
#2 = APPLICATION_CONTEXT(
  'core data for automotive mechanical design processes');
#3 = SHAPE_DEFINITION_REPRESENTATION(#4,#10);
#4 = PRODUCT_DEFINITION_SHAPE('','',#5);
#5 = PRODUCT_DEFINITION('design','',#6,#9);
#6 = PRODUCT_DEFINITION_FORMATION('','',#7);
#7 = PRODUCT('fin_left','fin_left','',(#8));
#8 = PRODUCT_CONTEXT('',#2,'mechanical');
#9 = PRODUCT_DEFINITION_CONTEXT('part definition',#2,'design');
#10 = SHAPE_REPRESENTATION('',(#11,#15),#19);
#11 = AXIS2_PLACEMENT_3D('',#12,#13,#14);
#12 = CARTESIAN_POINT('',(0.,0.,0.));
#13 = DIRECTION('',(0.,0.,1.));
#14 = DIRECTION('',(1.,0.,-0.));
#15 = AXIS2_PLACEMENT_3D('',#16,#17,#18);
#16 = CARTESIAN_POINT('',(0.,9.294532554357,36.509880725182));
#17 = DIRECTION('',(0.,0.422618261741,0.906307787037));
#18 = DIRECTION('',(1.,0.,-0.));
#19 = ( GEOMETRIC_REPRESENTATION_CONTEXT(3) 
GLOBAL_UNCERTAINTY_ASSIGNED_CONTEXT((#23)) GLOBAL_UNIT_ASSIGNED_CONTEXT(
(#20,#21,#22)) REPRESENTATION_CONTEXT('Context #1',
  '3D Context with UNIT and UNCERTAINTY') );
#20 = ( LENGTH_UNIT() NAMED_UNIT(*) SI_UNIT(.MILLI.,.METRE.) );
#21 = ( NAMED_UNIT(*) PLANE_ANGLE_UNIT() SI_UNIT($,.RADIAN.) );
#22 = ( NAMED_UNIT(*) SI_UNIT($,.STERADIAN.) SOLID_ANGLE_UNIT() );
#23 = UNCERTAINTY_MEASURE_WITH_UNIT(LENGTH_MEASURE(1.E-06),#20,
  'distance_accuracy_value','confusion accuracy');
#24 = PRODUCT_RELATED_PRODUCT_CATEGORY('part',$,(#7));
#25 = SHAPE_DEFINITION_REPRESENTATION(#26,#32);
#26 = PRODUCT_DEFINITION_SHAPE('','',#27);
#27 = PRODUCT_DEFINITION('design','',#28,#31);
#28 = PRODUCT_DEFINITION_FORMATION('','',#29);
#29 = PRODUCT('fin_left','fin_left','',(#30));
#30 = PRODUCT_CONTEXT('',#2,'mechanical');
#31 = PRODUCT_DEFINITION_CONTEXT('part definition',#2,'design');
#32 = ADVANCED_BREP_SHAPE_REPRESENTATION('',(#11,#33),#1568);
#33 = MANIFOLD_SOLID_BREP('',#34);
#34 = CLOSED_SHELL('',(#35,#936,#1009,#1057,#1104,#1177,#1277,#1303,
    #1374,#1401,#1449,#1475,#1481,#1534,#1561));
#35 = ADVANCED_FACE('',(#36,#784),#49,.F.);
#36 = FACE_BOUND('',#37,.F.);
#37 = EDGE_LOOP('',(#38,#151,#219,#262,#581,#624,#692,#719));
#38 = ORIENTED_EDGE('',*,*,#39,.F.);
#39 = EDGE_CURVE('',#40,#42,#44,.T.);
#40 = VERTEX_POINT('',#41);
#41 = CARTESIAN_POINT('',(-106.,-0.2,0.));
#42 = VERTEX_POINT('',#43);
#43 = CARTESIAN_POINT('',(-113.,-0.2,42.));
#44 = SURFACE_CURVE('',#45,(#48,#140),.PCURVE_S1.);
#45 = B_SPLINE_CURVE_WITH_KNOTS('',1,(#46,#47),.UNSPECIFIED.,.F.,.F.,(2,
    2),(0.,1.),.PIECEWISE_BEZIER_KNOTS.);
#46 = CARTESIAN_POINT('',(-106.,-0.2,0.));
#47 = CARTESIAN_POINT('',(-113.,-0.2,42.));
#48 = PCURVE('',#49,#134);
#49 = B_SPLINE_SURFACE_WITH_KNOTS('',3,1,(
    (#50,#51)
    ,(#52,#53)
    ,(#54,#55)
    ,(#56,#57)
    ,(#58,#59)
    ,(#60,#61)
    ,(#62,#63)
    ,(#64,#65)
    ,(#66,#67)
    ,(#68,#69)
    ,(#70,#71)
    ,(#72,#73)
    ,(#74,#75)
    ,(#76,#77)
    ,(#78,#79)
    ,(#80,#81)
    ,(#82,#83)
    ,(#84,#85)
    ,(#86,#87)
    ,(#88,#89)
    ,(#90,#91)
    ,(#92,#93)
    ,(#94,#95)
    ,(#96,#97)
    ,(#98,#99)
    ,(#100,#101)
    ,(#102,#103)
    ,(#104,#105)
    ,(#106,#107)
    ,(#108,#109)
    ,(#110,#111)
    ,(#112,#113)
    ,(#114,#115)
    ,(#116,#117)
    ,(#118,#119)
    ,(#120,#121)
    ,(#122,#123)
    ,(#124,#125)
    ,(#126,#127)
    ,(#128,#129)
    ,(#130,#131)
    ,(#132,#133
    )),.UNSPECIFIED.,.F.,.F.,.F.,(4,1,1,1,1,1,1,1,1,1,1,1,1,1,1,1,1,1,1,
    1,1,1,1,1,1,1,1,1,1,1,1,1,1,1,1,1,1,1,1,4),(2,2),(0.,0.196986550478,
    0.1978612898,0.783095739278,0.786573157582,1.743895612986,
    1.751639563339,3.055728090001,3.069297369288,4.686291501015,
    4.707101467192,6.601685717214,6.6247236846,8.761661115295,
    8.774945798297,11.098389492336,11.104822203664,13.553712052508,
    13.567817048188,16.066705902698,16.092368726965,18.575397811083,
    18.612428804717,21.018676226826,21.066634699934,23.338280117575,
    23.396540139648,25.480684729879,25.548525460186,27.398761169839,
    27.475473737174,29.053348589443,29.138356895886,30.415480694352,
    30.508500060899,31.471519654295,31.513094542362,32.101806410144,
    32.102681149467,32.299667699944),(0.,1.),.UNSPECIFIED.);
#50 = CARTESIAN_POINT('',(-106.,-0.2,0.));
#51 = CARTESIAN_POINT('',(-113.,-0.2,42.));
#52 = CARTESIAN_POINT('',(-105.9343378165,-0.2,0.));
#53 = CARTESIAN_POINT('',(-112.9652711819,-0.2,42.));
#54 = CARTESIAN_POINT('',(-105.8683839838,-0.200002640181,0.));
#55 = CARTESIAN_POINT('',(-112.9303881485,-0.199999967017,42.));
#56 = CARTESIAN_POINT('',(-105.6073523477,-0.199992098067,0.));
#57 = CARTESIAN_POINT('',(-112.792328009,-0.200000096977,42.));
#58 = CARTESIAN_POINT('',(-105.4108249107,-0.199937590036,0.));
#59 = CARTESIAN_POINT('',(-112.6883835912,-0.200000779677,42.));
#60 = CARTESIAN_POINT('',(-104.8954757793,-0.200103435223,0.));
#61 = CARTESIAN_POINT('',(-112.4158171353,-0.199998744301,42.));
#62 = CARTESIAN_POINT('',(-104.5726169339,-0.200518490198,0.));
#63 = CARTESIAN_POINT('',(-112.2450626648,-0.19999352525,42.));
#64 = CARTESIAN_POINT('',(-103.8162645029,-0.199279627717,0.));
#65 = CARTESIAN_POINT('',(-111.8450089161,-0.200008626338,42.));
#66 = CARTESIAN_POINT('',(-103.3745279033,-0.196844050175,0.));
#67 = CARTESIAN_POINT('',(-111.6113385471,-0.200039380011,42.));
#68 = CARTESIAN_POINT('',(-102.3961220864,-0.204019346527,0.));
#69 = CARTESIAN_POINT('',(-111.0939621437,-0.199952584387,42.));
#70 = CARTESIAN_POINT('',(-101.8453366421,-0.216491209034,0.));
#71 = CARTESIAN_POINT('',(-110.802831672,-0.19979441134,42.));
#72 = CARTESIAN_POINT('',(-100.6688323654,-0.180006287774,0.));
#73 = CARTESIAN_POINT('',(-110.1800495217,-0.200232132424,42.));
#74 = CARTESIAN_POINT('',(-100.0242964677,-0.119708343677,0.));
#75 = CARTESIAN_POINT('',(-109.8382681091,-0.200978738645,42.));
#76 = CARTESIAN_POINT('',(-98.68169347265,4.127862178156E-02,0.));
#77 = CARTESIAN_POINT('',(-109.123543081,-0.198934413471,42.));
#78 = CARTESIAN_POINT('',(-97.96535323111,0.148278127219,0.));
#79 = CARTESIAN_POINT('',(-108.7405511167,-0.195627295786,42.));
#80 = CARTESIAN_POINT('',(-96.48756938615,0.3465627504,0.));
#81 = CARTESIAN_POINT('',(-107.9514186838,-0.204668499694,42.));
#82 = CARTESIAN_POINT('',(-95.71174457307,0.437961947278,0.));
#83 = CARTESIAN_POINT('',(-107.5376711404,-0.218497283101,42.));
#84 = CARTESIAN_POINT('',(-94.12885503155,0.617495689106,0.));
#85 = CARTESIAN_POINT('',(-106.6969431269,-0.180662813926,42.));
#86 = CARTESIAN_POINT('',(-93.31055176651,0.706518315356,0.));
#87 = CARTESIAN_POINT('',(-106.2641858982,-0.12502209662,42.));
#88 = CARTESIAN_POINT('',(-91.66473129116,0.870239494831,0.));
#89 = CARTESIAN_POINT('',(-105.393852227,-3.073766099404E-02,42.));
#90 = CARTESIAN_POINT('',(-90.8218518223,0.94608821757,0.));
#91 = CARTESIAN_POINT('',(-104.94814037,8.086260745783E-03,42.));
#92 = CARTESIAN_POINT('',(-89.15783528796,1.078111535159,0.));
#93 = CARTESIAN_POINT('',(-104.0681756105,7.785505113076E-02,42.));
#94 = CARTESIAN_POINT('',(-88.31118098689,1.136313146671,0.));
#95 = CARTESIAN_POINT('',(-103.6204287842,0.109943521659,42.));
#96 = CARTESIAN_POINT('',(-86.67149615104,1.226133342599,0.));
#97 = CARTESIAN_POINT('',(-102.7532568164,0.159165745649,42.));
#98 = CARTESIAN_POINT('',(-85.84167333339,1.260319842207,0.));
#99 = CARTESIAN_POINT('',(-102.3143731644,0.177699747411,42.));
#100 = CARTESIAN_POINT('',(-84.26669262632,1.297168621371,0.));
#101 = CARTESIAN_POINT('',(-101.4814209632,0.198035571403,42.));
#102 = CARTESIAN_POINT('',(-83.47385082442,1.302292033048,0.));
#103 = CARTESIAN_POINT('',(-101.0621270599,0.201192797734,42.));
#104 = CARTESIAN_POINT('',(-82.00269248856,1.277920546722,0.));
#105 = CARTESIAN_POINT('',(-100.2839064187,0.189047632712,42.));
#106 = CARTESIAN_POINT('',(-81.26633431359,1.249964373171,0.));
#107 = CARTESIAN_POINT('',(-99.89428831074,0.174618805093,42.));
#108 = CARTESIAN_POINT('',(-79.93464659957,1.160787373092,0.));
#109 = CARTESIAN_POINT('',(-99.19030414053,0.127639806724,42.));
#110 = CARTESIAN_POINT('',(-79.27177816156,1.098880182438,0.));
#111 = CARTESIAN_POINT('',(-98.84011975279,9.487919202349E-02,42.));
#112 = CARTESIAN_POINT('',(-78.11473071894,0.943326953599,0.));
#113 = CARTESIAN_POINT('',(-98.22697052244,1.36165132761E-02,42.));
#114 = CARTESIAN_POINT('',(-77.54364527295,0.845870154777,0.));
#115 = CARTESIAN_POINT('',(-97.92355770177,-3.694681904975E-02,42.));
#116 = CARTESIAN_POINT('',(-76.58274328346,0.635917696791,0.));
#117 = CARTESIAN_POINT('',(-97.4185882231,-0.14927690922,42.));
#118 = CARTESIAN_POINT('',(-76.11015461745,0.51188314961,0.));
#119 = CARTESIAN_POINT('',(-97.17195899512,-0.215978169548,42.));
#120 = CARTESIAN_POINT('',(-75.38828552053,0.237551450908,0.));
#121 = CARTESIAN_POINT('',(-96.7804445121,-0.353684048072,42.));
#122 = CARTESIAN_POINT('',(-75.06033751521,8.170671918489E-02,0.));
#123 = CARTESIAN_POINT('',(-96.59764686723,-0.429958541635,42.));
#124 = CARTESIAN_POINT('',(-74.58095405584,-0.17333160472,0.));
#125 = CARTESIAN_POINT('',(-96.32104965429,-0.460619978171,42.));
#126 = CARTESIAN_POINT('',(-74.38929984666,-0.275667253128,0.));
#127 = CARTESIAN_POINT('',(-96.2085439606,-0.451839120432,42.));
#128 = CARTESIAN_POINT('',(-74.1331129599,-0.308081922248,0.));
#129 = CARTESIAN_POINT('',(-96.06952432019,-0.449378211273,42.));
#130 = CARTESIAN_POINT('',(-74.06720368852,-0.308193889891,-0.));
#131 = CARTESIAN_POINT('',(-96.03465429864,-0.449473967935,42.));
#132 = CARTESIAN_POINT('',(-74.,-0.3,0.));
#133 = CARTESIAN_POINT('',(-96.,-0.45,42.));
#134 = DEFINITIONAL_REPRESENTATION('',(#135),#139);
#135 = LINE('',#136,#137);
#136 = CARTESIAN_POINT('',(0.,0.));
#137 = VECTOR('',#138,1.);
#138 = DIRECTION('',(0.,1.));
#139 = ( GEOMETRIC_REPRESENTATION_CONTEXT(2) 
PARAMETRIC_REPRESENTATION_CONTEXT() REPRESENTATION_CONTEXT('2D SPACE',''
  ) );
#140 = PCURVE('',#141,#146);
#141 = PLANE('',#142);
#142 = AXIS2_PLACEMENT_3D('',#143,#144,#145);
#143 = CARTESIAN_POINT('',(-113.,-1.1,42.));
#144 = DIRECTION('',(0.986393923832,-0.,0.164398987305));
#145 = DIRECTION('',(0.,1.,0.));
#146 = DEFINITIONAL_REPRESENTATION('',(#147),#150);
#147 = B_SPLINE_CURVE_WITH_KNOTS('',1,(#148,#149),.UNSPECIFIED.,.F.,.F.,
  (2,2),(0.,1.),.PIECEWISE_BEZIER_KNOTS.);
#148 = CARTESIAN_POINT('',(0.9,-42.57933771208));
#149 = CARTESIAN_POINT('',(0.9,0.));
#150 = ( GEOMETRIC_REPRESENTATION_CONTEXT(2) 
PARAMETRIC_REPRESENTATION_CONTEXT() REPRESENTATION_CONTEXT('2D SPACE',''
  ) );
#151 = ORIENTED_EDGE('',*,*,#152,.T.);
#152 = EDGE_CURVE('',#40,#153,#155,.T.);
#153 = VERTEX_POINT('',#154);
#154 = CARTESIAN_POINT('',(-100.,-0.11097589296,0.));
#155 = SURFACE_CURVE('',#156,(#180,#187),.PCURVE_S1.);
#156 = B_SPLINE_CURVE_WITH_KNOTS('',3,(#157,#158,#159,#160,#161,#162,
    #163,#164,#165,#166,#167,#168,#169,#170,#171,#172,#173,#174,#175,
    #176,#177,#178,#179),.UNSPECIFIED.,.F.,.F.,(4,1,1,1,1,1,1,1,1,1,1,1,
    1,1,1,1,1,1,1,1,4),(0.,0.196986550478,0.783095739278,1.743895612986,
    3.055728090001,4.686291501015,6.601685717214,8.761661115295,
    11.098389492336,13.553712052508,16.066705902698,18.575397811083,
    21.018676226826,23.338280117575,25.480684729879,27.398761169839,
    29.053348589443,30.415480694352,31.471519654295,32.102681149467,
    32.299667699944),.UNSPECIFIED.);
#157 = CARTESIAN_POINT('',(-106.,-0.2,0.));
#158 = CARTESIAN_POINT('',(-105.9343378165,-0.2,0.));
#159 = CARTESIAN_POINT('',(-105.6733056288,-0.200010449311,0.));
#160 = CARTESIAN_POINT('',(-105.0920113404,-0.199848706432,0.));
#161 = CARTESIAN_POINT('',(-104.139065046,-0.201083815518,0.));
#162 = CARTESIAN_POINT('',(-102.8381908056,-0.193813005459,0.));
#163 = CARTESIAN_POINT('',(-101.2179446884,-0.231220729123,0.));
#164 = CARTESIAN_POINT('',(-99.32061596688,-5.426125024456E-02,0.));
#165 = CARTESIAN_POINT('',(-97.2071380353,0.261773030809,0.));
#166 = CARTESIAN_POINT('',(-94.90531496199,0.533006266396,0.));
#167 = CARTESIAN_POINT('',(-92.4846215681,0.79641069899,0.));
#168 = CARTESIAN_POINT('',(-90.00213269872,1.019951786217,0.));
#169 = CARTESIAN_POINT('',(-87.51946145482,1.190971541117,0.));
#170 = CARTESIAN_POINT('',(-85.09734291506,1.291407314705,0.));
#171 = CARTESIAN_POINT('',(-82.794920934,1.307376681462,0.));
#172 = CARTESIAN_POINT('',(-80.66928003886,1.228342452161,0.));
#173 = CARTESIAN_POINT('',(-78.76972602723,1.053664150591,0.));
#174 = CARTESIAN_POINT('',(-77.14937009371,0.780707184991,0.));
#175 = CARTESIAN_POINT('',(-75.82277787782,0.441724622723,0.));
#176 = CARTESIAN_POINT('',(-74.91228043605,1.387095050353E-02,0.));
#177 = CARTESIAN_POINT('',(-74.34306681639,-0.307725249538,0.));
#178 = CARTESIAN_POINT('',(-74.06720368852,-0.308193889891,-0.));
#179 = CARTESIAN_POINT('',(-74.,-0.3,0.));
#180 = PCURVE('',#49,#181);
#181 = DEFINITIONAL_REPRESENTATION('',(#182),#186);
#182 = LINE('',#183,#184);
#183 = CARTESIAN_POINT('',(0.,0.));
#184 = VECTOR('',#185,1.);
#185 = DIRECTION('',(1.,0.));
#186 = ( GEOMETRIC_REPRESENTATION_CONTEXT(2) 
PARAMETRIC_REPRESENTATION_CONTEXT() REPRESENTATION_CONTEXT('2D SPACE',''
  ) );
#187 = PCURVE('',#188,#193);
#188 = PLANE('',#189);
#189 = AXIS2_PLACEMENT_3D('',#190,#191,#192);
#190 = CARTESIAN_POINT('',(-106.,-0.2,0.));
#191 = DIRECTION('',(-0.,0.,1.));
#192 = DIRECTION('',(0.999604726673,-2.811388293767E-02,0.));
#193 = DEFINITIONAL_REPRESENTATION('',(#194),#218);
#194 = B_SPLINE_CURVE_WITH_KNOTS('',3,(#195,#196,#197,#198,#199,#200,
    #201,#202,#203,#204,#205,#206,#207,#208,#209,#210,#211,#212,#213,
    #214,#215,#216,#217),.UNSPECIFIED.,.F.,.F.,(4,1,1,1,1,1,1,1,1,1,1,1,
    1,1,1,1,1,1,1,1,4),(0.,0.196986550478,0.783095739278,1.743895612986,
    3.055728090001,4.686291501015,6.601685717214,8.761661115295,
    11.098389492336,13.553712052508,16.066705902698,18.575397811083,
    21.018676226826,23.338280117575,25.480684729879,27.398761169839,
    29.053348589443,30.415480694352,31.471519654295,32.102681149467,
    32.299667699944),.UNSPECIFIED.);
#195 = CARTESIAN_POINT('',(0.,0.));
#196 = CARTESIAN_POINT('',(6.563622898284E-02,1.846018940142E-03));
#197 = CARTESIAN_POINT('',(0.326565531302,9.174202124602E-03));
#198 = CARTESIAN_POINT('',(0.907625502422,2.567832064946E-02));
#199 = CARTESIAN_POINT('',(1.860229846296,5.123472033642E-02));
#200 = CARTESIAN_POINT('',(3.160385475068,9.507528254845E-02));
#201 = CARTESIAN_POINT('',(4.781042828531,0.103233754828));
#202 = CARTESIAN_POINT('',(6.672646568614,0.333464563918));
#203 = CARTESIAN_POINT('',(8.776404147961,0.708791996209));
#204 = CARTESIAN_POINT('',(11.069691952571,1.044631204959));
#205 = CARTESIAN_POINT('',(13.482023189543,1.37598661151));
#206 = CARTESIAN_POINT('',(15.957246189325,1.669231740376));
#207 = CARTESIAN_POINT('',(18.434128070137,1.909981424452));
#208 = CARTESIAN_POINT('',(20.852465571456,2.078472655545));
#209 = CARTESIAN_POINT('',(23.153528505615,2.159165732086));
#210 = CARTESIAN_POINT('',(25.28055115068,2.139922762201));
#211 = CARTESIAN_POINT('',(27.184265204594,2.018717345421));
#212 = CARTESIAN_POINT('',(28.811654534806,1.791422769462));
#213 = CARTESIAN_POINT('',(30.147252500254,1.489869856222));
#214 = CARTESIAN_POINT('',(31.06941867473,1.087782921641));
#215 = CARTESIAN_POINT('',(31.647448617347,0.782316645069));
#216 = CARTESIAN_POINT('',(31.923215879182,0.789603773642));
#217 = CARTESIAN_POINT('',(31.990162641816,0.799683781338));
#218 = ( GEOMETRIC_REPRESENTATION_CONTEXT(2) 
PARAMETRIC_REPRESENTATION_CONTEXT() REPRESENTATION_CONTEXT('2D SPACE',''
  ) );
#219 = ORIENTED_EDGE('',*,*,#220,.T.);
#220 = EDGE_CURVE('',#153,#221,#223,.T.);
#221 = VERTEX_POINT('',#222);
#222 = CARTESIAN_POINT('',(-100.,-4.170695937817E-02,3.));
#223 = SURFACE_CURVE('',#224,(#233,#245),.PCURVE_S1.);
#224 = B_SPLINE_CURVE_WITH_KNOTS('',7,(#225,#226,#227,#228,#229,#230,
    #231,#232),.UNSPECIFIED.,.F.,.F.,(8,8),(0.,1.),
  .PIECEWISE_BEZIER_KNOTS.);
#225 = CARTESIAN_POINT('',(-100.,-0.11097589296,0.));
#226 = CARTESIAN_POINT('',(-100.,-0.101895246357,0.429414596061));
#227 = CARTESIAN_POINT('',(-100.,-9.247973640613E-02,0.858562140502));
#228 = CARTESIAN_POINT('',(-100.,-8.276635493465E-02,1.28743476701));
#229 = CARTESIAN_POINT('',(-100.,-7.27927440179E-02,1.716023079922));
#230 = CARTESIAN_POINT('',(-100.,-6.259816273959E-02,2.144320535319));
#231 = CARTESIAN_POINT('',(-100.,-5.22229001684E-02,2.572314629568));
#232 = CARTESIAN_POINT('',(-100.,-4.170695937817E-02,3.));
#233 = PCURVE('',#49,#234);
#234 = DEFINITIONAL_REPRESENTATION('',(#235),#244);
#235 = B_SPLINE_CURVE_WITH_KNOTS('',7,(#236,#237,#238,#239,#240,#241,
    #242,#243),.UNSPECIFIED.,.F.,.F.,(8,8),(0.,1.),
  .PIECEWISE_BEZIER_KNOTS.);
#236 = CARTESIAN_POINT('',(6.003049683299,0.));
#237 = CARTESIAN_POINT('',(6.103927568672,1.022415704906E-02));
#238 = CARTESIAN_POINT('',(6.205912765078,2.044195572625E-02));
#239 = CARTESIAN_POINT('',(6.309025422709,3.065320873834E-02));
#240 = CARTESIAN_POINT('',(6.413291441028,4.08576923791E-02));
#241 = CARTESIAN_POINT('',(6.518724141824,5.105525084094E-02));
#242 = CARTESIAN_POINT('',(6.625360782817,6.124558641829E-02));
#243 = CARTESIAN_POINT('',(6.733208911522,7.142857142857E-02));
#244 = ( GEOMETRIC_REPRESENTATION_CONTEXT(2) 
PARAMETRIC_REPRESENTATION_CONTEXT() REPRESENTATION_CONTEXT('2D SPACE',''
  ) );
#245 = PCURVE('',#246,#251);
#246 = PLANE('',#247);
#247 = AXIS2_PLACEMENT_3D('',#248,#249,#250);
#248 = CARTESIAN_POINT('',(-100.,-1.1,-3.));
#249 = DIRECTION('',(1.,0.,-0.));
#250 = DIRECTION('',(0.,0.,1.));
#251 = DEFINITIONAL_REPRESENTATION('',(#252),#261);
#252 = B_SPLINE_CURVE_WITH_KNOTS('',7,(#253,#254,#255,#256,#257,#258,
    #259,#260),.UNSPECIFIED.,.F.,.F.,(8,8),(0.,1.),
  .PIECEWISE_BEZIER_KNOTS.);
#253 = CARTESIAN_POINT('',(3.,-0.98902410704));
#254 = CARTESIAN_POINT('',(3.429414596061,-0.998104753643));
#255 = CARTESIAN_POINT('',(3.858562140502,-1.007520263594));
#256 = CARTESIAN_POINT('',(4.28743476701,-1.017233645065));
#257 = CARTESIAN_POINT('',(4.716023079922,-1.027207255982));
#258 = CARTESIAN_POINT('',(5.144320535319,-1.03740183726));
#259 = CARTESIAN_POINT('',(5.572314629568,-1.047777099832));
#260 = CARTESIAN_POINT('',(6.,-1.058293040622));
#261 = ( GEOMETRIC_REPRESENTATION_CONTEXT(2) 
PARAMETRIC_REPRESENTATION_CONTEXT() REPRESENTATION_CONTEXT('2D SPACE',''
  ) );
#262 = ORIENTED_EDGE('',*,*,#263,.F.);
#263 = EDGE_CURVE('',#264,#221,#266,.T.);
#264 = VERTEX_POINT('',#265);
#265 = CARTESIAN_POINT('',(-88.72849445749,1.1,3.));
#266 = SURFACE_CURVE('',#267,(#368,#472),.PCURVE_S1.);
#267 = B_SPLINE_CURVE_WITH_KNOTS('',8,(#268,#269,#270,#271,#272,#273,
    #274,#275,#276,#277,#278,#279,#280,#281,#282,#283,#284,#285,#286,
    #287,#288,#289,#290,#291,#292,#293,#294,#295,#296,#297,#298,#299,
    #300,#301,#302,#303,#304,#305,#306,#307,#308,#309,#310,#311,#312,
    #313,#314,#315,#316,#317,#318,#319,#320,#321,#322,#323,#324,#325,
    #326,#327,#328,#329,#330,#331,#332,#333,#334,#335,#336,#337,#338,
    #339,#340,#341,#342,#343,#344,#345,#346,#347,#348,#349,#350,#351,
    #352,#353,#354,#355,#356,#357,#358,#359,#360,#361,#362,#363,#364,
    #365,#366,#367),.UNSPECIFIED.,.F.,.F.,(9,7,7,7,7,7,7,7,7,7,7,7,7,7,9
    ),(0.,0.133719885753,0.23563011515,0.389871911811,0.466992854712,
    0.546868021286,0.623987560342,0.692841415124,0.761690358298,
    0.825026278834,0.863576873183,0.907635233519,0.954450109009,
    0.976481762962,1.),.UNSPECIFIED.);
#268 = CARTESIAN_POINT('',(-88.72849445749,1.1,3.));
#269 = CARTESIAN_POINT('',(-88.91761795212,1.089347299637,3.));
#270 = CARTESIAN_POINT('',(-89.10671500001,1.078231036254,3.));
#271 = CARTESIAN_POINT('',(-89.29578520515,1.066663586593,3.));
#272 = CARTESIAN_POINT('',(-89.48482822788,1.054657324613,3.));
#273 = CARTESIAN_POINT('',(-89.67384378488,1.042224621493,3.));
#274 = CARTESIAN_POINT('',(-89.86283164918,1.029377845629,3.));
#275 = CARTESIAN_POINT('',(-90.05179165015,1.016129362633,3.));
#276 = CARTESIAN_POINT('',(-90.38471202447,0.992097912131,3.));
#277 = CARTESIAN_POINT('',(-90.52868406841,0.981477553653,3.));
#278 = CARTESIAN_POINT('',(-90.67263995485,0.970639161342,3.));
#279 = CARTESIAN_POINT('',(-90.81657927722,0.959581413826,3.));
#280 = CARTESIAN_POINT('',(-90.96050230402,0.948314959733,3.));
#281 = CARTESIAN_POINT('',(-91.10440925678,0.936849454136,3.));
#282 = CARTESIAN_POINT('',(-91.24829957566,0.92518019455,3.));
#283 = CARTESIAN_POINT('',(-91.60992664965,0.895341649322,3.));
#284 = CARTESIAN_POINT('',(-91.82764172168,0.876911728178,3.));
#285 = CARTESIAN_POINT('',(-92.0453175256,0.858022238574,3.));
#286 = CARTESIAN_POINT('',(-92.26295327071,0.838676269706,3.));
#287 = CARTESIAN_POINT('',(-92.48054817904,0.81887691031,3.));
#288 = CARTESIAN_POINT('',(-92.6981014853,0.798627248657,3.));
#289 = CARTESIAN_POINT('',(-92.91561243694,0.777930372555,3.));
#290 = CARTESIAN_POINT('',(-93.24181428553,0.746218861639,3.));
#291 = CARTESIAN_POINT('',(-93.3505374481,0.735536717724,3.));
#292 = CARTESIAN_POINT('',(-93.45925011503,0.724747582386,3.));
#293 = CARTESIAN_POINT('',(-93.56795100089,0.713840248335,3.));
#294 = CARTESIAN_POINT('',(-93.67664104161,0.702825138179,3.));
#295 = CARTESIAN_POINT('',(-93.78532156635,0.691716374609,3.));
#296 = CARTESIAN_POINT('',(-93.89399218592,0.680511164726,3.));
#297 = CARTESIAN_POINT('',(-94.11519601476,0.657524014575,3.));
#298 = CARTESIAN_POINT('',(-94.22772851154,0.64573507424,3.));
#299 = CARTESIAN_POINT('',(-94.34025184727,0.633859019656,3.));
#300 = CARTESIAN_POINT('',(-94.45276660554,0.621902465997,3.));
#301 = CARTESIAN_POINT('',(-94.56527337871,0.609872027385,3.));
#302 = CARTESIAN_POINT('',(-94.67777276793,0.597774316887,3.));
#303 = CARTESIAN_POINT('',(-94.79026538311,0.585615946521,3.));
#304 = CARTESIAN_POINT('',(-95.01135761254,0.561612426393,3.));
#305 = CARTESIAN_POINT('',(-95.11995764104,0.549770942009,3.));
#306 = CARTESIAN_POINT('',(-95.22855248517,0.537885024092,3.));
#307 = CARTESIAN_POINT('',(-95.33714270523,0.525960622329,3.));
#308 = CARTESIAN_POINT('',(-95.44572886515,0.514003686099,3.));
#309 = CARTESIAN_POINT('',(-95.55431153249,0.50202016447,3.));
#310 = CARTESIAN_POINT('',(-95.6628912784,0.490016006206,3.));
#311 = CARTESIAN_POINT('',(-95.86840873428,0.467266495157,3.));
#312 = CARTESIAN_POINT('',(-95.96534703347,0.456525143209,3.));
#313 = CARTESIAN_POINT('',(-96.06228361303,0.445773884741,3.));
#314 = CARTESIAN_POINT('',(-96.15921575081,0.434989771424,3.));
#315 = CARTESIAN_POINT('',(-96.25614423171,0.424180156075,3.));
#316 = CARTESIAN_POINT('',(-96.3530666327,0.413324716881,3.));
#317 = CARTESIAN_POINT('',(-96.44998258663,0.402421002271,3.));
#318 = CARTESIAN_POINT('',(-96.64379214827,0.380497282765,3.));
#319 = CARTESIAN_POINT('',(-96.74068577857,0.369477543969,3.));
#320 = CARTESIAN_POINT('',(-96.83757065332,0.358391102219,3.));
#321 = CARTESIAN_POINT('',(-96.93444569613,0.347229525308,3.));
#322 = CARTESIAN_POINT('',(-97.03130981568,0.335984381743,3.));
#323 = CARTESIAN_POINT('',(-97.12816190575,0.324647240749,3.));
#324 = CARTESIAN_POINT('',(-97.22500084517,0.313209672263,3.));
#325 = CARTESIAN_POINT('',(-97.41089699589,0.291041392154,3.));
#326 = CARTESIAN_POINT('',(-97.49995639856,0.280327416697,3.));
#327 = CARTESIAN_POINT('',(-97.58900282078,0.269514758072,3.));
#328 = CARTESIAN_POINT('',(-97.6780353607,0.258596855594,3.));
#329 = CARTESIAN_POINT('',(-97.76705309968,0.247567150395,3.));
#330 = CARTESIAN_POINT('',(-97.85605510229,0.236419085421,3.));
#331 = CARTESIAN_POINT('',(-97.94504041632,0.225146105432,3.));
#332 = CARTESIAN_POINT('',(-98.08815990332,0.20680012586,3.));
#333 = CARTESIAN_POINT('',(-98.14230504137,0.19980884793,3.));
#334 = CARTESIAN_POINT('',(-98.19644393828,0.192771195857,3.));
#335 = CARTESIAN_POINT('',(-98.25057733478,0.185692568167,3.));
#336 = CARTESIAN_POINT('',(-98.30470598996,0.178578445499,3.));
#337 = CARTESIAN_POINT('',(-98.35883056861,0.17143358431,3.));
#338 = CARTESIAN_POINT('',(-98.41295168685,0.164262348033,3.));
#339 = CARTESIAN_POINT('',(-98.52892050523,0.148850449804,3.));
#340 = CARTESIAN_POINT('',(-98.59076735325,0.140603204551,3.));
#341 = CARTESIAN_POINT('',(-98.65261170927,0.132335795949,3.));
#342 = CARTESIAN_POINT('',(-98.71445462363,0.124055579537,3.));
#343 = CARTESIAN_POINT('',(-98.77629714799,0.115769910398,3.));
#344 = CARTESIAN_POINT('',(-98.83814033528,0.107486143161,3.));
#345 = CARTESIAN_POINT('',(-98.89998523975,9.921163200352E-02,3.));
#346 = CARTESIAN_POINT('',(-99.02755009945,8.217917297152E-02,3.));
#347 = CARTESIAN_POINT('',(-99.09327040244,7.342336929487E-02,3.));
#348 = CARTESIAN_POINT('',(-99.15899509305,6.469514191239E-02,3.));
#349 = CARTESIAN_POINT('',(-99.22472542589,5.600331338488E-02,3.));
#350 = CARTESIAN_POINT('',(-99.290462643,4.735670653818E-02,3.));
#351 = CARTESIAN_POINT('',(-99.35620797388,3.876414446312E-02,3.));
#352 = CARTESIAN_POINT('',(-99.42196263547,3.023445051556E-02,3.));
#353 = CARTESIAN_POINT('',(-99.51867773943,1.779600885907E-02,3.));
#354 = CARTESIAN_POINT('',(-99.54963024501,1.383141322349E-02,3.));
#355 = CARTESIAN_POINT('',(-99.58058548849,9.883579680864E-03,3.));
#356 = CARTESIAN_POINT('',(-99.61154360946,5.953426502431E-03,3.));
#357 = CARTESIAN_POINT('',(-99.64250474752,2.041871959415E-03,3.));
#358 = CARTESIAN_POINT('',(-99.67346904227,-1.850165676952E-03,3.));
#359 = CARTESIAN_POINT('',(-99.70443663331,-5.721768135443E-03,3.));
#360 = CARTESIAN_POINT('',(-99.76846845332,-1.368206122274E-02,3.));
#361 = CARTESIAN_POINT('',(-99.80153286464,-1.776773523465E-02,3.));
#362 = CARTESIAN_POINT('',(-99.83460073825,-2.182788482335E-02,3.));
#363 = CARTESIAN_POINT('',(-99.86767226334,-2.586139643655E-02,3.));
#364 = CARTESIAN_POINT('',(-99.9007477824,-2.986717481111E-02,3.));
#365 = CARTESIAN_POINT('',(-99.93382759943,-3.384412045727E-02,3.));
#366 = CARTESIAN_POINT('',(-99.96691178811,-3.7791107143E-02,3.));
#367 = CARTESIAN_POINT('',(-100.,-4.170695937817E-02,3.));
#368 = PCURVE('',#49,#369);
#369 = DEFINITIONAL_REPRESENTATION('',(#370),#471);
#370 = B_SPLINE_CURVE_WITH_KNOTS('',8,(#371,#372,#373,#374,#375,#376,
    #377,#378,#379,#380,#381,#382,#383,#384,#385,#386,#387,#388,#389,
    #390,#391,#392,#393,#394,#395,#396,#397,#398,#399,#400,#401,#402,
    #403,#404,#405,#406,#407,#408,#409,#410,#411,#412,#413,#414,#415,
    #416,#417,#418,#419,#420,#421,#422,#423,#424,#425,#426,#427,#428,
    #429,#430,#431,#432,#433,#434,#435,#436,#437,#438,#439,#440,#441,
    #442,#443,#444,#445,#446,#447,#448,#449,#450,#451,#452,#453,#454,
    #455,#456,#457,#458,#459,#460,#461,#462,#463,#464,#465,#466,#467,
    #468,#469,#470),.UNSPECIFIED.,.F.,.F.,(9,7,7,7,7,7,7,7,7,7,7,7,7,7,9
    ),(0.,0.133719885753,0.23563011515,0.389871911811,0.466992854712,
    0.546868021286,0.623987560342,0.692841415124,0.761690358298,
    0.825026278834,0.863576873183,0.907635233519,0.954450109009,
    0.976481762962,1.),.UNSPECIFIED.);
#371 = CARTESIAN_POINT('',(18.46084391838,7.142857142857E-02));
#372 = CARTESIAN_POINT('',(18.264829298453,7.142857142857E-02));
#373 = CARTESIAN_POINT('',(18.068814361941,7.142857142857E-02));
#374 = CARTESIAN_POINT('',(17.87279932667,7.142857142857E-02));
#375 = CARTESIAN_POINT('',(17.676784352098,7.142857142857E-02));
#376 = CARTESIAN_POINT('',(17.480769539314,7.142857142857E-02));
#377 = CARTESIAN_POINT('',(17.28475493104,7.142857142857E-02));
#378 = CARTESIAN_POINT('',(17.08874051163,7.142857142857E-02));
#379 = CARTESIAN_POINT('',(16.743340327548,7.142857142857E-02));
#380 = CARTESIAN_POINT('',(16.593954557188,7.142857142857E-02));
#381 = CARTESIAN_POINT('',(16.444568745025,7.142857142857E-02));
#382 = CARTESIAN_POINT('',(16.295183041649,7.142857142857E-02));
#383 = CARTESIAN_POINT('',(16.145797221171,7.142857142857E-02));
#384 = CARTESIAN_POINT('',(15.996411085509,7.142857142857E-02));
#385 = CARTESIAN_POINT('',(15.847024861606,7.142857142857E-02));
#386 = CARTESIAN_POINT('',(15.471541273153,7.142857142857E-02));
#387 = CARTESIAN_POINT('',(15.245443765373,7.142857142857E-02));
#388 = CARTESIAN_POINT('',(15.019346071093,7.142857142857E-02));
#389 = CARTESIAN_POINT('',(14.793248269427,7.142857142857E-02));
#390 = CARTESIAN_POINT('',(14.567150426339,7.142857142857E-02));
#391 = CARTESIAN_POINT('',(14.341052594645,7.142857142857E-02));
#392 = CARTESIAN_POINT('',(14.114954814017,7.142857142857E-02));
#393 = CARTESIAN_POINT('',(13.775808194121,7.142857142857E-02));
#394 = CARTESIAN_POINT('',(13.662759281097,7.142857142857E-02));
#395 = CARTESIAN_POINT('',(13.549710428901,7.142857142857E-02));
#396 = CARTESIAN_POINT('',(13.436661578237,7.142857142857E-02));
#397 = CARTESIAN_POINT('',(13.323612737431,7.142857142857E-02));
#398 = CARTESIAN_POINT('',(13.210563940617,7.142857142857E-02));
#399 = CARTESIAN_POINT('',(13.097515167927,7.142857142857E-02));
#400 = CARTESIAN_POINT('',(12.867380347687,7.142857142857E-02));
#401 = CARTESIAN_POINT('',(12.750294287878,7.142857142857E-02));
#402 = CARTESIAN_POINT('',(12.633208210919,7.142857142857E-02));
#403 = CARTESIAN_POINT('',(12.516122082627,7.142857142857E-02));
#404 = CARTESIAN_POINT('',(12.399035859664,7.142857142857E-02));
#405 = CARTESIAN_POINT('',(12.281949489539,7.142857142857E-02));
#406 = CARTESIAN_POINT('',(12.164862910609,7.142857142857E-02));
#407 = CARTESIAN_POINT('',(11.934728593816,7.142857142857E-02));
#408 = CARTESIAN_POINT('',(11.821680878169,7.142857142857E-02));
#409 = CARTESIAN_POINT('',(11.708632841583,7.142857142857E-02));
#410 = CARTESIAN_POINT('',(11.595584416736,7.142857142857E-02));
#411 = CARTESIAN_POINT('',(11.48253553254,7.142857142857E-02));
#412 = CARTESIAN_POINT('',(11.369486114141,7.142857142857E-02));
#413 = CARTESIAN_POINT('',(11.256436082917,7.142857142857E-02));
#414 = CARTESIAN_POINT('',(11.04245142461,7.142857142857E-02));
#415 = CARTESIAN_POINT('',(10.941516941191,7.142857142857E-02));
#416 = CARTESIAN_POINT('',(10.840581867048,7.142857142857E-02));
#417 = CARTESIAN_POINT('',(10.739646007683,7.142857142857E-02));
#418 = CARTESIAN_POINT('',(10.638709377687,7.142857142857E-02));
#419 = CARTESIAN_POINT('',(10.537771809657,7.142857142857E-02));
#420 = CARTESIAN_POINT('',(10.436833267929,7.142857142857E-02));
#421 = CARTESIAN_POINT('',(10.234961260441,7.142857142857E-02));
#422 = CARTESIAN_POINT('',(10.134027805083,7.142857142857E-02));
#423 = CARTESIAN_POINT('',(10.033093224832,7.142857142857E-02));
#424 = CARTESIAN_POINT('',(9.932157462027,7.142857142857E-02));
#425 = CARTESIAN_POINT('',(9.831220474419,7.142857142857E-02));
#426 = CARTESIAN_POINT('',(9.730282235171,7.142857142857E-02));
#427 = CARTESIAN_POINT('',(9.629342732862,7.142857142857E-02));
#428 = CARTESIAN_POINT('',(9.435543958755,7.142857142857E-02));
#429 = CARTESIAN_POINT('',(9.342684885799,7.142857142857E-02));
#430 = CARTESIAN_POINT('',(9.249824756329,7.142857142857E-02));
#431 = CARTESIAN_POINT('',(9.156963591533,7.142857142857E-02));
#432 = CARTESIAN_POINT('',(9.064101430069,7.142857142857E-02));
#433 = CARTESIAN_POINT('',(8.971238328072,7.142857142857E-02));
#434 = CARTESIAN_POINT('',(8.87837435915,7.142857142857E-02));
#435 = CARTESIAN_POINT('',(8.728985748078,7.142857142857E-02));
#436 = CARTESIAN_POINT('',(8.672461587996,7.142857142857E-02));
#437 = CARTESIAN_POINT('',(8.615937193011,7.142857142857E-02));
#438 = CARTESIAN_POINT('',(8.559412646142,7.142857142857E-02));
#439 = CARTESIAN_POINT('',(8.502888024623,7.142857142857E-02));
#440 = CARTESIAN_POINT('',(8.446363387734,7.142857142857E-02));
#441 = CARTESIAN_POINT('',(8.389838782405,7.142857142857E-02));
#442 = CARTESIAN_POINT('',(8.268714030769,7.142857142857E-02));
#443 = CARTESIAN_POINT('',(8.204113913996,7.142857142857E-02));
#444 = CARTESIAN_POINT('',(8.139513987132,7.142857142857E-02));
#445 = CARTESIAN_POINT('',(8.074914319635,7.142857142857E-02));
#446 = CARTESIAN_POINT('',(8.010314979564,7.142857142857E-02));
#447 = CARTESIAN_POINT('',(7.945716033567,7.142857142857E-02));
#448 = CARTESIAN_POINT('',(7.881117546894,7.142857142857E-02));
#449 = CARTESIAN_POINT('',(7.747880042661,7.142857142857E-02));
#450 = CARTESIAN_POINT('',(7.679241103023,7.142857142857E-02));
#451 = CARTESIAN_POINT('',(7.610602840233,7.142857142857E-02));
#452 = CARTESIAN_POINT('',(7.541965342936,7.142857142857E-02));
#453 = CARTESIAN_POINT('',(7.473328712662,7.142857142857E-02));
#454 = CARTESIAN_POINT('',(7.404693063819,7.142857142857E-02));
#455 = CARTESIAN_POINT('',(7.336058523702,7.142857142857E-02));
#456 = CARTESIAN_POINT('',(7.235125564787,7.142857142857E-02));
#457 = CARTESIAN_POINT('',(7.202825897087,7.142857142857E-02));
#458 = CARTESIAN_POINT('',(7.170526229387,7.142857142857E-02));
#459 = CARTESIAN_POINT('',(7.138226561687,7.142857142857E-02));
#460 = CARTESIAN_POINT('',(7.105926893987,7.142857142857E-02));
#461 = CARTESIAN_POINT('',(7.073627226287,7.142857142857E-02));
#462 = CARTESIAN_POINT('',(7.041327558587,7.142857142857E-02));
#463 = CARTESIAN_POINT('',(6.974548807164,7.142857142857E-02));
#464 = CARTESIAN_POINT('',(6.940070288414,7.142857142857E-02));
#465 = CARTESIAN_POINT('',(6.905592067188,7.142857142857E-02));
#466 = CARTESIAN_POINT('',(6.871114215951,7.142857142857E-02));
#467 = CARTESIAN_POINT('',(6.836636960377,7.142857142857E-02));
#468 = CARTESIAN_POINT('',(6.802160492636,7.142857142857E-02));
#469 = CARTESIAN_POINT('',(6.767684784693,7.142857142857E-02));
#470 = CARTESIAN_POINT('',(6.733209401595,7.142857142857E-02));
#471 = ( GEOMETRIC_REPRESENTATION_CONTEXT(2) 
PARAMETRIC_REPRESENTATION_CONTEXT() REPRESENTATION_CONTEXT('2D SPACE',''
  ) );
#472 = PCURVE('',#473,#478);
#473 = PLANE('',#474);
#474 = AXIS2_PLACEMENT_3D('',#475,#476,#477);
#475 = CARTESIAN_POINT('',(-100.,-1.1,3.));
#476 = DIRECTION('',(0.,0.,1.));
#477 = DIRECTION('',(1.,0.,-0.));
#478 = DEFINITIONAL_REPRESENTATION('',(#479),#580);
#479 = B_SPLINE_CURVE_WITH_KNOTS('',8,(#480,#481,#482,#483,#484,#485,
    #486,#487,#488,#489,#490,#491,#492,#493,#494,#495,#496,#497,#498,
    #499,#500,#501,#502,#503,#504,#505,#506,#507,#508,#509,#510,#511,
    #512,#513,#514,#515,#516,#517,#518,#519,#520,#521,#522,#523,#524,
    #525,#526,#527,#528,#529,#530,#531,#532,#533,#534,#535,#536,#537,
    #538,#539,#540,#541,#542,#543,#544,#545,#546,#547,#548,#549,#550,
    #551,#552,#553,#554,#555,#556,#557,#558,#559,#560,#561,#562,#563,
    #564,#565,#566,#567,#568,#569,#570,#571,#572,#573,#574,#575,#576,
    #577,#578,#579),.UNSPECIFIED.,.F.,.F.,(9,7,7,7,7,7,7,7,7,7,7,7,7,7,9
    ),(0.,0.133719885753,0.23563011515,0.389871911811,0.466992854712,
    0.546868021286,0.623987560342,0.692841415124,0.761690358298,
    0.825026278834,0.863576873183,0.907635233519,0.954450109009,
    0.976481762962,1.),.UNSPECIFIED.);
#480 = CARTESIAN_POINT('',(11.271505542506,2.2));
#481 = CARTESIAN_POINT('',(11.082382047875,2.189347299637));
#482 = CARTESIAN_POINT('',(10.893284999987,2.178231036254));
#483 = CARTESIAN_POINT('',(10.704214794848,2.166663586593));
#484 = CARTESIAN_POINT('',(10.51517177212,2.154657324613));
#485 = CARTESIAN_POINT('',(10.326156215119,2.142224621493));
#486 = CARTESIAN_POINT('',(10.137168350819,2.129377845629));
#487 = CARTESIAN_POINT('',(9.948208349848,2.116129362633));
#488 = CARTESIAN_POINT('',(9.615287975525,2.092097912131));
#489 = CARTESIAN_POINT('',(9.471315931582,2.081477553653));
#490 = CARTESIAN_POINT('',(9.327360045149,2.070639161342));
#491 = CARTESIAN_POINT('',(9.183420722772,2.059581413826));
#492 = CARTESIAN_POINT('',(9.039497695977,2.048314959733));
#493 = CARTESIAN_POINT('',(8.895590743217,2.036849454136));
#494 = CARTESIAN_POINT('',(8.751700424333,2.02518019455));
#495 = CARTESIAN_POINT('',(8.390073350345,1.995341649322));
#496 = CARTESIAN_POINT('',(8.172358278318,1.976911728178));
#497 = CARTESIAN_POINT('',(7.954682474399,1.958022238574));
#498 = CARTESIAN_POINT('',(7.737046729284,1.938676269706));
#499 = CARTESIAN_POINT('',(7.51945182096,1.91887691031));
#500 = CARTESIAN_POINT('',(7.301898514698,1.898627248657));
#501 = CARTESIAN_POINT('',(7.084387563059,1.877930372555));
#502 = CARTESIAN_POINT('',(6.758185714464,1.846218861639));
#503 = CARTESIAN_POINT('',(6.649462551892,1.835536717724));
#504 = CARTESIAN_POINT('',(6.540749884963,1.824747582386));
#505 = CARTESIAN_POINT('',(6.432048999101,1.813840248335));
#506 = CARTESIAN_POINT('',(6.323358958387,1.802825138179));
#507 = CARTESIAN_POINT('',(6.214678433644,1.791716374609));
#508 = CARTESIAN_POINT('',(6.106007814071,1.780511164726));
#509 = CARTESIAN_POINT('',(5.884803985238,1.757524014575));
#510 = CARTESIAN_POINT('',(5.772271488456,1.74573507424));
#511 = CARTESIAN_POINT('',(5.659748152721,1.733859019656));
#512 = CARTESIAN_POINT('',(5.547233394452,1.721902465997));
#513 = CARTESIAN_POINT('',(5.434726621283,1.709872027385));
#514 = CARTESIAN_POINT('',(5.32222723207,1.697774316887));
#515 = CARTESIAN_POINT('',(5.209734616885,1.685615946521));
#516 = CARTESIAN_POINT('',(4.988642387456,1.661612426393));
#517 = CARTESIAN_POINT('',(4.880042358955,1.649770942009));
#518 = CARTESIAN_POINT('',(4.771447514828,1.637885024092));
#519 = CARTESIAN_POINT('',(4.662857294766,1.625960622329));
#520 = CARTESIAN_POINT('',(4.554271134842,1.614003686099));
#521 = CARTESIAN_POINT('',(4.445688467508,1.60202016447));
#522 = CARTESIAN_POINT('',(4.337108721598,1.590016006206));
#523 = CARTESIAN_POINT('',(4.13159126572,1.567266495157));
#524 = CARTESIAN_POINT('',(4.034652966528,1.556525143209));
#525 = CARTESIAN_POINT('',(3.937716386966,1.545773884741));
#526 = CARTESIAN_POINT('',(3.840784249188,1.534989771424));
#527 = CARTESIAN_POINT('',(3.743855768282,1.524180156075));
#528 = CARTESIAN_POINT('',(3.6469333673,1.513324716881));
#529 = CARTESIAN_POINT('',(3.550017413369,1.502421002271));
#530 = CARTESIAN_POINT('',(3.356207851725,1.480497282765));
#531 = CARTESIAN_POINT('',(3.259314221422,1.469477543969));
#532 = CARTESIAN_POINT('',(3.162429346675,1.458391102219));
#533 = CARTESIAN_POINT('',(3.065554303868,1.447229525308));
#534 = CARTESIAN_POINT('',(2.968690184311,1.435984381743));
#535 = CARTESIAN_POINT('',(2.871838094241,1.424647240749));
#536 = CARTESIAN_POINT('',(2.774999154825,1.413209672263));
#537 = CARTESIAN_POINT('',(2.58910300411,1.391041392154));
#538 = CARTESIAN_POINT('',(2.500043601437,1.380327416697));
#539 = CARTESIAN_POINT('',(2.410997179212,1.369514758072));
#540 = CARTESIAN_POINT('',(2.321964639291,1.358596855594));
#541 = CARTESIAN_POINT('',(2.232946900314,1.347567150395));
#542 = CARTESIAN_POINT('',(2.143944897705,1.336419085421));
#543 = CARTESIAN_POINT('',(2.054959583671,1.325146105432));
#544 = CARTESIAN_POINT('',(1.91184009668,1.30680012586));
#545 = CARTESIAN_POINT('',(1.857694958622,1.29980884793));
#546 = CARTESIAN_POINT('',(1.803556061711,1.292771195857));
#547 = CARTESIAN_POINT('',(1.749422665216,1.285692568167));
#548 = CARTESIAN_POINT('',(1.695294010036,1.278578445499));
#549 = CARTESIAN_POINT('',(1.641169431388,1.27143358431));
#550 = CARTESIAN_POINT('',(1.587048313148,1.264262348033));
#551 = CARTESIAN_POINT('',(1.471079494765,1.248850449804));
#552 = CARTESIAN_POINT('',(1.409232646745,1.240603204551));
#553 = CARTESIAN_POINT('',(1.347388290726,1.232335795949));
#554 = CARTESIAN_POINT('',(1.285545376362,1.224055579537));
#555 = CARTESIAN_POINT('',(1.223702852005,1.215769910398));
#556 = CARTESIAN_POINT('',(1.161859664713,1.207486143161));
#557 = CARTESIAN_POINT('',(1.100014760241,1.199211632004));
#558 = CARTESIAN_POINT('',(0.972449900541,1.182179172972));
#559 = CARTESIAN_POINT('',(0.906729597557,1.173423369295));
#560 = CARTESIAN_POINT('',(0.841004906946,1.164695141912));
#561 = CARTESIAN_POINT('',(0.775274574108,1.156003313385));
#562 = CARTESIAN_POINT('',(0.709537356996,1.147356706538));
#563 = CARTESIAN_POINT('',(0.643792026116,1.138764144463));
#564 = CARTESIAN_POINT('',(0.578037364527,1.130234450516));
#565 = CARTESIAN_POINT('',(0.481322260561,1.117796008859));
#566 = CARTESIAN_POINT('',(0.450369754983,1.113831413223));
#567 = CARTESIAN_POINT('',(0.419414511509,1.109883579681));
#568 = CARTESIAN_POINT('',(0.388456390539,1.105953426502));
#569 = CARTESIAN_POINT('',(0.357495252476,1.102041871959));
#570 = CARTESIAN_POINT('',(0.326530957724,1.098149834323));
#571 = CARTESIAN_POINT('',(0.295563366683,1.094278231865));
#572 = CARTESIAN_POINT('',(0.231531546679,1.086317938777));
#573 = CARTESIAN_POINT('',(0.198467135357,1.082232264765));
#574 = CARTESIAN_POINT('',(0.165399261742,1.078172115177));
#575 = CARTESIAN_POINT('',(0.132327736652,1.074138603563));
#576 = CARTESIAN_POINT('',(9.92522175931E-02,1.070132825189));
#577 = CARTESIAN_POINT('',(6.617240056605E-02,1.066155879543));
#578 = CARTESIAN_POINT('',(3.30882118871E-02,1.062208892857));
#579 = CARTESIAN_POINT('',(0.,1.058293040622));
#580 = ( GEOMETRIC_REPRESENTATION_CONTEXT(2) 
PARAMETRIC_REPRESENTATION_CONTEXT() REPRESENTATION_CONTEXT('2D SPACE',''
  ) );
#581 = ORIENTED_EDGE('',*,*,#582,.F.);
#582 = EDGE_CURVE('',#583,#264,#585,.T.);
#583 = VERTEX_POINT('',#584);
#584 = CARTESIAN_POINT('',(-88.80349533103,1.1,0.));
#585 = SURFACE_CURVE('',#586,(#595,#607),.PCURVE_S1.);
#586 = B_SPLINE_CURVE_WITH_KNOTS('',7,(#587,#588,#589,#590,#591,#592,
    #593,#594),.UNSPECIFIED.,.F.,.F.,(8,8),(0.,1.),
  .PIECEWISE_BEZIER_KNOTS.);
#587 = CARTESIAN_POINT('',(-88.80349533103,1.1,0.));
#588 = CARTESIAN_POINT('',(-88.80713561838,1.1,0.435549013396));
#589 = CARTESIAN_POINT('',(-88.80696003435,1.1,0.869348894833));
#590 = CARTESIAN_POINT('',(-88.80251895301,1.1,1.301200443591));
#591 = CARTESIAN_POINT('',(-88.79326189734,1.1,1.730769864264));
#592 = CARTESIAN_POINT('',(-88.77849088531,1.1,2.157569978457));
#593 = CARTESIAN_POINT('',(-88.75732557424,1.1,2.580947611346));
#594 = CARTESIAN_POINT('',(-88.72849445749,1.1,3.));
#595 = PCURVE('',#49,#596);
#596 = DEFINITIONAL_REPRESENTATION('',(#597),#606);
#597 = B_SPLINE_CURVE_WITH_KNOTS('',7,(#598,#599,#600,#601,#602,#603,
    #604,#605),.UNSPECIFIED.,.F.,.F.,(8,8),(0.,1.),
  .PIECEWISE_BEZIER_KNOTS.);
#598 = CARTESIAN_POINT('',(17.266465128028,0.));
#599 = CARTESIAN_POINT('',(17.41953453382,1.037021460467E-02));
#600 = CARTESIAN_POINT('',(17.577526620852,2.06987832103E-02));
#601 = CARTESIAN_POINT('',(17.740907217957,3.098096294263E-02));
#602 = CARTESIAN_POINT('',(17.910206576164,4.1208806292E-02));
#603 = CARTESIAN_POINT('',(18.086060406972,5.137071377278E-02));
#604 = CARTESIAN_POINT('',(18.269240344231,6.145113360348E-02));
#605 = CARTESIAN_POINT('',(18.46084391838,7.142857142857E-02));
#606 = ( GEOMETRIC_REPRESENTATION_CONTEXT(2) 
PARAMETRIC_REPRESENTATION_CONTEXT() REPRESENTATION_CONTEXT('2D SPACE',''
  ) );
#607 = PCURVE('',#608,#613);
#608 = PLANE('',#609);
#609 = AXIS2_PLACEMENT_3D('',#610,#611,#612);
#610 = CARTESIAN_POINT('',(-100.,1.1,-3.));
#611 = DIRECTION('',(-0.,1.,0.));
#612 = DIRECTION('',(0.,0.,1.));
#613 = DEFINITIONAL_REPRESENTATION('',(#614),#623);
#614 = B_SPLINE_CURVE_WITH_KNOTS('',7,(#615,#616,#617,#618,#619,#620,
    #621,#622),.UNSPECIFIED.,.F.,.F.,(8,8),(0.,1.),
  .PIECEWISE_BEZIER_KNOTS.);
#615 = CARTESIAN_POINT('',(3.,11.196504668966));
#616 = CARTESIAN_POINT('',(3.435549013396,11.192864381619));
#617 = CARTESIAN_POINT('',(3.869348894833,11.19303996565));
#618 = CARTESIAN_POINT('',(4.301200443591,11.197481046985));
#619 = CARTESIAN_POINT('',(4.730769864264,11.206738102654));
#620 = CARTESIAN_POINT('',(5.157569978457,11.221509114682));
#621 = CARTESIAN_POINT('',(5.580947611346,11.242674425757));
#622 = CARTESIAN_POINT('',(6.,11.271505542506));
#623 = ( GEOMETRIC_REPRESENTATION_CONTEXT(2) 
PARAMETRIC_REPRESENTATION_CONTEXT() REPRESENTATION_CONTEXT('2D SPACE',''
  ) );
#624 = ORIENTED_EDGE('',*,*,#625,.T.);
#625 = EDGE_CURVE('',#583,#626,#628,.T.);
#626 = VERTEX_POINT('',#627);
#627 = CARTESIAN_POINT('',(-74.,-0.3,0.));
#628 = SURFACE_CURVE('',#629,(#653,#660),.PCURVE_S1.);
#629 = B_SPLINE_CURVE_WITH_KNOTS('',3,(#630,#631,#632,#633,#634,#635,
    #636,#637,#638,#639,#640,#641,#642,#643,#644,#645,#646,#647,#648,
    #649,#650,#651,#652),.UNSPECIFIED.,.F.,.F.,(4,1,1,1,1,1,1,1,1,1,1,1,
    1,1,1,1,1,1,1,1,4),(0.,0.196986550478,0.783095739278,1.743895612986,
    3.055728090001,4.686291501015,6.601685717214,8.761661115295,
    11.098389492336,13.553712052508,16.066705902698,18.575397811083,
    21.018676226826,23.338280117575,25.480684729879,27.398761169839,
    29.053348589443,30.415480694352,31.471519654295,32.102681149467,
    32.299667699944),.UNSPECIFIED.);
#630 = CARTESIAN_POINT('',(-106.,-0.2,0.));
#631 = CARTESIAN_POINT('',(-105.9343378165,-0.2,0.));
#632 = CARTESIAN_POINT('',(-105.6733056288,-0.200010449311,0.));
#633 = CARTESIAN_POINT('',(-105.0920113404,-0.199848706432,0.));
#634 = CARTESIAN_POINT('',(-104.139065046,-0.201083815518,0.));
#635 = CARTESIAN_POINT('',(-102.8381908056,-0.193813005459,0.));
#636 = CARTESIAN_POINT('',(-101.2179446884,-0.231220729123,0.));
#637 = CARTESIAN_POINT('',(-99.32061596688,-5.426125024456E-02,0.));
#638 = CARTESIAN_POINT('',(-97.2071380353,0.261773030809,0.));
#639 = CARTESIAN_POINT('',(-94.90531496199,0.533006266396,0.));
#640 = CARTESIAN_POINT('',(-92.4846215681,0.79641069899,0.));
#641 = CARTESIAN_POINT('',(-90.00213269872,1.019951786217,0.));
#642 = CARTESIAN_POINT('',(-87.51946145482,1.190971541117,0.));
#643 = CARTESIAN_POINT('',(-85.09734291506,1.291407314705,0.));
#644 = CARTESIAN_POINT('',(-82.794920934,1.307376681462,0.));
#645 = CARTESIAN_POINT('',(-80.66928003886,1.228342452161,0.));
#646 = CARTESIAN_POINT('',(-78.76972602723,1.053664150591,0.));
#647 = CARTESIAN_POINT('',(-77.14937009371,0.780707184991,0.));
#648 = CARTESIAN_POINT('',(-75.82277787782,0.441724622723,0.));
#649 = CARTESIAN_POINT('',(-74.91228043605,1.387095050353E-02,0.));
#650 = CARTESIAN_POINT('',(-74.34306681639,-0.307725249538,0.));
#651 = CARTESIAN_POINT('',(-74.06720368852,-0.308193889891,-0.));
#652 = CARTESIAN_POINT('',(-74.,-0.3,0.));
#653 = PCURVE('',#49,#654);
#654 = DEFINITIONAL_REPRESENTATION('',(#655),#659);
#655 = LINE('',#656,#657);
#656 = CARTESIAN_POINT('',(0.,0.));
#657 = VECTOR('',#658,1.);
#658 = DIRECTION('',(1.,0.));
#659 = ( GEOMETRIC_REPRESENTATION_CONTEXT(2) 
PARAMETRIC_REPRESENTATION_CONTEXT() REPRESENTATION_CONTEXT('2D SPACE',''
  ) );
#660 = PCURVE('',#661,#666);
#661 = PLANE('',#662);
#662 = AXIS2_PLACEMENT_3D('',#663,#664,#665);
#663 = CARTESIAN_POINT('',(-106.,-0.2,0.));
#664 = DIRECTION('',(-0.,0.,1.));
#665 = DIRECTION('',(0.999604726673,-2.811388293767E-02,0.));
#666 = DEFINITIONAL_REPRESENTATION('',(#667),#691);
#667 = B_SPLINE_CURVE_WITH_KNOTS('',3,(#668,#669,#670,#671,#672,#673,
    #674,#675,#676,#677,#678,#679,#680,#681,#682,#683,#684,#685,#686,
    #687,#688,#689,#690),.UNSPECIFIED.,.F.,.F.,(4,1,1,1,1,1,1,1,1,1,1,1,
    1,1,1,1,1,1,1,1,4),(0.,0.196986550478,0.783095739278,1.743895612986,
    3.055728090001,4.686291501015,6.601685717214,8.761661115295,
    11.098389492336,13.553712052508,16.066705902698,18.575397811083,
    21.018676226826,23.338280117575,25.480684729879,27.398761169839,
    29.053348589443,30.415480694352,31.471519654295,32.102681149467,
    32.299667699944),.UNSPECIFIED.);
#668 = CARTESIAN_POINT('',(0.,0.));
#669 = CARTESIAN_POINT('',(6.563622898284E-02,1.846018940142E-03));
#670 = CARTESIAN_POINT('',(0.326565531302,9.174202124602E-03));
#671 = CARTESIAN_POINT('',(0.907625502422,2.567832064946E-02));
#672 = CARTESIAN_POINT('',(1.860229846296,5.123472033642E-02));
#673 = CARTESIAN_POINT('',(3.160385475068,9.507528254845E-02));
#674 = CARTESIAN_POINT('',(4.781042828531,0.103233754828));
#675 = CARTESIAN_POINT('',(6.672646568614,0.333464563918));
#676 = CARTESIAN_POINT('',(8.776404147961,0.708791996209));
#677 = CARTESIAN_POINT('',(11.069691952571,1.044631204959));
#678 = CARTESIAN_POINT('',(13.482023189543,1.37598661151));
#679 = CARTESIAN_POINT('',(15.957246189325,1.669231740376));
#680 = CARTESIAN_POINT('',(18.434128070137,1.909981424452));
#681 = CARTESIAN_POINT('',(20.852465571456,2.078472655545));
#682 = CARTESIAN_POINT('',(23.153528505615,2.159165732086));
#683 = CARTESIAN_POINT('',(25.28055115068,2.139922762201));
#684 = CARTESIAN_POINT('',(27.184265204594,2.018717345421));
#685 = CARTESIAN_POINT('',(28.811654534806,1.791422769462));
#686 = CARTESIAN_POINT('',(30.147252500254,1.489869856222));
#687 = CARTESIAN_POINT('',(31.06941867473,1.087782921641));
#688 = CARTESIAN_POINT('',(31.647448617347,0.782316645069));
#689 = CARTESIAN_POINT('',(31.923215879182,0.789603773642));
#690 = CARTESIAN_POINT('',(31.990162641816,0.799683781338));
#691 = ( GEOMETRIC_REPRESENTATION_CONTEXT(2) 
PARAMETRIC_REPRESENTATION_CONTEXT() REPRESENTATION_CONTEXT('2D SPACE',''
  ) );
#692 = ORIENTED_EDGE('',*,*,#693,.T.);
#693 = EDGE_CURVE('',#626,#694,#696,.T.);
#694 = VERTEX_POINT('',#695);
#695 = CARTESIAN_POINT('',(-96.,-0.45,42.));
#696 = SURFACE_CURVE('',#697,(#700,#707),.PCURVE_S1.);
#697 = B_SPLINE_CURVE_WITH_KNOTS('',1,(#698,#699),.UNSPECIFIED.,.F.,.F.,
  (2,2),(0.,1.),.PIECEWISE_BEZIER_KNOTS.);
#698 = CARTESIAN_POINT('',(-74.,-0.3,0.));
#699 = CARTESIAN_POINT('',(-96.,-0.45,42.));
#700 = PCURVE('',#49,#701);
#701 = DEFINITIONAL_REPRESENTATION('',(#702),#706);
#702 = LINE('',#703,#704);
#703 = CARTESIAN_POINT('',(32.299667699944,0.));
#704 = VECTOR('',#705,1.);
#705 = DIRECTION('',(0.,1.));
#706 = ( GEOMETRIC_REPRESENTATION_CONTEXT(2) 
PARAMETRIC_REPRESENTATION_CONTEXT() REPRESENTATION_CONTEXT('2D SPACE',''
  ) );
#707 = PCURVE('',#708,#713);
#708 = B_SPLINE_SURFACE_WITH_KNOTS('',1,1,(
    (#709,#710)
    ,(#711,#712
  )),.UNSPECIFIED.,.F.,.F.,.F.,(2,2),(2,2),(0.,0.8),(0.,1.),
  .PIECEWISE_BEZIER_KNOTS.);
#709 = CARTESIAN_POINT('',(-74.,-0.3,0.));
#710 = CARTESIAN_POINT('',(-96.,-0.45,42.));
#711 = CARTESIAN_POINT('',(-74.,-1.1,0.));
#712 = CARTESIAN_POINT('',(-96.,-1.1,42.));
#713 = DEFINITIONAL_REPRESENTATION('',(#714),#718);
#714 = LINE('',#715,#716);
#715 = CARTESIAN_POINT('',(0.,0.));
#716 = VECTOR('',#717,1.);
#717 = DIRECTION('',(0.,1.));
#718 = ( GEOMETRIC_REPRESENTATION_CONTEXT(2) 
PARAMETRIC_REPRESENTATION_CONTEXT() REPRESENTATION_CONTEXT('2D SPACE',''
  ) );
#719 = ORIENTED_EDGE('',*,*,#720,.F.);
#720 = EDGE_CURVE('',#42,#694,#721,.T.);
#721 = SURFACE_CURVE('',#722,(#746,#752),.PCURVE_S1.);
#722 = B_SPLINE_CURVE_WITH_KNOTS('',3,(#723,#724,#725,#726,#727,#728,
    #729,#730,#731,#732,#733,#734,#735,#736,#737,#738,#739,#740,#741,
    #742,#743,#744,#745),.UNSPECIFIED.,.F.,.F.,(4,1,1,1,1,1,1,1,1,1,1,1,
    1,1,1,1,1,1,1,1,4),(0.,0.104649104941,0.416019611491,0.926444544399,
    1.623355547813,2.489592359914,3.503825355514,4.641080752214,
    5.873355547813,7.176036866704,8.511275678847,9.844138877108,
    11.142171708771,12.374461860676,13.512649819869,14.531815381048,
    15.411316542478,16.135987123594,16.667318509436,16.978689015986,
    17.083338120928),.UNSPECIFIED.);
#723 = CARTESIAN_POINT('',(-113.,-0.2,42.));
#724 = CARTESIAN_POINT('',(-112.965116965,-0.2,42.));
#725 = CARTESIAN_POINT('',(-112.8264437673,-0.199999868298,42.));
#726 = CARTESIAN_POINT('',(-112.5176288238,-0.200001906882,42.));
#727 = CARTESIAN_POINT('',(-112.0113940713,-0.199986339749,42.));
#728 = CARTESIAN_POINT('',(-111.3201988665,-0.200077979965,42.));
#729 = CARTESIAN_POINT('',(-110.4610939662,-0.199607105125,42.));
#730 = CARTESIAN_POINT('',(-109.4550818794,-0.201822619917,42.));
#731 = CARTESIAN_POINT('',(-108.327618314,-0.1920469705,42.));
#732 = CARTESIAN_POINT('',(-107.1016266521,-0.233097642986,42.));
#733 = CARTESIAN_POINT('',(-105.8193065201,-6.760838510322E-02,42.));
#734 = CARTESIAN_POINT('',(-104.5011835781,4.692183311835E-02,42.));
#735 = CARTESIAN_POINT('',(-103.1822593494,0.141296377004,42.));
#736 = CARTESIAN_POINT('',(-101.8954559044,0.195271176072,42.));
#737 = CARTESIAN_POINT('',(-100.6723853868,0.203962295934,42.));
#738 = CARTESIAN_POINT('',(-99.54265217535,0.1613579511,42.));
#739 = CARTESIAN_POINT('',(-98.53475870689,6.598369517558E-02,42.));
#740 = CARTESIAN_POINT('',(-97.66979595427,-7.968206807912E-02,42.));
#741 = CARTESIAN_POINT('',(-96.98609795861,-0.266862569001,42.));
#742 = CARTESIAN_POINT('',(-96.49270966243,-0.474017718867,42.));
#743 = CARTESIAN_POINT('',(-96.17343074682,-0.449098600154,42.));
#744 = CARTESIAN_POINT('',(-96.03480818467,-0.449471632035,42.));
#745 = CARTESIAN_POINT('',(-96.,-0.45,42.));
#746 = PCURVE('',#49,#747);
#747 = DEFINITIONAL_REPRESENTATION('',(#748),#751);
#748 = B_SPLINE_CURVE_WITH_KNOTS('',1,(#749,#750),.UNSPECIFIED.,.F.,.F.,
  (2,2),(0.,17.083338120928),.PIECEWISE_BEZIER_KNOTS.);
#749 = CARTESIAN_POINT('',(0.,1.));
#750 = CARTESIAN_POINT('',(32.299667699944,1.));
#751 = ( GEOMETRIC_REPRESENTATION_CONTEXT(2) 
PARAMETRIC_REPRESENTATION_CONTEXT() REPRESENTATION_CONTEXT('2D SPACE',''
  ) );
#752 = PCURVE('',#753,#758);
#753 = PLANE('',#754);
#754 = AXIS2_PLACEMENT_3D('',#755,#756,#757);
#755 = CARTESIAN_POINT('',(-113.,-0.2,42.));
#756 = DIRECTION('',(-0.,0.,1.));
#757 = DIRECTION('',(0.998601554869,-5.286714114015E-02,0.));
#758 = DEFINITIONAL_REPRESENTATION('',(#759),#783);
#759 = B_SPLINE_CURVE_WITH_KNOTS('',3,(#760,#761,#762,#763,#764,#765,
    #766,#767,#768,#769,#770,#771,#772,#773,#774,#775,#776,#777,#778,
    #779,#780,#781,#782),.UNSPECIFIED.,.F.,.F.,(4,1,1,1,1,1,1,1,1,1,1,1,
    1,1,1,1,1,1,1,1,4),(0.,0.104649104941,0.416019611491,0.926444544399,
    1.623355547813,2.489592359914,3.503825355514,4.641080752214,
    5.873355547813,7.176036866704,8.511275678847,9.844138877108,
    11.142171708771,12.374461860676,13.512649819869,14.531815381048,
    15.411316542478,16.135987123594,16.667318509436,16.978689015986,
    17.083338120928),.UNSPECIFIED.);
#760 = CARTESIAN_POINT('',(0.,0.));
#761 = CARTESIAN_POINT('',(3.483425297002E-02,1.844166333707E-03));
#762 = CARTESIAN_POINT('',(0.173313516816,9.175553364513E-03));
#763 = CARTESIAN_POINT('',(0.481696707374,2.549968083822E-02));
#764 = CARTESIAN_POINT('',(0.98722269528,5.227841030709E-02));
#765 = CARTESIAN_POINT('',(1.677456146342,8.872841269686E-02));
#766 = CARTESIAN_POINT('',(2.535334741719,0.13461704906));
#767 = CARTESIAN_POINT('',(3.540057103788,0.185589615527));
#768 = CARTESIAN_POINT('',(4.665427162634,0.254957369678));
#769 = CARTESIAN_POINT('',(5.891874574126,0.27877877853));
#770 = CARTESIAN_POINT('',(7.163652507869,0.511829208173));
#771 = CARTESIAN_POINT('',(8.473877241969,0.695884653779));
#772 = CARTESIAN_POINT('',(9.785967715235,0.859854973399));
#773 = CARTESIAN_POINT('',(11.068118142868,0.981783911016));
#774 = CARTESIAN_POINT('',(12.289018788829,1.055123118504));
#775 = CARTESIAN_POINT('',(13.419424500308,1.072304118651));
#776 = CARTESIAN_POINT('',(14.430950649303,1.030347684641));
#777 = CARTESIAN_POINT('',(15.302404731441,0.930613734888));
#778 = CARTESIAN_POINT('',(15.995042310924,0.77984015406));
#779 = CARTESIAN_POINT('',(16.498692331189,0.599058727995));
#780 = CARTESIAN_POINT('',(16.816207350193,0.640822362183));
#781 = CARTESIAN_POINT('',(16.954655777424,0.647778430525));
#782 = CARTESIAN_POINT('',(16.989443218066,0.649091010665));
#783 = ( GEOMETRIC_REPRESENTATION_CONTEXT(2) 
PARAMETRIC_REPRESENTATION_CONTEXT() REPRESENTATION_CONTEXT('2D SPACE',''
  ) );
#784 = FACE_BOUND('',#785,.F.);
#785 = EDGE_LOOP('',(#786,#834,#871));
#786 = ORIENTED_EDGE('',*,*,#787,.F.);
#787 = EDGE_CURVE('',#788,#790,#792,.T.);
#788 = VERTEX_POINT('',#789);
#789 = CARTESIAN_POINT('',(-80.,1.1,0.917530284579));
#790 = VERTEX_POINT('',#791);
#791 = CARTESIAN_POINT('',(-80.,0.937094059843,3.));
#792 = SURFACE_CURVE('',#793,(#803,#816),.PCURVE_S1.);
#793 = B_SPLINE_CURVE_WITH_KNOTS('',8,(#794,#795,#796,#797,#798,#799,
    #800,#801,#802),.UNSPECIFIED.,.F.,.F.,(9,9),(0.,1.),
  .PIECEWISE_BEZIER_KNOTS.);
#794 = CARTESIAN_POINT('',(-80.,1.1,0.917530284579));
#795 = CARTESIAN_POINT('',(-80.,1.081832021579,1.179251117514));
#796 = CARTESIAN_POINT('',(-80.,1.063091687832,1.44059168534));
#797 = CARTESIAN_POINT('',(-80.,1.043752796008,1.701540056967));
#798 = CARTESIAN_POINT('',(-80.,1.023787040157,1.962088373115));
#799 = CARTESIAN_POINT('',(-80.,1.003168630578,2.222217296163));
#800 = CARTESIAN_POINT('',(-80.,0.981865670209,2.48192502678));
#801 = CARTESIAN_POINT('',(-80.,0.95985172847,2.741187622124));
#802 = CARTESIAN_POINT('',(-80.,0.937094059843,3.));
#803 = PCURVE('',#49,#804);
#804 = DEFINITIONAL_REPRESENTATION('',(#805),#815);
#805 = B_SPLINE_CURVE_WITH_KNOTS('',8,(#806,#807,#808,#809,#810,#811,
    #812,#813,#814),.UNSPECIFIED.,.F.,.F.,(9,9),(0.,1.),
  .PIECEWISE_BEZIER_KNOTS.);
#806 = CARTESIAN_POINT('',(26.503395765649,2.184595915664E-02));
#807 = CARTESIAN_POINT('',(26.626248988844,2.807740755986E-02));
#808 = CARTESIAN_POINT('',(26.749828105281,3.42998020319E-02));
#809 = CARTESIAN_POINT('',(26.874145136517,4.05128584992E-02));
#810 = CARTESIAN_POINT('',(26.999202705301,4.671638983608E-02));
#811 = CARTESIAN_POINT('',(27.125025887222,5.290993562291E-02));
#812 = CARTESIAN_POINT('',(27.251602378303,5.909345301857E-02));
#813 = CARTESIAN_POINT('',(27.3789645805,6.526637195534E-02));
#814 = CARTESIAN_POINT('',(27.507104805714,7.142857142857E-02));
#815 = ( GEOMETRIC_REPRESENTATION_CONTEXT(2) 
PARAMETRIC_REPRESENTATION_CONTEXT() REPRESENTATION_CONTEXT('2D SPACE',''
  ) );
#816 = PCURVE('',#817,#822);
#817 = PLANE('',#818);
#818 = AXIS2_PLACEMENT_3D('',#819,#820,#821);
#819 = CARTESIAN_POINT('',(-80.,-1.1,-3.));
#820 = DIRECTION('',(1.,0.,-0.));
#821 = DIRECTION('',(0.,0.,1.));
#822 = DEFINITIONAL_REPRESENTATION('',(#823),#833);
#823 = B_SPLINE_CURVE_WITH_KNOTS('',8,(#824,#825,#826,#827,#828,#829,
    #830,#831,#832),.UNSPECIFIED.,.F.,.F.,(9,9),(0.,1.),
  .PIECEWISE_BEZIER_KNOTS.);
#824 = CARTESIAN_POINT('',(3.917530284579,-2.2));
#825 = CARTESIAN_POINT('',(4.179251117514,-2.181832021579));
#826 = CARTESIAN_POINT('',(4.44059168534,-2.163091687832));
#827 = CARTESIAN_POINT('',(4.701540056967,-2.143752796008));
#828 = CARTESIAN_POINT('',(4.962088373115,-2.123787040157));
#829 = CARTESIAN_POINT('',(5.222217296163,-2.103168630578));
#830 = CARTESIAN_POINT('',(5.48192502678,-2.081865670209));
#831 = CARTESIAN_POINT('',(5.741187622124,-2.05985172847));
#832 = CARTESIAN_POINT('',(6.,-2.037094059843));
#833 = ( GEOMETRIC_REPRESENTATION_CONTEXT(2) 
PARAMETRIC_REPRESENTATION_CONTEXT() REPRESENTATION_CONTEXT('2D SPACE',''
  ) );
#834 = ORIENTED_EDGE('',*,*,#835,.F.);
#835 = EDGE_CURVE('',#836,#788,#838,.T.);
#836 = VERTEX_POINT('',#837);
#837 = CARTESIAN_POINT('',(-81.53606287017,1.1,3.));
#838 = SURFACE_CURVE('',#839,(#846,#856),.PCURVE_S1.);
#839 = B_SPLINE_CURVE_WITH_KNOTS('',5,(#840,#841,#842,#843,#844,#845),
  .UNSPECIFIED.,.F.,.F.,(6,6),(0.,1.),.PIECEWISE_BEZIER_KNOTS.);
#840 = CARTESIAN_POINT('',(-81.53606287017,1.1,3.));
#841 = CARTESIAN_POINT('',(-81.22193039816,1.1,2.593027493087));
#842 = CARTESIAN_POINT('',(-80.91171245735,1.1,2.180334035229));
#843 = CARTESIAN_POINT('',(-80.60489366318,1.1,1.76305110512));
#844 = CARTESIAN_POINT('',(-80.30110289547,1.1,1.341939407088));
#845 = CARTESIAN_POINT('',(-80.,1.1,0.917530284579));
#846 = PCURVE('',#49,#847);
#847 = DEFINITIONAL_REPRESENTATION('',(#848),#855);
#848 = B_SPLINE_CURVE_WITH_KNOTS('',5,(#849,#850,#851,#852,#853,#854),
  .UNSPECIFIED.,.F.,.F.,(6,6),(0.,1.),.PIECEWISE_BEZIER_KNOTS.);
#849 = CARTESIAN_POINT('',(25.908481972213,7.142857142857E-02));
#850 = CARTESIAN_POINT('',(26.041916230915,6.17387498354E-02));
#851 = CARTESIAN_POINT('',(26.16706072686,5.191271512451E-02));
#852 = CARTESIAN_POINT('',(26.285138571043,4.197740726477E-02));
#853 = CARTESIAN_POINT('',(26.397015468744,3.195093826399E-02));
#854 = CARTESIAN_POINT('',(26.503395765649,2.184595915664E-02));
#855 = ( GEOMETRIC_REPRESENTATION_CONTEXT(2) 
PARAMETRIC_REPRESENTATION_CONTEXT() REPRESENTATION_CONTEXT('2D SPACE',''
  ) );
#856 = PCURVE('',#857,#862);
#857 = PLANE('',#858);
#858 = AXIS2_PLACEMENT_3D('',#859,#860,#861);
#859 = CARTESIAN_POINT('',(-100.,1.1,-3.));
#860 = DIRECTION('',(-0.,1.,0.));
#861 = DIRECTION('',(0.,0.,1.));
#862 = DEFINITIONAL_REPRESENTATION('',(#863),#870);
#863 = B_SPLINE_CURVE_WITH_KNOTS('',5,(#864,#865,#866,#867,#868,#869),
  .UNSPECIFIED.,.F.,.F.,(6,6),(0.,1.),.PIECEWISE_BEZIER_KNOTS.);
#864 = CARTESIAN_POINT('',(6.,18.463937129821));
#865 = CARTESIAN_POINT('',(5.593027493087,18.77806960184));
#866 = CARTESIAN_POINT('',(5.180334035229,19.088287542648));
#867 = CARTESIAN_POINT('',(4.76305110512,19.395106336816));
#868 = CARTESIAN_POINT('',(4.341939407088,19.698897104529));
#869 = CARTESIAN_POINT('',(3.917530284579,20.));
#870 = ( GEOMETRIC_REPRESENTATION_CONTEXT(2) 
PARAMETRIC_REPRESENTATION_CONTEXT() REPRESENTATION_CONTEXT('2D SPACE',''
  ) );
#871 = ORIENTED_EDGE('',*,*,#872,.F.);
#872 = EDGE_CURVE('',#790,#836,#873,.T.);
#873 = SURFACE_CURVE('',#874,(#891,#911),.PCURVE_S1.);
#874 = B_SPLINE_CURVE_WITH_KNOTS('',8,(#875,#876,#877,#878,#879,#880,
    #881,#882,#883,#884,#885,#886,#887,#888,#889,#890),.UNSPECIFIED.,.F.
  ,.F.,(9,7,9),(0.,0.252798551432,1.),.UNSPECIFIED.);
#875 = CARTESIAN_POINT('',(-80.,0.937094059843,3.));
#876 = CARTESIAN_POINT('',(-80.03031197057,0.941259247018,3.));
#877 = CARTESIAN_POINT('',(-80.07566129373,0.947442768976,3.));
#878 = CARTESIAN_POINT('',(-80.12656837841,0.954258612171,3.));
#879 = CARTESIAN_POINT('',(-80.17681279953,0.960798974388,3.));
#880 = CARTESIAN_POINT('',(-80.2234645258,0.966768317026,3.));
#881 = CARTESIAN_POINT('',(-80.26671890346,0.972213790803,3.));
#882 = CARTESIAN_POINT('',(-80.30994528107,0.977589373552,3.));
#883 = CARTESIAN_POINT('',(-80.50623948386,1.001460521598,3.));
#884 = CARTESIAN_POINT('',(-80.65304929358,1.018276081602,3.));
#885 = CARTESIAN_POINT('',(-80.79998348189,1.034111258782,3.));
#886 = CARTESIAN_POINT('',(-80.94702845769,1.049006625602,3.));
#887 = CARTESIAN_POINT('',(-81.09417115719,1.063002713427,3.));
#888 = CARTESIAN_POINT('',(-81.24139904395,1.076140012515,3.));
#889 = CARTESIAN_POINT('',(-81.38870010887,1.088458972022,3.));
#890 = CARTESIAN_POINT('',(-81.53606287017,1.1,3.));
#891 = PCURVE('',#49,#892);
#892 = DEFINITIONAL_REPRESENTATION('',(#893),#910);
#893 = B_SPLINE_CURVE_WITH_KNOTS('',8,(#894,#895,#896,#897,#898,#899,
    #900,#901,#902,#903,#904,#905,#906,#907,#908,#909),.UNSPECIFIED.,.F.
  ,.F.,(9,7,9),(0.,0.252798551432,1.),.UNSPECIFIED.);
#894 = CARTESIAN_POINT('',(27.507105617323,7.142857142857E-02));
#895 = CARTESIAN_POINT('',(27.475421477875,7.142857142857E-02));
#896 = CARTESIAN_POINT('',(27.428020185613,7.142857142857E-02));
#897 = CARTESIAN_POINT('',(27.374853628965,7.142857142857E-02));
#898 = CARTESIAN_POINT('',(27.322371960499,7.142857142857E-02));
#899 = CARTESIAN_POINT('',(27.273696991815,7.142857142857E-02));
#900 = CARTESIAN_POINT('',(27.228556642757,7.142857142857E-02));
#901 = CARTESIAN_POINT('',(27.183465507986,7.142857142857E-02));
#902 = CARTESIAN_POINT('',(26.978778259029,7.142857142857E-02));
#903 = CARTESIAN_POINT('',(26.825849518137,7.142857142857E-02));
#904 = CARTESIAN_POINT('',(26.672933768591,7.142857142857E-02));
#905 = CARTESIAN_POINT('',(26.520029601778,7.142857142857E-02));
#906 = CARTESIAN_POINT('',(26.36713507716,7.142857142857E-02));
#907 = CARTESIAN_POINT('',(26.214247722274,7.142857142857E-02));
#908 = CARTESIAN_POINT('',(26.06136453273,7.142857142857E-02));
#909 = CARTESIAN_POINT('',(25.908481972213,7.142857142857E-02));
#910 = ( GEOMETRIC_REPRESENTATION_CONTEXT(2) 
PARAMETRIC_REPRESENTATION_CONTEXT() REPRESENTATION_CONTEXT('2D SPACE',''
  ) );
#911 = PCURVE('',#912,#917);
#912 = PLANE('',#913);
#913 = AXIS2_PLACEMENT_3D('',#914,#915,#916);
#914 = CARTESIAN_POINT('',(-100.,-1.1,3.));
#915 = DIRECTION('',(0.,0.,1.));
#916 = DIRECTION('',(1.,0.,-0.));
#917 = DEFINITIONAL_REPRESENTATION('',(#918),#935);
#918 = B_SPLINE_CURVE_WITH_KNOTS('',8,(#919,#920,#921,#922,#923,#924,
    #925,#926,#927,#928,#929,#930,#931,#932,#933,#934),.UNSPECIFIED.,.F.
  ,.F.,(9,7,9),(0.,0.252798551432,1.),.UNSPECIFIED.);
#919 = CARTESIAN_POINT('',(20.,2.037094059843));
#920 = CARTESIAN_POINT('',(19.969688029422,2.041259247018));
#921 = CARTESIAN_POINT('',(19.924338706267,2.047442768976));
#922 = CARTESIAN_POINT('',(19.873431621584,2.054258612171));
#923 = CARTESIAN_POINT('',(19.823187200467,2.060798974388));
#924 = CARTESIAN_POINT('',(19.7765354742,2.066768317026));
#925 = CARTESIAN_POINT('',(19.733281096537,2.072213790803));
#926 = CARTESIAN_POINT('',(19.690054718921,2.077589373552));
#927 = CARTESIAN_POINT('',(19.493760516137,2.101460521598));
#928 = CARTESIAN_POINT('',(19.346950706419,2.118276081602));
#929 = CARTESIAN_POINT('',(19.200016518103,2.134111258782));
#930 = CARTESIAN_POINT('',(19.052971542306,2.149006625602));
#931 = CARTESIAN_POINT('',(18.905828842805,2.163002713427));
#932 = CARTESIAN_POINT('',(18.758600956044,2.176140012515));
#933 = CARTESIAN_POINT('',(18.611299891127,2.188458972022));
#934 = CARTESIAN_POINT('',(18.463937129821,2.2));
#935 = ( GEOMETRIC_REPRESENTATION_CONTEXT(2) 
PARAMETRIC_REPRESENTATION_CONTEXT() REPRESENTATION_CONTEXT('2D SPACE',''
  ) );
#936 = ADVANCED_FACE('',(#937),#141,.F.);
#937 = FACE_BOUND('',#938,.F.);
#938 = EDGE_LOOP('',(#939,#962,#963,#986));
#939 = ORIENTED_EDGE('',*,*,#940,.T.);
#940 = EDGE_CURVE('',#941,#40,#943,.T.);
#941 = VERTEX_POINT('',#942);
#942 = CARTESIAN_POINT('',(-106.,-1.1,0.));
#943 = SURFACE_CURVE('',#944,(#948,#955),.PCURVE_S1.);
#944 = LINE('',#945,#946);
#945 = CARTESIAN_POINT('',(-106.,-1.1,0.));
#946 = VECTOR('',#947,1.);
#947 = DIRECTION('',(0.,1.,0.));
#948 = PCURVE('',#141,#949);
#949 = DEFINITIONAL_REPRESENTATION('',(#950),#954);
#950 = LINE('',#951,#952);
#951 = CARTESIAN_POINT('',(0.,-42.57933771208));
#952 = VECTOR('',#953,1.);
#953 = DIRECTION('',(1.,0.));
#954 = ( GEOMETRIC_REPRESENTATION_CONTEXT(2) 
PARAMETRIC_REPRESENTATION_CONTEXT() REPRESENTATION_CONTEXT('2D SPACE',''
  ) );
#955 = PCURVE('',#188,#956);
#956 = DEFINITIONAL_REPRESENTATION('',(#957),#961);
#957 = LINE('',#958,#959);
#958 = CARTESIAN_POINT('',(2.53024946439E-02,-0.899644254005));
#959 = VECTOR('',#960,1.);
#960 = DIRECTION('',(-2.811388293767E-02,0.999604726673));
#961 = ( GEOMETRIC_REPRESENTATION_CONTEXT(2) 
PARAMETRIC_REPRESENTATION_CONTEXT() REPRESENTATION_CONTEXT('2D SPACE',''
  ) );
#962 = ORIENTED_EDGE('',*,*,#39,.T.);
#963 = ORIENTED_EDGE('',*,*,#964,.F.);
#964 = EDGE_CURVE('',#965,#42,#967,.T.);
#965 = VERTEX_POINT('',#966);
#966 = CARTESIAN_POINT('',(-113.,-1.1,42.));
#967 = SURFACE_CURVE('',#968,(#972,#979),.PCURVE_S1.);
#968 = LINE('',#969,#970);
#969 = CARTESIAN_POINT('',(-113.,-1.1,42.));
#970 = VECTOR('',#971,1.);
#971 = DIRECTION('',(0.,1.,0.));
#972 = PCURVE('',#141,#973);
#973 = DEFINITIONAL_REPRESENTATION('',(#974),#978);
#974 = LINE('',#975,#976);
#975 = CARTESIAN_POINT('',(0.,0.));
#976 = VECTOR('',#977,1.);
#977 = DIRECTION('',(1.,0.));
#978 = ( GEOMETRIC_REPRESENTATION_CONTEXT(2) 
PARAMETRIC_REPRESENTATION_CONTEXT() REPRESENTATION_CONTEXT('2D SPACE',''
  ) );
#979 = PCURVE('',#753,#980);
#980 = DEFINITIONAL_REPRESENTATION('',(#981),#985);
#981 = LINE('',#982,#983);
#982 = CARTESIAN_POINT('',(4.758042702613E-02,-0.898741399382));
#983 = VECTOR('',#984,1.);
#984 = DIRECTION('',(-5.286714114015E-02,0.998601554869));
#985 = ( GEOMETRIC_REPRESENTATION_CONTEXT(2) 
PARAMETRIC_REPRESENTATION_CONTEXT() REPRESENTATION_CONTEXT('2D SPACE',''
  ) );
#986 = ORIENTED_EDGE('',*,*,#987,.F.);
#987 = EDGE_CURVE('',#941,#965,#988,.T.);
#988 = SURFACE_CURVE('',#989,(#992,#998),.PCURVE_S1.);
#989 = B_SPLINE_CURVE_WITH_KNOTS('',1,(#990,#991),.UNSPECIFIED.,.F.,.F.,
  (2,2),(0.,1.),.PIECEWISE_BEZIER_KNOTS.);
#990 = CARTESIAN_POINT('',(-106.,-1.1,0.));
#991 = CARTESIAN_POINT('',(-113.,-1.1,42.));
#992 = PCURVE('',#141,#993);
#993 = DEFINITIONAL_REPRESENTATION('',(#994),#997);
#994 = B_SPLINE_CURVE_WITH_KNOTS('',1,(#995,#996),.UNSPECIFIED.,.F.,.F.,
  (2,2),(0.,1.),.PIECEWISE_BEZIER_KNOTS.);
#995 = CARTESIAN_POINT('',(0.,-42.57933771208));
#996 = CARTESIAN_POINT('',(0.,0.));
#997 = ( GEOMETRIC_REPRESENTATION_CONTEXT(2) 
PARAMETRIC_REPRESENTATION_CONTEXT() REPRESENTATION_CONTEXT('2D SPACE',''
  ) );
#998 = PCURVE('',#999,#1004);
#999 = PLANE('',#1000);
#1000 = AXIS2_PLACEMENT_3D('',#1001,#1002,#1003);
#1001 = CARTESIAN_POINT('',(-97.25,-1.1,21.));
#1002 = DIRECTION('',(1.112246553165E-30,1.,3.848768898325E-31));
#1003 = DIRECTION('',(-0.896459874358,1.167632945862E-30,-0.443124918806
    ));
#1004 = DEFINITIONAL_REPRESENTATION('',(#1005),#1008);
#1005 = B_SPLINE_CURVE_WITH_KNOTS('',1,(#1006,#1007),.UNSPECIFIED.,.F.,
  .F.,(2,2),(0.,1.),.PIECEWISE_BEZIER_KNOTS.);
#1006 = CARTESIAN_POINT('',(17.149647195553,-14.94831432195));
#1007 = CARTESIAN_POINT('',(4.813619726208,25.804874832703));
#1008 = ( GEOMETRIC_REPRESENTATION_CONTEXT(2) 
PARAMETRIC_REPRESENTATION_CONTEXT() REPRESENTATION_CONTEXT('2D SPACE',''
  ) );
#1009 = ADVANCED_FACE('',(#1010),#753,.T.);
#1010 = FACE_BOUND('',#1011,.F.);
#1011 = EDGE_LOOP('',(#1012,#1013,#1035,#1056));
#1012 = ORIENTED_EDGE('',*,*,#720,.T.);
#1013 = ORIENTED_EDGE('',*,*,#1014,.T.);
#1014 = EDGE_CURVE('',#694,#1015,#1017,.T.);
#1015 = VERTEX_POINT('',#1016);
#1016 = CARTESIAN_POINT('',(-96.,-1.1,42.));
#1017 = SURFACE_CURVE('',#1018,(#1022,#1029),.PCURVE_S1.);
#1018 = LINE('',#1019,#1020);
#1019 = CARTESIAN_POINT('',(-96.,-0.45,42.));
#1020 = VECTOR('',#1021,1.);
#1021 = DIRECTION('',(0.,-1.,0.));
#1022 = PCURVE('',#753,#1023);
#1023 = DEFINITIONAL_REPRESENTATION('',(#1024),#1028);
#1024 = LINE('',#1025,#1026);
#1025 = CARTESIAN_POINT('',(16.989443218066,0.649091010665));
#1026 = VECTOR('',#1027,1.);
#1027 = DIRECTION('',(5.286714114015E-02,-0.998601554869));
#1028 = ( GEOMETRIC_REPRESENTATION_CONTEXT(2) 
PARAMETRIC_REPRESENTATION_CONTEXT() REPRESENTATION_CONTEXT('2D SPACE',''
  ) );
#1029 = PCURVE('',#708,#1030);
#1030 = DEFINITIONAL_REPRESENTATION('',(#1031),#1034);
#1031 = B_SPLINE_CURVE_WITH_KNOTS('',1,(#1032,#1033),.UNSPECIFIED.,.F.,
  .F.,(2,2),(0.,0.65),.PIECEWISE_BEZIER_KNOTS.);
#1032 = CARTESIAN_POINT('',(0.,1.));
#1033 = CARTESIAN_POINT('',(0.8,1.));
#1034 = ( GEOMETRIC_REPRESENTATION_CONTEXT(2) 
PARAMETRIC_REPRESENTATION_CONTEXT() REPRESENTATION_CONTEXT('2D SPACE',''
  ) );
#1035 = ORIENTED_EDGE('',*,*,#1036,.T.);
#1036 = EDGE_CURVE('',#1015,#965,#1037,.T.);
#1037 = SURFACE_CURVE('',#1038,(#1042,#1049),.PCURVE_S1.);
#1038 = LINE('',#1039,#1040);
#1039 = CARTESIAN_POINT('',(-96.,-1.1,42.));
#1040 = VECTOR('',#1041,1.);
#1041 = DIRECTION('',(-1.,0.,0.));
#1042 = PCURVE('',#753,#1043);
#1043 = DEFINITIONAL_REPRESENTATION('',(#1044),#1048);
#1044 = LINE('',#1045,#1046);
#1045 = CARTESIAN_POINT('',(17.023806859807,0.));
#1046 = VECTOR('',#1047,1.);
#1047 = DIRECTION('',(-0.998601554869,-5.286714114015E-02));
#1048 = ( GEOMETRIC_REPRESENTATION_CONTEXT(2) 
PARAMETRIC_REPRESENTATION_CONTEXT() REPRESENTATION_CONTEXT('2D SPACE',''
  ) );
#1049 = PCURVE('',#999,#1050);
#1050 = DEFINITIONAL_REPRESENTATION('',(#1051),#1055);
#1051 = LINE('',#1052,#1053);
#1052 = CARTESIAN_POINT('',(-10.42619813787,18.271751213002));
#1053 = VECTOR('',#1054,1.);
#1054 = DIRECTION('',(0.896459874358,0.443124918806));
#1055 = ( GEOMETRIC_REPRESENTATION_CONTEXT(2) 
PARAMETRIC_REPRESENTATION_CONTEXT() REPRESENTATION_CONTEXT('2D SPACE',''
  ) );
#1056 = ORIENTED_EDGE('',*,*,#964,.T.);
#1057 = ADVANCED_FACE('',(#1058),#708,.F.);
#1058 = FACE_BOUND('',#1059,.F.);
#1059 = EDGE_LOOP('',(#1060,#1083,#1102,#1103));
#1060 = ORIENTED_EDGE('',*,*,#1061,.T.);
#1061 = EDGE_CURVE('',#626,#1062,#1064,.T.);
#1062 = VERTEX_POINT('',#1063);
#1063 = CARTESIAN_POINT('',(-74.,-1.1,0.));
#1064 = SURFACE_CURVE('',#1065,(#1069,#1076),.PCURVE_S1.);
#1065 = LINE('',#1066,#1067);
#1066 = CARTESIAN_POINT('',(-74.,-0.3,0.));
#1067 = VECTOR('',#1068,1.);
#1068 = DIRECTION('',(0.,-1.,0.));
#1069 = PCURVE('',#708,#1070);
#1070 = DEFINITIONAL_REPRESENTATION('',(#1071),#1075);
#1071 = LINE('',#1072,#1073);
#1072 = CARTESIAN_POINT('',(0.,0.));
#1073 = VECTOR('',#1074,1.);
#1074 = DIRECTION('',(1.,0.));
#1075 = ( GEOMETRIC_REPRESENTATION_CONTEXT(2) 
PARAMETRIC_REPRESENTATION_CONTEXT() REPRESENTATION_CONTEXT('2D SPACE',''
  ) );
#1076 = PCURVE('',#661,#1077);
#1077 = DEFINITIONAL_REPRESENTATION('',(#1078),#1082);
#1078 = LINE('',#1079,#1080);
#1079 = CARTESIAN_POINT('',(31.990162641816,0.799683781338));
#1080 = VECTOR('',#1081,1.);
#1081 = DIRECTION('',(2.811388293767E-02,-0.999604726673));
#1082 = ( GEOMETRIC_REPRESENTATION_CONTEXT(2) 
PARAMETRIC_REPRESENTATION_CONTEXT() REPRESENTATION_CONTEXT('2D SPACE',''
  ) );
#1083 = ORIENTED_EDGE('',*,*,#1084,.T.);
#1084 = EDGE_CURVE('',#1062,#1015,#1085,.T.);
#1085 = SURFACE_CURVE('',#1086,(#1089,#1096),.PCURVE_S1.);
#1086 = B_SPLINE_CURVE_WITH_KNOTS('',1,(#1087,#1088),.UNSPECIFIED.,.F.,
  .F.,(2,2),(0.,1.),.PIECEWISE_BEZIER_KNOTS.);
#1087 = CARTESIAN_POINT('',(-74.,-1.1,0.));
#1088 = CARTESIAN_POINT('',(-96.,-1.1,42.));
#1089 = PCURVE('',#708,#1090);
#1090 = DEFINITIONAL_REPRESENTATION('',(#1091),#1095);
#1091 = LINE('',#1092,#1093);
#1092 = CARTESIAN_POINT('',(0.8,0.));
#1093 = VECTOR('',#1094,1.);
#1094 = DIRECTION('',(0.,1.));
#1095 = ( GEOMETRIC_REPRESENTATION_CONTEXT(2) 
PARAMETRIC_REPRESENTATION_CONTEXT() REPRESENTATION_CONTEXT('2D SPACE',''
  ) );
#1096 = PCURVE('',#999,#1097);
#1097 = DEFINITIONAL_REPRESENTATION('',(#1098),#1101);
#1098 = B_SPLINE_CURVE_WITH_KNOTS('',1,(#1099,#1100),.UNSPECIFIED.,.F.,
  .F.,(2,2),(0.,1.),.PIECEWISE_BEZIER_KNOTS.);
#1099 = CARTESIAN_POINT('',(-11.53706878389,-29.12831172374));
#1100 = CARTESIAN_POINT('',(-10.42619813787,18.271751213002));
#1101 = ( GEOMETRIC_REPRESENTATION_CONTEXT(2) 
PARAMETRIC_REPRESENTATION_CONTEXT() REPRESENTATION_CONTEXT('2D SPACE',''
  ) );
#1102 = ORIENTED_EDGE('',*,*,#1014,.F.);
#1103 = ORIENTED_EDGE('',*,*,#693,.F.);
#1104 = ADVANCED_FACE('',(#1105),#661,.F.);
#1105 = FACE_BOUND('',#1106,.F.);
#1106 = EDGE_LOOP('',(#1107,#1108,#1129,#1155,#1176));
#1107 = ORIENTED_EDGE('',*,*,#625,.F.);
#1108 = ORIENTED_EDGE('',*,*,#1109,.F.);
#1109 = EDGE_CURVE('',#1110,#583,#1112,.T.);
#1110 = VERTEX_POINT('',#1111);
#1111 = CARTESIAN_POINT('',(-80.,1.1,0.));
#1112 = SURFACE_CURVE('',#1113,(#1117,#1123),.PCURVE_S1.);
#1113 = LINE('',#1114,#1115);
#1114 = CARTESIAN_POINT('',(-103.,1.1,0.));
#1115 = VECTOR('',#1116,1.);
#1116 = DIRECTION('',(-1.,0.,0.));
#1117 = PCURVE('',#661,#1118);
#1118 = DEFINITIONAL_REPRESENTATION('',(#1119),#1122);
#1119 = B_SPLINE_CURVE_WITH_KNOTS('',1,(#1120,#1121),.UNSPECIFIED.,.F.,
  .F.,(2,2),(-23.,-3.),.PIECEWISE_BEZIER_KNOTS.);
#1120 = CARTESIAN_POINT('',(25.953174845668,2.030447101054));
#1121 = CARTESIAN_POINT('',(5.961080312217,1.4681694423));
#1122 = ( GEOMETRIC_REPRESENTATION_CONTEXT(2) 
PARAMETRIC_REPRESENTATION_CONTEXT() REPRESENTATION_CONTEXT('2D SPACE',''
  ) );
#1123 = PCURVE('',#608,#1124);
#1124 = DEFINITIONAL_REPRESENTATION('',(#1125),#1128);
#1125 = B_SPLINE_CURVE_WITH_KNOTS('',1,(#1126,#1127),.UNSPECIFIED.,.F.,
  .F.,(2,2),(-23.,-3.),.PIECEWISE_BEZIER_KNOTS.);
#1126 = CARTESIAN_POINT('',(3.,20.));
#1127 = CARTESIAN_POINT('',(3.,0.));
#1128 = ( GEOMETRIC_REPRESENTATION_CONTEXT(2) 
PARAMETRIC_REPRESENTATION_CONTEXT() REPRESENTATION_CONTEXT('2D SPACE',''
  ) );
#1129 = ORIENTED_EDGE('',*,*,#1130,.F.);
#1130 = EDGE_CURVE('',#1131,#1110,#1133,.T.);
#1131 = VERTEX_POINT('',#1132);
#1132 = CARTESIAN_POINT('',(-80.,-1.1,0.));
#1133 = SURFACE_CURVE('',#1134,(#1138,#1144),.PCURVE_S1.);
#1134 = LINE('',#1135,#1136);
#1135 = CARTESIAN_POINT('',(-80.,-0.65,0.));
#1136 = VECTOR('',#1137,1.);
#1137 = DIRECTION('',(-0.,1.,-0.));
#1138 = PCURVE('',#661,#1139);
#1139 = DEFINITIONAL_REPRESENTATION('',(#1140),#1143);
#1140 = B_SPLINE_CURVE_WITH_KNOTS('',1,(#1141,#1142),.UNSPECIFIED.,.F.,
  .F.,(2,2),(-0.45,1.75),.PIECEWISE_BEZIER_KNOTS.);
#1141 = CARTESIAN_POINT('',(26.015025388131,-0.168683297626));
#1142 = CARTESIAN_POINT('',(25.953174845668,2.030447101054));
#1143 = ( GEOMETRIC_REPRESENTATION_CONTEXT(2) 
PARAMETRIC_REPRESENTATION_CONTEXT() REPRESENTATION_CONTEXT('2D SPACE',''
  ) );
#1144 = PCURVE('',#1145,#1150);
#1145 = PLANE('',#1146);
#1146 = AXIS2_PLACEMENT_3D('',#1147,#1148,#1149);
#1147 = CARTESIAN_POINT('',(-80.,-1.1,-3.));
#1148 = DIRECTION('',(1.,0.,-0.));
#1149 = DIRECTION('',(0.,0.,1.));
#1150 = DEFINITIONAL_REPRESENTATION('',(#1151),#1154);
#1151 = B_SPLINE_CURVE_WITH_KNOTS('',1,(#1152,#1153),.UNSPECIFIED.,.F.,
  .F.,(2,2),(-0.45,1.75),.PIECEWISE_BEZIER_KNOTS.);
#1152 = CARTESIAN_POINT('',(3.,0.));
#1153 = CARTESIAN_POINT('',(3.,-2.2));
#1154 = ( GEOMETRIC_REPRESENTATION_CONTEXT(2) 
PARAMETRIC_REPRESENTATION_CONTEXT() REPRESENTATION_CONTEXT('2D SPACE',''
  ) );
#1155 = ORIENTED_EDGE('',*,*,#1156,.F.);
#1156 = EDGE_CURVE('',#1062,#1131,#1157,.T.);
#1157 = SURFACE_CURVE('',#1158,(#1162,#1169),.PCURVE_S1.);
#1158 = LINE('',#1159,#1160);
#1159 = CARTESIAN_POINT('',(-74.,-1.1,0.));
#1160 = VECTOR('',#1161,1.);
#1161 = DIRECTION('',(-1.,0.,0.));
#1162 = PCURVE('',#661,#1163);
#1163 = DEFINITIONAL_REPRESENTATION('',(#1164),#1168);
#1164 = LINE('',#1165,#1166);
#1165 = CARTESIAN_POINT('',(32.012653748167,0.));
#1166 = VECTOR('',#1167,1.);
#1167 = DIRECTION('',(-0.999604726673,-2.811388293767E-02));
#1168 = ( GEOMETRIC_REPRESENTATION_CONTEXT(2) 
PARAMETRIC_REPRESENTATION_CONTEXT() REPRESENTATION_CONTEXT('2D SPACE',''
  ) );
#1169 = PCURVE('',#999,#1170);
#1170 = DEFINITIONAL_REPRESENTATION('',(#1171),#1175);
#1171 = LINE('',#1172,#1173);
#1172 = CARTESIAN_POINT('',(-11.53706878389,-29.12831172374));
#1173 = VECTOR('',#1174,1.);
#1174 = DIRECTION('',(0.896459874358,0.443124918806));
#1175 = ( GEOMETRIC_REPRESENTATION_CONTEXT(2) 
PARAMETRIC_REPRESENTATION_CONTEXT() REPRESENTATION_CONTEXT('2D SPACE',''
  ) );
#1176 = ORIENTED_EDGE('',*,*,#1061,.F.);
#1177 = ADVANCED_FACE('',(#1178),#608,.T.);
#1178 = FACE_BOUND('',#1179,.T.);
#1179 = EDGE_LOOP('',(#1180,#1203,#1231,#1254,#1275,#1276));
#1180 = ORIENTED_EDGE('',*,*,#1181,.F.);
#1181 = EDGE_CURVE('',#1182,#1110,#1184,.T.);
#1182 = VERTEX_POINT('',#1183);
#1183 = CARTESIAN_POINT('',(-80.,1.1,-3.));
#1184 = SURFACE_CURVE('',#1185,(#1189,#1196),.PCURVE_S1.);
#1185 = LINE('',#1186,#1187);
#1186 = CARTESIAN_POINT('',(-80.,1.1,-3.));
#1187 = VECTOR('',#1188,1.);
#1188 = DIRECTION('',(0.,0.,1.));
#1189 = PCURVE('',#608,#1190);
#1190 = DEFINITIONAL_REPRESENTATION('',(#1191),#1195);
#1191 = LINE('',#1192,#1193);
#1192 = CARTESIAN_POINT('',(0.,20.));
#1193 = VECTOR('',#1194,1.);
#1194 = DIRECTION('',(1.,0.));
#1195 = ( GEOMETRIC_REPRESENTATION_CONTEXT(2) 
PARAMETRIC_REPRESENTATION_CONTEXT() REPRESENTATION_CONTEXT('2D SPACE',''
  ) );
#1196 = PCURVE('',#1145,#1197);
#1197 = DEFINITIONAL_REPRESENTATION('',(#1198),#1202);
#1198 = LINE('',#1199,#1200);
#1199 = CARTESIAN_POINT('',(0.,-2.2));
#1200 = VECTOR('',#1201,1.);
#1201 = DIRECTION('',(1.,0.));
#1202 = ( GEOMETRIC_REPRESENTATION_CONTEXT(2) 
PARAMETRIC_REPRESENTATION_CONTEXT() REPRESENTATION_CONTEXT('2D SPACE',''
  ) );
#1203 = ORIENTED_EDGE('',*,*,#1204,.F.);
#1204 = EDGE_CURVE('',#1205,#1182,#1207,.T.);
#1205 = VERTEX_POINT('',#1206);
#1206 = CARTESIAN_POINT('',(-100.,1.1,-3.));
#1207 = SURFACE_CURVE('',#1208,(#1212,#1219),.PCURVE_S1.);
#1208 = LINE('',#1209,#1210);
#1209 = CARTESIAN_POINT('',(-100.,1.1,-3.));
#1210 = VECTOR('',#1211,1.);
#1211 = DIRECTION('',(1.,0.,-0.));
#1212 = PCURVE('',#608,#1213);
#1213 = DEFINITIONAL_REPRESENTATION('',(#1214),#1218);
#1214 = LINE('',#1215,#1216);
#1215 = CARTESIAN_POINT('',(0.,0.));
#1216 = VECTOR('',#1217,1.);
#1217 = DIRECTION('',(0.,1.));
#1218 = ( GEOMETRIC_REPRESENTATION_CONTEXT(2) 
PARAMETRIC_REPRESENTATION_CONTEXT() REPRESENTATION_CONTEXT('2D SPACE',''
  ) );
#1219 = PCURVE('',#1220,#1225);
#1220 = PLANE('',#1221);
#1221 = AXIS2_PLACEMENT_3D('',#1222,#1223,#1224);
#1222 = CARTESIAN_POINT('',(-100.,-1.1,-3.));
#1223 = DIRECTION('',(0.,0.,1.));
#1224 = DIRECTION('',(1.,0.,-0.));
#1225 = DEFINITIONAL_REPRESENTATION('',(#1226),#1230);
#1226 = LINE('',#1227,#1228);
#1227 = CARTESIAN_POINT('',(0.,2.2));
#1228 = VECTOR('',#1229,1.);
#1229 = DIRECTION('',(1.,0.));
#1230 = ( GEOMETRIC_REPRESENTATION_CONTEXT(2) 
PARAMETRIC_REPRESENTATION_CONTEXT() REPRESENTATION_CONTEXT('2D SPACE',''
  ) );
#1231 = ORIENTED_EDGE('',*,*,#1232,.T.);
#1232 = EDGE_CURVE('',#1205,#1233,#1235,.T.);
#1233 = VERTEX_POINT('',#1234);
#1234 = CARTESIAN_POINT('',(-100.,1.1,3.));
#1235 = SURFACE_CURVE('',#1236,(#1240,#1247),.PCURVE_S1.);
#1236 = LINE('',#1237,#1238);
#1237 = CARTESIAN_POINT('',(-100.,1.1,-3.));
#1238 = VECTOR('',#1239,1.);
#1239 = DIRECTION('',(0.,0.,1.));
#1240 = PCURVE('',#608,#1241);
#1241 = DEFINITIONAL_REPRESENTATION('',(#1242),#1246);
#1242 = LINE('',#1243,#1244);
#1243 = CARTESIAN_POINT('',(0.,0.));
#1244 = VECTOR('',#1245,1.);
#1245 = DIRECTION('',(1.,0.));
#1246 = ( GEOMETRIC_REPRESENTATION_CONTEXT(2) 
PARAMETRIC_REPRESENTATION_CONTEXT() REPRESENTATION_CONTEXT('2D SPACE',''
  ) );
#1247 = PCURVE('',#246,#1248);
#1248 = DEFINITIONAL_REPRESENTATION('',(#1249),#1253);
#1249 = LINE('',#1250,#1251);
#1250 = CARTESIAN_POINT('',(0.,-2.2));
#1251 = VECTOR('',#1252,1.);
#1252 = DIRECTION('',(1.,0.));
#1253 = ( GEOMETRIC_REPRESENTATION_CONTEXT(2) 
PARAMETRIC_REPRESENTATION_CONTEXT() REPRESENTATION_CONTEXT('2D SPACE',''
  ) );
#1254 = ORIENTED_EDGE('',*,*,#1255,.T.);
#1255 = EDGE_CURVE('',#1233,#264,#1256,.T.);
#1256 = SURFACE_CURVE('',#1257,(#1261,#1268),.PCURVE_S1.);
#1257 = LINE('',#1258,#1259);
#1258 = CARTESIAN_POINT('',(-100.,1.1,3.));
#1259 = VECTOR('',#1260,1.);
#1260 = DIRECTION('',(1.,0.,-0.));
#1261 = PCURVE('',#608,#1262);
#1262 = DEFINITIONAL_REPRESENTATION('',(#1263),#1267);
#1263 = LINE('',#1264,#1265);
#1264 = CARTESIAN_POINT('',(6.,0.));
#1265 = VECTOR('',#1266,1.);
#1266 = DIRECTION('',(0.,1.));
#1267 = ( GEOMETRIC_REPRESENTATION_CONTEXT(2) 
PARAMETRIC_REPRESENTATION_CONTEXT() REPRESENTATION_CONTEXT('2D SPACE',''
  ) );
#1268 = PCURVE('',#473,#1269);
#1269 = DEFINITIONAL_REPRESENTATION('',(#1270),#1274);
#1270 = LINE('',#1271,#1272);
#1271 = CARTESIAN_POINT('',(0.,2.2));
#1272 = VECTOR('',#1273,1.);
#1273 = DIRECTION('',(1.,0.));
#1274 = ( GEOMETRIC_REPRESENTATION_CONTEXT(2) 
PARAMETRIC_REPRESENTATION_CONTEXT() REPRESENTATION_CONTEXT('2D SPACE',''
  ) );
#1275 = ORIENTED_EDGE('',*,*,#582,.F.);
#1276 = ORIENTED_EDGE('',*,*,#1109,.F.);
#1277 = ADVANCED_FACE('',(#1278),#473,.T.);
#1278 = FACE_BOUND('',#1279,.T.);
#1279 = EDGE_LOOP('',(#1280,#1301,#1302));
#1280 = ORIENTED_EDGE('',*,*,#1281,.F.);
#1281 = EDGE_CURVE('',#221,#1233,#1282,.T.);
#1282 = SURFACE_CURVE('',#1283,(#1287,#1294),.PCURVE_S1.);
#1283 = LINE('',#1284,#1285);
#1284 = CARTESIAN_POINT('',(-100.,-1.1,3.));
#1285 = VECTOR('',#1286,1.);
#1286 = DIRECTION('',(-0.,1.,0.));
#1287 = PCURVE('',#473,#1288);
#1288 = DEFINITIONAL_REPRESENTATION('',(#1289),#1293);
#1289 = LINE('',#1290,#1291);
#1290 = CARTESIAN_POINT('',(0.,0.));
#1291 = VECTOR('',#1292,1.);
#1292 = DIRECTION('',(0.,1.));
#1293 = ( GEOMETRIC_REPRESENTATION_CONTEXT(2) 
PARAMETRIC_REPRESENTATION_CONTEXT() REPRESENTATION_CONTEXT('2D SPACE',''
  ) );
#1294 = PCURVE('',#246,#1295);
#1295 = DEFINITIONAL_REPRESENTATION('',(#1296),#1300);
#1296 = LINE('',#1297,#1298);
#1297 = CARTESIAN_POINT('',(6.,0.));
#1298 = VECTOR('',#1299,1.);
#1299 = DIRECTION('',(0.,-1.));
#1300 = ( GEOMETRIC_REPRESENTATION_CONTEXT(2) 
PARAMETRIC_REPRESENTATION_CONTEXT() REPRESENTATION_CONTEXT('2D SPACE',''
  ) );
#1301 = ORIENTED_EDGE('',*,*,#263,.F.);
#1302 = ORIENTED_EDGE('',*,*,#1255,.F.);
#1303 = ADVANCED_FACE('',(#1304),#246,.F.);
#1304 = FACE_BOUND('',#1305,.F.);
#1305 = EDGE_LOOP('',(#1306,#1331,#1352,#1353,#1354,#1355));
#1306 = ORIENTED_EDGE('',*,*,#1307,.F.);
#1307 = EDGE_CURVE('',#1308,#1310,#1312,.T.);
#1308 = VERTEX_POINT('',#1309);
#1309 = CARTESIAN_POINT('',(-100.,-1.1,-3.));
#1310 = VERTEX_POINT('',#1311);
#1311 = CARTESIAN_POINT('',(-100.,-1.1,0.));
#1312 = SURFACE_CURVE('',#1313,(#1317,#1324),.PCURVE_S1.);
#1313 = LINE('',#1314,#1315);
#1314 = CARTESIAN_POINT('',(-100.,-1.1,-3.));
#1315 = VECTOR('',#1316,1.);
#1316 = DIRECTION('',(0.,0.,1.));
#1317 = PCURVE('',#246,#1318);
#1318 = DEFINITIONAL_REPRESENTATION('',(#1319),#1323);
#1319 = LINE('',#1320,#1321);
#1320 = CARTESIAN_POINT('',(0.,0.));
#1321 = VECTOR('',#1322,1.);
#1322 = DIRECTION('',(1.,0.));
#1323 = ( GEOMETRIC_REPRESENTATION_CONTEXT(2) 
PARAMETRIC_REPRESENTATION_CONTEXT() REPRESENTATION_CONTEXT('2D SPACE',''
  ) );
#1324 = PCURVE('',#999,#1325);
#1325 = DEFINITIONAL_REPRESENTATION('',(#1326),#1330);
#1326 = LINE('',#1327,#1328);
#1327 = CARTESIAN_POINT('',(13.100262705826,-20.29644345786));
#1328 = VECTOR('',#1329,1.);
#1329 = DIRECTION('',(-0.443124918806,0.896459874358));
#1330 = ( GEOMETRIC_REPRESENTATION_CONTEXT(2) 
PARAMETRIC_REPRESENTATION_CONTEXT() REPRESENTATION_CONTEXT('2D SPACE',''
  ) );
#1331 = ORIENTED_EDGE('',*,*,#1332,.T.);
#1332 = EDGE_CURVE('',#1308,#1205,#1333,.T.);
#1333 = SURFACE_CURVE('',#1334,(#1338,#1345),.PCURVE_S1.);
#1334 = LINE('',#1335,#1336);
#1335 = CARTESIAN_POINT('',(-100.,-1.1,-3.));
#1336 = VECTOR('',#1337,1.);
#1337 = DIRECTION('',(-0.,1.,0.));
#1338 = PCURVE('',#246,#1339);
#1339 = DEFINITIONAL_REPRESENTATION('',(#1340),#1344);
#1340 = LINE('',#1341,#1342);
#1341 = CARTESIAN_POINT('',(0.,0.));
#1342 = VECTOR('',#1343,1.);
#1343 = DIRECTION('',(0.,-1.));
#1344 = ( GEOMETRIC_REPRESENTATION_CONTEXT(2) 
PARAMETRIC_REPRESENTATION_CONTEXT() REPRESENTATION_CONTEXT('2D SPACE',''
  ) );
#1345 = PCURVE('',#1220,#1346);
#1346 = DEFINITIONAL_REPRESENTATION('',(#1347),#1351);
#1347 = LINE('',#1348,#1349);
#1348 = CARTESIAN_POINT('',(0.,0.));
#1349 = VECTOR('',#1350,1.);
#1350 = DIRECTION('',(0.,1.));
#1351 = ( GEOMETRIC_REPRESENTATION_CONTEXT(2) 
PARAMETRIC_REPRESENTATION_CONTEXT() REPRESENTATION_CONTEXT('2D SPACE',''
  ) );
#1352 = ORIENTED_EDGE('',*,*,#1232,.T.);
#1353 = ORIENTED_EDGE('',*,*,#1281,.F.);
#1354 = ORIENTED_EDGE('',*,*,#220,.F.);
#1355 = ORIENTED_EDGE('',*,*,#1356,.F.);
#1356 = EDGE_CURVE('',#1310,#153,#1357,.T.);
#1357 = SURFACE_CURVE('',#1358,(#1362,#1368),.PCURVE_S1.);
#1358 = LINE('',#1359,#1360);
#1359 = CARTESIAN_POINT('',(-100.,-0.65,0.));
#1360 = VECTOR('',#1361,1.);
#1361 = DIRECTION('',(-0.,1.,-0.));
#1362 = PCURVE('',#246,#1363);
#1363 = DEFINITIONAL_REPRESENTATION('',(#1364),#1367);
#1364 = B_SPLINE_CURVE_WITH_KNOTS('',1,(#1365,#1366),.UNSPECIFIED.,.F.,
  .F.,(2,2),(-0.45,1.75),.PIECEWISE_BEZIER_KNOTS.);
#1365 = CARTESIAN_POINT('',(3.,0.));
#1366 = CARTESIAN_POINT('',(3.,-2.2));
#1367 = ( GEOMETRIC_REPRESENTATION_CONTEXT(2) 
PARAMETRIC_REPRESENTATION_CONTEXT() REPRESENTATION_CONTEXT('2D SPACE',''
  ) );
#1368 = PCURVE('',#188,#1369);
#1369 = DEFINITIONAL_REPRESENTATION('',(#1370),#1373);
#1370 = B_SPLINE_CURVE_WITH_KNOTS('',1,(#1371,#1372),.UNSPECIFIED.,.F.,
  .F.,(2,2),(-0.45,1.75),.PIECEWISE_BEZIER_KNOTS.);
#1371 = CARTESIAN_POINT('',(6.022930854679,-0.730960956379));
#1372 = CARTESIAN_POINT('',(5.961080312217,1.4681694423));
#1373 = ( GEOMETRIC_REPRESENTATION_CONTEXT(2) 
PARAMETRIC_REPRESENTATION_CONTEXT() REPRESENTATION_CONTEXT('2D SPACE',''
  ) );
#1374 = ADVANCED_FACE('',(#1375),#188,.F.);
#1375 = FACE_BOUND('',#1376,.F.);
#1376 = EDGE_LOOP('',(#1377,#1378,#1379,#1400));
#1377 = ORIENTED_EDGE('',*,*,#152,.F.);
#1378 = ORIENTED_EDGE('',*,*,#940,.F.);
#1379 = ORIENTED_EDGE('',*,*,#1380,.F.);
#1380 = EDGE_CURVE('',#1310,#941,#1381,.T.);
#1381 = SURFACE_CURVE('',#1382,(#1386,#1393),.PCURVE_S1.);
#1382 = LINE('',#1383,#1384);
#1383 = CARTESIAN_POINT('',(-74.,-1.1,0.));
#1384 = VECTOR('',#1385,1.);
#1385 = DIRECTION('',(-1.,0.,0.));
#1386 = PCURVE('',#188,#1387);
#1387 = DEFINITIONAL_REPRESENTATION('',(#1388),#1392);
#1388 = LINE('',#1389,#1390);
#1389 = CARTESIAN_POINT('',(32.012653748167,0.));
#1390 = VECTOR('',#1391,1.);
#1391 = DIRECTION('',(-0.999604726673,-2.811388293767E-02));
#1392 = ( GEOMETRIC_REPRESENTATION_CONTEXT(2) 
PARAMETRIC_REPRESENTATION_CONTEXT() REPRESENTATION_CONTEXT('2D SPACE',''
  ) );
#1393 = PCURVE('',#999,#1394);
#1394 = DEFINITIONAL_REPRESENTATION('',(#1395),#1399);
#1395 = LINE('',#1396,#1397);
#1396 = CARTESIAN_POINT('',(-11.53706878389,-29.12831172374));
#1397 = VECTOR('',#1398,1.);
#1398 = DIRECTION('',(0.896459874358,0.443124918806));
#1399 = ( GEOMETRIC_REPRESENTATION_CONTEXT(2) 
PARAMETRIC_REPRESENTATION_CONTEXT() REPRESENTATION_CONTEXT('2D SPACE',''
  ) );
#1400 = ORIENTED_EDGE('',*,*,#1356,.T.);
#1401 = ADVANCED_FACE('',(#1402),#817,.T.);
#1402 = FACE_BOUND('',#1403,.T.);
#1403 = EDGE_LOOP('',(#1404,#1427,#1428));
#1404 = ORIENTED_EDGE('',*,*,#1405,.F.);
#1405 = EDGE_CURVE('',#790,#1406,#1408,.T.);
#1406 = VERTEX_POINT('',#1407);
#1407 = CARTESIAN_POINT('',(-80.,1.1,3.));
#1408 = SURFACE_CURVE('',#1409,(#1413,#1420),.PCURVE_S1.);
#1409 = LINE('',#1410,#1411);
#1410 = CARTESIAN_POINT('',(-80.,-1.1,3.));
#1411 = VECTOR('',#1412,1.);
#1412 = DIRECTION('',(-0.,1.,0.));
#1413 = PCURVE('',#817,#1414);
#1414 = DEFINITIONAL_REPRESENTATION('',(#1415),#1419);
#1415 = LINE('',#1416,#1417);
#1416 = CARTESIAN_POINT('',(6.,0.));
#1417 = VECTOR('',#1418,1.);
#1418 = DIRECTION('',(0.,-1.));
#1419 = ( GEOMETRIC_REPRESENTATION_CONTEXT(2) 
PARAMETRIC_REPRESENTATION_CONTEXT() REPRESENTATION_CONTEXT('2D SPACE',''
  ) );
#1420 = PCURVE('',#912,#1421);
#1421 = DEFINITIONAL_REPRESENTATION('',(#1422),#1426);
#1422 = LINE('',#1423,#1424);
#1423 = CARTESIAN_POINT('',(20.,0.));
#1424 = VECTOR('',#1425,1.);
#1425 = DIRECTION('',(0.,1.));
#1426 = ( GEOMETRIC_REPRESENTATION_CONTEXT(2) 
PARAMETRIC_REPRESENTATION_CONTEXT() REPRESENTATION_CONTEXT('2D SPACE',''
  ) );
#1427 = ORIENTED_EDGE('',*,*,#787,.F.);
#1428 = ORIENTED_EDGE('',*,*,#1429,.T.);
#1429 = EDGE_CURVE('',#788,#1406,#1430,.T.);
#1430 = SURFACE_CURVE('',#1431,(#1435,#1442),.PCURVE_S1.);
#1431 = LINE('',#1432,#1433);
#1432 = CARTESIAN_POINT('',(-80.,1.1,-3.));
#1433 = VECTOR('',#1434,1.);
#1434 = DIRECTION('',(0.,0.,1.));
#1435 = PCURVE('',#817,#1436);
#1436 = DEFINITIONAL_REPRESENTATION('',(#1437),#1441);
#1437 = LINE('',#1438,#1439);
#1438 = CARTESIAN_POINT('',(0.,-2.2));
#1439 = VECTOR('',#1440,1.);
#1440 = DIRECTION('',(1.,0.));
#1441 = ( GEOMETRIC_REPRESENTATION_CONTEXT(2) 
PARAMETRIC_REPRESENTATION_CONTEXT() REPRESENTATION_CONTEXT('2D SPACE',''
  ) );
#1442 = PCURVE('',#857,#1443);
#1443 = DEFINITIONAL_REPRESENTATION('',(#1444),#1448);
#1444 = LINE('',#1445,#1446);
#1445 = CARTESIAN_POINT('',(0.,20.));
#1446 = VECTOR('',#1447,1.);
#1447 = DIRECTION('',(1.,0.));
#1448 = ( GEOMETRIC_REPRESENTATION_CONTEXT(2) 
PARAMETRIC_REPRESENTATION_CONTEXT() REPRESENTATION_CONTEXT('2D SPACE',''
  ) );
#1449 = ADVANCED_FACE('',(#1450),#912,.T.);
#1450 = FACE_BOUND('',#1451,.T.);
#1451 = EDGE_LOOP('',(#1452,#1453,#1454));
#1452 = ORIENTED_EDGE('',*,*,#872,.F.);
#1453 = ORIENTED_EDGE('',*,*,#1405,.T.);
#1454 = ORIENTED_EDGE('',*,*,#1455,.F.);
#1455 = EDGE_CURVE('',#836,#1406,#1456,.T.);
#1456 = SURFACE_CURVE('',#1457,(#1461,#1468),.PCURVE_S1.);
#1457 = LINE('',#1458,#1459);
#1458 = CARTESIAN_POINT('',(-100.,1.1,3.));
#1459 = VECTOR('',#1460,1.);
#1460 = DIRECTION('',(1.,0.,-0.));
#1461 = PCURVE('',#912,#1462);
#1462 = DEFINITIONAL_REPRESENTATION('',(#1463),#1467);
#1463 = LINE('',#1464,#1465);
#1464 = CARTESIAN_POINT('',(0.,2.2));
#1465 = VECTOR('',#1466,1.);
#1466 = DIRECTION('',(1.,0.));
#1467 = ( GEOMETRIC_REPRESENTATION_CONTEXT(2) 
PARAMETRIC_REPRESENTATION_CONTEXT() REPRESENTATION_CONTEXT('2D SPACE',''
  ) );
#1468 = PCURVE('',#857,#1469);
#1469 = DEFINITIONAL_REPRESENTATION('',(#1470),#1474);
#1470 = LINE('',#1471,#1472);
#1471 = CARTESIAN_POINT('',(6.,0.));
#1472 = VECTOR('',#1473,1.);
#1473 = DIRECTION('',(0.,1.));
#1474 = ( GEOMETRIC_REPRESENTATION_CONTEXT(2) 
PARAMETRIC_REPRESENTATION_CONTEXT() REPRESENTATION_CONTEXT('2D SPACE',''
  ) );
#1475 = ADVANCED_FACE('',(#1476),#857,.T.);
#1476 = FACE_BOUND('',#1477,.T.);
#1477 = EDGE_LOOP('',(#1478,#1479,#1480));
#1478 = ORIENTED_EDGE('',*,*,#1429,.F.);
#1479 = ORIENTED_EDGE('',*,*,#835,.F.);
#1480 = ORIENTED_EDGE('',*,*,#1455,.T.);
#1481 = ADVANCED_FACE('',(#1482),#999,.F.);
#1482 = FACE_BOUND('',#1483,.F.);
#1483 = EDGE_LOOP('',(#1484,#1485,#1486,#1509,#1530,#1531,#1532,#1533));
#1484 = ORIENTED_EDGE('',*,*,#1084,.F.);
#1485 = ORIENTED_EDGE('',*,*,#1156,.T.);
#1486 = ORIENTED_EDGE('',*,*,#1487,.F.);
#1487 = EDGE_CURVE('',#1488,#1131,#1490,.T.);
#1488 = VERTEX_POINT('',#1489);
#1489 = CARTESIAN_POINT('',(-80.,-1.1,-3.));
#1490 = SURFACE_CURVE('',#1491,(#1495,#1502),.PCURVE_S1.);
#1491 = LINE('',#1492,#1493);
#1492 = CARTESIAN_POINT('',(-80.,-1.1,-3.));
#1493 = VECTOR('',#1494,1.);
#1494 = DIRECTION('',(0.,0.,1.));
#1495 = PCURVE('',#999,#1496);
#1496 = DEFINITIONAL_REPRESENTATION('',(#1497),#1501);
#1497 = LINE('',#1498,#1499);
#1498 = CARTESIAN_POINT('',(-4.828934781327,-29.15894183398));
#1499 = VECTOR('',#1500,1.);
#1500 = DIRECTION('',(-0.443124918806,0.896459874358));
#1501 = ( GEOMETRIC_REPRESENTATION_CONTEXT(2) 
PARAMETRIC_REPRESENTATION_CONTEXT() REPRESENTATION_CONTEXT('2D SPACE',''
  ) );
#1502 = PCURVE('',#1145,#1503);
#1503 = DEFINITIONAL_REPRESENTATION('',(#1504),#1508);
#1504 = LINE('',#1505,#1506);
#1505 = CARTESIAN_POINT('',(0.,0.));
#1506 = VECTOR('',#1507,1.);
#1507 = DIRECTION('',(1.,0.));
#1508 = ( GEOMETRIC_REPRESENTATION_CONTEXT(2) 
PARAMETRIC_REPRESENTATION_CONTEXT() REPRESENTATION_CONTEXT('2D SPACE',''
  ) );
#1509 = ORIENTED_EDGE('',*,*,#1510,.F.);
#1510 = EDGE_CURVE('',#1308,#1488,#1511,.T.);
#1511 = SURFACE_CURVE('',#1512,(#1516,#1523),.PCURVE_S1.);
#1512 = LINE('',#1513,#1514);
#1513 = CARTESIAN_POINT('',(-100.,-1.1,-3.));
#1514 = VECTOR('',#1515,1.);
#1515 = DIRECTION('',(1.,0.,-0.));
#1516 = PCURVE('',#999,#1517);
#1517 = DEFINITIONAL_REPRESENTATION('',(#1518),#1522);
#1518 = LINE('',#1519,#1520);
#1519 = CARTESIAN_POINT('',(13.100262705826,-20.29644345786));
#1520 = VECTOR('',#1521,1.);
#1521 = DIRECTION('',(-0.896459874358,-0.443124918806));
#1522 = ( GEOMETRIC_REPRESENTATION_CONTEXT(2) 
PARAMETRIC_REPRESENTATION_CONTEXT() REPRESENTATION_CONTEXT('2D SPACE',''
  ) );
#1523 = PCURVE('',#1220,#1524);
#1524 = DEFINITIONAL_REPRESENTATION('',(#1525),#1529);
#1525 = LINE('',#1526,#1527);
#1526 = CARTESIAN_POINT('',(0.,0.));
#1527 = VECTOR('',#1528,1.);
#1528 = DIRECTION('',(1.,0.));
#1529 = ( GEOMETRIC_REPRESENTATION_CONTEXT(2) 
PARAMETRIC_REPRESENTATION_CONTEXT() REPRESENTATION_CONTEXT('2D SPACE',''
  ) );
#1530 = ORIENTED_EDGE('',*,*,#1307,.T.);
#1531 = ORIENTED_EDGE('',*,*,#1380,.T.);
#1532 = ORIENTED_EDGE('',*,*,#987,.T.);
#1533 = ORIENTED_EDGE('',*,*,#1036,.F.);
#1534 = ADVANCED_FACE('',(#1535),#1145,.T.);
#1535 = FACE_BOUND('',#1536,.T.);
#1536 = EDGE_LOOP('',(#1537,#1538,#1559,#1560));
#1537 = ORIENTED_EDGE('',*,*,#1487,.F.);
#1538 = ORIENTED_EDGE('',*,*,#1539,.T.);
#1539 = EDGE_CURVE('',#1488,#1182,#1540,.T.);
#1540 = SURFACE_CURVE('',#1541,(#1545,#1552),.PCURVE_S1.);
#1541 = LINE('',#1542,#1543);
#1542 = CARTESIAN_POINT('',(-80.,-1.1,-3.));
#1543 = VECTOR('',#1544,1.);
#1544 = DIRECTION('',(-0.,1.,0.));
#1545 = PCURVE('',#1145,#1546);
#1546 = DEFINITIONAL_REPRESENTATION('',(#1547),#1551);
#1547 = LINE('',#1548,#1549);
#1548 = CARTESIAN_POINT('',(0.,0.));
#1549 = VECTOR('',#1550,1.);
#1550 = DIRECTION('',(0.,-1.));
#1551 = ( GEOMETRIC_REPRESENTATION_CONTEXT(2) 
PARAMETRIC_REPRESENTATION_CONTEXT() REPRESENTATION_CONTEXT('2D SPACE',''
  ) );
#1552 = PCURVE('',#1220,#1553);
#1553 = DEFINITIONAL_REPRESENTATION('',(#1554),#1558);
#1554 = LINE('',#1555,#1556);
#1555 = CARTESIAN_POINT('',(20.,0.));
#1556 = VECTOR('',#1557,1.);
#1557 = DIRECTION('',(0.,1.));
#1558 = ( GEOMETRIC_REPRESENTATION_CONTEXT(2) 
PARAMETRIC_REPRESENTATION_CONTEXT() REPRESENTATION_CONTEXT('2D SPACE',''
  ) );
#1559 = ORIENTED_EDGE('',*,*,#1181,.T.);
#1560 = ORIENTED_EDGE('',*,*,#1130,.F.);
#1561 = ADVANCED_FACE('',(#1562),#1220,.F.);
#1562 = FACE_BOUND('',#1563,.F.);
#1563 = EDGE_LOOP('',(#1564,#1565,#1566,#1567));
#1564 = ORIENTED_EDGE('',*,*,#1332,.F.);
#1565 = ORIENTED_EDGE('',*,*,#1510,.T.);
#1566 = ORIENTED_EDGE('',*,*,#1539,.T.);
#1567 = ORIENTED_EDGE('',*,*,#1204,.F.);
#1568 = ( GEOMETRIC_REPRESENTATION_CONTEXT(3) 
GLOBAL_UNCERTAINTY_ASSIGNED_CONTEXT((#1572)) 
GLOBAL_UNIT_ASSIGNED_CONTEXT((#1569,#1570,#1571)) REPRESENTATION_CONTEXT
('Context #1','3D Context with UNIT and UNCERTAINTY') );
#1569 = ( LENGTH_UNIT() NAMED_UNIT(*) SI_UNIT(.MILLI.,.METRE.) );
#1570 = ( NAMED_UNIT(*) PLANE_ANGLE_UNIT() SI_UNIT($,.RADIAN.) );
#1571 = ( NAMED_UNIT(*) SI_UNIT($,.STERADIAN.) SOLID_ANGLE_UNIT() );
#1572 = UNCERTAINTY_MEASURE_WITH_UNIT(LENGTH_MEASURE(1.E-06),#1569,
  'distance_accuracy_value','confusion accuracy');
#1573 = CONTEXT_DEPENDENT_SHAPE_REPRESENTATION(#1574,#1576);
#1574 = ( REPRESENTATION_RELATIONSHIP('','',#32,#10) 
REPRESENTATION_RELATIONSHIP_WITH_TRANSFORMATION(#1575) 
SHAPE_REPRESENTATION_RELATIONSHIP() );
#1575 = ITEM_DEFINED_TRANSFORMATION('','',#11,#15);
#1576 = PRODUCT_DEFINITION_SHAPE('Placement','Placement of an item',
  #1577);
#1577 = NEXT_ASSEMBLY_USAGE_OCCURRENCE('25','fin_left','',#5,#27,$);
#1578 = PRODUCT_RELATED_PRODUCT_CATEGORY('part',$,(#29));
ENDSEC;
END-ISO-10303-21;
